M48
; DRILL file {KiCad 7.0.11-7.0.11~ubuntu22.04.1} date Sun 06 Oct 2024 05:31:24 AM EDT
; FORMAT={-:-/ absolute / metric / decimal}
; #@! TF.CreationDate,2024-10-06T05:31:24-04:00
; #@! TF.GenerationSoftware,Kicad,Pcbnew,7.0.11-7.0.11~ubuntu22.04.1
; #@! TF.FileFunction,MixedPlating,1,2
FMAT,2
METRIC
; #@! TA.AperFunction,Plated,PTH,ViaDrill
T1C0.610
; #@! TA.AperFunction,Plated,PTH,ComponentDrill
T2C1.100
; #@! TA.AperFunction,Plated,PTH,ComponentDrill
T3C3.250
%
G90
G05
T1
X108.737Y-135.521
X111.277Y-135.521
X113.817Y-135.521
X116.281Y-135.521
X118.897Y-135.521
X121.463Y-135.521
X123.977Y-135.521
X126.517Y-135.521
X129.057Y-135.521
X131.597Y-135.521
X134.137Y-135.521
X136.677Y-135.521
X139.217Y-135.521
X141.757Y-135.521
X144.323Y-135.521
T2
X108.687Y-128.384
X108.687Y-133.21
X111.227Y-128.384
X111.227Y-133.21
X113.767Y-128.384
X113.767Y-133.21
X116.307Y-128.384
X116.307Y-133.21
X118.847Y-128.384
X118.847Y-133.21
X121.387Y-128.384
X121.387Y-133.21
X123.927Y-128.384
X123.927Y-133.21
X126.467Y-128.384
X126.467Y-133.21
X129.007Y-128.384
X129.007Y-133.21
X131.547Y-128.384
X131.547Y-133.21
X134.087Y-128.384
X134.087Y-133.21
X136.627Y-128.384
X136.627Y-133.21
X139.167Y-128.384
X139.167Y-133.21
X141.707Y-128.384
X141.707Y-133.21
X144.247Y-128.384
X144.247Y-133.21
T3
X100.117Y-130.785
X152.817Y-130.785
M30
