%TF.GenerationSoftware,KiCad,Pcbnew,7.0.11-7.0.11~ubuntu22.04.1*%
%TF.CreationDate,2024-10-06T05:31:22-04:00*%
%TF.ProjectId,right_angle,72696768-745f-4616-9e67-6c652e6b6963,DEV*%
%TF.SameCoordinates,Original*%
%TF.FileFunction,Other,User*%
%FSLAX46Y46*%
G04 Gerber Fmt 4.6, Leading zero omitted, Abs format (unit mm)*
G04 Created by KiCad (PCBNEW 7.0.11-7.0.11~ubuntu22.04.1) date 2024-10-06 05:31:22*
%MOMM*%
%LPD*%
G01*
G04 APERTURE LIST*
%ADD10C,0.815975*%
%ADD11C,0.150000*%
%ADD12C,0.100000*%
G04 APERTURE END LIST*
D10*
X84836000Y-139508800D02*
X84836000Y-128917000D01*
X105994200Y-146138200D02*
X105994200Y-139508800D01*
X146278600Y-147357400D02*
X106756200Y-147357400D01*
X106756200Y-147357400D02*
X105994200Y-146138200D01*
X90170000Y-118325200D02*
X164338000Y-118350600D01*
X164338000Y-118350600D02*
X168071800Y-128891600D01*
X146989800Y-139508800D02*
X146989800Y-146341400D01*
X168071800Y-128891600D02*
X168071800Y-139458000D01*
X146989800Y-146341400D02*
X146278600Y-147357400D01*
X168071800Y-139458000D02*
X148945600Y-139458000D01*
X105994200Y-139508800D02*
X84836000Y-139508800D01*
X84836000Y-128917000D02*
X88823800Y-118350600D01*
D11*
X141896504Y-98199019D02*
X141325076Y-98199019D01*
X141610790Y-98199019D02*
X141610790Y-97199019D01*
X141610790Y-97199019D02*
X141515552Y-97341876D01*
X141515552Y-97341876D02*
X141420314Y-97437114D01*
X141420314Y-97437114D02*
X141325076Y-97484733D01*
X142753647Y-97199019D02*
X142563171Y-97199019D01*
X142563171Y-97199019D02*
X142467933Y-97246638D01*
X142467933Y-97246638D02*
X142420314Y-97294257D01*
X142420314Y-97294257D02*
X142325076Y-97437114D01*
X142325076Y-97437114D02*
X142277457Y-97627590D01*
X142277457Y-97627590D02*
X142277457Y-98008542D01*
X142277457Y-98008542D02*
X142325076Y-98103780D01*
X142325076Y-98103780D02*
X142372695Y-98151400D01*
X142372695Y-98151400D02*
X142467933Y-98199019D01*
X142467933Y-98199019D02*
X142658409Y-98199019D01*
X142658409Y-98199019D02*
X142753647Y-98151400D01*
X142753647Y-98151400D02*
X142801266Y-98103780D01*
X142801266Y-98103780D02*
X142848885Y-98008542D01*
X142848885Y-98008542D02*
X142848885Y-97770447D01*
X142848885Y-97770447D02*
X142801266Y-97675209D01*
X142801266Y-97675209D02*
X142753647Y-97627590D01*
X142753647Y-97627590D02*
X142658409Y-97579971D01*
X142658409Y-97579971D02*
X142467933Y-97579971D01*
X142467933Y-97579971D02*
X142372695Y-97627590D01*
X142372695Y-97627590D02*
X142325076Y-97675209D01*
X142325076Y-97675209D02*
X142277457Y-97770447D01*
X143229838Y-97294257D02*
X143277457Y-97246638D01*
X143277457Y-97246638D02*
X143372695Y-97199019D01*
X143372695Y-97199019D02*
X143610790Y-97199019D01*
X143610790Y-97199019D02*
X143706028Y-97246638D01*
X143706028Y-97246638D02*
X143753647Y-97294257D01*
X143753647Y-97294257D02*
X143801266Y-97389495D01*
X143801266Y-97389495D02*
X143801266Y-97484733D01*
X143801266Y-97484733D02*
X143753647Y-97627590D01*
X143753647Y-97627590D02*
X143182219Y-98199019D01*
X143182219Y-98199019D02*
X143801266Y-98199019D01*
X144658409Y-97532352D02*
X144658409Y-98199019D01*
X144420314Y-97151400D02*
X144182219Y-97865685D01*
X144182219Y-97865685D02*
X144801266Y-97865685D01*
X145182219Y-98103780D02*
X145229838Y-98151400D01*
X145229838Y-98151400D02*
X145182219Y-98199019D01*
X145182219Y-98199019D02*
X145134600Y-98151400D01*
X145134600Y-98151400D02*
X145182219Y-98103780D01*
X145182219Y-98103780D02*
X145182219Y-98199019D01*
X146134599Y-97199019D02*
X145658409Y-97199019D01*
X145658409Y-97199019D02*
X145610790Y-97675209D01*
X145610790Y-97675209D02*
X145658409Y-97627590D01*
X145658409Y-97627590D02*
X145753647Y-97579971D01*
X145753647Y-97579971D02*
X145991742Y-97579971D01*
X145991742Y-97579971D02*
X146086980Y-97627590D01*
X146086980Y-97627590D02*
X146134599Y-97675209D01*
X146134599Y-97675209D02*
X146182218Y-97770447D01*
X146182218Y-97770447D02*
X146182218Y-98008542D01*
X146182218Y-98008542D02*
X146134599Y-98103780D01*
X146134599Y-98103780D02*
X146086980Y-98151400D01*
X146086980Y-98151400D02*
X145991742Y-98199019D01*
X145991742Y-98199019D02*
X145753647Y-98199019D01*
X145753647Y-98199019D02*
X145658409Y-98151400D01*
X145658409Y-98151400D02*
X145610790Y-98103780D01*
X146658409Y-98199019D02*
X146848885Y-98199019D01*
X146848885Y-98199019D02*
X146944123Y-98151400D01*
X146944123Y-98151400D02*
X146991742Y-98103780D01*
X146991742Y-98103780D02*
X147086980Y-97960923D01*
X147086980Y-97960923D02*
X147134599Y-97770447D01*
X147134599Y-97770447D02*
X147134599Y-97389495D01*
X147134599Y-97389495D02*
X147086980Y-97294257D01*
X147086980Y-97294257D02*
X147039361Y-97246638D01*
X147039361Y-97246638D02*
X146944123Y-97199019D01*
X146944123Y-97199019D02*
X146753647Y-97199019D01*
X146753647Y-97199019D02*
X146658409Y-97246638D01*
X146658409Y-97246638D02*
X146610790Y-97294257D01*
X146610790Y-97294257D02*
X146563171Y-97389495D01*
X146563171Y-97389495D02*
X146563171Y-97627590D01*
X146563171Y-97627590D02*
X146610790Y-97722828D01*
X146610790Y-97722828D02*
X146658409Y-97770447D01*
X146658409Y-97770447D02*
X146753647Y-97818066D01*
X146753647Y-97818066D02*
X146944123Y-97818066D01*
X146944123Y-97818066D02*
X147039361Y-97770447D01*
X147039361Y-97770447D02*
X147086980Y-97722828D01*
X147086980Y-97722828D02*
X147134599Y-97627590D01*
X147706028Y-97627590D02*
X147610790Y-97579971D01*
X147610790Y-97579971D02*
X147563171Y-97532352D01*
X147563171Y-97532352D02*
X147515552Y-97437114D01*
X147515552Y-97437114D02*
X147515552Y-97389495D01*
X147515552Y-97389495D02*
X147563171Y-97294257D01*
X147563171Y-97294257D02*
X147610790Y-97246638D01*
X147610790Y-97246638D02*
X147706028Y-97199019D01*
X147706028Y-97199019D02*
X147896504Y-97199019D01*
X147896504Y-97199019D02*
X147991742Y-97246638D01*
X147991742Y-97246638D02*
X148039361Y-97294257D01*
X148039361Y-97294257D02*
X148086980Y-97389495D01*
X148086980Y-97389495D02*
X148086980Y-97437114D01*
X148086980Y-97437114D02*
X148039361Y-97532352D01*
X148039361Y-97532352D02*
X147991742Y-97579971D01*
X147991742Y-97579971D02*
X147896504Y-97627590D01*
X147896504Y-97627590D02*
X147706028Y-97627590D01*
X147706028Y-97627590D02*
X147610790Y-97675209D01*
X147610790Y-97675209D02*
X147563171Y-97722828D01*
X147563171Y-97722828D02*
X147515552Y-97818066D01*
X147515552Y-97818066D02*
X147515552Y-98008542D01*
X147515552Y-98008542D02*
X147563171Y-98103780D01*
X147563171Y-98103780D02*
X147610790Y-98151400D01*
X147610790Y-98151400D02*
X147706028Y-98199019D01*
X147706028Y-98199019D02*
X147896504Y-98199019D01*
X147896504Y-98199019D02*
X147991742Y-98151400D01*
X147991742Y-98151400D02*
X148039361Y-98103780D01*
X148039361Y-98103780D02*
X148086980Y-98008542D01*
X148086980Y-98008542D02*
X148086980Y-97818066D01*
X148086980Y-97818066D02*
X148039361Y-97722828D01*
X148039361Y-97722828D02*
X147991742Y-97675209D01*
X147991742Y-97675209D02*
X147896504Y-97627590D01*
X148944123Y-97532352D02*
X148944123Y-98199019D01*
X148706028Y-97151400D02*
X148467933Y-97865685D01*
X148467933Y-97865685D02*
X149086980Y-97865685D01*
X150229838Y-98199019D02*
X150229838Y-97532352D01*
X150229838Y-97627590D02*
X150277457Y-97579971D01*
X150277457Y-97579971D02*
X150372695Y-97532352D01*
X150372695Y-97532352D02*
X150515552Y-97532352D01*
X150515552Y-97532352D02*
X150610790Y-97579971D01*
X150610790Y-97579971D02*
X150658409Y-97675209D01*
X150658409Y-97675209D02*
X150658409Y-98199019D01*
X150658409Y-97675209D02*
X150706028Y-97579971D01*
X150706028Y-97579971D02*
X150801266Y-97532352D01*
X150801266Y-97532352D02*
X150944123Y-97532352D01*
X150944123Y-97532352D02*
X151039362Y-97579971D01*
X151039362Y-97579971D02*
X151086981Y-97675209D01*
X151086981Y-97675209D02*
X151086981Y-98199019D01*
X151563171Y-98199019D02*
X151563171Y-97532352D01*
X151563171Y-97199019D02*
X151515552Y-97246638D01*
X151515552Y-97246638D02*
X151563171Y-97294257D01*
X151563171Y-97294257D02*
X151610790Y-97246638D01*
X151610790Y-97246638D02*
X151563171Y-97199019D01*
X151563171Y-97199019D02*
X151563171Y-97294257D01*
X152182218Y-98199019D02*
X152086980Y-98151400D01*
X152086980Y-98151400D02*
X152039361Y-98056161D01*
X152039361Y-98056161D02*
X152039361Y-97199019D01*
X152515552Y-98151400D02*
X152610790Y-98199019D01*
X152610790Y-98199019D02*
X152801266Y-98199019D01*
X152801266Y-98199019D02*
X152896504Y-98151400D01*
X152896504Y-98151400D02*
X152944123Y-98056161D01*
X152944123Y-98056161D02*
X152944123Y-98008542D01*
X152944123Y-98008542D02*
X152896504Y-97913304D01*
X152896504Y-97913304D02*
X152801266Y-97865685D01*
X152801266Y-97865685D02*
X152658409Y-97865685D01*
X152658409Y-97865685D02*
X152563171Y-97818066D01*
X152563171Y-97818066D02*
X152515552Y-97722828D01*
X152515552Y-97722828D02*
X152515552Y-97675209D01*
X152515552Y-97675209D02*
X152563171Y-97579971D01*
X152563171Y-97579971D02*
X152658409Y-97532352D01*
X152658409Y-97532352D02*
X152801266Y-97532352D01*
X152801266Y-97532352D02*
X152896504Y-97579971D01*
D12*
X126502200Y-136037000D02*
X126502200Y-98307780D01*
X167767000Y-136037000D02*
X167767000Y-98307780D01*
X126502200Y-98894200D02*
X167767000Y-98894200D01*
X126502200Y-98894200D02*
X167767000Y-98894200D01*
X126502200Y-98894200D02*
X127628704Y-98307779D01*
X126502200Y-98894200D02*
X127628704Y-99480621D01*
X167767000Y-98894200D02*
X166640496Y-99480621D01*
X167767000Y-98894200D02*
X166640496Y-98307779D01*
D11*
X100654504Y-98249819D02*
X100083076Y-98249819D01*
X100368790Y-98249819D02*
X100368790Y-97249819D01*
X100368790Y-97249819D02*
X100273552Y-97392676D01*
X100273552Y-97392676D02*
X100178314Y-97487914D01*
X100178314Y-97487914D02*
X100083076Y-97535533D01*
X101511647Y-97249819D02*
X101321171Y-97249819D01*
X101321171Y-97249819D02*
X101225933Y-97297438D01*
X101225933Y-97297438D02*
X101178314Y-97345057D01*
X101178314Y-97345057D02*
X101083076Y-97487914D01*
X101083076Y-97487914D02*
X101035457Y-97678390D01*
X101035457Y-97678390D02*
X101035457Y-98059342D01*
X101035457Y-98059342D02*
X101083076Y-98154580D01*
X101083076Y-98154580D02*
X101130695Y-98202200D01*
X101130695Y-98202200D02*
X101225933Y-98249819D01*
X101225933Y-98249819D02*
X101416409Y-98249819D01*
X101416409Y-98249819D02*
X101511647Y-98202200D01*
X101511647Y-98202200D02*
X101559266Y-98154580D01*
X101559266Y-98154580D02*
X101606885Y-98059342D01*
X101606885Y-98059342D02*
X101606885Y-97821247D01*
X101606885Y-97821247D02*
X101559266Y-97726009D01*
X101559266Y-97726009D02*
X101511647Y-97678390D01*
X101511647Y-97678390D02*
X101416409Y-97630771D01*
X101416409Y-97630771D02*
X101225933Y-97630771D01*
X101225933Y-97630771D02*
X101130695Y-97678390D01*
X101130695Y-97678390D02*
X101083076Y-97726009D01*
X101083076Y-97726009D02*
X101035457Y-97821247D01*
X101987838Y-97345057D02*
X102035457Y-97297438D01*
X102035457Y-97297438D02*
X102130695Y-97249819D01*
X102130695Y-97249819D02*
X102368790Y-97249819D01*
X102368790Y-97249819D02*
X102464028Y-97297438D01*
X102464028Y-97297438D02*
X102511647Y-97345057D01*
X102511647Y-97345057D02*
X102559266Y-97440295D01*
X102559266Y-97440295D02*
X102559266Y-97535533D01*
X102559266Y-97535533D02*
X102511647Y-97678390D01*
X102511647Y-97678390D02*
X101940219Y-98249819D01*
X101940219Y-98249819D02*
X102559266Y-98249819D01*
X103416409Y-97583152D02*
X103416409Y-98249819D01*
X103178314Y-97202200D02*
X102940219Y-97916485D01*
X102940219Y-97916485D02*
X103559266Y-97916485D01*
X103940219Y-98154580D02*
X103987838Y-98202200D01*
X103987838Y-98202200D02*
X103940219Y-98249819D01*
X103940219Y-98249819D02*
X103892600Y-98202200D01*
X103892600Y-98202200D02*
X103940219Y-98154580D01*
X103940219Y-98154580D02*
X103940219Y-98249819D01*
X104606885Y-97249819D02*
X104702123Y-97249819D01*
X104702123Y-97249819D02*
X104797361Y-97297438D01*
X104797361Y-97297438D02*
X104844980Y-97345057D01*
X104844980Y-97345057D02*
X104892599Y-97440295D01*
X104892599Y-97440295D02*
X104940218Y-97630771D01*
X104940218Y-97630771D02*
X104940218Y-97868866D01*
X104940218Y-97868866D02*
X104892599Y-98059342D01*
X104892599Y-98059342D02*
X104844980Y-98154580D01*
X104844980Y-98154580D02*
X104797361Y-98202200D01*
X104797361Y-98202200D02*
X104702123Y-98249819D01*
X104702123Y-98249819D02*
X104606885Y-98249819D01*
X104606885Y-98249819D02*
X104511647Y-98202200D01*
X104511647Y-98202200D02*
X104464028Y-98154580D01*
X104464028Y-98154580D02*
X104416409Y-98059342D01*
X104416409Y-98059342D02*
X104368790Y-97868866D01*
X104368790Y-97868866D02*
X104368790Y-97630771D01*
X104368790Y-97630771D02*
X104416409Y-97440295D01*
X104416409Y-97440295D02*
X104464028Y-97345057D01*
X104464028Y-97345057D02*
X104511647Y-97297438D01*
X104511647Y-97297438D02*
X104606885Y-97249819D01*
X105559266Y-97249819D02*
X105654504Y-97249819D01*
X105654504Y-97249819D02*
X105749742Y-97297438D01*
X105749742Y-97297438D02*
X105797361Y-97345057D01*
X105797361Y-97345057D02*
X105844980Y-97440295D01*
X105844980Y-97440295D02*
X105892599Y-97630771D01*
X105892599Y-97630771D02*
X105892599Y-97868866D01*
X105892599Y-97868866D02*
X105844980Y-98059342D01*
X105844980Y-98059342D02*
X105797361Y-98154580D01*
X105797361Y-98154580D02*
X105749742Y-98202200D01*
X105749742Y-98202200D02*
X105654504Y-98249819D01*
X105654504Y-98249819D02*
X105559266Y-98249819D01*
X105559266Y-98249819D02*
X105464028Y-98202200D01*
X105464028Y-98202200D02*
X105416409Y-98154580D01*
X105416409Y-98154580D02*
X105368790Y-98059342D01*
X105368790Y-98059342D02*
X105321171Y-97868866D01*
X105321171Y-97868866D02*
X105321171Y-97630771D01*
X105321171Y-97630771D02*
X105368790Y-97440295D01*
X105368790Y-97440295D02*
X105416409Y-97345057D01*
X105416409Y-97345057D02*
X105464028Y-97297438D01*
X105464028Y-97297438D02*
X105559266Y-97249819D01*
X106511647Y-97249819D02*
X106606885Y-97249819D01*
X106606885Y-97249819D02*
X106702123Y-97297438D01*
X106702123Y-97297438D02*
X106749742Y-97345057D01*
X106749742Y-97345057D02*
X106797361Y-97440295D01*
X106797361Y-97440295D02*
X106844980Y-97630771D01*
X106844980Y-97630771D02*
X106844980Y-97868866D01*
X106844980Y-97868866D02*
X106797361Y-98059342D01*
X106797361Y-98059342D02*
X106749742Y-98154580D01*
X106749742Y-98154580D02*
X106702123Y-98202200D01*
X106702123Y-98202200D02*
X106606885Y-98249819D01*
X106606885Y-98249819D02*
X106511647Y-98249819D01*
X106511647Y-98249819D02*
X106416409Y-98202200D01*
X106416409Y-98202200D02*
X106368790Y-98154580D01*
X106368790Y-98154580D02*
X106321171Y-98059342D01*
X106321171Y-98059342D02*
X106273552Y-97868866D01*
X106273552Y-97868866D02*
X106273552Y-97630771D01*
X106273552Y-97630771D02*
X106321171Y-97440295D01*
X106321171Y-97440295D02*
X106368790Y-97345057D01*
X106368790Y-97345057D02*
X106416409Y-97297438D01*
X106416409Y-97297438D02*
X106511647Y-97249819D01*
X107464028Y-97249819D02*
X107559266Y-97249819D01*
X107559266Y-97249819D02*
X107654504Y-97297438D01*
X107654504Y-97297438D02*
X107702123Y-97345057D01*
X107702123Y-97345057D02*
X107749742Y-97440295D01*
X107749742Y-97440295D02*
X107797361Y-97630771D01*
X107797361Y-97630771D02*
X107797361Y-97868866D01*
X107797361Y-97868866D02*
X107749742Y-98059342D01*
X107749742Y-98059342D02*
X107702123Y-98154580D01*
X107702123Y-98154580D02*
X107654504Y-98202200D01*
X107654504Y-98202200D02*
X107559266Y-98249819D01*
X107559266Y-98249819D02*
X107464028Y-98249819D01*
X107464028Y-98249819D02*
X107368790Y-98202200D01*
X107368790Y-98202200D02*
X107321171Y-98154580D01*
X107321171Y-98154580D02*
X107273552Y-98059342D01*
X107273552Y-98059342D02*
X107225933Y-97868866D01*
X107225933Y-97868866D02*
X107225933Y-97630771D01*
X107225933Y-97630771D02*
X107273552Y-97440295D01*
X107273552Y-97440295D02*
X107321171Y-97345057D01*
X107321171Y-97345057D02*
X107368790Y-97297438D01*
X107368790Y-97297438D02*
X107464028Y-97249819D01*
X108987838Y-98249819D02*
X108987838Y-97583152D01*
X108987838Y-97678390D02*
X109035457Y-97630771D01*
X109035457Y-97630771D02*
X109130695Y-97583152D01*
X109130695Y-97583152D02*
X109273552Y-97583152D01*
X109273552Y-97583152D02*
X109368790Y-97630771D01*
X109368790Y-97630771D02*
X109416409Y-97726009D01*
X109416409Y-97726009D02*
X109416409Y-98249819D01*
X109416409Y-97726009D02*
X109464028Y-97630771D01*
X109464028Y-97630771D02*
X109559266Y-97583152D01*
X109559266Y-97583152D02*
X109702123Y-97583152D01*
X109702123Y-97583152D02*
X109797362Y-97630771D01*
X109797362Y-97630771D02*
X109844981Y-97726009D01*
X109844981Y-97726009D02*
X109844981Y-98249819D01*
X110321171Y-98249819D02*
X110321171Y-97583152D01*
X110321171Y-97249819D02*
X110273552Y-97297438D01*
X110273552Y-97297438D02*
X110321171Y-97345057D01*
X110321171Y-97345057D02*
X110368790Y-97297438D01*
X110368790Y-97297438D02*
X110321171Y-97249819D01*
X110321171Y-97249819D02*
X110321171Y-97345057D01*
X110940218Y-98249819D02*
X110844980Y-98202200D01*
X110844980Y-98202200D02*
X110797361Y-98106961D01*
X110797361Y-98106961D02*
X110797361Y-97249819D01*
X111273552Y-98202200D02*
X111368790Y-98249819D01*
X111368790Y-98249819D02*
X111559266Y-98249819D01*
X111559266Y-98249819D02*
X111654504Y-98202200D01*
X111654504Y-98202200D02*
X111702123Y-98106961D01*
X111702123Y-98106961D02*
X111702123Y-98059342D01*
X111702123Y-98059342D02*
X111654504Y-97964104D01*
X111654504Y-97964104D02*
X111559266Y-97916485D01*
X111559266Y-97916485D02*
X111416409Y-97916485D01*
X111416409Y-97916485D02*
X111321171Y-97868866D01*
X111321171Y-97868866D02*
X111273552Y-97773628D01*
X111273552Y-97773628D02*
X111273552Y-97726009D01*
X111273552Y-97726009D02*
X111321171Y-97630771D01*
X111321171Y-97630771D02*
X111416409Y-97583152D01*
X111416409Y-97583152D02*
X111559266Y-97583152D01*
X111559266Y-97583152D02*
X111654504Y-97630771D01*
D12*
X126517400Y-136062400D02*
X126517400Y-98358580D01*
X85267800Y-136062400D02*
X85267800Y-98358580D01*
X126517400Y-98945000D02*
X85267800Y-98945000D01*
X126517400Y-98945000D02*
X85267800Y-98945000D01*
X126517400Y-98945000D02*
X125390896Y-99531421D01*
X126517400Y-98945000D02*
X125390896Y-98358579D01*
X85267800Y-98945000D02*
X86394304Y-98358579D01*
X85267800Y-98945000D02*
X86394304Y-99531421D01*
M02*
