%TF.GenerationSoftware,KiCad,Pcbnew,7.0.11-7.0.11~ubuntu22.04.1*%
%TF.CreationDate,2024-10-05T18:33:47-04:00*%
%TF.ProjectId,right_angle,72696768-745f-4616-9e67-6c652e6b6963,DEV*%
%TF.SameCoordinates,Original*%
%TF.FileFunction,Copper,L2,Bot*%
%TF.FilePolarity,Positive*%
%FSLAX46Y46*%
G04 Gerber Fmt 4.6, Leading zero omitted, Abs format (unit mm)*
G04 Created by KiCad (PCBNEW 7.0.11-7.0.11~ubuntu22.04.1) date 2024-10-05 18:33:47*
%MOMM*%
%LPD*%
G01*
G04 APERTURE LIST*
%TA.AperFunction,ComponentPad*%
%ADD10O,1.500000X2.000000*%
%TD*%
%TA.AperFunction,ComponentPad*%
%ADD11C,4.875000*%
%TD*%
%TA.AperFunction,ConnectorPad*%
%ADD12R,1.524000X9.906000*%
%TD*%
%TA.AperFunction,ViaPad*%
%ADD13C,1.143000*%
%TD*%
%TA.AperFunction,Conductor*%
%ADD14C,0.381000*%
%TD*%
G04 APERTURE END LIST*
D10*
%TO.P,J12,1,Pin_1*%
%TO.N,Net-(J12-Pin_1)*%
X108686600Y-128383600D03*
%TO.P,J12,2,Pin_2*%
%TO.N,Net-(J12-Pin_2)*%
X108686600Y-133209600D03*
%TO.P,J12,3,Pin_3*%
%TO.N,Net-(J12-Pin_3)*%
X111226600Y-128383600D03*
%TO.P,J12,4,Pin_4*%
%TO.N,Net-(J12-Pin_4)*%
X111226600Y-133209600D03*
%TO.P,J12,5,Pin_5*%
%TO.N,Net-(J12-Pin_5)*%
X113766600Y-128383600D03*
%TO.P,J12,6,Pin_6*%
%TO.N,Net-(J12-Pin_6)*%
X113766600Y-133209600D03*
%TO.P,J12,7,Pin_7*%
%TO.N,Net-(J12-Pin_7)*%
X116306600Y-128383600D03*
%TO.P,J12,8,Pin_8*%
%TO.N,Net-(J12-Pin_8)*%
X116306600Y-133209600D03*
%TO.P,J12,9,Pin_9*%
%TO.N,Net-(J12-Pin_9)*%
X118846600Y-128383600D03*
%TO.P,J12,10,Pin_10*%
%TO.N,Net-(J12-Pin_10)*%
X118846600Y-133209600D03*
%TO.P,J12,11,Pin_11*%
%TO.N,Net-(J12-Pin_11)*%
X121386600Y-128383600D03*
%TO.P,J12,12,Pin_12*%
%TO.N,Net-(J12-Pin_12)*%
X121386600Y-133209600D03*
%TO.P,J12,13,Pin_13*%
%TO.N,Net-(J12-Pin_13)*%
X123926600Y-128383600D03*
%TO.P,J12,14,Pin_14*%
%TO.N,Net-(J12-Pin_14)*%
X123926600Y-133209600D03*
%TO.P,J12,15,Pin_15*%
%TO.N,Net-(J12-Pin_15)*%
X126466600Y-128383600D03*
%TO.P,J12,16,Pin_16*%
%TO.N,Net-(J12-Pin_16)*%
X126466600Y-133209600D03*
%TO.P,J12,17,Pin_17*%
%TO.N,Net-(J12-Pin_17)*%
X129006600Y-128383600D03*
%TO.P,J12,18,Pin_18*%
%TO.N,Net-(J12-Pin_18)*%
X129006600Y-133209600D03*
%TO.P,J12,19,Pin_19*%
%TO.N,Net-(J12-Pin_19)*%
X131546600Y-128383600D03*
%TO.P,J12,20,Pin_20*%
%TO.N,Net-(J12-Pin_20)*%
X131546600Y-133209600D03*
%TO.P,J12,21,Pin_21*%
%TO.N,Net-(J12-Pin_21)*%
X134086600Y-128383600D03*
%TO.P,J12,22,Pin_22*%
%TO.N,Net-(J12-Pin_22)*%
X134086600Y-133209600D03*
%TO.P,J12,23,Pin_23*%
%TO.N,Net-(J12-Pin_23)*%
X136626600Y-128383600D03*
%TO.P,J12,24,Pin_24*%
%TO.N,Net-(J12-Pin_24)*%
X136626600Y-133209600D03*
%TO.P,J12,25,Pin_25*%
%TO.N,Net-(J12-Pin_25)*%
X139166600Y-128383600D03*
%TO.P,J12,26,Pin_26*%
%TO.N,Net-(J12-Pin_26)*%
X139166600Y-133209600D03*
%TO.P,J12,27,Pin_27*%
%TO.N,Net-(J12-Pin_27)*%
X141706600Y-128383600D03*
%TO.P,J12,28,Pin_28*%
%TO.N,Net-(J12-Pin_28)*%
X141706600Y-133209600D03*
%TO.P,J12,29,Pin_29*%
%TO.N,Net-(J12-Pin_29)*%
X144246600Y-128383600D03*
%TO.P,J12,30,Pin_30*%
%TO.N,Net-(J12-Pin_30)*%
X144246600Y-133209600D03*
D11*
%TO.P,J12,MH1*%
%TO.N,N/C*%
X100116600Y-130784600D03*
%TO.P,J12,MH2*%
X152816600Y-130784600D03*
%TD*%
D12*
%TO.P,J13,1,Pin_1*%
%TO.N,Net-(J12-Pin_1)*%
X108737400Y-141769400D03*
%TO.P,J13,3,Pin_3*%
%TO.N,Net-(J12-Pin_3)*%
X111277400Y-141769400D03*
%TO.P,J13,5,Pin_5*%
%TO.N,Net-(J12-Pin_5)*%
X113817400Y-141769400D03*
%TO.P,J13,7,Pin_7*%
%TO.N,Net-(J12-Pin_7)*%
X116357400Y-141769400D03*
%TO.P,J13,9,Pin_9*%
%TO.N,Net-(J12-Pin_9)*%
X118897400Y-141769400D03*
%TO.P,J13,11,Pin_11*%
%TO.N,Net-(J12-Pin_11)*%
X121437400Y-141769400D03*
%TO.P,J13,13,Pin_13*%
%TO.N,Net-(J12-Pin_13)*%
X123977400Y-141769400D03*
%TO.P,J13,15,Pin_15*%
%TO.N,Net-(J12-Pin_15)*%
X126517400Y-141769400D03*
%TO.P,J13,17,Pin_17*%
%TO.N,Net-(J12-Pin_17)*%
X129057400Y-141769400D03*
%TO.P,J13,19,Pin_19*%
%TO.N,Net-(J12-Pin_19)*%
X131597400Y-141769400D03*
%TO.P,J13,21,Pin_21*%
%TO.N,Net-(J12-Pin_21)*%
X134137400Y-141769400D03*
%TO.P,J13,23,Pin_23*%
%TO.N,Net-(J12-Pin_23)*%
X136677400Y-141769400D03*
%TO.P,J13,25,Pin_25*%
%TO.N,Net-(J12-Pin_25)*%
X139217400Y-141769400D03*
%TO.P,J13,27,Pin_27*%
%TO.N,Net-(J12-Pin_27)*%
X141757400Y-141769400D03*
%TO.P,J13,29,Pin_29*%
%TO.N,Net-(J12-Pin_29)*%
X144297400Y-141769400D03*
%TD*%
D13*
%TO.N,Net-(J12-Pin_2)*%
X108737400Y-135521000D03*
%TO.N,Net-(J12-Pin_4)*%
X111277400Y-135521000D03*
%TO.N,Net-(J12-Pin_6)*%
X113817400Y-135521000D03*
%TO.N,Net-(J12-Pin_8)*%
X116281200Y-135521000D03*
%TO.N,Net-(J12-Pin_10)*%
X118897400Y-135521000D03*
%TO.N,Net-(J12-Pin_12)*%
X121462800Y-135521000D03*
%TO.N,Net-(J12-Pin_14)*%
X123977400Y-135521000D03*
%TO.N,Net-(J12-Pin_16)*%
X126517400Y-135521000D03*
%TO.N,Net-(J12-Pin_18)*%
X129057400Y-135521000D03*
%TO.N,Net-(J12-Pin_20)*%
X131597400Y-135521000D03*
%TO.N,Net-(J12-Pin_22)*%
X134137400Y-135521000D03*
%TO.N,Net-(J12-Pin_24)*%
X136677400Y-135521000D03*
%TO.N,Net-(J12-Pin_26)*%
X139217400Y-135521000D03*
%TO.N,Net-(J12-Pin_28)*%
X141757400Y-135521000D03*
%TO.N,Net-(J12-Pin_30)*%
X144322800Y-135521000D03*
%TD*%
D14*
%TO.N,Net-(J12-Pin_1)*%
X107441300Y-129628900D02*
X108686600Y-128383600D01*
X107441300Y-135733584D02*
X107441300Y-129628900D01*
X108737400Y-141769400D02*
X108737400Y-137029684D01*
X108737400Y-137029684D02*
X107441300Y-135733584D01*
%TO.N,Net-(J12-Pin_2)*%
X108686600Y-135648000D02*
X108686600Y-133209600D01*
%TO.N,Net-(J12-Pin_3)*%
X111277400Y-137029684D02*
X109981300Y-135733584D01*
X109981300Y-129628900D02*
X111226600Y-128383600D01*
X109981300Y-135733584D02*
X109981300Y-129628900D01*
X111277400Y-141769400D02*
X111277400Y-137029684D01*
%TO.N,Net-(J12-Pin_4)*%
X111252000Y-135571800D02*
X111252000Y-133235000D01*
X111252000Y-133235000D02*
X111226600Y-133209600D01*
%TO.N,Net-(J12-Pin_5)*%
X112521300Y-129628900D02*
X113766600Y-128383600D01*
X112521300Y-135733584D02*
X112521300Y-129628900D01*
X113817400Y-137029684D02*
X112521300Y-135733584D01*
X113817400Y-141769400D02*
X113817400Y-137029684D01*
%TO.N,Net-(J12-Pin_6)*%
X113817400Y-133260400D02*
X113766600Y-133209600D01*
X113817400Y-135597200D02*
X113817400Y-133260400D01*
%TO.N,Net-(J12-Pin_7)*%
X115061300Y-135809784D02*
X115061300Y-129628900D01*
X116357400Y-141769400D02*
X116357400Y-137105884D01*
X115061300Y-129628900D02*
X116306600Y-128383600D01*
X116357400Y-137105884D02*
X115061300Y-135809784D01*
%TO.N,Net-(J12-Pin_8)*%
X116281200Y-135648000D02*
X116281200Y-133235000D01*
X116281200Y-133235000D02*
X116306600Y-133209600D01*
%TO.N,Net-(J12-Pin_9)*%
X117551900Y-135684184D02*
X117551900Y-129678300D01*
X117551900Y-129678300D02*
X118846600Y-128383600D01*
X118897400Y-141769400D02*
X118897400Y-137029684D01*
X118897400Y-137029684D02*
X117551900Y-135684184D01*
%TO.N,Net-(J12-Pin_10)*%
X118897400Y-133260400D02*
X118846600Y-133209600D01*
X118897400Y-135597200D02*
X118897400Y-133260400D01*
%TO.N,Net-(J12-Pin_11)*%
X120141300Y-129628900D02*
X121386600Y-128383600D01*
X121437400Y-137004284D02*
X120141300Y-135708184D01*
X120141300Y-135708184D02*
X120141300Y-129628900D01*
X121437400Y-141769400D02*
X121437400Y-137004284D01*
%TO.N,Net-(J12-Pin_12)*%
X121462800Y-133285800D02*
X121386600Y-133209600D01*
X121462800Y-135521000D02*
X121462800Y-133285800D01*
%TO.N,Net-(J12-Pin_13)*%
X122580400Y-135648000D02*
X122631900Y-135596500D01*
X123977400Y-141769400D02*
X123977400Y-137045000D01*
X123977400Y-137045000D02*
X122580400Y-135648000D01*
X122631900Y-129678300D02*
X123926600Y-128383600D01*
X122631900Y-135596500D02*
X122631900Y-129678300D01*
%TO.N,Net-(J12-Pin_14)*%
X123977400Y-135571800D02*
X123977400Y-133260400D01*
X123977400Y-133260400D02*
X123926600Y-133209600D01*
%TO.N,Net-(J12-Pin_15)*%
X126517400Y-137029684D02*
X125171900Y-135684184D01*
X125171900Y-135684184D02*
X125171900Y-129678300D01*
X126517400Y-141769400D02*
X126517400Y-137029684D01*
X125171900Y-129678300D02*
X126466600Y-128383600D01*
%TO.N,Net-(J12-Pin_16)*%
X126517400Y-135521000D02*
X126517400Y-133260400D01*
X126517400Y-133260400D02*
X126466600Y-133209600D01*
%TO.N,Net-(J12-Pin_17)*%
X129057400Y-141769400D02*
X129057400Y-137029684D01*
X129057400Y-137029684D02*
X127761300Y-135733584D01*
X127761300Y-129628900D02*
X129006600Y-128383600D01*
X127761300Y-135733584D02*
X127761300Y-129628900D01*
%TO.N,Net-(J12-Pin_18)*%
X129057400Y-135546400D02*
X129057400Y-133260400D01*
X129057400Y-133260400D02*
X129006600Y-133209600D01*
%TO.N,Net-(J12-Pin_19)*%
X130301300Y-129628900D02*
X131546600Y-128383600D01*
X131597400Y-137029684D02*
X130301300Y-135733584D01*
X130301300Y-135733584D02*
X130301300Y-129628900D01*
X131597400Y-141769400D02*
X131597400Y-137029684D01*
%TO.N,Net-(J12-Pin_20)*%
X131597400Y-135597200D02*
X131597400Y-133260400D01*
X131597400Y-133260400D02*
X131546600Y-133209600D01*
%TO.N,Net-(J12-Pin_21)*%
X134137400Y-141769400D02*
X134137400Y-137070400D01*
X132791900Y-135724900D02*
X132791900Y-129678300D01*
X132791900Y-129678300D02*
X134086600Y-128383600D01*
X134137400Y-137070400D02*
X132791900Y-135724900D01*
%TO.N,Net-(J12-Pin_22)*%
X134137400Y-135546400D02*
X134137400Y-133260400D01*
X134137400Y-133260400D02*
X134086600Y-133209600D01*
%TO.N,Net-(J12-Pin_23)*%
X135331200Y-129679000D02*
X136626600Y-128383600D01*
X136677400Y-137029684D02*
X135331200Y-135683484D01*
X136677400Y-141769400D02*
X136677400Y-137029684D01*
X135331200Y-135683484D02*
X135331200Y-129679000D01*
%TO.N,Net-(J12-Pin_24)*%
X136677400Y-135521000D02*
X136677400Y-133260400D01*
X136677400Y-133260400D02*
X136626600Y-133209600D01*
%TO.N,Net-(J12-Pin_25)*%
X137921300Y-135733584D02*
X137921300Y-129628900D01*
X139217400Y-141769400D02*
X139217400Y-137029684D01*
X137921300Y-129628900D02*
X139166600Y-128383600D01*
X139217400Y-137029684D02*
X137921300Y-135733584D01*
%TO.N,Net-(J12-Pin_26)*%
X139217400Y-133260400D02*
X139166600Y-133209600D01*
X139217400Y-135495600D02*
X139217400Y-133260400D01*
%TO.N,Net-(J12-Pin_27)*%
X140461300Y-135733584D02*
X140461300Y-129628900D01*
X141757400Y-137029684D02*
X140461300Y-135733584D01*
X141757400Y-141769400D02*
X141757400Y-137029684D01*
X140461300Y-129628900D02*
X141706600Y-128383600D01*
%TO.N,Net-(J12-Pin_28)*%
X141757400Y-135495600D02*
X141757400Y-133260400D01*
X141757400Y-133260400D02*
X141706600Y-133209600D01*
%TO.N,Net-(J12-Pin_29)*%
X144297400Y-141769400D02*
X144297400Y-137004284D01*
X144297400Y-137004284D02*
X143001300Y-135708184D01*
X143001300Y-135708184D02*
X143001300Y-129628900D01*
X143001300Y-129628900D02*
X144246600Y-128383600D01*
%TO.N,Net-(J12-Pin_30)*%
X144322800Y-133285800D02*
X144246600Y-133209600D01*
X144322800Y-135521000D02*
X144322800Y-133285800D01*
%TD*%
M02*
