%TF.GenerationSoftware,KiCad,Pcbnew,7.0.11-7.0.11~ubuntu22.04.1*%
%TF.CreationDate,2024-11-23T21:12:19-05:00*%
%TF.ProjectId,usb_to_roller_ctrl,7573625f-746f-45f7-926f-6c6c65725f63,rev?*%
%TF.SameCoordinates,Original*%
%TF.FileFunction,Copper,L1,Top*%
%TF.FilePolarity,Positive*%
%FSLAX46Y46*%
G04 Gerber Fmt 4.6, Leading zero omitted, Abs format (unit mm)*
G04 Created by KiCad (PCBNEW 7.0.11-7.0.11~ubuntu22.04.1) date 2024-11-23 21:12:19*
%MOMM*%
%LPD*%
G01*
G04 APERTURE LIST*
%TA.AperFunction,ComponentPad*%
%ADD10C,4.445000*%
%TD*%
%TA.AperFunction,SMDPad,CuDef*%
%ADD11R,0.400000X1.400000*%
%TD*%
%TA.AperFunction,ComponentPad*%
%ADD12O,1.050000X1.900000*%
%TD*%
%TA.AperFunction,SMDPad,CuDef*%
%ADD13R,1.150000X1.450000*%
%TD*%
%TA.AperFunction,SMDPad,CuDef*%
%ADD14R,1.750000X1.900000*%
%TD*%
%TA.AperFunction,Conductor*%
%ADD15C,0.304800*%
%TD*%
G04 APERTURE END LIST*
D10*
%TO.P,J1,1,Pin_1*%
%TO.N,GND*%
X162856300Y-89937500D03*
%TO.P,J1,2,Pin_2*%
%TO.N,unconnected-(J1-Pin_2-Pad2)*%
X159173300Y-94509500D03*
%TO.P,J1,3,Pin_3*%
%TO.N,unconnected-(J1-Pin_3-Pad3)*%
X152823300Y-94509500D03*
%TO.P,J1,4,Pin_4*%
%TO.N,Net-(J1-Pin_4)*%
X149140300Y-89937500D03*
%TD*%
D11*
%TO.P,J2,1,VBUS*%
%TO.N,Net-(J1-Pin_4)*%
X154281400Y-104741200D03*
%TO.P,J2,2,D-*%
%TO.N,unconnected-(J2-D--Pad2)*%
X154931400Y-104741200D03*
%TO.P,J2,3,D+*%
%TO.N,unconnected-(J2-D+-Pad3)*%
X155581400Y-104741200D03*
%TO.P,J2,4,ID*%
%TO.N,unconnected-(J2-ID-Pad4)*%
X156231400Y-104741200D03*
%TO.P,J2,5,GND*%
%TO.N,GND*%
X156881400Y-104741200D03*
D12*
%TO.P,J2,6,Shield*%
X152006400Y-107391200D03*
D13*
X153261400Y-105161200D03*
D14*
X154456400Y-107391200D03*
X156706400Y-107391200D03*
D13*
X157901400Y-105161200D03*
D12*
X159156400Y-107391200D03*
%TD*%
D15*
%TO.N,Net-(J1-Pin_4)*%
X149140300Y-96257500D02*
X149140300Y-89937500D01*
X154281400Y-101398600D02*
X149140300Y-96257500D01*
X154281400Y-104741200D02*
X154281400Y-101398600D01*
%TD*%
%TA.AperFunction,Conductor*%
%TO.N,GND*%
G36*
X166954621Y-86880502D02*
G01*
X167001114Y-86934158D01*
X167012500Y-86986500D01*
X167012500Y-109507900D01*
X166992498Y-109576021D01*
X166938842Y-109622514D01*
X166886500Y-109633900D01*
X145457300Y-109633900D01*
X145389179Y-109613898D01*
X145342686Y-109560242D01*
X145331300Y-109507900D01*
X145331300Y-89937505D01*
X146683853Y-89937505D01*
X146703222Y-90245368D01*
X146761026Y-90548389D01*
X146761029Y-90548402D01*
X146856348Y-90841766D01*
X146856353Y-90841779D01*
X146987696Y-91120897D01*
X146987704Y-91120911D01*
X147152989Y-91381358D01*
X147152991Y-91381361D01*
X147152993Y-91381363D01*
X147349627Y-91619054D01*
X147574502Y-91830225D01*
X147824070Y-92011547D01*
X148094396Y-92160160D01*
X148302902Y-92242713D01*
X148381210Y-92273718D01*
X148381213Y-92273719D01*
X148381216Y-92273720D01*
X148664139Y-92346362D01*
X148725141Y-92382675D01*
X148756830Y-92446207D01*
X148758800Y-92468402D01*
X148758800Y-96204866D01*
X148756118Y-96230723D01*
X148753854Y-96241516D01*
X148757832Y-96273421D01*
X148758800Y-96289008D01*
X148758800Y-96289113D01*
X148762275Y-96309941D01*
X148763025Y-96315090D01*
X148769603Y-96367857D01*
X148771888Y-96375532D01*
X148774480Y-96383081D01*
X148774481Y-96383084D01*
X148774482Y-96383086D01*
X148784840Y-96402226D01*
X148799792Y-96429855D01*
X148802174Y-96434484D01*
X148825523Y-96482245D01*
X148830168Y-96488751D01*
X148835082Y-96495064D01*
X148874204Y-96531078D01*
X148877963Y-96534685D01*
X153862995Y-101519717D01*
X153897021Y-101582029D01*
X153899900Y-101608812D01*
X153899900Y-103862243D01*
X153879898Y-103930364D01*
X153878667Y-103932243D01*
X153865592Y-103951810D01*
X153852300Y-104018635D01*
X153852300Y-105463764D01*
X153865592Y-105530589D01*
X153865593Y-105530590D01*
X153916228Y-105606372D01*
X153992010Y-105657007D01*
X154058838Y-105670300D01*
X154058839Y-105670300D01*
X154503961Y-105670300D01*
X154503962Y-105670300D01*
X154570790Y-105657007D01*
X154570790Y-105657006D01*
X154581818Y-105654813D01*
X154630982Y-105654813D01*
X154642009Y-105657006D01*
X154642010Y-105657007D01*
X154708838Y-105670300D01*
X154708839Y-105670300D01*
X155153961Y-105670300D01*
X155153962Y-105670300D01*
X155220790Y-105657007D01*
X155220790Y-105657006D01*
X155231818Y-105654813D01*
X155280982Y-105654813D01*
X155292009Y-105657006D01*
X155292010Y-105657007D01*
X155358838Y-105670300D01*
X155358839Y-105670300D01*
X155803961Y-105670300D01*
X155803962Y-105670300D01*
X155870790Y-105657007D01*
X155870790Y-105657006D01*
X155881818Y-105654813D01*
X155930982Y-105654813D01*
X155942009Y-105657006D01*
X155942010Y-105657007D01*
X156008838Y-105670300D01*
X156008839Y-105670300D01*
X156453961Y-105670300D01*
X156453962Y-105670300D01*
X156520790Y-105657007D01*
X156596572Y-105606372D01*
X156647207Y-105530590D01*
X156660500Y-105463762D01*
X156660500Y-104018638D01*
X156647207Y-103951810D01*
X156596572Y-103876028D01*
X156545936Y-103842194D01*
X156520789Y-103825392D01*
X156453964Y-103812100D01*
X156453962Y-103812100D01*
X156008838Y-103812100D01*
X156008832Y-103812100D01*
X155930981Y-103827586D01*
X155881819Y-103827586D01*
X155803967Y-103812100D01*
X155803962Y-103812100D01*
X155358838Y-103812100D01*
X155358832Y-103812100D01*
X155280981Y-103827586D01*
X155231819Y-103827586D01*
X155153967Y-103812100D01*
X155153962Y-103812100D01*
X154788900Y-103812100D01*
X154720779Y-103792098D01*
X154674286Y-103738442D01*
X154662900Y-103686100D01*
X154662900Y-101451233D01*
X154665582Y-101425373D01*
X154667845Y-101414581D01*
X154663868Y-101382678D01*
X154662900Y-101367091D01*
X154662900Y-101366988D01*
X154659424Y-101346160D01*
X154658677Y-101341040D01*
X154652096Y-101288239D01*
X154652095Y-101288237D01*
X154652095Y-101288235D01*
X154649817Y-101280585D01*
X154647218Y-101273014D01*
X154621919Y-101226266D01*
X154619535Y-101221635D01*
X154607051Y-101196100D01*
X154596176Y-101173854D01*
X154596175Y-101173853D01*
X154591527Y-101167342D01*
X154586621Y-101161039D01*
X154547481Y-101125008D01*
X154543724Y-101121402D01*
X149558705Y-96136382D01*
X149524679Y-96074070D01*
X149521800Y-96047287D01*
X149521800Y-94509505D01*
X150366853Y-94509505D01*
X150386222Y-94817368D01*
X150444026Y-95120389D01*
X150444029Y-95120402D01*
X150539348Y-95413766D01*
X150539353Y-95413779D01*
X150670696Y-95692897D01*
X150670704Y-95692911D01*
X150835989Y-95953358D01*
X150835991Y-95953361D01*
X150835993Y-95953363D01*
X151032627Y-96191054D01*
X151220904Y-96367857D01*
X151257502Y-96402225D01*
X151257503Y-96402226D01*
X151385281Y-96495062D01*
X151507070Y-96583547D01*
X151777396Y-96732160D01*
X151985902Y-96814713D01*
X152064210Y-96845718D01*
X152064213Y-96845718D01*
X152064216Y-96845720D01*
X152363008Y-96922437D01*
X152669058Y-96961100D01*
X152669062Y-96961100D01*
X152977538Y-96961100D01*
X152977542Y-96961100D01*
X153283592Y-96922437D01*
X153582384Y-96845720D01*
X153869204Y-96732160D01*
X154139530Y-96583547D01*
X154389098Y-96402225D01*
X154613973Y-96191054D01*
X154810607Y-95953363D01*
X154975901Y-95692902D01*
X155107247Y-95413778D01*
X155202573Y-95120394D01*
X155260377Y-94817374D01*
X155279747Y-94509505D01*
X156716853Y-94509505D01*
X156736222Y-94817368D01*
X156794026Y-95120389D01*
X156794029Y-95120402D01*
X156889348Y-95413766D01*
X156889353Y-95413779D01*
X157020696Y-95692897D01*
X157020704Y-95692911D01*
X157185989Y-95953358D01*
X157185991Y-95953361D01*
X157185993Y-95953363D01*
X157382627Y-96191054D01*
X157570904Y-96367857D01*
X157607502Y-96402225D01*
X157607503Y-96402226D01*
X157735281Y-96495062D01*
X157857070Y-96583547D01*
X158127396Y-96732160D01*
X158335902Y-96814713D01*
X158414210Y-96845718D01*
X158414213Y-96845718D01*
X158414216Y-96845720D01*
X158713008Y-96922437D01*
X159019058Y-96961100D01*
X159019062Y-96961100D01*
X159327538Y-96961100D01*
X159327542Y-96961100D01*
X159633592Y-96922437D01*
X159932384Y-96845720D01*
X160219204Y-96732160D01*
X160489530Y-96583547D01*
X160739098Y-96402225D01*
X160963973Y-96191054D01*
X161160607Y-95953363D01*
X161325901Y-95692902D01*
X161457247Y-95413778D01*
X161552573Y-95120394D01*
X161610377Y-94817374D01*
X161629747Y-94509500D01*
X161610377Y-94201626D01*
X161552573Y-93898606D01*
X161457247Y-93605222D01*
X161325901Y-93326098D01*
X161160607Y-93065637D01*
X160963973Y-92827946D01*
X160739098Y-92616775D01*
X160739097Y-92616774D01*
X160739096Y-92616773D01*
X160489536Y-92435457D01*
X160489533Y-92435455D01*
X160489530Y-92435453D01*
X160219204Y-92286840D01*
X160136649Y-92254154D01*
X159932389Y-92173281D01*
X159932371Y-92173276D01*
X159633606Y-92096566D01*
X159633598Y-92096564D01*
X159633592Y-92096563D01*
X159633582Y-92096561D01*
X159633578Y-92096561D01*
X159327556Y-92057901D01*
X159327545Y-92057900D01*
X159327542Y-92057900D01*
X159019058Y-92057900D01*
X159019055Y-92057900D01*
X159019043Y-92057901D01*
X158713021Y-92096561D01*
X158713014Y-92096562D01*
X158713008Y-92096563D01*
X158713003Y-92096564D01*
X158712993Y-92096566D01*
X158414228Y-92173276D01*
X158414210Y-92173281D01*
X158127396Y-92286840D01*
X157857063Y-92435457D01*
X157607503Y-92616773D01*
X157607502Y-92616774D01*
X157382628Y-92827945D01*
X157382619Y-92827955D01*
X157185991Y-93065638D01*
X157185989Y-93065641D01*
X157020704Y-93326088D01*
X157020696Y-93326102D01*
X156889353Y-93605220D01*
X156889348Y-93605233D01*
X156794029Y-93898597D01*
X156794026Y-93898610D01*
X156736222Y-94201631D01*
X156716853Y-94509494D01*
X156716853Y-94509505D01*
X155279747Y-94509505D01*
X155279747Y-94509500D01*
X155260377Y-94201626D01*
X155202573Y-93898606D01*
X155107247Y-93605222D01*
X154975901Y-93326098D01*
X154810607Y-93065637D01*
X154613973Y-92827946D01*
X154389098Y-92616775D01*
X154389097Y-92616774D01*
X154389096Y-92616773D01*
X154139536Y-92435457D01*
X154139533Y-92435455D01*
X154139530Y-92435453D01*
X153869204Y-92286840D01*
X153786649Y-92254154D01*
X153582389Y-92173281D01*
X153582371Y-92173276D01*
X153283606Y-92096566D01*
X153283598Y-92096564D01*
X153283592Y-92096563D01*
X153283582Y-92096561D01*
X153283578Y-92096561D01*
X152977556Y-92057901D01*
X152977545Y-92057900D01*
X152977542Y-92057900D01*
X152669058Y-92057900D01*
X152669055Y-92057900D01*
X152669043Y-92057901D01*
X152363021Y-92096561D01*
X152363014Y-92096562D01*
X152363008Y-92096563D01*
X152363003Y-92096564D01*
X152362993Y-92096566D01*
X152064228Y-92173276D01*
X152064210Y-92173281D01*
X151777396Y-92286840D01*
X151507063Y-92435457D01*
X151257503Y-92616773D01*
X151257502Y-92616774D01*
X151032628Y-92827945D01*
X151032619Y-92827955D01*
X150835991Y-93065638D01*
X150835989Y-93065641D01*
X150670704Y-93326088D01*
X150670696Y-93326102D01*
X150539353Y-93605220D01*
X150539348Y-93605233D01*
X150444029Y-93898597D01*
X150444026Y-93898610D01*
X150386222Y-94201631D01*
X150366853Y-94509494D01*
X150366853Y-94509505D01*
X149521800Y-94509505D01*
X149521800Y-92468402D01*
X149541802Y-92400281D01*
X149595458Y-92353788D01*
X149616449Y-92346365D01*
X149899384Y-92273720D01*
X150186204Y-92160160D01*
X150456530Y-92011547D01*
X150706098Y-91830225D01*
X150930973Y-91619054D01*
X151127607Y-91381363D01*
X151292901Y-91120902D01*
X151424247Y-90841778D01*
X151519573Y-90548394D01*
X151577377Y-90245374D01*
X151596747Y-89937500D01*
X151577377Y-89629626D01*
X151519573Y-89326606D01*
X151424247Y-89033222D01*
X151292901Y-88754098D01*
X151127607Y-88493637D01*
X150930973Y-88255946D01*
X150706098Y-88044775D01*
X150706097Y-88044774D01*
X150706096Y-88044773D01*
X150456536Y-87863457D01*
X150456533Y-87863455D01*
X150456530Y-87863453D01*
X150186204Y-87714840D01*
X150103649Y-87682154D01*
X149899389Y-87601281D01*
X149899371Y-87601276D01*
X149600606Y-87524566D01*
X149600598Y-87524564D01*
X149600592Y-87524563D01*
X149600582Y-87524561D01*
X149600578Y-87524561D01*
X149294556Y-87485901D01*
X149294545Y-87485900D01*
X149294542Y-87485900D01*
X148986058Y-87485900D01*
X148986055Y-87485900D01*
X148986043Y-87485901D01*
X148680021Y-87524561D01*
X148680014Y-87524562D01*
X148680008Y-87524563D01*
X148680003Y-87524564D01*
X148679993Y-87524566D01*
X148381228Y-87601276D01*
X148381210Y-87601281D01*
X148094396Y-87714840D01*
X147824063Y-87863457D01*
X147574503Y-88044773D01*
X147574502Y-88044774D01*
X147349628Y-88255945D01*
X147349619Y-88255955D01*
X147152991Y-88493638D01*
X147152989Y-88493641D01*
X146987704Y-88754088D01*
X146987696Y-88754102D01*
X146856353Y-89033220D01*
X146856348Y-89033233D01*
X146761029Y-89326597D01*
X146761026Y-89326610D01*
X146703222Y-89629631D01*
X146683853Y-89937494D01*
X146683853Y-89937505D01*
X145331300Y-89937505D01*
X145331300Y-86986500D01*
X145351302Y-86918379D01*
X145404958Y-86871886D01*
X145457300Y-86860500D01*
X166886500Y-86860500D01*
X166954621Y-86880502D01*
G37*
%TD.AperFunction*%
%TD*%
M02*
