M48
; DRILL file {KiCad 7.0.9-7.0.9~ubuntu22.04.1} date Sat 06 Jan 2024 12:21:42 PM EST
; FORMAT={-:-/ absolute / metric / decimal}
; #@! TF.CreationDate,2024-01-06T12:21:42-05:00
; #@! TF.GenerationSoftware,Kicad,Pcbnew,7.0.9-7.0.9~ubuntu22.04.1
; #@! TF.FileFunction,MixedPlating,1,2
FMAT,2
METRIC
; #@! TA.AperFunction,Plated,PTH,ViaDrill
T1C0.457
; #@! TA.AperFunction,Plated,PTH,ViaDrill
T2C0.559
; #@! TA.AperFunction,Plated,PTH,ComponentDrill
T3C0.800
; #@! TA.AperFunction,Plated,PTH,ComponentDrill
T4C1.000
; #@! TA.AperFunction,Plated,PTH,ComponentDrill
T5C1.100
; #@! TA.AperFunction,Plated,PTH,ComponentDrill
T6C1.190
; #@! TA.AperFunction,Plated,PTH,ComponentDrill
T7C2.693
; #@! TA.AperFunction,Plated,PTH,ComponentDrill
T8C2.818
; #@! TA.AperFunction,Plated,PTH,ComponentDrill
T9C3.200
; #@! TA.AperFunction,Plated,PTH,ComponentDrill
T10C3.250
; #@! TA.AperFunction,NonPlated,NPTH,ComponentDrill
T11C2.476
%
G90
G05
T1
X87.325Y-98.513
X87.426Y-100.748
X89.322Y-94.287
X90.576Y-91.935
X97.638Y-116.623
X98.527Y-110.325
X102.235Y-148.881
X102.87Y-155.079
X103.656Y-151.702
X104.318Y-152.844
X108.773Y-125.173
X110.518Y-122.085
X112.968Y-119.87
X118.119Y-124.877
X118.441Y-126.301
X119.434Y-100.571
X121.437Y-100.571
X123.419Y-100.571
X124.739Y-126.961
X124.739Y-131.152
X124.912Y-139.56
X125.603Y-100.571
X125.831Y-128.562
X126.365Y-154.165
X126.594Y-141.769
X128.829Y-132.93
X129.591Y-147.815
X129.743Y-95.695
X130.937Y-131.305
X131.328Y-134.181
X132.537Y-147.663
X132.55Y-134.181
X134.207Y-148.475
X134.899Y-135.699
X135.738Y-149.339
X137.643Y-147.561
X139.548Y-150.456
X141.85Y-151.335
X141.91Y-152.4
X142.33Y-150.383
X143.358Y-150.672
X143.957Y-132.87
X144.729Y-66.027
X145.377Y-111.652
X146.507Y-111.67
X147.335Y-112.343
X147.762Y-113.452
X148.17Y-114.437
X148.57Y-115.501
X148.777Y-116.609
X148.899Y-117.668
X149.301Y-121.707
X149.952Y-117.834
X150.113Y-119.629
X153.162Y-114.541
X154.94Y-102.145
X157.15Y-100.945
X158.216Y-100.977
X159.868Y-101.028
T2
X112.979Y-147.764
X118.465Y-119.366
X121.68Y-140.361
X129.286Y-140.957
X129.642Y-127.103
T3
X89.738Y-118.808
X89.738Y-128.968
X91.186Y-131.686
X92.786Y-118.808
X92.786Y-128.968
X94.107Y-138.036
X94.223Y-134.962
X94.869Y-59.575
X94.869Y-67.195
X95.809Y-118.833
X95.809Y-128.993
X96.495Y-73.901
X96.495Y-89.141
X97.409Y-59.575
X97.409Y-67.195
X98.882Y-118.859
X98.882Y-129.019
X99.035Y-73.901
X99.035Y-89.141
X99.223Y-134.962
X99.949Y-59.575
X99.949Y-67.195
X100.766Y-116.268
X101.041Y-155.144
X101.041Y-160.144
X101.346Y-131.686
X101.575Y-73.901
X101.575Y-89.141
X102.489Y-59.575
X102.489Y-67.195
X103.81Y-140.957
X103.81Y-145.957
X104.115Y-73.901
X104.115Y-89.141
X104.267Y-138.036
X105.029Y-59.575
X105.029Y-67.195
X105.766Y-116.268
X106.655Y-73.901
X106.655Y-89.141
X107.366Y-155.384
X107.366Y-157.924
X107.366Y-160.464
X107.366Y-163.004
X107.569Y-59.575
X107.569Y-67.195
X108.015Y-95.948
X109.195Y-73.901
X109.195Y-89.141
X109.906Y-152.844
X109.906Y-155.384
X109.906Y-157.924
X109.906Y-160.464
X109.906Y-163.004
X109.906Y-165.544
X110.109Y-59.575
X110.109Y-67.195
X111.709Y-117.817
X111.709Y-120.357
X111.709Y-122.897
X111.709Y-125.437
X111.709Y-127.977
X111.709Y-130.517
X111.709Y-133.057
X111.709Y-135.597
X111.709Y-138.137
X111.709Y-140.677
X111.709Y-143.217
X111.735Y-73.901
X111.735Y-89.141
X112.446Y-152.844
X112.446Y-155.384
X112.446Y-163.004
X112.446Y-165.544
X112.649Y-59.575
X112.649Y-67.195
X113.015Y-95.948
X114.249Y-115.277
X114.249Y-117.817
X114.249Y-120.357
X114.249Y-122.897
X114.249Y-125.437
X114.249Y-127.977
X114.249Y-130.517
X114.249Y-133.057
X114.249Y-135.597
X114.249Y-138.137
X114.249Y-140.677
X114.249Y-143.217
X114.249Y-145.757
X114.275Y-73.901
X114.275Y-89.141
X114.986Y-152.844
X114.986Y-155.384
X114.986Y-163.004
X114.986Y-165.544
X115.189Y-59.575
X115.189Y-67.195
X116.789Y-115.277
X116.789Y-117.817
X116.789Y-143.217
X116.789Y-145.757
X116.815Y-73.901
X116.815Y-89.141
X117.526Y-152.844
X117.526Y-155.384
X117.526Y-163.004
X117.526Y-165.544
X118.643Y-64.847
X118.643Y-69.847
X119.329Y-115.277
X119.329Y-117.817
X119.329Y-143.217
X119.329Y-145.757
X119.355Y-73.901
X119.355Y-89.141
X120.066Y-152.844
X120.066Y-155.384
X120.066Y-157.924
X120.066Y-160.464
X120.066Y-163.004
X120.066Y-165.544
X121.869Y-115.277
X121.869Y-117.817
X121.869Y-143.217
X121.869Y-145.757
X121.895Y-73.901
X121.895Y-89.141
X121.909Y-92.189
X122.606Y-155.384
X122.606Y-157.924
X122.606Y-160.464
X122.606Y-163.004
X122.733Y-59.575
X122.733Y-67.195
X124.409Y-115.277
X124.409Y-117.817
X124.409Y-143.217
X124.409Y-145.757
X124.435Y-73.901
X124.435Y-89.141
X125.273Y-59.575
X125.273Y-67.195
X126.909Y-92.189
X126.949Y-115.277
X126.949Y-117.817
X126.949Y-143.217
X126.949Y-145.757
X126.975Y-73.901
X126.975Y-89.141
X127.813Y-59.575
X127.813Y-67.195
X129.489Y-115.277
X129.489Y-117.817
X129.489Y-143.217
X129.489Y-145.757
X129.515Y-73.901
X129.515Y-89.141
X130.353Y-59.575
X130.353Y-67.195
X131.445Y-157.086
X131.445Y-164.706
X132.029Y-115.277
X132.029Y-117.817
X132.029Y-143.217
X132.029Y-145.757
X132.055Y-73.901
X132.055Y-89.141
X132.893Y-59.575
X132.893Y-67.195
X133.985Y-157.086
X133.985Y-164.706
X134.569Y-115.277
X134.569Y-117.817
X134.569Y-143.217
X134.569Y-145.757
X134.595Y-73.901
X134.595Y-89.141
X135.433Y-59.575
X135.433Y-67.195
X136.525Y-157.086
X136.525Y-164.706
X136.906Y-93.783
X136.906Y-96.283
X137.109Y-115.277
X137.109Y-117.817
X137.109Y-143.217
X137.109Y-145.757
X137.135Y-73.901
X137.135Y-89.141
X137.973Y-59.575
X137.973Y-67.195
X139.065Y-157.086
X139.065Y-164.706
X139.649Y-115.277
X139.649Y-117.817
X139.649Y-120.357
X139.649Y-122.897
X139.649Y-125.437
X139.649Y-127.977
X139.649Y-130.517
X139.649Y-133.057
X139.649Y-135.597
X139.649Y-138.137
X139.649Y-140.677
X139.649Y-143.217
X139.649Y-145.757
X139.675Y-73.901
X139.675Y-89.141
X140.513Y-59.575
X140.513Y-67.195
X141.605Y-157.086
X141.605Y-164.706
X142.172Y-95.033
X142.189Y-117.817
X142.189Y-120.357
X142.189Y-122.897
X142.189Y-125.437
X142.189Y-127.977
X142.189Y-130.517
X142.189Y-133.057
X142.189Y-135.597
X142.189Y-138.137
X142.189Y-140.677
X142.189Y-143.217
X142.215Y-73.901
X142.215Y-89.141
X143.053Y-59.575
X143.053Y-67.195
X144.145Y-157.086
X144.145Y-164.706
X144.755Y-73.901
X144.755Y-89.141
X146.431Y-60.758
X146.431Y-65.758
X146.685Y-157.086
X146.685Y-164.706
X147.052Y-95.033
X148.285Y-89.445
X148.311Y-79.743
X148.387Y-85.889
X148.895Y-73.977
X148.895Y-148.094
X148.92Y-152.006
X148.981Y-125.961
X148.981Y-128.501
X148.981Y-131.041
X148.981Y-133.581
X148.981Y-136.121
X148.981Y-138.661
X148.981Y-141.201
X148.981Y-143.741
X149.225Y-157.086
X149.225Y-164.706
X150.637Y-120.992
X150.851Y-82.283
X151.765Y-157.086
X151.765Y-164.706
X152.4Y-93.987
X152.4Y-96.487
X153.391Y-79.743
X154.243Y-168.338
X154.305Y-157.086
X154.305Y-164.706
X155.637Y-120.992
X155.905Y-89.445
X156.007Y-85.889
X156.515Y-73.977
X156.515Y-148.094
X156.54Y-152.006
X156.601Y-125.961
X156.601Y-128.501
X156.601Y-131.041
X156.601Y-133.581
X156.601Y-136.121
X156.601Y-138.661
X156.601Y-141.201
X156.601Y-143.741
X156.845Y-157.086
X156.845Y-164.706
X157.937Y-113.296
X157.937Y-118.296
X159.243Y-168.338
X159.385Y-157.086
X159.385Y-164.706
X159.69Y-122.948
X159.69Y-130.568
X159.995Y-146.545
X159.995Y-154.165
X160.538Y-136.039
X160.538Y-138.579
X160.538Y-141.119
X160.538Y-143.659
X163.277Y-147.321
X163.573Y-131.99
X163.612Y-125.437
X165.472Y-151.614
X165.472Y-154.114
X168.158Y-136.039
X168.158Y-138.579
X168.158Y-141.119
X168.158Y-143.659
X168.277Y-147.321
X168.573Y-131.99
X168.612Y-125.437
T4
X83.825Y-119.006
X83.825Y-121.546
X83.825Y-124.086
X83.825Y-126.626
X83.825Y-129.166
X86.365Y-119.006
X86.365Y-121.546
X86.365Y-124.086
X86.365Y-126.626
X86.365Y-129.166
X89.261Y-81.368
X89.261Y-84.138
X89.261Y-86.908
X89.261Y-89.678
X92.101Y-79.983
X92.101Y-82.753
X92.101Y-85.523
X92.101Y-88.293
X92.101Y-91.063
X145.593Y-168.287
X148.133Y-168.287
X150.673Y-168.287
X160.056Y-79.801
X160.056Y-82.571
X160.056Y-85.341
X160.056Y-88.111
X160.056Y-90.881
X162.896Y-81.186
X162.896Y-83.956
X162.896Y-86.726
X162.896Y-89.496
X165.024Y-113.037
X165.024Y-118.037
T5
X93.396Y-141.617
X93.396Y-148.117
X97.896Y-141.617
X97.896Y-148.117
X108.118Y-102.946
X108.118Y-107.772
X110.658Y-102.946
X110.658Y-107.772
X113.198Y-102.946
X113.198Y-107.772
X115.738Y-102.946
X115.738Y-107.772
X118.278Y-102.946
X118.278Y-107.772
X120.818Y-102.946
X120.818Y-107.772
X123.358Y-102.946
X123.358Y-107.772
X125.898Y-102.946
X125.898Y-107.772
X128.438Y-102.946
X128.438Y-107.772
X130.978Y-102.946
X130.978Y-107.772
X133.518Y-102.946
X133.518Y-107.772
X136.058Y-102.946
X136.058Y-107.772
X138.598Y-102.946
X138.598Y-107.772
X141.138Y-102.946
X141.138Y-107.772
X143.678Y-102.946
X143.678Y-107.772
T6
X163.068Y-106.189
X165.608Y-106.189
T7
X155.702Y-65.686
T8
X155.702Y-61.186
T9
X85.319Y-60.489
X85.319Y-167.957
X90.681Y-73.023
X90.681Y-98.023
X91.719Y-105.447
X161.476Y-72.841
X161.476Y-97.841
X166.751Y-60.489
X166.751Y-167.957
T10
X99.548Y-105.371
X152.248Y-105.371
T11
X151.452Y-58.036
X159.952Y-58.036
T4
G00X84.887Y-137.036
M15
G01X84.887Y-139.036
M16
G05
G00X86.887Y-142.736
M15
G01X88.887Y-142.736
M16
G05
G00X90.887Y-137.036
M15
G01X90.887Y-139.036
M16
G05
T0
M30
