%TF.GenerationSoftware,KiCad,Pcbnew,7.0.11-7.0.11~ubuntu22.04.1*%
%TF.CreationDate,2024-05-25T12:47:59-04:00*%
%TF.ProjectId,coleco_original,636f6c65-636f-45f6-9f72-6967696e616c,DEV*%
%TF.SameCoordinates,Original*%
%TF.FileFunction,AssemblyDrawing,Top*%
%FSLAX46Y46*%
G04 Gerber Fmt 4.6, Leading zero omitted, Abs format (unit mm)*
G04 Created by KiCad (PCBNEW 7.0.11-7.0.11~ubuntu22.04.1) date 2024-05-25 12:47:59*
%MOMM*%
%LPD*%
G01*
G04 APERTURE LIST*
%ADD10C,0.150000*%
%ADD11C,0.254000*%
%ADD12C,0.090000*%
%ADD13C,0.141000*%
%ADD14C,0.100000*%
%ADD15C,0.025400*%
%ADD16C,0.200000*%
G04 APERTURE END LIST*
D10*
X136275028Y-76638990D02*
X136751219Y-76638990D01*
X135751219Y-76972323D02*
X136275028Y-76638990D01*
X136275028Y-76638990D02*
X135751219Y-76305657D01*
X136751219Y-75448514D02*
X136751219Y-76019942D01*
X136751219Y-75734228D02*
X135751219Y-75734228D01*
X135751219Y-75734228D02*
X135894076Y-75829466D01*
X135894076Y-75829466D02*
X135989314Y-75924704D01*
X135989314Y-75924704D02*
X136036933Y-76019942D01*
X137792619Y-148184466D02*
X137316428Y-148517799D01*
X137792619Y-148755894D02*
X136792619Y-148755894D01*
X136792619Y-148755894D02*
X136792619Y-148374942D01*
X136792619Y-148374942D02*
X136840238Y-148279704D01*
X136840238Y-148279704D02*
X136887857Y-148232085D01*
X136887857Y-148232085D02*
X136983095Y-148184466D01*
X136983095Y-148184466D02*
X137125952Y-148184466D01*
X137125952Y-148184466D02*
X137221190Y-148232085D01*
X137221190Y-148232085D02*
X137268809Y-148279704D01*
X137268809Y-148279704D02*
X137316428Y-148374942D01*
X137316428Y-148374942D02*
X137316428Y-148755894D01*
X136792619Y-147327323D02*
X136792619Y-147517799D01*
X136792619Y-147517799D02*
X136840238Y-147613037D01*
X136840238Y-147613037D02*
X136887857Y-147660656D01*
X136887857Y-147660656D02*
X137030714Y-147755894D01*
X137030714Y-147755894D02*
X137221190Y-147803513D01*
X137221190Y-147803513D02*
X137602142Y-147803513D01*
X137602142Y-147803513D02*
X137697380Y-147755894D01*
X137697380Y-147755894D02*
X137745000Y-147708275D01*
X137745000Y-147708275D02*
X137792619Y-147613037D01*
X137792619Y-147613037D02*
X137792619Y-147422561D01*
X137792619Y-147422561D02*
X137745000Y-147327323D01*
X137745000Y-147327323D02*
X137697380Y-147279704D01*
X137697380Y-147279704D02*
X137602142Y-147232085D01*
X137602142Y-147232085D02*
X137364047Y-147232085D01*
X137364047Y-147232085D02*
X137268809Y-147279704D01*
X137268809Y-147279704D02*
X137221190Y-147327323D01*
X137221190Y-147327323D02*
X137173571Y-147422561D01*
X137173571Y-147422561D02*
X137173571Y-147613037D01*
X137173571Y-147613037D02*
X137221190Y-147708275D01*
X137221190Y-147708275D02*
X137268809Y-147755894D01*
X137268809Y-147755894D02*
X137364047Y-147803513D01*
X140872380Y-168586579D02*
X140920000Y-168634198D01*
X140920000Y-168634198D02*
X140967619Y-168777055D01*
X140967619Y-168777055D02*
X140967619Y-168872293D01*
X140967619Y-168872293D02*
X140920000Y-169015150D01*
X140920000Y-169015150D02*
X140824761Y-169110388D01*
X140824761Y-169110388D02*
X140729523Y-169158007D01*
X140729523Y-169158007D02*
X140539047Y-169205626D01*
X140539047Y-169205626D02*
X140396190Y-169205626D01*
X140396190Y-169205626D02*
X140205714Y-169158007D01*
X140205714Y-169158007D02*
X140110476Y-169110388D01*
X140110476Y-169110388D02*
X140015238Y-169015150D01*
X140015238Y-169015150D02*
X139967619Y-168872293D01*
X139967619Y-168872293D02*
X139967619Y-168777055D01*
X139967619Y-168777055D02*
X140015238Y-168634198D01*
X140015238Y-168634198D02*
X140062857Y-168586579D01*
X140300952Y-167729436D02*
X140967619Y-167729436D01*
X139920000Y-167967531D02*
X140634285Y-168205626D01*
X140634285Y-168205626D02*
X140634285Y-167586579D01*
X152704895Y-52409819D02*
X152704895Y-51409819D01*
X152704895Y-51886009D02*
X153276323Y-51886009D01*
X153276323Y-52409819D02*
X153276323Y-51409819D01*
X154181085Y-51409819D02*
X153990609Y-51409819D01*
X153990609Y-51409819D02*
X153895371Y-51457438D01*
X153895371Y-51457438D02*
X153847752Y-51505057D01*
X153847752Y-51505057D02*
X153752514Y-51647914D01*
X153752514Y-51647914D02*
X153704895Y-51838390D01*
X153704895Y-51838390D02*
X153704895Y-52219342D01*
X153704895Y-52219342D02*
X153752514Y-52314580D01*
X153752514Y-52314580D02*
X153800133Y-52362200D01*
X153800133Y-52362200D02*
X153895371Y-52409819D01*
X153895371Y-52409819D02*
X154085847Y-52409819D01*
X154085847Y-52409819D02*
X154181085Y-52362200D01*
X154181085Y-52362200D02*
X154228704Y-52314580D01*
X154228704Y-52314580D02*
X154276323Y-52219342D01*
X154276323Y-52219342D02*
X154276323Y-51981247D01*
X154276323Y-51981247D02*
X154228704Y-51886009D01*
X154228704Y-51886009D02*
X154181085Y-51838390D01*
X154181085Y-51838390D02*
X154085847Y-51790771D01*
X154085847Y-51790771D02*
X153895371Y-51790771D01*
X153895371Y-51790771D02*
X153800133Y-51838390D01*
X153800133Y-51838390D02*
X153752514Y-51886009D01*
X153752514Y-51886009D02*
X153704895Y-51981247D01*
X106947619Y-72833704D02*
X107757142Y-72833704D01*
X107757142Y-72833704D02*
X107852380Y-72786085D01*
X107852380Y-72786085D02*
X107900000Y-72738466D01*
X107900000Y-72738466D02*
X107947619Y-72643228D01*
X107947619Y-72643228D02*
X107947619Y-72452752D01*
X107947619Y-72452752D02*
X107900000Y-72357514D01*
X107900000Y-72357514D02*
X107852380Y-72309895D01*
X107852380Y-72309895D02*
X107757142Y-72262276D01*
X107757142Y-72262276D02*
X106947619Y-72262276D01*
X106947619Y-71357514D02*
X106947619Y-71547990D01*
X106947619Y-71547990D02*
X106995238Y-71643228D01*
X106995238Y-71643228D02*
X107042857Y-71690847D01*
X107042857Y-71690847D02*
X107185714Y-71786085D01*
X107185714Y-71786085D02*
X107376190Y-71833704D01*
X107376190Y-71833704D02*
X107757142Y-71833704D01*
X107757142Y-71833704D02*
X107852380Y-71786085D01*
X107852380Y-71786085D02*
X107900000Y-71738466D01*
X107900000Y-71738466D02*
X107947619Y-71643228D01*
X107947619Y-71643228D02*
X107947619Y-71452752D01*
X107947619Y-71452752D02*
X107900000Y-71357514D01*
X107900000Y-71357514D02*
X107852380Y-71309895D01*
X107852380Y-71309895D02*
X107757142Y-71262276D01*
X107757142Y-71262276D02*
X107519047Y-71262276D01*
X107519047Y-71262276D02*
X107423809Y-71309895D01*
X107423809Y-71309895D02*
X107376190Y-71357514D01*
X107376190Y-71357514D02*
X107328571Y-71452752D01*
X107328571Y-71452752D02*
X107328571Y-71643228D01*
X107328571Y-71643228D02*
X107376190Y-71738466D01*
X107376190Y-71738466D02*
X107423809Y-71786085D01*
X107423809Y-71786085D02*
X107519047Y-71833704D01*
X78152666Y-50912019D02*
X78152666Y-51626304D01*
X78152666Y-51626304D02*
X78105047Y-51769161D01*
X78105047Y-51769161D02*
X78009809Y-51864400D01*
X78009809Y-51864400D02*
X77866952Y-51912019D01*
X77866952Y-51912019D02*
X77771714Y-51912019D01*
X78533619Y-50912019D02*
X79152666Y-50912019D01*
X79152666Y-50912019D02*
X78819333Y-51292971D01*
X78819333Y-51292971D02*
X78962190Y-51292971D01*
X78962190Y-51292971D02*
X79057428Y-51340590D01*
X79057428Y-51340590D02*
X79105047Y-51388209D01*
X79105047Y-51388209D02*
X79152666Y-51483447D01*
X79152666Y-51483447D02*
X79152666Y-51721542D01*
X79152666Y-51721542D02*
X79105047Y-51816780D01*
X79105047Y-51816780D02*
X79057428Y-51864400D01*
X79057428Y-51864400D02*
X78962190Y-51912019D01*
X78962190Y-51912019D02*
X78676476Y-51912019D01*
X78676476Y-51912019D02*
X78581238Y-51864400D01*
X78581238Y-51864400D02*
X78533619Y-51816780D01*
X64836619Y-73144933D02*
X65550904Y-73144933D01*
X65550904Y-73144933D02*
X65693761Y-73192552D01*
X65693761Y-73192552D02*
X65789000Y-73287790D01*
X65789000Y-73287790D02*
X65836619Y-73430647D01*
X65836619Y-73430647D02*
X65836619Y-73525885D01*
X64836619Y-72192552D02*
X64836619Y-72668742D01*
X64836619Y-72668742D02*
X65312809Y-72716361D01*
X65312809Y-72716361D02*
X65265190Y-72668742D01*
X65265190Y-72668742D02*
X65217571Y-72573504D01*
X65217571Y-72573504D02*
X65217571Y-72335409D01*
X65217571Y-72335409D02*
X65265190Y-72240171D01*
X65265190Y-72240171D02*
X65312809Y-72192552D01*
X65312809Y-72192552D02*
X65408047Y-72144933D01*
X65408047Y-72144933D02*
X65646142Y-72144933D01*
X65646142Y-72144933D02*
X65741380Y-72192552D01*
X65741380Y-72192552D02*
X65789000Y-72240171D01*
X65789000Y-72240171D02*
X65836619Y-72335409D01*
X65836619Y-72335409D02*
X65836619Y-72573504D01*
X65836619Y-72573504D02*
X65789000Y-72668742D01*
X65789000Y-72668742D02*
X65741380Y-72716361D01*
X70533419Y-95650857D02*
X70057228Y-95984190D01*
X70533419Y-96222285D02*
X69533419Y-96222285D01*
X69533419Y-96222285D02*
X69533419Y-95841333D01*
X69533419Y-95841333D02*
X69581038Y-95746095D01*
X69581038Y-95746095D02*
X69628657Y-95698476D01*
X69628657Y-95698476D02*
X69723895Y-95650857D01*
X69723895Y-95650857D02*
X69866752Y-95650857D01*
X69866752Y-95650857D02*
X69961990Y-95698476D01*
X69961990Y-95698476D02*
X70009609Y-95746095D01*
X70009609Y-95746095D02*
X70057228Y-95841333D01*
X70057228Y-95841333D02*
X70057228Y-96222285D01*
X70533419Y-94698476D02*
X70533419Y-95269904D01*
X70533419Y-94984190D02*
X69533419Y-94984190D01*
X69533419Y-94984190D02*
X69676276Y-95079428D01*
X69676276Y-95079428D02*
X69771514Y-95174666D01*
X69771514Y-95174666D02*
X69819133Y-95269904D01*
X70533419Y-94222285D02*
X70533419Y-94031809D01*
X70533419Y-94031809D02*
X70485800Y-93936571D01*
X70485800Y-93936571D02*
X70438180Y-93888952D01*
X70438180Y-93888952D02*
X70295323Y-93793714D01*
X70295323Y-93793714D02*
X70104847Y-93746095D01*
X70104847Y-93746095D02*
X69723895Y-93746095D01*
X69723895Y-93746095D02*
X69628657Y-93793714D01*
X69628657Y-93793714D02*
X69581038Y-93841333D01*
X69581038Y-93841333D02*
X69533419Y-93936571D01*
X69533419Y-93936571D02*
X69533419Y-94127047D01*
X69533419Y-94127047D02*
X69581038Y-94222285D01*
X69581038Y-94222285D02*
X69628657Y-94269904D01*
X69628657Y-94269904D02*
X69723895Y-94317523D01*
X69723895Y-94317523D02*
X69961990Y-94317523D01*
X69961990Y-94317523D02*
X70057228Y-94269904D01*
X70057228Y-94269904D02*
X70104847Y-94222285D01*
X70104847Y-94222285D02*
X70152466Y-94127047D01*
X70152466Y-94127047D02*
X70152466Y-93936571D01*
X70152466Y-93936571D02*
X70104847Y-93841333D01*
X70104847Y-93841333D02*
X70057228Y-93793714D01*
X70057228Y-93793714D02*
X69961990Y-93746095D01*
X86306819Y-122905057D02*
X85830628Y-123238390D01*
X86306819Y-123476485D02*
X85306819Y-123476485D01*
X85306819Y-123476485D02*
X85306819Y-123095533D01*
X85306819Y-123095533D02*
X85354438Y-123000295D01*
X85354438Y-123000295D02*
X85402057Y-122952676D01*
X85402057Y-122952676D02*
X85497295Y-122905057D01*
X85497295Y-122905057D02*
X85640152Y-122905057D01*
X85640152Y-122905057D02*
X85735390Y-122952676D01*
X85735390Y-122952676D02*
X85783009Y-123000295D01*
X85783009Y-123000295D02*
X85830628Y-123095533D01*
X85830628Y-123095533D02*
X85830628Y-123476485D01*
X86306819Y-121952676D02*
X86306819Y-122524104D01*
X86306819Y-122238390D02*
X85306819Y-122238390D01*
X85306819Y-122238390D02*
X85449676Y-122333628D01*
X85449676Y-122333628D02*
X85544914Y-122428866D01*
X85544914Y-122428866D02*
X85592533Y-122524104D01*
X85640152Y-121095533D02*
X86306819Y-121095533D01*
X85259200Y-121333628D02*
X85973485Y-121571723D01*
X85973485Y-121571723D02*
X85973485Y-120952676D01*
X79417942Y-147710619D02*
X79084609Y-147234428D01*
X78846514Y-147710619D02*
X78846514Y-146710619D01*
X78846514Y-146710619D02*
X79227466Y-146710619D01*
X79227466Y-146710619D02*
X79322704Y-146758238D01*
X79322704Y-146758238D02*
X79370323Y-146805857D01*
X79370323Y-146805857D02*
X79417942Y-146901095D01*
X79417942Y-146901095D02*
X79417942Y-147043952D01*
X79417942Y-147043952D02*
X79370323Y-147139190D01*
X79370323Y-147139190D02*
X79322704Y-147186809D01*
X79322704Y-147186809D02*
X79227466Y-147234428D01*
X79227466Y-147234428D02*
X78846514Y-147234428D01*
X79798895Y-146805857D02*
X79846514Y-146758238D01*
X79846514Y-146758238D02*
X79941752Y-146710619D01*
X79941752Y-146710619D02*
X80179847Y-146710619D01*
X80179847Y-146710619D02*
X80275085Y-146758238D01*
X80275085Y-146758238D02*
X80322704Y-146805857D01*
X80322704Y-146805857D02*
X80370323Y-146901095D01*
X80370323Y-146901095D02*
X80370323Y-146996333D01*
X80370323Y-146996333D02*
X80322704Y-147139190D01*
X80322704Y-147139190D02*
X79751276Y-147710619D01*
X79751276Y-147710619D02*
X80370323Y-147710619D01*
X80751276Y-146805857D02*
X80798895Y-146758238D01*
X80798895Y-146758238D02*
X80894133Y-146710619D01*
X80894133Y-146710619D02*
X81132228Y-146710619D01*
X81132228Y-146710619D02*
X81227466Y-146758238D01*
X81227466Y-146758238D02*
X81275085Y-146805857D01*
X81275085Y-146805857D02*
X81322704Y-146901095D01*
X81322704Y-146901095D02*
X81322704Y-146996333D01*
X81322704Y-146996333D02*
X81275085Y-147139190D01*
X81275085Y-147139190D02*
X80703657Y-147710619D01*
X80703657Y-147710619D02*
X81322704Y-147710619D01*
X78100323Y-112963419D02*
X77766990Y-112487228D01*
X77528895Y-112963419D02*
X77528895Y-111963419D01*
X77528895Y-111963419D02*
X77909847Y-111963419D01*
X77909847Y-111963419D02*
X78005085Y-112011038D01*
X78005085Y-112011038D02*
X78052704Y-112058657D01*
X78052704Y-112058657D02*
X78100323Y-112153895D01*
X78100323Y-112153895D02*
X78100323Y-112296752D01*
X78100323Y-112296752D02*
X78052704Y-112391990D01*
X78052704Y-112391990D02*
X78005085Y-112439609D01*
X78005085Y-112439609D02*
X77909847Y-112487228D01*
X77909847Y-112487228D02*
X77528895Y-112487228D01*
X78528895Y-112963419D02*
X78528895Y-111963419D01*
X78528895Y-111963419D02*
X79100323Y-112963419D01*
X79100323Y-112963419D02*
X79100323Y-111963419D01*
X80100323Y-112963419D02*
X79528895Y-112963419D01*
X79814609Y-112963419D02*
X79814609Y-111963419D01*
X79814609Y-111963419D02*
X79719371Y-112106276D01*
X79719371Y-112106276D02*
X79624133Y-112201514D01*
X79624133Y-112201514D02*
X79528895Y-112249133D01*
X75816619Y-138373657D02*
X75340428Y-138706990D01*
X75816619Y-138945085D02*
X74816619Y-138945085D01*
X74816619Y-138945085D02*
X74816619Y-138564133D01*
X74816619Y-138564133D02*
X74864238Y-138468895D01*
X74864238Y-138468895D02*
X74911857Y-138421276D01*
X74911857Y-138421276D02*
X75007095Y-138373657D01*
X75007095Y-138373657D02*
X75149952Y-138373657D01*
X75149952Y-138373657D02*
X75245190Y-138421276D01*
X75245190Y-138421276D02*
X75292809Y-138468895D01*
X75292809Y-138468895D02*
X75340428Y-138564133D01*
X75340428Y-138564133D02*
X75340428Y-138945085D01*
X74911857Y-137992704D02*
X74864238Y-137945085D01*
X74864238Y-137945085D02*
X74816619Y-137849847D01*
X74816619Y-137849847D02*
X74816619Y-137611752D01*
X74816619Y-137611752D02*
X74864238Y-137516514D01*
X74864238Y-137516514D02*
X74911857Y-137468895D01*
X74911857Y-137468895D02*
X75007095Y-137421276D01*
X75007095Y-137421276D02*
X75102333Y-137421276D01*
X75102333Y-137421276D02*
X75245190Y-137468895D01*
X75245190Y-137468895D02*
X75816619Y-138040323D01*
X75816619Y-138040323D02*
X75816619Y-137421276D01*
X75816619Y-136468895D02*
X75816619Y-137040323D01*
X75816619Y-136754609D02*
X74816619Y-136754609D01*
X74816619Y-136754609D02*
X74959476Y-136849847D01*
X74959476Y-136849847D02*
X75054714Y-136945085D01*
X75054714Y-136945085D02*
X75102333Y-137040323D01*
X131993895Y-172100619D02*
X131993895Y-172910142D01*
X131993895Y-172910142D02*
X132041514Y-173005380D01*
X132041514Y-173005380D02*
X132089133Y-173053000D01*
X132089133Y-173053000D02*
X132184371Y-173100619D01*
X132184371Y-173100619D02*
X132374847Y-173100619D01*
X132374847Y-173100619D02*
X132470085Y-173053000D01*
X132470085Y-173053000D02*
X132517704Y-173005380D01*
X132517704Y-173005380D02*
X132565323Y-172910142D01*
X132565323Y-172910142D02*
X132565323Y-172100619D01*
X133565323Y-173100619D02*
X132993895Y-173100619D01*
X133279609Y-173100619D02*
X133279609Y-172100619D01*
X133279609Y-172100619D02*
X133184371Y-172243476D01*
X133184371Y-172243476D02*
X133089133Y-172338714D01*
X133089133Y-172338714D02*
X132993895Y-172386333D01*
X72948895Y-166506619D02*
X72948895Y-165506619D01*
X72948895Y-165982809D02*
X73520323Y-165982809D01*
X73520323Y-166506619D02*
X73520323Y-165506619D01*
X73948895Y-165601857D02*
X73996514Y-165554238D01*
X73996514Y-165554238D02*
X74091752Y-165506619D01*
X74091752Y-165506619D02*
X74329847Y-165506619D01*
X74329847Y-165506619D02*
X74425085Y-165554238D01*
X74425085Y-165554238D02*
X74472704Y-165601857D01*
X74472704Y-165601857D02*
X74520323Y-165697095D01*
X74520323Y-165697095D02*
X74520323Y-165792333D01*
X74520323Y-165792333D02*
X74472704Y-165935190D01*
X74472704Y-165935190D02*
X73901276Y-166506619D01*
X73901276Y-166506619D02*
X74520323Y-166506619D01*
X105763819Y-179188504D02*
X106573342Y-179188504D01*
X106573342Y-179188504D02*
X106668580Y-179140885D01*
X106668580Y-179140885D02*
X106716200Y-179093266D01*
X106716200Y-179093266D02*
X106763819Y-178998028D01*
X106763819Y-178998028D02*
X106763819Y-178807552D01*
X106763819Y-178807552D02*
X106716200Y-178712314D01*
X106716200Y-178712314D02*
X106668580Y-178664695D01*
X106668580Y-178664695D02*
X106573342Y-178617076D01*
X106573342Y-178617076D02*
X105763819Y-178617076D01*
X106097152Y-177712314D02*
X106763819Y-177712314D01*
X105716200Y-177950409D02*
X106430485Y-178188504D01*
X106430485Y-178188504D02*
X106430485Y-177569457D01*
X120689019Y-55688704D02*
X121498542Y-55688704D01*
X121498542Y-55688704D02*
X121593780Y-55641085D01*
X121593780Y-55641085D02*
X121641400Y-55593466D01*
X121641400Y-55593466D02*
X121689019Y-55498228D01*
X121689019Y-55498228D02*
X121689019Y-55307752D01*
X121689019Y-55307752D02*
X121641400Y-55212514D01*
X121641400Y-55212514D02*
X121593780Y-55164895D01*
X121593780Y-55164895D02*
X121498542Y-55117276D01*
X121498542Y-55117276D02*
X120689019Y-55117276D01*
X120689019Y-54736323D02*
X120689019Y-54069657D01*
X120689019Y-54069657D02*
X121689019Y-54498228D01*
X132009021Y-164252380D02*
X131961402Y-164300000D01*
X131961402Y-164300000D02*
X131818545Y-164347619D01*
X131818545Y-164347619D02*
X131723307Y-164347619D01*
X131723307Y-164347619D02*
X131580450Y-164300000D01*
X131580450Y-164300000D02*
X131485212Y-164204761D01*
X131485212Y-164204761D02*
X131437593Y-164109523D01*
X131437593Y-164109523D02*
X131389974Y-163919047D01*
X131389974Y-163919047D02*
X131389974Y-163776190D01*
X131389974Y-163776190D02*
X131437593Y-163585714D01*
X131437593Y-163585714D02*
X131485212Y-163490476D01*
X131485212Y-163490476D02*
X131580450Y-163395238D01*
X131580450Y-163395238D02*
X131723307Y-163347619D01*
X131723307Y-163347619D02*
X131818545Y-163347619D01*
X131818545Y-163347619D02*
X131961402Y-163395238D01*
X131961402Y-163395238D02*
X132009021Y-163442857D01*
X132913783Y-163347619D02*
X132437593Y-163347619D01*
X132437593Y-163347619D02*
X132389974Y-163823809D01*
X132389974Y-163823809D02*
X132437593Y-163776190D01*
X132437593Y-163776190D02*
X132532831Y-163728571D01*
X132532831Y-163728571D02*
X132770926Y-163728571D01*
X132770926Y-163728571D02*
X132866164Y-163776190D01*
X132866164Y-163776190D02*
X132913783Y-163823809D01*
X132913783Y-163823809D02*
X132961402Y-163919047D01*
X132961402Y-163919047D02*
X132961402Y-164157142D01*
X132961402Y-164157142D02*
X132913783Y-164252380D01*
X132913783Y-164252380D02*
X132866164Y-164300000D01*
X132866164Y-164300000D02*
X132770926Y-164347619D01*
X132770926Y-164347619D02*
X132532831Y-164347619D01*
X132532831Y-164347619D02*
X132437593Y-164300000D01*
X132437593Y-164300000D02*
X132389974Y-164252380D01*
X141100800Y-48238622D02*
X141100800Y-48476717D01*
X140862705Y-48381479D02*
X141100800Y-48476717D01*
X141100800Y-48476717D02*
X141338895Y-48381479D01*
X140957943Y-48667193D02*
X141100800Y-48476717D01*
X141100800Y-48476717D02*
X141243657Y-48667193D01*
X143307466Y-48238622D02*
X143307466Y-48952907D01*
X143307466Y-48952907D02*
X143259847Y-49095764D01*
X143259847Y-49095764D02*
X143164609Y-49191003D01*
X143164609Y-49191003D02*
X143021752Y-49238622D01*
X143021752Y-49238622D02*
X142926514Y-49238622D01*
X143926514Y-48667193D02*
X143831276Y-48619574D01*
X143831276Y-48619574D02*
X143783657Y-48571955D01*
X143783657Y-48571955D02*
X143736038Y-48476717D01*
X143736038Y-48476717D02*
X143736038Y-48429098D01*
X143736038Y-48429098D02*
X143783657Y-48333860D01*
X143783657Y-48333860D02*
X143831276Y-48286241D01*
X143831276Y-48286241D02*
X143926514Y-48238622D01*
X143926514Y-48238622D02*
X144116990Y-48238622D01*
X144116990Y-48238622D02*
X144212228Y-48286241D01*
X144212228Y-48286241D02*
X144259847Y-48333860D01*
X144259847Y-48333860D02*
X144307466Y-48429098D01*
X144307466Y-48429098D02*
X144307466Y-48476717D01*
X144307466Y-48476717D02*
X144259847Y-48571955D01*
X144259847Y-48571955D02*
X144212228Y-48619574D01*
X144212228Y-48619574D02*
X144116990Y-48667193D01*
X144116990Y-48667193D02*
X143926514Y-48667193D01*
X143926514Y-48667193D02*
X143831276Y-48714812D01*
X143831276Y-48714812D02*
X143783657Y-48762431D01*
X143783657Y-48762431D02*
X143736038Y-48857669D01*
X143736038Y-48857669D02*
X143736038Y-49048145D01*
X143736038Y-49048145D02*
X143783657Y-49143383D01*
X143783657Y-49143383D02*
X143831276Y-49191003D01*
X143831276Y-49191003D02*
X143926514Y-49238622D01*
X143926514Y-49238622D02*
X144116990Y-49238622D01*
X144116990Y-49238622D02*
X144212228Y-49191003D01*
X144212228Y-49191003D02*
X144259847Y-49143383D01*
X144259847Y-49143383D02*
X144307466Y-49048145D01*
X144307466Y-49048145D02*
X144307466Y-48857669D01*
X144307466Y-48857669D02*
X144259847Y-48762431D01*
X144259847Y-48762431D02*
X144212228Y-48714812D01*
X144212228Y-48714812D02*
X144116990Y-48667193D01*
X79124276Y-140167619D02*
X79124276Y-140881904D01*
X79124276Y-140881904D02*
X79076657Y-141024761D01*
X79076657Y-141024761D02*
X78981419Y-141120000D01*
X78981419Y-141120000D02*
X78838562Y-141167619D01*
X78838562Y-141167619D02*
X78743324Y-141167619D01*
X80124276Y-141167619D02*
X79552848Y-141167619D01*
X79838562Y-141167619D02*
X79838562Y-140167619D01*
X79838562Y-140167619D02*
X79743324Y-140310476D01*
X79743324Y-140310476D02*
X79648086Y-140405714D01*
X79648086Y-140405714D02*
X79552848Y-140453333D01*
X81076657Y-141167619D02*
X80505229Y-141167619D01*
X80790943Y-141167619D02*
X80790943Y-140167619D01*
X80790943Y-140167619D02*
X80695705Y-140310476D01*
X80695705Y-140310476D02*
X80600467Y-140405714D01*
X80600467Y-140405714D02*
X80505229Y-140453333D01*
X83852142Y-171592980D02*
X83804523Y-171640600D01*
X83804523Y-171640600D02*
X83661666Y-171688219D01*
X83661666Y-171688219D02*
X83566428Y-171688219D01*
X83566428Y-171688219D02*
X83423571Y-171640600D01*
X83423571Y-171640600D02*
X83328333Y-171545361D01*
X83328333Y-171545361D02*
X83280714Y-171450123D01*
X83280714Y-171450123D02*
X83233095Y-171259647D01*
X83233095Y-171259647D02*
X83233095Y-171116790D01*
X83233095Y-171116790D02*
X83280714Y-170926314D01*
X83280714Y-170926314D02*
X83328333Y-170831076D01*
X83328333Y-170831076D02*
X83423571Y-170735838D01*
X83423571Y-170735838D02*
X83566428Y-170688219D01*
X83566428Y-170688219D02*
X83661666Y-170688219D01*
X83661666Y-170688219D02*
X83804523Y-170735838D01*
X83804523Y-170735838D02*
X83852142Y-170783457D01*
X84804523Y-171688219D02*
X84233095Y-171688219D01*
X84518809Y-171688219D02*
X84518809Y-170688219D01*
X84518809Y-170688219D02*
X84423571Y-170831076D01*
X84423571Y-170831076D02*
X84328333Y-170926314D01*
X84328333Y-170926314D02*
X84233095Y-170973933D01*
X85423571Y-170688219D02*
X85518809Y-170688219D01*
X85518809Y-170688219D02*
X85614047Y-170735838D01*
X85614047Y-170735838D02*
X85661666Y-170783457D01*
X85661666Y-170783457D02*
X85709285Y-170878695D01*
X85709285Y-170878695D02*
X85756904Y-171069171D01*
X85756904Y-171069171D02*
X85756904Y-171307266D01*
X85756904Y-171307266D02*
X85709285Y-171497742D01*
X85709285Y-171497742D02*
X85661666Y-171592980D01*
X85661666Y-171592980D02*
X85614047Y-171640600D01*
X85614047Y-171640600D02*
X85518809Y-171688219D01*
X85518809Y-171688219D02*
X85423571Y-171688219D01*
X85423571Y-171688219D02*
X85328333Y-171640600D01*
X85328333Y-171640600D02*
X85280714Y-171592980D01*
X85280714Y-171592980D02*
X85233095Y-171497742D01*
X85233095Y-171497742D02*
X85185476Y-171307266D01*
X85185476Y-171307266D02*
X85185476Y-171069171D01*
X85185476Y-171069171D02*
X85233095Y-170878695D01*
X85233095Y-170878695D02*
X85280714Y-170783457D01*
X85280714Y-170783457D02*
X85328333Y-170735838D01*
X85328333Y-170735838D02*
X85423571Y-170688219D01*
X70488980Y-105723857D02*
X70536600Y-105771476D01*
X70536600Y-105771476D02*
X70584219Y-105914333D01*
X70584219Y-105914333D02*
X70584219Y-106009571D01*
X70584219Y-106009571D02*
X70536600Y-106152428D01*
X70536600Y-106152428D02*
X70441361Y-106247666D01*
X70441361Y-106247666D02*
X70346123Y-106295285D01*
X70346123Y-106295285D02*
X70155647Y-106342904D01*
X70155647Y-106342904D02*
X70012790Y-106342904D01*
X70012790Y-106342904D02*
X69822314Y-106295285D01*
X69822314Y-106295285D02*
X69727076Y-106247666D01*
X69727076Y-106247666D02*
X69631838Y-106152428D01*
X69631838Y-106152428D02*
X69584219Y-106009571D01*
X69584219Y-106009571D02*
X69584219Y-105914333D01*
X69584219Y-105914333D02*
X69631838Y-105771476D01*
X69631838Y-105771476D02*
X69679457Y-105723857D01*
X69679457Y-105342904D02*
X69631838Y-105295285D01*
X69631838Y-105295285D02*
X69584219Y-105200047D01*
X69584219Y-105200047D02*
X69584219Y-104961952D01*
X69584219Y-104961952D02*
X69631838Y-104866714D01*
X69631838Y-104866714D02*
X69679457Y-104819095D01*
X69679457Y-104819095D02*
X69774695Y-104771476D01*
X69774695Y-104771476D02*
X69869933Y-104771476D01*
X69869933Y-104771476D02*
X70012790Y-104819095D01*
X70012790Y-104819095D02*
X70584219Y-105390523D01*
X70584219Y-105390523D02*
X70584219Y-104771476D01*
X69584219Y-104152428D02*
X69584219Y-104057190D01*
X69584219Y-104057190D02*
X69631838Y-103961952D01*
X69631838Y-103961952D02*
X69679457Y-103914333D01*
X69679457Y-103914333D02*
X69774695Y-103866714D01*
X69774695Y-103866714D02*
X69965171Y-103819095D01*
X69965171Y-103819095D02*
X70203266Y-103819095D01*
X70203266Y-103819095D02*
X70393742Y-103866714D01*
X70393742Y-103866714D02*
X70488980Y-103914333D01*
X70488980Y-103914333D02*
X70536600Y-103961952D01*
X70536600Y-103961952D02*
X70584219Y-104057190D01*
X70584219Y-104057190D02*
X70584219Y-104152428D01*
X70584219Y-104152428D02*
X70536600Y-104247666D01*
X70536600Y-104247666D02*
X70488980Y-104295285D01*
X70488980Y-104295285D02*
X70393742Y-104342904D01*
X70393742Y-104342904D02*
X70203266Y-104390523D01*
X70203266Y-104390523D02*
X69965171Y-104390523D01*
X69965171Y-104390523D02*
X69774695Y-104342904D01*
X69774695Y-104342904D02*
X69679457Y-104295285D01*
X69679457Y-104295285D02*
X69631838Y-104247666D01*
X69631838Y-104247666D02*
X69584219Y-104152428D01*
D11*
X152898118Y-155270751D02*
X152293356Y-155694085D01*
X152898118Y-155996466D02*
X151628118Y-155996466D01*
X151628118Y-155996466D02*
X151628118Y-155512656D01*
X151628118Y-155512656D02*
X151688594Y-155391704D01*
X151688594Y-155391704D02*
X151749070Y-155331227D01*
X151749070Y-155331227D02*
X151870022Y-155270751D01*
X151870022Y-155270751D02*
X152051451Y-155270751D01*
X152051451Y-155270751D02*
X152172403Y-155331227D01*
X152172403Y-155331227D02*
X152232880Y-155391704D01*
X152232880Y-155391704D02*
X152293356Y-155512656D01*
X152293356Y-155512656D02*
X152293356Y-155996466D01*
X151628118Y-154907894D02*
X152898118Y-154484561D01*
X152898118Y-154484561D02*
X151628118Y-154061227D01*
X152898118Y-152972656D02*
X152898118Y-153698371D01*
X152898118Y-153335514D02*
X151628118Y-153335514D01*
X151628118Y-153335514D02*
X151809546Y-153456466D01*
X151809546Y-153456466D02*
X151930499Y-153577418D01*
X151930499Y-153577418D02*
X151990975Y-153698371D01*
D10*
X153376980Y-168532466D02*
X152662695Y-168532466D01*
X152662695Y-168532466D02*
X152519838Y-168484847D01*
X152519838Y-168484847D02*
X152424600Y-168389609D01*
X152424600Y-168389609D02*
X152376980Y-168246752D01*
X152376980Y-168246752D02*
X152376980Y-168151514D01*
X152376980Y-169056276D02*
X152376980Y-169246752D01*
X152376980Y-169246752D02*
X152424600Y-169341990D01*
X152424600Y-169341990D02*
X152472219Y-169389609D01*
X152472219Y-169389609D02*
X152615076Y-169484847D01*
X152615076Y-169484847D02*
X152805552Y-169532466D01*
X152805552Y-169532466D02*
X153186504Y-169532466D01*
X153186504Y-169532466D02*
X153281742Y-169484847D01*
X153281742Y-169484847D02*
X153329361Y-169437228D01*
X153329361Y-169437228D02*
X153376980Y-169341990D01*
X153376980Y-169341990D02*
X153376980Y-169151514D01*
X153376980Y-169151514D02*
X153329361Y-169056276D01*
X153329361Y-169056276D02*
X153281742Y-169008657D01*
X153281742Y-169008657D02*
X153186504Y-168961038D01*
X153186504Y-168961038D02*
X152948409Y-168961038D01*
X152948409Y-168961038D02*
X152853171Y-169008657D01*
X152853171Y-169008657D02*
X152805552Y-169056276D01*
X152805552Y-169056276D02*
X152757933Y-169151514D01*
X152757933Y-169151514D02*
X152757933Y-169341990D01*
X152757933Y-169341990D02*
X152805552Y-169437228D01*
X152805552Y-169437228D02*
X152853171Y-169484847D01*
X152853171Y-169484847D02*
X152948409Y-169532466D01*
X152286619Y-166325799D02*
X152524714Y-166325799D01*
X152429476Y-166563894D02*
X152524714Y-166325799D01*
X152524714Y-166325799D02*
X152429476Y-166087704D01*
X152715190Y-166468656D02*
X152524714Y-166325799D01*
X152524714Y-166325799D02*
X152715190Y-166182942D01*
X131487942Y-46796419D02*
X131154609Y-46320228D01*
X130916514Y-46796419D02*
X130916514Y-45796419D01*
X130916514Y-45796419D02*
X131297466Y-45796419D01*
X131297466Y-45796419D02*
X131392704Y-45844038D01*
X131392704Y-45844038D02*
X131440323Y-45891657D01*
X131440323Y-45891657D02*
X131487942Y-45986895D01*
X131487942Y-45986895D02*
X131487942Y-46129752D01*
X131487942Y-46129752D02*
X131440323Y-46224990D01*
X131440323Y-46224990D02*
X131392704Y-46272609D01*
X131392704Y-46272609D02*
X131297466Y-46320228D01*
X131297466Y-46320228D02*
X130916514Y-46320228D01*
X132440323Y-46796419D02*
X131868895Y-46796419D01*
X132154609Y-46796419D02*
X132154609Y-45796419D01*
X132154609Y-45796419D02*
X132059371Y-45939276D01*
X132059371Y-45939276D02*
X131964133Y-46034514D01*
X131964133Y-46034514D02*
X131868895Y-46082133D01*
X133059371Y-45796419D02*
X133154609Y-45796419D01*
X133154609Y-45796419D02*
X133249847Y-45844038D01*
X133249847Y-45844038D02*
X133297466Y-45891657D01*
X133297466Y-45891657D02*
X133345085Y-45986895D01*
X133345085Y-45986895D02*
X133392704Y-46177371D01*
X133392704Y-46177371D02*
X133392704Y-46415466D01*
X133392704Y-46415466D02*
X133345085Y-46605942D01*
X133345085Y-46605942D02*
X133297466Y-46701180D01*
X133297466Y-46701180D02*
X133249847Y-46748800D01*
X133249847Y-46748800D02*
X133154609Y-46796419D01*
X133154609Y-46796419D02*
X133059371Y-46796419D01*
X133059371Y-46796419D02*
X132964133Y-46748800D01*
X132964133Y-46748800D02*
X132916514Y-46701180D01*
X132916514Y-46701180D02*
X132868895Y-46605942D01*
X132868895Y-46605942D02*
X132821276Y-46415466D01*
X132821276Y-46415466D02*
X132821276Y-46177371D01*
X132821276Y-46177371D02*
X132868895Y-45986895D01*
X132868895Y-45986895D02*
X132916514Y-45891657D01*
X132916514Y-45891657D02*
X132964133Y-45844038D01*
X132964133Y-45844038D02*
X133059371Y-45796419D01*
X80210819Y-122854257D02*
X79734628Y-123187590D01*
X80210819Y-123425685D02*
X79210819Y-123425685D01*
X79210819Y-123425685D02*
X79210819Y-123044733D01*
X79210819Y-123044733D02*
X79258438Y-122949495D01*
X79258438Y-122949495D02*
X79306057Y-122901876D01*
X79306057Y-122901876D02*
X79401295Y-122854257D01*
X79401295Y-122854257D02*
X79544152Y-122854257D01*
X79544152Y-122854257D02*
X79639390Y-122901876D01*
X79639390Y-122901876D02*
X79687009Y-122949495D01*
X79687009Y-122949495D02*
X79734628Y-123044733D01*
X79734628Y-123044733D02*
X79734628Y-123425685D01*
X80210819Y-121901876D02*
X80210819Y-122473304D01*
X80210819Y-122187590D02*
X79210819Y-122187590D01*
X79210819Y-122187590D02*
X79353676Y-122282828D01*
X79353676Y-122282828D02*
X79448914Y-122378066D01*
X79448914Y-122378066D02*
X79496533Y-122473304D01*
X79210819Y-121044733D02*
X79210819Y-121235209D01*
X79210819Y-121235209D02*
X79258438Y-121330447D01*
X79258438Y-121330447D02*
X79306057Y-121378066D01*
X79306057Y-121378066D02*
X79448914Y-121473304D01*
X79448914Y-121473304D02*
X79639390Y-121520923D01*
X79639390Y-121520923D02*
X80020342Y-121520923D01*
X80020342Y-121520923D02*
X80115580Y-121473304D01*
X80115580Y-121473304D02*
X80163200Y-121425685D01*
X80163200Y-121425685D02*
X80210819Y-121330447D01*
X80210819Y-121330447D02*
X80210819Y-121139971D01*
X80210819Y-121139971D02*
X80163200Y-121044733D01*
X80163200Y-121044733D02*
X80115580Y-120997114D01*
X80115580Y-120997114D02*
X80020342Y-120949495D01*
X80020342Y-120949495D02*
X79782247Y-120949495D01*
X79782247Y-120949495D02*
X79687009Y-120997114D01*
X79687009Y-120997114D02*
X79639390Y-121044733D01*
X79639390Y-121044733D02*
X79591771Y-121139971D01*
X79591771Y-121139971D02*
X79591771Y-121330447D01*
X79591771Y-121330447D02*
X79639390Y-121425685D01*
X79639390Y-121425685D02*
X79687009Y-121473304D01*
X79687009Y-121473304D02*
X79782247Y-121520923D01*
X71519619Y-122742933D02*
X72233904Y-122742933D01*
X72233904Y-122742933D02*
X72376761Y-122790552D01*
X72376761Y-122790552D02*
X72472000Y-122885790D01*
X72472000Y-122885790D02*
X72519619Y-123028647D01*
X72519619Y-123028647D02*
X72519619Y-123123885D01*
X71519619Y-121838171D02*
X71519619Y-122028647D01*
X71519619Y-122028647D02*
X71567238Y-122123885D01*
X71567238Y-122123885D02*
X71614857Y-122171504D01*
X71614857Y-122171504D02*
X71757714Y-122266742D01*
X71757714Y-122266742D02*
X71948190Y-122314361D01*
X71948190Y-122314361D02*
X72329142Y-122314361D01*
X72329142Y-122314361D02*
X72424380Y-122266742D01*
X72424380Y-122266742D02*
X72472000Y-122219123D01*
X72472000Y-122219123D02*
X72519619Y-122123885D01*
X72519619Y-122123885D02*
X72519619Y-121933409D01*
X72519619Y-121933409D02*
X72472000Y-121838171D01*
X72472000Y-121838171D02*
X72424380Y-121790552D01*
X72424380Y-121790552D02*
X72329142Y-121742933D01*
X72329142Y-121742933D02*
X72091047Y-121742933D01*
X72091047Y-121742933D02*
X71995809Y-121790552D01*
X71995809Y-121790552D02*
X71948190Y-121838171D01*
X71948190Y-121838171D02*
X71900571Y-121933409D01*
X71900571Y-121933409D02*
X71900571Y-122123885D01*
X71900571Y-122123885D02*
X71948190Y-122219123D01*
X71948190Y-122219123D02*
X71995809Y-122266742D01*
X71995809Y-122266742D02*
X72091047Y-122314361D01*
X138041142Y-68869019D02*
X137707809Y-68392828D01*
X137469714Y-68869019D02*
X137469714Y-67869019D01*
X137469714Y-67869019D02*
X137850666Y-67869019D01*
X137850666Y-67869019D02*
X137945904Y-67916638D01*
X137945904Y-67916638D02*
X137993523Y-67964257D01*
X137993523Y-67964257D02*
X138041142Y-68059495D01*
X138041142Y-68059495D02*
X138041142Y-68202352D01*
X138041142Y-68202352D02*
X137993523Y-68297590D01*
X137993523Y-68297590D02*
X137945904Y-68345209D01*
X137945904Y-68345209D02*
X137850666Y-68392828D01*
X137850666Y-68392828D02*
X137469714Y-68392828D01*
X138993523Y-68869019D02*
X138422095Y-68869019D01*
X138707809Y-68869019D02*
X138707809Y-67869019D01*
X138707809Y-67869019D02*
X138612571Y-68011876D01*
X138612571Y-68011876D02*
X138517333Y-68107114D01*
X138517333Y-68107114D02*
X138422095Y-68154733D01*
X139374476Y-67964257D02*
X139422095Y-67916638D01*
X139422095Y-67916638D02*
X139517333Y-67869019D01*
X139517333Y-67869019D02*
X139755428Y-67869019D01*
X139755428Y-67869019D02*
X139850666Y-67916638D01*
X139850666Y-67916638D02*
X139898285Y-67964257D01*
X139898285Y-67964257D02*
X139945904Y-68059495D01*
X139945904Y-68059495D02*
X139945904Y-68154733D01*
X139945904Y-68154733D02*
X139898285Y-68297590D01*
X139898285Y-68297590D02*
X139326857Y-68869019D01*
X139326857Y-68869019D02*
X139945904Y-68869019D01*
X151268133Y-131359380D02*
X151220514Y-131407000D01*
X151220514Y-131407000D02*
X151077657Y-131454619D01*
X151077657Y-131454619D02*
X150982419Y-131454619D01*
X150982419Y-131454619D02*
X150839562Y-131407000D01*
X150839562Y-131407000D02*
X150744324Y-131311761D01*
X150744324Y-131311761D02*
X150696705Y-131216523D01*
X150696705Y-131216523D02*
X150649086Y-131026047D01*
X150649086Y-131026047D02*
X150649086Y-130883190D01*
X150649086Y-130883190D02*
X150696705Y-130692714D01*
X150696705Y-130692714D02*
X150744324Y-130597476D01*
X150744324Y-130597476D02*
X150839562Y-130502238D01*
X150839562Y-130502238D02*
X150982419Y-130454619D01*
X150982419Y-130454619D02*
X151077657Y-130454619D01*
X151077657Y-130454619D02*
X151220514Y-130502238D01*
X151220514Y-130502238D02*
X151268133Y-130549857D01*
X151839562Y-130883190D02*
X151744324Y-130835571D01*
X151744324Y-130835571D02*
X151696705Y-130787952D01*
X151696705Y-130787952D02*
X151649086Y-130692714D01*
X151649086Y-130692714D02*
X151649086Y-130645095D01*
X151649086Y-130645095D02*
X151696705Y-130549857D01*
X151696705Y-130549857D02*
X151744324Y-130502238D01*
X151744324Y-130502238D02*
X151839562Y-130454619D01*
X151839562Y-130454619D02*
X152030038Y-130454619D01*
X152030038Y-130454619D02*
X152125276Y-130502238D01*
X152125276Y-130502238D02*
X152172895Y-130549857D01*
X152172895Y-130549857D02*
X152220514Y-130645095D01*
X152220514Y-130645095D02*
X152220514Y-130692714D01*
X152220514Y-130692714D02*
X152172895Y-130787952D01*
X152172895Y-130787952D02*
X152125276Y-130835571D01*
X152125276Y-130835571D02*
X152030038Y-130883190D01*
X152030038Y-130883190D02*
X151839562Y-130883190D01*
X151839562Y-130883190D02*
X151744324Y-130930809D01*
X151744324Y-130930809D02*
X151696705Y-130978428D01*
X151696705Y-130978428D02*
X151649086Y-131073666D01*
X151649086Y-131073666D02*
X151649086Y-131264142D01*
X151649086Y-131264142D02*
X151696705Y-131359380D01*
X151696705Y-131359380D02*
X151744324Y-131407000D01*
X151744324Y-131407000D02*
X151839562Y-131454619D01*
X151839562Y-131454619D02*
X152030038Y-131454619D01*
X152030038Y-131454619D02*
X152125276Y-131407000D01*
X152125276Y-131407000D02*
X152172895Y-131359380D01*
X152172895Y-131359380D02*
X152220514Y-131264142D01*
X152220514Y-131264142D02*
X152220514Y-131073666D01*
X152220514Y-131073666D02*
X152172895Y-130978428D01*
X152172895Y-130978428D02*
X152125276Y-130930809D01*
X152125276Y-130930809D02*
X152030038Y-130883190D01*
X126572180Y-174073615D02*
X126619800Y-174121234D01*
X126619800Y-174121234D02*
X126667419Y-174264091D01*
X126667419Y-174264091D02*
X126667419Y-174359329D01*
X126667419Y-174359329D02*
X126619800Y-174502186D01*
X126619800Y-174502186D02*
X126524561Y-174597424D01*
X126524561Y-174597424D02*
X126429323Y-174645043D01*
X126429323Y-174645043D02*
X126238847Y-174692662D01*
X126238847Y-174692662D02*
X126095990Y-174692662D01*
X126095990Y-174692662D02*
X125905514Y-174645043D01*
X125905514Y-174645043D02*
X125810276Y-174597424D01*
X125810276Y-174597424D02*
X125715038Y-174502186D01*
X125715038Y-174502186D02*
X125667419Y-174359329D01*
X125667419Y-174359329D02*
X125667419Y-174264091D01*
X125667419Y-174264091D02*
X125715038Y-174121234D01*
X125715038Y-174121234D02*
X125762657Y-174073615D01*
X125667419Y-173740281D02*
X125667419Y-173073615D01*
X125667419Y-173073615D02*
X126667419Y-173502186D01*
X77162819Y-122854257D02*
X76686628Y-123187590D01*
X77162819Y-123425685D02*
X76162819Y-123425685D01*
X76162819Y-123425685D02*
X76162819Y-123044733D01*
X76162819Y-123044733D02*
X76210438Y-122949495D01*
X76210438Y-122949495D02*
X76258057Y-122901876D01*
X76258057Y-122901876D02*
X76353295Y-122854257D01*
X76353295Y-122854257D02*
X76496152Y-122854257D01*
X76496152Y-122854257D02*
X76591390Y-122901876D01*
X76591390Y-122901876D02*
X76639009Y-122949495D01*
X76639009Y-122949495D02*
X76686628Y-123044733D01*
X76686628Y-123044733D02*
X76686628Y-123425685D01*
X77162819Y-121901876D02*
X77162819Y-122473304D01*
X77162819Y-122187590D02*
X76162819Y-122187590D01*
X76162819Y-122187590D02*
X76305676Y-122282828D01*
X76305676Y-122282828D02*
X76400914Y-122378066D01*
X76400914Y-122378066D02*
X76448533Y-122473304D01*
X76162819Y-121568542D02*
X76162819Y-120901876D01*
X76162819Y-120901876D02*
X77162819Y-121330447D01*
X159627419Y-73004133D02*
X160341704Y-73004133D01*
X160341704Y-73004133D02*
X160484561Y-73051752D01*
X160484561Y-73051752D02*
X160579800Y-73146990D01*
X160579800Y-73146990D02*
X160627419Y-73289847D01*
X160627419Y-73289847D02*
X160627419Y-73385085D01*
X159627419Y-72623180D02*
X159627419Y-71956514D01*
X159627419Y-71956514D02*
X160627419Y-72385085D01*
X115087495Y-111977719D02*
X115087495Y-112787242D01*
X115087495Y-112787242D02*
X115135114Y-112882480D01*
X115135114Y-112882480D02*
X115182733Y-112930100D01*
X115182733Y-112930100D02*
X115277971Y-112977719D01*
X115277971Y-112977719D02*
X115468447Y-112977719D01*
X115468447Y-112977719D02*
X115563685Y-112930100D01*
X115563685Y-112930100D02*
X115611304Y-112882480D01*
X115611304Y-112882480D02*
X115658923Y-112787242D01*
X115658923Y-112787242D02*
X115658923Y-111977719D01*
X116182733Y-112977719D02*
X116373209Y-112977719D01*
X116373209Y-112977719D02*
X116468447Y-112930100D01*
X116468447Y-112930100D02*
X116516066Y-112882480D01*
X116516066Y-112882480D02*
X116611304Y-112739623D01*
X116611304Y-112739623D02*
X116658923Y-112549147D01*
X116658923Y-112549147D02*
X116658923Y-112168195D01*
X116658923Y-112168195D02*
X116611304Y-112072957D01*
X116611304Y-112072957D02*
X116563685Y-112025338D01*
X116563685Y-112025338D02*
X116468447Y-111977719D01*
X116468447Y-111977719D02*
X116277971Y-111977719D01*
X116277971Y-111977719D02*
X116182733Y-112025338D01*
X116182733Y-112025338D02*
X116135114Y-112072957D01*
X116135114Y-112072957D02*
X116087495Y-112168195D01*
X116087495Y-112168195D02*
X116087495Y-112406290D01*
X116087495Y-112406290D02*
X116135114Y-112501528D01*
X116135114Y-112501528D02*
X116182733Y-112549147D01*
X116182733Y-112549147D02*
X116277971Y-112596766D01*
X116277971Y-112596766D02*
X116468447Y-112596766D01*
X116468447Y-112596766D02*
X116563685Y-112549147D01*
X116563685Y-112549147D02*
X116611304Y-112501528D01*
X116611304Y-112501528D02*
X116658923Y-112406290D01*
X144438019Y-138664094D02*
X145247542Y-138664094D01*
X145247542Y-138664094D02*
X145342780Y-138616475D01*
X145342780Y-138616475D02*
X145390400Y-138568856D01*
X145390400Y-138568856D02*
X145438019Y-138473618D01*
X145438019Y-138473618D02*
X145438019Y-138283142D01*
X145438019Y-138283142D02*
X145390400Y-138187904D01*
X145390400Y-138187904D02*
X145342780Y-138140285D01*
X145342780Y-138140285D02*
X145247542Y-138092666D01*
X145247542Y-138092666D02*
X144438019Y-138092666D01*
X145438019Y-137092666D02*
X145438019Y-137664094D01*
X145438019Y-137378380D02*
X144438019Y-137378380D01*
X144438019Y-137378380D02*
X144580876Y-137473618D01*
X144580876Y-137473618D02*
X144676114Y-137568856D01*
X144676114Y-137568856D02*
X144723733Y-137664094D01*
X145438019Y-136140285D02*
X145438019Y-136711713D01*
X145438019Y-136425999D02*
X144438019Y-136425999D01*
X144438019Y-136425999D02*
X144580876Y-136521237D01*
X144580876Y-136521237D02*
X144676114Y-136616475D01*
X144676114Y-136616475D02*
X144723733Y-136711713D01*
D12*
X140296748Y-80382314D02*
X140325320Y-80410886D01*
X140325320Y-80410886D02*
X140353891Y-80496600D01*
X140353891Y-80496600D02*
X140353891Y-80553743D01*
X140353891Y-80553743D02*
X140325320Y-80639457D01*
X140325320Y-80639457D02*
X140268177Y-80696600D01*
X140268177Y-80696600D02*
X140211034Y-80725171D01*
X140211034Y-80725171D02*
X140096748Y-80753743D01*
X140096748Y-80753743D02*
X140011034Y-80753743D01*
X140011034Y-80753743D02*
X139896748Y-80725171D01*
X139896748Y-80725171D02*
X139839605Y-80696600D01*
X139839605Y-80696600D02*
X139782462Y-80639457D01*
X139782462Y-80639457D02*
X139753891Y-80553743D01*
X139753891Y-80553743D02*
X139753891Y-80496600D01*
X139753891Y-80496600D02*
X139782462Y-80410886D01*
X139782462Y-80410886D02*
X139811034Y-80382314D01*
X140353891Y-79810886D02*
X140353891Y-80153743D01*
X140353891Y-79982314D02*
X139753891Y-79982314D01*
X139753891Y-79982314D02*
X139839605Y-80039457D01*
X139839605Y-80039457D02*
X139896748Y-80096600D01*
X139896748Y-80096600D02*
X139925320Y-80153743D01*
X139753891Y-79296600D02*
X139753891Y-79410885D01*
X139753891Y-79410885D02*
X139782462Y-79468028D01*
X139782462Y-79468028D02*
X139811034Y-79496600D01*
X139811034Y-79496600D02*
X139896748Y-79553742D01*
X139896748Y-79553742D02*
X140011034Y-79582314D01*
X140011034Y-79582314D02*
X140239605Y-79582314D01*
X140239605Y-79582314D02*
X140296748Y-79553742D01*
X140296748Y-79553742D02*
X140325320Y-79525171D01*
X140325320Y-79525171D02*
X140353891Y-79468028D01*
X140353891Y-79468028D02*
X140353891Y-79353742D01*
X140353891Y-79353742D02*
X140325320Y-79296600D01*
X140325320Y-79296600D02*
X140296748Y-79268028D01*
X140296748Y-79268028D02*
X140239605Y-79239457D01*
X140239605Y-79239457D02*
X140096748Y-79239457D01*
X140096748Y-79239457D02*
X140039605Y-79268028D01*
X140039605Y-79268028D02*
X140011034Y-79296600D01*
X140011034Y-79296600D02*
X139982462Y-79353742D01*
X139982462Y-79353742D02*
X139982462Y-79468028D01*
X139982462Y-79468028D02*
X140011034Y-79525171D01*
X140011034Y-79525171D02*
X140039605Y-79553742D01*
X140039605Y-79553742D02*
X140096748Y-79582314D01*
D10*
X93323580Y-137774857D02*
X93371200Y-137822476D01*
X93371200Y-137822476D02*
X93418819Y-137965333D01*
X93418819Y-137965333D02*
X93418819Y-138060571D01*
X93418819Y-138060571D02*
X93371200Y-138203428D01*
X93371200Y-138203428D02*
X93275961Y-138298666D01*
X93275961Y-138298666D02*
X93180723Y-138346285D01*
X93180723Y-138346285D02*
X92990247Y-138393904D01*
X92990247Y-138393904D02*
X92847390Y-138393904D01*
X92847390Y-138393904D02*
X92656914Y-138346285D01*
X92656914Y-138346285D02*
X92561676Y-138298666D01*
X92561676Y-138298666D02*
X92466438Y-138203428D01*
X92466438Y-138203428D02*
X92418819Y-138060571D01*
X92418819Y-138060571D02*
X92418819Y-137965333D01*
X92418819Y-137965333D02*
X92466438Y-137822476D01*
X92466438Y-137822476D02*
X92514057Y-137774857D01*
X93418819Y-136822476D02*
X93418819Y-137393904D01*
X93418819Y-137108190D02*
X92418819Y-137108190D01*
X92418819Y-137108190D02*
X92561676Y-137203428D01*
X92561676Y-137203428D02*
X92656914Y-137298666D01*
X92656914Y-137298666D02*
X92704533Y-137393904D01*
X92847390Y-136251047D02*
X92799771Y-136346285D01*
X92799771Y-136346285D02*
X92752152Y-136393904D01*
X92752152Y-136393904D02*
X92656914Y-136441523D01*
X92656914Y-136441523D02*
X92609295Y-136441523D01*
X92609295Y-136441523D02*
X92514057Y-136393904D01*
X92514057Y-136393904D02*
X92466438Y-136346285D01*
X92466438Y-136346285D02*
X92418819Y-136251047D01*
X92418819Y-136251047D02*
X92418819Y-136060571D01*
X92418819Y-136060571D02*
X92466438Y-135965333D01*
X92466438Y-135965333D02*
X92514057Y-135917714D01*
X92514057Y-135917714D02*
X92609295Y-135870095D01*
X92609295Y-135870095D02*
X92656914Y-135870095D01*
X92656914Y-135870095D02*
X92752152Y-135917714D01*
X92752152Y-135917714D02*
X92799771Y-135965333D01*
X92799771Y-135965333D02*
X92847390Y-136060571D01*
X92847390Y-136060571D02*
X92847390Y-136251047D01*
X92847390Y-136251047D02*
X92895009Y-136346285D01*
X92895009Y-136346285D02*
X92942628Y-136393904D01*
X92942628Y-136393904D02*
X93037866Y-136441523D01*
X93037866Y-136441523D02*
X93228342Y-136441523D01*
X93228342Y-136441523D02*
X93323580Y-136393904D01*
X93323580Y-136393904D02*
X93371200Y-136346285D01*
X93371200Y-136346285D02*
X93418819Y-136251047D01*
X93418819Y-136251047D02*
X93418819Y-136060571D01*
X93418819Y-136060571D02*
X93371200Y-135965333D01*
X93371200Y-135965333D02*
X93323580Y-135917714D01*
X93323580Y-135917714D02*
X93228342Y-135870095D01*
X93228342Y-135870095D02*
X93037866Y-135870095D01*
X93037866Y-135870095D02*
X92942628Y-135917714D01*
X92942628Y-135917714D02*
X92895009Y-135965333D01*
X92895009Y-135965333D02*
X92847390Y-136060571D01*
D12*
X140347548Y-72889314D02*
X140376120Y-72917886D01*
X140376120Y-72917886D02*
X140404691Y-73003600D01*
X140404691Y-73003600D02*
X140404691Y-73060743D01*
X140404691Y-73060743D02*
X140376120Y-73146457D01*
X140376120Y-73146457D02*
X140318977Y-73203600D01*
X140318977Y-73203600D02*
X140261834Y-73232171D01*
X140261834Y-73232171D02*
X140147548Y-73260743D01*
X140147548Y-73260743D02*
X140061834Y-73260743D01*
X140061834Y-73260743D02*
X139947548Y-73232171D01*
X139947548Y-73232171D02*
X139890405Y-73203600D01*
X139890405Y-73203600D02*
X139833262Y-73146457D01*
X139833262Y-73146457D02*
X139804691Y-73060743D01*
X139804691Y-73060743D02*
X139804691Y-73003600D01*
X139804691Y-73003600D02*
X139833262Y-72917886D01*
X139833262Y-72917886D02*
X139861834Y-72889314D01*
X140404691Y-72317886D02*
X140404691Y-72660743D01*
X140404691Y-72489314D02*
X139804691Y-72489314D01*
X139804691Y-72489314D02*
X139890405Y-72546457D01*
X139890405Y-72546457D02*
X139947548Y-72603600D01*
X139947548Y-72603600D02*
X139976120Y-72660743D01*
X139804691Y-71775028D02*
X139804691Y-72060742D01*
X139804691Y-72060742D02*
X140090405Y-72089314D01*
X140090405Y-72089314D02*
X140061834Y-72060742D01*
X140061834Y-72060742D02*
X140033262Y-72003600D01*
X140033262Y-72003600D02*
X140033262Y-71860742D01*
X140033262Y-71860742D02*
X140061834Y-71803600D01*
X140061834Y-71803600D02*
X140090405Y-71775028D01*
X140090405Y-71775028D02*
X140147548Y-71746457D01*
X140147548Y-71746457D02*
X140290405Y-71746457D01*
X140290405Y-71746457D02*
X140347548Y-71775028D01*
X140347548Y-71775028D02*
X140376120Y-71803600D01*
X140376120Y-71803600D02*
X140404691Y-71860742D01*
X140404691Y-71860742D02*
X140404691Y-72003600D01*
X140404691Y-72003600D02*
X140376120Y-72060742D01*
X140376120Y-72060742D02*
X140347548Y-72089314D01*
D10*
X146477123Y-112963419D02*
X146143790Y-112487228D01*
X145905695Y-112963419D02*
X145905695Y-111963419D01*
X145905695Y-111963419D02*
X146286647Y-111963419D01*
X146286647Y-111963419D02*
X146381885Y-112011038D01*
X146381885Y-112011038D02*
X146429504Y-112058657D01*
X146429504Y-112058657D02*
X146477123Y-112153895D01*
X146477123Y-112153895D02*
X146477123Y-112296752D01*
X146477123Y-112296752D02*
X146429504Y-112391990D01*
X146429504Y-112391990D02*
X146381885Y-112439609D01*
X146381885Y-112439609D02*
X146286647Y-112487228D01*
X146286647Y-112487228D02*
X145905695Y-112487228D01*
X146905695Y-112963419D02*
X146905695Y-111963419D01*
X146905695Y-111963419D02*
X147477123Y-112963419D01*
X147477123Y-112963419D02*
X147477123Y-111963419D01*
X147905695Y-112058657D02*
X147953314Y-112011038D01*
X147953314Y-112011038D02*
X148048552Y-111963419D01*
X148048552Y-111963419D02*
X148286647Y-111963419D01*
X148286647Y-111963419D02*
X148381885Y-112011038D01*
X148381885Y-112011038D02*
X148429504Y-112058657D01*
X148429504Y-112058657D02*
X148477123Y-112153895D01*
X148477123Y-112153895D02*
X148477123Y-112249133D01*
X148477123Y-112249133D02*
X148429504Y-112391990D01*
X148429504Y-112391990D02*
X147858076Y-112963419D01*
X147858076Y-112963419D02*
X148477123Y-112963419D01*
X135131980Y-55442657D02*
X135179600Y-55490276D01*
X135179600Y-55490276D02*
X135227219Y-55633133D01*
X135227219Y-55633133D02*
X135227219Y-55728371D01*
X135227219Y-55728371D02*
X135179600Y-55871228D01*
X135179600Y-55871228D02*
X135084361Y-55966466D01*
X135084361Y-55966466D02*
X134989123Y-56014085D01*
X134989123Y-56014085D02*
X134798647Y-56061704D01*
X134798647Y-56061704D02*
X134655790Y-56061704D01*
X134655790Y-56061704D02*
X134465314Y-56014085D01*
X134465314Y-56014085D02*
X134370076Y-55966466D01*
X134370076Y-55966466D02*
X134274838Y-55871228D01*
X134274838Y-55871228D02*
X134227219Y-55728371D01*
X134227219Y-55728371D02*
X134227219Y-55633133D01*
X134227219Y-55633133D02*
X134274838Y-55490276D01*
X134274838Y-55490276D02*
X134322457Y-55442657D01*
X135227219Y-54490276D02*
X135227219Y-55061704D01*
X135227219Y-54775990D02*
X134227219Y-54775990D01*
X134227219Y-54775990D02*
X134370076Y-54871228D01*
X134370076Y-54871228D02*
X134465314Y-54966466D01*
X134465314Y-54966466D02*
X134512933Y-55061704D01*
X134560552Y-53633133D02*
X135227219Y-53633133D01*
X134179600Y-53871228D02*
X134893885Y-54109323D01*
X134893885Y-54109323D02*
X134893885Y-53490276D01*
X70154200Y-156219732D02*
X70201819Y-156076875D01*
X70201819Y-156076875D02*
X70201819Y-155838780D01*
X70201819Y-155838780D02*
X70154200Y-155743542D01*
X70154200Y-155743542D02*
X70106580Y-155695923D01*
X70106580Y-155695923D02*
X70011342Y-155648304D01*
X70011342Y-155648304D02*
X69916104Y-155648304D01*
X69916104Y-155648304D02*
X69820866Y-155695923D01*
X69820866Y-155695923D02*
X69773247Y-155743542D01*
X69773247Y-155743542D02*
X69725628Y-155838780D01*
X69725628Y-155838780D02*
X69678009Y-156029256D01*
X69678009Y-156029256D02*
X69630390Y-156124494D01*
X69630390Y-156124494D02*
X69582771Y-156172113D01*
X69582771Y-156172113D02*
X69487533Y-156219732D01*
X69487533Y-156219732D02*
X69392295Y-156219732D01*
X69392295Y-156219732D02*
X69297057Y-156172113D01*
X69297057Y-156172113D02*
X69249438Y-156124494D01*
X69249438Y-156124494D02*
X69201819Y-156029256D01*
X69201819Y-156029256D02*
X69201819Y-155791161D01*
X69201819Y-155791161D02*
X69249438Y-155648304D01*
X69201819Y-155314970D02*
X70201819Y-155076875D01*
X70201819Y-155076875D02*
X69487533Y-154886399D01*
X69487533Y-154886399D02*
X70201819Y-154695923D01*
X70201819Y-154695923D02*
X69201819Y-154457828D01*
X70201819Y-153553066D02*
X70201819Y-154124494D01*
X70201819Y-153838780D02*
X69201819Y-153838780D01*
X69201819Y-153838780D02*
X69344676Y-153934018D01*
X69344676Y-153934018D02*
X69439914Y-154029256D01*
X69439914Y-154029256D02*
X69487533Y-154124494D01*
X147799466Y-180426619D02*
X147799466Y-181140904D01*
X147799466Y-181140904D02*
X147751847Y-181283761D01*
X147751847Y-181283761D02*
X147656609Y-181379000D01*
X147656609Y-181379000D02*
X147513752Y-181426619D01*
X147513752Y-181426619D02*
X147418514Y-181426619D01*
X148228038Y-180521857D02*
X148275657Y-180474238D01*
X148275657Y-180474238D02*
X148370895Y-180426619D01*
X148370895Y-180426619D02*
X148608990Y-180426619D01*
X148608990Y-180426619D02*
X148704228Y-180474238D01*
X148704228Y-180474238D02*
X148751847Y-180521857D01*
X148751847Y-180521857D02*
X148799466Y-180617095D01*
X148799466Y-180617095D02*
X148799466Y-180712333D01*
X148799466Y-180712333D02*
X148751847Y-180855190D01*
X148751847Y-180855190D02*
X148180419Y-181426619D01*
X148180419Y-181426619D02*
X148799466Y-181426619D01*
X109613795Y-84807519D02*
X109613795Y-83807519D01*
X109613795Y-84283709D02*
X110185223Y-84283709D01*
X110185223Y-84807519D02*
X110185223Y-83807519D01*
X110566176Y-83807519D02*
X111232842Y-83807519D01*
X111232842Y-83807519D02*
X110804271Y-84807519D01*
X134109619Y-148184466D02*
X133633428Y-148517799D01*
X134109619Y-148755894D02*
X133109619Y-148755894D01*
X133109619Y-148755894D02*
X133109619Y-148374942D01*
X133109619Y-148374942D02*
X133157238Y-148279704D01*
X133157238Y-148279704D02*
X133204857Y-148232085D01*
X133204857Y-148232085D02*
X133300095Y-148184466D01*
X133300095Y-148184466D02*
X133442952Y-148184466D01*
X133442952Y-148184466D02*
X133538190Y-148232085D01*
X133538190Y-148232085D02*
X133585809Y-148279704D01*
X133585809Y-148279704D02*
X133633428Y-148374942D01*
X133633428Y-148374942D02*
X133633428Y-148755894D01*
X133109619Y-147279704D02*
X133109619Y-147755894D01*
X133109619Y-147755894D02*
X133585809Y-147803513D01*
X133585809Y-147803513D02*
X133538190Y-147755894D01*
X133538190Y-147755894D02*
X133490571Y-147660656D01*
X133490571Y-147660656D02*
X133490571Y-147422561D01*
X133490571Y-147422561D02*
X133538190Y-147327323D01*
X133538190Y-147327323D02*
X133585809Y-147279704D01*
X133585809Y-147279704D02*
X133681047Y-147232085D01*
X133681047Y-147232085D02*
X133919142Y-147232085D01*
X133919142Y-147232085D02*
X134014380Y-147279704D01*
X134014380Y-147279704D02*
X134062000Y-147327323D01*
X134062000Y-147327323D02*
X134109619Y-147422561D01*
X134109619Y-147422561D02*
X134109619Y-147660656D01*
X134109619Y-147660656D02*
X134062000Y-147755894D01*
X134062000Y-147755894D02*
X134014380Y-147803513D01*
X97026219Y-159224104D02*
X97835742Y-159224104D01*
X97835742Y-159224104D02*
X97930980Y-159176485D01*
X97930980Y-159176485D02*
X97978600Y-159128866D01*
X97978600Y-159128866D02*
X98026219Y-159033628D01*
X98026219Y-159033628D02*
X98026219Y-158843152D01*
X98026219Y-158843152D02*
X97978600Y-158747914D01*
X97978600Y-158747914D02*
X97930980Y-158700295D01*
X97930980Y-158700295D02*
X97835742Y-158652676D01*
X97835742Y-158652676D02*
X97026219Y-158652676D01*
X97026219Y-157700295D02*
X97026219Y-158176485D01*
X97026219Y-158176485D02*
X97502409Y-158224104D01*
X97502409Y-158224104D02*
X97454790Y-158176485D01*
X97454790Y-158176485D02*
X97407171Y-158081247D01*
X97407171Y-158081247D02*
X97407171Y-157843152D01*
X97407171Y-157843152D02*
X97454790Y-157747914D01*
X97454790Y-157747914D02*
X97502409Y-157700295D01*
X97502409Y-157700295D02*
X97597647Y-157652676D01*
X97597647Y-157652676D02*
X97835742Y-157652676D01*
X97835742Y-157652676D02*
X97930980Y-157700295D01*
X97930980Y-157700295D02*
X97978600Y-157747914D01*
X97978600Y-157747914D02*
X98026219Y-157843152D01*
X98026219Y-157843152D02*
X98026219Y-158081247D01*
X98026219Y-158081247D02*
X97978600Y-158176485D01*
X97978600Y-158176485D02*
X97930980Y-158224104D01*
X126692819Y-157607866D02*
X126216628Y-157941199D01*
X126692819Y-158179294D02*
X125692819Y-158179294D01*
X125692819Y-158179294D02*
X125692819Y-157798342D01*
X125692819Y-157798342D02*
X125740438Y-157703104D01*
X125740438Y-157703104D02*
X125788057Y-157655485D01*
X125788057Y-157655485D02*
X125883295Y-157607866D01*
X125883295Y-157607866D02*
X126026152Y-157607866D01*
X126026152Y-157607866D02*
X126121390Y-157655485D01*
X126121390Y-157655485D02*
X126169009Y-157703104D01*
X126169009Y-157703104D02*
X126216628Y-157798342D01*
X126216628Y-157798342D02*
X126216628Y-158179294D01*
X125692819Y-157274532D02*
X125692819Y-156655485D01*
X125692819Y-156655485D02*
X126073771Y-156988818D01*
X126073771Y-156988818D02*
X126073771Y-156845961D01*
X126073771Y-156845961D02*
X126121390Y-156750723D01*
X126121390Y-156750723D02*
X126169009Y-156703104D01*
X126169009Y-156703104D02*
X126264247Y-156655485D01*
X126264247Y-156655485D02*
X126502342Y-156655485D01*
X126502342Y-156655485D02*
X126597580Y-156703104D01*
X126597580Y-156703104D02*
X126645200Y-156750723D01*
X126645200Y-156750723D02*
X126692819Y-156845961D01*
X126692819Y-156845961D02*
X126692819Y-157131675D01*
X126692819Y-157131675D02*
X126645200Y-157226913D01*
X126645200Y-157226913D02*
X126597580Y-157274532D01*
X90506942Y-116627380D02*
X90459323Y-116675000D01*
X90459323Y-116675000D02*
X90316466Y-116722619D01*
X90316466Y-116722619D02*
X90221228Y-116722619D01*
X90221228Y-116722619D02*
X90078371Y-116675000D01*
X90078371Y-116675000D02*
X89983133Y-116579761D01*
X89983133Y-116579761D02*
X89935514Y-116484523D01*
X89935514Y-116484523D02*
X89887895Y-116294047D01*
X89887895Y-116294047D02*
X89887895Y-116151190D01*
X89887895Y-116151190D02*
X89935514Y-115960714D01*
X89935514Y-115960714D02*
X89983133Y-115865476D01*
X89983133Y-115865476D02*
X90078371Y-115770238D01*
X90078371Y-115770238D02*
X90221228Y-115722619D01*
X90221228Y-115722619D02*
X90316466Y-115722619D01*
X90316466Y-115722619D02*
X90459323Y-115770238D01*
X90459323Y-115770238D02*
X90506942Y-115817857D01*
X91459323Y-116722619D02*
X90887895Y-116722619D01*
X91173609Y-116722619D02*
X91173609Y-115722619D01*
X91173609Y-115722619D02*
X91078371Y-115865476D01*
X91078371Y-115865476D02*
X90983133Y-115960714D01*
X90983133Y-115960714D02*
X90887895Y-116008333D01*
X91935514Y-116722619D02*
X92125990Y-116722619D01*
X92125990Y-116722619D02*
X92221228Y-116675000D01*
X92221228Y-116675000D02*
X92268847Y-116627380D01*
X92268847Y-116627380D02*
X92364085Y-116484523D01*
X92364085Y-116484523D02*
X92411704Y-116294047D01*
X92411704Y-116294047D02*
X92411704Y-115913095D01*
X92411704Y-115913095D02*
X92364085Y-115817857D01*
X92364085Y-115817857D02*
X92316466Y-115770238D01*
X92316466Y-115770238D02*
X92221228Y-115722619D01*
X92221228Y-115722619D02*
X92030752Y-115722619D01*
X92030752Y-115722619D02*
X91935514Y-115770238D01*
X91935514Y-115770238D02*
X91887895Y-115817857D01*
X91887895Y-115817857D02*
X91840276Y-115913095D01*
X91840276Y-115913095D02*
X91840276Y-116151190D01*
X91840276Y-116151190D02*
X91887895Y-116246428D01*
X91887895Y-116246428D02*
X91935514Y-116294047D01*
X91935514Y-116294047D02*
X92030752Y-116341666D01*
X92030752Y-116341666D02*
X92221228Y-116341666D01*
X92221228Y-116341666D02*
X92316466Y-116294047D01*
X92316466Y-116294047D02*
X92364085Y-116246428D01*
X92364085Y-116246428D02*
X92411704Y-116151190D01*
X71374095Y-52460619D02*
X71374095Y-51460619D01*
X71374095Y-51936809D02*
X71945523Y-51936809D01*
X71945523Y-52460619D02*
X71945523Y-51460619D01*
X72850285Y-51793952D02*
X72850285Y-52460619D01*
X72612190Y-51413000D02*
X72374095Y-52127285D01*
X72374095Y-52127285D02*
X72993142Y-52127285D01*
X155725019Y-95523857D02*
X155248828Y-95857190D01*
X155725019Y-96095285D02*
X154725019Y-96095285D01*
X154725019Y-96095285D02*
X154725019Y-95714333D01*
X154725019Y-95714333D02*
X154772638Y-95619095D01*
X154772638Y-95619095D02*
X154820257Y-95571476D01*
X154820257Y-95571476D02*
X154915495Y-95523857D01*
X154915495Y-95523857D02*
X155058352Y-95523857D01*
X155058352Y-95523857D02*
X155153590Y-95571476D01*
X155153590Y-95571476D02*
X155201209Y-95619095D01*
X155201209Y-95619095D02*
X155248828Y-95714333D01*
X155248828Y-95714333D02*
X155248828Y-96095285D01*
X155725019Y-94571476D02*
X155725019Y-95142904D01*
X155725019Y-94857190D02*
X154725019Y-94857190D01*
X154725019Y-94857190D02*
X154867876Y-94952428D01*
X154867876Y-94952428D02*
X154963114Y-95047666D01*
X154963114Y-95047666D02*
X155010733Y-95142904D01*
X155153590Y-94000047D02*
X155105971Y-94095285D01*
X155105971Y-94095285D02*
X155058352Y-94142904D01*
X155058352Y-94142904D02*
X154963114Y-94190523D01*
X154963114Y-94190523D02*
X154915495Y-94190523D01*
X154915495Y-94190523D02*
X154820257Y-94142904D01*
X154820257Y-94142904D02*
X154772638Y-94095285D01*
X154772638Y-94095285D02*
X154725019Y-94000047D01*
X154725019Y-94000047D02*
X154725019Y-93809571D01*
X154725019Y-93809571D02*
X154772638Y-93714333D01*
X154772638Y-93714333D02*
X154820257Y-93666714D01*
X154820257Y-93666714D02*
X154915495Y-93619095D01*
X154915495Y-93619095D02*
X154963114Y-93619095D01*
X154963114Y-93619095D02*
X155058352Y-93666714D01*
X155058352Y-93666714D02*
X155105971Y-93714333D01*
X155105971Y-93714333D02*
X155153590Y-93809571D01*
X155153590Y-93809571D02*
X155153590Y-94000047D01*
X155153590Y-94000047D02*
X155201209Y-94095285D01*
X155201209Y-94095285D02*
X155248828Y-94142904D01*
X155248828Y-94142904D02*
X155344066Y-94190523D01*
X155344066Y-94190523D02*
X155534542Y-94190523D01*
X155534542Y-94190523D02*
X155629780Y-94142904D01*
X155629780Y-94142904D02*
X155677400Y-94095285D01*
X155677400Y-94095285D02*
X155725019Y-94000047D01*
X155725019Y-94000047D02*
X155725019Y-93809571D01*
X155725019Y-93809571D02*
X155677400Y-93714333D01*
X155677400Y-93714333D02*
X155629780Y-93666714D01*
X155629780Y-93666714D02*
X155534542Y-93619095D01*
X155534542Y-93619095D02*
X155344066Y-93619095D01*
X155344066Y-93619095D02*
X155248828Y-93666714D01*
X155248828Y-93666714D02*
X155201209Y-93714333D01*
X155201209Y-93714333D02*
X155153590Y-93809571D01*
X83323133Y-133613619D02*
X82989800Y-133137428D01*
X82751705Y-133613619D02*
X82751705Y-132613619D01*
X82751705Y-132613619D02*
X83132657Y-132613619D01*
X83132657Y-132613619D02*
X83227895Y-132661238D01*
X83227895Y-132661238D02*
X83275514Y-132708857D01*
X83275514Y-132708857D02*
X83323133Y-132804095D01*
X83323133Y-132804095D02*
X83323133Y-132946952D01*
X83323133Y-132946952D02*
X83275514Y-133042190D01*
X83275514Y-133042190D02*
X83227895Y-133089809D01*
X83227895Y-133089809D02*
X83132657Y-133137428D01*
X83132657Y-133137428D02*
X82751705Y-133137428D01*
X84275514Y-133613619D02*
X83704086Y-133613619D01*
X83989800Y-133613619D02*
X83989800Y-132613619D01*
X83989800Y-132613619D02*
X83894562Y-132756476D01*
X83894562Y-132756476D02*
X83799324Y-132851714D01*
X83799324Y-132851714D02*
X83704086Y-132899333D01*
X138226895Y-183905619D02*
X138226895Y-182905619D01*
X138226895Y-183381809D02*
X138798323Y-183381809D01*
X138798323Y-183905619D02*
X138798323Y-182905619D01*
X139798323Y-183905619D02*
X139226895Y-183905619D01*
X139512609Y-183905619D02*
X139512609Y-182905619D01*
X139512609Y-182905619D02*
X139417371Y-183048476D01*
X139417371Y-183048476D02*
X139322133Y-183143714D01*
X139322133Y-183143714D02*
X139226895Y-183191333D01*
D13*
X141739806Y-175479466D02*
X141784568Y-175524228D01*
X141784568Y-175524228D02*
X141829329Y-175658514D01*
X141829329Y-175658514D02*
X141829329Y-175748038D01*
X141829329Y-175748038D02*
X141784568Y-175882323D01*
X141784568Y-175882323D02*
X141695044Y-175971847D01*
X141695044Y-175971847D02*
X141605520Y-176016609D01*
X141605520Y-176016609D02*
X141426472Y-176061371D01*
X141426472Y-176061371D02*
X141292187Y-176061371D01*
X141292187Y-176061371D02*
X141113139Y-176016609D01*
X141113139Y-176016609D02*
X141023615Y-175971847D01*
X141023615Y-175971847D02*
X140934091Y-175882323D01*
X140934091Y-175882323D02*
X140889329Y-175748038D01*
X140889329Y-175748038D02*
X140889329Y-175658514D01*
X140889329Y-175658514D02*
X140934091Y-175524228D01*
X140934091Y-175524228D02*
X140978853Y-175479466D01*
X140889329Y-174673752D02*
X140889329Y-174852799D01*
X140889329Y-174852799D02*
X140934091Y-174942323D01*
X140934091Y-174942323D02*
X140978853Y-174987085D01*
X140978853Y-174987085D02*
X141113139Y-175076609D01*
X141113139Y-175076609D02*
X141292187Y-175121371D01*
X141292187Y-175121371D02*
X141650282Y-175121371D01*
X141650282Y-175121371D02*
X141739806Y-175076609D01*
X141739806Y-175076609D02*
X141784568Y-175031847D01*
X141784568Y-175031847D02*
X141829329Y-174942323D01*
X141829329Y-174942323D02*
X141829329Y-174763276D01*
X141829329Y-174763276D02*
X141784568Y-174673752D01*
X141784568Y-174673752D02*
X141739806Y-174628990D01*
X141739806Y-174628990D02*
X141650282Y-174584228D01*
X141650282Y-174584228D02*
X141426472Y-174584228D01*
X141426472Y-174584228D02*
X141336948Y-174628990D01*
X141336948Y-174628990D02*
X141292187Y-174673752D01*
X141292187Y-174673752D02*
X141247425Y-174763276D01*
X141247425Y-174763276D02*
X141247425Y-174942323D01*
X141247425Y-174942323D02*
X141292187Y-175031847D01*
X141292187Y-175031847D02*
X141336948Y-175076609D01*
X141336948Y-175076609D02*
X141426472Y-175121371D01*
D10*
X81184533Y-130484419D02*
X80851200Y-130008228D01*
X80613105Y-130484419D02*
X80613105Y-129484419D01*
X80613105Y-129484419D02*
X80994057Y-129484419D01*
X80994057Y-129484419D02*
X81089295Y-129532038D01*
X81089295Y-129532038D02*
X81136914Y-129579657D01*
X81136914Y-129579657D02*
X81184533Y-129674895D01*
X81184533Y-129674895D02*
X81184533Y-129817752D01*
X81184533Y-129817752D02*
X81136914Y-129912990D01*
X81136914Y-129912990D02*
X81089295Y-129960609D01*
X81089295Y-129960609D02*
X80994057Y-130008228D01*
X80994057Y-130008228D02*
X80613105Y-130008228D01*
X81565486Y-129579657D02*
X81613105Y-129532038D01*
X81613105Y-129532038D02*
X81708343Y-129484419D01*
X81708343Y-129484419D02*
X81946438Y-129484419D01*
X81946438Y-129484419D02*
X82041676Y-129532038D01*
X82041676Y-129532038D02*
X82089295Y-129579657D01*
X82089295Y-129579657D02*
X82136914Y-129674895D01*
X82136914Y-129674895D02*
X82136914Y-129770133D01*
X82136914Y-129770133D02*
X82089295Y-129912990D01*
X82089295Y-129912990D02*
X81517867Y-130484419D01*
X81517867Y-130484419D02*
X82136914Y-130484419D01*
D14*
X69514100Y-139180065D02*
X69537909Y-139108637D01*
X69537909Y-139108637D02*
X69537909Y-138989589D01*
X69537909Y-138989589D02*
X69514100Y-138941970D01*
X69514100Y-138941970D02*
X69490290Y-138918161D01*
X69490290Y-138918161D02*
X69442671Y-138894351D01*
X69442671Y-138894351D02*
X69395052Y-138894351D01*
X69395052Y-138894351D02*
X69347433Y-138918161D01*
X69347433Y-138918161D02*
X69323623Y-138941970D01*
X69323623Y-138941970D02*
X69299814Y-138989589D01*
X69299814Y-138989589D02*
X69276004Y-139084827D01*
X69276004Y-139084827D02*
X69252195Y-139132446D01*
X69252195Y-139132446D02*
X69228385Y-139156256D01*
X69228385Y-139156256D02*
X69180766Y-139180065D01*
X69180766Y-139180065D02*
X69133147Y-139180065D01*
X69133147Y-139180065D02*
X69085528Y-139156256D01*
X69085528Y-139156256D02*
X69061719Y-139132446D01*
X69061719Y-139132446D02*
X69037909Y-139084827D01*
X69037909Y-139084827D02*
X69037909Y-138965780D01*
X69037909Y-138965780D02*
X69061719Y-138894351D01*
X69037909Y-138727685D02*
X69537909Y-138608637D01*
X69537909Y-138608637D02*
X69180766Y-138513399D01*
X69180766Y-138513399D02*
X69537909Y-138418161D01*
X69537909Y-138418161D02*
X69037909Y-138299114D01*
X69037909Y-138156256D02*
X69037909Y-137846732D01*
X69037909Y-137846732D02*
X69228385Y-138013399D01*
X69228385Y-138013399D02*
X69228385Y-137941970D01*
X69228385Y-137941970D02*
X69252195Y-137894351D01*
X69252195Y-137894351D02*
X69276004Y-137870542D01*
X69276004Y-137870542D02*
X69323623Y-137846732D01*
X69323623Y-137846732D02*
X69442671Y-137846732D01*
X69442671Y-137846732D02*
X69490290Y-137870542D01*
X69490290Y-137870542D02*
X69514100Y-137894351D01*
X69514100Y-137894351D02*
X69537909Y-137941970D01*
X69537909Y-137941970D02*
X69537909Y-138084827D01*
X69537909Y-138084827D02*
X69514100Y-138132446D01*
X69514100Y-138132446D02*
X69490290Y-138156256D01*
D10*
X109325580Y-59278057D02*
X109373200Y-59325676D01*
X109373200Y-59325676D02*
X109420819Y-59468533D01*
X109420819Y-59468533D02*
X109420819Y-59563771D01*
X109420819Y-59563771D02*
X109373200Y-59706628D01*
X109373200Y-59706628D02*
X109277961Y-59801866D01*
X109277961Y-59801866D02*
X109182723Y-59849485D01*
X109182723Y-59849485D02*
X108992247Y-59897104D01*
X108992247Y-59897104D02*
X108849390Y-59897104D01*
X108849390Y-59897104D02*
X108658914Y-59849485D01*
X108658914Y-59849485D02*
X108563676Y-59801866D01*
X108563676Y-59801866D02*
X108468438Y-59706628D01*
X108468438Y-59706628D02*
X108420819Y-59563771D01*
X108420819Y-59563771D02*
X108420819Y-59468533D01*
X108420819Y-59468533D02*
X108468438Y-59325676D01*
X108468438Y-59325676D02*
X108516057Y-59278057D01*
X109420819Y-58325676D02*
X109420819Y-58897104D01*
X109420819Y-58611390D02*
X108420819Y-58611390D01*
X108420819Y-58611390D02*
X108563676Y-58706628D01*
X108563676Y-58706628D02*
X108658914Y-58801866D01*
X108658914Y-58801866D02*
X108706533Y-58897104D01*
X108516057Y-57944723D02*
X108468438Y-57897104D01*
X108468438Y-57897104D02*
X108420819Y-57801866D01*
X108420819Y-57801866D02*
X108420819Y-57563771D01*
X108420819Y-57563771D02*
X108468438Y-57468533D01*
X108468438Y-57468533D02*
X108516057Y-57420914D01*
X108516057Y-57420914D02*
X108611295Y-57373295D01*
X108611295Y-57373295D02*
X108706533Y-57373295D01*
X108706533Y-57373295D02*
X108849390Y-57420914D01*
X108849390Y-57420914D02*
X109420819Y-57992342D01*
X109420819Y-57992342D02*
X109420819Y-57373295D01*
X83233419Y-122879657D02*
X82757228Y-123212990D01*
X83233419Y-123451085D02*
X82233419Y-123451085D01*
X82233419Y-123451085D02*
X82233419Y-123070133D01*
X82233419Y-123070133D02*
X82281038Y-122974895D01*
X82281038Y-122974895D02*
X82328657Y-122927276D01*
X82328657Y-122927276D02*
X82423895Y-122879657D01*
X82423895Y-122879657D02*
X82566752Y-122879657D01*
X82566752Y-122879657D02*
X82661990Y-122927276D01*
X82661990Y-122927276D02*
X82709609Y-122974895D01*
X82709609Y-122974895D02*
X82757228Y-123070133D01*
X82757228Y-123070133D02*
X82757228Y-123451085D01*
X83233419Y-121927276D02*
X83233419Y-122498704D01*
X83233419Y-122212990D02*
X82233419Y-122212990D01*
X82233419Y-122212990D02*
X82376276Y-122308228D01*
X82376276Y-122308228D02*
X82471514Y-122403466D01*
X82471514Y-122403466D02*
X82519133Y-122498704D01*
X82233419Y-121022514D02*
X82233419Y-121498704D01*
X82233419Y-121498704D02*
X82709609Y-121546323D01*
X82709609Y-121546323D02*
X82661990Y-121498704D01*
X82661990Y-121498704D02*
X82614371Y-121403466D01*
X82614371Y-121403466D02*
X82614371Y-121165371D01*
X82614371Y-121165371D02*
X82661990Y-121070133D01*
X82661990Y-121070133D02*
X82709609Y-121022514D01*
X82709609Y-121022514D02*
X82804847Y-120974895D01*
X82804847Y-120974895D02*
X83042942Y-120974895D01*
X83042942Y-120974895D02*
X83138180Y-121022514D01*
X83138180Y-121022514D02*
X83185800Y-121070133D01*
X83185800Y-121070133D02*
X83233419Y-121165371D01*
X83233419Y-121165371D02*
X83233419Y-121403466D01*
X83233419Y-121403466D02*
X83185800Y-121498704D01*
X83185800Y-121498704D02*
X83138180Y-121546323D01*
X78159780Y-154110857D02*
X78207400Y-154158476D01*
X78207400Y-154158476D02*
X78255019Y-154301333D01*
X78255019Y-154301333D02*
X78255019Y-154396571D01*
X78255019Y-154396571D02*
X78207400Y-154539428D01*
X78207400Y-154539428D02*
X78112161Y-154634666D01*
X78112161Y-154634666D02*
X78016923Y-154682285D01*
X78016923Y-154682285D02*
X77826447Y-154729904D01*
X77826447Y-154729904D02*
X77683590Y-154729904D01*
X77683590Y-154729904D02*
X77493114Y-154682285D01*
X77493114Y-154682285D02*
X77397876Y-154634666D01*
X77397876Y-154634666D02*
X77302638Y-154539428D01*
X77302638Y-154539428D02*
X77255019Y-154396571D01*
X77255019Y-154396571D02*
X77255019Y-154301333D01*
X77255019Y-154301333D02*
X77302638Y-154158476D01*
X77302638Y-154158476D02*
X77350257Y-154110857D01*
X78255019Y-153158476D02*
X78255019Y-153729904D01*
X78255019Y-153444190D02*
X77255019Y-153444190D01*
X77255019Y-153444190D02*
X77397876Y-153539428D01*
X77397876Y-153539428D02*
X77493114Y-153634666D01*
X77493114Y-153634666D02*
X77540733Y-153729904D01*
X78255019Y-152206095D02*
X78255019Y-152777523D01*
X78255019Y-152491809D02*
X77255019Y-152491809D01*
X77255019Y-152491809D02*
X77397876Y-152587047D01*
X77397876Y-152587047D02*
X77493114Y-152682285D01*
X77493114Y-152682285D02*
X77540733Y-152777523D01*
X85347276Y-140147619D02*
X85347276Y-140861904D01*
X85347276Y-140861904D02*
X85299657Y-141004761D01*
X85299657Y-141004761D02*
X85204419Y-141100000D01*
X85204419Y-141100000D02*
X85061562Y-141147619D01*
X85061562Y-141147619D02*
X84966324Y-141147619D01*
X86347276Y-141147619D02*
X85775848Y-141147619D01*
X86061562Y-141147619D02*
X86061562Y-140147619D01*
X86061562Y-140147619D02*
X85966324Y-140290476D01*
X85966324Y-140290476D02*
X85871086Y-140385714D01*
X85871086Y-140385714D02*
X85775848Y-140433333D01*
X86966324Y-140147619D02*
X87061562Y-140147619D01*
X87061562Y-140147619D02*
X87156800Y-140195238D01*
X87156800Y-140195238D02*
X87204419Y-140242857D01*
X87204419Y-140242857D02*
X87252038Y-140338095D01*
X87252038Y-140338095D02*
X87299657Y-140528571D01*
X87299657Y-140528571D02*
X87299657Y-140766666D01*
X87299657Y-140766666D02*
X87252038Y-140957142D01*
X87252038Y-140957142D02*
X87204419Y-141052380D01*
X87204419Y-141052380D02*
X87156800Y-141100000D01*
X87156800Y-141100000D02*
X87061562Y-141147619D01*
X87061562Y-141147619D02*
X86966324Y-141147619D01*
X86966324Y-141147619D02*
X86871086Y-141100000D01*
X86871086Y-141100000D02*
X86823467Y-141052380D01*
X86823467Y-141052380D02*
X86775848Y-140957142D01*
X86775848Y-140957142D02*
X86728229Y-140766666D01*
X86728229Y-140766666D02*
X86728229Y-140528571D01*
X86728229Y-140528571D02*
X86775848Y-140338095D01*
X86775848Y-140338095D02*
X86823467Y-140242857D01*
X86823467Y-140242857D02*
X86871086Y-140195238D01*
X86871086Y-140195238D02*
X86966324Y-140147619D01*
X155604380Y-105633057D02*
X155652000Y-105680676D01*
X155652000Y-105680676D02*
X155699619Y-105823533D01*
X155699619Y-105823533D02*
X155699619Y-105918771D01*
X155699619Y-105918771D02*
X155652000Y-106061628D01*
X155652000Y-106061628D02*
X155556761Y-106156866D01*
X155556761Y-106156866D02*
X155461523Y-106204485D01*
X155461523Y-106204485D02*
X155271047Y-106252104D01*
X155271047Y-106252104D02*
X155128190Y-106252104D01*
X155128190Y-106252104D02*
X154937714Y-106204485D01*
X154937714Y-106204485D02*
X154842476Y-106156866D01*
X154842476Y-106156866D02*
X154747238Y-106061628D01*
X154747238Y-106061628D02*
X154699619Y-105918771D01*
X154699619Y-105918771D02*
X154699619Y-105823533D01*
X154699619Y-105823533D02*
X154747238Y-105680676D01*
X154747238Y-105680676D02*
X154794857Y-105633057D01*
X154794857Y-105252104D02*
X154747238Y-105204485D01*
X154747238Y-105204485D02*
X154699619Y-105109247D01*
X154699619Y-105109247D02*
X154699619Y-104871152D01*
X154699619Y-104871152D02*
X154747238Y-104775914D01*
X154747238Y-104775914D02*
X154794857Y-104728295D01*
X154794857Y-104728295D02*
X154890095Y-104680676D01*
X154890095Y-104680676D02*
X154985333Y-104680676D01*
X154985333Y-104680676D02*
X155128190Y-104728295D01*
X155128190Y-104728295D02*
X155699619Y-105299723D01*
X155699619Y-105299723D02*
X155699619Y-104680676D01*
X155699619Y-103728295D02*
X155699619Y-104299723D01*
X155699619Y-104014009D02*
X154699619Y-104014009D01*
X154699619Y-104014009D02*
X154842476Y-104109247D01*
X154842476Y-104109247D02*
X154937714Y-104204485D01*
X154937714Y-104204485D02*
X154985333Y-104299723D01*
D11*
X111870067Y-100471118D02*
X111870067Y-101378261D01*
X111870067Y-101378261D02*
X111809590Y-101559689D01*
X111809590Y-101559689D02*
X111688638Y-101680642D01*
X111688638Y-101680642D02*
X111507209Y-101741118D01*
X111507209Y-101741118D02*
X111386257Y-101741118D01*
X113019114Y-100894451D02*
X113019114Y-101741118D01*
X112716733Y-100410642D02*
X112414352Y-101317784D01*
X112414352Y-101317784D02*
X113200543Y-101317784D01*
D10*
X143171942Y-131359380D02*
X143124323Y-131407000D01*
X143124323Y-131407000D02*
X142981466Y-131454619D01*
X142981466Y-131454619D02*
X142886228Y-131454619D01*
X142886228Y-131454619D02*
X142743371Y-131407000D01*
X142743371Y-131407000D02*
X142648133Y-131311761D01*
X142648133Y-131311761D02*
X142600514Y-131216523D01*
X142600514Y-131216523D02*
X142552895Y-131026047D01*
X142552895Y-131026047D02*
X142552895Y-130883190D01*
X142552895Y-130883190D02*
X142600514Y-130692714D01*
X142600514Y-130692714D02*
X142648133Y-130597476D01*
X142648133Y-130597476D02*
X142743371Y-130502238D01*
X142743371Y-130502238D02*
X142886228Y-130454619D01*
X142886228Y-130454619D02*
X142981466Y-130454619D01*
X142981466Y-130454619D02*
X143124323Y-130502238D01*
X143124323Y-130502238D02*
X143171942Y-130549857D01*
X143552895Y-130549857D02*
X143600514Y-130502238D01*
X143600514Y-130502238D02*
X143695752Y-130454619D01*
X143695752Y-130454619D02*
X143933847Y-130454619D01*
X143933847Y-130454619D02*
X144029085Y-130502238D01*
X144029085Y-130502238D02*
X144076704Y-130549857D01*
X144076704Y-130549857D02*
X144124323Y-130645095D01*
X144124323Y-130645095D02*
X144124323Y-130740333D01*
X144124323Y-130740333D02*
X144076704Y-130883190D01*
X144076704Y-130883190D02*
X143505276Y-131454619D01*
X143505276Y-131454619D02*
X144124323Y-131454619D01*
X144457657Y-130454619D02*
X145076704Y-130454619D01*
X145076704Y-130454619D02*
X144743371Y-130835571D01*
X144743371Y-130835571D02*
X144886228Y-130835571D01*
X144886228Y-130835571D02*
X144981466Y-130883190D01*
X144981466Y-130883190D02*
X145029085Y-130930809D01*
X145029085Y-130930809D02*
X145076704Y-131026047D01*
X145076704Y-131026047D02*
X145076704Y-131264142D01*
X145076704Y-131264142D02*
X145029085Y-131359380D01*
X145029085Y-131359380D02*
X144981466Y-131407000D01*
X144981466Y-131407000D02*
X144886228Y-131454619D01*
X144886228Y-131454619D02*
X144600514Y-131454619D01*
X144600514Y-131454619D02*
X144505276Y-131407000D01*
X144505276Y-131407000D02*
X144457657Y-131359380D01*
D11*
X75522166Y-183634442D02*
X75703595Y-183694918D01*
X75703595Y-183694918D02*
X76005976Y-183694918D01*
X76005976Y-183694918D02*
X76126928Y-183634442D01*
X76126928Y-183634442D02*
X76187404Y-183573965D01*
X76187404Y-183573965D02*
X76247881Y-183453013D01*
X76247881Y-183453013D02*
X76247881Y-183332061D01*
X76247881Y-183332061D02*
X76187404Y-183211108D01*
X76187404Y-183211108D02*
X76126928Y-183150632D01*
X76126928Y-183150632D02*
X76005976Y-183090156D01*
X76005976Y-183090156D02*
X75764071Y-183029680D01*
X75764071Y-183029680D02*
X75643119Y-182969203D01*
X75643119Y-182969203D02*
X75582642Y-182908727D01*
X75582642Y-182908727D02*
X75522166Y-182787775D01*
X75522166Y-182787775D02*
X75522166Y-182666822D01*
X75522166Y-182666822D02*
X75582642Y-182545870D01*
X75582642Y-182545870D02*
X75643119Y-182485394D01*
X75643119Y-182485394D02*
X75764071Y-182424918D01*
X75764071Y-182424918D02*
X76066452Y-182424918D01*
X76066452Y-182424918D02*
X76247881Y-182485394D01*
X76671214Y-182424918D02*
X76973595Y-183694918D01*
X76973595Y-183694918D02*
X77215500Y-182787775D01*
X77215500Y-182787775D02*
X77457405Y-183694918D01*
X77457405Y-183694918D02*
X77759786Y-182424918D01*
X78183119Y-182545870D02*
X78243595Y-182485394D01*
X78243595Y-182485394D02*
X78364548Y-182424918D01*
X78364548Y-182424918D02*
X78666929Y-182424918D01*
X78666929Y-182424918D02*
X78787881Y-182485394D01*
X78787881Y-182485394D02*
X78848357Y-182545870D01*
X78848357Y-182545870D02*
X78908834Y-182666822D01*
X78908834Y-182666822D02*
X78908834Y-182787775D01*
X78908834Y-182787775D02*
X78848357Y-182969203D01*
X78848357Y-182969203D02*
X78122643Y-183694918D01*
X78122643Y-183694918D02*
X78908834Y-183694918D01*
D10*
X92977619Y-55688704D02*
X93787142Y-55688704D01*
X93787142Y-55688704D02*
X93882380Y-55641085D01*
X93882380Y-55641085D02*
X93930000Y-55593466D01*
X93930000Y-55593466D02*
X93977619Y-55498228D01*
X93977619Y-55498228D02*
X93977619Y-55307752D01*
X93977619Y-55307752D02*
X93930000Y-55212514D01*
X93930000Y-55212514D02*
X93882380Y-55164895D01*
X93882380Y-55164895D02*
X93787142Y-55117276D01*
X93787142Y-55117276D02*
X92977619Y-55117276D01*
X93406190Y-54498228D02*
X93358571Y-54593466D01*
X93358571Y-54593466D02*
X93310952Y-54641085D01*
X93310952Y-54641085D02*
X93215714Y-54688704D01*
X93215714Y-54688704D02*
X93168095Y-54688704D01*
X93168095Y-54688704D02*
X93072857Y-54641085D01*
X93072857Y-54641085D02*
X93025238Y-54593466D01*
X93025238Y-54593466D02*
X92977619Y-54498228D01*
X92977619Y-54498228D02*
X92977619Y-54307752D01*
X92977619Y-54307752D02*
X93025238Y-54212514D01*
X93025238Y-54212514D02*
X93072857Y-54164895D01*
X93072857Y-54164895D02*
X93168095Y-54117276D01*
X93168095Y-54117276D02*
X93215714Y-54117276D01*
X93215714Y-54117276D02*
X93310952Y-54164895D01*
X93310952Y-54164895D02*
X93358571Y-54212514D01*
X93358571Y-54212514D02*
X93406190Y-54307752D01*
X93406190Y-54307752D02*
X93406190Y-54498228D01*
X93406190Y-54498228D02*
X93453809Y-54593466D01*
X93453809Y-54593466D02*
X93501428Y-54641085D01*
X93501428Y-54641085D02*
X93596666Y-54688704D01*
X93596666Y-54688704D02*
X93787142Y-54688704D01*
X93787142Y-54688704D02*
X93882380Y-54641085D01*
X93882380Y-54641085D02*
X93930000Y-54593466D01*
X93930000Y-54593466D02*
X93977619Y-54498228D01*
X93977619Y-54498228D02*
X93977619Y-54307752D01*
X93977619Y-54307752D02*
X93930000Y-54212514D01*
X93930000Y-54212514D02*
X93882380Y-54164895D01*
X93882380Y-54164895D02*
X93787142Y-54117276D01*
X93787142Y-54117276D02*
X93596666Y-54117276D01*
X93596666Y-54117276D02*
X93501428Y-54164895D01*
X93501428Y-54164895D02*
X93453809Y-54212514D01*
X93453809Y-54212514D02*
X93406190Y-54307752D01*
X89564380Y-127951466D02*
X89612000Y-127999085D01*
X89612000Y-127999085D02*
X89659619Y-128141942D01*
X89659619Y-128141942D02*
X89659619Y-128237180D01*
X89659619Y-128237180D02*
X89612000Y-128380037D01*
X89612000Y-128380037D02*
X89516761Y-128475275D01*
X89516761Y-128475275D02*
X89421523Y-128522894D01*
X89421523Y-128522894D02*
X89231047Y-128570513D01*
X89231047Y-128570513D02*
X89088190Y-128570513D01*
X89088190Y-128570513D02*
X88897714Y-128522894D01*
X88897714Y-128522894D02*
X88802476Y-128475275D01*
X88802476Y-128475275D02*
X88707238Y-128380037D01*
X88707238Y-128380037D02*
X88659619Y-128237180D01*
X88659619Y-128237180D02*
X88659619Y-128141942D01*
X88659619Y-128141942D02*
X88707238Y-127999085D01*
X88707238Y-127999085D02*
X88754857Y-127951466D01*
X89659619Y-126999085D02*
X89659619Y-127570513D01*
X89659619Y-127284799D02*
X88659619Y-127284799D01*
X88659619Y-127284799D02*
X88802476Y-127380037D01*
X88802476Y-127380037D02*
X88897714Y-127475275D01*
X88897714Y-127475275D02*
X88945333Y-127570513D01*
X140036561Y-60040857D02*
X139941323Y-59993238D01*
X139941323Y-59993238D02*
X139846085Y-59898000D01*
X139846085Y-59898000D02*
X139703228Y-59755142D01*
X139703228Y-59755142D02*
X139607990Y-59707523D01*
X139607990Y-59707523D02*
X139512752Y-59707523D01*
X139560371Y-59945619D02*
X139465133Y-59898000D01*
X139465133Y-59898000D02*
X139369895Y-59802761D01*
X139369895Y-59802761D02*
X139322276Y-59612285D01*
X139322276Y-59612285D02*
X139322276Y-59278952D01*
X139322276Y-59278952D02*
X139369895Y-59088476D01*
X139369895Y-59088476D02*
X139465133Y-58993238D01*
X139465133Y-58993238D02*
X139560371Y-58945619D01*
X139560371Y-58945619D02*
X139750847Y-58945619D01*
X139750847Y-58945619D02*
X139846085Y-58993238D01*
X139846085Y-58993238D02*
X139941323Y-59088476D01*
X139941323Y-59088476D02*
X139988942Y-59278952D01*
X139988942Y-59278952D02*
X139988942Y-59612285D01*
X139988942Y-59612285D02*
X139941323Y-59802761D01*
X139941323Y-59802761D02*
X139846085Y-59898000D01*
X139846085Y-59898000D02*
X139750847Y-59945619D01*
X139750847Y-59945619D02*
X139560371Y-59945619D01*
X140941323Y-59945619D02*
X140369895Y-59945619D01*
X140655609Y-59945619D02*
X140655609Y-58945619D01*
X140655609Y-58945619D02*
X140560371Y-59088476D01*
X140560371Y-59088476D02*
X140465133Y-59183714D01*
X140465133Y-59183714D02*
X140369895Y-59231333D01*
X138041142Y-65313019D02*
X137707809Y-64836828D01*
X137469714Y-65313019D02*
X137469714Y-64313019D01*
X137469714Y-64313019D02*
X137850666Y-64313019D01*
X137850666Y-64313019D02*
X137945904Y-64360638D01*
X137945904Y-64360638D02*
X137993523Y-64408257D01*
X137993523Y-64408257D02*
X138041142Y-64503495D01*
X138041142Y-64503495D02*
X138041142Y-64646352D01*
X138041142Y-64646352D02*
X137993523Y-64741590D01*
X137993523Y-64741590D02*
X137945904Y-64789209D01*
X137945904Y-64789209D02*
X137850666Y-64836828D01*
X137850666Y-64836828D02*
X137469714Y-64836828D01*
X138993523Y-65313019D02*
X138422095Y-65313019D01*
X138707809Y-65313019D02*
X138707809Y-64313019D01*
X138707809Y-64313019D02*
X138612571Y-64455876D01*
X138612571Y-64455876D02*
X138517333Y-64551114D01*
X138517333Y-64551114D02*
X138422095Y-64598733D01*
X139945904Y-65313019D02*
X139374476Y-65313019D01*
X139660190Y-65313019D02*
X139660190Y-64313019D01*
X139660190Y-64313019D02*
X139564952Y-64455876D01*
X139564952Y-64455876D02*
X139469714Y-64551114D01*
X139469714Y-64551114D02*
X139374476Y-64598733D01*
X141094619Y-148184466D02*
X140618428Y-148517799D01*
X141094619Y-148755894D02*
X140094619Y-148755894D01*
X140094619Y-148755894D02*
X140094619Y-148374942D01*
X140094619Y-148374942D02*
X140142238Y-148279704D01*
X140142238Y-148279704D02*
X140189857Y-148232085D01*
X140189857Y-148232085D02*
X140285095Y-148184466D01*
X140285095Y-148184466D02*
X140427952Y-148184466D01*
X140427952Y-148184466D02*
X140523190Y-148232085D01*
X140523190Y-148232085D02*
X140570809Y-148279704D01*
X140570809Y-148279704D02*
X140618428Y-148374942D01*
X140618428Y-148374942D02*
X140618428Y-148755894D01*
X140427952Y-147327323D02*
X141094619Y-147327323D01*
X140047000Y-147565418D02*
X140761285Y-147803513D01*
X140761285Y-147803513D02*
X140761285Y-147184466D01*
X91076266Y-86436419D02*
X91076266Y-87150704D01*
X91076266Y-87150704D02*
X91028647Y-87293561D01*
X91028647Y-87293561D02*
X90933409Y-87388800D01*
X90933409Y-87388800D02*
X90790552Y-87436419D01*
X90790552Y-87436419D02*
X90695314Y-87436419D01*
X92076266Y-87436419D02*
X91504838Y-87436419D01*
X91790552Y-87436419D02*
X91790552Y-86436419D01*
X91790552Y-86436419D02*
X91695314Y-86579276D01*
X91695314Y-86579276D02*
X91600076Y-86674514D01*
X91600076Y-86674514D02*
X91504838Y-86722133D01*
D13*
X126626806Y-166462466D02*
X126671568Y-166507228D01*
X126671568Y-166507228D02*
X126716329Y-166641514D01*
X126716329Y-166641514D02*
X126716329Y-166731038D01*
X126716329Y-166731038D02*
X126671568Y-166865323D01*
X126671568Y-166865323D02*
X126582044Y-166954847D01*
X126582044Y-166954847D02*
X126492520Y-166999609D01*
X126492520Y-166999609D02*
X126313472Y-167044371D01*
X126313472Y-167044371D02*
X126179187Y-167044371D01*
X126179187Y-167044371D02*
X126000139Y-166999609D01*
X126000139Y-166999609D02*
X125910615Y-166954847D01*
X125910615Y-166954847D02*
X125821091Y-166865323D01*
X125821091Y-166865323D02*
X125776329Y-166731038D01*
X125776329Y-166731038D02*
X125776329Y-166641514D01*
X125776329Y-166641514D02*
X125821091Y-166507228D01*
X125821091Y-166507228D02*
X125865853Y-166462466D01*
X125776329Y-166149133D02*
X125776329Y-165567228D01*
X125776329Y-165567228D02*
X126134425Y-165880561D01*
X126134425Y-165880561D02*
X126134425Y-165746276D01*
X126134425Y-165746276D02*
X126179187Y-165656752D01*
X126179187Y-165656752D02*
X126223948Y-165611990D01*
X126223948Y-165611990D02*
X126313472Y-165567228D01*
X126313472Y-165567228D02*
X126537282Y-165567228D01*
X126537282Y-165567228D02*
X126626806Y-165611990D01*
X126626806Y-165611990D02*
X126671568Y-165656752D01*
X126671568Y-165656752D02*
X126716329Y-165746276D01*
X126716329Y-165746276D02*
X126716329Y-166014847D01*
X126716329Y-166014847D02*
X126671568Y-166104371D01*
X126671568Y-166104371D02*
X126626806Y-166149133D01*
D10*
X144488819Y-125167704D02*
X145298342Y-125167704D01*
X145298342Y-125167704D02*
X145393580Y-125120085D01*
X145393580Y-125120085D02*
X145441200Y-125072466D01*
X145441200Y-125072466D02*
X145488819Y-124977228D01*
X145488819Y-124977228D02*
X145488819Y-124786752D01*
X145488819Y-124786752D02*
X145441200Y-124691514D01*
X145441200Y-124691514D02*
X145393580Y-124643895D01*
X145393580Y-124643895D02*
X145298342Y-124596276D01*
X145298342Y-124596276D02*
X144488819Y-124596276D01*
X144584057Y-124167704D02*
X144536438Y-124120085D01*
X144536438Y-124120085D02*
X144488819Y-124024847D01*
X144488819Y-124024847D02*
X144488819Y-123786752D01*
X144488819Y-123786752D02*
X144536438Y-123691514D01*
X144536438Y-123691514D02*
X144584057Y-123643895D01*
X144584057Y-123643895D02*
X144679295Y-123596276D01*
X144679295Y-123596276D02*
X144774533Y-123596276D01*
X144774533Y-123596276D02*
X144917390Y-123643895D01*
X144917390Y-123643895D02*
X145488819Y-124215323D01*
X145488819Y-124215323D02*
X145488819Y-123596276D01*
X116679742Y-83124780D02*
X116632123Y-83172400D01*
X116632123Y-83172400D02*
X116489266Y-83220019D01*
X116489266Y-83220019D02*
X116394028Y-83220019D01*
X116394028Y-83220019D02*
X116251171Y-83172400D01*
X116251171Y-83172400D02*
X116155933Y-83077161D01*
X116155933Y-83077161D02*
X116108314Y-82981923D01*
X116108314Y-82981923D02*
X116060695Y-82791447D01*
X116060695Y-82791447D02*
X116060695Y-82648590D01*
X116060695Y-82648590D02*
X116108314Y-82458114D01*
X116108314Y-82458114D02*
X116155933Y-82362876D01*
X116155933Y-82362876D02*
X116251171Y-82267638D01*
X116251171Y-82267638D02*
X116394028Y-82220019D01*
X116394028Y-82220019D02*
X116489266Y-82220019D01*
X116489266Y-82220019D02*
X116632123Y-82267638D01*
X116632123Y-82267638D02*
X116679742Y-82315257D01*
X117632123Y-83220019D02*
X117060695Y-83220019D01*
X117346409Y-83220019D02*
X117346409Y-82220019D01*
X117346409Y-82220019D02*
X117251171Y-82362876D01*
X117251171Y-82362876D02*
X117155933Y-82458114D01*
X117155933Y-82458114D02*
X117060695Y-82505733D01*
X117965457Y-82220019D02*
X118584504Y-82220019D01*
X118584504Y-82220019D02*
X118251171Y-82600971D01*
X118251171Y-82600971D02*
X118394028Y-82600971D01*
X118394028Y-82600971D02*
X118489266Y-82648590D01*
X118489266Y-82648590D02*
X118536885Y-82696209D01*
X118536885Y-82696209D02*
X118584504Y-82791447D01*
X118584504Y-82791447D02*
X118584504Y-83029542D01*
X118584504Y-83029542D02*
X118536885Y-83124780D01*
X118536885Y-83124780D02*
X118489266Y-83172400D01*
X118489266Y-83172400D02*
X118394028Y-83220019D01*
X118394028Y-83220019D02*
X118108314Y-83220019D01*
X118108314Y-83220019D02*
X118013076Y-83172400D01*
X118013076Y-83172400D02*
X117965457Y-83124780D01*
X139046482Y-160061380D02*
X138998863Y-160109000D01*
X138998863Y-160109000D02*
X138856006Y-160156619D01*
X138856006Y-160156619D02*
X138760768Y-160156619D01*
X138760768Y-160156619D02*
X138617911Y-160109000D01*
X138617911Y-160109000D02*
X138522673Y-160013761D01*
X138522673Y-160013761D02*
X138475054Y-159918523D01*
X138475054Y-159918523D02*
X138427435Y-159728047D01*
X138427435Y-159728047D02*
X138427435Y-159585190D01*
X138427435Y-159585190D02*
X138475054Y-159394714D01*
X138475054Y-159394714D02*
X138522673Y-159299476D01*
X138522673Y-159299476D02*
X138617911Y-159204238D01*
X138617911Y-159204238D02*
X138760768Y-159156619D01*
X138760768Y-159156619D02*
X138856006Y-159156619D01*
X138856006Y-159156619D02*
X138998863Y-159204238D01*
X138998863Y-159204238D02*
X139046482Y-159251857D01*
X139427435Y-159251857D02*
X139475054Y-159204238D01*
X139475054Y-159204238D02*
X139570292Y-159156619D01*
X139570292Y-159156619D02*
X139808387Y-159156619D01*
X139808387Y-159156619D02*
X139903625Y-159204238D01*
X139903625Y-159204238D02*
X139951244Y-159251857D01*
X139951244Y-159251857D02*
X139998863Y-159347095D01*
X139998863Y-159347095D02*
X139998863Y-159442333D01*
X139998863Y-159442333D02*
X139951244Y-159585190D01*
X139951244Y-159585190D02*
X139379816Y-160156619D01*
X139379816Y-160156619D02*
X139998863Y-160156619D01*
D14*
%TO.C,Y1*%
X138469000Y-73039000D02*
X138469000Y-79439000D01*
X133819000Y-73039000D02*
X133819000Y-79439000D01*
X138144000Y-73239000D02*
X138144000Y-79239000D01*
X134144000Y-73239000D02*
X134144000Y-79239000D01*
X138469000Y-73039000D02*
G75*
G03*
X133819000Y-73039000I-2325000J0D01*
G01*
X138144000Y-73239000D02*
G75*
G03*
X134144000Y-73239000I-2000000J0D01*
G01*
X134144000Y-79239000D02*
G75*
G03*
X138144000Y-79239000I2000000J0D01*
G01*
X133819000Y-79439000D02*
G75*
G03*
X138469000Y-79439000I2325000J0D01*
G01*
%TO.C,R6*%
X137337800Y-151827800D02*
X137337800Y-151167800D01*
X136087800Y-151167800D02*
X138587800Y-151167800D01*
X138587800Y-151167800D02*
X138587800Y-144867800D01*
X136087800Y-144867800D02*
X136087800Y-151167800D01*
X138587800Y-144867800D02*
X136087800Y-144867800D01*
X137337800Y-144207800D02*
X137337800Y-144867800D01*
%TO.C,C4*%
X139425300Y-170553518D02*
X139425300Y-170053518D01*
X139175300Y-170303518D02*
X139675300Y-170303518D01*
X143012800Y-168419913D02*
G75*
G03*
X138012800Y-168419913I-2500000J0D01*
G01*
X138012800Y-168419913D02*
G75*
G03*
X143012800Y-168419913I2500000J0D01*
G01*
%TO.C,U6*%
X131892800Y-64706800D02*
X132892800Y-65706800D01*
X82092800Y-64706800D02*
X131892800Y-64706800D01*
X132892800Y-65706800D02*
X132892800Y-79436800D01*
X132892800Y-79436800D02*
X82092800Y-79436800D01*
X82092800Y-79436800D02*
X82092800Y-64706800D01*
%TO.C,J3*%
X81026000Y-52157200D02*
X81026000Y-46357200D01*
X81026000Y-49737200D02*
X80318893Y-49237200D01*
X81026000Y-46357200D02*
X75946000Y-46357200D01*
X80318893Y-49237200D02*
X81026000Y-48737200D01*
X75946000Y-52157200D02*
X81026000Y-52157200D01*
X75946000Y-46357200D02*
X75946000Y-52157200D01*
%TO.C,J5*%
X81121800Y-57386600D02*
X68781800Y-57386600D01*
X68781800Y-57386600D02*
X68381800Y-57386600D01*
X68781800Y-57386600D02*
X68781800Y-88236600D01*
X68381800Y-57386600D02*
X68381800Y-88236600D01*
X68381800Y-57811600D02*
X63381800Y-57811600D01*
X63381800Y-57811600D02*
X63381800Y-62811600D01*
X68781800Y-58711600D02*
X77901800Y-58711600D01*
X68781800Y-61911600D02*
X77901800Y-61911600D01*
X68381800Y-62811600D02*
X68381800Y-57811600D01*
X63381800Y-62811600D02*
X68381800Y-62811600D01*
X68381800Y-64661600D02*
X62381800Y-64661600D01*
X62381800Y-64661600D02*
X62381800Y-80961600D01*
X68381800Y-80961600D02*
X68381800Y-64661600D01*
X62381800Y-80961600D02*
X68381800Y-80961600D01*
X68381800Y-82811600D02*
X63381800Y-82811600D01*
X63381800Y-82811600D02*
X63381800Y-87811600D01*
X68781800Y-83711600D02*
X77901800Y-83711600D01*
X68781800Y-86911600D02*
X77901800Y-86911600D01*
X68381800Y-87811600D02*
X68381800Y-82811600D01*
X63381800Y-87811600D02*
X68381800Y-87811600D01*
X81121800Y-88236600D02*
X81121800Y-57386600D01*
X68781800Y-88236600D02*
X68781800Y-57386600D01*
X68781800Y-88236600D02*
X81121800Y-88236600D01*
X68381800Y-88236600D02*
X68781800Y-88236600D01*
X77901800Y-61911600D02*
G75*
G03*
X77901800Y-58711600I0J1600000D01*
G01*
X77901800Y-86911600D02*
G75*
G03*
X77901800Y-83711600I0J1600000D01*
G01*
%TO.C,R19*%
X70078600Y-89928000D02*
X70078600Y-91858000D01*
X71328600Y-91858000D02*
X68828600Y-91858000D01*
X68828600Y-91858000D02*
X68828600Y-98158000D01*
X71328600Y-98158000D02*
X71328600Y-91858000D01*
X68828600Y-98158000D02*
X71328600Y-98158000D01*
X70078600Y-100088000D02*
X70078600Y-98158000D01*
%TO.C,R14*%
X85852000Y-127342200D02*
X85852000Y-125412200D01*
X84602000Y-125412200D02*
X87102000Y-125412200D01*
X87102000Y-125412200D02*
X87102000Y-119112200D01*
X84602000Y-119112200D02*
X84602000Y-125412200D01*
X87102000Y-119112200D02*
X84602000Y-119112200D01*
X85852000Y-117182200D02*
X85852000Y-119112200D01*
%TO.C,R22*%
X85140800Y-147255800D02*
X83210800Y-147255800D01*
X83210800Y-148505800D02*
X83210800Y-146005800D01*
X83210800Y-146005800D02*
X76910800Y-146005800D01*
X76910800Y-148505800D02*
X83210800Y-148505800D01*
X76910800Y-146005800D02*
X76910800Y-148505800D01*
X74980800Y-147255800D02*
X76910800Y-147255800D01*
%TO.C,RN1*%
X69880800Y-111258600D02*
X69880800Y-113758600D01*
X69880800Y-113758600D02*
X87700800Y-113758600D01*
X72440800Y-111258600D02*
X72440800Y-113758600D01*
X87700800Y-111258600D02*
X69880800Y-111258600D01*
X87700800Y-113758600D02*
X87700800Y-111258600D01*
%TO.C,R21*%
X75361800Y-142810800D02*
X75361800Y-140880800D01*
X74111800Y-140880800D02*
X76611800Y-140880800D01*
X76611800Y-140880800D02*
X76611800Y-134580800D01*
X74111800Y-134580800D02*
X74111800Y-140880800D01*
X76611800Y-134580800D02*
X74111800Y-134580800D01*
X75361800Y-132650800D02*
X75361800Y-134580800D01*
%TO.C,U1*%
X135930800Y-176725800D02*
X134930800Y-177725800D01*
X135930800Y-167565800D02*
X135930800Y-176725800D01*
X134930800Y-177725800D02*
X129580800Y-177725800D01*
X129580800Y-177725800D02*
X129580800Y-167565800D01*
X129580800Y-167565800D02*
X135930800Y-167565800D01*
%TO.C,U4*%
X89529000Y-185791600D02*
X88529000Y-184791600D01*
X124089000Y-185791600D02*
X89529000Y-185791600D01*
X88529000Y-184791600D02*
X88529000Y-171061600D01*
X88529000Y-171061600D02*
X124089000Y-171061600D01*
X124089000Y-171061600D02*
X124089000Y-185791600D01*
%TO.C,U7*%
X110804200Y-58101800D02*
X109804200Y-57101800D01*
X132664200Y-58101800D02*
X110804200Y-58101800D01*
X109804200Y-57101800D02*
X109804200Y-51751800D01*
X109804200Y-51751800D02*
X132664200Y-51751800D01*
X132664200Y-51751800D02*
X132664200Y-58101800D01*
%TO.C,C5*%
X130042083Y-162805300D02*
X130542083Y-162805300D01*
X130292083Y-162555300D02*
X130292083Y-163055300D01*
X134675688Y-163892800D02*
G75*
G03*
X129675688Y-163892800I-2500000J0D01*
G01*
X129675688Y-163892800D02*
G75*
G03*
X134675688Y-163892800I2500000J0D01*
G01*
D15*
%TO.C,J8*%
X137646400Y-44283802D02*
X137646400Y-56272602D01*
X137646400Y-56272602D02*
X149635200Y-56272602D01*
X140643600Y-42277202D02*
X140643600Y-44283802D01*
X140643600Y-44283802D02*
X146638000Y-44283802D01*
X146638000Y-42277202D02*
X140643600Y-42277202D01*
X146638000Y-44283802D02*
X146638000Y-42277202D01*
X149635200Y-44283802D02*
X137646400Y-44283802D01*
X149635200Y-56272602D02*
X149635200Y-44283802D01*
D14*
%TO.C,J11*%
X82473800Y-141412800D02*
X82473800Y-135612800D01*
X82473800Y-138992800D02*
X81766693Y-138492800D01*
X82473800Y-135612800D02*
X77393800Y-135612800D01*
X81766693Y-138492800D02*
X82473800Y-137992800D01*
X77393800Y-141412800D02*
X82473800Y-141412800D01*
X77393800Y-135612800D02*
X77393800Y-141412800D01*
%TO.C,C10*%
X87995000Y-172483400D02*
X87995000Y-169983400D01*
X87995000Y-169983400D02*
X80995000Y-169983400D01*
X80995000Y-172483400D02*
X87995000Y-172483400D01*
X80995000Y-169983400D02*
X80995000Y-172483400D01*
%TO.C,C20*%
X71379400Y-101581000D02*
X68879400Y-101581000D01*
X68879400Y-101581000D02*
X68879400Y-108581000D01*
X71379400Y-108581000D02*
X71379400Y-101581000D01*
X68879400Y-108581000D02*
X71379400Y-108581000D01*
D16*
%TO.C,RV1*%
X159698800Y-154514800D02*
X159698800Y-154514800D01*
X145698800Y-154514800D02*
X145698800Y-154514800D01*
X145698800Y-154514800D02*
G75*
G03*
X159698800Y-154514800I7000000J0D01*
G01*
X159698800Y-154514800D02*
G75*
G03*
X145698800Y-154514800I-7000000J0D01*
G01*
D15*
%TO.C,J9*%
X157331801Y-162871400D02*
X145343001Y-162871400D01*
X145343001Y-162871400D02*
X145343001Y-174860200D01*
X159338401Y-165868600D02*
X157331801Y-165868600D01*
X157331801Y-165868600D02*
X157331801Y-171863000D01*
X159338401Y-171863000D02*
X159338401Y-165868600D01*
X157331801Y-171863000D02*
X159338401Y-171863000D01*
X157331801Y-174860200D02*
X157331801Y-162871400D01*
X145343001Y-174860200D02*
X157331801Y-174860200D01*
D14*
%TO.C,R10*%
X128320800Y-46341600D02*
X128980800Y-46341600D01*
X128980800Y-45091600D02*
X128980800Y-47591600D01*
X128980800Y-47591600D02*
X135280800Y-47591600D01*
X135280800Y-45091600D02*
X128980800Y-45091600D01*
X135280800Y-47591600D02*
X135280800Y-45091600D01*
X135940800Y-46341600D02*
X135280800Y-46341600D01*
%TO.C,R16*%
X79756000Y-127291400D02*
X79756000Y-125361400D01*
X78506000Y-125361400D02*
X81006000Y-125361400D01*
X81006000Y-125361400D02*
X81006000Y-119061400D01*
X78506000Y-119061400D02*
X78506000Y-125361400D01*
X81006000Y-119061400D02*
X78506000Y-119061400D01*
X79756000Y-117131400D02*
X79756000Y-119061400D01*
%TO.C,J6*%
X74604800Y-127489600D02*
X73334800Y-128759600D01*
X74604800Y-116059600D02*
X74604800Y-127489600D01*
X73334800Y-128759600D02*
X69524800Y-128759600D01*
X69524800Y-128759600D02*
X69524800Y-116059600D01*
X69524800Y-116059600D02*
X74604800Y-116059600D01*
%TO.C,R12*%
X142494000Y-68414200D02*
X141834000Y-68414200D01*
X141834000Y-69664200D02*
X141834000Y-67164200D01*
X141834000Y-67164200D02*
X135534000Y-67164200D01*
X135534000Y-69664200D02*
X141834000Y-69664200D01*
X135534000Y-67164200D02*
X135534000Y-69664200D01*
X134874000Y-68414200D02*
X135534000Y-68414200D01*
%TO.C,C8*%
X154934800Y-132249800D02*
X154934800Y-129749800D01*
X154934800Y-129749800D02*
X147934800Y-129749800D01*
X147934800Y-132249800D02*
X154934800Y-132249800D01*
X147934800Y-129749800D02*
X147934800Y-132249800D01*
%TO.C,C7*%
X127411800Y-170425800D02*
X124911800Y-170425800D01*
X124911800Y-170425800D02*
X124911800Y-177425800D01*
X127411800Y-177425800D02*
X127411800Y-170425800D01*
X124911800Y-177425800D02*
X127411800Y-177425800D01*
%TO.C,R17*%
X76708000Y-127291400D02*
X76708000Y-125361400D01*
X75458000Y-125361400D02*
X77958000Y-125361400D01*
X77958000Y-125361400D02*
X77958000Y-119061400D01*
X75458000Y-119061400D02*
X75458000Y-125361400D01*
X77958000Y-119061400D02*
X75458000Y-119061400D01*
X76708000Y-117131400D02*
X76708000Y-119061400D01*
%TO.C,J7*%
X144432600Y-88095800D02*
X156772600Y-88095800D01*
X156772600Y-88095800D02*
X157172600Y-88095800D01*
X156772600Y-88095800D02*
X156772600Y-57245800D01*
X157172600Y-88095800D02*
X157172600Y-57245800D01*
X157172600Y-87670800D02*
X162172600Y-87670800D01*
X162172600Y-87670800D02*
X162172600Y-82670800D01*
X156772600Y-86770800D02*
X147652600Y-86770800D01*
X156772600Y-83570800D02*
X147652600Y-83570800D01*
X157172600Y-82670800D02*
X157172600Y-87670800D01*
X162172600Y-82670800D02*
X157172600Y-82670800D01*
X157172600Y-80820800D02*
X163172600Y-80820800D01*
X163172600Y-80820800D02*
X163172600Y-64520800D01*
X157172600Y-64520800D02*
X157172600Y-80820800D01*
X163172600Y-64520800D02*
X157172600Y-64520800D01*
X157172600Y-62670800D02*
X162172600Y-62670800D01*
X162172600Y-62670800D02*
X162172600Y-57670800D01*
X156772600Y-61770800D02*
X147652600Y-61770800D01*
X156772600Y-58570800D02*
X147652600Y-58570800D01*
X157172600Y-57670800D02*
X157172600Y-62670800D01*
X162172600Y-57670800D02*
X157172600Y-57670800D01*
X144432600Y-57245800D02*
X144432600Y-88095800D01*
X156772600Y-57245800D02*
X156772600Y-88095800D01*
X156772600Y-57245800D02*
X144432600Y-57245800D01*
X157172600Y-57245800D02*
X156772600Y-57245800D01*
X147652600Y-83570800D02*
G75*
G03*
X147652600Y-86770800I0J-1600000D01*
G01*
X147652600Y-58570800D02*
G75*
G03*
X147652600Y-61770800I0J-1600000D01*
G01*
%TO.C,U9*%
X95462200Y-112530900D02*
X95462200Y-147550900D01*
X95462200Y-147550900D02*
X131512200Y-147550900D01*
X96462200Y-111530900D02*
X95462200Y-112530900D01*
X98002200Y-114070900D02*
X98002200Y-145010900D01*
X98002200Y-145010900D02*
X128972200Y-145010900D01*
X112987200Y-111530900D02*
X113487200Y-112530900D01*
X113487200Y-112530900D02*
X113987200Y-111530900D01*
X128972200Y-114070900D02*
X98002200Y-114070900D01*
X128972200Y-145010900D02*
X128972200Y-114070900D01*
X131512200Y-111530900D02*
X96462200Y-111530900D01*
X131512200Y-147550900D02*
X131512200Y-111530900D01*
%TO.C,U11*%
X154143200Y-134251000D02*
X155143200Y-135251000D01*
X134823200Y-134251000D02*
X154143200Y-134251000D01*
X155143200Y-135251000D02*
X155143200Y-140601000D01*
X155143200Y-140601000D02*
X134823200Y-140601000D01*
X134823200Y-140601000D02*
X134823200Y-134251000D01*
%TO.C,C16*%
X140881000Y-78496600D02*
X139281000Y-78496600D01*
X139281000Y-78496600D02*
X139281000Y-81496600D01*
X140881000Y-81496600D02*
X140881000Y-78496600D01*
X139281000Y-81496600D02*
X140881000Y-81496600D01*
%TO.C,C18*%
X94214000Y-133632000D02*
X91714000Y-133632000D01*
X91714000Y-133632000D02*
X91714000Y-140632000D01*
X94214000Y-140632000D02*
X94214000Y-133632000D01*
X91714000Y-140632000D02*
X94214000Y-140632000D01*
%TO.C,D1*%
X70131610Y-148633800D02*
X72463990Y-148633800D01*
X72463275Y-148634354D02*
G75*
G03*
X70131610Y-148633799I-1165475J1500554D01*
G01*
X72797800Y-147133800D02*
G75*
G03*
X69797800Y-147133800I-1500000J0D01*
G01*
X69797800Y-147133800D02*
G75*
G03*
X72797800Y-147133800I1500000J0D01*
G01*
%TO.C,C15*%
X140931800Y-71003600D02*
X139331800Y-71003600D01*
X139331800Y-71003600D02*
X139331800Y-74003600D01*
X140931800Y-74003600D02*
X140931800Y-71003600D01*
X139331800Y-74003600D02*
X140931800Y-74003600D01*
%TO.C,RN2*%
X156077600Y-113758600D02*
X156077600Y-111258600D01*
X156077600Y-111258600D02*
X138257600Y-111258600D01*
X153517600Y-113758600D02*
X153517600Y-111258600D01*
X138257600Y-113758600D02*
X156077600Y-113758600D01*
X138257600Y-111258600D02*
X138257600Y-113758600D01*
%TO.C,C14*%
X133522400Y-58299800D02*
X136022400Y-58299800D01*
X136022400Y-58299800D02*
X136022400Y-51299800D01*
X133522400Y-51299800D02*
X133522400Y-58299800D01*
X136022400Y-51299800D02*
X133522400Y-51299800D01*
%TO.C,SW1*%
X75247000Y-158636400D02*
X68697000Y-158636400D01*
X72697000Y-157986400D02*
X75247000Y-157986400D01*
X75247000Y-157986400D02*
X75247000Y-158636400D01*
X65397000Y-156536400D02*
X65397000Y-153236400D01*
X68697000Y-156536400D02*
X65397000Y-156536400D01*
X68697000Y-153236400D02*
X65397000Y-153236400D01*
X72697000Y-151786400D02*
X72697000Y-157986400D01*
X72697000Y-151786400D02*
X75247000Y-151786400D01*
X68697000Y-151136400D02*
X68697000Y-158636400D01*
X68697000Y-151136400D02*
X75247000Y-151136400D01*
X75247000Y-151136400D02*
X75247000Y-151786400D01*
%TO.C,J2*%
X150672800Y-181671800D02*
X150672800Y-175871800D01*
X150672800Y-179251800D02*
X149965693Y-178751800D01*
X150672800Y-175871800D02*
X145592800Y-175871800D01*
X149965693Y-178751800D02*
X150672800Y-178251800D01*
X145592800Y-181671800D02*
X150672800Y-181671800D01*
X145592800Y-175871800D02*
X145592800Y-181671800D01*
%TO.C,R5*%
X133654800Y-151827800D02*
X133654800Y-151167800D01*
X132404800Y-151167800D02*
X134904800Y-151167800D01*
X134904800Y-151167800D02*
X134904800Y-144867800D01*
X132404800Y-144867800D02*
X132404800Y-151167800D01*
X134904800Y-144867800D02*
X132404800Y-144867800D01*
X133654800Y-144207800D02*
X133654800Y-144867800D01*
%TO.C,U5*%
X80791400Y-165827200D02*
X79791400Y-164827200D01*
X115351400Y-165827200D02*
X80791400Y-165827200D01*
X79791400Y-164827200D02*
X79791400Y-151097200D01*
X79791400Y-151097200D02*
X115351400Y-151097200D01*
X115351400Y-151097200D02*
X115351400Y-165827200D01*
%TO.C,R3*%
X126288800Y-153859800D02*
X126288800Y-154519800D01*
X127538800Y-154519800D02*
X125038800Y-154519800D01*
X125038800Y-154519800D02*
X125038800Y-160819800D01*
X127538800Y-160819800D02*
X127538800Y-154519800D01*
X125038800Y-160819800D02*
X127538800Y-160819800D01*
X126288800Y-161479800D02*
X126288800Y-160819800D01*
%TO.C,C19*%
X94649800Y-117517800D02*
X94649800Y-115017800D01*
X94649800Y-115017800D02*
X87649800Y-115017800D01*
X87649800Y-117517800D02*
X94649800Y-117517800D01*
X87649800Y-115017800D02*
X87649800Y-117517800D01*
%TO.C,R18*%
X155270200Y-89801000D02*
X155270200Y-91731000D01*
X156520200Y-91731000D02*
X154020200Y-91731000D01*
X154020200Y-91731000D02*
X154020200Y-98031000D01*
X156520200Y-98031000D02*
X156520200Y-91731000D01*
X154020200Y-98031000D02*
X156520200Y-98031000D01*
X155270200Y-99961000D02*
X155270200Y-98031000D01*
%TO.C,R1*%
X78409800Y-133158800D02*
X80339800Y-133158800D01*
X80339800Y-131908800D02*
X80339800Y-134408800D01*
X80339800Y-134408800D02*
X86639800Y-134408800D01*
X86639800Y-131908800D02*
X80339800Y-131908800D01*
X86639800Y-134408800D02*
X86639800Y-131908800D01*
X88569800Y-133158800D02*
X86639800Y-133158800D01*
%TO.C,C6*%
X140151800Y-177672800D02*
X142651800Y-177672800D01*
X142651800Y-177672800D02*
X142651800Y-172972800D01*
X140151800Y-172972800D02*
X140151800Y-177672800D01*
X142651800Y-172972800D02*
X140151800Y-172972800D01*
%TO.C,R2*%
X76271200Y-130029600D02*
X78201200Y-130029600D01*
X78201200Y-128779600D02*
X78201200Y-131279600D01*
X78201200Y-131279600D02*
X84501200Y-131279600D01*
X84501200Y-128779600D02*
X78201200Y-128779600D01*
X84501200Y-131279600D02*
X84501200Y-128779600D01*
X86431200Y-130029600D02*
X84501200Y-130029600D01*
%TO.C,SW3*%
X73211800Y-133913400D02*
X68811800Y-133913400D01*
X73211800Y-133913400D02*
X73211800Y-142513400D01*
X68811800Y-133913400D02*
X68811800Y-142513400D01*
X64811800Y-136213400D02*
X68811800Y-136213400D01*
X68811800Y-138213400D02*
X64811800Y-138213400D01*
X64811800Y-138213400D02*
X64811800Y-136213400D01*
X68811800Y-142513400D02*
X73211800Y-142513400D01*
%TO.C,C12*%
X107980800Y-55338400D02*
X105480800Y-55338400D01*
X105480800Y-55338400D02*
X105480800Y-62338400D01*
X107980800Y-62338400D02*
X107980800Y-55338400D01*
X105480800Y-62338400D02*
X107980800Y-62338400D01*
%TO.C,R15*%
X82778600Y-127316800D02*
X82778600Y-125386800D01*
X81528600Y-125386800D02*
X84028600Y-125386800D01*
X84028600Y-125386800D02*
X84028600Y-119086800D01*
X81528600Y-119086800D02*
X81528600Y-125386800D01*
X84028600Y-119086800D02*
X81528600Y-119086800D01*
X82778600Y-117156800D02*
X82778600Y-119086800D01*
%TO.C,C11*%
X79151800Y-149978800D02*
X76651800Y-149978800D01*
X76651800Y-149978800D02*
X76651800Y-156978800D01*
X79151800Y-156978800D02*
X79151800Y-149978800D01*
X76651800Y-156978800D02*
X79151800Y-156978800D01*
%TO.C,J10*%
X88696800Y-141392800D02*
X88696800Y-135592800D01*
X88696800Y-138972800D02*
X87989693Y-138472800D01*
X88696800Y-135592800D02*
X83616800Y-135592800D01*
X87989693Y-138472800D02*
X88696800Y-137972800D01*
X83616800Y-141392800D02*
X88696800Y-141392800D01*
X83616800Y-135592800D02*
X83616800Y-141392800D01*
%TO.C,C21*%
X156494800Y-101490200D02*
X153994800Y-101490200D01*
X153994800Y-101490200D02*
X153994800Y-108490200D01*
X156494800Y-108490200D02*
X156494800Y-101490200D01*
X153994800Y-108490200D02*
X156494800Y-108490200D01*
D16*
%TO.C,J4*%
X82638400Y-96491800D02*
X82638400Y-105841800D01*
X82638400Y-105841800D02*
X141948400Y-105841800D01*
X141948400Y-96491800D02*
X82638400Y-96491800D01*
X141948400Y-105841800D02*
X141948400Y-96491800D01*
D14*
%TO.C,C23*%
X147314800Y-132249800D02*
X147314800Y-129749800D01*
X147314800Y-129749800D02*
X140314800Y-129749800D01*
X140314800Y-132249800D02*
X147314800Y-132249800D01*
X140314800Y-129749800D02*
X140314800Y-132249800D01*
D16*
%TO.C,SW2*%
X70865500Y-180369600D02*
X83565500Y-180369600D01*
X70865500Y-186719600D02*
X70865500Y-180369600D01*
X76715500Y-186719600D02*
X76715500Y-191439600D01*
X76715500Y-191439600D02*
X80575500Y-191439600D01*
X80575500Y-191439600D02*
X80575500Y-186719600D01*
X83565500Y-180369600D02*
X83565500Y-186719600D01*
X83565500Y-186719600D02*
X70865500Y-186719600D01*
D14*
%TO.C,U8*%
X83092800Y-58101800D02*
X82092800Y-57101800D01*
X104952800Y-58101800D02*
X83092800Y-58101800D01*
X82092800Y-57101800D02*
X82092800Y-51751800D01*
X82092800Y-51751800D02*
X104952800Y-51751800D01*
X104952800Y-51751800D02*
X104952800Y-58101800D01*
%TO.C,C1*%
X87954800Y-131284800D02*
X90454800Y-131284800D01*
X90454800Y-131284800D02*
X90454800Y-124284800D01*
X87954800Y-124284800D02*
X87954800Y-131284800D01*
X90454800Y-124284800D02*
X87954800Y-124284800D01*
%TO.C,Q1*%
X141871800Y-57740800D02*
X138371800Y-57740800D01*
X140131800Y-61970800D02*
G75*
G03*
X141885425Y-57737175I0J2480000D01*
G01*
X138378175Y-57737175D02*
G75*
G03*
X140131800Y-61970800I1753625J-1753625D01*
G01*
%TO.C,R11*%
X134874000Y-64858200D02*
X135534000Y-64858200D01*
X135534000Y-63608200D02*
X135534000Y-66108200D01*
X135534000Y-66108200D02*
X141834000Y-66108200D01*
X141834000Y-63608200D02*
X135534000Y-63608200D01*
X141834000Y-66108200D02*
X141834000Y-63608200D01*
X142494000Y-64858200D02*
X141834000Y-64858200D01*
%TO.C,R4*%
X140639800Y-144207800D02*
X140639800Y-144867800D01*
X141889800Y-144867800D02*
X139389800Y-144867800D01*
X139389800Y-144867800D02*
X139389800Y-151167800D01*
X141889800Y-151167800D02*
X141889800Y-144867800D01*
X139389800Y-151167800D02*
X141889800Y-151167800D01*
X140639800Y-151827800D02*
X140639800Y-151167800D01*
%TO.C,J1*%
X83154600Y-88251600D02*
X82519600Y-87616600D01*
X100299600Y-88251600D02*
X83154600Y-88251600D01*
X82519600Y-87616600D02*
X82519600Y-85711600D01*
X82519600Y-85711600D02*
X100299600Y-85711600D01*
X100299600Y-85711600D02*
X100299600Y-88251600D01*
%TO.C,C3*%
X127538800Y-163955800D02*
X125038800Y-163955800D01*
X125038800Y-163955800D02*
X125038800Y-168655800D01*
X127538800Y-168655800D02*
X127538800Y-163955800D01*
X125038800Y-168655800D02*
X127538800Y-168655800D01*
%TO.C,U2*%
X154194000Y-121230800D02*
X155194000Y-122230800D01*
X134874000Y-121230800D02*
X154194000Y-121230800D01*
X155194000Y-122230800D02*
X155194000Y-127580800D01*
X155194000Y-127580800D02*
X134874000Y-127580800D01*
X134874000Y-127580800D02*
X134874000Y-121230800D01*
%TO.C,C13*%
X113822600Y-81515200D02*
X113822600Y-84015200D01*
X113822600Y-84015200D02*
X120822600Y-84015200D01*
X120822600Y-81515200D02*
X113822600Y-81515200D01*
X120822600Y-84015200D02*
X120822600Y-81515200D01*
%TO.C,C2*%
X135786390Y-157954300D02*
X136586390Y-157954300D01*
X136186390Y-157554300D02*
X136186390Y-158354300D01*
X143213149Y-159701800D02*
G75*
G03*
X135213149Y-159701800I-4000000J0D01*
G01*
X135213149Y-159701800D02*
G75*
G03*
X143213149Y-159701800I4000000J0D01*
G01*
%TD*%
M02*
