%TF.GenerationSoftware,KiCad,Pcbnew,7.0.9-7.0.9~ubuntu22.04.1*%
%TF.CreationDate,2024-01-06T12:21:39-05:00*%
%TF.ProjectId,coleco_original,636f6c65-636f-45f6-9f72-6967696e616c,DEV*%
%TF.SameCoordinates,Original*%
%TF.FileFunction,Legend,Top*%
%TF.FilePolarity,Positive*%
%FSLAX46Y46*%
G04 Gerber Fmt 4.6, Leading zero omitted, Abs format (unit mm)*
G04 Created by KiCad (PCBNEW 7.0.9-7.0.9~ubuntu22.04.1) date 2024-01-06 12:21:39*
%MOMM*%
%LPD*%
G01*
G04 APERTURE LIST*
%ADD10C,0.150000*%
%ADD11C,0.254000*%
%ADD12C,0.120000*%
%ADD13C,0.100000*%
%ADD14C,0.200000*%
%TA.AperFunction,Profile*%
%ADD15C,0.100000*%
%TD*%
G04 APERTURE END LIST*
D10*
X161169819Y-161657504D02*
X161979342Y-161657504D01*
X161979342Y-161657504D02*
X162074580Y-161609885D01*
X162074580Y-161609885D02*
X162122200Y-161562266D01*
X162122200Y-161562266D02*
X162169819Y-161467028D01*
X162169819Y-161467028D02*
X162169819Y-161276552D01*
X162169819Y-161276552D02*
X162122200Y-161181314D01*
X162122200Y-161181314D02*
X162074580Y-161133695D01*
X162074580Y-161133695D02*
X161979342Y-161086076D01*
X161979342Y-161086076D02*
X161169819Y-161086076D01*
X161503152Y-160181314D02*
X162169819Y-160181314D01*
X161122200Y-160419409D02*
X161836485Y-160657504D01*
X161836485Y-160657504D02*
X161836485Y-160038457D01*
X165989095Y-57144219D02*
X165989095Y-56144219D01*
X165989095Y-56620409D02*
X166560523Y-56620409D01*
X166560523Y-57144219D02*
X166560523Y-56144219D01*
X167512904Y-56144219D02*
X167036714Y-56144219D01*
X167036714Y-56144219D02*
X166989095Y-56620409D01*
X166989095Y-56620409D02*
X167036714Y-56572790D01*
X167036714Y-56572790D02*
X167131952Y-56525171D01*
X167131952Y-56525171D02*
X167370047Y-56525171D01*
X167370047Y-56525171D02*
X167465285Y-56572790D01*
X167465285Y-56572790D02*
X167512904Y-56620409D01*
X167512904Y-56620409D02*
X167560523Y-56715647D01*
X167560523Y-56715647D02*
X167560523Y-56953742D01*
X167560523Y-56953742D02*
X167512904Y-57048980D01*
X167512904Y-57048980D02*
X167465285Y-57096600D01*
X167465285Y-57096600D02*
X167370047Y-57144219D01*
X167370047Y-57144219D02*
X167131952Y-57144219D01*
X167131952Y-57144219D02*
X167036714Y-57096600D01*
X167036714Y-57096600D02*
X166989095Y-57048980D01*
X144212209Y-98689428D02*
X144212209Y-99165619D01*
X143878876Y-98165619D02*
X144212209Y-98689428D01*
X144212209Y-98689428D02*
X144545542Y-98165619D01*
X145402685Y-99165619D02*
X144831257Y-99165619D01*
X145116971Y-99165619D02*
X145116971Y-98165619D01*
X145116971Y-98165619D02*
X145021733Y-98308476D01*
X145021733Y-98308476D02*
X144926495Y-98403714D01*
X144926495Y-98403714D02*
X144831257Y-98451333D01*
X146594533Y-148955219D02*
X146261200Y-148479028D01*
X146023105Y-148955219D02*
X146023105Y-147955219D01*
X146023105Y-147955219D02*
X146404057Y-147955219D01*
X146404057Y-147955219D02*
X146499295Y-148002838D01*
X146499295Y-148002838D02*
X146546914Y-148050457D01*
X146546914Y-148050457D02*
X146594533Y-148145695D01*
X146594533Y-148145695D02*
X146594533Y-148288552D01*
X146594533Y-148288552D02*
X146546914Y-148383790D01*
X146546914Y-148383790D02*
X146499295Y-148431409D01*
X146499295Y-148431409D02*
X146404057Y-148479028D01*
X146404057Y-148479028D02*
X146023105Y-148479028D01*
X147451676Y-147955219D02*
X147261200Y-147955219D01*
X147261200Y-147955219D02*
X147165962Y-148002838D01*
X147165962Y-148002838D02*
X147118343Y-148050457D01*
X147118343Y-148050457D02*
X147023105Y-148193314D01*
X147023105Y-148193314D02*
X146975486Y-148383790D01*
X146975486Y-148383790D02*
X146975486Y-148764742D01*
X146975486Y-148764742D02*
X147023105Y-148859980D01*
X147023105Y-148859980D02*
X147070724Y-148907600D01*
X147070724Y-148907600D02*
X147165962Y-148955219D01*
X147165962Y-148955219D02*
X147356438Y-148955219D01*
X147356438Y-148955219D02*
X147451676Y-148907600D01*
X147451676Y-148907600D02*
X147499295Y-148859980D01*
X147499295Y-148859980D02*
X147546914Y-148764742D01*
X147546914Y-148764742D02*
X147546914Y-148526647D01*
X147546914Y-148526647D02*
X147499295Y-148431409D01*
X147499295Y-148431409D02*
X147451676Y-148383790D01*
X147451676Y-148383790D02*
X147356438Y-148336171D01*
X147356438Y-148336171D02*
X147165962Y-148336171D01*
X147165962Y-148336171D02*
X147070724Y-148383790D01*
X147070724Y-148383790D02*
X147023105Y-148431409D01*
X147023105Y-148431409D02*
X146975486Y-148526647D01*
X163282333Y-156911780D02*
X163234714Y-156959400D01*
X163234714Y-156959400D02*
X163091857Y-157007019D01*
X163091857Y-157007019D02*
X162996619Y-157007019D01*
X162996619Y-157007019D02*
X162853762Y-156959400D01*
X162853762Y-156959400D02*
X162758524Y-156864161D01*
X162758524Y-156864161D02*
X162710905Y-156768923D01*
X162710905Y-156768923D02*
X162663286Y-156578447D01*
X162663286Y-156578447D02*
X162663286Y-156435590D01*
X162663286Y-156435590D02*
X162710905Y-156245114D01*
X162710905Y-156245114D02*
X162758524Y-156149876D01*
X162758524Y-156149876D02*
X162853762Y-156054638D01*
X162853762Y-156054638D02*
X162996619Y-156007019D01*
X162996619Y-156007019D02*
X163091857Y-156007019D01*
X163091857Y-156007019D02*
X163234714Y-156054638D01*
X163234714Y-156054638D02*
X163282333Y-156102257D01*
X164139476Y-156340352D02*
X164139476Y-157007019D01*
X163901381Y-155959400D02*
X163663286Y-156673685D01*
X163663286Y-156673685D02*
X164282333Y-156673685D01*
X144590419Y-71944704D02*
X145399942Y-71944704D01*
X145399942Y-71944704D02*
X145495180Y-71897085D01*
X145495180Y-71897085D02*
X145542800Y-71849466D01*
X145542800Y-71849466D02*
X145590419Y-71754228D01*
X145590419Y-71754228D02*
X145590419Y-71563752D01*
X145590419Y-71563752D02*
X145542800Y-71468514D01*
X145542800Y-71468514D02*
X145495180Y-71420895D01*
X145495180Y-71420895D02*
X145399942Y-71373276D01*
X145399942Y-71373276D02*
X144590419Y-71373276D01*
X144590419Y-70468514D02*
X144590419Y-70658990D01*
X144590419Y-70658990D02*
X144638038Y-70754228D01*
X144638038Y-70754228D02*
X144685657Y-70801847D01*
X144685657Y-70801847D02*
X144828514Y-70897085D01*
X144828514Y-70897085D02*
X145018990Y-70944704D01*
X145018990Y-70944704D02*
X145399942Y-70944704D01*
X145399942Y-70944704D02*
X145495180Y-70897085D01*
X145495180Y-70897085D02*
X145542800Y-70849466D01*
X145542800Y-70849466D02*
X145590419Y-70754228D01*
X145590419Y-70754228D02*
X145590419Y-70563752D01*
X145590419Y-70563752D02*
X145542800Y-70468514D01*
X145542800Y-70468514D02*
X145495180Y-70420895D01*
X145495180Y-70420895D02*
X145399942Y-70373276D01*
X145399942Y-70373276D02*
X145161847Y-70373276D01*
X145161847Y-70373276D02*
X145066609Y-70420895D01*
X145066609Y-70420895D02*
X145018990Y-70468514D01*
X145018990Y-70468514D02*
X144971371Y-70563752D01*
X144971371Y-70563752D02*
X144971371Y-70754228D01*
X144971371Y-70754228D02*
X145018990Y-70849466D01*
X145018990Y-70849466D02*
X145066609Y-70897085D01*
X145066609Y-70897085D02*
X145161847Y-70944704D01*
D11*
X163101867Y-67108918D02*
X163101867Y-68016061D01*
X163101867Y-68016061D02*
X163041390Y-68197489D01*
X163041390Y-68197489D02*
X162920438Y-68318442D01*
X162920438Y-68318442D02*
X162739009Y-68378918D01*
X162739009Y-68378918D02*
X162618057Y-68378918D01*
X163585676Y-67108918D02*
X164371867Y-67108918D01*
X164371867Y-67108918D02*
X163948533Y-67592727D01*
X163948533Y-67592727D02*
X164129962Y-67592727D01*
X164129962Y-67592727D02*
X164250914Y-67653203D01*
X164250914Y-67653203D02*
X164311390Y-67713680D01*
X164311390Y-67713680D02*
X164371867Y-67834632D01*
X164371867Y-67834632D02*
X164371867Y-68137013D01*
X164371867Y-68137013D02*
X164311390Y-68257965D01*
X164311390Y-68257965D02*
X164250914Y-68318442D01*
X164250914Y-68318442D02*
X164129962Y-68378918D01*
X164129962Y-68378918D02*
X163767105Y-68378918D01*
X163767105Y-68378918D02*
X163646152Y-68318442D01*
X163646152Y-68318442D02*
X163585676Y-68257965D01*
D10*
X84197866Y-101879619D02*
X84197866Y-102593904D01*
X84197866Y-102593904D02*
X84150247Y-102736761D01*
X84150247Y-102736761D02*
X84055009Y-102832000D01*
X84055009Y-102832000D02*
X83912152Y-102879619D01*
X83912152Y-102879619D02*
X83816914Y-102879619D01*
X85150247Y-101879619D02*
X84674057Y-101879619D01*
X84674057Y-101879619D02*
X84626438Y-102355809D01*
X84626438Y-102355809D02*
X84674057Y-102308190D01*
X84674057Y-102308190D02*
X84769295Y-102260571D01*
X84769295Y-102260571D02*
X85007390Y-102260571D01*
X85007390Y-102260571D02*
X85102628Y-102308190D01*
X85102628Y-102308190D02*
X85150247Y-102355809D01*
X85150247Y-102355809D02*
X85197866Y-102451047D01*
X85197866Y-102451047D02*
X85197866Y-102689142D01*
X85197866Y-102689142D02*
X85150247Y-102784380D01*
X85150247Y-102784380D02*
X85102628Y-102832000D01*
X85102628Y-102832000D02*
X85007390Y-102879619D01*
X85007390Y-102879619D02*
X84769295Y-102879619D01*
X84769295Y-102879619D02*
X84674057Y-102832000D01*
X84674057Y-102832000D02*
X84626438Y-102784380D01*
X96949419Y-116986857D02*
X96473228Y-117320190D01*
X96949419Y-117558285D02*
X95949419Y-117558285D01*
X95949419Y-117558285D02*
X95949419Y-117177333D01*
X95949419Y-117177333D02*
X95997038Y-117082095D01*
X95997038Y-117082095D02*
X96044657Y-117034476D01*
X96044657Y-117034476D02*
X96139895Y-116986857D01*
X96139895Y-116986857D02*
X96282752Y-116986857D01*
X96282752Y-116986857D02*
X96377990Y-117034476D01*
X96377990Y-117034476D02*
X96425609Y-117082095D01*
X96425609Y-117082095D02*
X96473228Y-117177333D01*
X96473228Y-117177333D02*
X96473228Y-117558285D01*
X96949419Y-116034476D02*
X96949419Y-116605904D01*
X96949419Y-116320190D02*
X95949419Y-116320190D01*
X95949419Y-116320190D02*
X96092276Y-116415428D01*
X96092276Y-116415428D02*
X96187514Y-116510666D01*
X96187514Y-116510666D02*
X96235133Y-116605904D01*
X96282752Y-115177333D02*
X96949419Y-115177333D01*
X95901800Y-115415428D02*
X96616085Y-115653523D01*
X96616085Y-115653523D02*
X96616085Y-115034476D01*
X163833946Y-122546619D02*
X163833946Y-123356142D01*
X163833946Y-123356142D02*
X163881565Y-123451380D01*
X163881565Y-123451380D02*
X163929184Y-123499000D01*
X163929184Y-123499000D02*
X164024422Y-123546619D01*
X164024422Y-123546619D02*
X164214898Y-123546619D01*
X164214898Y-123546619D02*
X164310136Y-123499000D01*
X164310136Y-123499000D02*
X164357755Y-123451380D01*
X164357755Y-123451380D02*
X164405374Y-123356142D01*
X164405374Y-123356142D02*
X164405374Y-122546619D01*
X165405374Y-123546619D02*
X164833946Y-123546619D01*
X165119660Y-123546619D02*
X165119660Y-122546619D01*
X165119660Y-122546619D02*
X165024422Y-122689476D01*
X165024422Y-122689476D02*
X164929184Y-122784714D01*
X164929184Y-122784714D02*
X164833946Y-122832333D01*
X84556695Y-164611619D02*
X84556695Y-163611619D01*
X84556695Y-164087809D02*
X85128123Y-164087809D01*
X85128123Y-164611619D02*
X85128123Y-163611619D01*
X85556695Y-163706857D02*
X85604314Y-163659238D01*
X85604314Y-163659238D02*
X85699552Y-163611619D01*
X85699552Y-163611619D02*
X85937647Y-163611619D01*
X85937647Y-163611619D02*
X86032885Y-163659238D01*
X86032885Y-163659238D02*
X86080504Y-163706857D01*
X86080504Y-163706857D02*
X86128123Y-163802095D01*
X86128123Y-163802095D02*
X86128123Y-163897333D01*
X86128123Y-163897333D02*
X86080504Y-164040190D01*
X86080504Y-164040190D02*
X85509076Y-164611619D01*
X85509076Y-164611619D02*
X86128123Y-164611619D01*
X120054019Y-62927704D02*
X120863542Y-62927704D01*
X120863542Y-62927704D02*
X120958780Y-62880085D01*
X120958780Y-62880085D02*
X121006400Y-62832466D01*
X121006400Y-62832466D02*
X121054019Y-62737228D01*
X121054019Y-62737228D02*
X121054019Y-62546752D01*
X121054019Y-62546752D02*
X121006400Y-62451514D01*
X121006400Y-62451514D02*
X120958780Y-62403895D01*
X120958780Y-62403895D02*
X120863542Y-62356276D01*
X120863542Y-62356276D02*
X120054019Y-62356276D01*
X120054019Y-61975323D02*
X120054019Y-61308657D01*
X120054019Y-61308657D02*
X121054019Y-61737228D01*
X161986933Y-129911580D02*
X161939314Y-129959200D01*
X161939314Y-129959200D02*
X161796457Y-130006819D01*
X161796457Y-130006819D02*
X161701219Y-130006819D01*
X161701219Y-130006819D02*
X161558362Y-129959200D01*
X161558362Y-129959200D02*
X161463124Y-129863961D01*
X161463124Y-129863961D02*
X161415505Y-129768723D01*
X161415505Y-129768723D02*
X161367886Y-129578247D01*
X161367886Y-129578247D02*
X161367886Y-129435390D01*
X161367886Y-129435390D02*
X161415505Y-129244914D01*
X161415505Y-129244914D02*
X161463124Y-129149676D01*
X161463124Y-129149676D02*
X161558362Y-129054438D01*
X161558362Y-129054438D02*
X161701219Y-129006819D01*
X161701219Y-129006819D02*
X161796457Y-129006819D01*
X161796457Y-129006819D02*
X161939314Y-129054438D01*
X161939314Y-129054438D02*
X161986933Y-129102057D01*
X162891695Y-129006819D02*
X162415505Y-129006819D01*
X162415505Y-129006819D02*
X162367886Y-129483009D01*
X162367886Y-129483009D02*
X162415505Y-129435390D01*
X162415505Y-129435390D02*
X162510743Y-129387771D01*
X162510743Y-129387771D02*
X162748838Y-129387771D01*
X162748838Y-129387771D02*
X162844076Y-129435390D01*
X162844076Y-129435390D02*
X162891695Y-129483009D01*
X162891695Y-129483009D02*
X162939314Y-129578247D01*
X162939314Y-129578247D02*
X162939314Y-129816342D01*
X162939314Y-129816342D02*
X162891695Y-129911580D01*
X162891695Y-129911580D02*
X162844076Y-129959200D01*
X162844076Y-129959200D02*
X162748838Y-130006819D01*
X162748838Y-130006819D02*
X162510743Y-130006819D01*
X162510743Y-130006819D02*
X162415505Y-129959200D01*
X162415505Y-129959200D02*
X162367886Y-129911580D01*
X161674980Y-169107657D02*
X161722600Y-169155276D01*
X161722600Y-169155276D02*
X161770219Y-169298133D01*
X161770219Y-169298133D02*
X161770219Y-169393371D01*
X161770219Y-169393371D02*
X161722600Y-169536228D01*
X161722600Y-169536228D02*
X161627361Y-169631466D01*
X161627361Y-169631466D02*
X161532123Y-169679085D01*
X161532123Y-169679085D02*
X161341647Y-169726704D01*
X161341647Y-169726704D02*
X161198790Y-169726704D01*
X161198790Y-169726704D02*
X161008314Y-169679085D01*
X161008314Y-169679085D02*
X160913076Y-169631466D01*
X160913076Y-169631466D02*
X160817838Y-169536228D01*
X160817838Y-169536228D02*
X160770219Y-169393371D01*
X160770219Y-169393371D02*
X160770219Y-169298133D01*
X160770219Y-169298133D02*
X160817838Y-169155276D01*
X160817838Y-169155276D02*
X160865457Y-169107657D01*
X161770219Y-168155276D02*
X161770219Y-168726704D01*
X161770219Y-168440990D02*
X160770219Y-168440990D01*
X160770219Y-168440990D02*
X160913076Y-168536228D01*
X160913076Y-168536228D02*
X161008314Y-168631466D01*
X161008314Y-168631466D02*
X161055933Y-168726704D01*
X160770219Y-167536228D02*
X160770219Y-167440990D01*
X160770219Y-167440990D02*
X160817838Y-167345752D01*
X160817838Y-167345752D02*
X160865457Y-167298133D01*
X160865457Y-167298133D02*
X160960695Y-167250514D01*
X160960695Y-167250514D02*
X161151171Y-167202895D01*
X161151171Y-167202895D02*
X161389266Y-167202895D01*
X161389266Y-167202895D02*
X161579742Y-167250514D01*
X161579742Y-167250514D02*
X161674980Y-167298133D01*
X161674980Y-167298133D02*
X161722600Y-167345752D01*
X161722600Y-167345752D02*
X161770219Y-167440990D01*
X161770219Y-167440990D02*
X161770219Y-167536228D01*
X161770219Y-167536228D02*
X161722600Y-167631466D01*
X161722600Y-167631466D02*
X161674980Y-167679085D01*
X161674980Y-167679085D02*
X161579742Y-167726704D01*
X161579742Y-167726704D02*
X161389266Y-167774323D01*
X161389266Y-167774323D02*
X161151171Y-167774323D01*
X161151171Y-167774323D02*
X160960695Y-167726704D01*
X160960695Y-167726704D02*
X160865457Y-167679085D01*
X160865457Y-167679085D02*
X160817838Y-167631466D01*
X160817838Y-167631466D02*
X160770219Y-167536228D01*
X152061942Y-72061619D02*
X151728609Y-71585428D01*
X151490514Y-72061619D02*
X151490514Y-71061619D01*
X151490514Y-71061619D02*
X151871466Y-71061619D01*
X151871466Y-71061619D02*
X151966704Y-71109238D01*
X151966704Y-71109238D02*
X152014323Y-71156857D01*
X152014323Y-71156857D02*
X152061942Y-71252095D01*
X152061942Y-71252095D02*
X152061942Y-71394952D01*
X152061942Y-71394952D02*
X152014323Y-71490190D01*
X152014323Y-71490190D02*
X151966704Y-71537809D01*
X151966704Y-71537809D02*
X151871466Y-71585428D01*
X151871466Y-71585428D02*
X151490514Y-71585428D01*
X153014323Y-72061619D02*
X152442895Y-72061619D01*
X152728609Y-72061619D02*
X152728609Y-71061619D01*
X152728609Y-71061619D02*
X152633371Y-71204476D01*
X152633371Y-71204476D02*
X152538133Y-71299714D01*
X152538133Y-71299714D02*
X152442895Y-71347333D01*
X153633371Y-71061619D02*
X153728609Y-71061619D01*
X153728609Y-71061619D02*
X153823847Y-71109238D01*
X153823847Y-71109238D02*
X153871466Y-71156857D01*
X153871466Y-71156857D02*
X153919085Y-71252095D01*
X153919085Y-71252095D02*
X153966704Y-71442571D01*
X153966704Y-71442571D02*
X153966704Y-71680666D01*
X153966704Y-71680666D02*
X153919085Y-71871142D01*
X153919085Y-71871142D02*
X153871466Y-71966380D01*
X153871466Y-71966380D02*
X153823847Y-72014000D01*
X153823847Y-72014000D02*
X153728609Y-72061619D01*
X153728609Y-72061619D02*
X153633371Y-72061619D01*
X153633371Y-72061619D02*
X153538133Y-72014000D01*
X153538133Y-72014000D02*
X153490514Y-71966380D01*
X153490514Y-71966380D02*
X153442895Y-71871142D01*
X153442895Y-71871142D02*
X153395276Y-71680666D01*
X153395276Y-71680666D02*
X153395276Y-71442571D01*
X153395276Y-71442571D02*
X153442895Y-71252095D01*
X153442895Y-71252095D02*
X153490514Y-71156857D01*
X153490514Y-71156857D02*
X153538133Y-71109238D01*
X153538133Y-71109238D02*
X153633371Y-71061619D01*
X92326619Y-117012257D02*
X91850428Y-117345590D01*
X92326619Y-117583685D02*
X91326619Y-117583685D01*
X91326619Y-117583685D02*
X91326619Y-117202733D01*
X91326619Y-117202733D02*
X91374238Y-117107495D01*
X91374238Y-117107495D02*
X91421857Y-117059876D01*
X91421857Y-117059876D02*
X91517095Y-117012257D01*
X91517095Y-117012257D02*
X91659952Y-117012257D01*
X91659952Y-117012257D02*
X91755190Y-117059876D01*
X91755190Y-117059876D02*
X91802809Y-117107495D01*
X91802809Y-117107495D02*
X91850428Y-117202733D01*
X91850428Y-117202733D02*
X91850428Y-117583685D01*
X92326619Y-116059876D02*
X92326619Y-116631304D01*
X92326619Y-116345590D02*
X91326619Y-116345590D01*
X91326619Y-116345590D02*
X91469476Y-116440828D01*
X91469476Y-116440828D02*
X91564714Y-116536066D01*
X91564714Y-116536066D02*
X91612333Y-116631304D01*
X91326619Y-115202733D02*
X91326619Y-115393209D01*
X91326619Y-115393209D02*
X91374238Y-115488447D01*
X91374238Y-115488447D02*
X91421857Y-115536066D01*
X91421857Y-115536066D02*
X91564714Y-115631304D01*
X91564714Y-115631304D02*
X91755190Y-115678923D01*
X91755190Y-115678923D02*
X92136142Y-115678923D01*
X92136142Y-115678923D02*
X92231380Y-115631304D01*
X92231380Y-115631304D02*
X92279000Y-115583685D01*
X92279000Y-115583685D02*
X92326619Y-115488447D01*
X92326619Y-115488447D02*
X92326619Y-115297971D01*
X92326619Y-115297971D02*
X92279000Y-115202733D01*
X92279000Y-115202733D02*
X92231380Y-115155114D01*
X92231380Y-115155114D02*
X92136142Y-115107495D01*
X92136142Y-115107495D02*
X91898047Y-115107495D01*
X91898047Y-115107495D02*
X91802809Y-115155114D01*
X91802809Y-115155114D02*
X91755190Y-115202733D01*
X91755190Y-115202733D02*
X91707571Y-115297971D01*
X91707571Y-115297971D02*
X91707571Y-115488447D01*
X91707571Y-115488447D02*
X91755190Y-115583685D01*
X91755190Y-115583685D02*
X91802809Y-115631304D01*
X91802809Y-115631304D02*
X91898047Y-115678923D01*
X84756666Y-131165819D02*
X84756666Y-131880104D01*
X84756666Y-131880104D02*
X84709047Y-132022961D01*
X84709047Y-132022961D02*
X84613809Y-132118200D01*
X84613809Y-132118200D02*
X84470952Y-132165819D01*
X84470952Y-132165819D02*
X84375714Y-132165819D01*
X85661428Y-131165819D02*
X85470952Y-131165819D01*
X85470952Y-131165819D02*
X85375714Y-131213438D01*
X85375714Y-131213438D02*
X85328095Y-131261057D01*
X85328095Y-131261057D02*
X85232857Y-131403914D01*
X85232857Y-131403914D02*
X85185238Y-131594390D01*
X85185238Y-131594390D02*
X85185238Y-131975342D01*
X85185238Y-131975342D02*
X85232857Y-132070580D01*
X85232857Y-132070580D02*
X85280476Y-132118200D01*
X85280476Y-132118200D02*
X85375714Y-132165819D01*
X85375714Y-132165819D02*
X85566190Y-132165819D01*
X85566190Y-132165819D02*
X85661428Y-132118200D01*
X85661428Y-132118200D02*
X85709047Y-132070580D01*
X85709047Y-132070580D02*
X85756666Y-131975342D01*
X85756666Y-131975342D02*
X85756666Y-131737247D01*
X85756666Y-131737247D02*
X85709047Y-131642009D01*
X85709047Y-131642009D02*
X85661428Y-131594390D01*
X85661428Y-131594390D02*
X85566190Y-131546771D01*
X85566190Y-131546771D02*
X85375714Y-131546771D01*
X85375714Y-131546771D02*
X85280476Y-131594390D01*
X85280476Y-131594390D02*
X85232857Y-131642009D01*
X85232857Y-131642009D02*
X85185238Y-131737247D01*
X151452342Y-92270219D02*
X151119009Y-91794028D01*
X150880914Y-92270219D02*
X150880914Y-91270219D01*
X150880914Y-91270219D02*
X151261866Y-91270219D01*
X151261866Y-91270219D02*
X151357104Y-91317838D01*
X151357104Y-91317838D02*
X151404723Y-91365457D01*
X151404723Y-91365457D02*
X151452342Y-91460695D01*
X151452342Y-91460695D02*
X151452342Y-91603552D01*
X151452342Y-91603552D02*
X151404723Y-91698790D01*
X151404723Y-91698790D02*
X151357104Y-91746409D01*
X151357104Y-91746409D02*
X151261866Y-91794028D01*
X151261866Y-91794028D02*
X150880914Y-91794028D01*
X152404723Y-92270219D02*
X151833295Y-92270219D01*
X152119009Y-92270219D02*
X152119009Y-91270219D01*
X152119009Y-91270219D02*
X152023771Y-91413076D01*
X152023771Y-91413076D02*
X151928533Y-91508314D01*
X151928533Y-91508314D02*
X151833295Y-91555933D01*
X152785676Y-91365457D02*
X152833295Y-91317838D01*
X152833295Y-91317838D02*
X152928533Y-91270219D01*
X152928533Y-91270219D02*
X153166628Y-91270219D01*
X153166628Y-91270219D02*
X153261866Y-91317838D01*
X153261866Y-91317838D02*
X153309485Y-91365457D01*
X153309485Y-91365457D02*
X153357104Y-91460695D01*
X153357104Y-91460695D02*
X153357104Y-91555933D01*
X153357104Y-91555933D02*
X153309485Y-91698790D01*
X153309485Y-91698790D02*
X152738057Y-92270219D01*
X152738057Y-92270219D02*
X153357104Y-92270219D01*
X154250733Y-119167380D02*
X154203114Y-119215000D01*
X154203114Y-119215000D02*
X154060257Y-119262619D01*
X154060257Y-119262619D02*
X153965019Y-119262619D01*
X153965019Y-119262619D02*
X153822162Y-119215000D01*
X153822162Y-119215000D02*
X153726924Y-119119761D01*
X153726924Y-119119761D02*
X153679305Y-119024523D01*
X153679305Y-119024523D02*
X153631686Y-118834047D01*
X153631686Y-118834047D02*
X153631686Y-118691190D01*
X153631686Y-118691190D02*
X153679305Y-118500714D01*
X153679305Y-118500714D02*
X153726924Y-118405476D01*
X153726924Y-118405476D02*
X153822162Y-118310238D01*
X153822162Y-118310238D02*
X153965019Y-118262619D01*
X153965019Y-118262619D02*
X154060257Y-118262619D01*
X154060257Y-118262619D02*
X154203114Y-118310238D01*
X154203114Y-118310238D02*
X154250733Y-118357857D01*
X154822162Y-118691190D02*
X154726924Y-118643571D01*
X154726924Y-118643571D02*
X154679305Y-118595952D01*
X154679305Y-118595952D02*
X154631686Y-118500714D01*
X154631686Y-118500714D02*
X154631686Y-118453095D01*
X154631686Y-118453095D02*
X154679305Y-118357857D01*
X154679305Y-118357857D02*
X154726924Y-118310238D01*
X154726924Y-118310238D02*
X154822162Y-118262619D01*
X154822162Y-118262619D02*
X155012638Y-118262619D01*
X155012638Y-118262619D02*
X155107876Y-118310238D01*
X155107876Y-118310238D02*
X155155495Y-118357857D01*
X155155495Y-118357857D02*
X155203114Y-118453095D01*
X155203114Y-118453095D02*
X155203114Y-118500714D01*
X155203114Y-118500714D02*
X155155495Y-118595952D01*
X155155495Y-118595952D02*
X155107876Y-118643571D01*
X155107876Y-118643571D02*
X155012638Y-118691190D01*
X155012638Y-118691190D02*
X154822162Y-118691190D01*
X154822162Y-118691190D02*
X154726924Y-118738809D01*
X154726924Y-118738809D02*
X154679305Y-118786428D01*
X154679305Y-118786428D02*
X154631686Y-118881666D01*
X154631686Y-118881666D02*
X154631686Y-119072142D01*
X154631686Y-119072142D02*
X154679305Y-119167380D01*
X154679305Y-119167380D02*
X154726924Y-119215000D01*
X154726924Y-119215000D02*
X154822162Y-119262619D01*
X154822162Y-119262619D02*
X155012638Y-119262619D01*
X155012638Y-119262619D02*
X155107876Y-119215000D01*
X155107876Y-119215000D02*
X155155495Y-119167380D01*
X155155495Y-119167380D02*
X155203114Y-119072142D01*
X155203114Y-119072142D02*
X155203114Y-118881666D01*
X155203114Y-118881666D02*
X155155495Y-118786428D01*
X155155495Y-118786428D02*
X155107876Y-118738809D01*
X155107876Y-118738809D02*
X155012638Y-118691190D01*
X161148733Y-133442180D02*
X161101114Y-133489800D01*
X161101114Y-133489800D02*
X160958257Y-133537419D01*
X160958257Y-133537419D02*
X160863019Y-133537419D01*
X160863019Y-133537419D02*
X160720162Y-133489800D01*
X160720162Y-133489800D02*
X160624924Y-133394561D01*
X160624924Y-133394561D02*
X160577305Y-133299323D01*
X160577305Y-133299323D02*
X160529686Y-133108847D01*
X160529686Y-133108847D02*
X160529686Y-132965990D01*
X160529686Y-132965990D02*
X160577305Y-132775514D01*
X160577305Y-132775514D02*
X160624924Y-132680276D01*
X160624924Y-132680276D02*
X160720162Y-132585038D01*
X160720162Y-132585038D02*
X160863019Y-132537419D01*
X160863019Y-132537419D02*
X160958257Y-132537419D01*
X160958257Y-132537419D02*
X161101114Y-132585038D01*
X161101114Y-132585038D02*
X161148733Y-132632657D01*
X161482067Y-132537419D02*
X162148733Y-132537419D01*
X162148733Y-132537419D02*
X161720162Y-133537419D01*
X89456419Y-117012257D02*
X88980228Y-117345590D01*
X89456419Y-117583685D02*
X88456419Y-117583685D01*
X88456419Y-117583685D02*
X88456419Y-117202733D01*
X88456419Y-117202733D02*
X88504038Y-117107495D01*
X88504038Y-117107495D02*
X88551657Y-117059876D01*
X88551657Y-117059876D02*
X88646895Y-117012257D01*
X88646895Y-117012257D02*
X88789752Y-117012257D01*
X88789752Y-117012257D02*
X88884990Y-117059876D01*
X88884990Y-117059876D02*
X88932609Y-117107495D01*
X88932609Y-117107495D02*
X88980228Y-117202733D01*
X88980228Y-117202733D02*
X88980228Y-117583685D01*
X89456419Y-116059876D02*
X89456419Y-116631304D01*
X89456419Y-116345590D02*
X88456419Y-116345590D01*
X88456419Y-116345590D02*
X88599276Y-116440828D01*
X88599276Y-116440828D02*
X88694514Y-116536066D01*
X88694514Y-116536066D02*
X88742133Y-116631304D01*
X88456419Y-115726542D02*
X88456419Y-115059876D01*
X88456419Y-115059876D02*
X89456419Y-115488447D01*
X168576666Y-101498619D02*
X168576666Y-102212904D01*
X168576666Y-102212904D02*
X168529047Y-102355761D01*
X168529047Y-102355761D02*
X168433809Y-102451000D01*
X168433809Y-102451000D02*
X168290952Y-102498619D01*
X168290952Y-102498619D02*
X168195714Y-102498619D01*
X168957619Y-101498619D02*
X169624285Y-101498619D01*
X169624285Y-101498619D02*
X169195714Y-102498619D01*
X127863695Y-110744219D02*
X127863695Y-111553742D01*
X127863695Y-111553742D02*
X127911314Y-111648980D01*
X127911314Y-111648980D02*
X127958933Y-111696600D01*
X127958933Y-111696600D02*
X128054171Y-111744219D01*
X128054171Y-111744219D02*
X128244647Y-111744219D01*
X128244647Y-111744219D02*
X128339885Y-111696600D01*
X128339885Y-111696600D02*
X128387504Y-111648980D01*
X128387504Y-111648980D02*
X128435123Y-111553742D01*
X128435123Y-111553742D02*
X128435123Y-110744219D01*
X128958933Y-111744219D02*
X129149409Y-111744219D01*
X129149409Y-111744219D02*
X129244647Y-111696600D01*
X129244647Y-111696600D02*
X129292266Y-111648980D01*
X129292266Y-111648980D02*
X129387504Y-111506123D01*
X129387504Y-111506123D02*
X129435123Y-111315647D01*
X129435123Y-111315647D02*
X129435123Y-110934695D01*
X129435123Y-110934695D02*
X129387504Y-110839457D01*
X129387504Y-110839457D02*
X129339885Y-110791838D01*
X129339885Y-110791838D02*
X129244647Y-110744219D01*
X129244647Y-110744219D02*
X129054171Y-110744219D01*
X129054171Y-110744219D02*
X128958933Y-110791838D01*
X128958933Y-110791838D02*
X128911314Y-110839457D01*
X128911314Y-110839457D02*
X128863695Y-110934695D01*
X128863695Y-110934695D02*
X128863695Y-111172790D01*
X128863695Y-111172790D02*
X128911314Y-111268028D01*
X128911314Y-111268028D02*
X128958933Y-111315647D01*
X128958933Y-111315647D02*
X129054171Y-111363266D01*
X129054171Y-111363266D02*
X129244647Y-111363266D01*
X129244647Y-111363266D02*
X129339885Y-111315647D01*
X129339885Y-111315647D02*
X129387504Y-111268028D01*
X129387504Y-111268028D02*
X129435123Y-111172790D01*
X136313942Y-98491780D02*
X136266323Y-98539400D01*
X136266323Y-98539400D02*
X136123466Y-98587019D01*
X136123466Y-98587019D02*
X136028228Y-98587019D01*
X136028228Y-98587019D02*
X135885371Y-98539400D01*
X135885371Y-98539400D02*
X135790133Y-98444161D01*
X135790133Y-98444161D02*
X135742514Y-98348923D01*
X135742514Y-98348923D02*
X135694895Y-98158447D01*
X135694895Y-98158447D02*
X135694895Y-98015590D01*
X135694895Y-98015590D02*
X135742514Y-97825114D01*
X135742514Y-97825114D02*
X135790133Y-97729876D01*
X135790133Y-97729876D02*
X135885371Y-97634638D01*
X135885371Y-97634638D02*
X136028228Y-97587019D01*
X136028228Y-97587019D02*
X136123466Y-97587019D01*
X136123466Y-97587019D02*
X136266323Y-97634638D01*
X136266323Y-97634638D02*
X136313942Y-97682257D01*
X137266323Y-98587019D02*
X136694895Y-98587019D01*
X136980609Y-98587019D02*
X136980609Y-97587019D01*
X136980609Y-97587019D02*
X136885371Y-97729876D01*
X136885371Y-97729876D02*
X136790133Y-97825114D01*
X136790133Y-97825114D02*
X136694895Y-97872733D01*
X138123466Y-97587019D02*
X137932990Y-97587019D01*
X137932990Y-97587019D02*
X137837752Y-97634638D01*
X137837752Y-97634638D02*
X137790133Y-97682257D01*
X137790133Y-97682257D02*
X137694895Y-97825114D01*
X137694895Y-97825114D02*
X137647276Y-98015590D01*
X137647276Y-98015590D02*
X137647276Y-98396542D01*
X137647276Y-98396542D02*
X137694895Y-98491780D01*
X137694895Y-98491780D02*
X137742514Y-98539400D01*
X137742514Y-98539400D02*
X137837752Y-98587019D01*
X137837752Y-98587019D02*
X138028228Y-98587019D01*
X138028228Y-98587019D02*
X138123466Y-98539400D01*
X138123466Y-98539400D02*
X138171085Y-98491780D01*
X138171085Y-98491780D02*
X138218704Y-98396542D01*
X138218704Y-98396542D02*
X138218704Y-98158447D01*
X138218704Y-98158447D02*
X138171085Y-98063209D01*
X138171085Y-98063209D02*
X138123466Y-98015590D01*
X138123466Y-98015590D02*
X138028228Y-97967971D01*
X138028228Y-97967971D02*
X137837752Y-97967971D01*
X137837752Y-97967971D02*
X137742514Y-98015590D01*
X137742514Y-98015590D02*
X137694895Y-98063209D01*
X137694895Y-98063209D02*
X137647276Y-98158447D01*
X106379180Y-141929657D02*
X106426800Y-141977276D01*
X106426800Y-141977276D02*
X106474419Y-142120133D01*
X106474419Y-142120133D02*
X106474419Y-142215371D01*
X106474419Y-142215371D02*
X106426800Y-142358228D01*
X106426800Y-142358228D02*
X106331561Y-142453466D01*
X106331561Y-142453466D02*
X106236323Y-142501085D01*
X106236323Y-142501085D02*
X106045847Y-142548704D01*
X106045847Y-142548704D02*
X105902990Y-142548704D01*
X105902990Y-142548704D02*
X105712514Y-142501085D01*
X105712514Y-142501085D02*
X105617276Y-142453466D01*
X105617276Y-142453466D02*
X105522038Y-142358228D01*
X105522038Y-142358228D02*
X105474419Y-142215371D01*
X105474419Y-142215371D02*
X105474419Y-142120133D01*
X105474419Y-142120133D02*
X105522038Y-141977276D01*
X105522038Y-141977276D02*
X105569657Y-141929657D01*
X106474419Y-140977276D02*
X106474419Y-141548704D01*
X106474419Y-141262990D02*
X105474419Y-141262990D01*
X105474419Y-141262990D02*
X105617276Y-141358228D01*
X105617276Y-141358228D02*
X105712514Y-141453466D01*
X105712514Y-141453466D02*
X105760133Y-141548704D01*
X105902990Y-140405847D02*
X105855371Y-140501085D01*
X105855371Y-140501085D02*
X105807752Y-140548704D01*
X105807752Y-140548704D02*
X105712514Y-140596323D01*
X105712514Y-140596323D02*
X105664895Y-140596323D01*
X105664895Y-140596323D02*
X105569657Y-140548704D01*
X105569657Y-140548704D02*
X105522038Y-140501085D01*
X105522038Y-140501085D02*
X105474419Y-140405847D01*
X105474419Y-140405847D02*
X105474419Y-140215371D01*
X105474419Y-140215371D02*
X105522038Y-140120133D01*
X105522038Y-140120133D02*
X105569657Y-140072514D01*
X105569657Y-140072514D02*
X105664895Y-140024895D01*
X105664895Y-140024895D02*
X105712514Y-140024895D01*
X105712514Y-140024895D02*
X105807752Y-140072514D01*
X105807752Y-140072514D02*
X105855371Y-140120133D01*
X105855371Y-140120133D02*
X105902990Y-140215371D01*
X105902990Y-140215371D02*
X105902990Y-140405847D01*
X105902990Y-140405847D02*
X105950609Y-140501085D01*
X105950609Y-140501085D02*
X105998228Y-140548704D01*
X105998228Y-140548704D02*
X106093466Y-140596323D01*
X106093466Y-140596323D02*
X106283942Y-140596323D01*
X106283942Y-140596323D02*
X106379180Y-140548704D01*
X106379180Y-140548704D02*
X106426800Y-140501085D01*
X106426800Y-140501085D02*
X106474419Y-140405847D01*
X106474419Y-140405847D02*
X106474419Y-140215371D01*
X106474419Y-140215371D02*
X106426800Y-140120133D01*
X106426800Y-140120133D02*
X106379180Y-140072514D01*
X106379180Y-140072514D02*
X106283942Y-140024895D01*
X106283942Y-140024895D02*
X106093466Y-140024895D01*
X106093466Y-140024895D02*
X105998228Y-140072514D01*
X105998228Y-140072514D02*
X105950609Y-140120133D01*
X105950609Y-140120133D02*
X105902990Y-140215371D01*
X151757142Y-98821980D02*
X151709523Y-98869600D01*
X151709523Y-98869600D02*
X151566666Y-98917219D01*
X151566666Y-98917219D02*
X151471428Y-98917219D01*
X151471428Y-98917219D02*
X151328571Y-98869600D01*
X151328571Y-98869600D02*
X151233333Y-98774361D01*
X151233333Y-98774361D02*
X151185714Y-98679123D01*
X151185714Y-98679123D02*
X151138095Y-98488647D01*
X151138095Y-98488647D02*
X151138095Y-98345790D01*
X151138095Y-98345790D02*
X151185714Y-98155314D01*
X151185714Y-98155314D02*
X151233333Y-98060076D01*
X151233333Y-98060076D02*
X151328571Y-97964838D01*
X151328571Y-97964838D02*
X151471428Y-97917219D01*
X151471428Y-97917219D02*
X151566666Y-97917219D01*
X151566666Y-97917219D02*
X151709523Y-97964838D01*
X151709523Y-97964838D02*
X151757142Y-98012457D01*
X152709523Y-98917219D02*
X152138095Y-98917219D01*
X152423809Y-98917219D02*
X152423809Y-97917219D01*
X152423809Y-97917219D02*
X152328571Y-98060076D01*
X152328571Y-98060076D02*
X152233333Y-98155314D01*
X152233333Y-98155314D02*
X152138095Y-98202933D01*
X153614285Y-97917219D02*
X153138095Y-97917219D01*
X153138095Y-97917219D02*
X153090476Y-98393409D01*
X153090476Y-98393409D02*
X153138095Y-98345790D01*
X153138095Y-98345790D02*
X153233333Y-98298171D01*
X153233333Y-98298171D02*
X153471428Y-98298171D01*
X153471428Y-98298171D02*
X153566666Y-98345790D01*
X153566666Y-98345790D02*
X153614285Y-98393409D01*
X153614285Y-98393409D02*
X153661904Y-98488647D01*
X153661904Y-98488647D02*
X153661904Y-98726742D01*
X153661904Y-98726742D02*
X153614285Y-98821980D01*
X153614285Y-98821980D02*
X153566666Y-98869600D01*
X153566666Y-98869600D02*
X153471428Y-98917219D01*
X153471428Y-98917219D02*
X153233333Y-98917219D01*
X153233333Y-98917219D02*
X153138095Y-98869600D01*
X153138095Y-98869600D02*
X153090476Y-98821980D01*
X91008295Y-110118619D02*
X91008295Y-109118619D01*
X91008295Y-109594809D02*
X91579723Y-109594809D01*
X91579723Y-110118619D02*
X91579723Y-109118619D01*
X91960676Y-109118619D02*
X92579723Y-109118619D01*
X92579723Y-109118619D02*
X92246390Y-109499571D01*
X92246390Y-109499571D02*
X92389247Y-109499571D01*
X92389247Y-109499571D02*
X92484485Y-109547190D01*
X92484485Y-109547190D02*
X92532104Y-109594809D01*
X92532104Y-109594809D02*
X92579723Y-109690047D01*
X92579723Y-109690047D02*
X92579723Y-109928142D01*
X92579723Y-109928142D02*
X92532104Y-110023380D01*
X92532104Y-110023380D02*
X92484485Y-110071000D01*
X92484485Y-110071000D02*
X92389247Y-110118619D01*
X92389247Y-110118619D02*
X92103533Y-110118619D01*
X92103533Y-110118619D02*
X92008295Y-110071000D01*
X92008295Y-110071000D02*
X91960676Y-110023380D01*
X148974980Y-64205657D02*
X149022600Y-64253276D01*
X149022600Y-64253276D02*
X149070219Y-64396133D01*
X149070219Y-64396133D02*
X149070219Y-64491371D01*
X149070219Y-64491371D02*
X149022600Y-64634228D01*
X149022600Y-64634228D02*
X148927361Y-64729466D01*
X148927361Y-64729466D02*
X148832123Y-64777085D01*
X148832123Y-64777085D02*
X148641647Y-64824704D01*
X148641647Y-64824704D02*
X148498790Y-64824704D01*
X148498790Y-64824704D02*
X148308314Y-64777085D01*
X148308314Y-64777085D02*
X148213076Y-64729466D01*
X148213076Y-64729466D02*
X148117838Y-64634228D01*
X148117838Y-64634228D02*
X148070219Y-64491371D01*
X148070219Y-64491371D02*
X148070219Y-64396133D01*
X148070219Y-64396133D02*
X148117838Y-64253276D01*
X148117838Y-64253276D02*
X148165457Y-64205657D01*
X149070219Y-63253276D02*
X149070219Y-63824704D01*
X149070219Y-63538990D02*
X148070219Y-63538990D01*
X148070219Y-63538990D02*
X148213076Y-63634228D01*
X148213076Y-63634228D02*
X148308314Y-63729466D01*
X148308314Y-63729466D02*
X148355933Y-63824704D01*
X148403552Y-62396133D02*
X149070219Y-62396133D01*
X148022600Y-62634228D02*
X148736885Y-62872323D01*
X148736885Y-62872323D02*
X148736885Y-62253276D01*
X88963667Y-149517200D02*
X89106524Y-149564819D01*
X89106524Y-149564819D02*
X89344619Y-149564819D01*
X89344619Y-149564819D02*
X89439857Y-149517200D01*
X89439857Y-149517200D02*
X89487476Y-149469580D01*
X89487476Y-149469580D02*
X89535095Y-149374342D01*
X89535095Y-149374342D02*
X89535095Y-149279104D01*
X89535095Y-149279104D02*
X89487476Y-149183866D01*
X89487476Y-149183866D02*
X89439857Y-149136247D01*
X89439857Y-149136247D02*
X89344619Y-149088628D01*
X89344619Y-149088628D02*
X89154143Y-149041009D01*
X89154143Y-149041009D02*
X89058905Y-148993390D01*
X89058905Y-148993390D02*
X89011286Y-148945771D01*
X89011286Y-148945771D02*
X88963667Y-148850533D01*
X88963667Y-148850533D02*
X88963667Y-148755295D01*
X88963667Y-148755295D02*
X89011286Y-148660057D01*
X89011286Y-148660057D02*
X89058905Y-148612438D01*
X89058905Y-148612438D02*
X89154143Y-148564819D01*
X89154143Y-148564819D02*
X89392238Y-148564819D01*
X89392238Y-148564819D02*
X89535095Y-148612438D01*
X89868429Y-148564819D02*
X90106524Y-149564819D01*
X90106524Y-149564819D02*
X90297000Y-148850533D01*
X90297000Y-148850533D02*
X90487476Y-149564819D01*
X90487476Y-149564819D02*
X90725572Y-148564819D01*
X91630333Y-149564819D02*
X91058905Y-149564819D01*
X91344619Y-149564819D02*
X91344619Y-148564819D01*
X91344619Y-148564819D02*
X91249381Y-148707676D01*
X91249381Y-148707676D02*
X91154143Y-148802914D01*
X91154143Y-148802914D02*
X91058905Y-148850533D01*
X159889866Y-108509019D02*
X159889866Y-109223304D01*
X159889866Y-109223304D02*
X159842247Y-109366161D01*
X159842247Y-109366161D02*
X159747009Y-109461400D01*
X159747009Y-109461400D02*
X159604152Y-109509019D01*
X159604152Y-109509019D02*
X159508914Y-109509019D01*
X160318438Y-108604257D02*
X160366057Y-108556638D01*
X160366057Y-108556638D02*
X160461295Y-108509019D01*
X160461295Y-108509019D02*
X160699390Y-108509019D01*
X160699390Y-108509019D02*
X160794628Y-108556638D01*
X160794628Y-108556638D02*
X160842247Y-108604257D01*
X160842247Y-108604257D02*
X160889866Y-108699495D01*
X160889866Y-108699495D02*
X160889866Y-108794733D01*
X160889866Y-108794733D02*
X160842247Y-108937590D01*
X160842247Y-108937590D02*
X160270819Y-109509019D01*
X160270819Y-109509019D02*
X160889866Y-109509019D01*
X109872542Y-93807380D02*
X109824923Y-93855000D01*
X109824923Y-93855000D02*
X109682066Y-93902619D01*
X109682066Y-93902619D02*
X109586828Y-93902619D01*
X109586828Y-93902619D02*
X109443971Y-93855000D01*
X109443971Y-93855000D02*
X109348733Y-93759761D01*
X109348733Y-93759761D02*
X109301114Y-93664523D01*
X109301114Y-93664523D02*
X109253495Y-93474047D01*
X109253495Y-93474047D02*
X109253495Y-93331190D01*
X109253495Y-93331190D02*
X109301114Y-93140714D01*
X109301114Y-93140714D02*
X109348733Y-93045476D01*
X109348733Y-93045476D02*
X109443971Y-92950238D01*
X109443971Y-92950238D02*
X109586828Y-92902619D01*
X109586828Y-92902619D02*
X109682066Y-92902619D01*
X109682066Y-92902619D02*
X109824923Y-92950238D01*
X109824923Y-92950238D02*
X109872542Y-92997857D01*
X110824923Y-93902619D02*
X110253495Y-93902619D01*
X110539209Y-93902619D02*
X110539209Y-92902619D01*
X110539209Y-92902619D02*
X110443971Y-93045476D01*
X110443971Y-93045476D02*
X110348733Y-93140714D01*
X110348733Y-93140714D02*
X110253495Y-93188333D01*
X111158257Y-92902619D02*
X111824923Y-92902619D01*
X111824923Y-92902619D02*
X111396352Y-93902619D01*
X152563533Y-154830419D02*
X152230200Y-154354228D01*
X151992105Y-154830419D02*
X151992105Y-153830419D01*
X151992105Y-153830419D02*
X152373057Y-153830419D01*
X152373057Y-153830419D02*
X152468295Y-153878038D01*
X152468295Y-153878038D02*
X152515914Y-153925657D01*
X152515914Y-153925657D02*
X152563533Y-154020895D01*
X152563533Y-154020895D02*
X152563533Y-154163752D01*
X152563533Y-154163752D02*
X152515914Y-154258990D01*
X152515914Y-154258990D02*
X152468295Y-154306609D01*
X152468295Y-154306609D02*
X152373057Y-154354228D01*
X152373057Y-154354228D02*
X151992105Y-154354228D01*
X153468295Y-153830419D02*
X152992105Y-153830419D01*
X152992105Y-153830419D02*
X152944486Y-154306609D01*
X152944486Y-154306609D02*
X152992105Y-154258990D01*
X152992105Y-154258990D02*
X153087343Y-154211371D01*
X153087343Y-154211371D02*
X153325438Y-154211371D01*
X153325438Y-154211371D02*
X153420676Y-154258990D01*
X153420676Y-154258990D02*
X153468295Y-154306609D01*
X153468295Y-154306609D02*
X153515914Y-154401847D01*
X153515914Y-154401847D02*
X153515914Y-154639942D01*
X153515914Y-154639942D02*
X153468295Y-154735180D01*
X153468295Y-154735180D02*
X153420676Y-154782800D01*
X153420676Y-154782800D02*
X153325438Y-154830419D01*
X153325438Y-154830419D02*
X153087343Y-154830419D01*
X153087343Y-154830419D02*
X152992105Y-154782800D01*
X152992105Y-154782800D02*
X152944486Y-154735180D01*
X159319933Y-121701019D02*
X158986600Y-121224828D01*
X158748505Y-121701019D02*
X158748505Y-120701019D01*
X158748505Y-120701019D02*
X159129457Y-120701019D01*
X159129457Y-120701019D02*
X159224695Y-120748638D01*
X159224695Y-120748638D02*
X159272314Y-120796257D01*
X159272314Y-120796257D02*
X159319933Y-120891495D01*
X159319933Y-120891495D02*
X159319933Y-121034352D01*
X159319933Y-121034352D02*
X159272314Y-121129590D01*
X159272314Y-121129590D02*
X159224695Y-121177209D01*
X159224695Y-121177209D02*
X159129457Y-121224828D01*
X159129457Y-121224828D02*
X158748505Y-121224828D01*
X159653267Y-120701019D02*
X160272314Y-120701019D01*
X160272314Y-120701019D02*
X159938981Y-121081971D01*
X159938981Y-121081971D02*
X160081838Y-121081971D01*
X160081838Y-121081971D02*
X160177076Y-121129590D01*
X160177076Y-121129590D02*
X160224695Y-121177209D01*
X160224695Y-121177209D02*
X160272314Y-121272447D01*
X160272314Y-121272447D02*
X160272314Y-121510542D01*
X160272314Y-121510542D02*
X160224695Y-121605780D01*
X160224695Y-121605780D02*
X160177076Y-121653400D01*
X160177076Y-121653400D02*
X160081838Y-121701019D01*
X160081838Y-121701019D02*
X159796124Y-121701019D01*
X159796124Y-121701019D02*
X159700886Y-121653400D01*
X159700886Y-121653400D02*
X159653267Y-121605780D01*
X100148142Y-114366780D02*
X100100523Y-114414400D01*
X100100523Y-114414400D02*
X99957666Y-114462019D01*
X99957666Y-114462019D02*
X99862428Y-114462019D01*
X99862428Y-114462019D02*
X99719571Y-114414400D01*
X99719571Y-114414400D02*
X99624333Y-114319161D01*
X99624333Y-114319161D02*
X99576714Y-114223923D01*
X99576714Y-114223923D02*
X99529095Y-114033447D01*
X99529095Y-114033447D02*
X99529095Y-113890590D01*
X99529095Y-113890590D02*
X99576714Y-113700114D01*
X99576714Y-113700114D02*
X99624333Y-113604876D01*
X99624333Y-113604876D02*
X99719571Y-113509638D01*
X99719571Y-113509638D02*
X99862428Y-113462019D01*
X99862428Y-113462019D02*
X99957666Y-113462019D01*
X99957666Y-113462019D02*
X100100523Y-113509638D01*
X100100523Y-113509638D02*
X100148142Y-113557257D01*
X101100523Y-114462019D02*
X100529095Y-114462019D01*
X100814809Y-114462019D02*
X100814809Y-113462019D01*
X100814809Y-113462019D02*
X100719571Y-113604876D01*
X100719571Y-113604876D02*
X100624333Y-113700114D01*
X100624333Y-113700114D02*
X100529095Y-113747733D01*
X101576714Y-114462019D02*
X101767190Y-114462019D01*
X101767190Y-114462019D02*
X101862428Y-114414400D01*
X101862428Y-114414400D02*
X101910047Y-114366780D01*
X101910047Y-114366780D02*
X102005285Y-114223923D01*
X102005285Y-114223923D02*
X102052904Y-114033447D01*
X102052904Y-114033447D02*
X102052904Y-113652495D01*
X102052904Y-113652495D02*
X102005285Y-113557257D01*
X102005285Y-113557257D02*
X101957666Y-113509638D01*
X101957666Y-113509638D02*
X101862428Y-113462019D01*
X101862428Y-113462019D02*
X101671952Y-113462019D01*
X101671952Y-113462019D02*
X101576714Y-113509638D01*
X101576714Y-113509638D02*
X101529095Y-113557257D01*
X101529095Y-113557257D02*
X101481476Y-113652495D01*
X101481476Y-113652495D02*
X101481476Y-113890590D01*
X101481476Y-113890590D02*
X101529095Y-113985828D01*
X101529095Y-113985828D02*
X101576714Y-114033447D01*
X101576714Y-114033447D02*
X101671952Y-114081066D01*
X101671952Y-114081066D02*
X101862428Y-114081066D01*
X101862428Y-114081066D02*
X101957666Y-114033447D01*
X101957666Y-114033447D02*
X102005285Y-113985828D01*
X102005285Y-113985828D02*
X102052904Y-113890590D01*
X84556695Y-57144219D02*
X84556695Y-56144219D01*
X84556695Y-56620409D02*
X85128123Y-56620409D01*
X85128123Y-57144219D02*
X85128123Y-56144219D01*
X86032885Y-56477552D02*
X86032885Y-57144219D01*
X85794790Y-56096600D02*
X85556695Y-56810885D01*
X85556695Y-56810885D02*
X86175742Y-56810885D01*
X106132333Y-138363419D02*
X105799000Y-137887228D01*
X105560905Y-138363419D02*
X105560905Y-137363419D01*
X105560905Y-137363419D02*
X105941857Y-137363419D01*
X105941857Y-137363419D02*
X106037095Y-137411038D01*
X106037095Y-137411038D02*
X106084714Y-137458657D01*
X106084714Y-137458657D02*
X106132333Y-137553895D01*
X106132333Y-137553895D02*
X106132333Y-137696752D01*
X106132333Y-137696752D02*
X106084714Y-137791990D01*
X106084714Y-137791990D02*
X106037095Y-137839609D01*
X106037095Y-137839609D02*
X105941857Y-137887228D01*
X105941857Y-137887228D02*
X105560905Y-137887228D01*
X107084714Y-138363419D02*
X106513286Y-138363419D01*
X106799000Y-138363419D02*
X106799000Y-137363419D01*
X106799000Y-137363419D02*
X106703762Y-137506276D01*
X106703762Y-137506276D02*
X106608524Y-137601514D01*
X106608524Y-137601514D02*
X106513286Y-137649133D01*
X166573295Y-159883619D02*
X166573295Y-158883619D01*
X166573295Y-159359809D02*
X167144723Y-159359809D01*
X167144723Y-159883619D02*
X167144723Y-158883619D01*
X168144723Y-159883619D02*
X167573295Y-159883619D01*
X167859009Y-159883619D02*
X167859009Y-158883619D01*
X167859009Y-158883619D02*
X167763771Y-159026476D01*
X167763771Y-159026476D02*
X167668533Y-159121714D01*
X167668533Y-159121714D02*
X167573295Y-159169333D01*
X162520333Y-150028380D02*
X162472714Y-150076000D01*
X162472714Y-150076000D02*
X162329857Y-150123619D01*
X162329857Y-150123619D02*
X162234619Y-150123619D01*
X162234619Y-150123619D02*
X162091762Y-150076000D01*
X162091762Y-150076000D02*
X161996524Y-149980761D01*
X161996524Y-149980761D02*
X161948905Y-149885523D01*
X161948905Y-149885523D02*
X161901286Y-149695047D01*
X161901286Y-149695047D02*
X161901286Y-149552190D01*
X161901286Y-149552190D02*
X161948905Y-149361714D01*
X161948905Y-149361714D02*
X161996524Y-149266476D01*
X161996524Y-149266476D02*
X162091762Y-149171238D01*
X162091762Y-149171238D02*
X162234619Y-149123619D01*
X162234619Y-149123619D02*
X162329857Y-149123619D01*
X162329857Y-149123619D02*
X162472714Y-149171238D01*
X162472714Y-149171238D02*
X162520333Y-149218857D01*
X163377476Y-149123619D02*
X163187000Y-149123619D01*
X163187000Y-149123619D02*
X163091762Y-149171238D01*
X163091762Y-149171238D02*
X163044143Y-149218857D01*
X163044143Y-149218857D02*
X162948905Y-149361714D01*
X162948905Y-149361714D02*
X162901286Y-149552190D01*
X162901286Y-149552190D02*
X162901286Y-149933142D01*
X162901286Y-149933142D02*
X162948905Y-150028380D01*
X162948905Y-150028380D02*
X162996524Y-150076000D01*
X162996524Y-150076000D02*
X163091762Y-150123619D01*
X163091762Y-150123619D02*
X163282238Y-150123619D01*
X163282238Y-150123619D02*
X163377476Y-150076000D01*
X163377476Y-150076000D02*
X163425095Y-150028380D01*
X163425095Y-150028380D02*
X163472714Y-149933142D01*
X163472714Y-149933142D02*
X163472714Y-149695047D01*
X163472714Y-149695047D02*
X163425095Y-149599809D01*
X163425095Y-149599809D02*
X163377476Y-149552190D01*
X163377476Y-149552190D02*
X163282238Y-149504571D01*
X163282238Y-149504571D02*
X163091762Y-149504571D01*
X163091762Y-149504571D02*
X162996524Y-149552190D01*
X162996524Y-149552190D02*
X162948905Y-149599809D01*
X162948905Y-149599809D02*
X162901286Y-149695047D01*
X88885733Y-132902419D02*
X88552400Y-132426228D01*
X88314305Y-132902419D02*
X88314305Y-131902419D01*
X88314305Y-131902419D02*
X88695257Y-131902419D01*
X88695257Y-131902419D02*
X88790495Y-131950038D01*
X88790495Y-131950038D02*
X88838114Y-131997657D01*
X88838114Y-131997657D02*
X88885733Y-132092895D01*
X88885733Y-132092895D02*
X88885733Y-132235752D01*
X88885733Y-132235752D02*
X88838114Y-132330990D01*
X88838114Y-132330990D02*
X88790495Y-132378609D01*
X88790495Y-132378609D02*
X88695257Y-132426228D01*
X88695257Y-132426228D02*
X88314305Y-132426228D01*
X89266686Y-131997657D02*
X89314305Y-131950038D01*
X89314305Y-131950038D02*
X89409543Y-131902419D01*
X89409543Y-131902419D02*
X89647638Y-131902419D01*
X89647638Y-131902419D02*
X89742876Y-131950038D01*
X89742876Y-131950038D02*
X89790495Y-131997657D01*
X89790495Y-131997657D02*
X89838114Y-132092895D01*
X89838114Y-132092895D02*
X89838114Y-132188133D01*
X89838114Y-132188133D02*
X89790495Y-132330990D01*
X89790495Y-132330990D02*
X89219067Y-132902419D01*
X89219067Y-132902419D02*
X89838114Y-132902419D01*
X120946942Y-70297780D02*
X120899323Y-70345400D01*
X120899323Y-70345400D02*
X120756466Y-70393019D01*
X120756466Y-70393019D02*
X120661228Y-70393019D01*
X120661228Y-70393019D02*
X120518371Y-70345400D01*
X120518371Y-70345400D02*
X120423133Y-70250161D01*
X120423133Y-70250161D02*
X120375514Y-70154923D01*
X120375514Y-70154923D02*
X120327895Y-69964447D01*
X120327895Y-69964447D02*
X120327895Y-69821590D01*
X120327895Y-69821590D02*
X120375514Y-69631114D01*
X120375514Y-69631114D02*
X120423133Y-69535876D01*
X120423133Y-69535876D02*
X120518371Y-69440638D01*
X120518371Y-69440638D02*
X120661228Y-69393019D01*
X120661228Y-69393019D02*
X120756466Y-69393019D01*
X120756466Y-69393019D02*
X120899323Y-69440638D01*
X120899323Y-69440638D02*
X120946942Y-69488257D01*
X121899323Y-70393019D02*
X121327895Y-70393019D01*
X121613609Y-70393019D02*
X121613609Y-69393019D01*
X121613609Y-69393019D02*
X121518371Y-69535876D01*
X121518371Y-69535876D02*
X121423133Y-69631114D01*
X121423133Y-69631114D02*
X121327895Y-69678733D01*
X122280276Y-69488257D02*
X122327895Y-69440638D01*
X122327895Y-69440638D02*
X122423133Y-69393019D01*
X122423133Y-69393019D02*
X122661228Y-69393019D01*
X122661228Y-69393019D02*
X122756466Y-69440638D01*
X122756466Y-69440638D02*
X122804085Y-69488257D01*
X122804085Y-69488257D02*
X122851704Y-69583495D01*
X122851704Y-69583495D02*
X122851704Y-69678733D01*
X122851704Y-69678733D02*
X122804085Y-69821590D01*
X122804085Y-69821590D02*
X122232657Y-70393019D01*
X122232657Y-70393019D02*
X122851704Y-70393019D01*
X144438019Y-171236533D02*
X145152304Y-171236533D01*
X145152304Y-171236533D02*
X145295161Y-171284152D01*
X145295161Y-171284152D02*
X145390400Y-171379390D01*
X145390400Y-171379390D02*
X145438019Y-171522247D01*
X145438019Y-171522247D02*
X145438019Y-171617485D01*
X144866590Y-170617485D02*
X144818971Y-170712723D01*
X144818971Y-170712723D02*
X144771352Y-170760342D01*
X144771352Y-170760342D02*
X144676114Y-170807961D01*
X144676114Y-170807961D02*
X144628495Y-170807961D01*
X144628495Y-170807961D02*
X144533257Y-170760342D01*
X144533257Y-170760342D02*
X144485638Y-170712723D01*
X144485638Y-170712723D02*
X144438019Y-170617485D01*
X144438019Y-170617485D02*
X144438019Y-170427009D01*
X144438019Y-170427009D02*
X144485638Y-170331771D01*
X144485638Y-170331771D02*
X144533257Y-170284152D01*
X144533257Y-170284152D02*
X144628495Y-170236533D01*
X144628495Y-170236533D02*
X144676114Y-170236533D01*
X144676114Y-170236533D02*
X144771352Y-170284152D01*
X144771352Y-170284152D02*
X144818971Y-170331771D01*
X144818971Y-170331771D02*
X144866590Y-170427009D01*
X144866590Y-170427009D02*
X144866590Y-170617485D01*
X144866590Y-170617485D02*
X144914209Y-170712723D01*
X144914209Y-170712723D02*
X144961828Y-170760342D01*
X144961828Y-170760342D02*
X145057066Y-170807961D01*
X145057066Y-170807961D02*
X145247542Y-170807961D01*
X145247542Y-170807961D02*
X145342780Y-170760342D01*
X145342780Y-170760342D02*
X145390400Y-170712723D01*
X145390400Y-170712723D02*
X145438019Y-170617485D01*
X145438019Y-170617485D02*
X145438019Y-170427009D01*
X145438019Y-170427009D02*
X145390400Y-170331771D01*
X145390400Y-170331771D02*
X145342780Y-170284152D01*
X145342780Y-170284152D02*
X145247542Y-170236533D01*
X145247542Y-170236533D02*
X145057066Y-170236533D01*
X145057066Y-170236533D02*
X144961828Y-170284152D01*
X144961828Y-170284152D02*
X144914209Y-170331771D01*
X144914209Y-170331771D02*
X144866590Y-170427009D01*
X95298419Y-116986857D02*
X94822228Y-117320190D01*
X95298419Y-117558285D02*
X94298419Y-117558285D01*
X94298419Y-117558285D02*
X94298419Y-117177333D01*
X94298419Y-117177333D02*
X94346038Y-117082095D01*
X94346038Y-117082095D02*
X94393657Y-117034476D01*
X94393657Y-117034476D02*
X94488895Y-116986857D01*
X94488895Y-116986857D02*
X94631752Y-116986857D01*
X94631752Y-116986857D02*
X94726990Y-117034476D01*
X94726990Y-117034476D02*
X94774609Y-117082095D01*
X94774609Y-117082095D02*
X94822228Y-117177333D01*
X94822228Y-117177333D02*
X94822228Y-117558285D01*
X95298419Y-116034476D02*
X95298419Y-116605904D01*
X95298419Y-116320190D02*
X94298419Y-116320190D01*
X94298419Y-116320190D02*
X94441276Y-116415428D01*
X94441276Y-116415428D02*
X94536514Y-116510666D01*
X94536514Y-116510666D02*
X94584133Y-116605904D01*
X94298419Y-115129714D02*
X94298419Y-115605904D01*
X94298419Y-115605904D02*
X94774609Y-115653523D01*
X94774609Y-115653523D02*
X94726990Y-115605904D01*
X94726990Y-115605904D02*
X94679371Y-115510666D01*
X94679371Y-115510666D02*
X94679371Y-115272571D01*
X94679371Y-115272571D02*
X94726990Y-115177333D01*
X94726990Y-115177333D02*
X94774609Y-115129714D01*
X94774609Y-115129714D02*
X94869847Y-115082095D01*
X94869847Y-115082095D02*
X95107942Y-115082095D01*
X95107942Y-115082095D02*
X95203180Y-115129714D01*
X95203180Y-115129714D02*
X95250800Y-115177333D01*
X95250800Y-115177333D02*
X95298419Y-115272571D01*
X95298419Y-115272571D02*
X95298419Y-115510666D01*
X95298419Y-115510666D02*
X95250800Y-115605904D01*
X95250800Y-115605904D02*
X95203180Y-115653523D01*
X99063980Y-158261857D02*
X99111600Y-158309476D01*
X99111600Y-158309476D02*
X99159219Y-158452333D01*
X99159219Y-158452333D02*
X99159219Y-158547571D01*
X99159219Y-158547571D02*
X99111600Y-158690428D01*
X99111600Y-158690428D02*
X99016361Y-158785666D01*
X99016361Y-158785666D02*
X98921123Y-158833285D01*
X98921123Y-158833285D02*
X98730647Y-158880904D01*
X98730647Y-158880904D02*
X98587790Y-158880904D01*
X98587790Y-158880904D02*
X98397314Y-158833285D01*
X98397314Y-158833285D02*
X98302076Y-158785666D01*
X98302076Y-158785666D02*
X98206838Y-158690428D01*
X98206838Y-158690428D02*
X98159219Y-158547571D01*
X98159219Y-158547571D02*
X98159219Y-158452333D01*
X98159219Y-158452333D02*
X98206838Y-158309476D01*
X98206838Y-158309476D02*
X98254457Y-158261857D01*
X99159219Y-157309476D02*
X99159219Y-157880904D01*
X99159219Y-157595190D02*
X98159219Y-157595190D01*
X98159219Y-157595190D02*
X98302076Y-157690428D01*
X98302076Y-157690428D02*
X98397314Y-157785666D01*
X98397314Y-157785666D02*
X98444933Y-157880904D01*
X99159219Y-156357095D02*
X99159219Y-156928523D01*
X99159219Y-156642809D02*
X98159219Y-156642809D01*
X98159219Y-156642809D02*
X98302076Y-156738047D01*
X98302076Y-156738047D02*
X98397314Y-156833285D01*
X98397314Y-156833285D02*
X98444933Y-156928523D01*
D11*
X125474267Y-104675518D02*
X125474267Y-105582661D01*
X125474267Y-105582661D02*
X125413790Y-105764089D01*
X125413790Y-105764089D02*
X125292838Y-105885042D01*
X125292838Y-105885042D02*
X125111409Y-105945518D01*
X125111409Y-105945518D02*
X124990457Y-105945518D01*
X126623314Y-105098851D02*
X126623314Y-105945518D01*
X126320933Y-104615042D02*
X126018552Y-105522184D01*
X126018552Y-105522184D02*
X126804743Y-105522184D01*
D10*
X91993819Y-64146904D02*
X92803342Y-64146904D01*
X92803342Y-64146904D02*
X92898580Y-64099285D01*
X92898580Y-64099285D02*
X92946200Y-64051666D01*
X92946200Y-64051666D02*
X92993819Y-63956428D01*
X92993819Y-63956428D02*
X92993819Y-63765952D01*
X92993819Y-63765952D02*
X92946200Y-63670714D01*
X92946200Y-63670714D02*
X92898580Y-63623095D01*
X92898580Y-63623095D02*
X92803342Y-63575476D01*
X92803342Y-63575476D02*
X91993819Y-63575476D01*
X92422390Y-62956428D02*
X92374771Y-63051666D01*
X92374771Y-63051666D02*
X92327152Y-63099285D01*
X92327152Y-63099285D02*
X92231914Y-63146904D01*
X92231914Y-63146904D02*
X92184295Y-63146904D01*
X92184295Y-63146904D02*
X92089057Y-63099285D01*
X92089057Y-63099285D02*
X92041438Y-63051666D01*
X92041438Y-63051666D02*
X91993819Y-62956428D01*
X91993819Y-62956428D02*
X91993819Y-62765952D01*
X91993819Y-62765952D02*
X92041438Y-62670714D01*
X92041438Y-62670714D02*
X92089057Y-62623095D01*
X92089057Y-62623095D02*
X92184295Y-62575476D01*
X92184295Y-62575476D02*
X92231914Y-62575476D01*
X92231914Y-62575476D02*
X92327152Y-62623095D01*
X92327152Y-62623095D02*
X92374771Y-62670714D01*
X92374771Y-62670714D02*
X92422390Y-62765952D01*
X92422390Y-62765952D02*
X92422390Y-62956428D01*
X92422390Y-62956428D02*
X92470009Y-63051666D01*
X92470009Y-63051666D02*
X92517628Y-63099285D01*
X92517628Y-63099285D02*
X92612866Y-63146904D01*
X92612866Y-63146904D02*
X92803342Y-63146904D01*
X92803342Y-63146904D02*
X92898580Y-63099285D01*
X92898580Y-63099285D02*
X92946200Y-63051666D01*
X92946200Y-63051666D02*
X92993819Y-62956428D01*
X92993819Y-62956428D02*
X92993819Y-62765952D01*
X92993819Y-62765952D02*
X92946200Y-62670714D01*
X92946200Y-62670714D02*
X92898580Y-62623095D01*
X92898580Y-62623095D02*
X92803342Y-62575476D01*
X92803342Y-62575476D02*
X92612866Y-62575476D01*
X92612866Y-62575476D02*
X92517628Y-62623095D01*
X92517628Y-62623095D02*
X92470009Y-62670714D01*
X92470009Y-62670714D02*
X92422390Y-62765952D01*
X101357133Y-135270980D02*
X101309514Y-135318600D01*
X101309514Y-135318600D02*
X101166657Y-135366219D01*
X101166657Y-135366219D02*
X101071419Y-135366219D01*
X101071419Y-135366219D02*
X100928562Y-135318600D01*
X100928562Y-135318600D02*
X100833324Y-135223361D01*
X100833324Y-135223361D02*
X100785705Y-135128123D01*
X100785705Y-135128123D02*
X100738086Y-134937647D01*
X100738086Y-134937647D02*
X100738086Y-134794790D01*
X100738086Y-134794790D02*
X100785705Y-134604314D01*
X100785705Y-134604314D02*
X100833324Y-134509076D01*
X100833324Y-134509076D02*
X100928562Y-134413838D01*
X100928562Y-134413838D02*
X101071419Y-134366219D01*
X101071419Y-134366219D02*
X101166657Y-134366219D01*
X101166657Y-134366219D02*
X101309514Y-134413838D01*
X101309514Y-134413838D02*
X101357133Y-134461457D01*
X102309514Y-135366219D02*
X101738086Y-135366219D01*
X102023800Y-135366219D02*
X102023800Y-134366219D01*
X102023800Y-134366219D02*
X101928562Y-134509076D01*
X101928562Y-134509076D02*
X101833324Y-134604314D01*
X101833324Y-134604314D02*
X101738086Y-134651933D01*
X155911561Y-81156257D02*
X155816323Y-81108638D01*
X155816323Y-81108638D02*
X155721085Y-81013400D01*
X155721085Y-81013400D02*
X155578228Y-80870542D01*
X155578228Y-80870542D02*
X155482990Y-80822923D01*
X155482990Y-80822923D02*
X155387752Y-80822923D01*
X155435371Y-81061019D02*
X155340133Y-81013400D01*
X155340133Y-81013400D02*
X155244895Y-80918161D01*
X155244895Y-80918161D02*
X155197276Y-80727685D01*
X155197276Y-80727685D02*
X155197276Y-80394352D01*
X155197276Y-80394352D02*
X155244895Y-80203876D01*
X155244895Y-80203876D02*
X155340133Y-80108638D01*
X155340133Y-80108638D02*
X155435371Y-80061019D01*
X155435371Y-80061019D02*
X155625847Y-80061019D01*
X155625847Y-80061019D02*
X155721085Y-80108638D01*
X155721085Y-80108638D02*
X155816323Y-80203876D01*
X155816323Y-80203876D02*
X155863942Y-80394352D01*
X155863942Y-80394352D02*
X155863942Y-80727685D01*
X155863942Y-80727685D02*
X155816323Y-80918161D01*
X155816323Y-80918161D02*
X155721085Y-81013400D01*
X155721085Y-81013400D02*
X155625847Y-81061019D01*
X155625847Y-81061019D02*
X155435371Y-81061019D01*
X156816323Y-81061019D02*
X156244895Y-81061019D01*
X156530609Y-81061019D02*
X156530609Y-80061019D01*
X156530609Y-80061019D02*
X156435371Y-80203876D01*
X156435371Y-80203876D02*
X156340133Y-80299114D01*
X156340133Y-80299114D02*
X156244895Y-80346733D01*
X155465542Y-84058219D02*
X155132209Y-83582028D01*
X154894114Y-84058219D02*
X154894114Y-83058219D01*
X154894114Y-83058219D02*
X155275066Y-83058219D01*
X155275066Y-83058219D02*
X155370304Y-83105838D01*
X155370304Y-83105838D02*
X155417923Y-83153457D01*
X155417923Y-83153457D02*
X155465542Y-83248695D01*
X155465542Y-83248695D02*
X155465542Y-83391552D01*
X155465542Y-83391552D02*
X155417923Y-83486790D01*
X155417923Y-83486790D02*
X155370304Y-83534409D01*
X155370304Y-83534409D02*
X155275066Y-83582028D01*
X155275066Y-83582028D02*
X154894114Y-83582028D01*
X156417923Y-84058219D02*
X155846495Y-84058219D01*
X156132209Y-84058219D02*
X156132209Y-83058219D01*
X156132209Y-83058219D02*
X156036971Y-83201076D01*
X156036971Y-83201076D02*
X155941733Y-83296314D01*
X155941733Y-83296314D02*
X155846495Y-83343933D01*
X157370304Y-84058219D02*
X156798876Y-84058219D01*
X157084590Y-84058219D02*
X157084590Y-83058219D01*
X157084590Y-83058219D02*
X156989352Y-83201076D01*
X156989352Y-83201076D02*
X156894114Y-83296314D01*
X156894114Y-83296314D02*
X156798876Y-83343933D01*
X157237133Y-154949619D02*
X156903800Y-154473428D01*
X156665705Y-154949619D02*
X156665705Y-153949619D01*
X156665705Y-153949619D02*
X157046657Y-153949619D01*
X157046657Y-153949619D02*
X157141895Y-153997238D01*
X157141895Y-153997238D02*
X157189514Y-154044857D01*
X157189514Y-154044857D02*
X157237133Y-154140095D01*
X157237133Y-154140095D02*
X157237133Y-154282952D01*
X157237133Y-154282952D02*
X157189514Y-154378190D01*
X157189514Y-154378190D02*
X157141895Y-154425809D01*
X157141895Y-154425809D02*
X157046657Y-154473428D01*
X157046657Y-154473428D02*
X156665705Y-154473428D01*
X158094276Y-154282952D02*
X158094276Y-154949619D01*
X157856181Y-153902000D02*
X157618086Y-154616285D01*
X157618086Y-154616285D02*
X158237133Y-154616285D01*
X84629666Y-143240419D02*
X84629666Y-143954704D01*
X84629666Y-143954704D02*
X84582047Y-144097561D01*
X84582047Y-144097561D02*
X84486809Y-144192800D01*
X84486809Y-144192800D02*
X84343952Y-144240419D01*
X84343952Y-144240419D02*
X84248714Y-144240419D01*
X85629666Y-144240419D02*
X85058238Y-144240419D01*
X85343952Y-144240419D02*
X85343952Y-143240419D01*
X85343952Y-143240419D02*
X85248714Y-143383276D01*
X85248714Y-143383276D02*
X85153476Y-143478514D01*
X85153476Y-143478514D02*
X85058238Y-143526133D01*
X155796780Y-115962666D02*
X155844400Y-116010285D01*
X155844400Y-116010285D02*
X155892019Y-116153142D01*
X155892019Y-116153142D02*
X155892019Y-116248380D01*
X155892019Y-116248380D02*
X155844400Y-116391237D01*
X155844400Y-116391237D02*
X155749161Y-116486475D01*
X155749161Y-116486475D02*
X155653923Y-116534094D01*
X155653923Y-116534094D02*
X155463447Y-116581713D01*
X155463447Y-116581713D02*
X155320590Y-116581713D01*
X155320590Y-116581713D02*
X155130114Y-116534094D01*
X155130114Y-116534094D02*
X155034876Y-116486475D01*
X155034876Y-116486475D02*
X154939638Y-116391237D01*
X154939638Y-116391237D02*
X154892019Y-116248380D01*
X154892019Y-116248380D02*
X154892019Y-116153142D01*
X154892019Y-116153142D02*
X154939638Y-116010285D01*
X154939638Y-116010285D02*
X154987257Y-115962666D01*
X154892019Y-115629332D02*
X154892019Y-115010285D01*
X154892019Y-115010285D02*
X155272971Y-115343618D01*
X155272971Y-115343618D02*
X155272971Y-115200761D01*
X155272971Y-115200761D02*
X155320590Y-115105523D01*
X155320590Y-115105523D02*
X155368209Y-115057904D01*
X155368209Y-115057904D02*
X155463447Y-115010285D01*
X155463447Y-115010285D02*
X155701542Y-115010285D01*
X155701542Y-115010285D02*
X155796780Y-115057904D01*
X155796780Y-115057904D02*
X155844400Y-115105523D01*
X155844400Y-115105523D02*
X155892019Y-115200761D01*
X155892019Y-115200761D02*
X155892019Y-115486475D01*
X155892019Y-115486475D02*
X155844400Y-115581713D01*
X155844400Y-115581713D02*
X155796780Y-115629332D01*
X147675695Y-123215619D02*
X147675695Y-124025142D01*
X147675695Y-124025142D02*
X147723314Y-124120380D01*
X147723314Y-124120380D02*
X147770933Y-124168000D01*
X147770933Y-124168000D02*
X147866171Y-124215619D01*
X147866171Y-124215619D02*
X148056647Y-124215619D01*
X148056647Y-124215619D02*
X148151885Y-124168000D01*
X148151885Y-124168000D02*
X148199504Y-124120380D01*
X148199504Y-124120380D02*
X148247123Y-124025142D01*
X148247123Y-124025142D02*
X148247123Y-123215619D01*
X148675695Y-123310857D02*
X148723314Y-123263238D01*
X148723314Y-123263238D02*
X148818552Y-123215619D01*
X148818552Y-123215619D02*
X149056647Y-123215619D01*
X149056647Y-123215619D02*
X149151885Y-123263238D01*
X149151885Y-123263238D02*
X149199504Y-123310857D01*
X149199504Y-123310857D02*
X149247123Y-123406095D01*
X149247123Y-123406095D02*
X149247123Y-123501333D01*
X149247123Y-123501333D02*
X149199504Y-123644190D01*
X149199504Y-123644190D02*
X148628076Y-124215619D01*
X148628076Y-124215619D02*
X149247123Y-124215619D01*
X123766342Y-95048180D02*
X123718723Y-95095800D01*
X123718723Y-95095800D02*
X123575866Y-95143419D01*
X123575866Y-95143419D02*
X123480628Y-95143419D01*
X123480628Y-95143419D02*
X123337771Y-95095800D01*
X123337771Y-95095800D02*
X123242533Y-95000561D01*
X123242533Y-95000561D02*
X123194914Y-94905323D01*
X123194914Y-94905323D02*
X123147295Y-94714847D01*
X123147295Y-94714847D02*
X123147295Y-94571990D01*
X123147295Y-94571990D02*
X123194914Y-94381514D01*
X123194914Y-94381514D02*
X123242533Y-94286276D01*
X123242533Y-94286276D02*
X123337771Y-94191038D01*
X123337771Y-94191038D02*
X123480628Y-94143419D01*
X123480628Y-94143419D02*
X123575866Y-94143419D01*
X123575866Y-94143419D02*
X123718723Y-94191038D01*
X123718723Y-94191038D02*
X123766342Y-94238657D01*
X124718723Y-95143419D02*
X124147295Y-95143419D01*
X124433009Y-95143419D02*
X124433009Y-94143419D01*
X124433009Y-94143419D02*
X124337771Y-94286276D01*
X124337771Y-94286276D02*
X124242533Y-94381514D01*
X124242533Y-94381514D02*
X124147295Y-94429133D01*
X125052057Y-94143419D02*
X125671104Y-94143419D01*
X125671104Y-94143419D02*
X125337771Y-94524371D01*
X125337771Y-94524371D02*
X125480628Y-94524371D01*
X125480628Y-94524371D02*
X125575866Y-94571990D01*
X125575866Y-94571990D02*
X125623485Y-94619609D01*
X125623485Y-94619609D02*
X125671104Y-94714847D01*
X125671104Y-94714847D02*
X125671104Y-94952942D01*
X125671104Y-94952942D02*
X125623485Y-95048180D01*
X125623485Y-95048180D02*
X125575866Y-95095800D01*
X125575866Y-95095800D02*
X125480628Y-95143419D01*
X125480628Y-95143419D02*
X125194914Y-95143419D01*
X125194914Y-95143419D02*
X125099676Y-95095800D01*
X125099676Y-95095800D02*
X125052057Y-95048180D01*
X161504333Y-121346303D02*
X161456714Y-121393923D01*
X161456714Y-121393923D02*
X161313857Y-121441542D01*
X161313857Y-121441542D02*
X161218619Y-121441542D01*
X161218619Y-121441542D02*
X161075762Y-121393923D01*
X161075762Y-121393923D02*
X160980524Y-121298684D01*
X160980524Y-121298684D02*
X160932905Y-121203446D01*
X160932905Y-121203446D02*
X160885286Y-121012970D01*
X160885286Y-121012970D02*
X160885286Y-120870113D01*
X160885286Y-120870113D02*
X160932905Y-120679637D01*
X160932905Y-120679637D02*
X160980524Y-120584399D01*
X160980524Y-120584399D02*
X161075762Y-120489161D01*
X161075762Y-120489161D02*
X161218619Y-120441542D01*
X161218619Y-120441542D02*
X161313857Y-120441542D01*
X161313857Y-120441542D02*
X161456714Y-120489161D01*
X161456714Y-120489161D02*
X161504333Y-120536780D01*
X161885286Y-120536780D02*
X161932905Y-120489161D01*
X161932905Y-120489161D02*
X162028143Y-120441542D01*
X162028143Y-120441542D02*
X162266238Y-120441542D01*
X162266238Y-120441542D02*
X162361476Y-120489161D01*
X162361476Y-120489161D02*
X162409095Y-120536780D01*
X162409095Y-120536780D02*
X162456714Y-120632018D01*
X162456714Y-120632018D02*
X162456714Y-120727256D01*
X162456714Y-120727256D02*
X162409095Y-120870113D01*
X162409095Y-120870113D02*
X161837667Y-121441542D01*
X161837667Y-121441542D02*
X162456714Y-121441542D01*
D12*
%TO.C,U4*%
X160715000Y-158645600D02*
X130115000Y-158645600D01*
X130115000Y-163145600D02*
X160715000Y-163145600D01*
X160715000Y-159895600D02*
X160715000Y-158645600D01*
X160715000Y-163145600D02*
X160715000Y-161895600D01*
X130115000Y-158645600D02*
X130115000Y-163145600D01*
X160715000Y-159895600D02*
G75*
G03*
X160715000Y-161895600I0J-1000000D01*
G01*
%TO.C,Y1*%
X147812200Y-97558400D02*
X141412200Y-97558400D01*
X147812200Y-92508400D02*
X141412200Y-92508400D01*
X147812200Y-97558400D02*
G75*
G03*
X147812200Y-92508400I0J2525000D01*
G01*
X141412200Y-92508400D02*
G75*
G03*
X141412200Y-97558400I0J-2525000D01*
G01*
%TO.C,R6*%
X149434800Y-146724000D02*
X155974800Y-146724000D01*
X149434800Y-147054000D02*
X149434800Y-146724000D01*
X149434800Y-149134000D02*
X149434800Y-149464000D01*
X149434800Y-149464000D02*
X155974800Y-149464000D01*
X155974800Y-146724000D02*
X155974800Y-147054000D01*
X155974800Y-149464000D02*
X155974800Y-149134000D01*
%TO.C,C4*%
X163996723Y-155668575D02*
X163996723Y-155168575D01*
X163746723Y-155418575D02*
X164246723Y-155418575D01*
X162891723Y-152863800D02*
X168051723Y-152863800D01*
X162891723Y-152823800D02*
X168051723Y-152823800D01*
X162892723Y-152783800D02*
X168050723Y-152783800D01*
X162893723Y-152743800D02*
X168049723Y-152743800D01*
X162895723Y-152703800D02*
X168047723Y-152703800D01*
X162898723Y-152663800D02*
X168044723Y-152663800D01*
X162902723Y-152623800D02*
X164431723Y-152623800D01*
X166511723Y-152623800D02*
X168040723Y-152623800D01*
X162906723Y-152583800D02*
X164431723Y-152583800D01*
X166511723Y-152583800D02*
X168036723Y-152583800D01*
X162910723Y-152543800D02*
X164431723Y-152543800D01*
X166511723Y-152543800D02*
X168032723Y-152543800D01*
X162915723Y-152503800D02*
X164431723Y-152503800D01*
X166511723Y-152503800D02*
X168027723Y-152503800D01*
X162921723Y-152463800D02*
X164431723Y-152463800D01*
X166511723Y-152463800D02*
X168021723Y-152463800D01*
X162928723Y-152423800D02*
X164431723Y-152423800D01*
X166511723Y-152423800D02*
X168014723Y-152423800D01*
X162935723Y-152383800D02*
X164431723Y-152383800D01*
X166511723Y-152383800D02*
X168007723Y-152383800D01*
X162943723Y-152343800D02*
X164431723Y-152343800D01*
X166511723Y-152343800D02*
X167999723Y-152343800D01*
X162951723Y-152303800D02*
X164431723Y-152303800D01*
X166511723Y-152303800D02*
X167991723Y-152303800D01*
X162960723Y-152263800D02*
X164431723Y-152263800D01*
X166511723Y-152263800D02*
X167982723Y-152263800D01*
X162970723Y-152223800D02*
X164431723Y-152223800D01*
X166511723Y-152223800D02*
X167972723Y-152223800D01*
X162980723Y-152183800D02*
X164431723Y-152183800D01*
X166511723Y-152183800D02*
X167962723Y-152183800D01*
X162991723Y-152142800D02*
X164431723Y-152142800D01*
X166511723Y-152142800D02*
X167951723Y-152142800D01*
X163003723Y-152102800D02*
X164431723Y-152102800D01*
X166511723Y-152102800D02*
X167939723Y-152102800D01*
X163016723Y-152062800D02*
X164431723Y-152062800D01*
X166511723Y-152062800D02*
X167926723Y-152062800D01*
X163029723Y-152022800D02*
X164431723Y-152022800D01*
X166511723Y-152022800D02*
X167913723Y-152022800D01*
X163043723Y-151982800D02*
X164431723Y-151982800D01*
X166511723Y-151982800D02*
X167899723Y-151982800D01*
X163057723Y-151942800D02*
X164431723Y-151942800D01*
X166511723Y-151942800D02*
X167885723Y-151942800D01*
X163073723Y-151902800D02*
X164431723Y-151902800D01*
X166511723Y-151902800D02*
X167869723Y-151902800D01*
X163089723Y-151862800D02*
X164431723Y-151862800D01*
X166511723Y-151862800D02*
X167853723Y-151862800D01*
X163106723Y-151822800D02*
X164431723Y-151822800D01*
X166511723Y-151822800D02*
X167836723Y-151822800D01*
X163123723Y-151782800D02*
X164431723Y-151782800D01*
X166511723Y-151782800D02*
X167819723Y-151782800D01*
X163142723Y-151742800D02*
X164431723Y-151742800D01*
X166511723Y-151742800D02*
X167800723Y-151742800D01*
X163161723Y-151702800D02*
X164431723Y-151702800D01*
X166511723Y-151702800D02*
X167781723Y-151702800D01*
X163181723Y-151662800D02*
X164431723Y-151662800D01*
X166511723Y-151662800D02*
X167761723Y-151662800D01*
X163203723Y-151622800D02*
X164431723Y-151622800D01*
X166511723Y-151622800D02*
X167739723Y-151622800D01*
X163224723Y-151582800D02*
X164431723Y-151582800D01*
X166511723Y-151582800D02*
X167718723Y-151582800D01*
X163247723Y-151542800D02*
X164431723Y-151542800D01*
X166511723Y-151542800D02*
X167695723Y-151542800D01*
X163271723Y-151502800D02*
X164431723Y-151502800D01*
X166511723Y-151502800D02*
X167671723Y-151502800D01*
X163296723Y-151462800D02*
X164431723Y-151462800D01*
X166511723Y-151462800D02*
X167646723Y-151462800D01*
X163322723Y-151422800D02*
X164431723Y-151422800D01*
X166511723Y-151422800D02*
X167620723Y-151422800D01*
X163349723Y-151382800D02*
X164431723Y-151382800D01*
X166511723Y-151382800D02*
X167593723Y-151382800D01*
X163376723Y-151342800D02*
X164431723Y-151342800D01*
X166511723Y-151342800D02*
X167566723Y-151342800D01*
X163406723Y-151302800D02*
X164431723Y-151302800D01*
X166511723Y-151302800D02*
X167536723Y-151302800D01*
X163436723Y-151262800D02*
X164431723Y-151262800D01*
X166511723Y-151262800D02*
X167506723Y-151262800D01*
X163467723Y-151222800D02*
X164431723Y-151222800D01*
X166511723Y-151222800D02*
X167475723Y-151222800D01*
X163500723Y-151182800D02*
X164431723Y-151182800D01*
X166511723Y-151182800D02*
X167442723Y-151182800D01*
X163534723Y-151142800D02*
X164431723Y-151142800D01*
X166511723Y-151142800D02*
X167408723Y-151142800D01*
X163570723Y-151102800D02*
X164431723Y-151102800D01*
X166511723Y-151102800D02*
X167372723Y-151102800D01*
X163607723Y-151062800D02*
X164431723Y-151062800D01*
X166511723Y-151062800D02*
X167335723Y-151062800D01*
X163645723Y-151022800D02*
X164431723Y-151022800D01*
X166511723Y-151022800D02*
X167297723Y-151022800D01*
X163686723Y-150982800D02*
X164431723Y-150982800D01*
X166511723Y-150982800D02*
X167256723Y-150982800D01*
X163728723Y-150942800D02*
X164431723Y-150942800D01*
X166511723Y-150942800D02*
X167214723Y-150942800D01*
X163772723Y-150902800D02*
X164431723Y-150902800D01*
X166511723Y-150902800D02*
X167170723Y-150902800D01*
X163818723Y-150862800D02*
X164431723Y-150862800D01*
X166511723Y-150862800D02*
X167124723Y-150862800D01*
X163866723Y-150822800D02*
X164431723Y-150822800D01*
X166511723Y-150822800D02*
X167076723Y-150822800D01*
X163917723Y-150782800D02*
X164431723Y-150782800D01*
X166511723Y-150782800D02*
X167025723Y-150782800D01*
X163971723Y-150742800D02*
X164431723Y-150742800D01*
X166511723Y-150742800D02*
X166971723Y-150742800D01*
X164028723Y-150702800D02*
X164431723Y-150702800D01*
X166511723Y-150702800D02*
X166914723Y-150702800D01*
X164088723Y-150662800D02*
X164431723Y-150662800D01*
X166511723Y-150662800D02*
X166854723Y-150662800D01*
X164152723Y-150622800D02*
X164431723Y-150622800D01*
X166511723Y-150622800D02*
X166790723Y-150622800D01*
X164220723Y-150582800D02*
X164431723Y-150582800D01*
X166511723Y-150582800D02*
X166722723Y-150582800D01*
X164293723Y-150542800D02*
X166649723Y-150542800D01*
X164373723Y-150502800D02*
X166569723Y-150502800D01*
X164460723Y-150462800D02*
X166482723Y-150462800D01*
X164556723Y-150422800D02*
X166386723Y-150422800D01*
X164666723Y-150382800D02*
X166276723Y-150382800D01*
X164794723Y-150342800D02*
X166148723Y-150342800D01*
X164953723Y-150302800D02*
X165989723Y-150302800D01*
X165187723Y-150262800D02*
X165755723Y-150262800D01*
X168091723Y-152863800D02*
G75*
G03*
X168091723Y-152863800I-2620000J0D01*
G01*
%TO.C,U6*%
X146084600Y-75460600D02*
X95164600Y-75460600D01*
X95164600Y-75460600D02*
X95164600Y-87580600D01*
X146084600Y-80520600D02*
X146084600Y-75460600D01*
X146084600Y-87580600D02*
X146084600Y-82520600D01*
X95164600Y-87580600D02*
X146084600Y-87580600D01*
X146084600Y-80520600D02*
G75*
G03*
X146084600Y-82520600I0J-1000000D01*
G01*
D13*
%TO.C,J3*%
X150702000Y-67185900D02*
X150702000Y-59685900D01*
X153202000Y-67185900D02*
X150702000Y-67185900D01*
X158202000Y-67185900D02*
X160702000Y-67185900D01*
X160702000Y-67185900D02*
X160702000Y-59685900D01*
D14*
X161302000Y-61085900D02*
X161302000Y-61085900D01*
X161502000Y-61085900D02*
X161502000Y-61085900D01*
D13*
X157702000Y-57185900D02*
X153702000Y-57185900D01*
D14*
X161502000Y-61085900D02*
G75*
G03*
X161302000Y-61085900I-100000J0D01*
G01*
X161302000Y-61085900D02*
G75*
G03*
X161502000Y-61085900I100000J0D01*
G01*
D12*
%TO.C,J5*%
X93961069Y-70038200D02*
X93961069Y-101008200D01*
X81621069Y-70038200D02*
X93961069Y-70038200D01*
X94855407Y-79733200D02*
X94855407Y-80233200D01*
X94422394Y-79983200D02*
X94855407Y-79733200D01*
X94855407Y-80233200D02*
X94422394Y-79983200D01*
X93961069Y-101008200D02*
X81621069Y-101008200D01*
%TO.C,R14*%
X98882200Y-127978600D02*
X98882200Y-127208600D01*
X97512200Y-127208600D02*
X100252200Y-127208600D01*
X100252200Y-127208600D02*
X100252200Y-120668600D01*
X97512200Y-120668600D02*
X97512200Y-127208600D01*
X100252200Y-120668600D02*
X97512200Y-120668600D01*
X98882200Y-119898600D02*
X98882200Y-120668600D01*
%TO.C,U1*%
X162098400Y-134709000D02*
X162098400Y-144989000D01*
X162098400Y-144989000D02*
X166598400Y-144989000D01*
X163348400Y-134709000D02*
X162098400Y-134709000D01*
X166598400Y-134709000D02*
X165348400Y-134709000D01*
X166598400Y-144989000D02*
X166598400Y-134709000D01*
X163348400Y-134709000D02*
G75*
G03*
X165348400Y-134709000I1000000J0D01*
G01*
%TO.C,U7*%
X121402800Y-65635000D02*
X144382800Y-65635000D01*
X144382800Y-65635000D02*
X144382800Y-61135000D01*
X121402800Y-64385000D02*
X121402800Y-65635000D01*
X121402800Y-61135000D02*
X121402800Y-62385000D01*
X144382800Y-61135000D02*
X121402800Y-61135000D01*
X121402800Y-64385000D02*
G75*
G03*
X121402800Y-62385000I0J1000000D01*
G01*
%TO.C,C5*%
X161702051Y-123122200D02*
X162502051Y-123122200D01*
X162102051Y-122722200D02*
X162102051Y-123522200D01*
X166111749Y-121357200D02*
X166111749Y-129517200D01*
X166151749Y-121357200D02*
X166151749Y-129517200D01*
X166191749Y-121357200D02*
X166191749Y-129517200D01*
X166231749Y-121358200D02*
X166231749Y-129516200D01*
X166271749Y-121360200D02*
X166271749Y-129514200D01*
X166311749Y-121361200D02*
X166311749Y-129513200D01*
X166351749Y-121363200D02*
X166351749Y-129511200D01*
X166391749Y-121366200D02*
X166391749Y-129508200D01*
X166431749Y-121369200D02*
X166431749Y-129505200D01*
X166471749Y-121372200D02*
X166471749Y-129502200D01*
X166511749Y-121376200D02*
X166511749Y-129498200D01*
X166551749Y-121380200D02*
X166551749Y-129494200D01*
X166591749Y-121385200D02*
X166591749Y-129489200D01*
X166631749Y-121389200D02*
X166631749Y-129485200D01*
X166671749Y-121395200D02*
X166671749Y-129479200D01*
X166711749Y-121400200D02*
X166711749Y-129474200D01*
X166751749Y-121407200D02*
X166751749Y-129467200D01*
X166791749Y-121413200D02*
X166791749Y-129461200D01*
X166832749Y-121420200D02*
X166832749Y-129454200D01*
X166872749Y-121427200D02*
X166872749Y-129447200D01*
X166912749Y-121435200D02*
X166912749Y-129439200D01*
X166952749Y-121443200D02*
X166952749Y-129431200D01*
X166992749Y-121452200D02*
X166992749Y-129422200D01*
X167032749Y-121461200D02*
X167032749Y-129413200D01*
X167072749Y-121470200D02*
X167072749Y-129404200D01*
X167112749Y-121480200D02*
X167112749Y-129394200D01*
X167152749Y-121490200D02*
X167152749Y-129384200D01*
X167192749Y-121501200D02*
X167192749Y-129373200D01*
X167232749Y-121512200D02*
X167232749Y-129362200D01*
X167272749Y-121523200D02*
X167272749Y-129351200D01*
X167312749Y-121535200D02*
X167312749Y-129339200D01*
X167352749Y-121548200D02*
X167352749Y-129326200D01*
X167392749Y-121560200D02*
X167392749Y-129314200D01*
X167432749Y-121574200D02*
X167432749Y-129300200D01*
X167472749Y-121587200D02*
X167472749Y-129287200D01*
X167512749Y-121602200D02*
X167512749Y-129272200D01*
X167552749Y-121616200D02*
X167552749Y-129258200D01*
X167592749Y-121632200D02*
X167592749Y-124397200D01*
X167592749Y-126477200D02*
X167592749Y-129242200D01*
X167632749Y-121647200D02*
X167632749Y-124397200D01*
X167632749Y-126477200D02*
X167632749Y-129227200D01*
X167672749Y-121663200D02*
X167672749Y-124397200D01*
X167672749Y-126477200D02*
X167672749Y-129211200D01*
X167712749Y-121680200D02*
X167712749Y-124397200D01*
X167712749Y-126477200D02*
X167712749Y-129194200D01*
X167752749Y-121697200D02*
X167752749Y-124397200D01*
X167752749Y-126477200D02*
X167752749Y-129177200D01*
X167792749Y-121715200D02*
X167792749Y-124397200D01*
X167792749Y-126477200D02*
X167792749Y-129159200D01*
X167832749Y-121733200D02*
X167832749Y-124397200D01*
X167832749Y-126477200D02*
X167832749Y-129141200D01*
X167872749Y-121751200D02*
X167872749Y-124397200D01*
X167872749Y-126477200D02*
X167872749Y-129123200D01*
X167912749Y-121771200D02*
X167912749Y-124397200D01*
X167912749Y-126477200D02*
X167912749Y-129103200D01*
X167952749Y-121790200D02*
X167952749Y-124397200D01*
X167952749Y-126477200D02*
X167952749Y-129084200D01*
X167992749Y-121810200D02*
X167992749Y-124397200D01*
X167992749Y-126477200D02*
X167992749Y-129064200D01*
X168032749Y-121831200D02*
X168032749Y-124397200D01*
X168032749Y-126477200D02*
X168032749Y-129043200D01*
X168072749Y-121853200D02*
X168072749Y-124397200D01*
X168072749Y-126477200D02*
X168072749Y-129021200D01*
X168112749Y-121875200D02*
X168112749Y-124397200D01*
X168112749Y-126477200D02*
X168112749Y-128999200D01*
X168152749Y-121897200D02*
X168152749Y-124397200D01*
X168152749Y-126477200D02*
X168152749Y-128977200D01*
X168192749Y-121920200D02*
X168192749Y-124397200D01*
X168192749Y-126477200D02*
X168192749Y-128954200D01*
X168232749Y-121944200D02*
X168232749Y-124397200D01*
X168232749Y-126477200D02*
X168232749Y-128930200D01*
X168272749Y-121968200D02*
X168272749Y-124397200D01*
X168272749Y-126477200D02*
X168272749Y-128906200D01*
X168312749Y-121993200D02*
X168312749Y-124397200D01*
X168312749Y-126477200D02*
X168312749Y-128881200D01*
X168352749Y-122019200D02*
X168352749Y-124397200D01*
X168352749Y-126477200D02*
X168352749Y-128855200D01*
X168392749Y-122045200D02*
X168392749Y-124397200D01*
X168392749Y-126477200D02*
X168392749Y-128829200D01*
X168432749Y-122072200D02*
X168432749Y-124397200D01*
X168432749Y-126477200D02*
X168432749Y-128802200D01*
X168472749Y-122099200D02*
X168472749Y-124397200D01*
X168472749Y-126477200D02*
X168472749Y-128775200D01*
X168512749Y-122128200D02*
X168512749Y-124397200D01*
X168512749Y-126477200D02*
X168512749Y-128746200D01*
X168552749Y-122157200D02*
X168552749Y-124397200D01*
X168552749Y-126477200D02*
X168552749Y-128717200D01*
X168592749Y-122187200D02*
X168592749Y-124397200D01*
X168592749Y-126477200D02*
X168592749Y-128687200D01*
X168632749Y-122217200D02*
X168632749Y-124397200D01*
X168632749Y-126477200D02*
X168632749Y-128657200D01*
X168672749Y-122248200D02*
X168672749Y-124397200D01*
X168672749Y-126477200D02*
X168672749Y-128626200D01*
X168712749Y-122281200D02*
X168712749Y-124397200D01*
X168712749Y-126477200D02*
X168712749Y-128593200D01*
X168752749Y-122313200D02*
X168752749Y-124397200D01*
X168752749Y-126477200D02*
X168752749Y-128561200D01*
X168792749Y-122347200D02*
X168792749Y-124397200D01*
X168792749Y-126477200D02*
X168792749Y-128527200D01*
X168832749Y-122382200D02*
X168832749Y-124397200D01*
X168832749Y-126477200D02*
X168832749Y-128492200D01*
X168872749Y-122418200D02*
X168872749Y-124397200D01*
X168872749Y-126477200D02*
X168872749Y-128456200D01*
X168912749Y-122454200D02*
X168912749Y-124397200D01*
X168912749Y-126477200D02*
X168912749Y-128420200D01*
X168952749Y-122492200D02*
X168952749Y-124397200D01*
X168952749Y-126477200D02*
X168952749Y-128382200D01*
X168992749Y-122530200D02*
X168992749Y-124397200D01*
X168992749Y-126477200D02*
X168992749Y-128344200D01*
X169032749Y-122570200D02*
X169032749Y-124397200D01*
X169032749Y-126477200D02*
X169032749Y-128304200D01*
X169072749Y-122611200D02*
X169072749Y-124397200D01*
X169072749Y-126477200D02*
X169072749Y-128263200D01*
X169112749Y-122653200D02*
X169112749Y-124397200D01*
X169112749Y-126477200D02*
X169112749Y-128221200D01*
X169152749Y-122696200D02*
X169152749Y-124397200D01*
X169152749Y-126477200D02*
X169152749Y-128178200D01*
X169192749Y-122740200D02*
X169192749Y-124397200D01*
X169192749Y-126477200D02*
X169192749Y-128134200D01*
X169232749Y-122786200D02*
X169232749Y-124397200D01*
X169232749Y-126477200D02*
X169232749Y-128088200D01*
X169272749Y-122833200D02*
X169272749Y-124397200D01*
X169272749Y-126477200D02*
X169272749Y-128041200D01*
X169312749Y-122881200D02*
X169312749Y-124397200D01*
X169312749Y-126477200D02*
X169312749Y-127993200D01*
X169352749Y-122932200D02*
X169352749Y-124397200D01*
X169352749Y-126477200D02*
X169352749Y-127942200D01*
X169392749Y-122983200D02*
X169392749Y-124397200D01*
X169392749Y-126477200D02*
X169392749Y-127891200D01*
X169432749Y-123037200D02*
X169432749Y-124397200D01*
X169432749Y-126477200D02*
X169432749Y-127837200D01*
X169472749Y-123092200D02*
X169472749Y-124397200D01*
X169472749Y-126477200D02*
X169472749Y-127782200D01*
X169512749Y-123150200D02*
X169512749Y-124397200D01*
X169512749Y-126477200D02*
X169512749Y-127724200D01*
X169552749Y-123209200D02*
X169552749Y-124397200D01*
X169552749Y-126477200D02*
X169552749Y-127665200D01*
X169592749Y-123271200D02*
X169592749Y-124397200D01*
X169592749Y-126477200D02*
X169592749Y-127603200D01*
X169632749Y-123335200D02*
X169632749Y-124397200D01*
X169632749Y-126477200D02*
X169632749Y-127539200D01*
X169672749Y-123403200D02*
X169672749Y-127471200D01*
X169712749Y-123473200D02*
X169712749Y-127401200D01*
X169752749Y-123547200D02*
X169752749Y-127327200D01*
X169792749Y-123624200D02*
X169792749Y-127250200D01*
X169832749Y-123706200D02*
X169832749Y-127168200D01*
X169872749Y-123792200D02*
X169872749Y-127082200D01*
X169912749Y-123885200D02*
X169912749Y-126989200D01*
X169952749Y-123984200D02*
X169952749Y-126890200D01*
X169992749Y-124091200D02*
X169992749Y-126783200D01*
X170032749Y-124208200D02*
X170032749Y-126666200D01*
X170072749Y-124339200D02*
X170072749Y-126535200D01*
X170112749Y-124489200D02*
X170112749Y-126385200D01*
X170152749Y-124669200D02*
X170152749Y-126205200D01*
X170192749Y-124904200D02*
X170192749Y-125970200D01*
X170231749Y-125437200D02*
G75*
G03*
X170231749Y-125437200I-4120000J0D01*
G01*
%TO.C,C10*%
X160363400Y-169707800D02*
X160363400Y-166967800D01*
X160363400Y-169707800D02*
X153123400Y-169707800D01*
X160363400Y-166967800D02*
X153123400Y-166967800D01*
X153123400Y-169707800D02*
X153123400Y-166967800D01*
%TO.C,R10*%
X149434800Y-72606800D02*
X155974800Y-72606800D01*
X149434800Y-72936800D02*
X149434800Y-72606800D01*
X149434800Y-75016800D02*
X149434800Y-75346800D01*
X149434800Y-75346800D02*
X155974800Y-75346800D01*
X155974800Y-72606800D02*
X155974800Y-72936800D01*
X155974800Y-75346800D02*
X155974800Y-75016800D01*
%TO.C,R16*%
X92786200Y-127927800D02*
X92786200Y-127157800D01*
X91416200Y-127157800D02*
X94156200Y-127157800D01*
X94156200Y-127157800D02*
X94156200Y-120617800D01*
X91416200Y-120617800D02*
X91416200Y-127157800D01*
X94156200Y-120617800D02*
X91416200Y-120617800D01*
X92786200Y-119847800D02*
X92786200Y-120617800D01*
%TO.C,J6*%
X87695000Y-130496000D02*
X86365000Y-130496000D01*
X87695000Y-129166000D02*
X87695000Y-130496000D01*
X87695000Y-127896000D02*
X87695000Y-117676000D01*
X87695000Y-127896000D02*
X85095000Y-127896000D01*
X87695000Y-117676000D02*
X82495000Y-117676000D01*
X85095000Y-130496000D02*
X82495000Y-130496000D01*
X85095000Y-127896000D02*
X85095000Y-130496000D01*
X82495000Y-130496000D02*
X82495000Y-117676000D01*
%TO.C,R12*%
X155365200Y-90815400D02*
X148825200Y-90815400D01*
X155365200Y-90485400D02*
X155365200Y-90815400D01*
X155365200Y-88405400D02*
X155365200Y-88075400D01*
X155365200Y-88075400D02*
X148825200Y-88075400D01*
X148825200Y-90815400D02*
X148825200Y-90485400D01*
X148825200Y-88075400D02*
X148825200Y-88405400D01*
%TO.C,C8*%
X156756600Y-122362200D02*
X156756600Y-119622200D01*
X156756600Y-122362200D02*
X149516600Y-122362200D01*
X156756600Y-119622200D02*
X149516600Y-119622200D01*
X149516600Y-122362200D02*
X149516600Y-119622200D01*
%TO.C,C7*%
X162453251Y-130620400D02*
X162453251Y-133360400D01*
X162453251Y-130620400D02*
X169693251Y-130620400D01*
X162453251Y-133360400D02*
X169693251Y-133360400D01*
X169693251Y-130620400D02*
X169693251Y-133360400D01*
%TO.C,R17*%
X89738200Y-127927800D02*
X89738200Y-127157800D01*
X88368200Y-127157800D02*
X91108200Y-127157800D01*
X91108200Y-127157800D02*
X91108200Y-120617800D01*
X88368200Y-120617800D02*
X88368200Y-127157800D01*
X91108200Y-120617800D02*
X88368200Y-120617800D01*
X89738200Y-119847800D02*
X89738200Y-120617800D01*
%TO.C,J7*%
X158195669Y-100825600D02*
X158195669Y-69855600D01*
X170535669Y-100825600D02*
X158195669Y-100825600D01*
X157301331Y-91130600D02*
X157301331Y-90630600D01*
X157734344Y-90880600D02*
X157301331Y-91130600D01*
X157301331Y-90630600D02*
X157734344Y-90880600D01*
X158195669Y-69855600D02*
X170535669Y-69855600D01*
%TO.C,U9*%
X108824200Y-113407200D02*
X108824200Y-148627200D01*
X108824200Y-148627200D02*
X145074200Y-148627200D01*
X109824200Y-112407200D02*
X108824200Y-113407200D01*
X125949200Y-112407200D02*
X109824200Y-112407200D01*
X145074200Y-112407200D02*
X127949200Y-112407200D01*
X145074200Y-148627200D02*
X145074200Y-112407200D01*
%TO.C,C16*%
X137826000Y-94404400D02*
X137826000Y-95662400D01*
X135986000Y-94404400D02*
X135986000Y-95662400D01*
%TO.C,C18*%
X105179800Y-139836600D02*
X102439800Y-139836600D01*
X105179800Y-139836600D02*
X105179800Y-147076600D01*
X102439800Y-139836600D02*
X102439800Y-147076600D01*
X105179800Y-147076600D02*
X102439800Y-147076600D01*
%TO.C,C15*%
X151480000Y-95865600D02*
X151480000Y-94607600D01*
X153320000Y-95865600D02*
X153320000Y-94607600D01*
%TO.C,C14*%
X145061000Y-66878000D02*
X147801000Y-66878000D01*
X145061000Y-66878000D02*
X145061000Y-59638000D01*
X147801000Y-66878000D02*
X147801000Y-59638000D01*
X145061000Y-59638000D02*
X147801000Y-59638000D01*
%TO.C,SW1*%
X94895800Y-148367000D02*
X96395800Y-148367000D01*
X98895800Y-147117000D02*
X98895800Y-142617000D01*
X92395800Y-142617000D02*
X92395800Y-147117000D01*
X96395800Y-141367000D02*
X94895800Y-141367000D01*
%TO.C,J2*%
X167278000Y-108189400D02*
X167278000Y-104189400D01*
X166988000Y-109219400D02*
X166988000Y-103199400D01*
X166988000Y-103199400D02*
X161688000Y-103199400D01*
X166408000Y-109219400D02*
X166408000Y-108619400D01*
X166408000Y-108619400D02*
X164808000Y-108619400D01*
X165608000Y-104199400D02*
X165358000Y-104729400D01*
X165608000Y-104199400D02*
X163068000Y-104199400D01*
X165608000Y-103199400D02*
X165608000Y-104199400D01*
X165358000Y-104729400D02*
X163318000Y-104729400D01*
X165358000Y-103199400D02*
X165358000Y-104199400D01*
X164808000Y-108619400D02*
X164808000Y-109219400D01*
X163868000Y-109219400D02*
X163868000Y-108619400D01*
X163868000Y-108619400D02*
X162268000Y-108619400D01*
X163318000Y-104729400D02*
X163068000Y-104199400D01*
X163318000Y-103199400D02*
X163318000Y-104199400D01*
X163068000Y-104199400D02*
X163068000Y-103199400D01*
X162268000Y-108619400D02*
X162268000Y-109219400D01*
X161688000Y-109219400D02*
X166988000Y-109219400D01*
X161688000Y-103199400D02*
X161688000Y-109219400D01*
%TO.C,C17*%
X106895400Y-94577800D02*
X106895400Y-97317800D01*
X106895400Y-94577800D02*
X114135400Y-94577800D01*
X106895400Y-97317800D02*
X114135400Y-97317800D01*
X114135400Y-94577800D02*
X114135400Y-97317800D01*
%TO.C,R5*%
X156000200Y-153375600D02*
X149460200Y-153375600D01*
X156000200Y-153045600D02*
X156000200Y-153375600D01*
X156000200Y-150965600D02*
X156000200Y-150635600D01*
X156000200Y-150635600D02*
X149460200Y-150635600D01*
X149460200Y-153375600D02*
X149460200Y-153045600D01*
X149460200Y-150635600D02*
X149460200Y-150965600D01*
%TO.C,U5*%
X105585800Y-168318800D02*
X125385800Y-168318800D01*
X125385800Y-168318800D02*
X125385800Y-150068800D01*
X104585800Y-167318800D02*
X105585800Y-168318800D01*
X104585800Y-160193800D02*
X104585800Y-167318800D01*
X104585800Y-150068800D02*
X104585800Y-158193800D01*
X125385800Y-150068800D02*
X104585800Y-150068800D01*
%TO.C,R3*%
X158319800Y-130028000D02*
X158319800Y-123488000D01*
X158649800Y-130028000D02*
X158319800Y-130028000D01*
X160729800Y-130028000D02*
X161059800Y-130028000D01*
X161059800Y-130028000D02*
X161059800Y-123488000D01*
X158319800Y-123488000D02*
X158649800Y-123488000D01*
X161059800Y-123488000D02*
X160729800Y-123488000D01*
%TO.C,C19*%
X106885600Y-117637800D02*
X106885600Y-114897800D01*
X106885600Y-117637800D02*
X99645600Y-117637800D01*
X106885600Y-114897800D02*
X99645600Y-114897800D01*
X99645600Y-117637800D02*
X99645600Y-114897800D01*
%TO.C,R1*%
X95147000Y-138035600D02*
X95917000Y-138035600D01*
X95917000Y-136665600D02*
X95917000Y-139405600D01*
X95917000Y-139405600D02*
X102457000Y-139405600D01*
X102457000Y-136665600D02*
X95917000Y-136665600D01*
X102457000Y-139405600D02*
X102457000Y-136665600D01*
X103227000Y-138035600D02*
X102457000Y-138035600D01*
%TO.C,C6*%
X163306523Y-145950688D02*
X163306523Y-146265688D01*
X163306523Y-145950688D02*
X168246523Y-145950688D01*
X163306523Y-148375688D02*
X163306523Y-148690688D01*
X163306523Y-148690688D02*
X168246523Y-148690688D01*
X168246523Y-145950688D02*
X168246523Y-146265688D01*
X168246523Y-148375688D02*
X168246523Y-148690688D01*
%TO.C,R2*%
X92226000Y-131685600D02*
X92996000Y-131685600D01*
X92996000Y-130315600D02*
X92996000Y-133055600D01*
X92996000Y-133055600D02*
X99536000Y-133055600D01*
X99536000Y-130315600D02*
X92996000Y-130315600D01*
X99536000Y-133055600D02*
X99536000Y-130315600D01*
X100306000Y-131685600D02*
X99536000Y-131685600D01*
%TO.C,C12*%
X120013400Y-63727400D02*
X117273400Y-63727400D01*
X120013400Y-63727400D02*
X120013400Y-70967400D01*
X117273400Y-63727400D02*
X117273400Y-70967400D01*
X120013400Y-70967400D02*
X117273400Y-70967400D01*
%TO.C,J8*%
X144262800Y-169617000D02*
X144262800Y-168287000D01*
X145592800Y-169617000D02*
X144262800Y-169617000D01*
X146862800Y-169617000D02*
X152002800Y-169617000D01*
X146862800Y-169617000D02*
X146862800Y-166957000D01*
X152002800Y-169617000D02*
X152002800Y-166957000D01*
X146862800Y-166957000D02*
X152002800Y-166957000D01*
%TO.C,R15*%
X95808800Y-127953200D02*
X95808800Y-127183200D01*
X94438800Y-127183200D02*
X97178800Y-127183200D01*
X97178800Y-127183200D02*
X97178800Y-120643200D01*
X94438800Y-120643200D02*
X94438800Y-127183200D01*
X97178800Y-120643200D02*
X94438800Y-120643200D01*
X95808800Y-119873200D02*
X95808800Y-120643200D01*
%TO.C,C11*%
X99671200Y-161264400D02*
X102411200Y-161264400D01*
X99671200Y-161264400D02*
X99671200Y-154024400D01*
X102411200Y-161264400D02*
X102411200Y-154024400D01*
X99671200Y-154024400D02*
X102411200Y-154024400D01*
D13*
%TO.C,J4*%
X96242600Y-100696200D02*
X96242600Y-110046200D01*
X96242600Y-110046200D02*
X155552600Y-110046200D01*
X155552600Y-100696200D02*
X96242600Y-100696200D01*
X155552600Y-110046200D02*
X155552600Y-100696200D01*
D12*
%TO.C,U8*%
X93539000Y-65635000D02*
X116519000Y-65635000D01*
X116519000Y-65635000D02*
X116519000Y-61135000D01*
X93539000Y-64385000D02*
X93539000Y-65635000D01*
X93539000Y-61135000D02*
X93539000Y-62385000D01*
X116519000Y-61135000D02*
X93539000Y-61135000D01*
X93539000Y-64385000D02*
G75*
G03*
X93539000Y-62385000I0J1000000D01*
G01*
%TO.C,C1*%
X93103200Y-133592200D02*
X93103200Y-136332200D01*
X93103200Y-133592200D02*
X100343200Y-133592200D01*
X93103200Y-136332200D02*
X100343200Y-136332200D01*
X100343200Y-133592200D02*
X100343200Y-136332200D01*
%TO.C,Q1*%
X152650600Y-77892600D02*
X149050600Y-77892600D01*
X151990600Y-82092599D02*
G75*
G03*
X153217798Y-80846442I-1140000J2349999D01*
G01*
X153174783Y-78619805D02*
G75*
G03*
X152650599Y-77892601I-2324183J-1122795D01*
G01*
X148495143Y-80840971D02*
G75*
G03*
X149740600Y-82092600I2355457J1098371D01*
G01*
X149050601Y-77892601D02*
G75*
G03*
X148526417Y-78619805I1799999J-1849999D01*
G01*
%TO.C,R11*%
X148926800Y-84519400D02*
X155466800Y-84519400D01*
X148926800Y-84849400D02*
X148926800Y-84519400D01*
X148926800Y-86929400D02*
X148926800Y-87259400D01*
X148926800Y-87259400D02*
X155466800Y-87259400D01*
X155466800Y-84519400D02*
X155466800Y-84849400D01*
X155466800Y-87259400D02*
X155466800Y-86929400D01*
%TO.C,R4*%
X161364600Y-147084600D02*
X161364600Y-153624600D01*
X161034600Y-147084600D02*
X161364600Y-147084600D01*
X158954600Y-147084600D02*
X158624600Y-147084600D01*
X158624600Y-147084600D02*
X158624600Y-153624600D01*
X161364600Y-153624600D02*
X161034600Y-153624600D01*
X158624600Y-153624600D02*
X158954600Y-153624600D01*
%TO.C,J1*%
X77086800Y-133435600D02*
X91786800Y-133435600D01*
X77086800Y-142635600D02*
X77086800Y-133435600D01*
X85886800Y-142635600D02*
X77086800Y-142635600D01*
X90936800Y-133235600D02*
X91986800Y-133235600D01*
X91786800Y-133435600D02*
X91786800Y-136035600D01*
X91786800Y-139935600D02*
X91786800Y-142635600D01*
X91786800Y-142635600D02*
X89886800Y-142635600D01*
X91986800Y-134285600D02*
X91986800Y-133235600D01*
%TO.C,C3*%
X156567200Y-118266000D02*
X156882200Y-118266000D01*
X156567200Y-118266000D02*
X156567200Y-113326000D01*
X158992200Y-118266000D02*
X159307200Y-118266000D01*
X159307200Y-118266000D02*
X159307200Y-113326000D01*
X156567200Y-113326000D02*
X156882200Y-113326000D01*
X158992200Y-113326000D02*
X159307200Y-113326000D01*
%TO.C,U2*%
X150541400Y-124630600D02*
X150541400Y-145070600D01*
X150541400Y-145070600D02*
X155041400Y-145070600D01*
X151791400Y-124630600D02*
X150541400Y-124630600D01*
X155041400Y-124630600D02*
X153791400Y-124630600D01*
X155041400Y-145070600D02*
X155041400Y-124630600D01*
X151791400Y-124630600D02*
G75*
G03*
X153791400Y-124630600I1000000J0D01*
G01*
%TO.C,C13*%
X128029200Y-93558600D02*
X128029200Y-90818600D01*
X128029200Y-93558600D02*
X120789200Y-93558600D01*
X128029200Y-90818600D02*
X120789200Y-90818600D01*
X120789200Y-93558600D02*
X120789200Y-90818600D01*
%TO.C,C2*%
X167898800Y-110056877D02*
X167898800Y-111056877D01*
X168398800Y-110556877D02*
X167398800Y-110556877D01*
X170103800Y-115536523D02*
X159943800Y-115536523D01*
X170103800Y-115576523D02*
X159943800Y-115576523D01*
X170103800Y-115616523D02*
X159943800Y-115616523D01*
X170102800Y-115656523D02*
X159944800Y-115656523D01*
X170101800Y-115696523D02*
X159945800Y-115696523D01*
X170100800Y-115736523D02*
X159946800Y-115736523D01*
X170098800Y-115776523D02*
X159948800Y-115776523D01*
X170096800Y-115816523D02*
X159950800Y-115816523D01*
X170093800Y-115856523D02*
X159953800Y-115856523D01*
X170091800Y-115896523D02*
X159955800Y-115896523D01*
X170088800Y-115936523D02*
X159958800Y-115936523D01*
X170085800Y-115976523D02*
X159961800Y-115976523D01*
X170081800Y-116016523D02*
X159965800Y-116016523D01*
X170077800Y-116056523D02*
X159969800Y-116056523D01*
X170073800Y-116096523D02*
X159973800Y-116096523D01*
X170068800Y-116136523D02*
X159978800Y-116136523D01*
X170063800Y-116176523D02*
X159983800Y-116176523D01*
X170058800Y-116216523D02*
X159988800Y-116216523D01*
X170053800Y-116257523D02*
X159993800Y-116257523D01*
X170047800Y-116297523D02*
X159999800Y-116297523D01*
X170041800Y-116337523D02*
X160005800Y-116337523D01*
X170034800Y-116377523D02*
X160012800Y-116377523D01*
X170027800Y-116417523D02*
X160019800Y-116417523D01*
X170020800Y-116457523D02*
X160026800Y-116457523D01*
X170013800Y-116497523D02*
X160033800Y-116497523D01*
X170005800Y-116537523D02*
X160041800Y-116537523D01*
X169997800Y-116577523D02*
X160049800Y-116577523D01*
X169988800Y-116617523D02*
X160058800Y-116617523D01*
X169979800Y-116657523D02*
X160067800Y-116657523D01*
X169970800Y-116697523D02*
X160076800Y-116697523D01*
X169961800Y-116737523D02*
X160085800Y-116737523D01*
X169951800Y-116777523D02*
X160095800Y-116777523D01*
X169941800Y-116817523D02*
X166264800Y-116817523D01*
X163782800Y-116817523D02*
X160105800Y-116817523D01*
X169930800Y-116857523D02*
X166264800Y-116857523D01*
X163782800Y-116857523D02*
X160116800Y-116857523D01*
X169920800Y-116897523D02*
X166264800Y-116897523D01*
X163782800Y-116897523D02*
X160126800Y-116897523D01*
X169908800Y-116937523D02*
X166264800Y-116937523D01*
X163782800Y-116937523D02*
X160138800Y-116937523D01*
X169897800Y-116977523D02*
X166264800Y-116977523D01*
X163782800Y-116977523D02*
X160149800Y-116977523D01*
X169885800Y-117017523D02*
X166264800Y-117017523D01*
X163782800Y-117017523D02*
X160161800Y-117017523D01*
X169873800Y-117057523D02*
X166264800Y-117057523D01*
X163782800Y-117057523D02*
X160173800Y-117057523D01*
X169860800Y-117097523D02*
X166264800Y-117097523D01*
X163782800Y-117097523D02*
X160186800Y-117097523D01*
X169847800Y-117137523D02*
X166264800Y-117137523D01*
X163782800Y-117137523D02*
X160199800Y-117137523D01*
X169834800Y-117177523D02*
X166264800Y-117177523D01*
X163782800Y-117177523D02*
X160212800Y-117177523D01*
X169820800Y-117217523D02*
X166264800Y-117217523D01*
X163782800Y-117217523D02*
X160226800Y-117217523D01*
X169806800Y-117257523D02*
X166264800Y-117257523D01*
X163782800Y-117257523D02*
X160240800Y-117257523D01*
X169791800Y-117297523D02*
X166264800Y-117297523D01*
X163782800Y-117297523D02*
X160255800Y-117297523D01*
X169777800Y-117337523D02*
X166264800Y-117337523D01*
X163782800Y-117337523D02*
X160269800Y-117337523D01*
X169761800Y-117377523D02*
X166264800Y-117377523D01*
X163782800Y-117377523D02*
X160285800Y-117377523D01*
X169746800Y-117417523D02*
X166264800Y-117417523D01*
X163782800Y-117417523D02*
X160300800Y-117417523D01*
X169730800Y-117457523D02*
X166264800Y-117457523D01*
X163782800Y-117457523D02*
X160316800Y-117457523D01*
X169713800Y-117497523D02*
X166264800Y-117497523D01*
X163782800Y-117497523D02*
X160333800Y-117497523D01*
X169697800Y-117537523D02*
X166264800Y-117537523D01*
X163782800Y-117537523D02*
X160349800Y-117537523D01*
X169680800Y-117577523D02*
X166264800Y-117577523D01*
X163782800Y-117577523D02*
X160366800Y-117577523D01*
X169662800Y-117617523D02*
X166264800Y-117617523D01*
X163782800Y-117617523D02*
X160384800Y-117617523D01*
X169644800Y-117657523D02*
X166264800Y-117657523D01*
X163782800Y-117657523D02*
X160402800Y-117657523D01*
X169626800Y-117697523D02*
X166264800Y-117697523D01*
X163782800Y-117697523D02*
X160420800Y-117697523D01*
X169607800Y-117737523D02*
X166264800Y-117737523D01*
X163782800Y-117737523D02*
X160439800Y-117737523D01*
X169587800Y-117777523D02*
X166264800Y-117777523D01*
X163782800Y-117777523D02*
X160459800Y-117777523D01*
X169568800Y-117817523D02*
X166264800Y-117817523D01*
X163782800Y-117817523D02*
X160478800Y-117817523D01*
X169548800Y-117857523D02*
X166264800Y-117857523D01*
X163782800Y-117857523D02*
X160498800Y-117857523D01*
X169527800Y-117897523D02*
X166264800Y-117897523D01*
X163782800Y-117897523D02*
X160519800Y-117897523D01*
X169506800Y-117937523D02*
X166264800Y-117937523D01*
X163782800Y-117937523D02*
X160540800Y-117937523D01*
X169485800Y-117977523D02*
X166264800Y-117977523D01*
X163782800Y-117977523D02*
X160561800Y-117977523D01*
X169463800Y-118017523D02*
X166264800Y-118017523D01*
X163782800Y-118017523D02*
X160583800Y-118017523D01*
X169440800Y-118057523D02*
X166264800Y-118057523D01*
X163782800Y-118057523D02*
X160606800Y-118057523D01*
X169418800Y-118097523D02*
X166264800Y-118097523D01*
X163782800Y-118097523D02*
X160628800Y-118097523D01*
X169394800Y-118137523D02*
X166264800Y-118137523D01*
X163782800Y-118137523D02*
X160652800Y-118137523D01*
X169370800Y-118177523D02*
X166264800Y-118177523D01*
X163782800Y-118177523D02*
X160676800Y-118177523D01*
X169346800Y-118217523D02*
X166264800Y-118217523D01*
X163782800Y-118217523D02*
X160700800Y-118217523D01*
X169321800Y-118257523D02*
X166264800Y-118257523D01*
X163782800Y-118257523D02*
X160725800Y-118257523D01*
X169296800Y-118297523D02*
X166264800Y-118297523D01*
X163782800Y-118297523D02*
X160750800Y-118297523D01*
X169270800Y-118337523D02*
X166264800Y-118337523D01*
X163782800Y-118337523D02*
X160776800Y-118337523D01*
X169244800Y-118377523D02*
X166264800Y-118377523D01*
X163782800Y-118377523D02*
X160802800Y-118377523D01*
X169217800Y-118417523D02*
X166264800Y-118417523D01*
X163782800Y-118417523D02*
X160829800Y-118417523D01*
X169189800Y-118457523D02*
X166264800Y-118457523D01*
X163782800Y-118457523D02*
X160857800Y-118457523D01*
X169161800Y-118497523D02*
X166264800Y-118497523D01*
X163782800Y-118497523D02*
X160885800Y-118497523D01*
X169133800Y-118537523D02*
X166264800Y-118537523D01*
X163782800Y-118537523D02*
X160913800Y-118537523D01*
X169103800Y-118577523D02*
X166264800Y-118577523D01*
X163782800Y-118577523D02*
X160943800Y-118577523D01*
X169073800Y-118617523D02*
X166264800Y-118617523D01*
X163782800Y-118617523D02*
X160973800Y-118617523D01*
X169043800Y-118657523D02*
X166264800Y-118657523D01*
X163782800Y-118657523D02*
X161003800Y-118657523D01*
X169012800Y-118697523D02*
X166264800Y-118697523D01*
X163782800Y-118697523D02*
X161034800Y-118697523D01*
X168980800Y-118737523D02*
X166264800Y-118737523D01*
X163782800Y-118737523D02*
X161066800Y-118737523D01*
X168948800Y-118777523D02*
X166264800Y-118777523D01*
X163782800Y-118777523D02*
X161098800Y-118777523D01*
X168915800Y-118817523D02*
X166264800Y-118817523D01*
X163782800Y-118817523D02*
X161131800Y-118817523D01*
X168881800Y-118857523D02*
X166264800Y-118857523D01*
X163782800Y-118857523D02*
X161165800Y-118857523D01*
X168847800Y-118897523D02*
X166264800Y-118897523D01*
X163782800Y-118897523D02*
X161199800Y-118897523D01*
X168812800Y-118937523D02*
X166264800Y-118937523D01*
X163782800Y-118937523D02*
X161234800Y-118937523D01*
X168776800Y-118977523D02*
X166264800Y-118977523D01*
X163782800Y-118977523D02*
X161270800Y-118977523D01*
X168739800Y-119017523D02*
X166264800Y-119017523D01*
X163782800Y-119017523D02*
X161307800Y-119017523D01*
X168702800Y-119057523D02*
X166264800Y-119057523D01*
X163782800Y-119057523D02*
X161344800Y-119057523D01*
X168663800Y-119097523D02*
X166264800Y-119097523D01*
X163782800Y-119097523D02*
X161383800Y-119097523D01*
X168624800Y-119137523D02*
X166264800Y-119137523D01*
X163782800Y-119137523D02*
X161422800Y-119137523D01*
X168584800Y-119177523D02*
X166264800Y-119177523D01*
X163782800Y-119177523D02*
X161462800Y-119177523D01*
X168543800Y-119217523D02*
X166264800Y-119217523D01*
X163782800Y-119217523D02*
X161503800Y-119217523D01*
X168501800Y-119257523D02*
X166264800Y-119257523D01*
X163782800Y-119257523D02*
X161545800Y-119257523D01*
X168459800Y-119297523D02*
X161587800Y-119297523D01*
X168415800Y-119337523D02*
X161631800Y-119337523D01*
X168370800Y-119377523D02*
X161676800Y-119377523D01*
X168324800Y-119417523D02*
X161722800Y-119417523D01*
X168277800Y-119457523D02*
X161769800Y-119457523D01*
X168229800Y-119497523D02*
X161817800Y-119497523D01*
X168179800Y-119537523D02*
X161867800Y-119537523D01*
X168129800Y-119577523D02*
X161917800Y-119577523D01*
X168077800Y-119617523D02*
X161969800Y-119617523D01*
X168023800Y-119657523D02*
X162023800Y-119657523D01*
X167968800Y-119697523D02*
X162078800Y-119697523D01*
X167912800Y-119737523D02*
X162134800Y-119737523D01*
X167853800Y-119777523D02*
X162193800Y-119777523D01*
X167793800Y-119817523D02*
X162253800Y-119817523D01*
X167732800Y-119857523D02*
X162314800Y-119857523D01*
X167668800Y-119897523D02*
X162378800Y-119897523D01*
X167602800Y-119937523D02*
X162444800Y-119937523D01*
X167533800Y-119977523D02*
X162513800Y-119977523D01*
X167462800Y-120017523D02*
X162584800Y-120017523D01*
X167388800Y-120057523D02*
X162658800Y-120057523D01*
X167312800Y-120097523D02*
X162734800Y-120097523D01*
X167232800Y-120137523D02*
X162814800Y-120137523D01*
X167148800Y-120177523D02*
X162898800Y-120177523D01*
X167060800Y-120217523D02*
X162986800Y-120217523D01*
X166967800Y-120257523D02*
X163079800Y-120257523D01*
X166869800Y-120297523D02*
X163177800Y-120297523D01*
X166765800Y-120337523D02*
X163281800Y-120337523D01*
X166653800Y-120377523D02*
X163393800Y-120377523D01*
X166533800Y-120417523D02*
X163513800Y-120417523D01*
X166401800Y-120457523D02*
X163645800Y-120457523D01*
X166253800Y-120497523D02*
X163793800Y-120497523D01*
X166085800Y-120537523D02*
X163961800Y-120537523D01*
X165885800Y-120577523D02*
X164161800Y-120577523D01*
X165622800Y-120617523D02*
X164424800Y-120617523D01*
X170143800Y-115536523D02*
G75*
G03*
X170143800Y-115536523I-5120000J0D01*
G01*
%TD*%
D15*
X81915000Y-55434800D02*
X170611800Y-55434800D01*
X170611800Y-173494000D01*
X81915000Y-173494000D01*
X81915000Y-55434800D01*
M02*
