%TF.GenerationSoftware,KiCad,Pcbnew,7.0.11-7.0.11~ubuntu22.04.1*%
%TF.CreationDate,2024-10-05T18:33:04-04:00*%
%TF.ProjectId,coleco_original,636f6c65-636f-45f6-9f72-6967696e616c,DEV*%
%TF.SameCoordinates,Original*%
%TF.FileFunction,Other,User*%
%FSLAX46Y46*%
G04 Gerber Fmt 4.6, Leading zero omitted, Abs format (unit mm)*
G04 Created by KiCad (PCBNEW 7.0.11-7.0.11~ubuntu22.04.1) date 2024-10-05 18:33:04*
%MOMM*%
%LPD*%
G01*
G04 APERTURE LIST*
%ADD10C,0.050000*%
G04 APERTURE END LIST*
D10*
%TO.C,R20*%
X74279800Y-90151100D02*
X72379800Y-90151100D01*
X72379800Y-90151100D02*
X72379800Y-93511100D01*
X74279800Y-93511100D02*
X74279800Y-90151100D01*
X72379800Y-93511100D02*
X74279800Y-93511100D01*
%TO.C,C22*%
X74536800Y-88244600D02*
X74536800Y-90544600D01*
X74536800Y-90544600D02*
X79136800Y-90544600D01*
X79136800Y-88244600D02*
X74536800Y-88244600D01*
X79136800Y-90544600D02*
X79136800Y-88244600D01*
%TO.C,U1*%
X133874250Y-166532400D02*
X128374250Y-166532400D01*
X128374250Y-166532400D02*
X128374250Y-173982400D01*
X133874250Y-173982400D02*
X133874250Y-166532400D01*
X128374250Y-173982400D02*
X133874250Y-173982400D01*
%TO.C,R21*%
X84058800Y-95842600D02*
X82158800Y-95842600D01*
X82158800Y-95842600D02*
X82158800Y-99202600D01*
X84058800Y-99202600D02*
X84058800Y-95842600D01*
X82158800Y-99202600D02*
X84058800Y-99202600D01*
%TO.C,C17*%
X93275800Y-98700600D02*
X90975800Y-98700600D01*
X90975800Y-98700600D02*
X90975800Y-103300600D01*
X93275800Y-103300600D02*
X93275800Y-98700600D01*
X90975800Y-103300600D02*
X93275800Y-103300600D01*
%TO.C,U10*%
X81855800Y-99816600D02*
X74455800Y-99816600D01*
X81855800Y-90656600D02*
X81855800Y-99816600D01*
X74455800Y-99816600D02*
X74455800Y-90656600D01*
X74455800Y-90656600D02*
X81855800Y-90656600D01*
%TO.C,R13*%
X107717800Y-145924800D02*
X107717800Y-147824800D01*
X107717800Y-147824800D02*
X111077800Y-147824800D01*
X111077800Y-145924800D02*
X107717800Y-145924800D01*
X111077800Y-147824800D02*
X111077800Y-145924800D01*
%TO.C,U3*%
X120541900Y-134124500D02*
X120541900Y-129604500D01*
X120541900Y-125084500D02*
X120541900Y-129604500D01*
X119141900Y-134854500D02*
X119141900Y-134124500D01*
X119141900Y-134124500D02*
X120541900Y-134124500D01*
X119141900Y-125084500D02*
X120541900Y-125084500D01*
X119141900Y-124354500D02*
X119141900Y-125084500D01*
X118411900Y-136254500D02*
X118411900Y-134854500D01*
X118411900Y-134854500D02*
X119141900Y-134854500D01*
X118411900Y-124354500D02*
X119141900Y-124354500D01*
X118411900Y-122954500D02*
X118411900Y-124354500D01*
X113891900Y-136254500D02*
X118411900Y-136254500D01*
X113891900Y-136254500D02*
X109371900Y-136254500D01*
X113891900Y-122954500D02*
X118411900Y-122954500D01*
X113891900Y-122954500D02*
X109371900Y-122954500D01*
X109371900Y-136254500D02*
X109371900Y-134854500D01*
X109371900Y-134854500D02*
X108641900Y-134854500D01*
X109371900Y-124354500D02*
X108641900Y-124354500D01*
X109371900Y-122954500D02*
X109371900Y-124354500D01*
X108641900Y-134854500D02*
X108641900Y-134124500D01*
X108641900Y-134124500D02*
X107241900Y-134124500D01*
X108641900Y-125084500D02*
X107241900Y-125084500D01*
X108641900Y-124354500D02*
X108641900Y-125084500D01*
X107241900Y-134124500D02*
X107241900Y-129604500D01*
X107241900Y-125084500D02*
X107241900Y-129604500D01*
%TO.C,R9*%
X120304600Y-136369900D02*
X118404600Y-136369900D01*
X118404600Y-136369900D02*
X118404600Y-139729900D01*
X120304600Y-139729900D02*
X120304600Y-136369900D01*
X118404600Y-139729900D02*
X120304600Y-139729900D01*
%TO.C,R7*%
X118171000Y-136395300D02*
X116271000Y-136395300D01*
X116271000Y-136395300D02*
X116271000Y-139755300D01*
X118171000Y-139755300D02*
X118171000Y-136395300D01*
X116271000Y-139755300D02*
X118171000Y-139755300D01*
%TO.C,C9*%
X121074800Y-130393100D02*
X123374800Y-130393100D01*
X123374800Y-130393100D02*
X123374800Y-125793100D01*
X121074800Y-125793100D02*
X121074800Y-130393100D01*
X123374800Y-125793100D02*
X121074800Y-125793100D01*
%TO.C,R8*%
X107381000Y-139729900D02*
X109281000Y-139729900D01*
X109281000Y-139729900D02*
X109281000Y-136369900D01*
X107381000Y-136369900D02*
X107381000Y-139729900D01*
X109281000Y-136369900D02*
X107381000Y-136369900D01*
%TD*%
M02*
