%TF.GenerationSoftware,KiCad,Pcbnew,7.0.11-7.0.11~ubuntu22.04.1*%
%TF.CreationDate,2024-08-09T11:44:34-04:00*%
%TF.ProjectId,coleco_original,636f6c65-636f-45f6-9f72-6967696e616c,DEV*%
%TF.SameCoordinates,Original*%
%TF.FileFunction,Copper,L1,Top*%
%TF.FilePolarity,Positive*%
%FSLAX46Y46*%
G04 Gerber Fmt 4.6, Leading zero omitted, Abs format (unit mm)*
G04 Created by KiCad (PCBNEW 7.0.11-7.0.11~ubuntu22.04.1) date 2024-08-09 11:44:34*
%MOMM*%
%LPD*%
G01*
G04 APERTURE LIST*
G04 Aperture macros list*
%AMRoundRect*
0 Rectangle with rounded corners*
0 $1 Rounding radius*
0 $2 $3 $4 $5 $6 $7 $8 $9 X,Y pos of 4 corners*
0 Add a 4 corners polygon primitive as box body*
4,1,4,$2,$3,$4,$5,$6,$7,$8,$9,$2,$3,0*
0 Add four circle primitives for the rounded corners*
1,1,$1+$1,$2,$3*
1,1,$1+$1,$4,$5*
1,1,$1+$1,$6,$7*
1,1,$1+$1,$8,$9*
0 Add four rect primitives between the rounded corners*
20,1,$1+$1,$2,$3,$4,$5,0*
20,1,$1+$1,$4,$5,$6,$7,0*
20,1,$1+$1,$6,$7,$8,$9,0*
20,1,$1+$1,$8,$9,$2,$3,0*%
G04 Aperture macros list end*
%TA.AperFunction,ComponentPad*%
%ADD10C,1.500000*%
%TD*%
%TA.AperFunction,ComponentPad*%
%ADD11C,1.600000*%
%TD*%
%TA.AperFunction,ComponentPad*%
%ADD12O,1.600000X1.600000*%
%TD*%
%TA.AperFunction,ComponentPad*%
%ADD13C,5.600000*%
%TD*%
%TA.AperFunction,ComponentPad*%
%ADD14R,1.600000X1.600000*%
%TD*%
%TA.AperFunction,ComponentPad*%
%ADD15RoundRect,0.250000X0.620000X0.845000X-0.620000X0.845000X-0.620000X-0.845000X0.620000X-0.845000X0*%
%TD*%
%TA.AperFunction,ComponentPad*%
%ADD16O,1.740000X2.190000*%
%TD*%
%TA.AperFunction,ComponentPad*%
%ADD17C,4.000000*%
%TD*%
%TA.AperFunction,ComponentPad*%
%ADD18O,2.006600X1.320800*%
%TD*%
%TA.AperFunction,ComponentPad*%
%ADD19O,1.320800X2.006600*%
%TD*%
%TA.AperFunction,ComponentPad*%
%ADD20C,1.701800*%
%TD*%
%TA.AperFunction,ComponentPad*%
%ADD21C,2.100000*%
%TD*%
%TA.AperFunction,ComponentPad*%
%ADD22R,1.700000X1.700000*%
%TD*%
%TA.AperFunction,ComponentPad*%
%ADD23O,1.700000X1.700000*%
%TD*%
%TA.AperFunction,ComponentPad*%
%ADD24R,1.422400X1.422400*%
%TD*%
%TA.AperFunction,ComponentPad*%
%ADD25C,1.422400*%
%TD*%
%TA.AperFunction,ComponentPad*%
%ADD26R,1.800000X1.800000*%
%TD*%
%TA.AperFunction,ComponentPad*%
%ADD27C,1.800000*%
%TD*%
%TA.AperFunction,ComponentPad*%
%ADD28C,2.200000*%
%TD*%
%TA.AperFunction,ComponentPad*%
%ADD29C,1.700000*%
%TD*%
%TA.AperFunction,ComponentPad*%
%ADD30O,3.000000X1.800000*%
%TD*%
%TA.AperFunction,ComponentPad*%
%ADD31R,2.500000X1.500000*%
%TD*%
%TA.AperFunction,ComponentPad*%
%ADD32O,2.500000X1.500000*%
%TD*%
%TA.AperFunction,ComponentPad*%
%ADD33O,1.500000X2.000000*%
%TD*%
%TA.AperFunction,ComponentPad*%
%ADD34C,4.875000*%
%TD*%
%TA.AperFunction,ComponentPad*%
%ADD35C,2.775000*%
%TD*%
%TA.AperFunction,ComponentPad*%
%ADD36R,1.500000X1.500000*%
%TD*%
%TA.AperFunction,ViaPad*%
%ADD37C,0.762000*%
%TD*%
%TA.AperFunction,ViaPad*%
%ADD38C,1.270000*%
%TD*%
%TA.AperFunction,Conductor*%
%ADD39C,0.203200*%
%TD*%
G04 APERTURE END LIST*
D10*
%TO.P,Y1,1,1*%
%TO.N,Net-(U6-XTAL1)*%
X136144000Y-73799000D03*
%TO.P,Y1,2,2*%
%TO.N,Net-(U6-XTAL2)*%
X136144000Y-78679000D03*
%TD*%
D11*
%TO.P,R6,1*%
%TO.N,Net-(C4-Pad2)*%
X137337800Y-151827800D03*
D12*
%TO.P,R6,2*%
%TO.N,Net-(U11-OUT)*%
X137337800Y-144207800D03*
%TD*%
D11*
%TO.P,C4,1*%
%TO.N,GNDD*%
X132054600Y-154621800D03*
%TO.P,C4,2*%
%TO.N,Net-(C4-Pad2)*%
X137054600Y-154621800D03*
%TD*%
D13*
%TO.P,H6,1,1*%
%TO.N,unconnected-(H6-Pad1)*%
X153441400Y-49364200D03*
%TD*%
D14*
%TO.P,U6,1,~{RAS}*%
%TO.N,/video/nRAS*%
X131622800Y-64451800D03*
D12*
%TO.P,U6,2,~{CAS}*%
%TO.N,/video/nCAS*%
X129082800Y-64451800D03*
%TO.P,U6,3,AD7*%
%TO.N,/video/AD7*%
X126542800Y-64451800D03*
%TO.P,U6,4,AD6*%
%TO.N,/video/AD6*%
X124002800Y-64451800D03*
%TO.P,U6,5,AD5*%
%TO.N,/video/AD5*%
X121462800Y-64451800D03*
%TO.P,U6,6,AD4*%
%TO.N,/video/AD4*%
X118922800Y-64451800D03*
%TO.P,U6,7,AD3*%
%TO.N,/video/AD3*%
X116382800Y-64451800D03*
%TO.P,U6,8,AD2*%
%TO.N,/video/AD2*%
X113842800Y-64451800D03*
%TO.P,U6,9,AD1*%
%TO.N,/video/AD1*%
X111302800Y-64451800D03*
%TO.P,U6,10,AD0*%
%TO.N,/video/AD0*%
X108762800Y-64451800D03*
%TO.P,U6,11,R/~{W}*%
%TO.N,/video/RnW*%
X106222800Y-64451800D03*
%TO.P,U6,12,VSS*%
%TO.N,GNDD*%
X103682800Y-64451800D03*
%TO.P,U6,13,MODE*%
%TO.N,/GLUE/A0*%
X101142800Y-64451800D03*
%TO.P,U6,14,~{CSW}*%
%TO.N,/GLUE/~{CSW}*%
X98602800Y-64451800D03*
%TO.P,U6,15,~{CSR}*%
%TO.N,/GLUE/~{CSR}*%
X96062800Y-64451800D03*
%TO.P,U6,16,~{INT}*%
%TO.N,/cpu/~{NMI}*%
X93522800Y-64451800D03*
%TO.P,U6,17,CD7*%
%TO.N,/GLUE/D0*%
X90982800Y-64451800D03*
%TO.P,U6,18,CD6*%
%TO.N,/GLUE/D1*%
X88442800Y-64451800D03*
%TO.P,U6,19,CD5*%
%TO.N,/GLUE/D2*%
X85902800Y-64451800D03*
%TO.P,U6,20,CD4*%
%TO.N,/GLUE/D3*%
X83362800Y-64451800D03*
%TO.P,U6,21,CD3*%
%TO.N,/GLUE/D4*%
X83362800Y-79691800D03*
%TO.P,U6,22,CD2*%
%TO.N,/GLUE/D5*%
X85902800Y-79691800D03*
%TO.P,U6,23,CD1*%
%TO.N,/GLUE/D6*%
X88442800Y-79691800D03*
%TO.P,U6,24,CD0*%
%TO.N,/GLUE/D7*%
X90982800Y-79691800D03*
%TO.P,U6,25,RD7*%
%TO.N,/video/R7*%
X93522800Y-79691800D03*
%TO.P,U6,26,RD6*%
%TO.N,/video/R6*%
X96062800Y-79691800D03*
%TO.P,U6,27,RD5*%
%TO.N,/video/R5*%
X98602800Y-79691800D03*
%TO.P,U6,28,RD4*%
%TO.N,/video/R4*%
X101142800Y-79691800D03*
%TO.P,U6,29,RD3*%
%TO.N,/video/R3*%
X103682800Y-79691800D03*
%TO.P,U6,30,RD2*%
%TO.N,/video/R2*%
X106222800Y-79691800D03*
%TO.P,U6,31,RD1*%
%TO.N,/video/R1*%
X108762800Y-79691800D03*
%TO.P,U6,32,RD0*%
%TO.N,/video/R0*%
X111302800Y-79691800D03*
%TO.P,U6,33,VCC*%
%TO.N,+5VP*%
X113842800Y-79691800D03*
%TO.P,U6,34,~{RESET}*%
%TO.N,/GLUE/~{SND_RESET}*%
X116382800Y-79691800D03*
%TO.P,U6,35,EXTVID*%
%TO.N,unconnected-(U6-EXTVID-Pad35)*%
X118922800Y-79691800D03*
%TO.P,U6,36,COMVID*%
%TO.N,/video/Y*%
X121462800Y-79691800D03*
%TO.P,U6,37,NC*%
%TO.N,unconnected-(U6-NC-Pad37)*%
X124002800Y-79691800D03*
%TO.P,U6,38,CPUCLK*%
%TO.N,/GLUE/CLK*%
X126542800Y-79691800D03*
%TO.P,U6,39,XTAL2*%
%TO.N,Net-(U6-XTAL2)*%
X129082800Y-79691800D03*
%TO.P,U6,40,XTAL1*%
%TO.N,Net-(U6-XTAL1)*%
X131622800Y-79691800D03*
%TD*%
D15*
%TO.P,J3,1,In*%
%TO.N,Net-(J3-In)*%
X79832200Y-53275800D03*
D16*
%TO.P,J3,2,Ext*%
%TO.N,GNDD*%
X77292200Y-53275800D03*
%TD*%
D17*
%TO.P,J5,0*%
%TO.N,N/C*%
X77901800Y-60311600D03*
X77901800Y-85311600D03*
D14*
%TO.P,J5,1,1*%
%TO.N,/GLUE/C1P1*%
X79321800Y-67271600D03*
D11*
%TO.P,J5,2,2*%
%TO.N,/GLUE/C1P2*%
X79321800Y-70041600D03*
%TO.P,J5,3,3*%
%TO.N,/GLUE/C1P3*%
X79321800Y-72811600D03*
%TO.P,J5,4,4*%
%TO.N,/GLUE/C1P4*%
X79321800Y-75581600D03*
%TO.P,J5,5,5*%
%TO.N,/controller/ex_ARM*%
X79321800Y-78351600D03*
%TO.P,J5,6,6*%
%TO.N,/GLUE/C1P6*%
X76481800Y-68656600D03*
%TO.P,J5,7,7*%
%TO.N,/GLUE/C1P7*%
X76481800Y-71426600D03*
%TO.P,J5,8,8*%
%TO.N,/controller/ex_FIRE*%
X76481800Y-74196600D03*
%TO.P,J5,9,9*%
%TO.N,Net-(J5-Pad9)*%
X76481800Y-76966600D03*
%TD*%
%TO.P,R19,1*%
%TO.N,Net-(J5-Pad9)*%
X70078600Y-89928000D03*
D12*
%TO.P,R19,2*%
%TO.N,/GLUE/C1P9*%
X70078600Y-100088000D03*
%TD*%
D14*
%TO.P,C3,1*%
%TO.N,+5V*%
X118440200Y-161544688D03*
D11*
%TO.P,C3,2*%
%TO.N,GNDD*%
X118440200Y-164044688D03*
%TD*%
D14*
%TO.P,C28,1*%
%TO.N,Net-(U1-BYPASS)*%
X129717800Y-163704913D03*
D11*
%TO.P,C28,2*%
%TO.N,GNDD*%
X129717800Y-161704913D03*
%TD*%
%TO.P,R14,1*%
%TO.N,/GLUE/TDI*%
X85852000Y-127342200D03*
D12*
%TO.P,R14,2*%
%TO.N,+5V*%
X85852000Y-117182200D03*
%TD*%
D11*
%TO.P,R22,1*%
%TO.N,+5V*%
X85140800Y-147255800D03*
D12*
%TO.P,R22,2*%
%TO.N,Net-(D1-A)*%
X74980800Y-147255800D03*
%TD*%
D14*
%TO.P,RN1,1,common*%
%TO.N,+5V*%
X71170800Y-112508600D03*
D12*
%TO.P,RN1,2,R1*%
%TO.N,/GLUE/C1P1*%
X73710800Y-112508600D03*
%TO.P,RN1,3,R2*%
%TO.N,/GLUE/C1P2*%
X76250800Y-112508600D03*
%TO.P,RN1,4,R3*%
%TO.N,/GLUE/C1P3*%
X78790800Y-112508600D03*
%TO.P,RN1,5,R4*%
%TO.N,/GLUE/C1P4*%
X81330800Y-112508600D03*
%TO.P,RN1,6,R5*%
%TO.N,/GLUE/C1P6*%
X83870800Y-112508600D03*
%TO.P,RN1,7,R6*%
%TO.N,/GLUE/C1P7*%
X86410800Y-112508600D03*
%TD*%
D11*
%TO.P,L3,1,1*%
%TO.N,+5VP*%
X117830600Y-83349400D03*
D12*
%TO.P,L3,2,2*%
%TO.N,+5V*%
X127990600Y-83349400D03*
%TD*%
D14*
%TO.P,C24,1*%
%TO.N,+5VA*%
X132322688Y-179971000D03*
D11*
%TO.P,C24,2*%
%TO.N,GNDD*%
X134822688Y-179971000D03*
%TD*%
D13*
%TO.P,H2,1,1*%
%TO.N,unconnected-(H2-Pad1)*%
X73710800Y-166051800D03*
%TD*%
D11*
%TO.P,R23,1*%
%TO.N,Net-(C26-Pad1)*%
X139674600Y-157974600D03*
D12*
%TO.P,R23,2*%
%TO.N,Net-(U1-IN)*%
X132054600Y-157974600D03*
%TD*%
D14*
%TO.P,U4,1,A14*%
%TO.N,/GLUE/A14*%
X89799000Y-186046600D03*
D12*
%TO.P,U4,2,A12*%
%TO.N,/GLUE/A12*%
X92339000Y-186046600D03*
%TO.P,U4,3,A7*%
%TO.N,/GLUE/A7*%
X94879000Y-186046600D03*
%TO.P,U4,4,A6*%
%TO.N,/GLUE/A6*%
X97419000Y-186046600D03*
%TO.P,U4,5,A5*%
%TO.N,/GLUE/A5*%
X99959000Y-186046600D03*
%TO.P,U4,6,A4*%
%TO.N,/GLUE/A4*%
X102499000Y-186046600D03*
%TO.P,U4,7,A3*%
%TO.N,/GLUE/A3*%
X105039000Y-186046600D03*
%TO.P,U4,8,A2*%
%TO.N,/GLUE/A2*%
X107579000Y-186046600D03*
%TO.P,U4,9,A1*%
%TO.N,/GLUE/A1*%
X110119000Y-186046600D03*
%TO.P,U4,10,A0*%
%TO.N,/GLUE/A0*%
X112659000Y-186046600D03*
%TO.P,U4,11,Q0*%
%TO.N,/GLUE/D0*%
X115199000Y-186046600D03*
%TO.P,U4,12,Q1*%
%TO.N,/GLUE/D1*%
X117739000Y-186046600D03*
%TO.P,U4,13,Q2*%
%TO.N,/GLUE/D2*%
X120279000Y-186046600D03*
%TO.P,U4,14,GND*%
%TO.N,GNDD*%
X122819000Y-186046600D03*
%TO.P,U4,15,Q3*%
%TO.N,/GLUE/D3*%
X122819000Y-170806600D03*
%TO.P,U4,16,Q4*%
%TO.N,/GLUE/D4*%
X120279000Y-170806600D03*
%TO.P,U4,17,Q5*%
%TO.N,/GLUE/D5*%
X117739000Y-170806600D03*
%TO.P,U4,18,Q6*%
%TO.N,/GLUE/D6*%
X115199000Y-170806600D03*
%TO.P,U4,19,Q7*%
%TO.N,/GLUE/D7*%
X112659000Y-170806600D03*
%TO.P,U4,20,~{CS}*%
%TO.N,/GLUE/~{RAM_CS}*%
X110119000Y-170806600D03*
%TO.P,U4,21,A10*%
%TO.N,/GLUE/A10*%
X107579000Y-170806600D03*
%TO.P,U4,22,~{OE}*%
%TO.N,/GLUE/~{RAM_OE}*%
X105039000Y-170806600D03*
%TO.P,U4,23,A11*%
%TO.N,/GLUE/A11*%
X102499000Y-170806600D03*
%TO.P,U4,24,A9*%
%TO.N,/GLUE/A9*%
X99959000Y-170806600D03*
%TO.P,U4,25,A8*%
%TO.N,/GLUE/A8*%
X97419000Y-170806600D03*
%TO.P,U4,26,A13*%
%TO.N,/GLUE/A13*%
X94879000Y-170806600D03*
%TO.P,U4,27,~{WE}*%
%TO.N,/GLUE/~{WR}*%
X92339000Y-170806600D03*
%TO.P,U4,28,VCC*%
%TO.N,+5V*%
X89799000Y-170806600D03*
%TD*%
D11*
%TO.P,L1,1,1*%
%TO.N,+5VA*%
X129870200Y-157873000D03*
D12*
%TO.P,L1,2,2*%
%TO.N,+5V*%
X119710200Y-157873000D03*
%TD*%
D14*
%TO.P,U7,1,~{G}*%
%TO.N,GNDD*%
X111074200Y-58736800D03*
D12*
%TO.P,U7,2,DQ1*%
%TO.N,/video/R0*%
X113614200Y-58736800D03*
%TO.P,U7,3,DQ2*%
%TO.N,/video/R1*%
X116154200Y-58736800D03*
%TO.P,U7,4,~{W}*%
%TO.N,/video/RnW*%
X118694200Y-58736800D03*
%TO.P,U7,5,~{RAS}*%
%TO.N,/video/nRAS*%
X121234200Y-58736800D03*
%TO.P,U7,6,A6*%
%TO.N,/video/AD1*%
X123774200Y-58736800D03*
%TO.P,U7,7,A5*%
%TO.N,/video/AD2*%
X126314200Y-58736800D03*
%TO.P,U7,8,A4*%
%TO.N,/video/AD3*%
X128854200Y-58736800D03*
%TO.P,U7,9,VDD*%
%TO.N,+5VP*%
X131394200Y-58736800D03*
%TO.P,U7,10,A7*%
%TO.N,/video/AD0*%
X131394200Y-51116800D03*
%TO.P,U7,11,A3*%
%TO.N,/video/AD4*%
X128854200Y-51116800D03*
%TO.P,U7,12,A2*%
%TO.N,/video/AD5*%
X126314200Y-51116800D03*
%TO.P,U7,13,A1*%
%TO.N,/video/AD6*%
X123774200Y-51116800D03*
%TO.P,U7,14,A0*%
%TO.N,/video/AD7*%
X121234200Y-51116800D03*
%TO.P,U7,15,DQ3*%
%TO.N,/video/R2*%
X118694200Y-51116800D03*
%TO.P,U7,16,~{CAS}*%
%TO.N,/video/nCAS*%
X116154200Y-51116800D03*
%TO.P,U7,17,DQ4*%
%TO.N,/video/R3*%
X113614200Y-51116800D03*
%TO.P,U7,18,VSS*%
%TO.N,GNDD*%
X111074200Y-51116800D03*
%TD*%
D18*
%TO.P,J8,1*%
%TO.N,GNDD*%
X143586200Y-47840200D03*
D19*
%TO.P,J8,2*%
%TO.N,Net-(Q1-E)*%
X138586200Y-52840197D03*
%TO.P,J8,3*%
%TO.N,unconnected-(J8-Pad3)*%
X148586200Y-52840197D03*
%TO.P,J8,4*%
%TO.N,Net-(J3-In)*%
X141086200Y-52840197D03*
%TO.P,J8,5*%
%TO.N,unconnected-(J8-Pad5)*%
X146086200Y-52840197D03*
D20*
%TO.P,J8,6*%
%TO.N,N/C*%
X138586200Y-45340199D03*
%TO.P,J8,7*%
X148586200Y-45340199D03*
%TO.P,J8,8*%
X138586200Y-47840200D03*
%TO.P,J8,9*%
X148586200Y-47840200D03*
%TO.P,J8,10*%
X143586200Y-52840197D03*
%TD*%
D15*
%TO.P,J11,1,Pin_1*%
%TO.N,+5V*%
X81203800Y-138492800D03*
D16*
%TO.P,J11,2,Pin_2*%
%TO.N,GNDD*%
X78663800Y-138492800D03*
%TD*%
D11*
%TO.P,C10,1*%
%TO.N,+5V*%
X86995000Y-171233400D03*
%TO.P,C10,2*%
%TO.N,GNDD*%
X81995000Y-171233400D03*
%TD*%
%TO.P,C20,1*%
%TO.N,/GLUE/C1P9*%
X70129400Y-102581000D03*
%TO.P,C20,2*%
%TO.N,GNDD*%
X70129400Y-107581000D03*
%TD*%
D10*
%TO.P,RV1,1,1*%
%TO.N,GNDD*%
X145698800Y-150514800D03*
%TO.P,RV1,2,2*%
%TO.N,Net-(C26-Pad2)*%
X145698800Y-154514800D03*
%TO.P,RV1,3,3*%
%TO.N,Net-(C4-Pad2)*%
X145698800Y-158514800D03*
D21*
%TO.P,RV1,MH1*%
%TO.N,N/C*%
X155698800Y-149514800D03*
%TO.P,RV1,MH2*%
X155698800Y-159514800D03*
%TD*%
D18*
%TO.P,J9,1*%
%TO.N,GNDD*%
X143640800Y-184049599D03*
D19*
%TO.P,J9,2*%
%TO.N,/sound/HP+*%
X148640800Y-179049602D03*
%TO.P,J9,3*%
X138640800Y-179049602D03*
%TO.P,J9,4*%
%TO.N,/sound/HP_BTL*%
X146140800Y-179049602D03*
%TO.P,J9,5*%
%TO.N,unconnected-(J9-Pad5)*%
X141140800Y-179049602D03*
D20*
%TO.P,J9,6*%
%TO.N,N/C*%
X148640800Y-186549600D03*
%TO.P,J9,7*%
X138640800Y-186549600D03*
%TO.P,J9,8*%
X148640800Y-184049599D03*
%TO.P,J9,9*%
X138640800Y-184049599D03*
%TO.P,J9,10*%
X143640800Y-179049602D03*
%TD*%
D11*
%TO.P,R10,1*%
%TO.N,GNDD*%
X128346200Y-47281400D03*
D12*
%TO.P,R10,2*%
%TO.N,Net-(Q1-E)*%
X135966200Y-47281400D03*
%TD*%
D11*
%TO.P,R16,1*%
%TO.N,/GLUE/TDO*%
X79756000Y-127291400D03*
D12*
%TO.P,R16,2*%
%TO.N,+5V*%
X79756000Y-117131400D03*
%TD*%
D22*
%TO.P,J6,1,Pin_1*%
%TO.N,/GLUE/TCK*%
X73334800Y-127489600D03*
D23*
%TO.P,J6,2,Pin_2*%
%TO.N,GNDD*%
X70794800Y-127489600D03*
%TO.P,J6,3,Pin_3*%
%TO.N,/GLUE/TDO*%
X73334800Y-124949600D03*
%TO.P,J6,4,Pin_4*%
%TO.N,+5V*%
X70794800Y-124949600D03*
%TO.P,J6,5,Pin_5*%
%TO.N,/GLUE/TMS*%
X73334800Y-122409600D03*
%TO.P,J6,6,Pin_6*%
%TO.N,unconnected-(J6-Pin_6-Pad6)*%
X70794800Y-122409600D03*
%TO.P,J6,7,Pin_7*%
%TO.N,unconnected-(J6-Pin_7-Pad7)*%
X73334800Y-119869600D03*
%TO.P,J6,8,Pin_8*%
%TO.N,unconnected-(J6-Pin_8-Pad8)*%
X70794800Y-119869600D03*
%TO.P,J6,9,Pin_9*%
%TO.N,/GLUE/TDI*%
X73334800Y-117329600D03*
%TO.P,J6,10,Pin_10*%
%TO.N,GNDD*%
X70794800Y-117329600D03*
%TD*%
D11*
%TO.P,R12,1*%
%TO.N,Net-(Q1-B)*%
X142494000Y-68414200D03*
D12*
%TO.P,R12,2*%
%TO.N,/video/Y*%
X134874000Y-68414200D03*
%TD*%
D11*
%TO.P,C8,1*%
%TO.N,+5VD*%
X153934800Y-130999800D03*
%TO.P,C8,2*%
%TO.N,GNDD*%
X148934800Y-130999800D03*
%TD*%
%TO.P,C7,1*%
%TO.N,+5VA*%
X130723000Y-175653000D03*
%TO.P,C7,2*%
%TO.N,GNDD*%
X135723000Y-175653000D03*
%TD*%
D14*
%TO.P,C27,1*%
%TO.N,Net-(U1-SE{slash}~{BTL})*%
X135356600Y-163704913D03*
D11*
%TO.P,C27,2*%
%TO.N,GNDD*%
X135356600Y-161704913D03*
%TD*%
%TO.P,R17,1*%
%TO.N,/GLUE/TCK*%
X76708000Y-127291400D03*
D12*
%TO.P,R17,2*%
%TO.N,GNDD*%
X76708000Y-117131400D03*
%TD*%
D17*
%TO.P,J7,0*%
%TO.N,N/C*%
X147652600Y-85170800D03*
X147652600Y-60170800D03*
D14*
%TO.P,J7,1,1*%
%TO.N,/GLUE/C2P1*%
X146232600Y-78210800D03*
D11*
%TO.P,J7,2,2*%
%TO.N,/GLUE/C2P2*%
X146232600Y-75440800D03*
%TO.P,J7,3,3*%
%TO.N,/GLUE/C2P3*%
X146232600Y-72670800D03*
%TO.P,J7,4,4*%
%TO.N,/GLUE/C2P4*%
X146232600Y-69900800D03*
%TO.P,J7,5,5*%
%TO.N,/controller/ex_ARM*%
X146232600Y-67130800D03*
%TO.P,J7,6,6*%
%TO.N,/GLUE/C2P6*%
X149072600Y-76825800D03*
%TO.P,J7,7,7*%
%TO.N,/GLUE/C2P7*%
X149072600Y-74055800D03*
%TO.P,J7,8,8*%
%TO.N,/controller/ex_FIRE*%
X149072600Y-71285800D03*
%TO.P,J7,9,9*%
%TO.N,Net-(J7-Pad9)*%
X149072600Y-68515800D03*
%TD*%
D24*
%TO.P,U9,1,INPUT/GLCRn*%
%TO.N,/GLUE/~{RESET_SW}*%
X113487200Y-114300900D03*
D25*
%TO.P,U9,2,INPUT/OE2/(GCLK2)*%
%TO.N,/GLUE/C1P1*%
X113487200Y-116840900D03*
%TO.P,U9,3,VCCINT*%
%TO.N,+5V*%
X110947200Y-114300900D03*
%TO.P,U9,4,I/O*%
%TO.N,/GLUE/C1P2*%
X110947200Y-116840900D03*
%TO.P,U9,5,I/O*%
%TO.N,/GLUE/C1P3*%
X108407200Y-114300900D03*
%TO.P,U9,6,I/O*%
%TO.N,/GLUE/C1P4*%
X108407200Y-116840900D03*
%TO.P,U9,7,GND*%
%TO.N,GNDD*%
X105867200Y-114300900D03*
%TO.P,U9,8,I/O*%
%TO.N,/GLUE/C1P6*%
X105867200Y-116840900D03*
%TO.P,U9,9,I/O*%
%TO.N,/GLUE/C1P7*%
X103327200Y-114300900D03*
%TO.P,U9,10,I/O*%
%TO.N,/GLUE/AS*%
X103327200Y-116840900D03*
%TO.P,U9,11,I/O*%
%TO.N,/GLUE/C5_ARM*%
X100787200Y-114300900D03*
%TO.P,U9,12,I/O*%
%TO.N,/GLUE/C8_FIRE*%
X98247200Y-116840900D03*
%TO.P,U9,13,VCCIO*%
%TO.N,+5V*%
X100787200Y-116840900D03*
%TO.P,U9,14,I/O/(TDI)*%
%TO.N,/GLUE/TDI*%
X98247200Y-119380900D03*
%TO.P,U9,15,I/O*%
%TO.N,/GLUE/A15*%
X100787200Y-119380900D03*
%TO.P,U9,16,I/O*%
%TO.N,/GLUE/A14*%
X98247200Y-121920900D03*
%TO.P,U9,17,I/O*%
%TO.N,/GLUE/A13*%
X100787200Y-121920900D03*
%TO.P,U9,18,I/O*%
%TO.N,/GLUE/A12*%
X98247200Y-124460900D03*
%TO.P,U9,19,GND*%
%TO.N,GNDD*%
X100787200Y-124460900D03*
%TO.P,U9,20,I/O*%
%TO.N,/GLUE/A11*%
X98247200Y-127000900D03*
%TO.P,U9,21,I/O*%
%TO.N,/GLUE/A10*%
X100787200Y-127000900D03*
%TO.P,U9,22,I/O*%
%TO.N,/GLUE/A9*%
X98247200Y-129540900D03*
%TO.P,U9,23,I/O/(TMS)*%
%TO.N,/GLUE/TMS*%
X100787200Y-129540900D03*
%TO.P,U9,24,I/O*%
%TO.N,/GLUE/A8*%
X98247200Y-132080900D03*
%TO.P,U9,25,I/O*%
%TO.N,/GLUE/A7*%
X100787200Y-132080900D03*
%TO.P,U9,26,VCCIO*%
%TO.N,+5V*%
X98247200Y-134620900D03*
%TO.P,U9,27,I/O*%
%TO.N,/GLUE/A6*%
X100787200Y-134620900D03*
%TO.P,U9,28,I/O*%
%TO.N,/GLUE/A5*%
X98247200Y-137160900D03*
%TO.P,U9,29,I/O*%
%TO.N,/GLUE/A4*%
X100787200Y-137160900D03*
%TO.P,U9,30,I/O*%
%TO.N,/GLUE/A3*%
X98247200Y-139700900D03*
%TO.P,U9,31,I/O*%
%TO.N,/GLUE/A2*%
X100787200Y-139700900D03*
%TO.P,U9,32,GND*%
%TO.N,GNDD*%
X98247200Y-142240900D03*
%TO.P,U9,33,I/O*%
%TO.N,/GLUE/A1*%
X100787200Y-144780900D03*
%TO.P,U9,34,I/O*%
%TO.N,/GLUE/A0*%
X100787200Y-142240900D03*
%TO.P,U9,35,I/O*%
%TO.N,/GLUE/~{M1}*%
X103327200Y-144780900D03*
%TO.P,U9,36,I/O*%
%TO.N,/GLUE/~{RFSH}*%
X103327200Y-142240900D03*
%TO.P,U9,37,I/O*%
%TO.N,/GLUE/~{RESET}*%
X105867200Y-144780900D03*
%TO.P,U9,38,VCCIO*%
%TO.N,+5V*%
X105867200Y-142240900D03*
%TO.P,U9,39,I/O*%
%TO.N,/GLUE/~{WAIT}*%
X108407200Y-144780900D03*
%TO.P,U9,40,I/O*%
%TO.N,/GLUE/~{RD}*%
X108407200Y-142240900D03*
%TO.P,U9,41,I/O*%
%TO.N,/GLUE/~{RAM_OE}*%
X110947200Y-144780900D03*
%TO.P,U9,42,GND*%
%TO.N,GNDD*%
X110947200Y-142240900D03*
%TO.P,U9,43,VCCITN*%
%TO.N,+5V*%
X113487200Y-144780900D03*
%TO.P,U9,44,I/O*%
%TO.N,/GLUE/~{IORQ}*%
X113487200Y-142240900D03*
%TO.P,U9,45,I/O*%
%TO.N,/GLUE/~{MREQ}*%
X116027200Y-144780900D03*
%TO.P,U9,46,I/O*%
%TO.N,/GLUE/D0*%
X116027200Y-142240900D03*
%TO.P,U9,47,GND*%
%TO.N,GNDD*%
X118567200Y-144780900D03*
%TO.P,U9,48,I/O*%
%TO.N,/GLUE/D1*%
X118567200Y-142240900D03*
%TO.P,U9,49,I/O*%
%TO.N,/GLUE/D7*%
X121107200Y-144780900D03*
%TO.P,U9,50,I/O*%
%TO.N,/GLUE/D2*%
X121107200Y-142240900D03*
%TO.P,U9,51,I/O*%
%TO.N,/GLUE/D6*%
X123647200Y-144780900D03*
%TO.P,U9,52,I/O*%
%TO.N,/GLUE/D5*%
X123647200Y-142240900D03*
%TO.P,U9,53,VCCIO*%
%TO.N,+5V*%
X126187200Y-144780900D03*
%TO.P,U9,54,I/O*%
%TO.N,/GLUE/D4*%
X128727200Y-142240900D03*
%TO.P,U9,55,I/O*%
%TO.N,/GLUE/D3*%
X126187200Y-142240900D03*
%TO.P,U9,56,I/O*%
%TO.N,/GLUE/~{ROM_ENABLE}*%
X128727200Y-139700900D03*
%TO.P,U9,57,I/O*%
%TO.N,/GLUE/~{RAM_CS}*%
X126187200Y-139700900D03*
%TO.P,U9,58,I/O*%
%TO.N,/GLUE/~{SND_ENABLE}*%
X128727200Y-137160900D03*
%TO.P,U9,59,GND*%
%TO.N,GNDD*%
X126187200Y-137160900D03*
%TO.P,U9,60,I/O*%
%TO.N,/GLUE/~{SND_RESET}*%
X128727200Y-134620900D03*
%TO.P,U9,61,I/O*%
%TO.N,/GLUE/~{INT}*%
X126187200Y-134620900D03*
%TO.P,U9,62,I/O/(TCK)*%
%TO.N,/GLUE/TCK*%
X128727200Y-132080900D03*
%TO.P,U9,63,I/O*%
%TO.N,/GLUE/~{CS_hC000}*%
X126187200Y-132080900D03*
%TO.P,U9,64,I/O*%
%TO.N,/GLUE/~{CS_hA000}*%
X128727200Y-129540900D03*
%TO.P,U9,65,I/O*%
%TO.N,/GLUE/~{CS_h8000}*%
X126187200Y-129540900D03*
%TO.P,U9,66,VCCIO*%
%TO.N,+5V*%
X128727200Y-127000900D03*
%TO.P,U9,67,I/O*%
%TO.N,/GLUE/~{CS_hE000}*%
X126187200Y-127000900D03*
%TO.P,U9,68,I/O*%
%TO.N,/GLUE/~{CSR}*%
X128727200Y-124460900D03*
%TO.P,U9,69,I/O*%
%TO.N,/GLUE/~{CSW}*%
X126187200Y-124460900D03*
%TO.P,U9,70,I/O*%
%TO.N,/GLUE/C2P1*%
X128727200Y-121920900D03*
%TO.P,U9,71,I/O/(TDO)*%
%TO.N,/GLUE/TDO*%
X126187200Y-121920900D03*
%TO.P,U9,72,GND*%
%TO.N,GNDD*%
X128727200Y-119380900D03*
%TO.P,U9,73,I/O*%
%TO.N,/GLUE/C2P2*%
X126187200Y-119380900D03*
%TO.P,U9,74,I/O*%
%TO.N,/GLUE/C2P3*%
X128727200Y-116840900D03*
%TO.P,U9,75,I/O*%
%TO.N,/GLUE/C2P4*%
X126187200Y-114300900D03*
%TO.P,U9,76,I/O*%
%TO.N,/GLUE/C2P6*%
X126187200Y-116840900D03*
%TO.P,U9,77,I/O*%
%TO.N,/GLUE/C2P7*%
X123647200Y-114300900D03*
%TO.P,U9,78,VCCIO*%
%TO.N,+5V*%
X123647200Y-116840900D03*
%TO.P,U9,79,I/O*%
%TO.N,/GLUE/~{AY_SND_ENABLE}*%
X121107200Y-114300900D03*
%TO.P,U9,80,I/O*%
%TO.N,/GLUE/C1P9*%
X121107200Y-116840900D03*
%TO.P,U9,81,I/O*%
%TO.N,/GLUE/C2P9*%
X118567200Y-114300900D03*
%TO.P,U9,82,GND*%
%TO.N,GNDD*%
X118567200Y-116840900D03*
%TO.P,U9,83,INPUT/GCLK1*%
%TO.N,/GLUE/CLK*%
X116027200Y-114300900D03*
%TO.P,U9,84,INPUT/OE1*%
%TO.N,/GLUE/~{WR}*%
X116027200Y-116840900D03*
%TD*%
D14*
%TO.P,U11,1,~{WR}*%
%TO.N,/GLUE/~{AY_SND_ENABLE}*%
X153873200Y-133616000D03*
D12*
%TO.P,U11,2,~{CS}*%
X151333200Y-133616000D03*
%TO.P,U11,3,A0*%
%TO.N,/GLUE/AS*%
X148793200Y-133616000D03*
%TO.P,U11,4,VDD*%
%TO.N,+5VD*%
X146253200Y-133616000D03*
%TO.P,U11,5,OUT*%
%TO.N,Net-(U11-OUT)*%
X143713200Y-133616000D03*
%TO.P,U11,6,GND*%
%TO.N,GNDD*%
X141173200Y-133616000D03*
%TO.P,U11,7,CLK*%
%TO.N,/GLUE/CLK*%
X138633200Y-133616000D03*
%TO.P,U11,8,~{RESET}*%
%TO.N,/GLUE/~{SND_RESET}*%
X136093200Y-133616000D03*
%TO.P,U11,9,D7*%
%TO.N,/GLUE/D7*%
X136093200Y-141236000D03*
%TO.P,U11,10,D6*%
%TO.N,/GLUE/D6*%
X138633200Y-141236000D03*
%TO.P,U11,11,D5*%
%TO.N,/GLUE/D5*%
X141173200Y-141236000D03*
%TO.P,U11,12,D4*%
%TO.N,/GLUE/D4*%
X143713200Y-141236000D03*
%TO.P,U11,13,D3*%
%TO.N,/GLUE/D3*%
X146253200Y-141236000D03*
%TO.P,U11,14,D2*%
%TO.N,/GLUE/D2*%
X148793200Y-141236000D03*
%TO.P,U11,15,D1*%
%TO.N,/GLUE/D1*%
X151333200Y-141236000D03*
%TO.P,U11,16,D0*%
%TO.N,/GLUE/D0*%
X153873200Y-141236000D03*
%TD*%
D11*
%TO.P,C16,1*%
%TO.N,Net-(U6-XTAL2)*%
X140081000Y-78746600D03*
%TO.P,C16,2*%
%TO.N,GNDD*%
X140081000Y-81246600D03*
%TD*%
%TO.P,C18,1*%
%TO.N,+5V*%
X92964000Y-134632000D03*
%TO.P,C18,2*%
%TO.N,GNDD*%
X92964000Y-139632000D03*
%TD*%
D26*
%TO.P,D1,1,K*%
%TO.N,GNDD*%
X71297800Y-148403800D03*
D27*
%TO.P,D1,2,A*%
%TO.N,Net-(D1-A)*%
X71297800Y-145863800D03*
%TD*%
D11*
%TO.P,C15,1*%
%TO.N,GNDD*%
X140131800Y-71253600D03*
%TO.P,C15,2*%
%TO.N,Net-(U6-XTAL1)*%
X140131800Y-73753600D03*
%TD*%
%TO.P,R24,1*%
%TO.N,GNDD*%
X147294600Y-164527800D03*
D12*
%TO.P,R24,2*%
%TO.N,/sound/HP+*%
X154914600Y-164527800D03*
%TD*%
D14*
%TO.P,RN2,1,common*%
%TO.N,+5V*%
X154787600Y-112508600D03*
D12*
%TO.P,RN2,2,R1*%
%TO.N,/GLUE/C2P1*%
X152247600Y-112508600D03*
%TO.P,RN2,3,R2*%
%TO.N,/GLUE/C2P2*%
X149707600Y-112508600D03*
%TO.P,RN2,4,R3*%
%TO.N,/GLUE/C2P3*%
X147167600Y-112508600D03*
%TO.P,RN2,5,R4*%
%TO.N,/GLUE/C2P4*%
X144627600Y-112508600D03*
%TO.P,RN2,6,R5*%
%TO.N,/GLUE/C2P6*%
X142087600Y-112508600D03*
%TO.P,RN2,7,R6*%
%TO.N,/GLUE/C2P7*%
X139547600Y-112508600D03*
%TD*%
D11*
%TO.P,C14,1*%
%TO.N,+5VP*%
X134772400Y-57299800D03*
%TO.P,C14,2*%
%TO.N,GNDD*%
X134772400Y-52299800D03*
%TD*%
D28*
%TO.P,SW1,*%
%TO.N,*%
X73747000Y-158386400D03*
X73747000Y-151386400D03*
D29*
%TO.P,SW1,1,1*%
%TO.N,Net-(C1-Pad1)*%
X71247000Y-157136400D03*
%TO.P,SW1,2,2*%
%TO.N,GNDD*%
X71247000Y-152636400D03*
%TD*%
D11*
%TO.P,R27,1*%
%TO.N,/sound/HP_BTL*%
X145043450Y-175032600D03*
D12*
%TO.P,R27,2*%
%TO.N,+5VA*%
X145043450Y-167412600D03*
%TD*%
D11*
%TO.P,C25,1*%
%TO.N,GNDD*%
X126589800Y-168185400D03*
%TO.P,C25,2*%
%TO.N,+5V*%
X121589800Y-168185400D03*
%TD*%
D15*
%TO.P,J2,1,Pin_1*%
%TO.N,/sound/SP+*%
X128905000Y-180967000D03*
D16*
%TO.P,J2,2,Pin_2*%
%TO.N,/sound/SP-*%
X126365000Y-180967000D03*
%TD*%
D13*
%TO.P,H7,1,1*%
%TO.N,unconnected-(H7-Pad1)*%
X110375700Y-84352700D03*
%TD*%
D11*
%TO.P,L2,1,1*%
%TO.N,+5VD*%
X129870200Y-154012200D03*
D12*
%TO.P,L2,2,2*%
%TO.N,+5V*%
X119710200Y-154012200D03*
%TD*%
D11*
%TO.P,R5,1*%
%TO.N,Net-(C4-Pad2)*%
X133654800Y-151827800D03*
D12*
%TO.P,R5,2*%
%TO.N,Net-(U2-OUT)*%
X133654800Y-144207800D03*
%TD*%
D14*
%TO.P,U5,1,VPP*%
%TO.N,+5V*%
X81061400Y-166082200D03*
D12*
%TO.P,U5,2,A12*%
%TO.N,/GLUE/A12*%
X83601400Y-166082200D03*
%TO.P,U5,3,A7*%
%TO.N,/GLUE/A7*%
X86141400Y-166082200D03*
%TO.P,U5,4,A6*%
%TO.N,/GLUE/A6*%
X88681400Y-166082200D03*
%TO.P,U5,5,A5*%
%TO.N,/GLUE/A5*%
X91221400Y-166082200D03*
%TO.P,U5,6,A4*%
%TO.N,/GLUE/A4*%
X93761400Y-166082200D03*
%TO.P,U5,7,A3*%
%TO.N,/GLUE/A3*%
X96301400Y-166082200D03*
%TO.P,U5,8,A2*%
%TO.N,/GLUE/A2*%
X98841400Y-166082200D03*
%TO.P,U5,9,A1*%
%TO.N,/GLUE/A1*%
X101381400Y-166082200D03*
%TO.P,U5,10,A0*%
%TO.N,/GLUE/A0*%
X103921400Y-166082200D03*
%TO.P,U5,11,D0*%
%TO.N,/GLUE/D0*%
X106461400Y-166082200D03*
%TO.P,U5,12,D1*%
%TO.N,/GLUE/D1*%
X109001400Y-166082200D03*
%TO.P,U5,13,D2*%
%TO.N,/GLUE/D2*%
X111541400Y-166082200D03*
%TO.P,U5,14,GND*%
%TO.N,GNDD*%
X114081400Y-166082200D03*
%TO.P,U5,15,D3*%
%TO.N,/GLUE/D3*%
X114081400Y-150842200D03*
%TO.P,U5,16,D4*%
%TO.N,/GLUE/D4*%
X111541400Y-150842200D03*
%TO.P,U5,17,D5*%
%TO.N,/GLUE/D5*%
X109001400Y-150842200D03*
%TO.P,U5,18,D6*%
%TO.N,/GLUE/D6*%
X106461400Y-150842200D03*
%TO.P,U5,19,D7*%
%TO.N,/GLUE/D7*%
X103921400Y-150842200D03*
%TO.P,U5,20,~{CE}*%
%TO.N,/GLUE/~{ROM_ENABLE}*%
X101381400Y-150842200D03*
%TO.P,U5,21,A10*%
%TO.N,/GLUE/A10*%
X98841400Y-150842200D03*
%TO.P,U5,22,~{OE}*%
%TO.N,/GLUE/~{ROM_ENABLE}*%
X96301400Y-150842200D03*
%TO.P,U5,23,A11*%
%TO.N,/GLUE/A11*%
X93761400Y-150842200D03*
%TO.P,U5,24,A9*%
%TO.N,/GLUE/A9*%
X91221400Y-150842200D03*
%TO.P,U5,25,A8*%
%TO.N,/GLUE/A8*%
X88681400Y-150842200D03*
%TO.P,U5,26,A13*%
%TO.N,+5V*%
X86141400Y-150842200D03*
%TO.P,U5,27,A14*%
X83601400Y-150842200D03*
%TO.P,U5,28,VCC*%
X81061400Y-150842200D03*
%TD*%
D11*
%TO.P,C19,1*%
%TO.N,+5V*%
X93649800Y-116267800D03*
%TO.P,C19,2*%
%TO.N,GNDD*%
X88649800Y-116267800D03*
%TD*%
D13*
%TO.P,H4,1,1*%
%TO.N,unconnected-(H4-Pad1)*%
X72110600Y-49415000D03*
%TD*%
D11*
%TO.P,R18,1*%
%TO.N,Net-(J7-Pad9)*%
X155270200Y-89801000D03*
D12*
%TO.P,R18,2*%
%TO.N,/GLUE/C2P9*%
X155270200Y-99961000D03*
%TD*%
D11*
%TO.P,R1,1*%
%TO.N,+5V*%
X78409800Y-133158800D03*
D12*
%TO.P,R1,2*%
%TO.N,Net-(C1-Pad1)*%
X88569800Y-133158800D03*
%TD*%
D13*
%TO.P,H1,1,1*%
%TO.N,unconnected-(H1-Pad1)*%
X153466800Y-184009600D03*
%TD*%
D11*
%TO.P,R26,1*%
%TO.N,GNDD*%
X142316200Y-150100600D03*
D12*
%TO.P,R26,2*%
%TO.N,Net-(C26-Pad2)*%
X142316200Y-157720600D03*
%TD*%
D11*
%TO.P,C6,1*%
%TO.N,/sound/SP+*%
X135541550Y-172757400D03*
%TO.P,C6,2*%
%TO.N,Net-(U1-IN)*%
X135541550Y-167757400D03*
%TD*%
%TO.P,R2,1*%
%TO.N,Net-(C1-Pad1)*%
X76271200Y-130029600D03*
D12*
%TO.P,R2,2*%
%TO.N,/GLUE/~{RESET_SW}*%
X86431200Y-130029600D03*
%TD*%
D30*
%TO.P,SW3,*%
%TO.N,*%
X71011800Y-134113400D03*
X71011800Y-142313400D03*
D31*
%TO.P,SW3,1,A*%
%TO.N,/controller/ex_disable*%
X71011800Y-136213400D03*
D32*
%TO.P,SW3,2,B*%
%TO.N,GNDD*%
X71011800Y-138213400D03*
%TO.P,SW3,3,C*%
%TO.N,/controller/in_disable*%
X71011800Y-140213400D03*
%TD*%
D11*
%TO.P,C12,1*%
%TO.N,+5VP*%
X106908600Y-57249000D03*
%TO.P,C12,2*%
%TO.N,GNDD*%
X106908600Y-52249000D03*
%TD*%
%TO.P,R15,1*%
%TO.N,/GLUE/TMS*%
X82778600Y-127316800D03*
D12*
%TO.P,R15,2*%
%TO.N,+5V*%
X82778600Y-117156800D03*
%TD*%
D11*
%TO.P,C11,1*%
%TO.N,+5V*%
X77901800Y-150978800D03*
%TO.P,C11,2*%
%TO.N,GNDD*%
X77901800Y-155978800D03*
%TD*%
D14*
%TO.P,C30,1*%
%TO.N,+5V*%
X130697087Y-85533800D03*
D11*
%TO.P,C30,2*%
%TO.N,GNDD*%
X133197087Y-85533800D03*
%TD*%
D15*
%TO.P,J10,1,Pin_1*%
%TO.N,Net-(J10-Pin_1)*%
X87426800Y-138472800D03*
D16*
%TO.P,J10,2,Pin_2*%
%TO.N,GNDD*%
X84886800Y-138472800D03*
%TD*%
D11*
%TO.P,R25,1*%
%TO.N,Net-(U1-IN)*%
X138708850Y-166447400D03*
D12*
%TO.P,R25,2*%
%TO.N,/sound/SP+*%
X138708850Y-174067400D03*
%TD*%
D11*
%TO.P,C21,1*%
%TO.N,/GLUE/C2P9*%
X155244800Y-102490200D03*
%TO.P,C21,2*%
%TO.N,GNDD*%
X155244800Y-107490200D03*
%TD*%
D33*
%TO.P,J4,1,Pin_1*%
%TO.N,/GLUE/D2*%
X130073400Y-103567800D03*
%TO.P,J4,2,Pin_2*%
%TO.N,/GLUE/~{CS_hC000}*%
X130073400Y-98741800D03*
%TO.P,J4,3,Pin_3*%
%TO.N,/GLUE/D1*%
X127533400Y-103567800D03*
%TO.P,J4,4,Pin_4*%
%TO.N,/GLUE/D3*%
X127533400Y-98741800D03*
%TO.P,J4,5,Pin_5*%
%TO.N,/GLUE/D0*%
X124993400Y-103567800D03*
%TO.P,J4,6,Pin_6*%
%TO.N,/GLUE/D4*%
X124993400Y-98741800D03*
%TO.P,J4,7,Pin_7*%
%TO.N,/GLUE/A0*%
X122453400Y-103567800D03*
%TO.P,J4,8,Pin_8*%
%TO.N,/GLUE/D5*%
X122453400Y-98741800D03*
%TO.P,J4,9,Pin_9*%
%TO.N,/GLUE/A1*%
X119913400Y-103567800D03*
%TO.P,J4,10,Pin_10*%
%TO.N,/GLUE/D6*%
X119913400Y-98741800D03*
%TO.P,J4,11,Pin_11*%
%TO.N,/GLUE/A2*%
X117373400Y-103567800D03*
%TO.P,J4,12,Pin_12*%
%TO.N,/GLUE/D7*%
X117373400Y-98741800D03*
%TO.P,J4,13,Pin_13*%
%TO.N,GND*%
X114833400Y-103567800D03*
%TO.P,J4,14,Pin_14*%
%TO.N,/GLUE/A11*%
X114833400Y-98741800D03*
%TO.P,J4,15,Pin_15*%
%TO.N,/GLUE/A3*%
X112293400Y-103567800D03*
%TO.P,J4,16,Pin_16*%
%TO.N,/GLUE/A10*%
X112293400Y-98741800D03*
%TO.P,J4,17,Pin_17*%
%TO.N,/GLUE/A4*%
X109753400Y-103567800D03*
%TO.P,J4,18,Pin_18*%
%TO.N,/GLUE/~{CS_h8000}*%
X109753400Y-98741800D03*
%TO.P,J4,19,Pin_19*%
%TO.N,/GLUE/A13*%
X107213400Y-103567800D03*
%TO.P,J4,20,Pin_20*%
%TO.N,/GLUE/A14*%
X107213400Y-98741800D03*
%TO.P,J4,21,Pin_21*%
%TO.N,/GLUE/A5*%
X104673400Y-103567800D03*
%TO.P,J4,22,Pin_22*%
%TO.N,/GLUE/~{CS_hA000}*%
X104673400Y-98741800D03*
%TO.P,J4,23,Pin_23*%
%TO.N,/GLUE/A6*%
X102133400Y-103567800D03*
%TO.P,J4,24,Pin_24*%
%TO.N,/GLUE/A12*%
X102133400Y-98741800D03*
%TO.P,J4,25,Pin_25*%
%TO.N,/GLUE/A7*%
X99593400Y-103567800D03*
%TO.P,J4,26,Pin_26*%
%TO.N,/GLUE/A9*%
X99593400Y-98741800D03*
%TO.P,J4,27,Pin_27*%
%TO.N,/GLUE/~{CS_hE000}*%
X97053400Y-103567800D03*
%TO.P,J4,28,Pin_28*%
%TO.N,/GLUE/A8*%
X97053400Y-98741800D03*
%TO.P,J4,29,Pin_29*%
%TO.N,GNDD*%
X94513400Y-103567800D03*
%TO.P,J4,30,Pin_30*%
%TO.N,+5V*%
X94513400Y-98741800D03*
D34*
%TO.P,J4,MH1*%
%TO.N,N/C*%
X138643400Y-101166800D03*
%TO.P,J4,MH2*%
X85943400Y-101166800D03*
%TD*%
D11*
%TO.P,C23,1*%
%TO.N,+5VD*%
X146314800Y-130999800D03*
%TO.P,C23,2*%
%TO.N,GNDD*%
X141314800Y-130999800D03*
%TD*%
%TO.P,C29,1*%
%TO.N,+5V*%
X127290200Y-86854600D03*
%TO.P,C29,2*%
%TO.N,GNDD*%
X122290200Y-86854600D03*
%TD*%
D35*
%TO.P,SW2,1,A*%
%TO.N,unconnected-(SW2-A-Pad1)*%
X72515500Y-176189600D03*
%TO.P,SW2,2,B*%
%TO.N,Net-(J10-Pin_1)*%
X77215500Y-176189600D03*
%TO.P,SW2,3,C*%
%TO.N,+5V*%
X81915500Y-176189600D03*
%TO.P,SW2,4*%
%TO.N,N/C*%
X70610500Y-185719600D03*
X83820500Y-185719600D03*
%TD*%
D14*
%TO.P,U8,1,~{G}*%
%TO.N,GNDD*%
X83362800Y-58736800D03*
D12*
%TO.P,U8,2,DQ1*%
%TO.N,/video/R7*%
X85902800Y-58736800D03*
%TO.P,U8,3,DQ2*%
%TO.N,/video/R6*%
X88442800Y-58736800D03*
%TO.P,U8,4,~{W}*%
%TO.N,/video/RnW*%
X90982800Y-58736800D03*
%TO.P,U8,5,~{RAS}*%
%TO.N,/video/nRAS*%
X93522800Y-58736800D03*
%TO.P,U8,6,A6*%
%TO.N,/video/AD1*%
X96062800Y-58736800D03*
%TO.P,U8,7,A5*%
%TO.N,/video/AD2*%
X98602800Y-58736800D03*
%TO.P,U8,8,A4*%
%TO.N,/video/AD3*%
X101142800Y-58736800D03*
%TO.P,U8,9,VDD*%
%TO.N,+5VP*%
X103682800Y-58736800D03*
%TO.P,U8,10,A7*%
%TO.N,/video/AD0*%
X103682800Y-51116800D03*
%TO.P,U8,11,A3*%
%TO.N,/video/AD4*%
X101142800Y-51116800D03*
%TO.P,U8,12,A2*%
%TO.N,/video/AD5*%
X98602800Y-51116800D03*
%TO.P,U8,13,A1*%
%TO.N,/video/AD6*%
X96062800Y-51116800D03*
%TO.P,U8,14,A0*%
%TO.N,/video/AD7*%
X93522800Y-51116800D03*
%TO.P,U8,15,DQ3*%
%TO.N,/video/R5*%
X90982800Y-51116800D03*
%TO.P,U8,16,~{CAS}*%
%TO.N,/video/nCAS*%
X88442800Y-51116800D03*
%TO.P,U8,17,DQ4*%
%TO.N,/video/R4*%
X85902800Y-51116800D03*
%TO.P,U8,18,VSS*%
%TO.N,GNDD*%
X83362800Y-51116800D03*
%TD*%
D14*
%TO.P,C5,1*%
%TO.N,+5VD*%
X124129800Y-161544688D03*
D11*
%TO.P,C5,2*%
%TO.N,GNDD*%
X124129800Y-164044688D03*
%TD*%
%TO.P,C1,1*%
%TO.N,Net-(C1-Pad1)*%
X89204800Y-130284800D03*
%TO.P,C1,2*%
%TO.N,GNDD*%
X89204800Y-125284800D03*
%TD*%
D36*
%TO.P,Q1,1,E*%
%TO.N,Net-(Q1-E)*%
X142671800Y-59490800D03*
D10*
%TO.P,Q1,2,B*%
%TO.N,Net-(Q1-B)*%
X140131800Y-62030800D03*
%TO.P,Q1,3,C*%
%TO.N,+5VP*%
X137591800Y-59490800D03*
%TD*%
D14*
%TO.P,C26,1*%
%TO.N,Net-(C26-Pad1)*%
X139960600Y-162749800D03*
D11*
%TO.P,C26,2*%
%TO.N,Net-(C26-Pad2)*%
X141960600Y-162749800D03*
%TD*%
%TO.P,R11,1*%
%TO.N,Net-(Q1-B)*%
X134874000Y-64858200D03*
D12*
%TO.P,R11,2*%
%TO.N,GNDD*%
X142494000Y-64858200D03*
%TD*%
D11*
%TO.P,R4,1*%
%TO.N,/sound/HP_BTL*%
X141876150Y-175032600D03*
D12*
%TO.P,R4,2*%
%TO.N,Net-(U1-SE{slash}~{BTL})*%
X141876150Y-167412600D03*
%TD*%
D22*
%TO.P,J1,1,Pin_1*%
%TO.N,/GLUE/C1P1*%
X83789600Y-86981600D03*
D23*
%TO.P,J1,2,Pin_2*%
%TO.N,/GLUE/C1P2*%
X86329600Y-86981600D03*
%TO.P,J1,3,Pin_3*%
%TO.N,/GLUE/C1P3*%
X88869600Y-86981600D03*
%TO.P,J1,4,Pin_4*%
%TO.N,/GLUE/C1P4*%
X91409600Y-86981600D03*
%TO.P,J1,5,Pin_5*%
%TO.N,/controller/in_ARM*%
X93949600Y-86981600D03*
%TO.P,J1,6,Pin_6*%
%TO.N,/GLUE/C1P6*%
X96489600Y-86981600D03*
%TO.P,J1,7,Pin_7*%
%TO.N,/controller/in_FIRE*%
X99029600Y-86981600D03*
%TD*%
D14*
%TO.P,U2,1,D2*%
%TO.N,/GLUE/D5*%
X153924000Y-120595800D03*
D12*
%TO.P,U2,2,D1*%
%TO.N,/GLUE/D6*%
X151384000Y-120595800D03*
%TO.P,U2,3,D0*%
%TO.N,/GLUE/D7*%
X148844000Y-120595800D03*
%TO.P,U2,4,RDY*%
%TO.N,/GLUE/~{WAIT}*%
X146304000Y-120595800D03*
%TO.P,U2,5,~{WE}*%
%TO.N,/GLUE/~{SND_ENABLE}*%
X143764000Y-120595800D03*
%TO.P,U2,6,~{CE}*%
X141224000Y-120595800D03*
%TO.P,U2,7,OUT*%
%TO.N,Net-(U2-OUT)*%
X138684000Y-120595800D03*
%TO.P,U2,8,GND*%
%TO.N,GNDD*%
X136144000Y-120595800D03*
%TO.P,U2,9,N.C.*%
%TO.N,unconnected-(U2-N.C.-Pad9)*%
X136144000Y-128215800D03*
%TO.P,U2,10,D7*%
%TO.N,/GLUE/D0*%
X138684000Y-128215800D03*
%TO.P,U2,11,D6*%
%TO.N,/GLUE/D1*%
X141224000Y-128215800D03*
%TO.P,U2,12,D5*%
%TO.N,/GLUE/D2*%
X143764000Y-128215800D03*
%TO.P,U2,13,D4*%
%TO.N,/GLUE/D3*%
X146304000Y-128215800D03*
%TO.P,U2,14,CLK*%
%TO.N,/GLUE/CLK*%
X148844000Y-128215800D03*
%TO.P,U2,15,D3*%
%TO.N,/GLUE/D4*%
X151384000Y-128215800D03*
%TO.P,U2,16,VCC*%
%TO.N,+5VD*%
X153924000Y-128215800D03*
%TD*%
D11*
%TO.P,C13,1*%
%TO.N,+5VP*%
X115087400Y-82108600D03*
%TO.P,C13,2*%
%TO.N,GNDD*%
X115087400Y-87108600D03*
%TD*%
D14*
%TO.P,C2,1*%
%TO.N,/sound/SP+*%
X152323800Y-168221149D03*
D11*
%TO.P,C2,2*%
%TO.N,/sound/HP+*%
X152323800Y-173221149D03*
%TD*%
D37*
%TO.N,/GLUE/C5_ARM*%
X82967581Y-94872511D03*
D38*
%TO.N,GNDD*%
X127939800Y-171589000D03*
X122250200Y-124954600D03*
X79933800Y-89521600D03*
X81711800Y-100443600D03*
X111785400Y-129933000D03*
%TO.N,+5V*%
X77582340Y-91949260D03*
X117271800Y-141007400D03*
D37*
%TO.N,/GLUE/C5_ARM*%
X89662000Y-112889600D03*
%TO.N,/GLUE/C1P7*%
X74650101Y-82542320D03*
%TO.N,/GLUE/C1P6*%
X73685400Y-82511200D03*
%TO.N,/GLUE/C8_FIRE*%
X99364800Y-109297100D03*
%TO.N,/GLUE/C1P9*%
X121818400Y-111888400D03*
%TO.N,/GLUE/TCK*%
X96538313Y-121756618D03*
%TO.N,/GLUE/TMS*%
X92710574Y-131197630D03*
%TO.N,/GLUE/~{INT}*%
X117906800Y-133666800D03*
%TO.N,/GLUE/CLK*%
X140497766Y-122170966D03*
X130722085Y-110398093D03*
%TO.N,/GLUE/~{RAM_CS}*%
X116611400Y-148144800D03*
%TO.N,/GLUE/~{ROM_ENABLE}*%
X98983800Y-152716800D03*
%TO.N,/video/R5*%
X102412800Y-73773600D03*
%TO.N,/video/R4*%
X105079800Y-73773600D03*
%TO.N,/cpu/~{NMI}*%
X89725600Y-78472600D03*
X124355162Y-127289418D03*
X118033800Y-129856800D03*
%TO.N,/GLUE/D4*%
X129286000Y-101027800D03*
X129184400Y-150049800D03*
%TO.N,/GLUE/D3*%
X123875800Y-131380800D03*
X125450600Y-130745800D03*
X128473396Y-150735600D03*
%TO.N,/GLUE/D5*%
X127228600Y-149872000D03*
%TO.N,/GLUE/D6*%
X123571000Y-149237000D03*
X115620800Y-133452500D03*
%TO.N,/GLUE/D2*%
X118033794Y-146235693D03*
%TO.N,/GLUE/D7*%
X121970800Y-148551200D03*
X127838200Y-106260200D03*
%TO.N,/GLUE/D0*%
X115925600Y-152437400D03*
X121894600Y-152843800D03*
X115747800Y-146239800D03*
%TO.N,/GLUE/D1*%
X117068600Y-146239800D03*
X120878600Y-152107200D03*
X117170200Y-151726200D03*
%TO.N,/GLUE/A0*%
X101828600Y-95389000D03*
%TO.N,/GLUE/A10*%
X103013860Y-122530500D03*
%TO.N,/GLUE/A11*%
X103555300Y-121692800D03*
%TO.N,/GLUE/A12*%
X94180400Y-155442100D03*
%TO.N,/GLUE/A13*%
X84646488Y-163474688D03*
%TO.N,/GLUE/C2P4*%
X134012493Y-113145373D03*
%TO.N,/GLUE/C2P1*%
X134899400Y-115759800D03*
%TO.N,/GLUE/C2P2*%
X134899400Y-114794597D03*
%TO.N,/GLUE/C2P3*%
X134793194Y-113835255D03*
%TO.N,/GLUE/C2P7*%
X132665203Y-111798083D03*
%TO.N,/GLUE/C2P6*%
X133503606Y-112325221D03*
%TO.N,/GLUE/C2P9*%
X132690966Y-110760495D03*
%TO.N,/controller/ex_ARM*%
X112318800Y-90664600D03*
X83870800Y-92798200D03*
X138480800Y-90664600D03*
X108889800Y-90664600D03*
%TO.N,/controller/ex_FIRE*%
X109397800Y-91553600D03*
X113715800Y-91553600D03*
X139496800Y-91553600D03*
X84251800Y-95744600D03*
%TO.N,/controller/in_disable*%
X78917800Y-96587600D03*
%TO.N,/controller/ex_disable*%
X77647800Y-93966600D03*
%TD*%
D39*
%TO.N,/controller/ex_ARM*%
X83870800Y-92798200D02*
X90246200Y-92798200D01*
X90246200Y-92798200D02*
X92379800Y-90664600D01*
X92379800Y-90664600D02*
X108889800Y-90664600D01*
%TO.N,/controller/ex_disable*%
X77647800Y-93966600D02*
X77647800Y-99681600D01*
X87553800Y-109587600D02*
X87553800Y-112928024D01*
X77647800Y-99681600D02*
X87553800Y-109587600D01*
X87553800Y-112928024D02*
X85941224Y-114540600D01*
X85941224Y-114540600D02*
X76631800Y-114540600D01*
X76631800Y-114540600D02*
X74726800Y-116445600D01*
X74726800Y-116445600D02*
X74726800Y-132998400D01*
X74726800Y-132998400D02*
X71511800Y-136213400D01*
X71511800Y-136213400D02*
X71011800Y-136213400D01*
%TO.N,GNDD*%
X81915500Y-170963500D02*
X82072400Y-170806600D01*
%TO.N,Net-(J3-In)*%
X137033000Y-48551400D02*
X82677000Y-48551400D01*
X141140800Y-53783800D02*
X141086200Y-53729200D01*
X82677000Y-48551400D02*
X79832200Y-51396200D01*
X141086200Y-52604600D02*
X137033000Y-48551400D01*
X79832200Y-51396200D02*
X79832200Y-53275800D01*
%TO.N,/GLUE/C1P4*%
X75869800Y-78853600D02*
X77495400Y-78853600D01*
X80206600Y-86857672D02*
X80206600Y-81564800D01*
X81330800Y-112508600D02*
X80441800Y-112508600D01*
X72999600Y-81723800D02*
X75869800Y-78853600D01*
X77993000Y-78356000D02*
X77993000Y-76910400D01*
X77495400Y-78853600D02*
X77993000Y-78356000D01*
X91409600Y-86981600D02*
X89442000Y-88949200D01*
X80206600Y-81564800D02*
X77495400Y-78853600D01*
X89442000Y-88949200D02*
X82298128Y-88949200D01*
X82298128Y-88949200D02*
X80206600Y-86857672D01*
X77993000Y-76910400D02*
X79321800Y-75581600D01*
X80441800Y-112508600D02*
X72999600Y-105066400D01*
X72999600Y-105066400D02*
X72999600Y-81723800D01*
%TO.N,/GLUE/C1P1*%
X82258000Y-70207800D02*
X79321800Y-67271600D01*
X73012400Y-111464264D02*
X71780400Y-110232264D01*
X76024176Y-70321800D02*
X76474800Y-70321800D01*
X74726800Y-71619176D02*
X76024176Y-70321800D01*
X71780400Y-110232264D02*
X71780400Y-79361600D01*
X71780400Y-79361600D02*
X74726800Y-76415200D01*
X83789600Y-86981600D02*
X82258000Y-85450000D01*
X76474800Y-70321800D02*
X79525000Y-67271600D01*
X74726800Y-76415200D02*
X74726800Y-71619176D01*
X73012400Y-111810200D02*
X73012400Y-111464264D01*
X73710800Y-112508600D02*
X73012400Y-111810200D01*
X82258000Y-85450000D02*
X82258000Y-70207800D01*
%TO.N,/GLUE/C1P2*%
X86329600Y-86981600D02*
X85174800Y-88136400D01*
X76250800Y-111975200D02*
X72186800Y-107911200D01*
X75996800Y-72757600D02*
X76809000Y-72757600D01*
X72186800Y-79699176D02*
X75133200Y-76752776D01*
X85174800Y-88136400D02*
X82634800Y-88136400D01*
X76250800Y-112508600D02*
X76250800Y-111975200D01*
X76809000Y-72757600D02*
X79525000Y-70041600D01*
X81711800Y-72431600D02*
X79321800Y-70041600D01*
X75133200Y-76752776D02*
X75133200Y-73621200D01*
X81711800Y-87213400D02*
X81711800Y-72431600D01*
X72186800Y-107911200D02*
X72186800Y-79699176D01*
X82634800Y-88136400D02*
X81711800Y-87213400D01*
X75133200Y-73621200D02*
X75996800Y-72757600D01*
%TO.N,/GLUE/C1P3*%
X78790800Y-112508600D02*
X78028800Y-112508600D01*
X76939424Y-78071400D02*
X77586600Y-77424224D01*
X80629800Y-76100200D02*
X80629800Y-73916400D01*
X72593200Y-81495200D02*
X76017000Y-78071400D01*
X80629800Y-73916400D02*
X79525000Y-72811600D01*
X77586600Y-77424224D02*
X77586600Y-74546800D01*
X77586600Y-74546800D02*
X79321800Y-72811600D01*
X88869600Y-86981600D02*
X87308400Y-88542800D01*
X87308400Y-88542800D02*
X82466464Y-88542800D01*
X82466464Y-88542800D02*
X80629800Y-86706136D01*
X76017000Y-78071400D02*
X76939424Y-78071400D01*
X78028800Y-112508600D02*
X72593200Y-107073000D01*
X72593200Y-107073000D02*
X72593200Y-81495200D01*
X80629800Y-86706136D02*
X80629800Y-76100200D01*
%TO.N,/GLUE/C5_ARM*%
X89662000Y-109282800D02*
X89662000Y-112889600D01*
X82981800Y-102602600D02*
X89662000Y-109282800D01*
X82981800Y-94886730D02*
X82981800Y-102602600D01*
X82967581Y-94872511D02*
X82981800Y-94886730D01*
X82967581Y-94872511D02*
X82981800Y-94858292D01*
%TO.N,/GLUE/C1P7*%
X74650101Y-82542320D02*
X74650101Y-82613299D01*
X74650101Y-82613299D02*
X73812400Y-83451000D01*
X73812400Y-83451000D02*
X73812400Y-99910200D01*
X73812400Y-99910200D02*
X86410800Y-112508600D01*
%TO.N,/GLUE/C1P6*%
X75335901Y-86005181D02*
X77455320Y-88124600D01*
X73685400Y-82511200D02*
X73406000Y-82790600D01*
X73685400Y-82435000D02*
X74263880Y-81856520D01*
X74263880Y-81856520D02*
X74934169Y-81856520D01*
X73406000Y-102907400D02*
X83007200Y-112508600D01*
X77455320Y-88124600D02*
X80187800Y-88124600D01*
X73406000Y-82790600D02*
X73406000Y-102907400D01*
X75335901Y-82258252D02*
X75335901Y-86005181D01*
X73685400Y-82511200D02*
X73685400Y-82435000D01*
X81418800Y-89355600D02*
X94115600Y-89355600D01*
X94115600Y-89355600D02*
X96489600Y-86981600D01*
X83007200Y-112508600D02*
X83870800Y-112508600D01*
X74934169Y-81856520D02*
X75335901Y-82258252D01*
X80187800Y-88124600D02*
X81418800Y-89355600D01*
%TO.N,/GLUE/C8_FIRE*%
X97967800Y-116561500D02*
X98247200Y-116840900D01*
X99364800Y-109297100D02*
X97967800Y-110694100D01*
X97967800Y-110694100D02*
X97967800Y-116561500D01*
%TO.N,/GLUE/C1P9*%
X120065800Y-115799500D02*
X121107200Y-116840900D01*
X121818400Y-111888400D02*
X120065800Y-113641000D01*
X121107200Y-116186226D02*
X121107200Y-116840900D01*
X120065800Y-113641000D02*
X120065800Y-115799500D01*
%TO.N,/GLUE/TCK*%
X127649300Y-133158800D02*
X128727200Y-132080900D01*
X118160800Y-131507800D02*
X119811800Y-133158800D01*
X119811800Y-133158800D02*
X127649300Y-133158800D01*
X99180877Y-122998800D02*
X101396800Y-122998800D01*
X98836377Y-123343300D02*
X99180877Y-122998800D01*
X101396800Y-122998800D02*
X109905800Y-131507800D01*
X97658023Y-123343300D02*
X98836377Y-123343300D01*
X109905800Y-131507800D02*
X118160800Y-131507800D01*
X96538313Y-122223590D02*
X97658023Y-123343300D01*
X96538313Y-121756618D02*
X96538313Y-122223590D01*
%TO.N,/GLUE/TMS*%
X90226744Y-128713800D02*
X84175600Y-128713800D01*
X92710574Y-131197630D02*
X90226744Y-128713800D01*
X84175600Y-128713800D02*
X82778600Y-127316800D01*
%TO.N,/GLUE/~{INT}*%
X118541800Y-133666800D02*
X119430800Y-134555800D01*
X126122100Y-134555800D02*
X126187200Y-134620900D01*
X117906800Y-133666800D02*
X118541800Y-133666800D01*
X119430800Y-134555800D02*
X126122100Y-134555800D01*
%TO.N,/GLUE/~{WAIT}*%
X117809307Y-146921493D02*
X122943448Y-146921493D01*
X111963200Y-145503200D02*
X113385600Y-146925600D01*
X113385600Y-146925600D02*
X117805200Y-146925600D01*
X109423200Y-143764900D02*
X111469500Y-143764900D01*
X117805200Y-146925600D02*
X117809307Y-146921493D01*
X124663200Y-141820059D02*
X124068041Y-141224900D01*
X149515500Y-138227700D02*
X152704800Y-135038400D01*
X152704800Y-126996600D02*
X146304000Y-120595800D01*
X108407200Y-144780900D02*
X109423200Y-143764900D01*
X152704800Y-135038400D02*
X152704800Y-126996600D01*
X124068041Y-139392759D02*
X125233100Y-138227700D01*
X124068041Y-141224900D02*
X124068041Y-139392759D01*
X111469500Y-143764900D02*
X111963200Y-144258600D01*
X122943448Y-146921493D02*
X124663200Y-145201741D01*
X124663200Y-145201741D02*
X124663200Y-141820059D01*
X125233100Y-138227700D02*
X149515500Y-138227700D01*
X111963200Y-144258600D02*
X111963200Y-145503200D01*
%TO.N,/GLUE/CLK*%
X130722085Y-110398093D02*
X130694378Y-110425800D01*
X122871726Y-110160700D02*
X120167400Y-110160700D01*
X146024600Y-125396400D02*
X148844000Y-128215800D01*
X120167400Y-110160700D02*
X116027200Y-114300900D01*
X130694378Y-110425800D02*
X123136826Y-110425800D01*
X123136826Y-110425800D02*
X122871726Y-110160700D01*
X143037400Y-125396400D02*
X146024600Y-125396400D01*
X140497766Y-122170966D02*
X140497766Y-122856766D01*
X140497766Y-122856766D02*
X143037400Y-125396400D01*
%TO.N,/GLUE/~{RAM_CS}*%
X124738384Y-147738400D02*
X127254000Y-145222784D01*
X127254000Y-140767700D02*
X126187200Y-139700900D01*
X116611400Y-148144800D02*
X117017800Y-147738400D01*
X117017800Y-147738400D02*
X124738384Y-147738400D01*
X127254000Y-145222784D02*
X127254000Y-140767700D01*
%TO.N,/GLUE/~{ROM_ENABLE}*%
X97205800Y-152716800D02*
X96301400Y-151812400D01*
X125120400Y-139330859D02*
X125780659Y-138670600D01*
X108696064Y-147332000D02*
X124187072Y-147332000D01*
X125780659Y-138670600D02*
X127696900Y-138670600D01*
X107019664Y-149008400D02*
X108696064Y-147332000D01*
X124187072Y-147332000D02*
X125120400Y-146398672D01*
X101381400Y-149684200D02*
X102057200Y-149008400D01*
X101381400Y-150842200D02*
X101381400Y-149684200D01*
X96301400Y-151812400D02*
X96301400Y-150842200D01*
X127696900Y-138670600D02*
X128727200Y-139700900D01*
X98983800Y-152716800D02*
X97205800Y-152716800D01*
X125120400Y-146398672D02*
X125120400Y-139330859D01*
X102057200Y-149008400D02*
X107019664Y-149008400D01*
%TO.N,/video/nRAS*%
X118865377Y-66560000D02*
X129413000Y-66560000D01*
X97104200Y-55104600D02*
X117627400Y-55104600D01*
X117627400Y-55104600D02*
X121259600Y-58736800D01*
X117665600Y-65360223D02*
X118865377Y-66560000D01*
X129413000Y-66560000D02*
X131470400Y-64502600D01*
X121259600Y-58736800D02*
X117665600Y-62330800D01*
X117665600Y-62330800D02*
X117665600Y-65360223D01*
X93472000Y-58736800D02*
X97104200Y-55104600D01*
%TO.N,/video/nCAS*%
X122466000Y-57352400D02*
X122466000Y-60324200D01*
X118999000Y-53961600D02*
X116154200Y-51116800D01*
X120205600Y-65455200D02*
X120853200Y-66102800D01*
X122466000Y-60324200D02*
X120205600Y-62584600D01*
X119075200Y-53961600D02*
X118999000Y-53961600D01*
X119075200Y-53961600D02*
X122466000Y-57352400D01*
X120853200Y-66102800D02*
X127330200Y-66102800D01*
X91287600Y-53961600D02*
X88442800Y-51116800D01*
X120205600Y-62584600D02*
X120205600Y-65455200D01*
X127330200Y-66102800D02*
X128930400Y-64502600D01*
X119075200Y-53961600D02*
X91287600Y-53961600D01*
%TO.N,/video/RnW*%
X118719600Y-57240200D02*
X117219000Y-55739600D01*
X94002064Y-59841600D02*
X92036800Y-59841600D01*
X94958000Y-58885664D02*
X94002064Y-59841600D01*
X118719600Y-58736800D02*
X118719600Y-57240200D01*
X94958000Y-58279176D02*
X94958000Y-58885664D01*
X97497576Y-55739600D02*
X94958000Y-58279176D01*
X117219000Y-55739600D02*
X97497576Y-55739600D01*
X92036800Y-59841600D02*
X90932000Y-58736800D01*
%TO.N,/video/R7*%
X85750400Y-58736800D02*
X89433400Y-62419800D01*
X97205800Y-75907200D02*
X93370400Y-79742600D01*
X94143679Y-62597600D02*
X94170256Y-62597600D01*
X89433400Y-62419800D02*
X93965879Y-62419800D01*
X95605176Y-63347000D02*
X96520424Y-63347000D01*
X94170256Y-62597600D02*
X94932256Y-63359600D01*
X93965879Y-62419800D02*
X94143679Y-62597600D01*
X96520424Y-63347000D02*
X97205800Y-64032376D01*
X97205800Y-64032376D02*
X97205800Y-75907200D01*
X94932256Y-63359600D02*
X95592576Y-63359600D01*
X95592576Y-63359600D02*
X95605176Y-63347000D01*
%TO.N,/video/R6*%
X94160792Y-62013400D02*
X91211400Y-62013400D01*
X95910400Y-79742600D02*
X96012000Y-79742600D01*
X99999800Y-75754800D02*
X99999800Y-64286376D01*
X98654024Y-62940600D02*
X95087992Y-62940600D01*
X96012000Y-79742600D02*
X99999800Y-75754800D01*
X88290400Y-59092400D02*
X88290400Y-58736800D01*
X95087992Y-62940600D02*
X94160792Y-62013400D01*
X99999800Y-64286376D02*
X98654024Y-62940600D01*
X91211400Y-62013400D02*
X88290400Y-59092400D01*
%TO.N,/video/R5*%
X102412800Y-73916536D02*
X98602800Y-77726536D01*
X102412800Y-73773600D02*
X102412800Y-73916536D01*
X98602800Y-77726536D02*
X98602800Y-79691800D01*
%TO.N,/video/R4*%
X101142800Y-77710600D02*
X101142800Y-79691800D01*
X105079800Y-73773600D02*
X101142800Y-77710600D01*
%TO.N,/video/R1*%
X114547800Y-57130400D02*
X113114493Y-57130400D01*
X112572800Y-75780200D02*
X108610400Y-79742600D01*
X113114493Y-57130400D02*
X112509400Y-57735493D01*
X112509400Y-59194424D02*
X112572800Y-59257824D01*
X112572800Y-59257824D02*
X112572800Y-75780200D01*
X112509400Y-57735493D02*
X112509400Y-59194424D01*
X116154200Y-58736800D02*
X114547800Y-57130400D01*
%TO.N,/cpu/~{NMI}*%
X89725600Y-76462664D02*
X93370400Y-72817864D01*
X89725600Y-78472600D02*
X89725600Y-76462664D01*
X122154680Y-129489900D02*
X118400700Y-129489900D01*
X93370400Y-72817864D02*
X93370400Y-64502600D01*
X124355162Y-127289418D02*
X122154680Y-129489900D01*
X118400700Y-129489900D02*
X118033800Y-129856800D01*
%TO.N,/video/R0*%
X111150400Y-79742600D02*
X111150400Y-78828200D01*
X115112800Y-74865800D02*
X115112800Y-60235400D01*
X113982400Y-59105000D02*
X113614200Y-58736800D01*
X115112800Y-60235400D02*
X113614200Y-58736800D01*
X111150400Y-78828200D02*
X115112800Y-74865800D01*
%TO.N,/GLUE/D4*%
X127681328Y-150557800D02*
X119430800Y-150557800D01*
X114539024Y-149737400D02*
X112646200Y-149737400D01*
X120279000Y-169786136D02*
X111541400Y-161048536D01*
X118922800Y-150049800D02*
X114851424Y-150049800D01*
X114851424Y-150049800D02*
X114539024Y-149737400D01*
X119430800Y-150557800D02*
X118922800Y-150049800D01*
X129286000Y-101027800D02*
X128447800Y-100189600D01*
X112646200Y-149737400D02*
X111541400Y-150842200D01*
X111541400Y-161048536D02*
X111541400Y-150842200D01*
X126441200Y-100189600D02*
X124993400Y-98741800D01*
X128189328Y-150049800D02*
X127681328Y-150557800D01*
X128447800Y-100189600D02*
X126441200Y-100189600D01*
X129184400Y-150049800D02*
X128189328Y-150049800D01*
X120279000Y-170806600D02*
X120279000Y-169786136D01*
%TO.N,/GLUE/D3*%
X114081400Y-163013800D02*
X114081400Y-150842200D01*
X121874200Y-170806600D02*
X114081400Y-163013800D01*
X118754464Y-150456200D02*
X114467400Y-150456200D01*
X128473396Y-150735600D02*
X128244796Y-150964200D01*
X124637800Y-130745800D02*
X124002800Y-131380800D01*
X119262464Y-150964200D02*
X118754464Y-150456200D01*
X122819000Y-170806600D02*
X121874200Y-170806600D01*
X124002800Y-131380800D02*
X123875800Y-131380800D01*
X125450600Y-130745800D02*
X124637800Y-130745800D01*
X128244796Y-150964200D02*
X119262464Y-150964200D01*
X114467400Y-150456200D02*
X114081400Y-150842200D01*
X126225300Y-142202800D02*
X126187200Y-142240900D01*
%TO.N,/GLUE/D5*%
X140068400Y-142340800D02*
X141173200Y-141236000D01*
X128651000Y-145681000D02*
X131584800Y-142747200D01*
X136719160Y-142747200D02*
X137125560Y-142340800D01*
X131584800Y-142747200D02*
X136719160Y-142747200D01*
X129018600Y-102725664D02*
X127295336Y-101002400D01*
X128651000Y-148449600D02*
X128651000Y-145681000D01*
X153924000Y-121357800D02*
X153924000Y-120595800D01*
X155314672Y-135533600D02*
X155981400Y-134866872D01*
X117739000Y-170806600D02*
X117739000Y-167941400D01*
X109001400Y-159203800D02*
X109001400Y-150842200D01*
X155981400Y-123415200D02*
X153924000Y-121357800D01*
X119151400Y-149643400D02*
X115019760Y-149643400D01*
X132098864Y-104872600D02*
X129636488Y-104872600D01*
X117739000Y-167941400D02*
X109001400Y-159203800D01*
X137125560Y-142340800D02*
X140068400Y-142340800D01*
X149603008Y-139864400D02*
X153933808Y-135533600D01*
X153924000Y-120595800D02*
X151358600Y-118030400D01*
X115019760Y-149643400D02*
X114707360Y-149331000D01*
X127228600Y-149872000D02*
X128651000Y-148449600D01*
X124714000Y-101002400D02*
X122453400Y-98741800D01*
X127228600Y-149872000D02*
X127177800Y-149922800D01*
X129636488Y-104872600D02*
X129018600Y-104254712D01*
X127295336Y-101002400D02*
X124714000Y-101002400D01*
X139541664Y-118030400D02*
X137693400Y-116182136D01*
X129018600Y-104254712D02*
X129018600Y-102725664D01*
X151358600Y-118030400D02*
X139541664Y-118030400D01*
X141173200Y-141236000D02*
X142544800Y-139864400D01*
X114707360Y-149331000D02*
X110512600Y-149331000D01*
X137693400Y-110467136D02*
X132098864Y-104872600D01*
X119430800Y-149922800D02*
X119151400Y-149643400D01*
X153933808Y-135533600D02*
X155314672Y-135533600D01*
X155981400Y-134866872D02*
X155981400Y-123415200D01*
X142544800Y-139864400D02*
X149603008Y-139864400D01*
X127177800Y-149922800D02*
X119430800Y-149922800D01*
X137693400Y-116182136D02*
X137693400Y-110467136D01*
X110512600Y-149331000D02*
X109001400Y-150842200D01*
%TO.N,/GLUE/D6*%
X115620800Y-133452500D02*
X115620800Y-134936800D01*
X120943841Y-138100700D02*
X122301000Y-139457859D01*
X123571000Y-149237000D02*
X126412808Y-149237000D01*
X106461400Y-158721200D02*
X106461400Y-150842200D01*
X136550824Y-142340800D02*
X137630224Y-141261400D01*
X128612200Y-102894000D02*
X127127000Y-101408800D01*
X128244600Y-145512664D02*
X131416464Y-142340800D01*
X138607800Y-141261400D02*
X138633200Y-141236000D01*
X155575000Y-134698536D02*
X155575000Y-124786800D01*
X115188096Y-149237000D02*
X114875696Y-148924600D01*
X131930528Y-105279000D02*
X129468152Y-105279000D01*
X126412808Y-149237000D02*
X128244600Y-147405208D01*
X115199000Y-170806600D02*
X115199000Y-169059000D01*
X140411200Y-139458000D02*
X149434672Y-139458000D01*
X123428064Y-100291200D02*
X121462800Y-100291200D01*
X123571000Y-149237000D02*
X115188096Y-149237000D01*
X149250400Y-118462200D02*
X139398728Y-118462200D01*
X155575000Y-124786800D02*
X151384000Y-120595800D01*
X128244600Y-147405208D02*
X128244600Y-145512664D01*
X151384000Y-120595800D02*
X149250400Y-118462200D01*
X114875696Y-148924600D02*
X108379000Y-148924600D01*
X139398728Y-118462200D02*
X137287000Y-116350472D01*
X137287000Y-116350472D02*
X137287000Y-110635472D01*
X121462800Y-100291200D02*
X119913400Y-98741800D01*
X112646200Y-164906000D02*
X106461400Y-158721200D01*
X112646200Y-166506200D02*
X112646200Y-164906000D01*
X122301000Y-143434700D02*
X123647200Y-144780900D01*
X122301000Y-139457859D02*
X122301000Y-143434700D01*
X124545664Y-101408800D02*
X123428064Y-100291200D01*
X155146336Y-135127200D02*
X155575000Y-134698536D01*
X128612200Y-104423048D02*
X128612200Y-102894000D01*
X153765472Y-135127200D02*
X155146336Y-135127200D01*
X137630224Y-141261400D02*
X138607800Y-141261400D01*
X108379000Y-148924600D02*
X106461400Y-150842200D01*
X127127000Y-101408800D02*
X124545664Y-101408800D01*
X137287000Y-110635472D02*
X131930528Y-105279000D01*
X115620800Y-134936800D02*
X118784700Y-138100700D01*
X131416464Y-142340800D02*
X136550824Y-142340800D01*
X129468152Y-105279000D02*
X128612200Y-104423048D01*
X118784700Y-138100700D02*
X120943841Y-138100700D01*
X115199000Y-169059000D02*
X112646200Y-166506200D01*
X149434672Y-139458000D02*
X153765472Y-135127200D01*
X138633200Y-141236000D02*
X140411200Y-139458000D01*
%TO.N,/GLUE/D2*%
X148831200Y-141236000D02*
X148793200Y-141236000D01*
X94792800Y-71970200D02*
X92125800Y-74637200D01*
X131368800Y-103567800D02*
X138099800Y-110298800D01*
X125044200Y-100596000D02*
X127889000Y-100596000D01*
X139710000Y-117624000D02*
X153561800Y-117624000D01*
X130073400Y-103567800D02*
X131368800Y-103567800D01*
X118530912Y-93077600D02*
X123938600Y-98485288D01*
X94792800Y-63962577D02*
X94792800Y-71970200D01*
X85750400Y-64502600D02*
X87426800Y-62826200D01*
X127889000Y-100596000D02*
X128600200Y-101307200D01*
X120279000Y-186046600D02*
X120279000Y-184172000D01*
X93052800Y-80796600D02*
X101434800Y-80796600D01*
X130073400Y-102785068D02*
X130073400Y-103567800D01*
X156387800Y-135035208D02*
X155483008Y-135940000D01*
X153561800Y-117624000D02*
X156387800Y-120450000D01*
X120279000Y-184172000D02*
X113766600Y-177659600D01*
X117449600Y-145651499D02*
X117449600Y-144272900D01*
X128600200Y-101307200D02*
X128600200Y-101311868D01*
X118465600Y-143256900D02*
X120091200Y-143256900D01*
X113766600Y-177659600D02*
X113766600Y-168307400D01*
X117449600Y-144272900D02*
X118465600Y-143256900D01*
X101434800Y-80796600D02*
X113715800Y-93077600D01*
X92125800Y-79869600D02*
X93052800Y-80796600D01*
X138099800Y-116013800D02*
X139710000Y-117624000D01*
X156387800Y-120450000D02*
X156387800Y-135035208D01*
X128600200Y-101311868D02*
X130073400Y-102785068D01*
X154127200Y-135940000D02*
X148831200Y-141236000D01*
X123938600Y-98485288D02*
X123938600Y-99490400D01*
X155483008Y-135940000D02*
X154127200Y-135940000D01*
X92125800Y-74637200D02*
X92125800Y-79869600D01*
X118033794Y-146235693D02*
X117449600Y-145651499D01*
X113766600Y-168307400D02*
X111541400Y-166082200D01*
X123938600Y-99490400D02*
X125044200Y-100596000D01*
X120091200Y-143256900D02*
X121107200Y-142240900D01*
X138099800Y-110298800D02*
X138099800Y-116013800D01*
X113715800Y-93077600D02*
X118530912Y-93077600D01*
X87426800Y-62826200D02*
X93656423Y-62826200D01*
X93656423Y-62826200D02*
X94792800Y-63962577D01*
%TO.N,/GLUE/D7*%
X121970800Y-148551200D02*
X121996200Y-148525800D01*
X131946528Y-141236000D02*
X136093200Y-141236000D01*
X115356432Y-148830600D02*
X115044032Y-148518200D01*
X136880600Y-110803808D02*
X132336992Y-106260200D01*
X121970800Y-148551200D02*
X121691400Y-148830600D01*
X112659000Y-168982800D02*
X110106200Y-166430000D01*
X126549272Y-148525800D02*
X127838200Y-147236872D01*
X138277600Y-139051600D02*
X149266336Y-139051600D01*
X103921400Y-159178400D02*
X103921400Y-150842200D01*
X149266336Y-139051600D02*
X153597136Y-134720800D01*
X110106200Y-165363200D02*
X103921400Y-159178400D01*
X154978000Y-134720800D02*
X155168600Y-134530200D01*
X136093200Y-141236000D02*
X138277600Y-139051600D01*
X148844000Y-121101535D02*
X148844000Y-120595800D01*
X155168600Y-134530200D02*
X155168600Y-127426135D01*
X155168600Y-127426135D02*
X148844000Y-121101535D01*
X127838200Y-145344328D02*
X131946528Y-141236000D01*
X127838200Y-147236872D02*
X127838200Y-145344328D01*
X108084600Y-148518200D02*
X106865400Y-149737400D01*
X139230392Y-118868600D02*
X136880600Y-116518808D01*
X106865400Y-149737400D02*
X105026200Y-149737400D01*
X132336992Y-106260200D02*
X127838200Y-106260200D01*
X121996200Y-148525800D02*
X126549272Y-148525800D01*
X105026200Y-149737400D02*
X103921400Y-150842200D01*
X136880600Y-116518808D02*
X136880600Y-110803808D01*
X112659000Y-170806600D02*
X112659000Y-168982800D01*
X153597136Y-134720800D02*
X154978000Y-134720800D01*
X121691400Y-148830600D02*
X115356432Y-148830600D01*
X115044032Y-148518200D02*
X108084600Y-148518200D01*
X110106200Y-166430000D02*
X110106200Y-165363200D01*
X148844000Y-120595800D02*
X147116800Y-118868600D01*
X147116800Y-118868600D02*
X139230392Y-118868600D01*
%TO.N,/GLUE/D0*%
X132279720Y-107352400D02*
X136067800Y-111140480D01*
X124993400Y-103567800D02*
X124993400Y-104960004D01*
X118440200Y-97827400D02*
X114604800Y-93992000D01*
X137591800Y-121066024D02*
X137591800Y-123887800D01*
X136067800Y-116855480D02*
X137579200Y-118366880D01*
X124993400Y-103567800D02*
X122555000Y-101129400D01*
X116027200Y-143200374D02*
X116027200Y-142240900D01*
X137579200Y-121053424D02*
X137591800Y-121066024D01*
X115199000Y-184197400D02*
X109014200Y-178012600D01*
X120802400Y-101129400D02*
X120126000Y-100453000D01*
X109014200Y-178012600D02*
X109014200Y-168635000D01*
X115199000Y-186046600D02*
X115199000Y-184197400D01*
X120238932Y-152437400D02*
X120594532Y-152793000D01*
X85375377Y-81660400D02*
X84632800Y-80917823D01*
X122555000Y-101129400D02*
X120802400Y-101129400D01*
X84632800Y-78320200D02*
X90830400Y-72122600D01*
X114909600Y-144317974D02*
X116027200Y-143200374D01*
X115747800Y-146239800D02*
X114909600Y-145401600D01*
X127385796Y-107352400D02*
X132279720Y-107352400D01*
X109014200Y-168635000D02*
X106461400Y-166082200D01*
X137579200Y-118366880D02*
X137579200Y-121053424D01*
X90830400Y-72122600D02*
X90830400Y-64502600D01*
X113480728Y-93992000D02*
X101149128Y-81660400D01*
X121843800Y-152793000D02*
X121894600Y-152843800D01*
X124993400Y-104960004D02*
X127385796Y-107352400D01*
X114909600Y-145401600D02*
X114909600Y-144317974D01*
X137591800Y-123887800D02*
X138684000Y-124980000D01*
X119308152Y-100453000D02*
X118440200Y-99585048D01*
X118440200Y-99585048D02*
X118440200Y-97827400D01*
X115925600Y-152437400D02*
X120238932Y-152437400D01*
X120594532Y-152793000D02*
X121843800Y-152793000D01*
X120126000Y-100453000D02*
X119308152Y-100453000D01*
X101149128Y-81660400D02*
X85375377Y-81660400D01*
X136067800Y-111140480D02*
X136067800Y-116855480D01*
X84632800Y-80917823D02*
X84632800Y-78320200D01*
X114604800Y-93992000D02*
X113480728Y-93992000D01*
X138684000Y-124980000D02*
X138684000Y-128215800D01*
%TO.N,/GLUE/D1*%
X120497600Y-151726200D02*
X120878600Y-152107200D01*
X120303800Y-100046600D02*
X119476488Y-100046600D01*
X87534600Y-81247400D02*
X87045800Y-80758600D01*
X118846600Y-97659064D02*
X114671536Y-93484000D01*
X136474200Y-110972144D02*
X136474200Y-116687144D01*
X117739000Y-184146600D02*
X117739000Y-186046600D01*
X101310864Y-81247400D02*
X87534600Y-81247400D01*
X111223800Y-177631400D02*
X117739000Y-184146600D01*
X117043200Y-143764900D02*
X118567200Y-142240900D01*
X87045800Y-80758600D02*
X87045800Y-77710600D01*
X125780800Y-101815200D02*
X124377328Y-101815200D01*
X139788800Y-126780600D02*
X141224000Y-128215800D01*
X127050800Y-106442668D02*
X127554132Y-106946000D01*
X124377328Y-101815200D02*
X123259728Y-100697600D01*
X132448056Y-106946000D02*
X136474200Y-110972144D01*
X111223800Y-168304600D02*
X111223800Y-177631400D01*
X123259728Y-100697600D02*
X120954800Y-100697600D01*
X92125800Y-72630600D02*
X92125800Y-63835577D01*
X136474200Y-116687144D02*
X139788800Y-120001744D01*
X91522823Y-63232600D02*
X89560400Y-63232600D01*
X118846600Y-99416712D02*
X118846600Y-97659064D01*
X92125800Y-63835577D02*
X91522823Y-63232600D01*
X127533400Y-103567800D02*
X125780800Y-101815200D01*
X120954800Y-100697600D02*
X120303800Y-100046600D01*
X114671536Y-93484000D02*
X113547464Y-93484000D01*
X113547464Y-93484000D02*
X101310864Y-81247400D01*
X117170200Y-151726200D02*
X120497600Y-151726200D01*
X127050800Y-104050400D02*
X127050800Y-106442668D01*
X89560400Y-63232600D02*
X88290400Y-64502600D01*
X109001400Y-166082200D02*
X111223800Y-168304600D01*
X127554132Y-106946000D02*
X132448056Y-106946000D01*
X117068600Y-146239800D02*
X117043200Y-146214400D01*
X119476488Y-100046600D02*
X118846600Y-99416712D01*
X87045800Y-77710600D02*
X92125800Y-72630600D01*
X127533400Y-103567800D02*
X127050800Y-104050400D01*
X117043200Y-146214400D02*
X117043200Y-143764900D01*
X139788800Y-120001744D02*
X139788800Y-126780600D01*
%TO.N,/GLUE/A0*%
X100787200Y-142531400D02*
X99110800Y-144207800D01*
X91668600Y-119620600D02*
X90055800Y-118007800D01*
X92712992Y-94852608D02*
X98183944Y-94852608D01*
X90347800Y-113461784D02*
X90347800Y-97217800D01*
X90055800Y-113753784D02*
X90347800Y-113461784D01*
X90347800Y-97217800D02*
X92712992Y-94852608D01*
X101828600Y-95389000D02*
X102108000Y-95668400D01*
X116318600Y-97910552D02*
X116318600Y-99515800D01*
X91668600Y-129185788D02*
X91668600Y-119620600D01*
X118749416Y-100469000D02*
X121848216Y-103567800D01*
X100787200Y-142240900D02*
X100787200Y-142531400D01*
X98183944Y-94852608D02*
X98999736Y-95668400D01*
X98999736Y-95668400D02*
X101549200Y-95668400D01*
X99110800Y-144207800D02*
X97126400Y-144207800D01*
X95046800Y-132563988D02*
X91668600Y-129185788D01*
X102108000Y-95668400D02*
X114076448Y-95668400D01*
X101549200Y-95668400D02*
X101828600Y-95389000D01*
X90055800Y-118007800D02*
X90055800Y-113753784D01*
X116318600Y-99515800D02*
X117271800Y-100469000D01*
X114076448Y-95668400D02*
X116318600Y-97910552D01*
X117271800Y-100469000D02*
X118749416Y-100469000D01*
X121848216Y-103567800D02*
X122453400Y-103567800D01*
X97126400Y-144207800D02*
X95046800Y-142128200D01*
X95046800Y-142128200D02*
X95046800Y-132563988D01*
%TO.N,/GLUE/A1*%
X100366359Y-141224900D02*
X99618800Y-141972459D01*
X117103464Y-100875400D02*
X118084600Y-100875400D01*
X90462200Y-117839464D02*
X90462200Y-113922120D01*
X95453200Y-132395652D02*
X92075000Y-129017452D01*
X99618800Y-143125064D02*
X98942464Y-143801400D01*
X92075000Y-119452264D02*
X90462200Y-117839464D01*
X90754200Y-113630120D02*
X90754200Y-97386136D01*
X119913400Y-102704200D02*
X119913400Y-103567800D01*
X113908112Y-96074800D02*
X115888200Y-98054888D01*
X90462200Y-113922120D02*
X90754200Y-113630120D01*
X101219000Y-141224900D02*
X100366359Y-141224900D01*
X115888200Y-99660136D02*
X117103464Y-100875400D01*
X98015608Y-95259008D02*
X98831400Y-96074800D01*
X92881328Y-95259008D02*
X98015608Y-95259008D01*
X101803200Y-143764900D02*
X101803200Y-141809100D01*
X98831400Y-96074800D02*
X113908112Y-96074800D01*
X97294736Y-143801400D02*
X95453200Y-141959864D01*
X100787200Y-144780900D02*
X101803200Y-143764900D01*
X101803200Y-141809100D02*
X101219000Y-141224900D01*
X95453200Y-141959864D02*
X95453200Y-132395652D01*
X92075000Y-129017452D02*
X92075000Y-119452264D01*
X115888200Y-98054888D02*
X115888200Y-99660136D01*
X90754200Y-97386136D02*
X92881328Y-95259008D01*
X99618800Y-141972459D02*
X99618800Y-143125064D01*
X98942464Y-143801400D02*
X97294736Y-143801400D01*
X118084600Y-100875400D02*
X119913400Y-102704200D01*
%TO.N,/GLUE/A2*%
X92481400Y-119283928D02*
X90868600Y-117671128D01*
X113904488Y-102094600D02*
X116840000Y-102094600D01*
X117373400Y-102628000D02*
X117373400Y-103567800D01*
X91160600Y-97554472D02*
X93049664Y-95665408D01*
X95859600Y-132227316D02*
X92481400Y-128849116D01*
X93049664Y-95665408D02*
X97710808Y-95665408D01*
X95859600Y-138862700D02*
X95859600Y-132227316D01*
X99731500Y-139700900D02*
X98715500Y-140716900D01*
X100787200Y-139700900D02*
X99731500Y-139700900D01*
X98715500Y-140716900D02*
X97713800Y-140716900D01*
X116840000Y-102094600D02*
X117373400Y-102628000D01*
X90868600Y-117671128D02*
X90868600Y-114090456D01*
X91160600Y-113798456D02*
X91160600Y-97554472D01*
X111214600Y-97886552D02*
X111214600Y-99404712D01*
X98526600Y-96481200D02*
X109809248Y-96481200D01*
X92481400Y-128849116D02*
X92481400Y-119283928D01*
X111214600Y-99404712D02*
X113904488Y-102094600D01*
X90868600Y-114090456D02*
X91160600Y-113798456D01*
X109809248Y-96481200D02*
X111214600Y-97886552D01*
X97713800Y-140716900D02*
X95859600Y-138862700D01*
X97710808Y-95665408D02*
X98526600Y-96481200D01*
%TO.N,/GLUE/A3*%
X96266000Y-137719700D02*
X96266000Y-132058980D01*
X112293400Y-101231000D02*
X112293400Y-103567800D01*
X91275000Y-117502792D02*
X91275000Y-114258792D01*
X92913200Y-128706180D02*
X92913200Y-119140992D01*
X109640912Y-96887600D02*
X110808200Y-98054888D01*
X98247200Y-139700900D02*
X96266000Y-137719700D01*
X91567000Y-97722808D02*
X93218000Y-96071808D01*
X110808200Y-98054888D02*
X110808200Y-99745800D01*
X92913200Y-119140992D02*
X91275000Y-117502792D01*
X93218000Y-96071808D02*
X97406008Y-96071808D01*
X91275000Y-114258792D02*
X91567000Y-113966792D01*
X97406008Y-96071808D02*
X98221800Y-96887600D01*
X96266000Y-132058980D02*
X92913200Y-128706180D01*
X91567000Y-113966792D02*
X91567000Y-97722808D01*
X110808200Y-99745800D02*
X112293400Y-101231000D01*
X98221800Y-96887600D02*
X109640912Y-96887600D01*
%TO.N,/GLUE/A4*%
X91973400Y-114135128D02*
X91973400Y-97891144D01*
X99593542Y-138314858D02*
X97688400Y-138314858D01*
X91973400Y-97891144D02*
X93386336Y-96478208D01*
X93370400Y-128588644D02*
X93370400Y-119023456D01*
X100787200Y-137160900D02*
X100747500Y-137160900D01*
X91681400Y-117334456D02*
X91681400Y-114427128D01*
X96672400Y-131890644D02*
X93370400Y-128588644D01*
X91681400Y-114427128D02*
X91973400Y-114135128D01*
X93370400Y-119023456D02*
X91681400Y-117334456D01*
X93386336Y-96478208D02*
X97167944Y-96478208D01*
X97983736Y-97294000D02*
X102427312Y-97294000D01*
X103188200Y-98054888D02*
X103188200Y-98998312D01*
X96672400Y-137298858D02*
X96672400Y-131890644D01*
X106426000Y-100240400D02*
X109753400Y-103567800D01*
X104430288Y-100240400D02*
X106426000Y-100240400D01*
X100747500Y-137160900D02*
X99593542Y-138314858D01*
X102427312Y-97294000D02*
X103188200Y-98054888D01*
X97167944Y-96478208D02*
X97983736Y-97294000D01*
X97688400Y-138314858D02*
X96672400Y-137298858D01*
X103188200Y-98998312D02*
X104430288Y-100240400D01*
%TO.N,/GLUE/A5*%
X102565200Y-101459600D02*
X104673400Y-103567800D01*
X97078800Y-135992500D02*
X97078800Y-131722308D01*
X93554672Y-96884608D02*
X96999608Y-96884608D01*
X98538600Y-98423600D02*
X98538600Y-99566600D01*
X92087800Y-114595464D02*
X92379800Y-114303464D01*
X98247200Y-137160900D02*
X97078800Y-135992500D01*
X97078800Y-131722308D02*
X93776800Y-128420308D01*
X92379800Y-114303464D02*
X92379800Y-98059480D01*
X96999608Y-96884608D02*
X98538600Y-98423600D01*
X93776800Y-118855120D02*
X92087800Y-117166120D01*
X100431600Y-101459600D02*
X102565200Y-101459600D01*
X92379800Y-98059480D02*
X93554672Y-96884608D01*
X92087800Y-117166120D02*
X92087800Y-114595464D01*
X93776800Y-128420308D02*
X93776800Y-118855120D01*
X98538600Y-99566600D02*
X100431600Y-101459600D01*
%TO.N,/GLUE/A6*%
X94589600Y-128083636D02*
X94589600Y-118436264D01*
X100787200Y-134036700D02*
X99263200Y-132512700D01*
X99263200Y-132512700D02*
X99263200Y-131318900D01*
X100787200Y-134620900D02*
X100787200Y-134036700D01*
X98907600Y-130963300D02*
X97469264Y-130963300D01*
X95199200Y-117826664D02*
X95199200Y-109068500D01*
X102133400Y-104431400D02*
X102133400Y-103567800D01*
X99263200Y-131318900D02*
X98907600Y-130963300D01*
X100828600Y-104872600D02*
X102133400Y-103567800D01*
X97469264Y-130963300D02*
X94589600Y-128083636D01*
X94589600Y-118436264D02*
X95199200Y-117826664D01*
X95199200Y-109068500D02*
X99395100Y-104872600D01*
X99395100Y-104872600D02*
X100828600Y-104872600D01*
%TO.N,/GLUE/A7*%
X100787200Y-132080900D02*
X99263200Y-130556900D01*
X103276400Y-104685400D02*
X103276400Y-102969088D01*
X99563436Y-105279000D02*
X102682800Y-105279000D01*
X94996000Y-127915300D02*
X94996000Y-118604600D01*
X97637600Y-130556900D02*
X94996000Y-127915300D01*
X95605600Y-109236836D02*
X99563436Y-105279000D01*
X99263200Y-130556900D02*
X97637600Y-130556900D01*
X102570312Y-102263000D02*
X100898200Y-102263000D01*
X100898200Y-102263000D02*
X99593400Y-103567800D01*
X95605600Y-117995000D02*
X95605600Y-109236836D01*
X94996000Y-118604600D02*
X95605600Y-117995000D01*
X103276400Y-102969088D02*
X102570312Y-102263000D01*
X102682800Y-105279000D02*
X103276400Y-104685400D01*
%TO.N,/GLUE/A8*%
X97053400Y-98741800D02*
X95602608Y-97291008D01*
X92494200Y-114763800D02*
X92494200Y-116997784D01*
X94183200Y-118686784D02*
X94183200Y-128251972D01*
X88681400Y-150842200D02*
X88681400Y-154073000D01*
X88671400Y-154083000D02*
X88671400Y-160006600D01*
X95602608Y-97291008D02*
X93723008Y-97291008D01*
X95077200Y-168464800D02*
X97419000Y-170806600D01*
X90116600Y-161451800D02*
X90116600Y-166633400D01*
X88681400Y-154073000D02*
X88671400Y-154083000D01*
X92494200Y-116997784D02*
X94183200Y-118686784D01*
X98012128Y-132080900D02*
X98247200Y-132080900D01*
X92786200Y-114471800D02*
X92494200Y-114763800D01*
X90116600Y-166633400D02*
X91948000Y-168464800D01*
X88671400Y-160006600D02*
X90116600Y-161451800D01*
X94183200Y-128251972D02*
X98012128Y-132080900D01*
X93723008Y-97291008D02*
X92786200Y-98227816D01*
X92786200Y-98227816D02*
X92786200Y-114471800D01*
X91948000Y-168464800D02*
X95077200Y-168464800D01*
%TO.N,/video/AD6*%
X125450600Y-49465800D02*
X123799600Y-51116800D01*
X123850400Y-63702400D02*
X127546000Y-60006800D01*
X127546000Y-60006800D02*
X127546000Y-50217093D01*
X123850400Y-64502600D02*
X123850400Y-63702400D01*
X127546000Y-50217093D02*
X126794707Y-49465800D01*
X126794707Y-49465800D02*
X125450600Y-49465800D01*
%TO.N,/video/AD5*%
X125120400Y-52336000D02*
X125120400Y-60692600D01*
X125120400Y-60692600D02*
X121310400Y-64502600D01*
X126339600Y-51116800D02*
X125120400Y-52336000D01*
%TO.N,/video/AD0*%
X105689400Y-48957800D02*
X103530400Y-51116800D01*
X129235200Y-48957800D02*
X105689400Y-48957800D01*
X131394200Y-51116800D02*
X129235200Y-48957800D01*
%TO.N,/GLUE/A9*%
X92618234Y-158009834D02*
X91221400Y-156613000D01*
X97160000Y-168007600D02*
X94124376Y-168007600D01*
X95402400Y-126696100D02*
X95402400Y-118772936D01*
X95402400Y-118772936D02*
X96012000Y-118163336D01*
X99731772Y-105685400D02*
X104297512Y-105685400D01*
X99593400Y-99605400D02*
X99593400Y-98741800D01*
X100939600Y-100951600D02*
X99593400Y-99605400D01*
X104297512Y-105685400D02*
X105728200Y-104254712D01*
X96012000Y-118163336D02*
X96012000Y-109405172D01*
X94124376Y-168007600D02*
X92618234Y-166501458D01*
X92618234Y-166501458D02*
X92618234Y-158009834D01*
X103798912Y-100951600D02*
X100939600Y-100951600D01*
X99959000Y-170806600D02*
X97160000Y-168007600D01*
X105728200Y-102880888D02*
X103798912Y-100951600D01*
X105728200Y-104254712D02*
X105728200Y-102880888D01*
X98247200Y-129540900D02*
X95402400Y-126696100D01*
X91221400Y-156613000D02*
X91221400Y-150842200D01*
X96012000Y-109405172D02*
X99731772Y-105685400D01*
%TO.N,/GLUE/A10*%
X100126800Y-165162800D02*
X100126800Y-166871976D01*
X98841400Y-149785800D02*
X98841400Y-150842200D01*
X106934000Y-142682784D02*
X106908600Y-142708184D01*
X103603800Y-170348976D02*
X103603800Y-171154400D01*
X105105200Y-130658500D02*
X105105200Y-131847323D01*
X106908600Y-145176341D02*
X103889341Y-148195600D01*
X105130600Y-131872723D02*
X105130600Y-138795964D01*
X100126800Y-166871976D02*
X103603800Y-170348976D01*
X117747928Y-101688200D02*
X115239800Y-101688200D01*
X118428200Y-102368472D02*
X117747928Y-101688200D01*
X99745800Y-151746600D02*
X99745800Y-164781800D01*
X115239800Y-101688200D02*
X112293400Y-98741800D01*
X98374200Y-115531059D02*
X98374200Y-113134136D01*
X105105200Y-131847323D02*
X105130600Y-131872723D01*
X106934000Y-140599364D02*
X106934000Y-142682784D01*
X101396800Y-118314100D02*
X99806064Y-118314100D01*
X98374200Y-113134136D02*
X100834924Y-110673412D01*
X111175800Y-106615800D02*
X116763800Y-106615800D01*
X105130600Y-138795964D02*
X106934000Y-140599364D01*
X104368600Y-171919200D02*
X106466400Y-171919200D01*
X106466400Y-171919200D02*
X107579000Y-170806600D01*
X99263200Y-116420059D02*
X98374200Y-115531059D01*
X98841400Y-150842200D02*
X99745800Y-151746600D01*
X103603800Y-171154400D02*
X104368600Y-171919200D01*
X100787200Y-127000900D02*
X101447600Y-127000900D01*
X101447600Y-127000900D02*
X105105200Y-130658500D01*
X99263200Y-117771236D02*
X99263200Y-116420059D01*
X102870000Y-122386640D02*
X102870000Y-119787300D01*
X100834924Y-110673412D02*
X107118188Y-110673412D01*
X99745800Y-164781800D02*
X100126800Y-165162800D01*
X102870000Y-119787300D02*
X101396800Y-118314100D01*
X107118188Y-110673412D02*
X111175800Y-106615800D01*
X100431600Y-148195600D02*
X98841400Y-149785800D01*
X103889341Y-148195600D02*
X100431600Y-148195600D01*
X99806064Y-118314100D02*
X99263200Y-117771236D01*
X106908600Y-142708184D02*
X106908600Y-145176341D01*
X118428200Y-104951400D02*
X118428200Y-102368472D01*
X116763800Y-106615800D02*
X118428200Y-104951400D01*
X103013860Y-122530500D02*
X102870000Y-122386640D01*
%TO.N,/GLUE/A11*%
X99974400Y-117907700D02*
X99669600Y-117602900D01*
X99669600Y-116251723D02*
X98780600Y-115362723D01*
X99364800Y-167601200D02*
X96257976Y-167601200D01*
X93494600Y-156854200D02*
X93494600Y-151109000D01*
X118834600Y-105119736D02*
X118834600Y-102200136D01*
X98247200Y-127000900D02*
X99720400Y-128474100D01*
X101771328Y-128474100D02*
X104292400Y-130995172D01*
X102499000Y-170806600D02*
X102499000Y-170735400D01*
X104343200Y-139208216D02*
X104343200Y-146468400D01*
X101003260Y-111079812D02*
X107346788Y-111079812D01*
X116932136Y-107022200D02*
X118834600Y-105119736D01*
X117916264Y-101281800D02*
X116865400Y-101281800D01*
X107346788Y-111079812D02*
X111404400Y-107022200D01*
X98780600Y-113302472D02*
X101003260Y-111079812D01*
X102499000Y-170735400D02*
X99364800Y-167601200D01*
X104343200Y-146468400D02*
X103428800Y-147382800D01*
X104317800Y-139182816D02*
X104343200Y-139208216D01*
X101752400Y-117907700D02*
X99974400Y-117907700D01*
X114833400Y-99249800D02*
X114833400Y-98741800D01*
X104292400Y-130995172D02*
X104292400Y-132183995D01*
X104317800Y-132209395D02*
X104317800Y-139182816D01*
X116865400Y-101281800D02*
X114833400Y-99249800D01*
X103555300Y-121692800D02*
X103555300Y-119710600D01*
X98780600Y-115362723D02*
X98780600Y-113302472D01*
X99669600Y-117602900D02*
X99669600Y-116251723D01*
X118834600Y-102200136D02*
X117916264Y-101281800D01*
X111404400Y-107022200D02*
X116932136Y-107022200D01*
X97220800Y-147382800D02*
X93761400Y-150842200D01*
X95097600Y-166440824D02*
X95097600Y-158457200D01*
X96257976Y-167601200D02*
X95097600Y-166440824D01*
X103555300Y-119710600D02*
X101752400Y-117907700D01*
X104292400Y-132183995D02*
X104317800Y-132209395D01*
X93494600Y-151109000D02*
X93761400Y-150842200D01*
X95097600Y-158457200D02*
X93494600Y-156854200D01*
X99720400Y-128474100D02*
X101771328Y-128474100D01*
X103428800Y-147382800D02*
X97220800Y-147382800D01*
%TO.N,/GLUE/A12*%
X101888864Y-128016900D02*
X100366359Y-128016900D01*
X106158600Y-104399048D02*
X106158600Y-102736552D01*
X99771200Y-126453200D02*
X98247200Y-124929200D01*
X95808800Y-123028288D02*
X95808800Y-118941272D01*
X96418400Y-109573508D02*
X99900108Y-106091800D01*
X104698800Y-132015659D02*
X104698800Y-130826836D01*
X99900108Y-106091800D02*
X104465848Y-106091800D01*
X106158600Y-102736552D02*
X102163848Y-98741800D01*
X104698800Y-130826836D02*
X101888864Y-128016900D01*
X97791976Y-147789200D02*
X103597136Y-147789200D01*
X95072200Y-154611400D02*
X95072200Y-150508976D01*
X104465848Y-106091800D02*
X106158600Y-104399048D01*
X96418400Y-118331672D02*
X96418400Y-109573508D01*
X98247200Y-124460900D02*
X97241412Y-124460900D01*
X94180400Y-155442100D02*
X94241500Y-155442100D01*
X103597136Y-147789200D02*
X104749600Y-146636736D01*
X97241412Y-124460900D02*
X95808800Y-123028288D01*
X95808800Y-118941272D02*
X96418400Y-118331672D01*
X95072200Y-150508976D02*
X97791976Y-147789200D01*
X94241500Y-155442100D02*
X95072200Y-154611400D01*
X104749600Y-146636736D02*
X104749600Y-139039880D01*
X104724200Y-139014480D02*
X104724200Y-132041059D01*
X99771200Y-127421741D02*
X99771200Y-126453200D01*
X104724200Y-132041059D02*
X104698800Y-132015659D01*
X104749600Y-139039880D02*
X104724200Y-139014480D01*
X102163848Y-98741800D02*
X102133400Y-98741800D01*
X98247200Y-124929200D02*
X98247200Y-124460900D01*
X100366359Y-128016900D02*
X99771200Y-127421741D01*
%TO.N,/GLUE/A13*%
X100068444Y-106498200D02*
X96824800Y-109741844D01*
X96824800Y-121073236D02*
X97231200Y-121479636D01*
X91779664Y-168871200D02*
X92943600Y-168871200D01*
X92943600Y-168871200D02*
X94879000Y-170806600D01*
X107213400Y-103567800D02*
X107213400Y-103918984D01*
X91246264Y-168337800D02*
X91779664Y-168871200D01*
X107213400Y-103918984D02*
X104634184Y-106498200D01*
X99622141Y-121982800D02*
X100725300Y-121982800D01*
X97231200Y-122341741D02*
X97826359Y-122936900D01*
X86156800Y-168337800D02*
X91246264Y-168337800D01*
X84646488Y-163474688D02*
X84706200Y-163534400D01*
X104634184Y-106498200D02*
X100068444Y-106498200D01*
X97231200Y-121479636D02*
X97231200Y-122341741D01*
X98668041Y-122936900D02*
X99622141Y-121982800D01*
X84706200Y-166887200D02*
X86156800Y-168337800D01*
X84706200Y-163534400D02*
X84706200Y-166887200D01*
X97826359Y-122936900D02*
X98668041Y-122936900D01*
X100725300Y-121982800D02*
X100787200Y-121920900D01*
X96824800Y-109741844D02*
X96824800Y-121073236D01*
%TO.N,/GLUE/A14*%
X106666120Y-105041000D02*
X110021912Y-105041000D01*
X110808200Y-102336600D02*
X107213400Y-98741800D01*
X97231200Y-109910180D02*
X100236780Y-106904600D01*
X104802520Y-106904600D02*
X106666120Y-105041000D01*
X110021912Y-105041000D02*
X110808200Y-104254712D01*
X98247200Y-121920900D02*
X97231200Y-120904900D01*
X97231200Y-120904900D02*
X97231200Y-109910180D01*
X110808200Y-104254712D02*
X110808200Y-102336600D01*
X100236780Y-106904600D02*
X104802520Y-106904600D01*
%TO.N,/GLUE/C2P4*%
X131307275Y-115774100D02*
X128346200Y-115774100D01*
X144018000Y-85370416D02*
X144018000Y-72115400D01*
X144018000Y-72115400D02*
X146232600Y-69900800D01*
X133936002Y-113145373D02*
X131307275Y-115774100D01*
X128346200Y-115774100D02*
X127203200Y-116917100D01*
X125766359Y-117856900D02*
X125145800Y-117236341D01*
X134012493Y-113145373D02*
X133936002Y-113145373D01*
X125145800Y-115342300D02*
X126187200Y-114300900D01*
X127203200Y-116917100D02*
X127203200Y-117261741D01*
X125145800Y-117236341D02*
X125145800Y-115342300D01*
X127203200Y-117261741D02*
X126608041Y-117856900D01*
X144627600Y-112508600D02*
X148107400Y-109028800D01*
X126608041Y-117856900D02*
X125766359Y-117856900D01*
X148107400Y-89459816D02*
X144018000Y-85370416D01*
X148107400Y-109028800D02*
X148107400Y-89459816D01*
%TO.N,/GLUE/C2P1*%
X150363800Y-82342000D02*
X146232600Y-78210800D01*
X127431800Y-119061800D02*
X127431800Y-120625500D01*
X151638000Y-112508600D02*
X149326600Y-110197200D01*
X134634300Y-115759800D02*
X132130800Y-118263300D01*
X149326600Y-87331016D02*
X150363800Y-86293816D01*
X127431800Y-120625500D02*
X128727200Y-121920900D01*
X128230300Y-118263300D02*
X127431800Y-119061800D01*
X132130800Y-118263300D02*
X128230300Y-118263300D01*
X134899400Y-115759800D02*
X134634300Y-115759800D01*
X152247600Y-112508600D02*
X151638000Y-112508600D01*
X150363800Y-86293816D02*
X150363800Y-82342000D01*
X149326600Y-110197200D02*
X149326600Y-87331016D01*
%TO.N,/GLUE/C2P2*%
X144830800Y-79018600D02*
X144830800Y-76842600D01*
X149957400Y-86125480D02*
X149957400Y-84145200D01*
X148920200Y-111264000D02*
X148920200Y-87162680D01*
X148920200Y-87162680D02*
X149957400Y-86125480D01*
X134899400Y-114794597D02*
X134870347Y-114794597D01*
X134870347Y-114794597D02*
X131808044Y-117856900D01*
X149957400Y-84145200D02*
X144830800Y-79018600D01*
X149707600Y-112051400D02*
X148920200Y-111264000D01*
X127711200Y-117856900D02*
X126187200Y-119380900D01*
X144830800Y-76842600D02*
X146232600Y-75440800D01*
X131808044Y-117856900D02*
X127711200Y-117856900D01*
X149707600Y-112508600D02*
X149707600Y-112051400D01*
%TO.N,/GLUE/C2P3*%
X148513800Y-89291480D02*
X144424400Y-85202080D01*
X134793194Y-113835255D02*
X134436345Y-113835255D01*
X146232600Y-73878376D02*
X146232600Y-72670800D01*
X147167600Y-112508600D02*
X148513800Y-111162400D01*
X131430700Y-116840900D02*
X128727200Y-116840900D01*
X144424400Y-85202080D02*
X144424400Y-75686576D01*
X144424400Y-75686576D02*
X146232600Y-73878376D01*
X148513800Y-111162400D02*
X148513800Y-89291480D01*
X134436345Y-113835255D02*
X131430700Y-116840900D01*
%TO.N,/GLUE/C2P7*%
X150139400Y-87667688D02*
X151176600Y-86630488D01*
X141058800Y-114019800D02*
X155448000Y-114019800D01*
X151176600Y-86630488D02*
X151176600Y-76159800D01*
X151176600Y-109253200D02*
X151167136Y-109253200D01*
X150139400Y-108225464D02*
X150139400Y-87667688D01*
X132665203Y-111798083D02*
X132536517Y-111798083D01*
X151167136Y-109253200D02*
X150139400Y-108225464D01*
X155448000Y-114019800D02*
X155981400Y-113486400D01*
X124739400Y-113208700D02*
X123647200Y-114300900D01*
X155549600Y-111086200D02*
X153009600Y-111086200D01*
X155981400Y-111518000D02*
X155549600Y-111086200D01*
X131125900Y-113208700D02*
X124739400Y-113208700D01*
X153009600Y-111086200D02*
X151176600Y-109253200D01*
X151176600Y-76159800D02*
X149072600Y-74055800D01*
X132536517Y-111798083D02*
X131125900Y-113208700D01*
X155981400Y-113486400D02*
X155981400Y-111518000D01*
X141058800Y-114019800D02*
X139547600Y-112508600D01*
%TO.N,/GLUE/C2P6*%
X152705224Y-113613400D02*
X153352400Y-112966224D01*
X150770200Y-86462152D02*
X150770200Y-78523400D01*
X149733000Y-108393800D02*
X149733000Y-87499352D01*
X150770200Y-78523400D02*
X149072600Y-76825800D01*
X127660400Y-115367700D02*
X126187200Y-116840900D01*
X153352400Y-112966224D02*
X153352400Y-112013200D01*
X143192400Y-113613400D02*
X142087600Y-112508600D01*
X149733000Y-87499352D02*
X150770200Y-86462152D01*
X133406379Y-112325221D02*
X130363900Y-115367700D01*
X130363900Y-115367700D02*
X127660400Y-115367700D01*
X143192400Y-113613400D02*
X152705224Y-113613400D01*
X133503606Y-112325221D02*
X133406379Y-112325221D01*
X153352400Y-112013200D02*
X149733000Y-108393800D01*
%TO.N,/GLUE/C2P9*%
X119888000Y-111456100D02*
X119888000Y-112980100D01*
X119888000Y-112980100D02*
X118567200Y-114300900D01*
X120777000Y-110567100D02*
X119888000Y-111456100D01*
X124125790Y-111989500D02*
X122703390Y-110567100D01*
X131461961Y-111989500D02*
X124125790Y-111989500D01*
X122703390Y-110567100D02*
X120777000Y-110567100D01*
X132690966Y-110760495D02*
X131461961Y-111989500D01*
%TO.N,/GLUE/~{RAM_OE}*%
X101244400Y-148602000D02*
X99974400Y-149872000D01*
X100406200Y-156272800D02*
X102768400Y-158635000D01*
X102768400Y-158635000D02*
X102768400Y-168536000D01*
X99974400Y-149872000D02*
X99974400Y-151400464D01*
X109880400Y-145325400D02*
X109874277Y-145325400D01*
X106597677Y-148602000D02*
X101244400Y-148602000D01*
X99974400Y-151400464D02*
X100406200Y-151832264D01*
X109874277Y-145325400D02*
X106597677Y-148602000D01*
X110947200Y-144780900D02*
X110424900Y-144780900D01*
X110424900Y-144780900D02*
X109880400Y-145325400D01*
X100406200Y-151832264D02*
X100406200Y-156272800D01*
X102768400Y-168536000D02*
X105039000Y-170806600D01*
%TO.N,/controller/ex_ARM*%
X138480800Y-90664600D02*
X113207800Y-90664600D01*
X113207800Y-90664600D02*
X112318800Y-90664600D01*
%TO.N,/controller/ex_FIRE*%
X84251800Y-95744600D02*
X88315800Y-95744600D01*
X139496800Y-91553600D02*
X113715800Y-91553600D01*
X92506800Y-91553600D02*
X109397800Y-91553600D01*
X88315800Y-95744600D02*
X92506800Y-91553600D01*
%TO.N,/controller/in_disable*%
X87960200Y-113096360D02*
X86101592Y-114954968D01*
X75133200Y-116613936D02*
X75133200Y-136545200D01*
X78917800Y-99427600D02*
X87960200Y-108470000D01*
X76792168Y-114954968D02*
X75133200Y-116613936D01*
X87960200Y-108470000D02*
X87960200Y-113096360D01*
X71465000Y-140213400D02*
X71011800Y-140213400D01*
X86101592Y-114954968D02*
X76792168Y-114954968D01*
X75133200Y-136545200D02*
X71465000Y-140213400D01*
X78917800Y-96587600D02*
X78917800Y-99427600D01*
%TO.N,/GLUE/~{SND_RESET}*%
X135088300Y-134620900D02*
X136093200Y-133616000D01*
X128727200Y-134620900D02*
X135088300Y-134620900D01*
%TO.N,/GLUE/~{AY_SND_ENABLE}*%
X137304432Y-125105112D02*
X135579120Y-123379800D01*
X137304432Y-128426432D02*
X137304432Y-125105112D01*
X124714000Y-121884541D02*
X124714000Y-116155100D01*
X149464602Y-129320600D02*
X138198600Y-129320600D01*
X122123200Y-115316900D02*
X121107200Y-114300900D01*
X135579120Y-123379800D02*
X126209259Y-123379800D01*
X124714000Y-116155100D02*
X123875800Y-115316900D01*
X151333200Y-131189198D02*
X149464602Y-129320600D01*
X126209259Y-123379800D02*
X124714000Y-121884541D01*
X123875800Y-115316900D02*
X122123200Y-115316900D01*
X151333200Y-133616000D02*
X151333200Y-131189198D01*
X138198600Y-129320600D02*
X137304432Y-128426432D01*
%TO.N,/GLUE/AS*%
X133200441Y-128205800D02*
X134749841Y-129755200D01*
X127431800Y-127316800D02*
X128320800Y-128205800D01*
X149324466Y-129755200D02*
X150090400Y-130521134D01*
X125083900Y-125476900D02*
X126734900Y-125476900D01*
X103327200Y-117846688D02*
X105685312Y-120204800D01*
X119811800Y-120204800D02*
X125083900Y-125476900D01*
X126734900Y-125476900D02*
X127431800Y-126173800D01*
X103327200Y-116840900D02*
X103327200Y-117846688D01*
X150090400Y-132318800D02*
X148793200Y-133616000D01*
X105685312Y-120204800D02*
X119811800Y-120204800D01*
X128320800Y-128205800D02*
X133200441Y-128205800D01*
X127431800Y-126173800D02*
X127431800Y-127316800D01*
X134749841Y-129755200D02*
X149324466Y-129755200D01*
X150090400Y-130521134D02*
X150090400Y-132318800D01*
%TD*%
M02*
