%TF.GenerationSoftware,KiCad,Pcbnew,7.0.11-7.0.11~ubuntu22.04.1*%
%TF.CreationDate,2024-11-07T21:46:57-05:00*%
%TF.ProjectId,coleco_original,636f6c65-636f-45f6-9f72-6967696e616c,DEV*%
%TF.SameCoordinates,Original*%
%TF.FileFunction,Legend,Top*%
%TF.FilePolarity,Positive*%
%FSLAX46Y46*%
G04 Gerber Fmt 4.6, Leading zero omitted, Abs format (unit mm)*
G04 Created by KiCad (PCBNEW 7.0.11-7.0.11~ubuntu22.04.1) date 2024-11-07 21:46:57*
%MOMM*%
%LPD*%
G01*
G04 APERTURE LIST*
%ADD10C,0.150000*%
%ADD11C,0.254000*%
%ADD12C,0.120000*%
%ADD13C,0.100000*%
%ADD14C,0.152400*%
%ADD15C,0.200000*%
G04 APERTURE END LIST*
D10*
X135794809Y-83124828D02*
X135794809Y-83601019D01*
X135461476Y-82601019D02*
X135794809Y-83124828D01*
X135794809Y-83124828D02*
X136128142Y-82601019D01*
X136985285Y-83601019D02*
X136413857Y-83601019D01*
X136699571Y-83601019D02*
X136699571Y-82601019D01*
X136699571Y-82601019D02*
X136604333Y-82743876D01*
X136604333Y-82743876D02*
X136509095Y-82839114D01*
X136509095Y-82839114D02*
X136413857Y-82886733D01*
X139609533Y-149387019D02*
X139276200Y-148910828D01*
X139038105Y-149387019D02*
X139038105Y-148387019D01*
X139038105Y-148387019D02*
X139419057Y-148387019D01*
X139419057Y-148387019D02*
X139514295Y-148434638D01*
X139514295Y-148434638D02*
X139561914Y-148482257D01*
X139561914Y-148482257D02*
X139609533Y-148577495D01*
X139609533Y-148577495D02*
X139609533Y-148720352D01*
X139609533Y-148720352D02*
X139561914Y-148815590D01*
X139561914Y-148815590D02*
X139514295Y-148863209D01*
X139514295Y-148863209D02*
X139419057Y-148910828D01*
X139419057Y-148910828D02*
X139038105Y-148910828D01*
X140466676Y-148387019D02*
X140276200Y-148387019D01*
X140276200Y-148387019D02*
X140180962Y-148434638D01*
X140180962Y-148434638D02*
X140133343Y-148482257D01*
X140133343Y-148482257D02*
X140038105Y-148625114D01*
X140038105Y-148625114D02*
X139990486Y-148815590D01*
X139990486Y-148815590D02*
X139990486Y-149196542D01*
X139990486Y-149196542D02*
X140038105Y-149291780D01*
X140038105Y-149291780D02*
X140085724Y-149339400D01*
X140085724Y-149339400D02*
X140180962Y-149387019D01*
X140180962Y-149387019D02*
X140371438Y-149387019D01*
X140371438Y-149387019D02*
X140466676Y-149339400D01*
X140466676Y-149339400D02*
X140514295Y-149291780D01*
X140514295Y-149291780D02*
X140561914Y-149196542D01*
X140561914Y-149196542D02*
X140561914Y-148958447D01*
X140561914Y-148958447D02*
X140514295Y-148863209D01*
X140514295Y-148863209D02*
X140466676Y-148815590D01*
X140466676Y-148815590D02*
X140371438Y-148767971D01*
X140371438Y-148767971D02*
X140180962Y-148767971D01*
X140180962Y-148767971D02*
X140085724Y-148815590D01*
X140085724Y-148815590D02*
X140038105Y-148863209D01*
X140038105Y-148863209D02*
X139990486Y-148958447D01*
X138847533Y-154625780D02*
X138799914Y-154673400D01*
X138799914Y-154673400D02*
X138657057Y-154721019D01*
X138657057Y-154721019D02*
X138561819Y-154721019D01*
X138561819Y-154721019D02*
X138418962Y-154673400D01*
X138418962Y-154673400D02*
X138323724Y-154578161D01*
X138323724Y-154578161D02*
X138276105Y-154482923D01*
X138276105Y-154482923D02*
X138228486Y-154292447D01*
X138228486Y-154292447D02*
X138228486Y-154149590D01*
X138228486Y-154149590D02*
X138276105Y-153959114D01*
X138276105Y-153959114D02*
X138323724Y-153863876D01*
X138323724Y-153863876D02*
X138418962Y-153768638D01*
X138418962Y-153768638D02*
X138561819Y-153721019D01*
X138561819Y-153721019D02*
X138657057Y-153721019D01*
X138657057Y-153721019D02*
X138799914Y-153768638D01*
X138799914Y-153768638D02*
X138847533Y-153816257D01*
X139704676Y-154054352D02*
X139704676Y-154721019D01*
X139466581Y-153673400D02*
X139228486Y-154387685D01*
X139228486Y-154387685D02*
X139847533Y-154387685D01*
X152806495Y-53705219D02*
X152806495Y-52705219D01*
X152806495Y-53181409D02*
X153377923Y-53181409D01*
X153377923Y-53705219D02*
X153377923Y-52705219D01*
X154282685Y-52705219D02*
X154092209Y-52705219D01*
X154092209Y-52705219D02*
X153996971Y-52752838D01*
X153996971Y-52752838D02*
X153949352Y-52800457D01*
X153949352Y-52800457D02*
X153854114Y-52943314D01*
X153854114Y-52943314D02*
X153806495Y-53133790D01*
X153806495Y-53133790D02*
X153806495Y-53514742D01*
X153806495Y-53514742D02*
X153854114Y-53609980D01*
X153854114Y-53609980D02*
X153901733Y-53657600D01*
X153901733Y-53657600D02*
X153996971Y-53705219D01*
X153996971Y-53705219D02*
X154187447Y-53705219D01*
X154187447Y-53705219D02*
X154282685Y-53657600D01*
X154282685Y-53657600D02*
X154330304Y-53609980D01*
X154330304Y-53609980D02*
X154377923Y-53514742D01*
X154377923Y-53514742D02*
X154377923Y-53276647D01*
X154377923Y-53276647D02*
X154330304Y-53181409D01*
X154330304Y-53181409D02*
X154282685Y-53133790D01*
X154282685Y-53133790D02*
X154187447Y-53086171D01*
X154187447Y-53086171D02*
X153996971Y-53086171D01*
X153996971Y-53086171D02*
X153901733Y-53133790D01*
X153901733Y-53133790D02*
X153854114Y-53181409D01*
X153854114Y-53181409D02*
X153806495Y-53276647D01*
X130886295Y-62204819D02*
X130886295Y-63014342D01*
X130886295Y-63014342D02*
X130933914Y-63109580D01*
X130933914Y-63109580D02*
X130981533Y-63157200D01*
X130981533Y-63157200D02*
X131076771Y-63204819D01*
X131076771Y-63204819D02*
X131267247Y-63204819D01*
X131267247Y-63204819D02*
X131362485Y-63157200D01*
X131362485Y-63157200D02*
X131410104Y-63109580D01*
X131410104Y-63109580D02*
X131457723Y-63014342D01*
X131457723Y-63014342D02*
X131457723Y-62204819D01*
X132362485Y-62204819D02*
X132172009Y-62204819D01*
X132172009Y-62204819D02*
X132076771Y-62252438D01*
X132076771Y-62252438D02*
X132029152Y-62300057D01*
X132029152Y-62300057D02*
X131933914Y-62442914D01*
X131933914Y-62442914D02*
X131886295Y-62633390D01*
X131886295Y-62633390D02*
X131886295Y-63014342D01*
X131886295Y-63014342D02*
X131933914Y-63109580D01*
X131933914Y-63109580D02*
X131981533Y-63157200D01*
X131981533Y-63157200D02*
X132076771Y-63204819D01*
X132076771Y-63204819D02*
X132267247Y-63204819D01*
X132267247Y-63204819D02*
X132362485Y-63157200D01*
X132362485Y-63157200D02*
X132410104Y-63109580D01*
X132410104Y-63109580D02*
X132457723Y-63014342D01*
X132457723Y-63014342D02*
X132457723Y-62776247D01*
X132457723Y-62776247D02*
X132410104Y-62681009D01*
X132410104Y-62681009D02*
X132362485Y-62633390D01*
X132362485Y-62633390D02*
X132267247Y-62585771D01*
X132267247Y-62585771D02*
X132076771Y-62585771D01*
X132076771Y-62585771D02*
X131981533Y-62633390D01*
X131981533Y-62633390D02*
X131933914Y-62681009D01*
X131933914Y-62681009D02*
X131886295Y-62776247D01*
X143735466Y-50317619D02*
X143735466Y-51031904D01*
X143735466Y-51031904D02*
X143687847Y-51174761D01*
X143687847Y-51174761D02*
X143592609Y-51270000D01*
X143592609Y-51270000D02*
X143449752Y-51317619D01*
X143449752Y-51317619D02*
X143354514Y-51317619D01*
X144116419Y-50317619D02*
X144735466Y-50317619D01*
X144735466Y-50317619D02*
X144402133Y-50698571D01*
X144402133Y-50698571D02*
X144544990Y-50698571D01*
X144544990Y-50698571D02*
X144640228Y-50746190D01*
X144640228Y-50746190D02*
X144687847Y-50793809D01*
X144687847Y-50793809D02*
X144735466Y-50889047D01*
X144735466Y-50889047D02*
X144735466Y-51127142D01*
X144735466Y-51127142D02*
X144687847Y-51222380D01*
X144687847Y-51222380D02*
X144640228Y-51270000D01*
X144640228Y-51270000D02*
X144544990Y-51317619D01*
X144544990Y-51317619D02*
X144259276Y-51317619D01*
X144259276Y-51317619D02*
X144164038Y-51270000D01*
X144164038Y-51270000D02*
X144116419Y-51222380D01*
X80413266Y-89078019D02*
X80413266Y-89792304D01*
X80413266Y-89792304D02*
X80365647Y-89935161D01*
X80365647Y-89935161D02*
X80270409Y-90030400D01*
X80270409Y-90030400D02*
X80127552Y-90078019D01*
X80127552Y-90078019D02*
X80032314Y-90078019D01*
X81365647Y-89078019D02*
X80889457Y-89078019D01*
X80889457Y-89078019D02*
X80841838Y-89554209D01*
X80841838Y-89554209D02*
X80889457Y-89506590D01*
X80889457Y-89506590D02*
X80984695Y-89458971D01*
X80984695Y-89458971D02*
X81222790Y-89458971D01*
X81222790Y-89458971D02*
X81318028Y-89506590D01*
X81318028Y-89506590D02*
X81365647Y-89554209D01*
X81365647Y-89554209D02*
X81413266Y-89649447D01*
X81413266Y-89649447D02*
X81413266Y-89887542D01*
X81413266Y-89887542D02*
X81365647Y-89982780D01*
X81365647Y-89982780D02*
X81318028Y-90030400D01*
X81318028Y-90030400D02*
X81222790Y-90078019D01*
X81222790Y-90078019D02*
X80984695Y-90078019D01*
X80984695Y-90078019D02*
X80889457Y-90030400D01*
X80889457Y-90030400D02*
X80841838Y-89982780D01*
X72903419Y-95650857D02*
X72427228Y-95984190D01*
X72903419Y-96222285D02*
X71903419Y-96222285D01*
X71903419Y-96222285D02*
X71903419Y-95841333D01*
X71903419Y-95841333D02*
X71951038Y-95746095D01*
X71951038Y-95746095D02*
X71998657Y-95698476D01*
X71998657Y-95698476D02*
X72093895Y-95650857D01*
X72093895Y-95650857D02*
X72236752Y-95650857D01*
X72236752Y-95650857D02*
X72331990Y-95698476D01*
X72331990Y-95698476D02*
X72379609Y-95746095D01*
X72379609Y-95746095D02*
X72427228Y-95841333D01*
X72427228Y-95841333D02*
X72427228Y-96222285D01*
X72903419Y-94698476D02*
X72903419Y-95269904D01*
X72903419Y-94984190D02*
X71903419Y-94984190D01*
X71903419Y-94984190D02*
X72046276Y-95079428D01*
X72046276Y-95079428D02*
X72141514Y-95174666D01*
X72141514Y-95174666D02*
X72189133Y-95269904D01*
X72903419Y-94222285D02*
X72903419Y-94031809D01*
X72903419Y-94031809D02*
X72855800Y-93936571D01*
X72855800Y-93936571D02*
X72808180Y-93888952D01*
X72808180Y-93888952D02*
X72665323Y-93793714D01*
X72665323Y-93793714D02*
X72474847Y-93746095D01*
X72474847Y-93746095D02*
X72093895Y-93746095D01*
X72093895Y-93746095D02*
X71998657Y-93793714D01*
X71998657Y-93793714D02*
X71951038Y-93841333D01*
X71951038Y-93841333D02*
X71903419Y-93936571D01*
X71903419Y-93936571D02*
X71903419Y-94127047D01*
X71903419Y-94127047D02*
X71951038Y-94222285D01*
X71951038Y-94222285D02*
X71998657Y-94269904D01*
X71998657Y-94269904D02*
X72093895Y-94317523D01*
X72093895Y-94317523D02*
X72331990Y-94317523D01*
X72331990Y-94317523D02*
X72427228Y-94269904D01*
X72427228Y-94269904D02*
X72474847Y-94222285D01*
X72474847Y-94222285D02*
X72522466Y-94127047D01*
X72522466Y-94127047D02*
X72522466Y-93936571D01*
X72522466Y-93936571D02*
X72474847Y-93841333D01*
X72474847Y-93841333D02*
X72427228Y-93793714D01*
X72427228Y-93793714D02*
X72331990Y-93746095D01*
X118121133Y-166512980D02*
X118073514Y-166560600D01*
X118073514Y-166560600D02*
X117930657Y-166608219D01*
X117930657Y-166608219D02*
X117835419Y-166608219D01*
X117835419Y-166608219D02*
X117692562Y-166560600D01*
X117692562Y-166560600D02*
X117597324Y-166465361D01*
X117597324Y-166465361D02*
X117549705Y-166370123D01*
X117549705Y-166370123D02*
X117502086Y-166179647D01*
X117502086Y-166179647D02*
X117502086Y-166036790D01*
X117502086Y-166036790D02*
X117549705Y-165846314D01*
X117549705Y-165846314D02*
X117597324Y-165751076D01*
X117597324Y-165751076D02*
X117692562Y-165655838D01*
X117692562Y-165655838D02*
X117835419Y-165608219D01*
X117835419Y-165608219D02*
X117930657Y-165608219D01*
X117930657Y-165608219D02*
X118073514Y-165655838D01*
X118073514Y-165655838D02*
X118121133Y-165703457D01*
X118454467Y-165608219D02*
X119073514Y-165608219D01*
X119073514Y-165608219D02*
X118740181Y-165989171D01*
X118740181Y-165989171D02*
X118883038Y-165989171D01*
X118883038Y-165989171D02*
X118978276Y-166036790D01*
X118978276Y-166036790D02*
X119025895Y-166084409D01*
X119025895Y-166084409D02*
X119073514Y-166179647D01*
X119073514Y-166179647D02*
X119073514Y-166417742D01*
X119073514Y-166417742D02*
X119025895Y-166512980D01*
X119025895Y-166512980D02*
X118978276Y-166560600D01*
X118978276Y-166560600D02*
X118883038Y-166608219D01*
X118883038Y-166608219D02*
X118597324Y-166608219D01*
X118597324Y-166608219D02*
X118502086Y-166560600D01*
X118502086Y-166560600D02*
X118454467Y-166512980D01*
X126179342Y-166563780D02*
X126131723Y-166611400D01*
X126131723Y-166611400D02*
X125988866Y-166659019D01*
X125988866Y-166659019D02*
X125893628Y-166659019D01*
X125893628Y-166659019D02*
X125750771Y-166611400D01*
X125750771Y-166611400D02*
X125655533Y-166516161D01*
X125655533Y-166516161D02*
X125607914Y-166420923D01*
X125607914Y-166420923D02*
X125560295Y-166230447D01*
X125560295Y-166230447D02*
X125560295Y-166087590D01*
X125560295Y-166087590D02*
X125607914Y-165897114D01*
X125607914Y-165897114D02*
X125655533Y-165801876D01*
X125655533Y-165801876D02*
X125750771Y-165706638D01*
X125750771Y-165706638D02*
X125893628Y-165659019D01*
X125893628Y-165659019D02*
X125988866Y-165659019D01*
X125988866Y-165659019D02*
X126131723Y-165706638D01*
X126131723Y-165706638D02*
X126179342Y-165754257D01*
X126560295Y-165754257D02*
X126607914Y-165706638D01*
X126607914Y-165706638D02*
X126703152Y-165659019D01*
X126703152Y-165659019D02*
X126941247Y-165659019D01*
X126941247Y-165659019D02*
X127036485Y-165706638D01*
X127036485Y-165706638D02*
X127084104Y-165754257D01*
X127084104Y-165754257D02*
X127131723Y-165849495D01*
X127131723Y-165849495D02*
X127131723Y-165944733D01*
X127131723Y-165944733D02*
X127084104Y-166087590D01*
X127084104Y-166087590D02*
X126512676Y-166659019D01*
X126512676Y-166659019D02*
X127131723Y-166659019D01*
X127703152Y-166087590D02*
X127607914Y-166039971D01*
X127607914Y-166039971D02*
X127560295Y-165992352D01*
X127560295Y-165992352D02*
X127512676Y-165897114D01*
X127512676Y-165897114D02*
X127512676Y-165849495D01*
X127512676Y-165849495D02*
X127560295Y-165754257D01*
X127560295Y-165754257D02*
X127607914Y-165706638D01*
X127607914Y-165706638D02*
X127703152Y-165659019D01*
X127703152Y-165659019D02*
X127893628Y-165659019D01*
X127893628Y-165659019D02*
X127988866Y-165706638D01*
X127988866Y-165706638D02*
X128036485Y-165754257D01*
X128036485Y-165754257D02*
X128084104Y-165849495D01*
X128084104Y-165849495D02*
X128084104Y-165897114D01*
X128084104Y-165897114D02*
X128036485Y-165992352D01*
X128036485Y-165992352D02*
X127988866Y-166039971D01*
X127988866Y-166039971D02*
X127893628Y-166087590D01*
X127893628Y-166087590D02*
X127703152Y-166087590D01*
X127703152Y-166087590D02*
X127607914Y-166135209D01*
X127607914Y-166135209D02*
X127560295Y-166182828D01*
X127560295Y-166182828D02*
X127512676Y-166278066D01*
X127512676Y-166278066D02*
X127512676Y-166468542D01*
X127512676Y-166468542D02*
X127560295Y-166563780D01*
X127560295Y-166563780D02*
X127607914Y-166611400D01*
X127607914Y-166611400D02*
X127703152Y-166659019D01*
X127703152Y-166659019D02*
X127893628Y-166659019D01*
X127893628Y-166659019D02*
X127988866Y-166611400D01*
X127988866Y-166611400D02*
X128036485Y-166563780D01*
X128036485Y-166563780D02*
X128084104Y-166468542D01*
X128084104Y-166468542D02*
X128084104Y-166278066D01*
X128084104Y-166278066D02*
X128036485Y-166182828D01*
X128036485Y-166182828D02*
X127988866Y-166135209D01*
X127988866Y-166135209D02*
X127893628Y-166087590D01*
X85259942Y-131784819D02*
X84926609Y-131308628D01*
X84688514Y-131784819D02*
X84688514Y-130784819D01*
X84688514Y-130784819D02*
X85069466Y-130784819D01*
X85069466Y-130784819D02*
X85164704Y-130832438D01*
X85164704Y-130832438D02*
X85212323Y-130880057D01*
X85212323Y-130880057D02*
X85259942Y-130975295D01*
X85259942Y-130975295D02*
X85259942Y-131118152D01*
X85259942Y-131118152D02*
X85212323Y-131213390D01*
X85212323Y-131213390D02*
X85164704Y-131261009D01*
X85164704Y-131261009D02*
X85069466Y-131308628D01*
X85069466Y-131308628D02*
X84688514Y-131308628D01*
X86212323Y-131784819D02*
X85640895Y-131784819D01*
X85926609Y-131784819D02*
X85926609Y-130784819D01*
X85926609Y-130784819D02*
X85831371Y-130927676D01*
X85831371Y-130927676D02*
X85736133Y-131022914D01*
X85736133Y-131022914D02*
X85640895Y-131070533D01*
X87069466Y-131118152D02*
X87069466Y-131784819D01*
X86831371Y-130737200D02*
X86593276Y-131451485D01*
X86593276Y-131451485D02*
X87212323Y-131451485D01*
X87164942Y-147837619D02*
X86831609Y-147361428D01*
X86593514Y-147837619D02*
X86593514Y-146837619D01*
X86593514Y-146837619D02*
X86974466Y-146837619D01*
X86974466Y-146837619D02*
X87069704Y-146885238D01*
X87069704Y-146885238D02*
X87117323Y-146932857D01*
X87117323Y-146932857D02*
X87164942Y-147028095D01*
X87164942Y-147028095D02*
X87164942Y-147170952D01*
X87164942Y-147170952D02*
X87117323Y-147266190D01*
X87117323Y-147266190D02*
X87069704Y-147313809D01*
X87069704Y-147313809D02*
X86974466Y-147361428D01*
X86974466Y-147361428D02*
X86593514Y-147361428D01*
X87545895Y-146932857D02*
X87593514Y-146885238D01*
X87593514Y-146885238D02*
X87688752Y-146837619D01*
X87688752Y-146837619D02*
X87926847Y-146837619D01*
X87926847Y-146837619D02*
X88022085Y-146885238D01*
X88022085Y-146885238D02*
X88069704Y-146932857D01*
X88069704Y-146932857D02*
X88117323Y-147028095D01*
X88117323Y-147028095D02*
X88117323Y-147123333D01*
X88117323Y-147123333D02*
X88069704Y-147266190D01*
X88069704Y-147266190D02*
X87498276Y-147837619D01*
X87498276Y-147837619D02*
X88117323Y-147837619D01*
X88498276Y-146932857D02*
X88545895Y-146885238D01*
X88545895Y-146885238D02*
X88641133Y-146837619D01*
X88641133Y-146837619D02*
X88879228Y-146837619D01*
X88879228Y-146837619D02*
X88974466Y-146885238D01*
X88974466Y-146885238D02*
X89022085Y-146932857D01*
X89022085Y-146932857D02*
X89069704Y-147028095D01*
X89069704Y-147028095D02*
X89069704Y-147123333D01*
X89069704Y-147123333D02*
X89022085Y-147266190D01*
X89022085Y-147266190D02*
X88450657Y-147837619D01*
X88450657Y-147837619D02*
X89069704Y-147837619D01*
X79370323Y-110563419D02*
X79036990Y-110087228D01*
X78798895Y-110563419D02*
X78798895Y-109563419D01*
X78798895Y-109563419D02*
X79179847Y-109563419D01*
X79179847Y-109563419D02*
X79275085Y-109611038D01*
X79275085Y-109611038D02*
X79322704Y-109658657D01*
X79322704Y-109658657D02*
X79370323Y-109753895D01*
X79370323Y-109753895D02*
X79370323Y-109896752D01*
X79370323Y-109896752D02*
X79322704Y-109991990D01*
X79322704Y-109991990D02*
X79275085Y-110039609D01*
X79275085Y-110039609D02*
X79179847Y-110087228D01*
X79179847Y-110087228D02*
X78798895Y-110087228D01*
X79798895Y-110563419D02*
X79798895Y-109563419D01*
X79798895Y-109563419D02*
X80370323Y-110563419D01*
X80370323Y-110563419D02*
X80370323Y-109563419D01*
X81370323Y-110563419D02*
X80798895Y-110563419D01*
X81084609Y-110563419D02*
X81084609Y-109563419D01*
X81084609Y-109563419D02*
X80989371Y-109706276D01*
X80989371Y-109706276D02*
X80894133Y-109801514D01*
X80894133Y-109801514D02*
X80798895Y-109849133D01*
X118019533Y-86699819D02*
X117543343Y-86699819D01*
X117543343Y-86699819D02*
X117543343Y-85699819D01*
X118257629Y-85699819D02*
X118876676Y-85699819D01*
X118876676Y-85699819D02*
X118543343Y-86080771D01*
X118543343Y-86080771D02*
X118686200Y-86080771D01*
X118686200Y-86080771D02*
X118781438Y-86128390D01*
X118781438Y-86128390D02*
X118829057Y-86176009D01*
X118829057Y-86176009D02*
X118876676Y-86271247D01*
X118876676Y-86271247D02*
X118876676Y-86509342D01*
X118876676Y-86509342D02*
X118829057Y-86604580D01*
X118829057Y-86604580D02*
X118781438Y-86652200D01*
X118781438Y-86652200D02*
X118686200Y-86699819D01*
X118686200Y-86699819D02*
X118400486Y-86699819D01*
X118400486Y-86699819D02*
X118305248Y-86652200D01*
X118305248Y-86652200D02*
X118257629Y-86604580D01*
X132732542Y-184038980D02*
X132684923Y-184086600D01*
X132684923Y-184086600D02*
X132542066Y-184134219D01*
X132542066Y-184134219D02*
X132446828Y-184134219D01*
X132446828Y-184134219D02*
X132303971Y-184086600D01*
X132303971Y-184086600D02*
X132208733Y-183991361D01*
X132208733Y-183991361D02*
X132161114Y-183896123D01*
X132161114Y-183896123D02*
X132113495Y-183705647D01*
X132113495Y-183705647D02*
X132113495Y-183562790D01*
X132113495Y-183562790D02*
X132161114Y-183372314D01*
X132161114Y-183372314D02*
X132208733Y-183277076D01*
X132208733Y-183277076D02*
X132303971Y-183181838D01*
X132303971Y-183181838D02*
X132446828Y-183134219D01*
X132446828Y-183134219D02*
X132542066Y-183134219D01*
X132542066Y-183134219D02*
X132684923Y-183181838D01*
X132684923Y-183181838D02*
X132732542Y-183229457D01*
X133113495Y-183229457D02*
X133161114Y-183181838D01*
X133161114Y-183181838D02*
X133256352Y-183134219D01*
X133256352Y-183134219D02*
X133494447Y-183134219D01*
X133494447Y-183134219D02*
X133589685Y-183181838D01*
X133589685Y-183181838D02*
X133637304Y-183229457D01*
X133637304Y-183229457D02*
X133684923Y-183324695D01*
X133684923Y-183324695D02*
X133684923Y-183419933D01*
X133684923Y-183419933D02*
X133637304Y-183562790D01*
X133637304Y-183562790D02*
X133065876Y-184134219D01*
X133065876Y-184134219D02*
X133684923Y-184134219D01*
X134542066Y-183467552D02*
X134542066Y-184134219D01*
X134303971Y-183086600D02*
X134065876Y-183800885D01*
X134065876Y-183800885D02*
X134684923Y-183800885D01*
X77139895Y-166684419D02*
X77139895Y-165684419D01*
X77139895Y-166160609D02*
X77711323Y-166160609D01*
X77711323Y-166684419D02*
X77711323Y-165684419D01*
X78139895Y-165779657D02*
X78187514Y-165732038D01*
X78187514Y-165732038D02*
X78282752Y-165684419D01*
X78282752Y-165684419D02*
X78520847Y-165684419D01*
X78520847Y-165684419D02*
X78616085Y-165732038D01*
X78616085Y-165732038D02*
X78663704Y-165779657D01*
X78663704Y-165779657D02*
X78711323Y-165874895D01*
X78711323Y-165874895D02*
X78711323Y-165970133D01*
X78711323Y-165970133D02*
X78663704Y-166112990D01*
X78663704Y-166112990D02*
X78092276Y-166684419D01*
X78092276Y-166684419D02*
X78711323Y-166684419D01*
X138777742Y-156295819D02*
X138444409Y-155819628D01*
X138206314Y-156295819D02*
X138206314Y-155295819D01*
X138206314Y-155295819D02*
X138587266Y-155295819D01*
X138587266Y-155295819D02*
X138682504Y-155343438D01*
X138682504Y-155343438D02*
X138730123Y-155391057D01*
X138730123Y-155391057D02*
X138777742Y-155486295D01*
X138777742Y-155486295D02*
X138777742Y-155629152D01*
X138777742Y-155629152D02*
X138730123Y-155724390D01*
X138730123Y-155724390D02*
X138682504Y-155772009D01*
X138682504Y-155772009D02*
X138587266Y-155819628D01*
X138587266Y-155819628D02*
X138206314Y-155819628D01*
X139158695Y-155391057D02*
X139206314Y-155343438D01*
X139206314Y-155343438D02*
X139301552Y-155295819D01*
X139301552Y-155295819D02*
X139539647Y-155295819D01*
X139539647Y-155295819D02*
X139634885Y-155343438D01*
X139634885Y-155343438D02*
X139682504Y-155391057D01*
X139682504Y-155391057D02*
X139730123Y-155486295D01*
X139730123Y-155486295D02*
X139730123Y-155581533D01*
X139730123Y-155581533D02*
X139682504Y-155724390D01*
X139682504Y-155724390D02*
X139111076Y-156295819D01*
X139111076Y-156295819D02*
X139730123Y-156295819D01*
X140063457Y-155295819D02*
X140682504Y-155295819D01*
X140682504Y-155295819D02*
X140349171Y-155676771D01*
X140349171Y-155676771D02*
X140492028Y-155676771D01*
X140492028Y-155676771D02*
X140587266Y-155724390D01*
X140587266Y-155724390D02*
X140634885Y-155772009D01*
X140634885Y-155772009D02*
X140682504Y-155867247D01*
X140682504Y-155867247D02*
X140682504Y-156105342D01*
X140682504Y-156105342D02*
X140634885Y-156200580D01*
X140634885Y-156200580D02*
X140587266Y-156248200D01*
X140587266Y-156248200D02*
X140492028Y-156295819D01*
X140492028Y-156295819D02*
X140206314Y-156295819D01*
X140206314Y-156295819D02*
X140111076Y-156248200D01*
X140111076Y-156248200D02*
X140063457Y-156200580D01*
X87135619Y-175500504D02*
X87945142Y-175500504D01*
X87945142Y-175500504D02*
X88040380Y-175452885D01*
X88040380Y-175452885D02*
X88088000Y-175405266D01*
X88088000Y-175405266D02*
X88135619Y-175310028D01*
X88135619Y-175310028D02*
X88135619Y-175119552D01*
X88135619Y-175119552D02*
X88088000Y-175024314D01*
X88088000Y-175024314D02*
X88040380Y-174976695D01*
X88040380Y-174976695D02*
X87945142Y-174929076D01*
X87945142Y-174929076D02*
X87135619Y-174929076D01*
X87468952Y-174024314D02*
X88135619Y-174024314D01*
X87088000Y-174262409D02*
X87802285Y-174500504D01*
X87802285Y-174500504D02*
X87802285Y-173881457D01*
X117409933Y-157972219D02*
X116933743Y-157972219D01*
X116933743Y-157972219D02*
X116933743Y-156972219D01*
X118267076Y-157972219D02*
X117695648Y-157972219D01*
X117981362Y-157972219D02*
X117981362Y-156972219D01*
X117981362Y-156972219D02*
X117886124Y-157115076D01*
X117886124Y-157115076D02*
X117790886Y-157210314D01*
X117790886Y-157210314D02*
X117695648Y-157257933D01*
X109753495Y-48717419D02*
X109753495Y-49526942D01*
X109753495Y-49526942D02*
X109801114Y-49622180D01*
X109801114Y-49622180D02*
X109848733Y-49669800D01*
X109848733Y-49669800D02*
X109943971Y-49717419D01*
X109943971Y-49717419D02*
X110134447Y-49717419D01*
X110134447Y-49717419D02*
X110229685Y-49669800D01*
X110229685Y-49669800D02*
X110277304Y-49622180D01*
X110277304Y-49622180D02*
X110324923Y-49526942D01*
X110324923Y-49526942D02*
X110324923Y-48717419D01*
X110705876Y-48717419D02*
X111372542Y-48717419D01*
X111372542Y-48717419D02*
X110943971Y-49717419D01*
X74552276Y-144348419D02*
X74552276Y-145062704D01*
X74552276Y-145062704D02*
X74504657Y-145205561D01*
X74504657Y-145205561D02*
X74409419Y-145300800D01*
X74409419Y-145300800D02*
X74266562Y-145348419D01*
X74266562Y-145348419D02*
X74171324Y-145348419D01*
X75552276Y-145348419D02*
X74980848Y-145348419D01*
X75266562Y-145348419D02*
X75266562Y-144348419D01*
X75266562Y-144348419D02*
X75171324Y-144491276D01*
X75171324Y-144491276D02*
X75076086Y-144586514D01*
X75076086Y-144586514D02*
X74980848Y-144634133D01*
X76504657Y-145348419D02*
X75933229Y-145348419D01*
X76218943Y-145348419D02*
X76218943Y-144348419D01*
X76218943Y-144348419D02*
X76123705Y-144491276D01*
X76123705Y-144491276D02*
X76028467Y-144586514D01*
X76028467Y-144586514D02*
X75933229Y-144634133D01*
X78782942Y-171745380D02*
X78735323Y-171793000D01*
X78735323Y-171793000D02*
X78592466Y-171840619D01*
X78592466Y-171840619D02*
X78497228Y-171840619D01*
X78497228Y-171840619D02*
X78354371Y-171793000D01*
X78354371Y-171793000D02*
X78259133Y-171697761D01*
X78259133Y-171697761D02*
X78211514Y-171602523D01*
X78211514Y-171602523D02*
X78163895Y-171412047D01*
X78163895Y-171412047D02*
X78163895Y-171269190D01*
X78163895Y-171269190D02*
X78211514Y-171078714D01*
X78211514Y-171078714D02*
X78259133Y-170983476D01*
X78259133Y-170983476D02*
X78354371Y-170888238D01*
X78354371Y-170888238D02*
X78497228Y-170840619D01*
X78497228Y-170840619D02*
X78592466Y-170840619D01*
X78592466Y-170840619D02*
X78735323Y-170888238D01*
X78735323Y-170888238D02*
X78782942Y-170935857D01*
X79735323Y-171840619D02*
X79163895Y-171840619D01*
X79449609Y-171840619D02*
X79449609Y-170840619D01*
X79449609Y-170840619D02*
X79354371Y-170983476D01*
X79354371Y-170983476D02*
X79259133Y-171078714D01*
X79259133Y-171078714D02*
X79163895Y-171126333D01*
X80354371Y-170840619D02*
X80449609Y-170840619D01*
X80449609Y-170840619D02*
X80544847Y-170888238D01*
X80544847Y-170888238D02*
X80592466Y-170935857D01*
X80592466Y-170935857D02*
X80640085Y-171031095D01*
X80640085Y-171031095D02*
X80687704Y-171221571D01*
X80687704Y-171221571D02*
X80687704Y-171459666D01*
X80687704Y-171459666D02*
X80640085Y-171650142D01*
X80640085Y-171650142D02*
X80592466Y-171745380D01*
X80592466Y-171745380D02*
X80544847Y-171793000D01*
X80544847Y-171793000D02*
X80449609Y-171840619D01*
X80449609Y-171840619D02*
X80354371Y-171840619D01*
X80354371Y-171840619D02*
X80259133Y-171793000D01*
X80259133Y-171793000D02*
X80211514Y-171745380D01*
X80211514Y-171745380D02*
X80163895Y-171650142D01*
X80163895Y-171650142D02*
X80116276Y-171459666D01*
X80116276Y-171459666D02*
X80116276Y-171221571D01*
X80116276Y-171221571D02*
X80163895Y-171031095D01*
X80163895Y-171031095D02*
X80211514Y-170935857D01*
X80211514Y-170935857D02*
X80259133Y-170888238D01*
X80259133Y-170888238D02*
X80354371Y-170840619D01*
X72988980Y-105723857D02*
X73036600Y-105771476D01*
X73036600Y-105771476D02*
X73084219Y-105914333D01*
X73084219Y-105914333D02*
X73084219Y-106009571D01*
X73084219Y-106009571D02*
X73036600Y-106152428D01*
X73036600Y-106152428D02*
X72941361Y-106247666D01*
X72941361Y-106247666D02*
X72846123Y-106295285D01*
X72846123Y-106295285D02*
X72655647Y-106342904D01*
X72655647Y-106342904D02*
X72512790Y-106342904D01*
X72512790Y-106342904D02*
X72322314Y-106295285D01*
X72322314Y-106295285D02*
X72227076Y-106247666D01*
X72227076Y-106247666D02*
X72131838Y-106152428D01*
X72131838Y-106152428D02*
X72084219Y-106009571D01*
X72084219Y-106009571D02*
X72084219Y-105914333D01*
X72084219Y-105914333D02*
X72131838Y-105771476D01*
X72131838Y-105771476D02*
X72179457Y-105723857D01*
X72179457Y-105342904D02*
X72131838Y-105295285D01*
X72131838Y-105295285D02*
X72084219Y-105200047D01*
X72084219Y-105200047D02*
X72084219Y-104961952D01*
X72084219Y-104961952D02*
X72131838Y-104866714D01*
X72131838Y-104866714D02*
X72179457Y-104819095D01*
X72179457Y-104819095D02*
X72274695Y-104771476D01*
X72274695Y-104771476D02*
X72369933Y-104771476D01*
X72369933Y-104771476D02*
X72512790Y-104819095D01*
X72512790Y-104819095D02*
X73084219Y-105390523D01*
X73084219Y-105390523D02*
X73084219Y-104771476D01*
X72084219Y-104152428D02*
X72084219Y-104057190D01*
X72084219Y-104057190D02*
X72131838Y-103961952D01*
X72131838Y-103961952D02*
X72179457Y-103914333D01*
X72179457Y-103914333D02*
X72274695Y-103866714D01*
X72274695Y-103866714D02*
X72465171Y-103819095D01*
X72465171Y-103819095D02*
X72703266Y-103819095D01*
X72703266Y-103819095D02*
X72893742Y-103866714D01*
X72893742Y-103866714D02*
X72988980Y-103914333D01*
X72988980Y-103914333D02*
X73036600Y-103961952D01*
X73036600Y-103961952D02*
X73084219Y-104057190D01*
X73084219Y-104057190D02*
X73084219Y-104152428D01*
X73084219Y-104152428D02*
X73036600Y-104247666D01*
X73036600Y-104247666D02*
X72988980Y-104295285D01*
X72988980Y-104295285D02*
X72893742Y-104342904D01*
X72893742Y-104342904D02*
X72703266Y-104390523D01*
X72703266Y-104390523D02*
X72465171Y-104390523D01*
X72465171Y-104390523D02*
X72274695Y-104342904D01*
X72274695Y-104342904D02*
X72179457Y-104295285D01*
X72179457Y-104295285D02*
X72131838Y-104247666D01*
X72131838Y-104247666D02*
X72084219Y-104152428D01*
X151093561Y-145932619D02*
X150760228Y-145456428D01*
X150522133Y-145932619D02*
X150522133Y-144932619D01*
X150522133Y-144932619D02*
X150903085Y-144932619D01*
X150903085Y-144932619D02*
X150998323Y-144980238D01*
X150998323Y-144980238D02*
X151045942Y-145027857D01*
X151045942Y-145027857D02*
X151093561Y-145123095D01*
X151093561Y-145123095D02*
X151093561Y-145265952D01*
X151093561Y-145265952D02*
X151045942Y-145361190D01*
X151045942Y-145361190D02*
X150998323Y-145408809D01*
X150998323Y-145408809D02*
X150903085Y-145456428D01*
X150903085Y-145456428D02*
X150522133Y-145456428D01*
X151379276Y-144932619D02*
X151712609Y-145932619D01*
X151712609Y-145932619D02*
X152045942Y-144932619D01*
X152903085Y-145932619D02*
X152331657Y-145932619D01*
X152617371Y-145932619D02*
X152617371Y-144932619D01*
X152617371Y-144932619D02*
X152522133Y-145075476D01*
X152522133Y-145075476D02*
X152426895Y-145170714D01*
X152426895Y-145170714D02*
X152331657Y-145218333D01*
X136140866Y-184353419D02*
X136140866Y-185067704D01*
X136140866Y-185067704D02*
X136093247Y-185210561D01*
X136093247Y-185210561D02*
X135998009Y-185305800D01*
X135998009Y-185305800D02*
X135855152Y-185353419D01*
X135855152Y-185353419D02*
X135759914Y-185353419D01*
X136664676Y-185353419D02*
X136855152Y-185353419D01*
X136855152Y-185353419D02*
X136950390Y-185305800D01*
X136950390Y-185305800D02*
X136998009Y-185258180D01*
X136998009Y-185258180D02*
X137093247Y-185115323D01*
X137093247Y-185115323D02*
X137140866Y-184924847D01*
X137140866Y-184924847D02*
X137140866Y-184543895D01*
X137140866Y-184543895D02*
X137093247Y-184448657D01*
X137093247Y-184448657D02*
X137045628Y-184401038D01*
X137045628Y-184401038D02*
X136950390Y-184353419D01*
X136950390Y-184353419D02*
X136759914Y-184353419D01*
X136759914Y-184353419D02*
X136664676Y-184401038D01*
X136664676Y-184401038D02*
X136617057Y-184448657D01*
X136617057Y-184448657D02*
X136569438Y-184543895D01*
X136569438Y-184543895D02*
X136569438Y-184781990D01*
X136569438Y-184781990D02*
X136617057Y-184877228D01*
X136617057Y-184877228D02*
X136664676Y-184924847D01*
X136664676Y-184924847D02*
X136759914Y-184972466D01*
X136759914Y-184972466D02*
X136950390Y-184972466D01*
X136950390Y-184972466D02*
X137045628Y-184924847D01*
X137045628Y-184924847D02*
X137093247Y-184877228D01*
X137093247Y-184877228D02*
X137140866Y-184781990D01*
X141266942Y-116773419D02*
X140933609Y-116297228D01*
X140695514Y-116773419D02*
X140695514Y-115773419D01*
X140695514Y-115773419D02*
X141076466Y-115773419D01*
X141076466Y-115773419D02*
X141171704Y-115821038D01*
X141171704Y-115821038D02*
X141219323Y-115868657D01*
X141219323Y-115868657D02*
X141266942Y-115963895D01*
X141266942Y-115963895D02*
X141266942Y-116106752D01*
X141266942Y-116106752D02*
X141219323Y-116201990D01*
X141219323Y-116201990D02*
X141171704Y-116249609D01*
X141171704Y-116249609D02*
X141076466Y-116297228D01*
X141076466Y-116297228D02*
X140695514Y-116297228D01*
X141647895Y-115868657D02*
X141695514Y-115821038D01*
X141695514Y-115821038D02*
X141790752Y-115773419D01*
X141790752Y-115773419D02*
X142028847Y-115773419D01*
X142028847Y-115773419D02*
X142124085Y-115821038D01*
X142124085Y-115821038D02*
X142171704Y-115868657D01*
X142171704Y-115868657D02*
X142219323Y-115963895D01*
X142219323Y-115963895D02*
X142219323Y-116059133D01*
X142219323Y-116059133D02*
X142171704Y-116201990D01*
X142171704Y-116201990D02*
X141600276Y-116773419D01*
X141600276Y-116773419D02*
X142219323Y-116773419D01*
X142790752Y-116201990D02*
X142695514Y-116154371D01*
X142695514Y-116154371D02*
X142647895Y-116106752D01*
X142647895Y-116106752D02*
X142600276Y-116011514D01*
X142600276Y-116011514D02*
X142600276Y-115963895D01*
X142600276Y-115963895D02*
X142647895Y-115868657D01*
X142647895Y-115868657D02*
X142695514Y-115821038D01*
X142695514Y-115821038D02*
X142790752Y-115773419D01*
X142790752Y-115773419D02*
X142981228Y-115773419D01*
X142981228Y-115773419D02*
X143076466Y-115821038D01*
X143076466Y-115821038D02*
X143124085Y-115868657D01*
X143124085Y-115868657D02*
X143171704Y-115963895D01*
X143171704Y-115963895D02*
X143171704Y-116011514D01*
X143171704Y-116011514D02*
X143124085Y-116106752D01*
X143124085Y-116106752D02*
X143076466Y-116154371D01*
X143076466Y-116154371D02*
X142981228Y-116201990D01*
X142981228Y-116201990D02*
X142790752Y-116201990D01*
X142790752Y-116201990D02*
X142695514Y-116249609D01*
X142695514Y-116249609D02*
X142647895Y-116297228D01*
X142647895Y-116297228D02*
X142600276Y-116392466D01*
X142600276Y-116392466D02*
X142600276Y-116582942D01*
X142600276Y-116582942D02*
X142647895Y-116678180D01*
X142647895Y-116678180D02*
X142695514Y-116725800D01*
X142695514Y-116725800D02*
X142790752Y-116773419D01*
X142790752Y-116773419D02*
X142981228Y-116773419D01*
X142981228Y-116773419D02*
X143076466Y-116725800D01*
X143076466Y-116725800D02*
X143124085Y-116678180D01*
X143124085Y-116678180D02*
X143171704Y-116582942D01*
X143171704Y-116582942D02*
X143171704Y-116392466D01*
X143171704Y-116392466D02*
X143124085Y-116297228D01*
X143124085Y-116297228D02*
X143076466Y-116249609D01*
X143076466Y-116249609D02*
X142981228Y-116201990D01*
X153306542Y-55864219D02*
X152973209Y-55388028D01*
X152735114Y-55864219D02*
X152735114Y-54864219D01*
X152735114Y-54864219D02*
X153116066Y-54864219D01*
X153116066Y-54864219D02*
X153211304Y-54911838D01*
X153211304Y-54911838D02*
X153258923Y-54959457D01*
X153258923Y-54959457D02*
X153306542Y-55054695D01*
X153306542Y-55054695D02*
X153306542Y-55197552D01*
X153306542Y-55197552D02*
X153258923Y-55292790D01*
X153258923Y-55292790D02*
X153211304Y-55340409D01*
X153211304Y-55340409D02*
X153116066Y-55388028D01*
X153116066Y-55388028D02*
X152735114Y-55388028D01*
X154258923Y-55864219D02*
X153687495Y-55864219D01*
X153973209Y-55864219D02*
X153973209Y-54864219D01*
X153973209Y-54864219D02*
X153877971Y-55007076D01*
X153877971Y-55007076D02*
X153782733Y-55102314D01*
X153782733Y-55102314D02*
X153687495Y-55149933D01*
X154877971Y-54864219D02*
X154973209Y-54864219D01*
X154973209Y-54864219D02*
X155068447Y-54911838D01*
X155068447Y-54911838D02*
X155116066Y-54959457D01*
X155116066Y-54959457D02*
X155163685Y-55054695D01*
X155163685Y-55054695D02*
X155211304Y-55245171D01*
X155211304Y-55245171D02*
X155211304Y-55483266D01*
X155211304Y-55483266D02*
X155163685Y-55673742D01*
X155163685Y-55673742D02*
X155116066Y-55768980D01*
X155116066Y-55768980D02*
X155068447Y-55816600D01*
X155068447Y-55816600D02*
X154973209Y-55864219D01*
X154973209Y-55864219D02*
X154877971Y-55864219D01*
X154877971Y-55864219D02*
X154782733Y-55816600D01*
X154782733Y-55816600D02*
X154735114Y-55768980D01*
X154735114Y-55768980D02*
X154687495Y-55673742D01*
X154687495Y-55673742D02*
X154639876Y-55483266D01*
X154639876Y-55483266D02*
X154639876Y-55245171D01*
X154639876Y-55245171D02*
X154687495Y-55054695D01*
X154687495Y-55054695D02*
X154735114Y-54959457D01*
X154735114Y-54959457D02*
X154782733Y-54911838D01*
X154782733Y-54911838D02*
X154877971Y-54864219D01*
X79036942Y-131759419D02*
X78703609Y-131283228D01*
X78465514Y-131759419D02*
X78465514Y-130759419D01*
X78465514Y-130759419D02*
X78846466Y-130759419D01*
X78846466Y-130759419D02*
X78941704Y-130807038D01*
X78941704Y-130807038D02*
X78989323Y-130854657D01*
X78989323Y-130854657D02*
X79036942Y-130949895D01*
X79036942Y-130949895D02*
X79036942Y-131092752D01*
X79036942Y-131092752D02*
X78989323Y-131187990D01*
X78989323Y-131187990D02*
X78941704Y-131235609D01*
X78941704Y-131235609D02*
X78846466Y-131283228D01*
X78846466Y-131283228D02*
X78465514Y-131283228D01*
X79989323Y-131759419D02*
X79417895Y-131759419D01*
X79703609Y-131759419D02*
X79703609Y-130759419D01*
X79703609Y-130759419D02*
X79608371Y-130902276D01*
X79608371Y-130902276D02*
X79513133Y-130997514D01*
X79513133Y-130997514D02*
X79417895Y-131045133D01*
X80846466Y-130759419D02*
X80655990Y-130759419D01*
X80655990Y-130759419D02*
X80560752Y-130807038D01*
X80560752Y-130807038D02*
X80513133Y-130854657D01*
X80513133Y-130854657D02*
X80417895Y-130997514D01*
X80417895Y-130997514D02*
X80370276Y-131187990D01*
X80370276Y-131187990D02*
X80370276Y-131568942D01*
X80370276Y-131568942D02*
X80417895Y-131664180D01*
X80417895Y-131664180D02*
X80465514Y-131711800D01*
X80465514Y-131711800D02*
X80560752Y-131759419D01*
X80560752Y-131759419D02*
X80751228Y-131759419D01*
X80751228Y-131759419D02*
X80846466Y-131711800D01*
X80846466Y-131711800D02*
X80894085Y-131664180D01*
X80894085Y-131664180D02*
X80941704Y-131568942D01*
X80941704Y-131568942D02*
X80941704Y-131330847D01*
X80941704Y-131330847D02*
X80894085Y-131235609D01*
X80894085Y-131235609D02*
X80846466Y-131187990D01*
X80846466Y-131187990D02*
X80751228Y-131140371D01*
X80751228Y-131140371D02*
X80560752Y-131140371D01*
X80560752Y-131140371D02*
X80465514Y-131187990D01*
X80465514Y-131187990D02*
X80417895Y-131235609D01*
X80417895Y-131235609D02*
X80370276Y-131330847D01*
X71726466Y-131572219D02*
X71726466Y-132286504D01*
X71726466Y-132286504D02*
X71678847Y-132429361D01*
X71678847Y-132429361D02*
X71583609Y-132524600D01*
X71583609Y-132524600D02*
X71440752Y-132572219D01*
X71440752Y-132572219D02*
X71345514Y-132572219D01*
X72631228Y-131572219D02*
X72440752Y-131572219D01*
X72440752Y-131572219D02*
X72345514Y-131619838D01*
X72345514Y-131619838D02*
X72297895Y-131667457D01*
X72297895Y-131667457D02*
X72202657Y-131810314D01*
X72202657Y-131810314D02*
X72155038Y-132000790D01*
X72155038Y-132000790D02*
X72155038Y-132381742D01*
X72155038Y-132381742D02*
X72202657Y-132476980D01*
X72202657Y-132476980D02*
X72250276Y-132524600D01*
X72250276Y-132524600D02*
X72345514Y-132572219D01*
X72345514Y-132572219D02*
X72535990Y-132572219D01*
X72535990Y-132572219D02*
X72631228Y-132524600D01*
X72631228Y-132524600D02*
X72678847Y-132476980D01*
X72678847Y-132476980D02*
X72726466Y-132381742D01*
X72726466Y-132381742D02*
X72726466Y-132143647D01*
X72726466Y-132143647D02*
X72678847Y-132048409D01*
X72678847Y-132048409D02*
X72631228Y-132000790D01*
X72631228Y-132000790D02*
X72535990Y-131953171D01*
X72535990Y-131953171D02*
X72345514Y-131953171D01*
X72345514Y-131953171D02*
X72250276Y-132000790D01*
X72250276Y-132000790D02*
X72202657Y-132048409D01*
X72202657Y-132048409D02*
X72155038Y-132143647D01*
X141901942Y-71256619D02*
X141568609Y-70780428D01*
X141330514Y-71256619D02*
X141330514Y-70256619D01*
X141330514Y-70256619D02*
X141711466Y-70256619D01*
X141711466Y-70256619D02*
X141806704Y-70304238D01*
X141806704Y-70304238D02*
X141854323Y-70351857D01*
X141854323Y-70351857D02*
X141901942Y-70447095D01*
X141901942Y-70447095D02*
X141901942Y-70589952D01*
X141901942Y-70589952D02*
X141854323Y-70685190D01*
X141854323Y-70685190D02*
X141806704Y-70732809D01*
X141806704Y-70732809D02*
X141711466Y-70780428D01*
X141711466Y-70780428D02*
X141330514Y-70780428D01*
X142854323Y-71256619D02*
X142282895Y-71256619D01*
X142568609Y-71256619D02*
X142568609Y-70256619D01*
X142568609Y-70256619D02*
X142473371Y-70399476D01*
X142473371Y-70399476D02*
X142378133Y-70494714D01*
X142378133Y-70494714D02*
X142282895Y-70542333D01*
X143235276Y-70351857D02*
X143282895Y-70304238D01*
X143282895Y-70304238D02*
X143378133Y-70256619D01*
X143378133Y-70256619D02*
X143616228Y-70256619D01*
X143616228Y-70256619D02*
X143711466Y-70304238D01*
X143711466Y-70304238D02*
X143759085Y-70351857D01*
X143759085Y-70351857D02*
X143806704Y-70447095D01*
X143806704Y-70447095D02*
X143806704Y-70542333D01*
X143806704Y-70542333D02*
X143759085Y-70685190D01*
X143759085Y-70685190D02*
X143187657Y-71256619D01*
X143187657Y-71256619D02*
X143806704Y-71256619D01*
X156239380Y-131293466D02*
X156287000Y-131341085D01*
X156287000Y-131341085D02*
X156334619Y-131483942D01*
X156334619Y-131483942D02*
X156334619Y-131579180D01*
X156334619Y-131579180D02*
X156287000Y-131722037D01*
X156287000Y-131722037D02*
X156191761Y-131817275D01*
X156191761Y-131817275D02*
X156096523Y-131864894D01*
X156096523Y-131864894D02*
X155906047Y-131912513D01*
X155906047Y-131912513D02*
X155763190Y-131912513D01*
X155763190Y-131912513D02*
X155572714Y-131864894D01*
X155572714Y-131864894D02*
X155477476Y-131817275D01*
X155477476Y-131817275D02*
X155382238Y-131722037D01*
X155382238Y-131722037D02*
X155334619Y-131579180D01*
X155334619Y-131579180D02*
X155334619Y-131483942D01*
X155334619Y-131483942D02*
X155382238Y-131341085D01*
X155382238Y-131341085D02*
X155429857Y-131293466D01*
X155763190Y-130722037D02*
X155715571Y-130817275D01*
X155715571Y-130817275D02*
X155667952Y-130864894D01*
X155667952Y-130864894D02*
X155572714Y-130912513D01*
X155572714Y-130912513D02*
X155525095Y-130912513D01*
X155525095Y-130912513D02*
X155429857Y-130864894D01*
X155429857Y-130864894D02*
X155382238Y-130817275D01*
X155382238Y-130817275D02*
X155334619Y-130722037D01*
X155334619Y-130722037D02*
X155334619Y-130531561D01*
X155334619Y-130531561D02*
X155382238Y-130436323D01*
X155382238Y-130436323D02*
X155429857Y-130388704D01*
X155429857Y-130388704D02*
X155525095Y-130341085D01*
X155525095Y-130341085D02*
X155572714Y-130341085D01*
X155572714Y-130341085D02*
X155667952Y-130388704D01*
X155667952Y-130388704D02*
X155715571Y-130436323D01*
X155715571Y-130436323D02*
X155763190Y-130531561D01*
X155763190Y-130531561D02*
X155763190Y-130722037D01*
X155763190Y-130722037D02*
X155810809Y-130817275D01*
X155810809Y-130817275D02*
X155858428Y-130864894D01*
X155858428Y-130864894D02*
X155953666Y-130912513D01*
X155953666Y-130912513D02*
X156144142Y-130912513D01*
X156144142Y-130912513D02*
X156239380Y-130864894D01*
X156239380Y-130864894D02*
X156287000Y-130817275D01*
X156287000Y-130817275D02*
X156334619Y-130722037D01*
X156334619Y-130722037D02*
X156334619Y-130531561D01*
X156334619Y-130531561D02*
X156287000Y-130436323D01*
X156287000Y-130436323D02*
X156239380Y-130388704D01*
X156239380Y-130388704D02*
X156144142Y-130341085D01*
X156144142Y-130341085D02*
X155953666Y-130341085D01*
X155953666Y-130341085D02*
X155858428Y-130388704D01*
X155858428Y-130388704D02*
X155810809Y-130436323D01*
X155810809Y-130436323D02*
X155763190Y-130531561D01*
X82688133Y-116646419D02*
X82354800Y-116170228D01*
X82116705Y-116646419D02*
X82116705Y-115646419D01*
X82116705Y-115646419D02*
X82497657Y-115646419D01*
X82497657Y-115646419D02*
X82592895Y-115694038D01*
X82592895Y-115694038D02*
X82640514Y-115741657D01*
X82640514Y-115741657D02*
X82688133Y-115836895D01*
X82688133Y-115836895D02*
X82688133Y-115979752D01*
X82688133Y-115979752D02*
X82640514Y-116074990D01*
X82640514Y-116074990D02*
X82592895Y-116122609D01*
X82592895Y-116122609D02*
X82497657Y-116170228D01*
X82497657Y-116170228D02*
X82116705Y-116170228D01*
X83021467Y-115646419D02*
X83640514Y-115646419D01*
X83640514Y-115646419D02*
X83307181Y-116027371D01*
X83307181Y-116027371D02*
X83450038Y-116027371D01*
X83450038Y-116027371D02*
X83545276Y-116074990D01*
X83545276Y-116074990D02*
X83592895Y-116122609D01*
X83592895Y-116122609D02*
X83640514Y-116217847D01*
X83640514Y-116217847D02*
X83640514Y-116455942D01*
X83640514Y-116455942D02*
X83592895Y-116551180D01*
X83592895Y-116551180D02*
X83545276Y-116598800D01*
X83545276Y-116598800D02*
X83450038Y-116646419D01*
X83450038Y-116646419D02*
X83164324Y-116646419D01*
X83164324Y-116646419D02*
X83069086Y-116598800D01*
X83069086Y-116598800D02*
X83021467Y-116551180D01*
X127823933Y-176012580D02*
X127776314Y-176060200D01*
X127776314Y-176060200D02*
X127633457Y-176107819D01*
X127633457Y-176107819D02*
X127538219Y-176107819D01*
X127538219Y-176107819D02*
X127395362Y-176060200D01*
X127395362Y-176060200D02*
X127300124Y-175964961D01*
X127300124Y-175964961D02*
X127252505Y-175869723D01*
X127252505Y-175869723D02*
X127204886Y-175679247D01*
X127204886Y-175679247D02*
X127204886Y-175536390D01*
X127204886Y-175536390D02*
X127252505Y-175345914D01*
X127252505Y-175345914D02*
X127300124Y-175250676D01*
X127300124Y-175250676D02*
X127395362Y-175155438D01*
X127395362Y-175155438D02*
X127538219Y-175107819D01*
X127538219Y-175107819D02*
X127633457Y-175107819D01*
X127633457Y-175107819D02*
X127776314Y-175155438D01*
X127776314Y-175155438D02*
X127823933Y-175203057D01*
X128157267Y-175107819D02*
X128823933Y-175107819D01*
X128823933Y-175107819D02*
X128395362Y-176107819D01*
X131767342Y-166512980D02*
X131719723Y-166560600D01*
X131719723Y-166560600D02*
X131576866Y-166608219D01*
X131576866Y-166608219D02*
X131481628Y-166608219D01*
X131481628Y-166608219D02*
X131338771Y-166560600D01*
X131338771Y-166560600D02*
X131243533Y-166465361D01*
X131243533Y-166465361D02*
X131195914Y-166370123D01*
X131195914Y-166370123D02*
X131148295Y-166179647D01*
X131148295Y-166179647D02*
X131148295Y-166036790D01*
X131148295Y-166036790D02*
X131195914Y-165846314D01*
X131195914Y-165846314D02*
X131243533Y-165751076D01*
X131243533Y-165751076D02*
X131338771Y-165655838D01*
X131338771Y-165655838D02*
X131481628Y-165608219D01*
X131481628Y-165608219D02*
X131576866Y-165608219D01*
X131576866Y-165608219D02*
X131719723Y-165655838D01*
X131719723Y-165655838D02*
X131767342Y-165703457D01*
X132148295Y-165703457D02*
X132195914Y-165655838D01*
X132195914Y-165655838D02*
X132291152Y-165608219D01*
X132291152Y-165608219D02*
X132529247Y-165608219D01*
X132529247Y-165608219D02*
X132624485Y-165655838D01*
X132624485Y-165655838D02*
X132672104Y-165703457D01*
X132672104Y-165703457D02*
X132719723Y-165798695D01*
X132719723Y-165798695D02*
X132719723Y-165893933D01*
X132719723Y-165893933D02*
X132672104Y-166036790D01*
X132672104Y-166036790D02*
X132100676Y-166608219D01*
X132100676Y-166608219D02*
X132719723Y-166608219D01*
X133053057Y-165608219D02*
X133719723Y-165608219D01*
X133719723Y-165608219D02*
X133291152Y-166608219D01*
X75988942Y-131759419D02*
X75655609Y-131283228D01*
X75417514Y-131759419D02*
X75417514Y-130759419D01*
X75417514Y-130759419D02*
X75798466Y-130759419D01*
X75798466Y-130759419D02*
X75893704Y-130807038D01*
X75893704Y-130807038D02*
X75941323Y-130854657D01*
X75941323Y-130854657D02*
X75988942Y-130949895D01*
X75988942Y-130949895D02*
X75988942Y-131092752D01*
X75988942Y-131092752D02*
X75941323Y-131187990D01*
X75941323Y-131187990D02*
X75893704Y-131235609D01*
X75893704Y-131235609D02*
X75798466Y-131283228D01*
X75798466Y-131283228D02*
X75417514Y-131283228D01*
X76941323Y-131759419D02*
X76369895Y-131759419D01*
X76655609Y-131759419D02*
X76655609Y-130759419D01*
X76655609Y-130759419D02*
X76560371Y-130902276D01*
X76560371Y-130902276D02*
X76465133Y-130997514D01*
X76465133Y-130997514D02*
X76369895Y-131045133D01*
X77274657Y-130759419D02*
X77941323Y-130759419D01*
X77941323Y-130759419D02*
X77512752Y-131759419D01*
X144472066Y-89332019D02*
X144472066Y-90046304D01*
X144472066Y-90046304D02*
X144424447Y-90189161D01*
X144424447Y-90189161D02*
X144329209Y-90284400D01*
X144329209Y-90284400D02*
X144186352Y-90332019D01*
X144186352Y-90332019D02*
X144091114Y-90332019D01*
X144853019Y-89332019D02*
X145519685Y-89332019D01*
X145519685Y-89332019D02*
X145091114Y-90332019D01*
X115493895Y-109880619D02*
X115493895Y-110690142D01*
X115493895Y-110690142D02*
X115541514Y-110785380D01*
X115541514Y-110785380D02*
X115589133Y-110833000D01*
X115589133Y-110833000D02*
X115684371Y-110880619D01*
X115684371Y-110880619D02*
X115874847Y-110880619D01*
X115874847Y-110880619D02*
X115970085Y-110833000D01*
X115970085Y-110833000D02*
X116017704Y-110785380D01*
X116017704Y-110785380D02*
X116065323Y-110690142D01*
X116065323Y-110690142D02*
X116065323Y-109880619D01*
X116589133Y-110880619D02*
X116779609Y-110880619D01*
X116779609Y-110880619D02*
X116874847Y-110833000D01*
X116874847Y-110833000D02*
X116922466Y-110785380D01*
X116922466Y-110785380D02*
X117017704Y-110642523D01*
X117017704Y-110642523D02*
X117065323Y-110452047D01*
X117065323Y-110452047D02*
X117065323Y-110071095D01*
X117065323Y-110071095D02*
X117017704Y-109975857D01*
X117017704Y-109975857D02*
X116970085Y-109928238D01*
X116970085Y-109928238D02*
X116874847Y-109880619D01*
X116874847Y-109880619D02*
X116684371Y-109880619D01*
X116684371Y-109880619D02*
X116589133Y-109928238D01*
X116589133Y-109928238D02*
X116541514Y-109975857D01*
X116541514Y-109975857D02*
X116493895Y-110071095D01*
X116493895Y-110071095D02*
X116493895Y-110309190D01*
X116493895Y-110309190D02*
X116541514Y-110404428D01*
X116541514Y-110404428D02*
X116589133Y-110452047D01*
X116589133Y-110452047D02*
X116684371Y-110499666D01*
X116684371Y-110499666D02*
X116874847Y-110499666D01*
X116874847Y-110499666D02*
X116970085Y-110452047D01*
X116970085Y-110452047D02*
X117017704Y-110404428D01*
X117017704Y-110404428D02*
X117065323Y-110309190D01*
X132982619Y-138841894D02*
X133792142Y-138841894D01*
X133792142Y-138841894D02*
X133887380Y-138794275D01*
X133887380Y-138794275D02*
X133935000Y-138746656D01*
X133935000Y-138746656D02*
X133982619Y-138651418D01*
X133982619Y-138651418D02*
X133982619Y-138460942D01*
X133982619Y-138460942D02*
X133935000Y-138365704D01*
X133935000Y-138365704D02*
X133887380Y-138318085D01*
X133887380Y-138318085D02*
X133792142Y-138270466D01*
X133792142Y-138270466D02*
X132982619Y-138270466D01*
X133982619Y-137270466D02*
X133982619Y-137841894D01*
X133982619Y-137556180D02*
X132982619Y-137556180D01*
X132982619Y-137556180D02*
X133125476Y-137651418D01*
X133125476Y-137651418D02*
X133220714Y-137746656D01*
X133220714Y-137746656D02*
X133268333Y-137841894D01*
X133982619Y-136318085D02*
X133982619Y-136889513D01*
X133982619Y-136603799D02*
X132982619Y-136603799D01*
X132982619Y-136603799D02*
X133125476Y-136699037D01*
X133125476Y-136699037D02*
X133220714Y-136794275D01*
X133220714Y-136794275D02*
X133268333Y-136889513D01*
X139488942Y-83454980D02*
X139441323Y-83502600D01*
X139441323Y-83502600D02*
X139298466Y-83550219D01*
X139298466Y-83550219D02*
X139203228Y-83550219D01*
X139203228Y-83550219D02*
X139060371Y-83502600D01*
X139060371Y-83502600D02*
X138965133Y-83407361D01*
X138965133Y-83407361D02*
X138917514Y-83312123D01*
X138917514Y-83312123D02*
X138869895Y-83121647D01*
X138869895Y-83121647D02*
X138869895Y-82978790D01*
X138869895Y-82978790D02*
X138917514Y-82788314D01*
X138917514Y-82788314D02*
X138965133Y-82693076D01*
X138965133Y-82693076D02*
X139060371Y-82597838D01*
X139060371Y-82597838D02*
X139203228Y-82550219D01*
X139203228Y-82550219D02*
X139298466Y-82550219D01*
X139298466Y-82550219D02*
X139441323Y-82597838D01*
X139441323Y-82597838D02*
X139488942Y-82645457D01*
X140441323Y-83550219D02*
X139869895Y-83550219D01*
X140155609Y-83550219D02*
X140155609Y-82550219D01*
X140155609Y-82550219D02*
X140060371Y-82693076D01*
X140060371Y-82693076D02*
X139965133Y-82788314D01*
X139965133Y-82788314D02*
X139869895Y-82835933D01*
X141298466Y-82550219D02*
X141107990Y-82550219D01*
X141107990Y-82550219D02*
X141012752Y-82597838D01*
X141012752Y-82597838D02*
X140965133Y-82645457D01*
X140965133Y-82645457D02*
X140869895Y-82788314D01*
X140869895Y-82788314D02*
X140822276Y-82978790D01*
X140822276Y-82978790D02*
X140822276Y-83359742D01*
X140822276Y-83359742D02*
X140869895Y-83454980D01*
X140869895Y-83454980D02*
X140917514Y-83502600D01*
X140917514Y-83502600D02*
X141012752Y-83550219D01*
X141012752Y-83550219D02*
X141203228Y-83550219D01*
X141203228Y-83550219D02*
X141298466Y-83502600D01*
X141298466Y-83502600D02*
X141346085Y-83454980D01*
X141346085Y-83454980D02*
X141393704Y-83359742D01*
X141393704Y-83359742D02*
X141393704Y-83121647D01*
X141393704Y-83121647D02*
X141346085Y-83026409D01*
X141346085Y-83026409D02*
X141298466Y-82978790D01*
X141298466Y-82978790D02*
X141203228Y-82931171D01*
X141203228Y-82931171D02*
X141012752Y-82931171D01*
X141012752Y-82931171D02*
X140917514Y-82978790D01*
X140917514Y-82978790D02*
X140869895Y-83026409D01*
X140869895Y-83026409D02*
X140822276Y-83121647D01*
X92371942Y-142078180D02*
X92324323Y-142125800D01*
X92324323Y-142125800D02*
X92181466Y-142173419D01*
X92181466Y-142173419D02*
X92086228Y-142173419D01*
X92086228Y-142173419D02*
X91943371Y-142125800D01*
X91943371Y-142125800D02*
X91848133Y-142030561D01*
X91848133Y-142030561D02*
X91800514Y-141935323D01*
X91800514Y-141935323D02*
X91752895Y-141744847D01*
X91752895Y-141744847D02*
X91752895Y-141601990D01*
X91752895Y-141601990D02*
X91800514Y-141411514D01*
X91800514Y-141411514D02*
X91848133Y-141316276D01*
X91848133Y-141316276D02*
X91943371Y-141221038D01*
X91943371Y-141221038D02*
X92086228Y-141173419D01*
X92086228Y-141173419D02*
X92181466Y-141173419D01*
X92181466Y-141173419D02*
X92324323Y-141221038D01*
X92324323Y-141221038D02*
X92371942Y-141268657D01*
X93324323Y-142173419D02*
X92752895Y-142173419D01*
X93038609Y-142173419D02*
X93038609Y-141173419D01*
X93038609Y-141173419D02*
X92943371Y-141316276D01*
X92943371Y-141316276D02*
X92848133Y-141411514D01*
X92848133Y-141411514D02*
X92752895Y-141459133D01*
X93895752Y-141601990D02*
X93800514Y-141554371D01*
X93800514Y-141554371D02*
X93752895Y-141506752D01*
X93752895Y-141506752D02*
X93705276Y-141411514D01*
X93705276Y-141411514D02*
X93705276Y-141363895D01*
X93705276Y-141363895D02*
X93752895Y-141268657D01*
X93752895Y-141268657D02*
X93800514Y-141221038D01*
X93800514Y-141221038D02*
X93895752Y-141173419D01*
X93895752Y-141173419D02*
X94086228Y-141173419D01*
X94086228Y-141173419D02*
X94181466Y-141221038D01*
X94181466Y-141221038D02*
X94229085Y-141268657D01*
X94229085Y-141268657D02*
X94276704Y-141363895D01*
X94276704Y-141363895D02*
X94276704Y-141411514D01*
X94276704Y-141411514D02*
X94229085Y-141506752D01*
X94229085Y-141506752D02*
X94181466Y-141554371D01*
X94181466Y-141554371D02*
X94086228Y-141601990D01*
X94086228Y-141601990D02*
X93895752Y-141601990D01*
X93895752Y-141601990D02*
X93800514Y-141649609D01*
X93800514Y-141649609D02*
X93752895Y-141697228D01*
X93752895Y-141697228D02*
X93705276Y-141792466D01*
X93705276Y-141792466D02*
X93705276Y-141982942D01*
X93705276Y-141982942D02*
X93752895Y-142078180D01*
X93752895Y-142078180D02*
X93800514Y-142125800D01*
X93800514Y-142125800D02*
X93895752Y-142173419D01*
X93895752Y-142173419D02*
X94086228Y-142173419D01*
X94086228Y-142173419D02*
X94181466Y-142125800D01*
X94181466Y-142125800D02*
X94229085Y-142078180D01*
X94229085Y-142078180D02*
X94276704Y-141982942D01*
X94276704Y-141982942D02*
X94276704Y-141792466D01*
X94276704Y-141792466D02*
X94229085Y-141697228D01*
X94229085Y-141697228D02*
X94181466Y-141649609D01*
X94181466Y-141649609D02*
X94086228Y-141601990D01*
X70432705Y-150758619D02*
X70432705Y-149758619D01*
X70432705Y-149758619D02*
X70670800Y-149758619D01*
X70670800Y-149758619D02*
X70813657Y-149806238D01*
X70813657Y-149806238D02*
X70908895Y-149901476D01*
X70908895Y-149901476D02*
X70956514Y-149996714D01*
X70956514Y-149996714D02*
X71004133Y-150187190D01*
X71004133Y-150187190D02*
X71004133Y-150330047D01*
X71004133Y-150330047D02*
X70956514Y-150520523D01*
X70956514Y-150520523D02*
X70908895Y-150615761D01*
X70908895Y-150615761D02*
X70813657Y-150711000D01*
X70813657Y-150711000D02*
X70670800Y-150758619D01*
X70670800Y-150758619D02*
X70432705Y-150758619D01*
X71956514Y-150758619D02*
X71385086Y-150758619D01*
X71670800Y-150758619D02*
X71670800Y-149758619D01*
X71670800Y-149758619D02*
X71575562Y-149901476D01*
X71575562Y-149901476D02*
X71480324Y-149996714D01*
X71480324Y-149996714D02*
X71385086Y-150044333D01*
X139819142Y-75911180D02*
X139771523Y-75958800D01*
X139771523Y-75958800D02*
X139628666Y-76006419D01*
X139628666Y-76006419D02*
X139533428Y-76006419D01*
X139533428Y-76006419D02*
X139390571Y-75958800D01*
X139390571Y-75958800D02*
X139295333Y-75863561D01*
X139295333Y-75863561D02*
X139247714Y-75768323D01*
X139247714Y-75768323D02*
X139200095Y-75577847D01*
X139200095Y-75577847D02*
X139200095Y-75434990D01*
X139200095Y-75434990D02*
X139247714Y-75244514D01*
X139247714Y-75244514D02*
X139295333Y-75149276D01*
X139295333Y-75149276D02*
X139390571Y-75054038D01*
X139390571Y-75054038D02*
X139533428Y-75006419D01*
X139533428Y-75006419D02*
X139628666Y-75006419D01*
X139628666Y-75006419D02*
X139771523Y-75054038D01*
X139771523Y-75054038D02*
X139819142Y-75101657D01*
X140771523Y-76006419D02*
X140200095Y-76006419D01*
X140485809Y-76006419D02*
X140485809Y-75006419D01*
X140485809Y-75006419D02*
X140390571Y-75149276D01*
X140390571Y-75149276D02*
X140295333Y-75244514D01*
X140295333Y-75244514D02*
X140200095Y-75292133D01*
X141676285Y-75006419D02*
X141200095Y-75006419D01*
X141200095Y-75006419D02*
X141152476Y-75482609D01*
X141152476Y-75482609D02*
X141200095Y-75434990D01*
X141200095Y-75434990D02*
X141295333Y-75387371D01*
X141295333Y-75387371D02*
X141533428Y-75387371D01*
X141533428Y-75387371D02*
X141628666Y-75434990D01*
X141628666Y-75434990D02*
X141676285Y-75482609D01*
X141676285Y-75482609D02*
X141723904Y-75577847D01*
X141723904Y-75577847D02*
X141723904Y-75815942D01*
X141723904Y-75815942D02*
X141676285Y-75911180D01*
X141676285Y-75911180D02*
X141628666Y-75958800D01*
X141628666Y-75958800D02*
X141533428Y-76006419D01*
X141533428Y-76006419D02*
X141295333Y-76006419D01*
X141295333Y-76006419D02*
X141200095Y-75958800D01*
X141200095Y-75958800D02*
X141152476Y-75911180D01*
X144213342Y-165287419D02*
X143880009Y-164811228D01*
X143641914Y-165287419D02*
X143641914Y-164287419D01*
X143641914Y-164287419D02*
X144022866Y-164287419D01*
X144022866Y-164287419D02*
X144118104Y-164335038D01*
X144118104Y-164335038D02*
X144165723Y-164382657D01*
X144165723Y-164382657D02*
X144213342Y-164477895D01*
X144213342Y-164477895D02*
X144213342Y-164620752D01*
X144213342Y-164620752D02*
X144165723Y-164715990D01*
X144165723Y-164715990D02*
X144118104Y-164763609D01*
X144118104Y-164763609D02*
X144022866Y-164811228D01*
X144022866Y-164811228D02*
X143641914Y-164811228D01*
X144594295Y-164382657D02*
X144641914Y-164335038D01*
X144641914Y-164335038D02*
X144737152Y-164287419D01*
X144737152Y-164287419D02*
X144975247Y-164287419D01*
X144975247Y-164287419D02*
X145070485Y-164335038D01*
X145070485Y-164335038D02*
X145118104Y-164382657D01*
X145118104Y-164382657D02*
X145165723Y-164477895D01*
X145165723Y-164477895D02*
X145165723Y-164573133D01*
X145165723Y-164573133D02*
X145118104Y-164715990D01*
X145118104Y-164715990D02*
X144546676Y-165287419D01*
X144546676Y-165287419D02*
X145165723Y-165287419D01*
X146022866Y-164620752D02*
X146022866Y-165287419D01*
X145784771Y-164239800D02*
X145546676Y-164954085D01*
X145546676Y-164954085D02*
X146165723Y-164954085D01*
X146680323Y-110550419D02*
X146346990Y-110074228D01*
X146108895Y-110550419D02*
X146108895Y-109550419D01*
X146108895Y-109550419D02*
X146489847Y-109550419D01*
X146489847Y-109550419D02*
X146585085Y-109598038D01*
X146585085Y-109598038D02*
X146632704Y-109645657D01*
X146632704Y-109645657D02*
X146680323Y-109740895D01*
X146680323Y-109740895D02*
X146680323Y-109883752D01*
X146680323Y-109883752D02*
X146632704Y-109978990D01*
X146632704Y-109978990D02*
X146585085Y-110026609D01*
X146585085Y-110026609D02*
X146489847Y-110074228D01*
X146489847Y-110074228D02*
X146108895Y-110074228D01*
X147108895Y-110550419D02*
X147108895Y-109550419D01*
X147108895Y-109550419D02*
X147680323Y-110550419D01*
X147680323Y-110550419D02*
X147680323Y-109550419D01*
X148108895Y-109645657D02*
X148156514Y-109598038D01*
X148156514Y-109598038D02*
X148251752Y-109550419D01*
X148251752Y-109550419D02*
X148489847Y-109550419D01*
X148489847Y-109550419D02*
X148585085Y-109598038D01*
X148585085Y-109598038D02*
X148632704Y-109645657D01*
X148632704Y-109645657D02*
X148680323Y-109740895D01*
X148680323Y-109740895D02*
X148680323Y-109836133D01*
X148680323Y-109836133D02*
X148632704Y-109978990D01*
X148632704Y-109978990D02*
X148061276Y-110550419D01*
X148061276Y-110550419D02*
X148680323Y-110550419D01*
X134154942Y-50587380D02*
X134107323Y-50635000D01*
X134107323Y-50635000D02*
X133964466Y-50682619D01*
X133964466Y-50682619D02*
X133869228Y-50682619D01*
X133869228Y-50682619D02*
X133726371Y-50635000D01*
X133726371Y-50635000D02*
X133631133Y-50539761D01*
X133631133Y-50539761D02*
X133583514Y-50444523D01*
X133583514Y-50444523D02*
X133535895Y-50254047D01*
X133535895Y-50254047D02*
X133535895Y-50111190D01*
X133535895Y-50111190D02*
X133583514Y-49920714D01*
X133583514Y-49920714D02*
X133631133Y-49825476D01*
X133631133Y-49825476D02*
X133726371Y-49730238D01*
X133726371Y-49730238D02*
X133869228Y-49682619D01*
X133869228Y-49682619D02*
X133964466Y-49682619D01*
X133964466Y-49682619D02*
X134107323Y-49730238D01*
X134107323Y-49730238D02*
X134154942Y-49777857D01*
X135107323Y-50682619D02*
X134535895Y-50682619D01*
X134821609Y-50682619D02*
X134821609Y-49682619D01*
X134821609Y-49682619D02*
X134726371Y-49825476D01*
X134726371Y-49825476D02*
X134631133Y-49920714D01*
X134631133Y-49920714D02*
X134535895Y-49968333D01*
X135964466Y-50015952D02*
X135964466Y-50682619D01*
X135726371Y-49635000D02*
X135488276Y-50349285D01*
X135488276Y-50349285D02*
X136107323Y-50349285D01*
X70345467Y-161175800D02*
X70488324Y-161223419D01*
X70488324Y-161223419D02*
X70726419Y-161223419D01*
X70726419Y-161223419D02*
X70821657Y-161175800D01*
X70821657Y-161175800D02*
X70869276Y-161128180D01*
X70869276Y-161128180D02*
X70916895Y-161032942D01*
X70916895Y-161032942D02*
X70916895Y-160937704D01*
X70916895Y-160937704D02*
X70869276Y-160842466D01*
X70869276Y-160842466D02*
X70821657Y-160794847D01*
X70821657Y-160794847D02*
X70726419Y-160747228D01*
X70726419Y-160747228D02*
X70535943Y-160699609D01*
X70535943Y-160699609D02*
X70440705Y-160651990D01*
X70440705Y-160651990D02*
X70393086Y-160604371D01*
X70393086Y-160604371D02*
X70345467Y-160509133D01*
X70345467Y-160509133D02*
X70345467Y-160413895D01*
X70345467Y-160413895D02*
X70393086Y-160318657D01*
X70393086Y-160318657D02*
X70440705Y-160271038D01*
X70440705Y-160271038D02*
X70535943Y-160223419D01*
X70535943Y-160223419D02*
X70774038Y-160223419D01*
X70774038Y-160223419D02*
X70916895Y-160271038D01*
X71250229Y-160223419D02*
X71488324Y-161223419D01*
X71488324Y-161223419D02*
X71678800Y-160509133D01*
X71678800Y-160509133D02*
X71869276Y-161223419D01*
X71869276Y-161223419D02*
X72107372Y-160223419D01*
X73012133Y-161223419D02*
X72440705Y-161223419D01*
X72726419Y-161223419D02*
X72726419Y-160223419D01*
X72726419Y-160223419D02*
X72631181Y-160366276D01*
X72631181Y-160366276D02*
X72535943Y-160461514D01*
X72535943Y-160461514D02*
X72440705Y-160509133D01*
X147312142Y-176006219D02*
X146978809Y-175530028D01*
X146740714Y-176006219D02*
X146740714Y-175006219D01*
X146740714Y-175006219D02*
X147121666Y-175006219D01*
X147121666Y-175006219D02*
X147216904Y-175053838D01*
X147216904Y-175053838D02*
X147264523Y-175101457D01*
X147264523Y-175101457D02*
X147312142Y-175196695D01*
X147312142Y-175196695D02*
X147312142Y-175339552D01*
X147312142Y-175339552D02*
X147264523Y-175434790D01*
X147264523Y-175434790D02*
X147216904Y-175482409D01*
X147216904Y-175482409D02*
X147121666Y-175530028D01*
X147121666Y-175530028D02*
X146740714Y-175530028D01*
X147693095Y-175101457D02*
X147740714Y-175053838D01*
X147740714Y-175053838D02*
X147835952Y-175006219D01*
X147835952Y-175006219D02*
X148074047Y-175006219D01*
X148074047Y-175006219D02*
X148169285Y-175053838D01*
X148169285Y-175053838D02*
X148216904Y-175101457D01*
X148216904Y-175101457D02*
X148264523Y-175196695D01*
X148264523Y-175196695D02*
X148264523Y-175291933D01*
X148264523Y-175291933D02*
X148216904Y-175434790D01*
X148216904Y-175434790D02*
X147645476Y-176006219D01*
X147645476Y-176006219D02*
X148264523Y-176006219D01*
X148597857Y-175006219D02*
X149264523Y-175006219D01*
X149264523Y-175006219D02*
X148835952Y-176006219D01*
X118254542Y-168646580D02*
X118206923Y-168694200D01*
X118206923Y-168694200D02*
X118064066Y-168741819D01*
X118064066Y-168741819D02*
X117968828Y-168741819D01*
X117968828Y-168741819D02*
X117825971Y-168694200D01*
X117825971Y-168694200D02*
X117730733Y-168598961D01*
X117730733Y-168598961D02*
X117683114Y-168503723D01*
X117683114Y-168503723D02*
X117635495Y-168313247D01*
X117635495Y-168313247D02*
X117635495Y-168170390D01*
X117635495Y-168170390D02*
X117683114Y-167979914D01*
X117683114Y-167979914D02*
X117730733Y-167884676D01*
X117730733Y-167884676D02*
X117825971Y-167789438D01*
X117825971Y-167789438D02*
X117968828Y-167741819D01*
X117968828Y-167741819D02*
X118064066Y-167741819D01*
X118064066Y-167741819D02*
X118206923Y-167789438D01*
X118206923Y-167789438D02*
X118254542Y-167837057D01*
X118635495Y-167837057D02*
X118683114Y-167789438D01*
X118683114Y-167789438D02*
X118778352Y-167741819D01*
X118778352Y-167741819D02*
X119016447Y-167741819D01*
X119016447Y-167741819D02*
X119111685Y-167789438D01*
X119111685Y-167789438D02*
X119159304Y-167837057D01*
X119159304Y-167837057D02*
X119206923Y-167932295D01*
X119206923Y-167932295D02*
X119206923Y-168027533D01*
X119206923Y-168027533D02*
X119159304Y-168170390D01*
X119159304Y-168170390D02*
X118587876Y-168741819D01*
X118587876Y-168741819D02*
X119206923Y-168741819D01*
X120111685Y-167741819D02*
X119635495Y-167741819D01*
X119635495Y-167741819D02*
X119587876Y-168218009D01*
X119587876Y-168218009D02*
X119635495Y-168170390D01*
X119635495Y-168170390D02*
X119730733Y-168122771D01*
X119730733Y-168122771D02*
X119968828Y-168122771D01*
X119968828Y-168122771D02*
X120064066Y-168170390D01*
X120064066Y-168170390D02*
X120111685Y-168218009D01*
X120111685Y-168218009D02*
X120159304Y-168313247D01*
X120159304Y-168313247D02*
X120159304Y-168551342D01*
X120159304Y-168551342D02*
X120111685Y-168646580D01*
X120111685Y-168646580D02*
X120064066Y-168694200D01*
X120064066Y-168694200D02*
X119968828Y-168741819D01*
X119968828Y-168741819D02*
X119730733Y-168741819D01*
X119730733Y-168741819D02*
X119635495Y-168694200D01*
X119635495Y-168694200D02*
X119587876Y-168646580D01*
X127403266Y-184759819D02*
X127403266Y-185474104D01*
X127403266Y-185474104D02*
X127355647Y-185616961D01*
X127355647Y-185616961D02*
X127260409Y-185712200D01*
X127260409Y-185712200D02*
X127117552Y-185759819D01*
X127117552Y-185759819D02*
X127022314Y-185759819D01*
X127831838Y-184855057D02*
X127879457Y-184807438D01*
X127879457Y-184807438D02*
X127974695Y-184759819D01*
X127974695Y-184759819D02*
X128212790Y-184759819D01*
X128212790Y-184759819D02*
X128308028Y-184807438D01*
X128308028Y-184807438D02*
X128355647Y-184855057D01*
X128355647Y-184855057D02*
X128403266Y-184950295D01*
X128403266Y-184950295D02*
X128403266Y-185045533D01*
X128403266Y-185045533D02*
X128355647Y-185188390D01*
X128355647Y-185188390D02*
X127784219Y-185759819D01*
X127784219Y-185759819D02*
X128403266Y-185759819D01*
X105371995Y-84680519D02*
X105371995Y-83680519D01*
X105371995Y-84156709D02*
X105943423Y-84156709D01*
X105943423Y-84680519D02*
X105943423Y-83680519D01*
X106324376Y-83680519D02*
X106991042Y-83680519D01*
X106991042Y-83680519D02*
X106562471Y-84680519D01*
X117409933Y-154721019D02*
X116933743Y-154721019D01*
X116933743Y-154721019D02*
X116933743Y-153721019D01*
X117695648Y-153816257D02*
X117743267Y-153768638D01*
X117743267Y-153768638D02*
X117838505Y-153721019D01*
X117838505Y-153721019D02*
X118076600Y-153721019D01*
X118076600Y-153721019D02*
X118171838Y-153768638D01*
X118171838Y-153768638D02*
X118219457Y-153816257D01*
X118219457Y-153816257D02*
X118267076Y-153911495D01*
X118267076Y-153911495D02*
X118267076Y-154006733D01*
X118267076Y-154006733D02*
X118219457Y-154149590D01*
X118219457Y-154149590D02*
X117648029Y-154721019D01*
X117648029Y-154721019D02*
X118267076Y-154721019D01*
X131125933Y-149387019D02*
X130792600Y-148910828D01*
X130554505Y-149387019D02*
X130554505Y-148387019D01*
X130554505Y-148387019D02*
X130935457Y-148387019D01*
X130935457Y-148387019D02*
X131030695Y-148434638D01*
X131030695Y-148434638D02*
X131078314Y-148482257D01*
X131078314Y-148482257D02*
X131125933Y-148577495D01*
X131125933Y-148577495D02*
X131125933Y-148720352D01*
X131125933Y-148720352D02*
X131078314Y-148815590D01*
X131078314Y-148815590D02*
X131030695Y-148863209D01*
X131030695Y-148863209D02*
X130935457Y-148910828D01*
X130935457Y-148910828D02*
X130554505Y-148910828D01*
X132030695Y-148387019D02*
X131554505Y-148387019D01*
X131554505Y-148387019D02*
X131506886Y-148863209D01*
X131506886Y-148863209D02*
X131554505Y-148815590D01*
X131554505Y-148815590D02*
X131649743Y-148767971D01*
X131649743Y-148767971D02*
X131887838Y-148767971D01*
X131887838Y-148767971D02*
X131983076Y-148815590D01*
X131983076Y-148815590D02*
X132030695Y-148863209D01*
X132030695Y-148863209D02*
X132078314Y-148958447D01*
X132078314Y-148958447D02*
X132078314Y-149196542D01*
X132078314Y-149196542D02*
X132030695Y-149291780D01*
X132030695Y-149291780D02*
X131983076Y-149339400D01*
X131983076Y-149339400D02*
X131887838Y-149387019D01*
X131887838Y-149387019D02*
X131649743Y-149387019D01*
X131649743Y-149387019D02*
X131554505Y-149339400D01*
X131554505Y-149339400D02*
X131506886Y-149291780D01*
X78245619Y-163943504D02*
X79055142Y-163943504D01*
X79055142Y-163943504D02*
X79150380Y-163895885D01*
X79150380Y-163895885D02*
X79198000Y-163848266D01*
X79198000Y-163848266D02*
X79245619Y-163753028D01*
X79245619Y-163753028D02*
X79245619Y-163562552D01*
X79245619Y-163562552D02*
X79198000Y-163467314D01*
X79198000Y-163467314D02*
X79150380Y-163419695D01*
X79150380Y-163419695D02*
X79055142Y-163372076D01*
X79055142Y-163372076D02*
X78245619Y-163372076D01*
X78245619Y-162419695D02*
X78245619Y-162895885D01*
X78245619Y-162895885D02*
X78721809Y-162943504D01*
X78721809Y-162943504D02*
X78674190Y-162895885D01*
X78674190Y-162895885D02*
X78626571Y-162800647D01*
X78626571Y-162800647D02*
X78626571Y-162562552D01*
X78626571Y-162562552D02*
X78674190Y-162467314D01*
X78674190Y-162467314D02*
X78721809Y-162419695D01*
X78721809Y-162419695D02*
X78817047Y-162372076D01*
X78817047Y-162372076D02*
X79055142Y-162372076D01*
X79055142Y-162372076D02*
X79150380Y-162419695D01*
X79150380Y-162419695D02*
X79198000Y-162467314D01*
X79198000Y-162467314D02*
X79245619Y-162562552D01*
X79245619Y-162562552D02*
X79245619Y-162800647D01*
X79245619Y-162800647D02*
X79198000Y-162895885D01*
X79198000Y-162895885D02*
X79150380Y-162943504D01*
X90365342Y-114442980D02*
X90317723Y-114490600D01*
X90317723Y-114490600D02*
X90174866Y-114538219D01*
X90174866Y-114538219D02*
X90079628Y-114538219D01*
X90079628Y-114538219D02*
X89936771Y-114490600D01*
X89936771Y-114490600D02*
X89841533Y-114395361D01*
X89841533Y-114395361D02*
X89793914Y-114300123D01*
X89793914Y-114300123D02*
X89746295Y-114109647D01*
X89746295Y-114109647D02*
X89746295Y-113966790D01*
X89746295Y-113966790D02*
X89793914Y-113776314D01*
X89793914Y-113776314D02*
X89841533Y-113681076D01*
X89841533Y-113681076D02*
X89936771Y-113585838D01*
X89936771Y-113585838D02*
X90079628Y-113538219D01*
X90079628Y-113538219D02*
X90174866Y-113538219D01*
X90174866Y-113538219D02*
X90317723Y-113585838D01*
X90317723Y-113585838D02*
X90365342Y-113633457D01*
X91317723Y-114538219D02*
X90746295Y-114538219D01*
X91032009Y-114538219D02*
X91032009Y-113538219D01*
X91032009Y-113538219D02*
X90936771Y-113681076D01*
X90936771Y-113681076D02*
X90841533Y-113776314D01*
X90841533Y-113776314D02*
X90746295Y-113823933D01*
X91793914Y-114538219D02*
X91984390Y-114538219D01*
X91984390Y-114538219D02*
X92079628Y-114490600D01*
X92079628Y-114490600D02*
X92127247Y-114442980D01*
X92127247Y-114442980D02*
X92222485Y-114300123D01*
X92222485Y-114300123D02*
X92270104Y-114109647D01*
X92270104Y-114109647D02*
X92270104Y-113728695D01*
X92270104Y-113728695D02*
X92222485Y-113633457D01*
X92222485Y-113633457D02*
X92174866Y-113585838D01*
X92174866Y-113585838D02*
X92079628Y-113538219D01*
X92079628Y-113538219D02*
X91889152Y-113538219D01*
X91889152Y-113538219D02*
X91793914Y-113585838D01*
X91793914Y-113585838D02*
X91746295Y-113633457D01*
X91746295Y-113633457D02*
X91698676Y-113728695D01*
X91698676Y-113728695D02*
X91698676Y-113966790D01*
X91698676Y-113966790D02*
X91746295Y-114062028D01*
X91746295Y-114062028D02*
X91793914Y-114109647D01*
X91793914Y-114109647D02*
X91889152Y-114157266D01*
X91889152Y-114157266D02*
X92079628Y-114157266D01*
X92079628Y-114157266D02*
X92174866Y-114109647D01*
X92174866Y-114109647D02*
X92222485Y-114062028D01*
X92222485Y-114062028D02*
X92270104Y-113966790D01*
X71450295Y-53857619D02*
X71450295Y-52857619D01*
X71450295Y-53333809D02*
X72021723Y-53333809D01*
X72021723Y-53857619D02*
X72021723Y-52857619D01*
X72926485Y-53190952D02*
X72926485Y-53857619D01*
X72688390Y-52810000D02*
X72450295Y-53524285D01*
X72450295Y-53524285D02*
X73069342Y-53524285D01*
X153286619Y-95879457D02*
X152810428Y-96212790D01*
X153286619Y-96450885D02*
X152286619Y-96450885D01*
X152286619Y-96450885D02*
X152286619Y-96069933D01*
X152286619Y-96069933D02*
X152334238Y-95974695D01*
X152334238Y-95974695D02*
X152381857Y-95927076D01*
X152381857Y-95927076D02*
X152477095Y-95879457D01*
X152477095Y-95879457D02*
X152619952Y-95879457D01*
X152619952Y-95879457D02*
X152715190Y-95927076D01*
X152715190Y-95927076D02*
X152762809Y-95974695D01*
X152762809Y-95974695D02*
X152810428Y-96069933D01*
X152810428Y-96069933D02*
X152810428Y-96450885D01*
X153286619Y-94927076D02*
X153286619Y-95498504D01*
X153286619Y-95212790D02*
X152286619Y-95212790D01*
X152286619Y-95212790D02*
X152429476Y-95308028D01*
X152429476Y-95308028D02*
X152524714Y-95403266D01*
X152524714Y-95403266D02*
X152572333Y-95498504D01*
X152715190Y-94355647D02*
X152667571Y-94450885D01*
X152667571Y-94450885D02*
X152619952Y-94498504D01*
X152619952Y-94498504D02*
X152524714Y-94546123D01*
X152524714Y-94546123D02*
X152477095Y-94546123D01*
X152477095Y-94546123D02*
X152381857Y-94498504D01*
X152381857Y-94498504D02*
X152334238Y-94450885D01*
X152334238Y-94450885D02*
X152286619Y-94355647D01*
X152286619Y-94355647D02*
X152286619Y-94165171D01*
X152286619Y-94165171D02*
X152334238Y-94069933D01*
X152334238Y-94069933D02*
X152381857Y-94022314D01*
X152381857Y-94022314D02*
X152477095Y-93974695D01*
X152477095Y-93974695D02*
X152524714Y-93974695D01*
X152524714Y-93974695D02*
X152619952Y-94022314D01*
X152619952Y-94022314D02*
X152667571Y-94069933D01*
X152667571Y-94069933D02*
X152715190Y-94165171D01*
X152715190Y-94165171D02*
X152715190Y-94355647D01*
X152715190Y-94355647D02*
X152762809Y-94450885D01*
X152762809Y-94450885D02*
X152810428Y-94498504D01*
X152810428Y-94498504D02*
X152905666Y-94546123D01*
X152905666Y-94546123D02*
X153096142Y-94546123D01*
X153096142Y-94546123D02*
X153191380Y-94498504D01*
X153191380Y-94498504D02*
X153239000Y-94450885D01*
X153239000Y-94450885D02*
X153286619Y-94355647D01*
X153286619Y-94355647D02*
X153286619Y-94165171D01*
X153286619Y-94165171D02*
X153239000Y-94069933D01*
X153239000Y-94069933D02*
X153191380Y-94022314D01*
X153191380Y-94022314D02*
X153096142Y-93974695D01*
X153096142Y-93974695D02*
X152905666Y-93974695D01*
X152905666Y-93974695D02*
X152810428Y-94022314D01*
X152810428Y-94022314D02*
X152762809Y-94069933D01*
X152762809Y-94069933D02*
X152715190Y-94165171D01*
X88276133Y-137093419D02*
X87942800Y-136617228D01*
X87704705Y-137093419D02*
X87704705Y-136093419D01*
X87704705Y-136093419D02*
X88085657Y-136093419D01*
X88085657Y-136093419D02*
X88180895Y-136141038D01*
X88180895Y-136141038D02*
X88228514Y-136188657D01*
X88228514Y-136188657D02*
X88276133Y-136283895D01*
X88276133Y-136283895D02*
X88276133Y-136426752D01*
X88276133Y-136426752D02*
X88228514Y-136521990D01*
X88228514Y-136521990D02*
X88180895Y-136569609D01*
X88180895Y-136569609D02*
X88085657Y-136617228D01*
X88085657Y-136617228D02*
X87704705Y-136617228D01*
X89228514Y-137093419D02*
X88657086Y-137093419D01*
X88942800Y-137093419D02*
X88942800Y-136093419D01*
X88942800Y-136093419D02*
X88847562Y-136236276D01*
X88847562Y-136236276D02*
X88752324Y-136331514D01*
X88752324Y-136331514D02*
X88657086Y-136379133D01*
X153085895Y-180400419D02*
X153085895Y-179400419D01*
X153085895Y-179876609D02*
X153657323Y-179876609D01*
X153657323Y-180400419D02*
X153657323Y-179400419D01*
X154657323Y-180400419D02*
X154085895Y-180400419D01*
X154371609Y-180400419D02*
X154371609Y-179400419D01*
X154371609Y-179400419D02*
X154276371Y-179543276D01*
X154276371Y-179543276D02*
X154181133Y-179638514D01*
X154181133Y-179638514D02*
X154085895Y-179686133D01*
X141673342Y-148828219D02*
X141340009Y-148352028D01*
X141101914Y-148828219D02*
X141101914Y-147828219D01*
X141101914Y-147828219D02*
X141482866Y-147828219D01*
X141482866Y-147828219D02*
X141578104Y-147875838D01*
X141578104Y-147875838D02*
X141625723Y-147923457D01*
X141625723Y-147923457D02*
X141673342Y-148018695D01*
X141673342Y-148018695D02*
X141673342Y-148161552D01*
X141673342Y-148161552D02*
X141625723Y-148256790D01*
X141625723Y-148256790D02*
X141578104Y-148304409D01*
X141578104Y-148304409D02*
X141482866Y-148352028D01*
X141482866Y-148352028D02*
X141101914Y-148352028D01*
X142054295Y-147923457D02*
X142101914Y-147875838D01*
X142101914Y-147875838D02*
X142197152Y-147828219D01*
X142197152Y-147828219D02*
X142435247Y-147828219D01*
X142435247Y-147828219D02*
X142530485Y-147875838D01*
X142530485Y-147875838D02*
X142578104Y-147923457D01*
X142578104Y-147923457D02*
X142625723Y-148018695D01*
X142625723Y-148018695D02*
X142625723Y-148113933D01*
X142625723Y-148113933D02*
X142578104Y-148256790D01*
X142578104Y-148256790D02*
X142006676Y-148828219D01*
X142006676Y-148828219D02*
X142625723Y-148828219D01*
X143482866Y-147828219D02*
X143292390Y-147828219D01*
X143292390Y-147828219D02*
X143197152Y-147875838D01*
X143197152Y-147875838D02*
X143149533Y-147923457D01*
X143149533Y-147923457D02*
X143054295Y-148066314D01*
X143054295Y-148066314D02*
X143006676Y-148256790D01*
X143006676Y-148256790D02*
X143006676Y-148637742D01*
X143006676Y-148637742D02*
X143054295Y-148732980D01*
X143054295Y-148732980D02*
X143101914Y-148780600D01*
X143101914Y-148780600D02*
X143197152Y-148828219D01*
X143197152Y-148828219D02*
X143387628Y-148828219D01*
X143387628Y-148828219D02*
X143482866Y-148780600D01*
X143482866Y-148780600D02*
X143530485Y-148732980D01*
X143530485Y-148732980D02*
X143578104Y-148637742D01*
X143578104Y-148637742D02*
X143578104Y-148399647D01*
X143578104Y-148399647D02*
X143530485Y-148304409D01*
X143530485Y-148304409D02*
X143482866Y-148256790D01*
X143482866Y-148256790D02*
X143387628Y-148209171D01*
X143387628Y-148209171D02*
X143197152Y-148209171D01*
X143197152Y-148209171D02*
X143101914Y-148256790D01*
X143101914Y-148256790D02*
X143054295Y-148304409D01*
X143054295Y-148304409D02*
X143006676Y-148399647D01*
X132853133Y-170678580D02*
X132805514Y-170726200D01*
X132805514Y-170726200D02*
X132662657Y-170773819D01*
X132662657Y-170773819D02*
X132567419Y-170773819D01*
X132567419Y-170773819D02*
X132424562Y-170726200D01*
X132424562Y-170726200D02*
X132329324Y-170630961D01*
X132329324Y-170630961D02*
X132281705Y-170535723D01*
X132281705Y-170535723D02*
X132234086Y-170345247D01*
X132234086Y-170345247D02*
X132234086Y-170202390D01*
X132234086Y-170202390D02*
X132281705Y-170011914D01*
X132281705Y-170011914D02*
X132329324Y-169916676D01*
X132329324Y-169916676D02*
X132424562Y-169821438D01*
X132424562Y-169821438D02*
X132567419Y-169773819D01*
X132567419Y-169773819D02*
X132662657Y-169773819D01*
X132662657Y-169773819D02*
X132805514Y-169821438D01*
X132805514Y-169821438D02*
X132853133Y-169869057D01*
X133710276Y-169773819D02*
X133519800Y-169773819D01*
X133519800Y-169773819D02*
X133424562Y-169821438D01*
X133424562Y-169821438D02*
X133376943Y-169869057D01*
X133376943Y-169869057D02*
X133281705Y-170011914D01*
X133281705Y-170011914D02*
X133234086Y-170202390D01*
X133234086Y-170202390D02*
X133234086Y-170583342D01*
X133234086Y-170583342D02*
X133281705Y-170678580D01*
X133281705Y-170678580D02*
X133329324Y-170726200D01*
X133329324Y-170726200D02*
X133424562Y-170773819D01*
X133424562Y-170773819D02*
X133615038Y-170773819D01*
X133615038Y-170773819D02*
X133710276Y-170726200D01*
X133710276Y-170726200D02*
X133757895Y-170678580D01*
X133757895Y-170678580D02*
X133805514Y-170583342D01*
X133805514Y-170583342D02*
X133805514Y-170345247D01*
X133805514Y-170345247D02*
X133757895Y-170250009D01*
X133757895Y-170250009D02*
X133710276Y-170202390D01*
X133710276Y-170202390D02*
X133615038Y-170154771D01*
X133615038Y-170154771D02*
X133424562Y-170154771D01*
X133424562Y-170154771D02*
X133329324Y-170202390D01*
X133329324Y-170202390D02*
X133281705Y-170250009D01*
X133281705Y-170250009D02*
X133234086Y-170345247D01*
X88382733Y-134761619D02*
X88049400Y-134285428D01*
X87811305Y-134761619D02*
X87811305Y-133761619D01*
X87811305Y-133761619D02*
X88192257Y-133761619D01*
X88192257Y-133761619D02*
X88287495Y-133809238D01*
X88287495Y-133809238D02*
X88335114Y-133856857D01*
X88335114Y-133856857D02*
X88382733Y-133952095D01*
X88382733Y-133952095D02*
X88382733Y-134094952D01*
X88382733Y-134094952D02*
X88335114Y-134190190D01*
X88335114Y-134190190D02*
X88287495Y-134237809D01*
X88287495Y-134237809D02*
X88192257Y-134285428D01*
X88192257Y-134285428D02*
X87811305Y-134285428D01*
X88763686Y-133856857D02*
X88811305Y-133809238D01*
X88811305Y-133809238D02*
X88906543Y-133761619D01*
X88906543Y-133761619D02*
X89144638Y-133761619D01*
X89144638Y-133761619D02*
X89239876Y-133809238D01*
X89239876Y-133809238D02*
X89287495Y-133856857D01*
X89287495Y-133856857D02*
X89335114Y-133952095D01*
X89335114Y-133952095D02*
X89335114Y-134047333D01*
X89335114Y-134047333D02*
X89287495Y-134190190D01*
X89287495Y-134190190D02*
X88716067Y-134761619D01*
X88716067Y-134761619D02*
X89335114Y-134761619D01*
X69837467Y-132169000D02*
X69980324Y-132216619D01*
X69980324Y-132216619D02*
X70218419Y-132216619D01*
X70218419Y-132216619D02*
X70313657Y-132169000D01*
X70313657Y-132169000D02*
X70361276Y-132121380D01*
X70361276Y-132121380D02*
X70408895Y-132026142D01*
X70408895Y-132026142D02*
X70408895Y-131930904D01*
X70408895Y-131930904D02*
X70361276Y-131835666D01*
X70361276Y-131835666D02*
X70313657Y-131788047D01*
X70313657Y-131788047D02*
X70218419Y-131740428D01*
X70218419Y-131740428D02*
X70027943Y-131692809D01*
X70027943Y-131692809D02*
X69932705Y-131645190D01*
X69932705Y-131645190D02*
X69885086Y-131597571D01*
X69885086Y-131597571D02*
X69837467Y-131502333D01*
X69837467Y-131502333D02*
X69837467Y-131407095D01*
X69837467Y-131407095D02*
X69885086Y-131311857D01*
X69885086Y-131311857D02*
X69932705Y-131264238D01*
X69932705Y-131264238D02*
X70027943Y-131216619D01*
X70027943Y-131216619D02*
X70266038Y-131216619D01*
X70266038Y-131216619D02*
X70408895Y-131264238D01*
X70742229Y-131216619D02*
X70980324Y-132216619D01*
X70980324Y-132216619D02*
X71170800Y-131502333D01*
X71170800Y-131502333D02*
X71361276Y-132216619D01*
X71361276Y-132216619D02*
X71599372Y-131216619D01*
X71885086Y-131216619D02*
X72504133Y-131216619D01*
X72504133Y-131216619D02*
X72170800Y-131597571D01*
X72170800Y-131597571D02*
X72313657Y-131597571D01*
X72313657Y-131597571D02*
X72408895Y-131645190D01*
X72408895Y-131645190D02*
X72456514Y-131692809D01*
X72456514Y-131692809D02*
X72504133Y-131788047D01*
X72504133Y-131788047D02*
X72504133Y-132026142D01*
X72504133Y-132026142D02*
X72456514Y-132121380D01*
X72456514Y-132121380D02*
X72408895Y-132169000D01*
X72408895Y-132169000D02*
X72313657Y-132216619D01*
X72313657Y-132216619D02*
X72027943Y-132216619D01*
X72027943Y-132216619D02*
X71932705Y-132169000D01*
X71932705Y-132169000D02*
X71885086Y-132121380D01*
X106214942Y-50587380D02*
X106167323Y-50635000D01*
X106167323Y-50635000D02*
X106024466Y-50682619D01*
X106024466Y-50682619D02*
X105929228Y-50682619D01*
X105929228Y-50682619D02*
X105786371Y-50635000D01*
X105786371Y-50635000D02*
X105691133Y-50539761D01*
X105691133Y-50539761D02*
X105643514Y-50444523D01*
X105643514Y-50444523D02*
X105595895Y-50254047D01*
X105595895Y-50254047D02*
X105595895Y-50111190D01*
X105595895Y-50111190D02*
X105643514Y-49920714D01*
X105643514Y-49920714D02*
X105691133Y-49825476D01*
X105691133Y-49825476D02*
X105786371Y-49730238D01*
X105786371Y-49730238D02*
X105929228Y-49682619D01*
X105929228Y-49682619D02*
X106024466Y-49682619D01*
X106024466Y-49682619D02*
X106167323Y-49730238D01*
X106167323Y-49730238D02*
X106214942Y-49777857D01*
X107167323Y-50682619D02*
X106595895Y-50682619D01*
X106881609Y-50682619D02*
X106881609Y-49682619D01*
X106881609Y-49682619D02*
X106786371Y-49825476D01*
X106786371Y-49825476D02*
X106691133Y-49920714D01*
X106691133Y-49920714D02*
X106595895Y-49968333D01*
X107548276Y-49777857D02*
X107595895Y-49730238D01*
X107595895Y-49730238D02*
X107691133Y-49682619D01*
X107691133Y-49682619D02*
X107929228Y-49682619D01*
X107929228Y-49682619D02*
X108024466Y-49730238D01*
X108024466Y-49730238D02*
X108072085Y-49777857D01*
X108072085Y-49777857D02*
X108119704Y-49873095D01*
X108119704Y-49873095D02*
X108119704Y-49968333D01*
X108119704Y-49968333D02*
X108072085Y-50111190D01*
X108072085Y-50111190D02*
X107500657Y-50682619D01*
X107500657Y-50682619D02*
X108119704Y-50682619D01*
X82084942Y-131759419D02*
X81751609Y-131283228D01*
X81513514Y-131759419D02*
X81513514Y-130759419D01*
X81513514Y-130759419D02*
X81894466Y-130759419D01*
X81894466Y-130759419D02*
X81989704Y-130807038D01*
X81989704Y-130807038D02*
X82037323Y-130854657D01*
X82037323Y-130854657D02*
X82084942Y-130949895D01*
X82084942Y-130949895D02*
X82084942Y-131092752D01*
X82084942Y-131092752D02*
X82037323Y-131187990D01*
X82037323Y-131187990D02*
X81989704Y-131235609D01*
X81989704Y-131235609D02*
X81894466Y-131283228D01*
X81894466Y-131283228D02*
X81513514Y-131283228D01*
X83037323Y-131759419D02*
X82465895Y-131759419D01*
X82751609Y-131759419D02*
X82751609Y-130759419D01*
X82751609Y-130759419D02*
X82656371Y-130902276D01*
X82656371Y-130902276D02*
X82561133Y-130997514D01*
X82561133Y-130997514D02*
X82465895Y-131045133D01*
X83942085Y-130759419D02*
X83465895Y-130759419D01*
X83465895Y-130759419D02*
X83418276Y-131235609D01*
X83418276Y-131235609D02*
X83465895Y-131187990D01*
X83465895Y-131187990D02*
X83561133Y-131140371D01*
X83561133Y-131140371D02*
X83799228Y-131140371D01*
X83799228Y-131140371D02*
X83894466Y-131187990D01*
X83894466Y-131187990D02*
X83942085Y-131235609D01*
X83942085Y-131235609D02*
X83989704Y-131330847D01*
X83989704Y-131330847D02*
X83989704Y-131568942D01*
X83989704Y-131568942D02*
X83942085Y-131664180D01*
X83942085Y-131664180D02*
X83894466Y-131711800D01*
X83894466Y-131711800D02*
X83799228Y-131759419D01*
X83799228Y-131759419D02*
X83561133Y-131759419D01*
X83561133Y-131759419D02*
X83465895Y-131711800D01*
X83465895Y-131711800D02*
X83418276Y-131664180D01*
X78515380Y-159252457D02*
X78563000Y-159300076D01*
X78563000Y-159300076D02*
X78610619Y-159442933D01*
X78610619Y-159442933D02*
X78610619Y-159538171D01*
X78610619Y-159538171D02*
X78563000Y-159681028D01*
X78563000Y-159681028D02*
X78467761Y-159776266D01*
X78467761Y-159776266D02*
X78372523Y-159823885D01*
X78372523Y-159823885D02*
X78182047Y-159871504D01*
X78182047Y-159871504D02*
X78039190Y-159871504D01*
X78039190Y-159871504D02*
X77848714Y-159823885D01*
X77848714Y-159823885D02*
X77753476Y-159776266D01*
X77753476Y-159776266D02*
X77658238Y-159681028D01*
X77658238Y-159681028D02*
X77610619Y-159538171D01*
X77610619Y-159538171D02*
X77610619Y-159442933D01*
X77610619Y-159442933D02*
X77658238Y-159300076D01*
X77658238Y-159300076D02*
X77705857Y-159252457D01*
X78610619Y-158300076D02*
X78610619Y-158871504D01*
X78610619Y-158585790D02*
X77610619Y-158585790D01*
X77610619Y-158585790D02*
X77753476Y-158681028D01*
X77753476Y-158681028D02*
X77848714Y-158776266D01*
X77848714Y-158776266D02*
X77896333Y-158871504D01*
X78610619Y-157347695D02*
X78610619Y-157919123D01*
X78610619Y-157633409D02*
X77610619Y-157633409D01*
X77610619Y-157633409D02*
X77753476Y-157728647D01*
X77753476Y-157728647D02*
X77848714Y-157823885D01*
X77848714Y-157823885D02*
X77896333Y-157919123D01*
X131304229Y-82143380D02*
X131256610Y-82191000D01*
X131256610Y-82191000D02*
X131113753Y-82238619D01*
X131113753Y-82238619D02*
X131018515Y-82238619D01*
X131018515Y-82238619D02*
X130875658Y-82191000D01*
X130875658Y-82191000D02*
X130780420Y-82095761D01*
X130780420Y-82095761D02*
X130732801Y-82000523D01*
X130732801Y-82000523D02*
X130685182Y-81810047D01*
X130685182Y-81810047D02*
X130685182Y-81667190D01*
X130685182Y-81667190D02*
X130732801Y-81476714D01*
X130732801Y-81476714D02*
X130780420Y-81381476D01*
X130780420Y-81381476D02*
X130875658Y-81286238D01*
X130875658Y-81286238D02*
X131018515Y-81238619D01*
X131018515Y-81238619D02*
X131113753Y-81238619D01*
X131113753Y-81238619D02*
X131256610Y-81286238D01*
X131256610Y-81286238D02*
X131304229Y-81333857D01*
X131637563Y-81238619D02*
X132256610Y-81238619D01*
X132256610Y-81238619D02*
X131923277Y-81619571D01*
X131923277Y-81619571D02*
X132066134Y-81619571D01*
X132066134Y-81619571D02*
X132161372Y-81667190D01*
X132161372Y-81667190D02*
X132208991Y-81714809D01*
X132208991Y-81714809D02*
X132256610Y-81810047D01*
X132256610Y-81810047D02*
X132256610Y-82048142D01*
X132256610Y-82048142D02*
X132208991Y-82143380D01*
X132208991Y-82143380D02*
X132161372Y-82191000D01*
X132161372Y-82191000D02*
X132066134Y-82238619D01*
X132066134Y-82238619D02*
X131780420Y-82238619D01*
X131780420Y-82238619D02*
X131685182Y-82191000D01*
X131685182Y-82191000D02*
X131637563Y-82143380D01*
X132875658Y-81238619D02*
X132970896Y-81238619D01*
X132970896Y-81238619D02*
X133066134Y-81286238D01*
X133066134Y-81286238D02*
X133113753Y-81333857D01*
X133113753Y-81333857D02*
X133161372Y-81429095D01*
X133161372Y-81429095D02*
X133208991Y-81619571D01*
X133208991Y-81619571D02*
X133208991Y-81857666D01*
X133208991Y-81857666D02*
X133161372Y-82048142D01*
X133161372Y-82048142D02*
X133113753Y-82143380D01*
X133113753Y-82143380D02*
X133066134Y-82191000D01*
X133066134Y-82191000D02*
X132970896Y-82238619D01*
X132970896Y-82238619D02*
X132875658Y-82238619D01*
X132875658Y-82238619D02*
X132780420Y-82191000D01*
X132780420Y-82191000D02*
X132732801Y-82143380D01*
X132732801Y-82143380D02*
X132685182Y-82048142D01*
X132685182Y-82048142D02*
X132637563Y-81857666D01*
X132637563Y-81857666D02*
X132637563Y-81619571D01*
X132637563Y-81619571D02*
X132685182Y-81429095D01*
X132685182Y-81429095D02*
X132732801Y-81333857D01*
X132732801Y-81333857D02*
X132780420Y-81286238D01*
X132780420Y-81286238D02*
X132875658Y-81238619D01*
X89665276Y-144221419D02*
X89665276Y-144935704D01*
X89665276Y-144935704D02*
X89617657Y-145078561D01*
X89617657Y-145078561D02*
X89522419Y-145173800D01*
X89522419Y-145173800D02*
X89379562Y-145221419D01*
X89379562Y-145221419D02*
X89284324Y-145221419D01*
X90665276Y-145221419D02*
X90093848Y-145221419D01*
X90379562Y-145221419D02*
X90379562Y-144221419D01*
X90379562Y-144221419D02*
X90284324Y-144364276D01*
X90284324Y-144364276D02*
X90189086Y-144459514D01*
X90189086Y-144459514D02*
X90093848Y-144507133D01*
X91284324Y-144221419D02*
X91379562Y-144221419D01*
X91379562Y-144221419D02*
X91474800Y-144269038D01*
X91474800Y-144269038D02*
X91522419Y-144316657D01*
X91522419Y-144316657D02*
X91570038Y-144411895D01*
X91570038Y-144411895D02*
X91617657Y-144602371D01*
X91617657Y-144602371D02*
X91617657Y-144840466D01*
X91617657Y-144840466D02*
X91570038Y-145030942D01*
X91570038Y-145030942D02*
X91522419Y-145126180D01*
X91522419Y-145126180D02*
X91474800Y-145173800D01*
X91474800Y-145173800D02*
X91379562Y-145221419D01*
X91379562Y-145221419D02*
X91284324Y-145221419D01*
X91284324Y-145221419D02*
X91189086Y-145173800D01*
X91189086Y-145173800D02*
X91141467Y-145126180D01*
X91141467Y-145126180D02*
X91093848Y-145030942D01*
X91093848Y-145030942D02*
X91046229Y-144840466D01*
X91046229Y-144840466D02*
X91046229Y-144602371D01*
X91046229Y-144602371D02*
X91093848Y-144411895D01*
X91093848Y-144411895D02*
X91141467Y-144316657D01*
X91141467Y-144316657D02*
X91189086Y-144269038D01*
X91189086Y-144269038D02*
X91284324Y-144221419D01*
X134967742Y-166557419D02*
X134634409Y-166081228D01*
X134396314Y-166557419D02*
X134396314Y-165557419D01*
X134396314Y-165557419D02*
X134777266Y-165557419D01*
X134777266Y-165557419D02*
X134872504Y-165605038D01*
X134872504Y-165605038D02*
X134920123Y-165652657D01*
X134920123Y-165652657D02*
X134967742Y-165747895D01*
X134967742Y-165747895D02*
X134967742Y-165890752D01*
X134967742Y-165890752D02*
X134920123Y-165985990D01*
X134920123Y-165985990D02*
X134872504Y-166033609D01*
X134872504Y-166033609D02*
X134777266Y-166081228D01*
X134777266Y-166081228D02*
X134396314Y-166081228D01*
X135348695Y-165652657D02*
X135396314Y-165605038D01*
X135396314Y-165605038D02*
X135491552Y-165557419D01*
X135491552Y-165557419D02*
X135729647Y-165557419D01*
X135729647Y-165557419D02*
X135824885Y-165605038D01*
X135824885Y-165605038D02*
X135872504Y-165652657D01*
X135872504Y-165652657D02*
X135920123Y-165747895D01*
X135920123Y-165747895D02*
X135920123Y-165843133D01*
X135920123Y-165843133D02*
X135872504Y-165985990D01*
X135872504Y-165985990D02*
X135301076Y-166557419D01*
X135301076Y-166557419D02*
X135920123Y-166557419D01*
X136824885Y-165557419D02*
X136348695Y-165557419D01*
X136348695Y-165557419D02*
X136301076Y-166033609D01*
X136301076Y-166033609D02*
X136348695Y-165985990D01*
X136348695Y-165985990D02*
X136443933Y-165938371D01*
X136443933Y-165938371D02*
X136682028Y-165938371D01*
X136682028Y-165938371D02*
X136777266Y-165985990D01*
X136777266Y-165985990D02*
X136824885Y-166033609D01*
X136824885Y-166033609D02*
X136872504Y-166128847D01*
X136872504Y-166128847D02*
X136872504Y-166366942D01*
X136872504Y-166366942D02*
X136824885Y-166462180D01*
X136824885Y-166462180D02*
X136777266Y-166509800D01*
X136777266Y-166509800D02*
X136682028Y-166557419D01*
X136682028Y-166557419D02*
X136443933Y-166557419D01*
X136443933Y-166557419D02*
X136348695Y-166509800D01*
X136348695Y-166509800D02*
X136301076Y-166462180D01*
X153089780Y-105633057D02*
X153137400Y-105680676D01*
X153137400Y-105680676D02*
X153185019Y-105823533D01*
X153185019Y-105823533D02*
X153185019Y-105918771D01*
X153185019Y-105918771D02*
X153137400Y-106061628D01*
X153137400Y-106061628D02*
X153042161Y-106156866D01*
X153042161Y-106156866D02*
X152946923Y-106204485D01*
X152946923Y-106204485D02*
X152756447Y-106252104D01*
X152756447Y-106252104D02*
X152613590Y-106252104D01*
X152613590Y-106252104D02*
X152423114Y-106204485D01*
X152423114Y-106204485D02*
X152327876Y-106156866D01*
X152327876Y-106156866D02*
X152232638Y-106061628D01*
X152232638Y-106061628D02*
X152185019Y-105918771D01*
X152185019Y-105918771D02*
X152185019Y-105823533D01*
X152185019Y-105823533D02*
X152232638Y-105680676D01*
X152232638Y-105680676D02*
X152280257Y-105633057D01*
X152280257Y-105252104D02*
X152232638Y-105204485D01*
X152232638Y-105204485D02*
X152185019Y-105109247D01*
X152185019Y-105109247D02*
X152185019Y-104871152D01*
X152185019Y-104871152D02*
X152232638Y-104775914D01*
X152232638Y-104775914D02*
X152280257Y-104728295D01*
X152280257Y-104728295D02*
X152375495Y-104680676D01*
X152375495Y-104680676D02*
X152470733Y-104680676D01*
X152470733Y-104680676D02*
X152613590Y-104728295D01*
X152613590Y-104728295D02*
X153185019Y-105299723D01*
X153185019Y-105299723D02*
X153185019Y-104680676D01*
X153185019Y-103728295D02*
X153185019Y-104299723D01*
X153185019Y-104014009D02*
X152185019Y-104014009D01*
X152185019Y-104014009D02*
X152327876Y-104109247D01*
X152327876Y-104109247D02*
X152423114Y-104204485D01*
X152423114Y-104204485D02*
X152470733Y-104299723D01*
X139729380Y-131642657D02*
X139777000Y-131690276D01*
X139777000Y-131690276D02*
X139824619Y-131833133D01*
X139824619Y-131833133D02*
X139824619Y-131928371D01*
X139824619Y-131928371D02*
X139777000Y-132071228D01*
X139777000Y-132071228D02*
X139681761Y-132166466D01*
X139681761Y-132166466D02*
X139586523Y-132214085D01*
X139586523Y-132214085D02*
X139396047Y-132261704D01*
X139396047Y-132261704D02*
X139253190Y-132261704D01*
X139253190Y-132261704D02*
X139062714Y-132214085D01*
X139062714Y-132214085D02*
X138967476Y-132166466D01*
X138967476Y-132166466D02*
X138872238Y-132071228D01*
X138872238Y-132071228D02*
X138824619Y-131928371D01*
X138824619Y-131928371D02*
X138824619Y-131833133D01*
X138824619Y-131833133D02*
X138872238Y-131690276D01*
X138872238Y-131690276D02*
X138919857Y-131642657D01*
X138919857Y-131261704D02*
X138872238Y-131214085D01*
X138872238Y-131214085D02*
X138824619Y-131118847D01*
X138824619Y-131118847D02*
X138824619Y-130880752D01*
X138824619Y-130880752D02*
X138872238Y-130785514D01*
X138872238Y-130785514D02*
X138919857Y-130737895D01*
X138919857Y-130737895D02*
X139015095Y-130690276D01*
X139015095Y-130690276D02*
X139110333Y-130690276D01*
X139110333Y-130690276D02*
X139253190Y-130737895D01*
X139253190Y-130737895D02*
X139824619Y-131309323D01*
X139824619Y-131309323D02*
X139824619Y-130690276D01*
X138824619Y-130356942D02*
X138824619Y-129737895D01*
X138824619Y-129737895D02*
X139205571Y-130071228D01*
X139205571Y-130071228D02*
X139205571Y-129928371D01*
X139205571Y-129928371D02*
X139253190Y-129833133D01*
X139253190Y-129833133D02*
X139300809Y-129785514D01*
X139300809Y-129785514D02*
X139396047Y-129737895D01*
X139396047Y-129737895D02*
X139634142Y-129737895D01*
X139634142Y-129737895D02*
X139729380Y-129785514D01*
X139729380Y-129785514D02*
X139777000Y-129833133D01*
X139777000Y-129833133D02*
X139824619Y-129928371D01*
X139824619Y-129928371D02*
X139824619Y-130214085D01*
X139824619Y-130214085D02*
X139777000Y-130309323D01*
X139777000Y-130309323D02*
X139729380Y-130356942D01*
X124147342Y-89714180D02*
X124099723Y-89761800D01*
X124099723Y-89761800D02*
X123956866Y-89809419D01*
X123956866Y-89809419D02*
X123861628Y-89809419D01*
X123861628Y-89809419D02*
X123718771Y-89761800D01*
X123718771Y-89761800D02*
X123623533Y-89666561D01*
X123623533Y-89666561D02*
X123575914Y-89571323D01*
X123575914Y-89571323D02*
X123528295Y-89380847D01*
X123528295Y-89380847D02*
X123528295Y-89237990D01*
X123528295Y-89237990D02*
X123575914Y-89047514D01*
X123575914Y-89047514D02*
X123623533Y-88952276D01*
X123623533Y-88952276D02*
X123718771Y-88857038D01*
X123718771Y-88857038D02*
X123861628Y-88809419D01*
X123861628Y-88809419D02*
X123956866Y-88809419D01*
X123956866Y-88809419D02*
X124099723Y-88857038D01*
X124099723Y-88857038D02*
X124147342Y-88904657D01*
X124528295Y-88904657D02*
X124575914Y-88857038D01*
X124575914Y-88857038D02*
X124671152Y-88809419D01*
X124671152Y-88809419D02*
X124909247Y-88809419D01*
X124909247Y-88809419D02*
X125004485Y-88857038D01*
X125004485Y-88857038D02*
X125052104Y-88904657D01*
X125052104Y-88904657D02*
X125099723Y-88999895D01*
X125099723Y-88999895D02*
X125099723Y-89095133D01*
X125099723Y-89095133D02*
X125052104Y-89237990D01*
X125052104Y-89237990D02*
X124480676Y-89809419D01*
X124480676Y-89809419D02*
X125099723Y-89809419D01*
X125575914Y-89809419D02*
X125766390Y-89809419D01*
X125766390Y-89809419D02*
X125861628Y-89761800D01*
X125861628Y-89761800D02*
X125909247Y-89714180D01*
X125909247Y-89714180D02*
X126004485Y-89571323D01*
X126004485Y-89571323D02*
X126052104Y-89380847D01*
X126052104Y-89380847D02*
X126052104Y-88999895D01*
X126052104Y-88999895D02*
X126004485Y-88904657D01*
X126004485Y-88904657D02*
X125956866Y-88857038D01*
X125956866Y-88857038D02*
X125861628Y-88809419D01*
X125861628Y-88809419D02*
X125671152Y-88809419D01*
X125671152Y-88809419D02*
X125575914Y-88857038D01*
X125575914Y-88857038D02*
X125528295Y-88904657D01*
X125528295Y-88904657D02*
X125480676Y-88999895D01*
X125480676Y-88999895D02*
X125480676Y-89237990D01*
X125480676Y-89237990D02*
X125528295Y-89333228D01*
X125528295Y-89333228D02*
X125575914Y-89380847D01*
X125575914Y-89380847D02*
X125671152Y-89428466D01*
X125671152Y-89428466D02*
X125861628Y-89428466D01*
X125861628Y-89428466D02*
X125956866Y-89380847D01*
X125956866Y-89380847D02*
X126004485Y-89333228D01*
X126004485Y-89333228D02*
X126052104Y-89237990D01*
D11*
X70747466Y-173423642D02*
X70928895Y-173484118D01*
X70928895Y-173484118D02*
X71231276Y-173484118D01*
X71231276Y-173484118D02*
X71352228Y-173423642D01*
X71352228Y-173423642D02*
X71412704Y-173363165D01*
X71412704Y-173363165D02*
X71473181Y-173242213D01*
X71473181Y-173242213D02*
X71473181Y-173121261D01*
X71473181Y-173121261D02*
X71412704Y-173000308D01*
X71412704Y-173000308D02*
X71352228Y-172939832D01*
X71352228Y-172939832D02*
X71231276Y-172879356D01*
X71231276Y-172879356D02*
X70989371Y-172818880D01*
X70989371Y-172818880D02*
X70868419Y-172758403D01*
X70868419Y-172758403D02*
X70807942Y-172697927D01*
X70807942Y-172697927D02*
X70747466Y-172576975D01*
X70747466Y-172576975D02*
X70747466Y-172456022D01*
X70747466Y-172456022D02*
X70807942Y-172335070D01*
X70807942Y-172335070D02*
X70868419Y-172274594D01*
X70868419Y-172274594D02*
X70989371Y-172214118D01*
X70989371Y-172214118D02*
X71291752Y-172214118D01*
X71291752Y-172214118D02*
X71473181Y-172274594D01*
X71896514Y-172214118D02*
X72198895Y-173484118D01*
X72198895Y-173484118D02*
X72440800Y-172576975D01*
X72440800Y-172576975D02*
X72682705Y-173484118D01*
X72682705Y-173484118D02*
X72985086Y-172214118D01*
X73408419Y-172335070D02*
X73468895Y-172274594D01*
X73468895Y-172274594D02*
X73589848Y-172214118D01*
X73589848Y-172214118D02*
X73892229Y-172214118D01*
X73892229Y-172214118D02*
X74013181Y-172274594D01*
X74013181Y-172274594D02*
X74073657Y-172335070D01*
X74073657Y-172335070D02*
X74134134Y-172456022D01*
X74134134Y-172456022D02*
X74134134Y-172576975D01*
X74134134Y-172576975D02*
X74073657Y-172758403D01*
X74073657Y-172758403D02*
X73347943Y-173484118D01*
X73347943Y-173484118D02*
X74134134Y-173484118D01*
D10*
X81915095Y-48768219D02*
X81915095Y-49577742D01*
X81915095Y-49577742D02*
X81962714Y-49672980D01*
X81962714Y-49672980D02*
X82010333Y-49720600D01*
X82010333Y-49720600D02*
X82105571Y-49768219D01*
X82105571Y-49768219D02*
X82296047Y-49768219D01*
X82296047Y-49768219D02*
X82391285Y-49720600D01*
X82391285Y-49720600D02*
X82438904Y-49672980D01*
X82438904Y-49672980D02*
X82486523Y-49577742D01*
X82486523Y-49577742D02*
X82486523Y-48768219D01*
X83105571Y-49196790D02*
X83010333Y-49149171D01*
X83010333Y-49149171D02*
X82962714Y-49101552D01*
X82962714Y-49101552D02*
X82915095Y-49006314D01*
X82915095Y-49006314D02*
X82915095Y-48958695D01*
X82915095Y-48958695D02*
X82962714Y-48863457D01*
X82962714Y-48863457D02*
X83010333Y-48815838D01*
X83010333Y-48815838D02*
X83105571Y-48768219D01*
X83105571Y-48768219D02*
X83296047Y-48768219D01*
X83296047Y-48768219D02*
X83391285Y-48815838D01*
X83391285Y-48815838D02*
X83438904Y-48863457D01*
X83438904Y-48863457D02*
X83486523Y-48958695D01*
X83486523Y-48958695D02*
X83486523Y-49006314D01*
X83486523Y-49006314D02*
X83438904Y-49101552D01*
X83438904Y-49101552D02*
X83391285Y-49149171D01*
X83391285Y-49149171D02*
X83296047Y-49196790D01*
X83296047Y-49196790D02*
X83105571Y-49196790D01*
X83105571Y-49196790D02*
X83010333Y-49244409D01*
X83010333Y-49244409D02*
X82962714Y-49292028D01*
X82962714Y-49292028D02*
X82915095Y-49387266D01*
X82915095Y-49387266D02*
X82915095Y-49577742D01*
X82915095Y-49577742D02*
X82962714Y-49672980D01*
X82962714Y-49672980D02*
X83010333Y-49720600D01*
X83010333Y-49720600D02*
X83105571Y-49768219D01*
X83105571Y-49768219D02*
X83296047Y-49768219D01*
X83296047Y-49768219D02*
X83391285Y-49720600D01*
X83391285Y-49720600D02*
X83438904Y-49672980D01*
X83438904Y-49672980D02*
X83486523Y-49577742D01*
X83486523Y-49577742D02*
X83486523Y-49387266D01*
X83486523Y-49387266D02*
X83438904Y-49292028D01*
X83438904Y-49292028D02*
X83391285Y-49244409D01*
X83391285Y-49244409D02*
X83296047Y-49196790D01*
X121931133Y-166512980D02*
X121883514Y-166560600D01*
X121883514Y-166560600D02*
X121740657Y-166608219D01*
X121740657Y-166608219D02*
X121645419Y-166608219D01*
X121645419Y-166608219D02*
X121502562Y-166560600D01*
X121502562Y-166560600D02*
X121407324Y-166465361D01*
X121407324Y-166465361D02*
X121359705Y-166370123D01*
X121359705Y-166370123D02*
X121312086Y-166179647D01*
X121312086Y-166179647D02*
X121312086Y-166036790D01*
X121312086Y-166036790D02*
X121359705Y-165846314D01*
X121359705Y-165846314D02*
X121407324Y-165751076D01*
X121407324Y-165751076D02*
X121502562Y-165655838D01*
X121502562Y-165655838D02*
X121645419Y-165608219D01*
X121645419Y-165608219D02*
X121740657Y-165608219D01*
X121740657Y-165608219D02*
X121883514Y-165655838D01*
X121883514Y-165655838D02*
X121931133Y-165703457D01*
X122835895Y-165608219D02*
X122359705Y-165608219D01*
X122359705Y-165608219D02*
X122312086Y-166084409D01*
X122312086Y-166084409D02*
X122359705Y-166036790D01*
X122359705Y-166036790D02*
X122454943Y-165989171D01*
X122454943Y-165989171D02*
X122693038Y-165989171D01*
X122693038Y-165989171D02*
X122788276Y-166036790D01*
X122788276Y-166036790D02*
X122835895Y-166084409D01*
X122835895Y-166084409D02*
X122883514Y-166179647D01*
X122883514Y-166179647D02*
X122883514Y-166417742D01*
X122883514Y-166417742D02*
X122835895Y-166512980D01*
X122835895Y-166512980D02*
X122788276Y-166560600D01*
X122788276Y-166560600D02*
X122693038Y-166608219D01*
X122693038Y-166608219D02*
X122454943Y-166608219D01*
X122454943Y-166608219D02*
X122359705Y-166560600D01*
X122359705Y-166560600D02*
X122312086Y-166512980D01*
X89012733Y-123739380D02*
X88965114Y-123787000D01*
X88965114Y-123787000D02*
X88822257Y-123834619D01*
X88822257Y-123834619D02*
X88727019Y-123834619D01*
X88727019Y-123834619D02*
X88584162Y-123787000D01*
X88584162Y-123787000D02*
X88488924Y-123691761D01*
X88488924Y-123691761D02*
X88441305Y-123596523D01*
X88441305Y-123596523D02*
X88393686Y-123406047D01*
X88393686Y-123406047D02*
X88393686Y-123263190D01*
X88393686Y-123263190D02*
X88441305Y-123072714D01*
X88441305Y-123072714D02*
X88488924Y-122977476D01*
X88488924Y-122977476D02*
X88584162Y-122882238D01*
X88584162Y-122882238D02*
X88727019Y-122834619D01*
X88727019Y-122834619D02*
X88822257Y-122834619D01*
X88822257Y-122834619D02*
X88965114Y-122882238D01*
X88965114Y-122882238D02*
X89012733Y-122929857D01*
X89965114Y-123834619D02*
X89393686Y-123834619D01*
X89679400Y-123834619D02*
X89679400Y-122834619D01*
X89679400Y-122834619D02*
X89584162Y-122977476D01*
X89584162Y-122977476D02*
X89488924Y-123072714D01*
X89488924Y-123072714D02*
X89393686Y-123120333D01*
X135464561Y-60556857D02*
X135369323Y-60509238D01*
X135369323Y-60509238D02*
X135274085Y-60414000D01*
X135274085Y-60414000D02*
X135131228Y-60271142D01*
X135131228Y-60271142D02*
X135035990Y-60223523D01*
X135035990Y-60223523D02*
X134940752Y-60223523D01*
X134988371Y-60461619D02*
X134893133Y-60414000D01*
X134893133Y-60414000D02*
X134797895Y-60318761D01*
X134797895Y-60318761D02*
X134750276Y-60128285D01*
X134750276Y-60128285D02*
X134750276Y-59794952D01*
X134750276Y-59794952D02*
X134797895Y-59604476D01*
X134797895Y-59604476D02*
X134893133Y-59509238D01*
X134893133Y-59509238D02*
X134988371Y-59461619D01*
X134988371Y-59461619D02*
X135178847Y-59461619D01*
X135178847Y-59461619D02*
X135274085Y-59509238D01*
X135274085Y-59509238D02*
X135369323Y-59604476D01*
X135369323Y-59604476D02*
X135416942Y-59794952D01*
X135416942Y-59794952D02*
X135416942Y-60128285D01*
X135416942Y-60128285D02*
X135369323Y-60318761D01*
X135369323Y-60318761D02*
X135274085Y-60414000D01*
X135274085Y-60414000D02*
X135178847Y-60461619D01*
X135178847Y-60461619D02*
X134988371Y-60461619D01*
X136369323Y-60461619D02*
X135797895Y-60461619D01*
X136083609Y-60461619D02*
X136083609Y-59461619D01*
X136083609Y-59461619D02*
X135988371Y-59604476D01*
X135988371Y-59604476D02*
X135893133Y-59699714D01*
X135893133Y-59699714D02*
X135797895Y-59747333D01*
X141724142Y-159756580D02*
X141676523Y-159804200D01*
X141676523Y-159804200D02*
X141533666Y-159851819D01*
X141533666Y-159851819D02*
X141438428Y-159851819D01*
X141438428Y-159851819D02*
X141295571Y-159804200D01*
X141295571Y-159804200D02*
X141200333Y-159708961D01*
X141200333Y-159708961D02*
X141152714Y-159613723D01*
X141152714Y-159613723D02*
X141105095Y-159423247D01*
X141105095Y-159423247D02*
X141105095Y-159280390D01*
X141105095Y-159280390D02*
X141152714Y-159089914D01*
X141152714Y-159089914D02*
X141200333Y-158994676D01*
X141200333Y-158994676D02*
X141295571Y-158899438D01*
X141295571Y-158899438D02*
X141438428Y-158851819D01*
X141438428Y-158851819D02*
X141533666Y-158851819D01*
X141533666Y-158851819D02*
X141676523Y-158899438D01*
X141676523Y-158899438D02*
X141724142Y-158947057D01*
X142105095Y-158947057D02*
X142152714Y-158899438D01*
X142152714Y-158899438D02*
X142247952Y-158851819D01*
X142247952Y-158851819D02*
X142486047Y-158851819D01*
X142486047Y-158851819D02*
X142581285Y-158899438D01*
X142581285Y-158899438D02*
X142628904Y-158947057D01*
X142628904Y-158947057D02*
X142676523Y-159042295D01*
X142676523Y-159042295D02*
X142676523Y-159137533D01*
X142676523Y-159137533D02*
X142628904Y-159280390D01*
X142628904Y-159280390D02*
X142057476Y-159851819D01*
X142057476Y-159851819D02*
X142676523Y-159851819D01*
X143533666Y-158851819D02*
X143343190Y-158851819D01*
X143343190Y-158851819D02*
X143247952Y-158899438D01*
X143247952Y-158899438D02*
X143200333Y-158947057D01*
X143200333Y-158947057D02*
X143105095Y-159089914D01*
X143105095Y-159089914D02*
X143057476Y-159280390D01*
X143057476Y-159280390D02*
X143057476Y-159661342D01*
X143057476Y-159661342D02*
X143105095Y-159756580D01*
X143105095Y-159756580D02*
X143152714Y-159804200D01*
X143152714Y-159804200D02*
X143247952Y-159851819D01*
X143247952Y-159851819D02*
X143438428Y-159851819D01*
X143438428Y-159851819D02*
X143533666Y-159804200D01*
X143533666Y-159804200D02*
X143581285Y-159756580D01*
X143581285Y-159756580D02*
X143628904Y-159661342D01*
X143628904Y-159661342D02*
X143628904Y-159423247D01*
X143628904Y-159423247D02*
X143581285Y-159328009D01*
X143581285Y-159328009D02*
X143533666Y-159280390D01*
X143533666Y-159280390D02*
X143438428Y-159232771D01*
X143438428Y-159232771D02*
X143247952Y-159232771D01*
X143247952Y-159232771D02*
X143152714Y-159280390D01*
X143152714Y-159280390D02*
X143105095Y-159328009D01*
X143105095Y-159328009D02*
X143057476Y-159423247D01*
X134535942Y-63179419D02*
X134202609Y-62703228D01*
X133964514Y-63179419D02*
X133964514Y-62179419D01*
X133964514Y-62179419D02*
X134345466Y-62179419D01*
X134345466Y-62179419D02*
X134440704Y-62227038D01*
X134440704Y-62227038D02*
X134488323Y-62274657D01*
X134488323Y-62274657D02*
X134535942Y-62369895D01*
X134535942Y-62369895D02*
X134535942Y-62512752D01*
X134535942Y-62512752D02*
X134488323Y-62607990D01*
X134488323Y-62607990D02*
X134440704Y-62655609D01*
X134440704Y-62655609D02*
X134345466Y-62703228D01*
X134345466Y-62703228D02*
X133964514Y-62703228D01*
X135488323Y-63179419D02*
X134916895Y-63179419D01*
X135202609Y-63179419D02*
X135202609Y-62179419D01*
X135202609Y-62179419D02*
X135107371Y-62322276D01*
X135107371Y-62322276D02*
X135012133Y-62417514D01*
X135012133Y-62417514D02*
X134916895Y-62465133D01*
X136440704Y-63179419D02*
X135869276Y-63179419D01*
X136154990Y-63179419D02*
X136154990Y-62179419D01*
X136154990Y-62179419D02*
X136059752Y-62322276D01*
X136059752Y-62322276D02*
X135964514Y-62417514D01*
X135964514Y-62417514D02*
X135869276Y-62465133D01*
X139253933Y-176209419D02*
X138920600Y-175733228D01*
X138682505Y-176209419D02*
X138682505Y-175209419D01*
X138682505Y-175209419D02*
X139063457Y-175209419D01*
X139063457Y-175209419D02*
X139158695Y-175257038D01*
X139158695Y-175257038D02*
X139206314Y-175304657D01*
X139206314Y-175304657D02*
X139253933Y-175399895D01*
X139253933Y-175399895D02*
X139253933Y-175542752D01*
X139253933Y-175542752D02*
X139206314Y-175637990D01*
X139206314Y-175637990D02*
X139158695Y-175685609D01*
X139158695Y-175685609D02*
X139063457Y-175733228D01*
X139063457Y-175733228D02*
X138682505Y-175733228D01*
X140111076Y-175542752D02*
X140111076Y-176209419D01*
X139872981Y-175161800D02*
X139634886Y-175876085D01*
X139634886Y-175876085D02*
X140253933Y-175876085D01*
X101317466Y-86385619D02*
X101317466Y-87099904D01*
X101317466Y-87099904D02*
X101269847Y-87242761D01*
X101269847Y-87242761D02*
X101174609Y-87338000D01*
X101174609Y-87338000D02*
X101031752Y-87385619D01*
X101031752Y-87385619D02*
X100936514Y-87385619D01*
X102317466Y-87385619D02*
X101746038Y-87385619D01*
X102031752Y-87385619D02*
X102031752Y-86385619D01*
X102031752Y-86385619D02*
X101936514Y-86528476D01*
X101936514Y-86528476D02*
X101841276Y-86623714D01*
X101841276Y-86623714D02*
X101746038Y-86671333D01*
X133236619Y-125284704D02*
X134046142Y-125284704D01*
X134046142Y-125284704D02*
X134141380Y-125237085D01*
X134141380Y-125237085D02*
X134189000Y-125189466D01*
X134189000Y-125189466D02*
X134236619Y-125094228D01*
X134236619Y-125094228D02*
X134236619Y-124903752D01*
X134236619Y-124903752D02*
X134189000Y-124808514D01*
X134189000Y-124808514D02*
X134141380Y-124760895D01*
X134141380Y-124760895D02*
X134046142Y-124713276D01*
X134046142Y-124713276D02*
X133236619Y-124713276D01*
X133331857Y-124284704D02*
X133284238Y-124237085D01*
X133284238Y-124237085D02*
X133236619Y-124141847D01*
X133236619Y-124141847D02*
X133236619Y-123903752D01*
X133236619Y-123903752D02*
X133284238Y-123808514D01*
X133284238Y-123808514D02*
X133331857Y-123760895D01*
X133331857Y-123760895D02*
X133427095Y-123713276D01*
X133427095Y-123713276D02*
X133522333Y-123713276D01*
X133522333Y-123713276D02*
X133665190Y-123760895D01*
X133665190Y-123760895D02*
X134236619Y-124332323D01*
X134236619Y-124332323D02*
X134236619Y-123713276D01*
X114393742Y-89550980D02*
X114346123Y-89598600D01*
X114346123Y-89598600D02*
X114203266Y-89646219D01*
X114203266Y-89646219D02*
X114108028Y-89646219D01*
X114108028Y-89646219D02*
X113965171Y-89598600D01*
X113965171Y-89598600D02*
X113869933Y-89503361D01*
X113869933Y-89503361D02*
X113822314Y-89408123D01*
X113822314Y-89408123D02*
X113774695Y-89217647D01*
X113774695Y-89217647D02*
X113774695Y-89074790D01*
X113774695Y-89074790D02*
X113822314Y-88884314D01*
X113822314Y-88884314D02*
X113869933Y-88789076D01*
X113869933Y-88789076D02*
X113965171Y-88693838D01*
X113965171Y-88693838D02*
X114108028Y-88646219D01*
X114108028Y-88646219D02*
X114203266Y-88646219D01*
X114203266Y-88646219D02*
X114346123Y-88693838D01*
X114346123Y-88693838D02*
X114393742Y-88741457D01*
X115346123Y-89646219D02*
X114774695Y-89646219D01*
X115060409Y-89646219D02*
X115060409Y-88646219D01*
X115060409Y-88646219D02*
X114965171Y-88789076D01*
X114965171Y-88789076D02*
X114869933Y-88884314D01*
X114869933Y-88884314D02*
X114774695Y-88931933D01*
X115679457Y-88646219D02*
X116298504Y-88646219D01*
X116298504Y-88646219D02*
X115965171Y-89027171D01*
X115965171Y-89027171D02*
X116108028Y-89027171D01*
X116108028Y-89027171D02*
X116203266Y-89074790D01*
X116203266Y-89074790D02*
X116250885Y-89122409D01*
X116250885Y-89122409D02*
X116298504Y-89217647D01*
X116298504Y-89217647D02*
X116298504Y-89455742D01*
X116298504Y-89455742D02*
X116250885Y-89550980D01*
X116250885Y-89550980D02*
X116203266Y-89598600D01*
X116203266Y-89598600D02*
X116108028Y-89646219D01*
X116108028Y-89646219D02*
X115822314Y-89646219D01*
X115822314Y-89646219D02*
X115727076Y-89598600D01*
X115727076Y-89598600D02*
X115679457Y-89550980D01*
X154595533Y-175961780D02*
X154547914Y-176009400D01*
X154547914Y-176009400D02*
X154405057Y-176057019D01*
X154405057Y-176057019D02*
X154309819Y-176057019D01*
X154309819Y-176057019D02*
X154166962Y-176009400D01*
X154166962Y-176009400D02*
X154071724Y-175914161D01*
X154071724Y-175914161D02*
X154024105Y-175818923D01*
X154024105Y-175818923D02*
X153976486Y-175628447D01*
X153976486Y-175628447D02*
X153976486Y-175485590D01*
X153976486Y-175485590D02*
X154024105Y-175295114D01*
X154024105Y-175295114D02*
X154071724Y-175199876D01*
X154071724Y-175199876D02*
X154166962Y-175104638D01*
X154166962Y-175104638D02*
X154309819Y-175057019D01*
X154309819Y-175057019D02*
X154405057Y-175057019D01*
X154405057Y-175057019D02*
X154547914Y-175104638D01*
X154547914Y-175104638D02*
X154595533Y-175152257D01*
X154976486Y-175152257D02*
X155024105Y-175104638D01*
X155024105Y-175104638D02*
X155119343Y-175057019D01*
X155119343Y-175057019D02*
X155357438Y-175057019D01*
X155357438Y-175057019D02*
X155452676Y-175104638D01*
X155452676Y-175104638D02*
X155500295Y-175152257D01*
X155500295Y-175152257D02*
X155547914Y-175247495D01*
X155547914Y-175247495D02*
X155547914Y-175342733D01*
X155547914Y-175342733D02*
X155500295Y-175485590D01*
X155500295Y-175485590D02*
X154928867Y-176057019D01*
X154928867Y-176057019D02*
X155547914Y-176057019D01*
D12*
%TO.C,Y1*%
X138669000Y-73039000D02*
X138669000Y-79439000D01*
X133619000Y-73039000D02*
X133619000Y-79439000D01*
X138669000Y-73039000D02*
G75*
G03*
X133619000Y-73039000I-2525000J0D01*
G01*
X133619000Y-79439000D02*
G75*
G03*
X138669000Y-79439000I2525000J0D01*
G01*
%TO.C,R6*%
X135967800Y-151287800D02*
X135967800Y-144747800D01*
X136297800Y-151287800D02*
X135967800Y-151287800D01*
X138377800Y-151287800D02*
X138707800Y-151287800D01*
X138707800Y-151287800D02*
X138707800Y-144747800D01*
X135967800Y-144747800D02*
X136297800Y-144747800D01*
X138707800Y-144747800D02*
X138377800Y-144747800D01*
%TO.C,C4*%
X132084600Y-153251800D02*
X132084600Y-153566800D01*
X132084600Y-153251800D02*
X137024600Y-153251800D01*
X132084600Y-155676800D02*
X132084600Y-155991800D01*
X132084600Y-155991800D02*
X137024600Y-155991800D01*
X137024600Y-153251800D02*
X137024600Y-153566800D01*
X137024600Y-155676800D02*
X137024600Y-155991800D01*
%TO.C,U6*%
X132952800Y-65611800D02*
X82032800Y-65611800D01*
X82032800Y-65611800D02*
X82032800Y-78531800D01*
X132952800Y-71071800D02*
X132952800Y-65611800D01*
X132952800Y-78531800D02*
X132952800Y-73071800D01*
X82032800Y-78531800D02*
X132952800Y-78531800D01*
X132952800Y-71071800D02*
G75*
G03*
X132952800Y-73071800I0J-1000000D01*
G01*
%TO.C,J3*%
X136709200Y-51656800D02*
X136709200Y-55656800D01*
X136999200Y-50626800D02*
X136999200Y-56646800D01*
X136999200Y-56646800D02*
X142299200Y-56646800D01*
X137579200Y-50626800D02*
X137579200Y-51226800D01*
X137579200Y-51226800D02*
X139179200Y-51226800D01*
X138379200Y-55646800D02*
X138629200Y-55116800D01*
X138379200Y-55646800D02*
X140919200Y-55646800D01*
X138379200Y-56646800D02*
X138379200Y-55646800D01*
X138629200Y-55116800D02*
X140669200Y-55116800D01*
X138629200Y-56646800D02*
X138629200Y-55646800D01*
X139179200Y-51226800D02*
X139179200Y-50626800D01*
X140119200Y-50626800D02*
X140119200Y-51226800D01*
X140119200Y-51226800D02*
X141719200Y-51226800D01*
X140669200Y-55116800D02*
X140919200Y-55646800D01*
X140669200Y-56646800D02*
X140669200Y-55646800D01*
X140919200Y-55646800D02*
X140919200Y-56646800D01*
X141719200Y-51226800D02*
X141719200Y-50626800D01*
X142299200Y-50626800D02*
X136999200Y-50626800D01*
X142299200Y-56646800D02*
X142299200Y-50626800D01*
%TO.C,J5*%
X81181800Y-57326600D02*
X81181800Y-88296600D01*
X68841800Y-57326600D02*
X81181800Y-57326600D01*
X82076138Y-67021600D02*
X82076138Y-67521600D01*
X81643125Y-67271600D02*
X82076138Y-67021600D01*
X82076138Y-67521600D02*
X81643125Y-67271600D01*
X81181800Y-88296600D02*
X68841800Y-88296600D01*
%TO.C,R19*%
X70078600Y-90968000D02*
X70078600Y-91738000D01*
X71448600Y-91738000D02*
X68708600Y-91738000D01*
X68708600Y-91738000D02*
X68708600Y-98278000D01*
X71448600Y-98278000D02*
X71448600Y-91738000D01*
X68708600Y-98278000D02*
X71448600Y-98278000D01*
X70078600Y-99048000D02*
X70078600Y-98278000D01*
%TO.C,C3*%
X119915200Y-159989913D02*
X119915200Y-160489913D01*
X120165200Y-160239913D02*
X119665200Y-160239913D01*
X121020200Y-162794688D02*
X115860200Y-162794688D01*
X121020200Y-162834688D02*
X115860200Y-162834688D01*
X121019200Y-162874688D02*
X115861200Y-162874688D01*
X121018200Y-162914688D02*
X115862200Y-162914688D01*
X121016200Y-162954688D02*
X115864200Y-162954688D01*
X121013200Y-162994688D02*
X115867200Y-162994688D01*
X121009200Y-163034688D02*
X119480200Y-163034688D01*
X117400200Y-163034688D02*
X115871200Y-163034688D01*
X121005200Y-163074688D02*
X119480200Y-163074688D01*
X117400200Y-163074688D02*
X115875200Y-163074688D01*
X121001200Y-163114688D02*
X119480200Y-163114688D01*
X117400200Y-163114688D02*
X115879200Y-163114688D01*
X120996200Y-163154688D02*
X119480200Y-163154688D01*
X117400200Y-163154688D02*
X115884200Y-163154688D01*
X120990200Y-163194688D02*
X119480200Y-163194688D01*
X117400200Y-163194688D02*
X115890200Y-163194688D01*
X120983200Y-163234688D02*
X119480200Y-163234688D01*
X117400200Y-163234688D02*
X115897200Y-163234688D01*
X120976200Y-163274688D02*
X119480200Y-163274688D01*
X117400200Y-163274688D02*
X115904200Y-163274688D01*
X120968200Y-163314688D02*
X119480200Y-163314688D01*
X117400200Y-163314688D02*
X115912200Y-163314688D01*
X120960200Y-163354688D02*
X119480200Y-163354688D01*
X117400200Y-163354688D02*
X115920200Y-163354688D01*
X120951200Y-163394688D02*
X119480200Y-163394688D01*
X117400200Y-163394688D02*
X115929200Y-163394688D01*
X120941200Y-163434688D02*
X119480200Y-163434688D01*
X117400200Y-163434688D02*
X115939200Y-163434688D01*
X120931200Y-163474688D02*
X119480200Y-163474688D01*
X117400200Y-163474688D02*
X115949200Y-163474688D01*
X120920200Y-163515688D02*
X119480200Y-163515688D01*
X117400200Y-163515688D02*
X115960200Y-163515688D01*
X120908200Y-163555688D02*
X119480200Y-163555688D01*
X117400200Y-163555688D02*
X115972200Y-163555688D01*
X120895200Y-163595688D02*
X119480200Y-163595688D01*
X117400200Y-163595688D02*
X115985200Y-163595688D01*
X120882200Y-163635688D02*
X119480200Y-163635688D01*
X117400200Y-163635688D02*
X115998200Y-163635688D01*
X120868200Y-163675688D02*
X119480200Y-163675688D01*
X117400200Y-163675688D02*
X116012200Y-163675688D01*
X120854200Y-163715688D02*
X119480200Y-163715688D01*
X117400200Y-163715688D02*
X116026200Y-163715688D01*
X120838200Y-163755688D02*
X119480200Y-163755688D01*
X117400200Y-163755688D02*
X116042200Y-163755688D01*
X120822200Y-163795688D02*
X119480200Y-163795688D01*
X117400200Y-163795688D02*
X116058200Y-163795688D01*
X120805200Y-163835688D02*
X119480200Y-163835688D01*
X117400200Y-163835688D02*
X116075200Y-163835688D01*
X120788200Y-163875688D02*
X119480200Y-163875688D01*
X117400200Y-163875688D02*
X116092200Y-163875688D01*
X120769200Y-163915688D02*
X119480200Y-163915688D01*
X117400200Y-163915688D02*
X116111200Y-163915688D01*
X120750200Y-163955688D02*
X119480200Y-163955688D01*
X117400200Y-163955688D02*
X116130200Y-163955688D01*
X120730200Y-163995688D02*
X119480200Y-163995688D01*
X117400200Y-163995688D02*
X116150200Y-163995688D01*
X120708200Y-164035688D02*
X119480200Y-164035688D01*
X117400200Y-164035688D02*
X116172200Y-164035688D01*
X120687200Y-164075688D02*
X119480200Y-164075688D01*
X117400200Y-164075688D02*
X116193200Y-164075688D01*
X120664200Y-164115688D02*
X119480200Y-164115688D01*
X117400200Y-164115688D02*
X116216200Y-164115688D01*
X120640200Y-164155688D02*
X119480200Y-164155688D01*
X117400200Y-164155688D02*
X116240200Y-164155688D01*
X120615200Y-164195688D02*
X119480200Y-164195688D01*
X117400200Y-164195688D02*
X116265200Y-164195688D01*
X120589200Y-164235688D02*
X119480200Y-164235688D01*
X117400200Y-164235688D02*
X116291200Y-164235688D01*
X120562200Y-164275688D02*
X119480200Y-164275688D01*
X117400200Y-164275688D02*
X116318200Y-164275688D01*
X120535200Y-164315688D02*
X119480200Y-164315688D01*
X117400200Y-164315688D02*
X116345200Y-164315688D01*
X120505200Y-164355688D02*
X119480200Y-164355688D01*
X117400200Y-164355688D02*
X116375200Y-164355688D01*
X120475200Y-164395688D02*
X119480200Y-164395688D01*
X117400200Y-164395688D02*
X116405200Y-164395688D01*
X120444200Y-164435688D02*
X119480200Y-164435688D01*
X117400200Y-164435688D02*
X116436200Y-164435688D01*
X120411200Y-164475688D02*
X119480200Y-164475688D01*
X117400200Y-164475688D02*
X116469200Y-164475688D01*
X120377200Y-164515688D02*
X119480200Y-164515688D01*
X117400200Y-164515688D02*
X116503200Y-164515688D01*
X120341200Y-164555688D02*
X119480200Y-164555688D01*
X117400200Y-164555688D02*
X116539200Y-164555688D01*
X120304200Y-164595688D02*
X119480200Y-164595688D01*
X117400200Y-164595688D02*
X116576200Y-164595688D01*
X120266200Y-164635688D02*
X119480200Y-164635688D01*
X117400200Y-164635688D02*
X116614200Y-164635688D01*
X120225200Y-164675688D02*
X119480200Y-164675688D01*
X117400200Y-164675688D02*
X116655200Y-164675688D01*
X120183200Y-164715688D02*
X119480200Y-164715688D01*
X117400200Y-164715688D02*
X116697200Y-164715688D01*
X120139200Y-164755688D02*
X119480200Y-164755688D01*
X117400200Y-164755688D02*
X116741200Y-164755688D01*
X120093200Y-164795688D02*
X119480200Y-164795688D01*
X117400200Y-164795688D02*
X116787200Y-164795688D01*
X120045200Y-164835688D02*
X119480200Y-164835688D01*
X117400200Y-164835688D02*
X116835200Y-164835688D01*
X119994200Y-164875688D02*
X119480200Y-164875688D01*
X117400200Y-164875688D02*
X116886200Y-164875688D01*
X119940200Y-164915688D02*
X119480200Y-164915688D01*
X117400200Y-164915688D02*
X116940200Y-164915688D01*
X119883200Y-164955688D02*
X119480200Y-164955688D01*
X117400200Y-164955688D02*
X116997200Y-164955688D01*
X119823200Y-164995688D02*
X119480200Y-164995688D01*
X117400200Y-164995688D02*
X117057200Y-164995688D01*
X119759200Y-165035688D02*
X119480200Y-165035688D01*
X117400200Y-165035688D02*
X117121200Y-165035688D01*
X119691200Y-165075688D02*
X119480200Y-165075688D01*
X117400200Y-165075688D02*
X117189200Y-165075688D01*
X119618200Y-165115688D02*
X117262200Y-165115688D01*
X119538200Y-165155688D02*
X117342200Y-165155688D01*
X119451200Y-165195688D02*
X117429200Y-165195688D01*
X119355200Y-165235688D02*
X117525200Y-165235688D01*
X119245200Y-165275688D02*
X117635200Y-165275688D01*
X119117200Y-165315688D02*
X117763200Y-165315688D01*
X118958200Y-165355688D02*
X117922200Y-165355688D01*
X118724200Y-165395688D02*
X118156200Y-165395688D01*
X121060200Y-162794688D02*
G75*
G03*
X115820200Y-162794688I-2620000J0D01*
G01*
X115820200Y-162794688D02*
G75*
G03*
X121060200Y-162794688I2620000J0D01*
G01*
%TO.C,C28*%
X128242800Y-165509688D02*
X128242800Y-165009688D01*
X127992800Y-165259688D02*
X128492800Y-165259688D01*
X127137800Y-162704913D02*
X128677800Y-162704913D01*
X130757800Y-162704913D02*
X132297800Y-162704913D01*
X127137800Y-162664913D02*
X128677800Y-162664913D01*
X130757800Y-162664913D02*
X132297800Y-162664913D01*
X127138800Y-162624913D02*
X128677800Y-162624913D01*
X130757800Y-162624913D02*
X132296800Y-162624913D01*
X127139800Y-162584913D02*
X128677800Y-162584913D01*
X130757800Y-162584913D02*
X132295800Y-162584913D01*
X127141800Y-162544913D02*
X128677800Y-162544913D01*
X130757800Y-162544913D02*
X132293800Y-162544913D01*
X127144800Y-162504913D02*
X128677800Y-162504913D01*
X130757800Y-162504913D02*
X132290800Y-162504913D01*
X127148800Y-162464913D02*
X128677800Y-162464913D01*
X130757800Y-162464913D02*
X132286800Y-162464913D01*
X127152800Y-162424913D02*
X128677800Y-162424913D01*
X130757800Y-162424913D02*
X132282800Y-162424913D01*
X127156800Y-162384913D02*
X128677800Y-162384913D01*
X130757800Y-162384913D02*
X132278800Y-162384913D01*
X127161800Y-162344913D02*
X128677800Y-162344913D01*
X130757800Y-162344913D02*
X132273800Y-162344913D01*
X127167800Y-162304913D02*
X128677800Y-162304913D01*
X130757800Y-162304913D02*
X132267800Y-162304913D01*
X127174800Y-162264913D02*
X128677800Y-162264913D01*
X130757800Y-162264913D02*
X132260800Y-162264913D01*
X127181800Y-162224913D02*
X128677800Y-162224913D01*
X130757800Y-162224913D02*
X132253800Y-162224913D01*
X127189800Y-162184913D02*
X128677800Y-162184913D01*
X130757800Y-162184913D02*
X132245800Y-162184913D01*
X127197800Y-162144913D02*
X128677800Y-162144913D01*
X130757800Y-162144913D02*
X132237800Y-162144913D01*
X127206800Y-162104913D02*
X128677800Y-162104913D01*
X130757800Y-162104913D02*
X132228800Y-162104913D01*
X127216800Y-162064913D02*
X128677800Y-162064913D01*
X130757800Y-162064913D02*
X132218800Y-162064913D01*
X127226800Y-162024913D02*
X128677800Y-162024913D01*
X130757800Y-162024913D02*
X132208800Y-162024913D01*
X127237800Y-161983913D02*
X128677800Y-161983913D01*
X130757800Y-161983913D02*
X132197800Y-161983913D01*
X127249800Y-161943913D02*
X128677800Y-161943913D01*
X130757800Y-161943913D02*
X132185800Y-161943913D01*
X127262800Y-161903913D02*
X128677800Y-161903913D01*
X130757800Y-161903913D02*
X132172800Y-161903913D01*
X127275800Y-161863913D02*
X128677800Y-161863913D01*
X130757800Y-161863913D02*
X132159800Y-161863913D01*
X127289800Y-161823913D02*
X128677800Y-161823913D01*
X130757800Y-161823913D02*
X132145800Y-161823913D01*
X127303800Y-161783913D02*
X128677800Y-161783913D01*
X130757800Y-161783913D02*
X132131800Y-161783913D01*
X127319800Y-161743913D02*
X128677800Y-161743913D01*
X130757800Y-161743913D02*
X132115800Y-161743913D01*
X127335800Y-161703913D02*
X128677800Y-161703913D01*
X130757800Y-161703913D02*
X132099800Y-161703913D01*
X127352800Y-161663913D02*
X128677800Y-161663913D01*
X130757800Y-161663913D02*
X132082800Y-161663913D01*
X127369800Y-161623913D02*
X128677800Y-161623913D01*
X130757800Y-161623913D02*
X132065800Y-161623913D01*
X127388800Y-161583913D02*
X128677800Y-161583913D01*
X130757800Y-161583913D02*
X132046800Y-161583913D01*
X127407800Y-161543913D02*
X128677800Y-161543913D01*
X130757800Y-161543913D02*
X132027800Y-161543913D01*
X127427800Y-161503913D02*
X128677800Y-161503913D01*
X130757800Y-161503913D02*
X132007800Y-161503913D01*
X127449800Y-161463913D02*
X128677800Y-161463913D01*
X130757800Y-161463913D02*
X131985800Y-161463913D01*
X127470800Y-161423913D02*
X128677800Y-161423913D01*
X130757800Y-161423913D02*
X131964800Y-161423913D01*
X127493800Y-161383913D02*
X128677800Y-161383913D01*
X130757800Y-161383913D02*
X131941800Y-161383913D01*
X127517800Y-161343913D02*
X128677800Y-161343913D01*
X130757800Y-161343913D02*
X131917800Y-161343913D01*
X127542800Y-161303913D02*
X128677800Y-161303913D01*
X130757800Y-161303913D02*
X131892800Y-161303913D01*
X127568800Y-161263913D02*
X128677800Y-161263913D01*
X130757800Y-161263913D02*
X131866800Y-161263913D01*
X127595800Y-161223913D02*
X128677800Y-161223913D01*
X130757800Y-161223913D02*
X131839800Y-161223913D01*
X127622800Y-161183913D02*
X128677800Y-161183913D01*
X130757800Y-161183913D02*
X131812800Y-161183913D01*
X127652800Y-161143913D02*
X128677800Y-161143913D01*
X130757800Y-161143913D02*
X131782800Y-161143913D01*
X127682800Y-161103913D02*
X128677800Y-161103913D01*
X130757800Y-161103913D02*
X131752800Y-161103913D01*
X127713800Y-161063913D02*
X128677800Y-161063913D01*
X130757800Y-161063913D02*
X131721800Y-161063913D01*
X127746800Y-161023913D02*
X128677800Y-161023913D01*
X130757800Y-161023913D02*
X131688800Y-161023913D01*
X127780800Y-160983913D02*
X128677800Y-160983913D01*
X130757800Y-160983913D02*
X131654800Y-160983913D01*
X127816800Y-160943913D02*
X128677800Y-160943913D01*
X130757800Y-160943913D02*
X131618800Y-160943913D01*
X127853800Y-160903913D02*
X128677800Y-160903913D01*
X130757800Y-160903913D02*
X131581800Y-160903913D01*
X127891800Y-160863913D02*
X128677800Y-160863913D01*
X130757800Y-160863913D02*
X131543800Y-160863913D01*
X127932800Y-160823913D02*
X128677800Y-160823913D01*
X130757800Y-160823913D02*
X131502800Y-160823913D01*
X127974800Y-160783913D02*
X128677800Y-160783913D01*
X130757800Y-160783913D02*
X131460800Y-160783913D01*
X128018800Y-160743913D02*
X128677800Y-160743913D01*
X130757800Y-160743913D02*
X131416800Y-160743913D01*
X128064800Y-160703913D02*
X128677800Y-160703913D01*
X130757800Y-160703913D02*
X131370800Y-160703913D01*
X128112800Y-160663913D02*
X131322800Y-160663913D01*
X128163800Y-160623913D02*
X131271800Y-160623913D01*
X128217800Y-160583913D02*
X131217800Y-160583913D01*
X128274800Y-160543913D02*
X131160800Y-160543913D01*
X128334800Y-160503913D02*
X131100800Y-160503913D01*
X128398800Y-160463913D02*
X131036800Y-160463913D01*
X128466800Y-160423913D02*
X130968800Y-160423913D01*
X128539800Y-160383913D02*
X130895800Y-160383913D01*
X128619800Y-160343913D02*
X130815800Y-160343913D01*
X128706800Y-160303913D02*
X130728800Y-160303913D01*
X128802800Y-160263913D02*
X130632800Y-160263913D01*
X128912800Y-160223913D02*
X130522800Y-160223913D01*
X129040800Y-160183913D02*
X130394800Y-160183913D01*
X129199800Y-160143913D02*
X130235800Y-160143913D01*
X129433800Y-160103913D02*
X130001800Y-160103913D01*
X132337800Y-162704913D02*
G75*
G03*
X127097800Y-162704913I-2620000J0D01*
G01*
X127097800Y-162704913D02*
G75*
G03*
X132337800Y-162704913I2620000J0D01*
G01*
%TO.C,R14*%
X85852000Y-128359600D02*
X85852000Y-127589600D01*
X84482000Y-127589600D02*
X87222000Y-127589600D01*
X87222000Y-127589600D02*
X87222000Y-121049600D01*
X84482000Y-121049600D02*
X84482000Y-127589600D01*
X87222000Y-121049600D02*
X84482000Y-121049600D01*
X85852000Y-120279600D02*
X85852000Y-121049600D01*
%TO.C,R22*%
X84100800Y-147255800D02*
X83330800Y-147255800D01*
X83330800Y-148625800D02*
X83330800Y-145885800D01*
X83330800Y-145885800D02*
X76790800Y-145885800D01*
X76790800Y-148625800D02*
X83330800Y-148625800D01*
X76790800Y-145885800D02*
X76790800Y-148625800D01*
X76020800Y-147255800D02*
X76790800Y-147255800D01*
%TO.C,RN1*%
X69730800Y-111108600D02*
X69730800Y-113908600D01*
X69730800Y-113908600D02*
X87850800Y-113908600D01*
X72440800Y-111108600D02*
X72440800Y-113908600D01*
X87850800Y-111108600D02*
X69730800Y-111108600D01*
X87850800Y-113908600D02*
X87850800Y-111108600D01*
%TO.C,L3*%
X118870600Y-83349400D02*
X119290600Y-83349400D01*
X119290600Y-81579400D02*
X119290600Y-85119400D01*
X119290600Y-85119400D02*
X126530600Y-85119400D01*
X126530600Y-81579400D02*
X119290600Y-81579400D01*
X126530600Y-85119400D02*
X126530600Y-81579400D01*
X126950600Y-83349400D02*
X126530600Y-83349400D01*
%TO.C,C24*%
X130767913Y-178496000D02*
X131267913Y-178496000D01*
X131017913Y-178246000D02*
X131017913Y-178746000D01*
X133572688Y-177391000D02*
X133572688Y-182551000D01*
X133612688Y-177391000D02*
X133612688Y-182551000D01*
X133652688Y-177392000D02*
X133652688Y-182550000D01*
X133692688Y-177393000D02*
X133692688Y-182549000D01*
X133732688Y-177395000D02*
X133732688Y-182547000D01*
X133772688Y-177398000D02*
X133772688Y-182544000D01*
X133812688Y-177402000D02*
X133812688Y-178931000D01*
X133812688Y-181011000D02*
X133812688Y-182540000D01*
X133852688Y-177406000D02*
X133852688Y-178931000D01*
X133852688Y-181011000D02*
X133852688Y-182536000D01*
X133892688Y-177410000D02*
X133892688Y-178931000D01*
X133892688Y-181011000D02*
X133892688Y-182532000D01*
X133932688Y-177415000D02*
X133932688Y-178931000D01*
X133932688Y-181011000D02*
X133932688Y-182527000D01*
X133972688Y-177421000D02*
X133972688Y-178931000D01*
X133972688Y-181011000D02*
X133972688Y-182521000D01*
X134012688Y-177428000D02*
X134012688Y-178931000D01*
X134012688Y-181011000D02*
X134012688Y-182514000D01*
X134052688Y-177435000D02*
X134052688Y-178931000D01*
X134052688Y-181011000D02*
X134052688Y-182507000D01*
X134092688Y-177443000D02*
X134092688Y-178931000D01*
X134092688Y-181011000D02*
X134092688Y-182499000D01*
X134132688Y-177451000D02*
X134132688Y-178931000D01*
X134132688Y-181011000D02*
X134132688Y-182491000D01*
X134172688Y-177460000D02*
X134172688Y-178931000D01*
X134172688Y-181011000D02*
X134172688Y-182482000D01*
X134212688Y-177470000D02*
X134212688Y-178931000D01*
X134212688Y-181011000D02*
X134212688Y-182472000D01*
X134252688Y-177480000D02*
X134252688Y-178931000D01*
X134252688Y-181011000D02*
X134252688Y-182462000D01*
X134293688Y-177491000D02*
X134293688Y-178931000D01*
X134293688Y-181011000D02*
X134293688Y-182451000D01*
X134333688Y-177503000D02*
X134333688Y-178931000D01*
X134333688Y-181011000D02*
X134333688Y-182439000D01*
X134373688Y-177516000D02*
X134373688Y-178931000D01*
X134373688Y-181011000D02*
X134373688Y-182426000D01*
X134413688Y-177529000D02*
X134413688Y-178931000D01*
X134413688Y-181011000D02*
X134413688Y-182413000D01*
X134453688Y-177543000D02*
X134453688Y-178931000D01*
X134453688Y-181011000D02*
X134453688Y-182399000D01*
X134493688Y-177557000D02*
X134493688Y-178931000D01*
X134493688Y-181011000D02*
X134493688Y-182385000D01*
X134533688Y-177573000D02*
X134533688Y-178931000D01*
X134533688Y-181011000D02*
X134533688Y-182369000D01*
X134573688Y-177589000D02*
X134573688Y-178931000D01*
X134573688Y-181011000D02*
X134573688Y-182353000D01*
X134613688Y-177606000D02*
X134613688Y-178931000D01*
X134613688Y-181011000D02*
X134613688Y-182336000D01*
X134653688Y-177623000D02*
X134653688Y-178931000D01*
X134653688Y-181011000D02*
X134653688Y-182319000D01*
X134693688Y-177642000D02*
X134693688Y-178931000D01*
X134693688Y-181011000D02*
X134693688Y-182300000D01*
X134733688Y-177661000D02*
X134733688Y-178931000D01*
X134733688Y-181011000D02*
X134733688Y-182281000D01*
X134773688Y-177681000D02*
X134773688Y-178931000D01*
X134773688Y-181011000D02*
X134773688Y-182261000D01*
X134813688Y-177703000D02*
X134813688Y-178931000D01*
X134813688Y-181011000D02*
X134813688Y-182239000D01*
X134853688Y-177724000D02*
X134853688Y-178931000D01*
X134853688Y-181011000D02*
X134853688Y-182218000D01*
X134893688Y-177747000D02*
X134893688Y-178931000D01*
X134893688Y-181011000D02*
X134893688Y-182195000D01*
X134933688Y-177771000D02*
X134933688Y-178931000D01*
X134933688Y-181011000D02*
X134933688Y-182171000D01*
X134973688Y-177796000D02*
X134973688Y-178931000D01*
X134973688Y-181011000D02*
X134973688Y-182146000D01*
X135013688Y-177822000D02*
X135013688Y-178931000D01*
X135013688Y-181011000D02*
X135013688Y-182120000D01*
X135053688Y-177849000D02*
X135053688Y-178931000D01*
X135053688Y-181011000D02*
X135053688Y-182093000D01*
X135093688Y-177876000D02*
X135093688Y-178931000D01*
X135093688Y-181011000D02*
X135093688Y-182066000D01*
X135133688Y-177906000D02*
X135133688Y-178931000D01*
X135133688Y-181011000D02*
X135133688Y-182036000D01*
X135173688Y-177936000D02*
X135173688Y-178931000D01*
X135173688Y-181011000D02*
X135173688Y-182006000D01*
X135213688Y-177967000D02*
X135213688Y-178931000D01*
X135213688Y-181011000D02*
X135213688Y-181975000D01*
X135253688Y-178000000D02*
X135253688Y-178931000D01*
X135253688Y-181011000D02*
X135253688Y-181942000D01*
X135293688Y-178034000D02*
X135293688Y-178931000D01*
X135293688Y-181011000D02*
X135293688Y-181908000D01*
X135333688Y-178070000D02*
X135333688Y-178931000D01*
X135333688Y-181011000D02*
X135333688Y-181872000D01*
X135373688Y-178107000D02*
X135373688Y-178931000D01*
X135373688Y-181011000D02*
X135373688Y-181835000D01*
X135413688Y-178145000D02*
X135413688Y-178931000D01*
X135413688Y-181011000D02*
X135413688Y-181797000D01*
X135453688Y-178186000D02*
X135453688Y-178931000D01*
X135453688Y-181011000D02*
X135453688Y-181756000D01*
X135493688Y-178228000D02*
X135493688Y-178931000D01*
X135493688Y-181011000D02*
X135493688Y-181714000D01*
X135533688Y-178272000D02*
X135533688Y-178931000D01*
X135533688Y-181011000D02*
X135533688Y-181670000D01*
X135573688Y-178318000D02*
X135573688Y-178931000D01*
X135573688Y-181011000D02*
X135573688Y-181624000D01*
X135613688Y-178366000D02*
X135613688Y-178931000D01*
X135613688Y-181011000D02*
X135613688Y-181576000D01*
X135653688Y-178417000D02*
X135653688Y-178931000D01*
X135653688Y-181011000D02*
X135653688Y-181525000D01*
X135693688Y-178471000D02*
X135693688Y-178931000D01*
X135693688Y-181011000D02*
X135693688Y-181471000D01*
X135733688Y-178528000D02*
X135733688Y-178931000D01*
X135733688Y-181011000D02*
X135733688Y-181414000D01*
X135773688Y-178588000D02*
X135773688Y-178931000D01*
X135773688Y-181011000D02*
X135773688Y-181354000D01*
X135813688Y-178652000D02*
X135813688Y-178931000D01*
X135813688Y-181011000D02*
X135813688Y-181290000D01*
X135853688Y-178720000D02*
X135853688Y-178931000D01*
X135853688Y-181011000D02*
X135853688Y-181222000D01*
X135893688Y-178793000D02*
X135893688Y-181149000D01*
X135933688Y-178873000D02*
X135933688Y-181069000D01*
X135973688Y-178960000D02*
X135973688Y-180982000D01*
X136013688Y-179056000D02*
X136013688Y-180886000D01*
X136053688Y-179166000D02*
X136053688Y-180776000D01*
X136093688Y-179294000D02*
X136093688Y-180648000D01*
X136133688Y-179453000D02*
X136133688Y-180489000D01*
X136173688Y-179687000D02*
X136173688Y-180255000D01*
X136192688Y-179971000D02*
G75*
G03*
X130952688Y-179971000I-2620000J0D01*
G01*
X130952688Y-179971000D02*
G75*
G03*
X136192688Y-179971000I2620000J0D01*
G01*
%TO.C,R23*%
X139134600Y-159344600D02*
X132594600Y-159344600D01*
X139134600Y-159014600D02*
X139134600Y-159344600D01*
X139134600Y-156934600D02*
X139134600Y-156604600D01*
X139134600Y-156604600D02*
X132594600Y-156604600D01*
X132594600Y-159344600D02*
X132594600Y-159014600D01*
X132594600Y-156604600D02*
X132594600Y-156934600D01*
%TO.C,U4*%
X88469000Y-184886600D02*
X124149000Y-184886600D01*
X124149000Y-184886600D02*
X124149000Y-171966600D01*
X88469000Y-179426600D02*
X88469000Y-184886600D01*
X88469000Y-171966600D02*
X88469000Y-177426600D01*
X124149000Y-171966600D02*
X88469000Y-171966600D01*
X88469000Y-179426600D02*
G75*
G03*
X88469000Y-177426600I0J1000000D01*
G01*
%TO.C,L1*%
X128830200Y-157873000D02*
X128410200Y-157873000D01*
X128410200Y-159643000D02*
X128410200Y-156103000D01*
X128410200Y-156103000D02*
X121170200Y-156103000D01*
X121170200Y-159643000D02*
X128410200Y-159643000D01*
X121170200Y-156103000D02*
X121170200Y-159643000D01*
X120750200Y-157873000D02*
X121170200Y-157873000D01*
%TO.C,U7*%
X109744200Y-57576800D02*
X132724200Y-57576800D01*
X132724200Y-57576800D02*
X132724200Y-52276800D01*
X109744200Y-55926800D02*
X109744200Y-57576800D01*
X109744200Y-52276800D02*
X109744200Y-53926800D01*
X132724200Y-52276800D02*
X109744200Y-52276800D01*
X109744200Y-55926800D02*
G75*
G03*
X109744200Y-53926800I0J1000000D01*
G01*
%TO.C,J11*%
X82873800Y-143992600D02*
X82873800Y-139992600D01*
X82583800Y-145022600D02*
X82583800Y-139002600D01*
X82583800Y-139002600D02*
X77283800Y-139002600D01*
X82003800Y-145022600D02*
X82003800Y-144422600D01*
X82003800Y-144422600D02*
X80403800Y-144422600D01*
X81203800Y-140002600D02*
X80953800Y-140532600D01*
X81203800Y-140002600D02*
X78663800Y-140002600D01*
X81203800Y-139002600D02*
X81203800Y-140002600D01*
X80953800Y-140532600D02*
X78913800Y-140532600D01*
X80953800Y-139002600D02*
X80953800Y-140002600D01*
X80403800Y-144422600D02*
X80403800Y-145022600D01*
X79463800Y-145022600D02*
X79463800Y-144422600D01*
X79463800Y-144422600D02*
X77863800Y-144422600D01*
X78913800Y-140532600D02*
X78663800Y-140002600D01*
X78913800Y-139002600D02*
X78913800Y-140002600D01*
X78663800Y-140002600D02*
X78663800Y-139002600D01*
X77863800Y-144422600D02*
X77863800Y-145022600D01*
X77283800Y-145022600D02*
X82583800Y-145022600D01*
X77283800Y-139002600D02*
X77283800Y-145022600D01*
%TO.C,C10*%
X88115000Y-172603400D02*
X88115000Y-169863400D01*
X88115000Y-172603400D02*
X80875000Y-172603400D01*
X88115000Y-169863400D02*
X80875000Y-169863400D01*
X80875000Y-172603400D02*
X80875000Y-169863400D01*
%TO.C,C20*%
X71499400Y-101461000D02*
X68759400Y-101461000D01*
X71499400Y-101461000D02*
X71499400Y-108701000D01*
X68759400Y-101461000D02*
X68759400Y-108701000D01*
X71499400Y-108701000D02*
X68759400Y-108701000D01*
D13*
%TO.C,RV1*%
X145798800Y-148514800D02*
X145798800Y-148514800D01*
X145698800Y-148514800D02*
X145698800Y-148514800D01*
X145698800Y-148514800D02*
G75*
G03*
X145798800Y-148514800I50000J0D01*
G01*
X145798800Y-148514800D02*
G75*
G03*
X145698800Y-148514800I-50000J0D01*
G01*
D14*
%TO.C,J9*%
X149762200Y-188676600D02*
X149762200Y-186928370D01*
X149762200Y-186170831D02*
X149762200Y-184428368D01*
X149762200Y-183670830D02*
X149762200Y-176433800D01*
X149762200Y-176433800D02*
X137519400Y-176433800D01*
X146765000Y-190683200D02*
X146765000Y-188422600D01*
X146765000Y-188422600D02*
X140516600Y-188422600D01*
X140516600Y-190683200D02*
X146765000Y-190683200D01*
X140516600Y-188422600D02*
X140516600Y-190683200D01*
X137519400Y-188676600D02*
X149762200Y-188676600D01*
X137519400Y-186928370D02*
X137519400Y-188676600D01*
X137519400Y-184428368D02*
X137519400Y-186170831D01*
X137519400Y-176433800D02*
X137519400Y-183670830D01*
D12*
%TO.C,R28*%
X145616800Y-116445600D02*
X146386800Y-116445600D01*
X146386800Y-115075600D02*
X146386800Y-117815600D01*
X146386800Y-117815600D02*
X152926800Y-117815600D01*
X152926800Y-115075600D02*
X146386800Y-115075600D01*
X152926800Y-117815600D02*
X152926800Y-115075600D01*
X153696800Y-116445600D02*
X152926800Y-116445600D01*
%TO.C,R10*%
X151021800Y-55788800D02*
X144481800Y-55788800D01*
X151021800Y-55458800D02*
X151021800Y-55788800D01*
X151021800Y-53378800D02*
X151021800Y-53048800D01*
X151021800Y-53048800D02*
X144481800Y-53048800D01*
X144481800Y-55788800D02*
X144481800Y-55458800D01*
X144481800Y-53048800D02*
X144481800Y-53378800D01*
%TO.C,R16*%
X79756000Y-128334200D02*
X79756000Y-127564200D01*
X78386000Y-127564200D02*
X81126000Y-127564200D01*
X81126000Y-127564200D02*
X81126000Y-121024200D01*
X78386000Y-121024200D02*
X78386000Y-127564200D01*
X81126000Y-121024200D02*
X78386000Y-121024200D01*
X79756000Y-120254200D02*
X79756000Y-121024200D01*
%TO.C,J6*%
X74664800Y-130902400D02*
X73334800Y-130902400D01*
X74664800Y-129572400D02*
X74664800Y-130902400D01*
X74664800Y-128302400D02*
X74664800Y-118082400D01*
X74664800Y-128302400D02*
X72064800Y-128302400D01*
X74664800Y-118082400D02*
X69464800Y-118082400D01*
X72064800Y-130902400D02*
X69464800Y-130902400D01*
X72064800Y-128302400D02*
X72064800Y-130902400D01*
X69464800Y-130902400D02*
X69464800Y-118082400D01*
%TO.C,R12*%
X141954000Y-69784200D02*
X135414000Y-69784200D01*
X141954000Y-69454200D02*
X141954000Y-69784200D01*
X141954000Y-67374200D02*
X141954000Y-67044200D01*
X141954000Y-67044200D02*
X135414000Y-67044200D01*
X135414000Y-69784200D02*
X135414000Y-69454200D01*
X135414000Y-67044200D02*
X135414000Y-67374200D01*
%TO.C,C8*%
X155054800Y-132369800D02*
X155054800Y-129629800D01*
X155054800Y-132369800D02*
X147814800Y-132369800D01*
X155054800Y-129629800D02*
X147814800Y-129629800D01*
X147814800Y-132369800D02*
X147814800Y-129629800D01*
%TO.C,R3*%
X79655800Y-115937600D02*
X78885800Y-115937600D01*
X78885800Y-117307600D02*
X78885800Y-114567600D01*
X78885800Y-114567600D02*
X72345800Y-114567600D01*
X72345800Y-117307600D02*
X78885800Y-117307600D01*
X72345800Y-114567600D02*
X72345800Y-117307600D01*
X71575800Y-115937600D02*
X72345800Y-115937600D01*
%TO.C,C7*%
X129603000Y-174283000D02*
X129603000Y-177023000D01*
X129603000Y-174283000D02*
X136843000Y-174283000D01*
X129603000Y-177023000D02*
X136843000Y-177023000D01*
X136843000Y-174283000D02*
X136843000Y-177023000D01*
%TO.C,C27*%
X133881600Y-165509688D02*
X133881600Y-165009688D01*
X133631600Y-165259688D02*
X134131600Y-165259688D01*
X132776600Y-162704913D02*
X134316600Y-162704913D01*
X136396600Y-162704913D02*
X137936600Y-162704913D01*
X132776600Y-162664913D02*
X134316600Y-162664913D01*
X136396600Y-162664913D02*
X137936600Y-162664913D01*
X132777600Y-162624913D02*
X134316600Y-162624913D01*
X136396600Y-162624913D02*
X137935600Y-162624913D01*
X132778600Y-162584913D02*
X134316600Y-162584913D01*
X136396600Y-162584913D02*
X137934600Y-162584913D01*
X132780600Y-162544913D02*
X134316600Y-162544913D01*
X136396600Y-162544913D02*
X137932600Y-162544913D01*
X132783600Y-162504913D02*
X134316600Y-162504913D01*
X136396600Y-162504913D02*
X137929600Y-162504913D01*
X132787600Y-162464913D02*
X134316600Y-162464913D01*
X136396600Y-162464913D02*
X137925600Y-162464913D01*
X132791600Y-162424913D02*
X134316600Y-162424913D01*
X136396600Y-162424913D02*
X137921600Y-162424913D01*
X132795600Y-162384913D02*
X134316600Y-162384913D01*
X136396600Y-162384913D02*
X137917600Y-162384913D01*
X132800600Y-162344913D02*
X134316600Y-162344913D01*
X136396600Y-162344913D02*
X137912600Y-162344913D01*
X132806600Y-162304913D02*
X134316600Y-162304913D01*
X136396600Y-162304913D02*
X137906600Y-162304913D01*
X132813600Y-162264913D02*
X134316600Y-162264913D01*
X136396600Y-162264913D02*
X137899600Y-162264913D01*
X132820600Y-162224913D02*
X134316600Y-162224913D01*
X136396600Y-162224913D02*
X137892600Y-162224913D01*
X132828600Y-162184913D02*
X134316600Y-162184913D01*
X136396600Y-162184913D02*
X137884600Y-162184913D01*
X132836600Y-162144913D02*
X134316600Y-162144913D01*
X136396600Y-162144913D02*
X137876600Y-162144913D01*
X132845600Y-162104913D02*
X134316600Y-162104913D01*
X136396600Y-162104913D02*
X137867600Y-162104913D01*
X132855600Y-162064913D02*
X134316600Y-162064913D01*
X136396600Y-162064913D02*
X137857600Y-162064913D01*
X132865600Y-162024913D02*
X134316600Y-162024913D01*
X136396600Y-162024913D02*
X137847600Y-162024913D01*
X132876600Y-161983913D02*
X134316600Y-161983913D01*
X136396600Y-161983913D02*
X137836600Y-161983913D01*
X132888600Y-161943913D02*
X134316600Y-161943913D01*
X136396600Y-161943913D02*
X137824600Y-161943913D01*
X132901600Y-161903913D02*
X134316600Y-161903913D01*
X136396600Y-161903913D02*
X137811600Y-161903913D01*
X132914600Y-161863913D02*
X134316600Y-161863913D01*
X136396600Y-161863913D02*
X137798600Y-161863913D01*
X132928600Y-161823913D02*
X134316600Y-161823913D01*
X136396600Y-161823913D02*
X137784600Y-161823913D01*
X132942600Y-161783913D02*
X134316600Y-161783913D01*
X136396600Y-161783913D02*
X137770600Y-161783913D01*
X132958600Y-161743913D02*
X134316600Y-161743913D01*
X136396600Y-161743913D02*
X137754600Y-161743913D01*
X132974600Y-161703913D02*
X134316600Y-161703913D01*
X136396600Y-161703913D02*
X137738600Y-161703913D01*
X132991600Y-161663913D02*
X134316600Y-161663913D01*
X136396600Y-161663913D02*
X137721600Y-161663913D01*
X133008600Y-161623913D02*
X134316600Y-161623913D01*
X136396600Y-161623913D02*
X137704600Y-161623913D01*
X133027600Y-161583913D02*
X134316600Y-161583913D01*
X136396600Y-161583913D02*
X137685600Y-161583913D01*
X133046600Y-161543913D02*
X134316600Y-161543913D01*
X136396600Y-161543913D02*
X137666600Y-161543913D01*
X133066600Y-161503913D02*
X134316600Y-161503913D01*
X136396600Y-161503913D02*
X137646600Y-161503913D01*
X133088600Y-161463913D02*
X134316600Y-161463913D01*
X136396600Y-161463913D02*
X137624600Y-161463913D01*
X133109600Y-161423913D02*
X134316600Y-161423913D01*
X136396600Y-161423913D02*
X137603600Y-161423913D01*
X133132600Y-161383913D02*
X134316600Y-161383913D01*
X136396600Y-161383913D02*
X137580600Y-161383913D01*
X133156600Y-161343913D02*
X134316600Y-161343913D01*
X136396600Y-161343913D02*
X137556600Y-161343913D01*
X133181600Y-161303913D02*
X134316600Y-161303913D01*
X136396600Y-161303913D02*
X137531600Y-161303913D01*
X133207600Y-161263913D02*
X134316600Y-161263913D01*
X136396600Y-161263913D02*
X137505600Y-161263913D01*
X133234600Y-161223913D02*
X134316600Y-161223913D01*
X136396600Y-161223913D02*
X137478600Y-161223913D01*
X133261600Y-161183913D02*
X134316600Y-161183913D01*
X136396600Y-161183913D02*
X137451600Y-161183913D01*
X133291600Y-161143913D02*
X134316600Y-161143913D01*
X136396600Y-161143913D02*
X137421600Y-161143913D01*
X133321600Y-161103913D02*
X134316600Y-161103913D01*
X136396600Y-161103913D02*
X137391600Y-161103913D01*
X133352600Y-161063913D02*
X134316600Y-161063913D01*
X136396600Y-161063913D02*
X137360600Y-161063913D01*
X133385600Y-161023913D02*
X134316600Y-161023913D01*
X136396600Y-161023913D02*
X137327600Y-161023913D01*
X133419600Y-160983913D02*
X134316600Y-160983913D01*
X136396600Y-160983913D02*
X137293600Y-160983913D01*
X133455600Y-160943913D02*
X134316600Y-160943913D01*
X136396600Y-160943913D02*
X137257600Y-160943913D01*
X133492600Y-160903913D02*
X134316600Y-160903913D01*
X136396600Y-160903913D02*
X137220600Y-160903913D01*
X133530600Y-160863913D02*
X134316600Y-160863913D01*
X136396600Y-160863913D02*
X137182600Y-160863913D01*
X133571600Y-160823913D02*
X134316600Y-160823913D01*
X136396600Y-160823913D02*
X137141600Y-160823913D01*
X133613600Y-160783913D02*
X134316600Y-160783913D01*
X136396600Y-160783913D02*
X137099600Y-160783913D01*
X133657600Y-160743913D02*
X134316600Y-160743913D01*
X136396600Y-160743913D02*
X137055600Y-160743913D01*
X133703600Y-160703913D02*
X134316600Y-160703913D01*
X136396600Y-160703913D02*
X137009600Y-160703913D01*
X133751600Y-160663913D02*
X136961600Y-160663913D01*
X133802600Y-160623913D02*
X136910600Y-160623913D01*
X133856600Y-160583913D02*
X136856600Y-160583913D01*
X133913600Y-160543913D02*
X136799600Y-160543913D01*
X133973600Y-160503913D02*
X136739600Y-160503913D01*
X134037600Y-160463913D02*
X136675600Y-160463913D01*
X134105600Y-160423913D02*
X136607600Y-160423913D01*
X134178600Y-160383913D02*
X136534600Y-160383913D01*
X134258600Y-160343913D02*
X136454600Y-160343913D01*
X134345600Y-160303913D02*
X136367600Y-160303913D01*
X134441600Y-160263913D02*
X136271600Y-160263913D01*
X134551600Y-160223913D02*
X136161600Y-160223913D01*
X134679600Y-160183913D02*
X136033600Y-160183913D01*
X134838600Y-160143913D02*
X135874600Y-160143913D01*
X135072600Y-160103913D02*
X135640600Y-160103913D01*
X137976600Y-162704913D02*
G75*
G03*
X132736600Y-162704913I-2620000J0D01*
G01*
X132736600Y-162704913D02*
G75*
G03*
X137976600Y-162704913I2620000J0D01*
G01*
%TO.C,R17*%
X76708000Y-128334200D02*
X76708000Y-127564200D01*
X75338000Y-127564200D02*
X78078000Y-127564200D01*
X78078000Y-127564200D02*
X78078000Y-121024200D01*
X75338000Y-121024200D02*
X75338000Y-127564200D01*
X78078000Y-121024200D02*
X75338000Y-121024200D01*
X76708000Y-120254200D02*
X76708000Y-121024200D01*
%TO.C,J7*%
X144372600Y-88155800D02*
X144372600Y-57185800D01*
X156712600Y-88155800D02*
X144372600Y-88155800D01*
X143478262Y-78460800D02*
X143478262Y-77960800D01*
X143911275Y-78210800D02*
X143478262Y-78460800D01*
X143478262Y-77960800D02*
X143911275Y-78210800D01*
X144372600Y-57185800D02*
X156712600Y-57185800D01*
%TO.C,U9*%
X95362200Y-112430900D02*
X95362200Y-147650900D01*
X95362200Y-147650900D02*
X131612200Y-147650900D01*
X96362200Y-111430900D02*
X95362200Y-112430900D01*
X112487200Y-111430900D02*
X96362200Y-111430900D01*
X131612200Y-111430900D02*
X114487200Y-111430900D01*
X131612200Y-147650900D02*
X131612200Y-111430900D01*
%TO.C,U11*%
X155203200Y-134776000D02*
X134763200Y-134776000D01*
X134763200Y-134776000D02*
X134763200Y-140076000D01*
X155203200Y-136426000D02*
X155203200Y-134776000D01*
X155203200Y-140076000D02*
X155203200Y-138426000D01*
X134763200Y-140076000D02*
X155203200Y-140076000D01*
X155203200Y-136426000D02*
G75*
G03*
X155203200Y-138426000I0J-1000000D01*
G01*
%TO.C,C16*%
X141001000Y-79367600D02*
X141001000Y-80625600D01*
X139161000Y-79367600D02*
X139161000Y-80625600D01*
%TO.C,C18*%
X94334000Y-133512000D02*
X91594000Y-133512000D01*
X94334000Y-133512000D02*
X94334000Y-140752000D01*
X91594000Y-133512000D02*
X91594000Y-140752000D01*
X94334000Y-140752000D02*
X91594000Y-140752000D01*
%TO.C,D1*%
X70061800Y-148693800D02*
X70217800Y-148693800D01*
X72377800Y-148693800D02*
X72533800Y-148693800D01*
X70219192Y-145461466D02*
G75*
G03*
X70062285Y-148693799I1078608J-1672334D01*
G01*
X70217964Y-146092671D02*
G75*
G03*
X70217801Y-148174760I1079836J-1041129D01*
G01*
X72377799Y-148174760D02*
G75*
G03*
X72377636Y-146092671I-1079999J1040960D01*
G01*
X72533315Y-148693799D02*
G75*
G03*
X72376408Y-145461466I-1235515J1559999D01*
G01*
%TO.C,C15*%
X141051800Y-71874600D02*
X141051800Y-73132600D01*
X139211800Y-71874600D02*
X139211800Y-73132600D01*
%TO.C,R24*%
X147834600Y-163157800D02*
X154374600Y-163157800D01*
X147834600Y-163487800D02*
X147834600Y-163157800D01*
X147834600Y-165567800D02*
X147834600Y-165897800D01*
X147834600Y-165897800D02*
X154374600Y-165897800D01*
X154374600Y-163157800D02*
X154374600Y-163487800D01*
X154374600Y-165897800D02*
X154374600Y-165567800D01*
%TO.C,RN2*%
X156227600Y-113908600D02*
X156227600Y-111108600D01*
X156227600Y-111108600D02*
X138107600Y-111108600D01*
X153517600Y-113908600D02*
X153517600Y-111108600D01*
X138107600Y-113908600D02*
X156227600Y-113908600D01*
X138107600Y-111108600D02*
X138107600Y-113908600D01*
%TO.C,C14*%
X133402400Y-58419800D02*
X136142400Y-58419800D01*
X133402400Y-58419800D02*
X133402400Y-51179800D01*
X136142400Y-58419800D02*
X136142400Y-51179800D01*
X133402400Y-51179800D02*
X136142400Y-51179800D01*
%TO.C,SW1*%
X68577000Y-158756400D02*
X72427000Y-158756400D01*
X75067000Y-158756400D02*
X75367000Y-158756400D01*
X75367000Y-157866400D02*
X75367000Y-158756400D01*
X75367000Y-157866400D02*
X75017000Y-157866400D01*
X72817000Y-157376400D02*
X72817000Y-152396400D01*
X75367000Y-151906400D02*
X75017000Y-151906400D01*
X68577000Y-151016400D02*
X68577000Y-158756400D01*
X72427000Y-151016400D02*
X68577000Y-151016400D01*
X75067000Y-151016400D02*
X75367000Y-151016400D01*
X75367000Y-151016400D02*
X75367000Y-151906400D01*
%TO.C,R27*%
X143673450Y-174492600D02*
X143673450Y-167952600D01*
X144003450Y-174492600D02*
X143673450Y-174492600D01*
X146083450Y-174492600D02*
X146413450Y-174492600D01*
X146413450Y-174492600D02*
X146413450Y-167952600D01*
X143673450Y-167952600D02*
X144003450Y-167952600D01*
X146413450Y-167952600D02*
X146083450Y-167952600D01*
%TO.C,C25*%
X127709800Y-169555400D02*
X127709800Y-166815400D01*
X127709800Y-169555400D02*
X120469800Y-169555400D01*
X127709800Y-166815400D02*
X120469800Y-166815400D01*
X120469800Y-169555400D02*
X120469800Y-166815400D01*
%TO.C,J2*%
X130575000Y-182967000D02*
X130575000Y-178967000D01*
X130285000Y-183997000D02*
X130285000Y-177977000D01*
X130285000Y-177977000D02*
X124985000Y-177977000D01*
X129705000Y-183997000D02*
X129705000Y-183397000D01*
X129705000Y-183397000D02*
X128105000Y-183397000D01*
X128905000Y-178977000D02*
X128655000Y-179507000D01*
X128905000Y-178977000D02*
X126365000Y-178977000D01*
X128905000Y-177977000D02*
X128905000Y-178977000D01*
X128655000Y-179507000D02*
X126615000Y-179507000D01*
X128655000Y-177977000D02*
X128655000Y-178977000D01*
X128105000Y-183397000D02*
X128105000Y-183997000D01*
X127165000Y-183997000D02*
X127165000Y-183397000D01*
X127165000Y-183397000D02*
X125565000Y-183397000D01*
X126615000Y-179507000D02*
X126365000Y-178977000D01*
X126615000Y-177977000D02*
X126615000Y-178977000D01*
X126365000Y-178977000D02*
X126365000Y-177977000D01*
X125565000Y-183397000D02*
X125565000Y-183997000D01*
X124985000Y-183997000D02*
X130285000Y-183997000D01*
X124985000Y-177977000D02*
X124985000Y-183997000D01*
%TO.C,L2*%
X128830200Y-154012200D02*
X128410200Y-154012200D01*
X128410200Y-155782200D02*
X128410200Y-152242200D01*
X128410200Y-152242200D02*
X121170200Y-152242200D01*
X121170200Y-155782200D02*
X128410200Y-155782200D01*
X121170200Y-152242200D02*
X121170200Y-155782200D01*
X120750200Y-154012200D02*
X121170200Y-154012200D01*
%TO.C,R5*%
X132284800Y-151287800D02*
X132284800Y-144747800D01*
X132614800Y-151287800D02*
X132284800Y-151287800D01*
X134694800Y-151287800D02*
X135024800Y-151287800D01*
X135024800Y-151287800D02*
X135024800Y-144747800D01*
X132284800Y-144747800D02*
X132614800Y-144747800D01*
X135024800Y-144747800D02*
X134694800Y-144747800D01*
%TO.C,U5*%
X79731400Y-164922200D02*
X115411400Y-164922200D01*
X115411400Y-164922200D02*
X115411400Y-152002200D01*
X79731400Y-159462200D02*
X79731400Y-164922200D01*
X79731400Y-152002200D02*
X79731400Y-157462200D01*
X115411400Y-152002200D02*
X79731400Y-152002200D01*
X79731400Y-159462200D02*
G75*
G03*
X79731400Y-157462200I0J1000000D01*
G01*
%TO.C,C19*%
X94769800Y-117637800D02*
X94769800Y-114897800D01*
X94769800Y-117637800D02*
X87529800Y-117637800D01*
X94769800Y-114897800D02*
X87529800Y-114897800D01*
X87529800Y-117637800D02*
X87529800Y-114897800D01*
%TO.C,R18*%
X155270200Y-90841000D02*
X155270200Y-91611000D01*
X156640200Y-91611000D02*
X153900200Y-91611000D01*
X153900200Y-91611000D02*
X153900200Y-98151000D01*
X156640200Y-98151000D02*
X156640200Y-91611000D01*
X153900200Y-98151000D02*
X156640200Y-98151000D01*
X155270200Y-98921000D02*
X155270200Y-98151000D01*
%TO.C,R1*%
X77290800Y-136892600D02*
X78060800Y-136892600D01*
X78060800Y-135522600D02*
X78060800Y-138262600D01*
X78060800Y-138262600D02*
X84600800Y-138262600D01*
X84600800Y-135522600D02*
X78060800Y-135522600D01*
X84600800Y-138262600D02*
X84600800Y-135522600D01*
X85370800Y-136892600D02*
X84600800Y-136892600D01*
%TO.C,R26*%
X143686200Y-150640600D02*
X143686200Y-157180600D01*
X143356200Y-150640600D02*
X143686200Y-150640600D01*
X141276200Y-150640600D02*
X140946200Y-150640600D01*
X140946200Y-150640600D02*
X140946200Y-157180600D01*
X143686200Y-157180600D02*
X143356200Y-157180600D01*
X140946200Y-157180600D02*
X141276200Y-157180600D01*
%TO.C,C6*%
X134171550Y-172727400D02*
X134486550Y-172727400D01*
X134171550Y-172727400D02*
X134171550Y-167787400D01*
X136596550Y-172727400D02*
X136911550Y-172727400D01*
X136911550Y-172727400D02*
X136911550Y-167787400D01*
X134171550Y-167787400D02*
X134486550Y-167787400D01*
X136596550Y-167787400D02*
X136911550Y-167787400D01*
%TO.C,R2*%
X77290800Y-133717600D02*
X78060800Y-133717600D01*
X78060800Y-132347600D02*
X78060800Y-135087600D01*
X78060800Y-135087600D02*
X84600800Y-135087600D01*
X84600800Y-132347600D02*
X78060800Y-132347600D01*
X84600800Y-135087600D02*
X84600800Y-132347600D01*
X85370800Y-133717600D02*
X84600800Y-133717600D01*
D10*
%TO.C,SW3*%
X73311800Y-133913400D02*
X73311800Y-142513400D01*
X68711800Y-133913400D02*
X68711800Y-136113400D01*
X68711800Y-140213400D02*
X68711800Y-142513400D01*
D12*
%TO.C,C12*%
X105538600Y-58369000D02*
X108278600Y-58369000D01*
X105538600Y-58369000D02*
X105538600Y-51129000D01*
X108278600Y-58369000D02*
X108278600Y-51129000D01*
X105538600Y-51129000D02*
X108278600Y-51129000D01*
%TO.C,R15*%
X82778600Y-128359600D02*
X82778600Y-127589600D01*
X81408600Y-127589600D02*
X84148600Y-127589600D01*
X84148600Y-127589600D02*
X84148600Y-121049600D01*
X81408600Y-121049600D02*
X81408600Y-127589600D01*
X84148600Y-121049600D02*
X81408600Y-121049600D01*
X82778600Y-120279600D02*
X82778600Y-121049600D01*
%TO.C,C11*%
X79271800Y-149858800D02*
X76531800Y-149858800D01*
X79271800Y-149858800D02*
X79271800Y-157098800D01*
X76531800Y-149858800D02*
X76531800Y-157098800D01*
X79271800Y-157098800D02*
X76531800Y-157098800D01*
%TO.C,C30*%
X129142312Y-84058800D02*
X129642312Y-84058800D01*
X129392312Y-83808800D02*
X129392312Y-84308800D01*
X131947087Y-82953800D02*
X131947087Y-88113800D01*
X131987087Y-82953800D02*
X131987087Y-88113800D01*
X132027087Y-82954800D02*
X132027087Y-88112800D01*
X132067087Y-82955800D02*
X132067087Y-88111800D01*
X132107087Y-82957800D02*
X132107087Y-88109800D01*
X132147087Y-82960800D02*
X132147087Y-88106800D01*
X132187087Y-82964800D02*
X132187087Y-84493800D01*
X132187087Y-86573800D02*
X132187087Y-88102800D01*
X132227087Y-82968800D02*
X132227087Y-84493800D01*
X132227087Y-86573800D02*
X132227087Y-88098800D01*
X132267087Y-82972800D02*
X132267087Y-84493800D01*
X132267087Y-86573800D02*
X132267087Y-88094800D01*
X132307087Y-82977800D02*
X132307087Y-84493800D01*
X132307087Y-86573800D02*
X132307087Y-88089800D01*
X132347087Y-82983800D02*
X132347087Y-84493800D01*
X132347087Y-86573800D02*
X132347087Y-88083800D01*
X132387087Y-82990800D02*
X132387087Y-84493800D01*
X132387087Y-86573800D02*
X132387087Y-88076800D01*
X132427087Y-82997800D02*
X132427087Y-84493800D01*
X132427087Y-86573800D02*
X132427087Y-88069800D01*
X132467087Y-83005800D02*
X132467087Y-84493800D01*
X132467087Y-86573800D02*
X132467087Y-88061800D01*
X132507087Y-83013800D02*
X132507087Y-84493800D01*
X132507087Y-86573800D02*
X132507087Y-88053800D01*
X132547087Y-83022800D02*
X132547087Y-84493800D01*
X132547087Y-86573800D02*
X132547087Y-88044800D01*
X132587087Y-83032800D02*
X132587087Y-84493800D01*
X132587087Y-86573800D02*
X132587087Y-88034800D01*
X132627087Y-83042800D02*
X132627087Y-84493800D01*
X132627087Y-86573800D02*
X132627087Y-88024800D01*
X132668087Y-83053800D02*
X132668087Y-84493800D01*
X132668087Y-86573800D02*
X132668087Y-88013800D01*
X132708087Y-83065800D02*
X132708087Y-84493800D01*
X132708087Y-86573800D02*
X132708087Y-88001800D01*
X132748087Y-83078800D02*
X132748087Y-84493800D01*
X132748087Y-86573800D02*
X132748087Y-87988800D01*
X132788087Y-83091800D02*
X132788087Y-84493800D01*
X132788087Y-86573800D02*
X132788087Y-87975800D01*
X132828087Y-83105800D02*
X132828087Y-84493800D01*
X132828087Y-86573800D02*
X132828087Y-87961800D01*
X132868087Y-83119800D02*
X132868087Y-84493800D01*
X132868087Y-86573800D02*
X132868087Y-87947800D01*
X132908087Y-83135800D02*
X132908087Y-84493800D01*
X132908087Y-86573800D02*
X132908087Y-87931800D01*
X132948087Y-83151800D02*
X132948087Y-84493800D01*
X132948087Y-86573800D02*
X132948087Y-87915800D01*
X132988087Y-83168800D02*
X132988087Y-84493800D01*
X132988087Y-86573800D02*
X132988087Y-87898800D01*
X133028087Y-83185800D02*
X133028087Y-84493800D01*
X133028087Y-86573800D02*
X133028087Y-87881800D01*
X133068087Y-83204800D02*
X133068087Y-84493800D01*
X133068087Y-86573800D02*
X133068087Y-87862800D01*
X133108087Y-83223800D02*
X133108087Y-84493800D01*
X133108087Y-86573800D02*
X133108087Y-87843800D01*
X133148087Y-83243800D02*
X133148087Y-84493800D01*
X133148087Y-86573800D02*
X133148087Y-87823800D01*
X133188087Y-83265800D02*
X133188087Y-84493800D01*
X133188087Y-86573800D02*
X133188087Y-87801800D01*
X133228087Y-83286800D02*
X133228087Y-84493800D01*
X133228087Y-86573800D02*
X133228087Y-87780800D01*
X133268087Y-83309800D02*
X133268087Y-84493800D01*
X133268087Y-86573800D02*
X133268087Y-87757800D01*
X133308087Y-83333800D02*
X133308087Y-84493800D01*
X133308087Y-86573800D02*
X133308087Y-87733800D01*
X133348087Y-83358800D02*
X133348087Y-84493800D01*
X133348087Y-86573800D02*
X133348087Y-87708800D01*
X133388087Y-83384800D02*
X133388087Y-84493800D01*
X133388087Y-86573800D02*
X133388087Y-87682800D01*
X133428087Y-83411800D02*
X133428087Y-84493800D01*
X133428087Y-86573800D02*
X133428087Y-87655800D01*
X133468087Y-83438800D02*
X133468087Y-84493800D01*
X133468087Y-86573800D02*
X133468087Y-87628800D01*
X133508087Y-83468800D02*
X133508087Y-84493800D01*
X133508087Y-86573800D02*
X133508087Y-87598800D01*
X133548087Y-83498800D02*
X133548087Y-84493800D01*
X133548087Y-86573800D02*
X133548087Y-87568800D01*
X133588087Y-83529800D02*
X133588087Y-84493800D01*
X133588087Y-86573800D02*
X133588087Y-87537800D01*
X133628087Y-83562800D02*
X133628087Y-84493800D01*
X133628087Y-86573800D02*
X133628087Y-87504800D01*
X133668087Y-83596800D02*
X133668087Y-84493800D01*
X133668087Y-86573800D02*
X133668087Y-87470800D01*
X133708087Y-83632800D02*
X133708087Y-84493800D01*
X133708087Y-86573800D02*
X133708087Y-87434800D01*
X133748087Y-83669800D02*
X133748087Y-84493800D01*
X133748087Y-86573800D02*
X133748087Y-87397800D01*
X133788087Y-83707800D02*
X133788087Y-84493800D01*
X133788087Y-86573800D02*
X133788087Y-87359800D01*
X133828087Y-83748800D02*
X133828087Y-84493800D01*
X133828087Y-86573800D02*
X133828087Y-87318800D01*
X133868087Y-83790800D02*
X133868087Y-84493800D01*
X133868087Y-86573800D02*
X133868087Y-87276800D01*
X133908087Y-83834800D02*
X133908087Y-84493800D01*
X133908087Y-86573800D02*
X133908087Y-87232800D01*
X133948087Y-83880800D02*
X133948087Y-84493800D01*
X133948087Y-86573800D02*
X133948087Y-87186800D01*
X133988087Y-83928800D02*
X133988087Y-84493800D01*
X133988087Y-86573800D02*
X133988087Y-87138800D01*
X134028087Y-83979800D02*
X134028087Y-84493800D01*
X134028087Y-86573800D02*
X134028087Y-87087800D01*
X134068087Y-84033800D02*
X134068087Y-84493800D01*
X134068087Y-86573800D02*
X134068087Y-87033800D01*
X134108087Y-84090800D02*
X134108087Y-84493800D01*
X134108087Y-86573800D02*
X134108087Y-86976800D01*
X134148087Y-84150800D02*
X134148087Y-84493800D01*
X134148087Y-86573800D02*
X134148087Y-86916800D01*
X134188087Y-84214800D02*
X134188087Y-84493800D01*
X134188087Y-86573800D02*
X134188087Y-86852800D01*
X134228087Y-84282800D02*
X134228087Y-84493800D01*
X134228087Y-86573800D02*
X134228087Y-86784800D01*
X134268087Y-84355800D02*
X134268087Y-86711800D01*
X134308087Y-84435800D02*
X134308087Y-86631800D01*
X134348087Y-84522800D02*
X134348087Y-86544800D01*
X134388087Y-84618800D02*
X134388087Y-86448800D01*
X134428087Y-84728800D02*
X134428087Y-86338800D01*
X134468087Y-84856800D02*
X134468087Y-86210800D01*
X134508087Y-85015800D02*
X134508087Y-86051800D01*
X134548087Y-85249800D02*
X134548087Y-85817800D01*
X134567087Y-85533800D02*
G75*
G03*
X129327087Y-85533800I-2620000J0D01*
G01*
X129327087Y-85533800D02*
G75*
G03*
X134567087Y-85533800I2620000J0D01*
G01*
%TO.C,J10*%
X89096800Y-143972600D02*
X89096800Y-139972600D01*
X88806800Y-145002600D02*
X88806800Y-138982600D01*
X88806800Y-138982600D02*
X83506800Y-138982600D01*
X88226800Y-145002600D02*
X88226800Y-144402600D01*
X88226800Y-144402600D02*
X86626800Y-144402600D01*
X87426800Y-139982600D02*
X87176800Y-140512600D01*
X87426800Y-139982600D02*
X84886800Y-139982600D01*
X87426800Y-138982600D02*
X87426800Y-139982600D01*
X87176800Y-140512600D02*
X85136800Y-140512600D01*
X87176800Y-138982600D02*
X87176800Y-139982600D01*
X86626800Y-144402600D02*
X86626800Y-145002600D01*
X85686800Y-145002600D02*
X85686800Y-144402600D01*
X85686800Y-144402600D02*
X84086800Y-144402600D01*
X85136800Y-140512600D02*
X84886800Y-139982600D01*
X85136800Y-138982600D02*
X85136800Y-139982600D01*
X84886800Y-139982600D02*
X84886800Y-138982600D01*
X84086800Y-144402600D02*
X84086800Y-145002600D01*
X83506800Y-145002600D02*
X88806800Y-145002600D01*
X83506800Y-138982600D02*
X83506800Y-145002600D01*
%TO.C,R25*%
X140078850Y-166987400D02*
X140078850Y-173527400D01*
X139748850Y-166987400D02*
X140078850Y-166987400D01*
X137668850Y-166987400D02*
X137338850Y-166987400D01*
X137338850Y-166987400D02*
X137338850Y-173527400D01*
X140078850Y-173527400D02*
X139748850Y-173527400D01*
X137338850Y-173527400D02*
X137668850Y-173527400D01*
%TO.C,C21*%
X156614800Y-101370200D02*
X153874800Y-101370200D01*
X156614800Y-101370200D02*
X156614800Y-108610200D01*
X153874800Y-101370200D02*
X153874800Y-108610200D01*
X156614800Y-108610200D02*
X153874800Y-108610200D01*
D13*
%TO.C,J4*%
X82638400Y-96491800D02*
X82638400Y-105841800D01*
X82638400Y-105841800D02*
X141948400Y-105841800D01*
X141948400Y-96491800D02*
X82638400Y-96491800D01*
X141948400Y-105841800D02*
X141948400Y-96491800D01*
D12*
%TO.C,C23*%
X147434800Y-132369800D02*
X147434800Y-129629800D01*
X147434800Y-132369800D02*
X140194800Y-132369800D01*
X147434800Y-129629800D02*
X140194800Y-129629800D01*
X140194800Y-132369800D02*
X140194800Y-129629800D01*
%TO.C,C29*%
X128410200Y-88224600D02*
X128410200Y-85484600D01*
X128410200Y-88224600D02*
X121170200Y-88224600D01*
X128410200Y-85484600D02*
X121170200Y-85484600D01*
X121170200Y-88224600D02*
X121170200Y-85484600D01*
D13*
%TO.C,SW2*%
X70865500Y-180369600D02*
X83565500Y-180369600D01*
X70865500Y-183719600D02*
X70865500Y-180369600D01*
X72215500Y-186719600D02*
X82215500Y-186719600D01*
X83565500Y-180369600D02*
X83565500Y-183719600D01*
D15*
X83715500Y-176089600D02*
X83715500Y-176089600D01*
X83715500Y-176289600D02*
X83715500Y-176289600D01*
X83715500Y-176289600D02*
G75*
G03*
X83715500Y-176089600I0J100000D01*
G01*
X83715500Y-176089600D02*
G75*
G03*
X83715500Y-176289600I0J-100000D01*
G01*
D12*
%TO.C,U8*%
X82032800Y-57576800D02*
X105012800Y-57576800D01*
X105012800Y-57576800D02*
X105012800Y-52276800D01*
X82032800Y-55926800D02*
X82032800Y-57576800D01*
X82032800Y-52276800D02*
X82032800Y-53926800D01*
X105012800Y-52276800D02*
X82032800Y-52276800D01*
X82032800Y-55926800D02*
G75*
G03*
X82032800Y-53926800I0J1000000D01*
G01*
%TO.C,C5*%
X125604800Y-159989913D02*
X125604800Y-160489913D01*
X125854800Y-160239913D02*
X125354800Y-160239913D01*
X126709800Y-162794688D02*
X121549800Y-162794688D01*
X126709800Y-162834688D02*
X121549800Y-162834688D01*
X126708800Y-162874688D02*
X121550800Y-162874688D01*
X126707800Y-162914688D02*
X121551800Y-162914688D01*
X126705800Y-162954688D02*
X121553800Y-162954688D01*
X126702800Y-162994688D02*
X121556800Y-162994688D01*
X126698800Y-163034688D02*
X125169800Y-163034688D01*
X123089800Y-163034688D02*
X121560800Y-163034688D01*
X126694800Y-163074688D02*
X125169800Y-163074688D01*
X123089800Y-163074688D02*
X121564800Y-163074688D01*
X126690800Y-163114688D02*
X125169800Y-163114688D01*
X123089800Y-163114688D02*
X121568800Y-163114688D01*
X126685800Y-163154688D02*
X125169800Y-163154688D01*
X123089800Y-163154688D02*
X121573800Y-163154688D01*
X126679800Y-163194688D02*
X125169800Y-163194688D01*
X123089800Y-163194688D02*
X121579800Y-163194688D01*
X126672800Y-163234688D02*
X125169800Y-163234688D01*
X123089800Y-163234688D02*
X121586800Y-163234688D01*
X126665800Y-163274688D02*
X125169800Y-163274688D01*
X123089800Y-163274688D02*
X121593800Y-163274688D01*
X126657800Y-163314688D02*
X125169800Y-163314688D01*
X123089800Y-163314688D02*
X121601800Y-163314688D01*
X126649800Y-163354688D02*
X125169800Y-163354688D01*
X123089800Y-163354688D02*
X121609800Y-163354688D01*
X126640800Y-163394688D02*
X125169800Y-163394688D01*
X123089800Y-163394688D02*
X121618800Y-163394688D01*
X126630800Y-163434688D02*
X125169800Y-163434688D01*
X123089800Y-163434688D02*
X121628800Y-163434688D01*
X126620800Y-163474688D02*
X125169800Y-163474688D01*
X123089800Y-163474688D02*
X121638800Y-163474688D01*
X126609800Y-163515688D02*
X125169800Y-163515688D01*
X123089800Y-163515688D02*
X121649800Y-163515688D01*
X126597800Y-163555688D02*
X125169800Y-163555688D01*
X123089800Y-163555688D02*
X121661800Y-163555688D01*
X126584800Y-163595688D02*
X125169800Y-163595688D01*
X123089800Y-163595688D02*
X121674800Y-163595688D01*
X126571800Y-163635688D02*
X125169800Y-163635688D01*
X123089800Y-163635688D02*
X121687800Y-163635688D01*
X126557800Y-163675688D02*
X125169800Y-163675688D01*
X123089800Y-163675688D02*
X121701800Y-163675688D01*
X126543800Y-163715688D02*
X125169800Y-163715688D01*
X123089800Y-163715688D02*
X121715800Y-163715688D01*
X126527800Y-163755688D02*
X125169800Y-163755688D01*
X123089800Y-163755688D02*
X121731800Y-163755688D01*
X126511800Y-163795688D02*
X125169800Y-163795688D01*
X123089800Y-163795688D02*
X121747800Y-163795688D01*
X126494800Y-163835688D02*
X125169800Y-163835688D01*
X123089800Y-163835688D02*
X121764800Y-163835688D01*
X126477800Y-163875688D02*
X125169800Y-163875688D01*
X123089800Y-163875688D02*
X121781800Y-163875688D01*
X126458800Y-163915688D02*
X125169800Y-163915688D01*
X123089800Y-163915688D02*
X121800800Y-163915688D01*
X126439800Y-163955688D02*
X125169800Y-163955688D01*
X123089800Y-163955688D02*
X121819800Y-163955688D01*
X126419800Y-163995688D02*
X125169800Y-163995688D01*
X123089800Y-163995688D02*
X121839800Y-163995688D01*
X126397800Y-164035688D02*
X125169800Y-164035688D01*
X123089800Y-164035688D02*
X121861800Y-164035688D01*
X126376800Y-164075688D02*
X125169800Y-164075688D01*
X123089800Y-164075688D02*
X121882800Y-164075688D01*
X126353800Y-164115688D02*
X125169800Y-164115688D01*
X123089800Y-164115688D02*
X121905800Y-164115688D01*
X126329800Y-164155688D02*
X125169800Y-164155688D01*
X123089800Y-164155688D02*
X121929800Y-164155688D01*
X126304800Y-164195688D02*
X125169800Y-164195688D01*
X123089800Y-164195688D02*
X121954800Y-164195688D01*
X126278800Y-164235688D02*
X125169800Y-164235688D01*
X123089800Y-164235688D02*
X121980800Y-164235688D01*
X126251800Y-164275688D02*
X125169800Y-164275688D01*
X123089800Y-164275688D02*
X122007800Y-164275688D01*
X126224800Y-164315688D02*
X125169800Y-164315688D01*
X123089800Y-164315688D02*
X122034800Y-164315688D01*
X126194800Y-164355688D02*
X125169800Y-164355688D01*
X123089800Y-164355688D02*
X122064800Y-164355688D01*
X126164800Y-164395688D02*
X125169800Y-164395688D01*
X123089800Y-164395688D02*
X122094800Y-164395688D01*
X126133800Y-164435688D02*
X125169800Y-164435688D01*
X123089800Y-164435688D02*
X122125800Y-164435688D01*
X126100800Y-164475688D02*
X125169800Y-164475688D01*
X123089800Y-164475688D02*
X122158800Y-164475688D01*
X126066800Y-164515688D02*
X125169800Y-164515688D01*
X123089800Y-164515688D02*
X122192800Y-164515688D01*
X126030800Y-164555688D02*
X125169800Y-164555688D01*
X123089800Y-164555688D02*
X122228800Y-164555688D01*
X125993800Y-164595688D02*
X125169800Y-164595688D01*
X123089800Y-164595688D02*
X122265800Y-164595688D01*
X125955800Y-164635688D02*
X125169800Y-164635688D01*
X123089800Y-164635688D02*
X122303800Y-164635688D01*
X125914800Y-164675688D02*
X125169800Y-164675688D01*
X123089800Y-164675688D02*
X122344800Y-164675688D01*
X125872800Y-164715688D02*
X125169800Y-164715688D01*
X123089800Y-164715688D02*
X122386800Y-164715688D01*
X125828800Y-164755688D02*
X125169800Y-164755688D01*
X123089800Y-164755688D02*
X122430800Y-164755688D01*
X125782800Y-164795688D02*
X125169800Y-164795688D01*
X123089800Y-164795688D02*
X122476800Y-164795688D01*
X125734800Y-164835688D02*
X125169800Y-164835688D01*
X123089800Y-164835688D02*
X122524800Y-164835688D01*
X125683800Y-164875688D02*
X125169800Y-164875688D01*
X123089800Y-164875688D02*
X122575800Y-164875688D01*
X125629800Y-164915688D02*
X125169800Y-164915688D01*
X123089800Y-164915688D02*
X122629800Y-164915688D01*
X125572800Y-164955688D02*
X125169800Y-164955688D01*
X123089800Y-164955688D02*
X122686800Y-164955688D01*
X125512800Y-164995688D02*
X125169800Y-164995688D01*
X123089800Y-164995688D02*
X122746800Y-164995688D01*
X125448800Y-165035688D02*
X125169800Y-165035688D01*
X123089800Y-165035688D02*
X122810800Y-165035688D01*
X125380800Y-165075688D02*
X125169800Y-165075688D01*
X123089800Y-165075688D02*
X122878800Y-165075688D01*
X125307800Y-165115688D02*
X122951800Y-165115688D01*
X125227800Y-165155688D02*
X123031800Y-165155688D01*
X125140800Y-165195688D02*
X123118800Y-165195688D01*
X125044800Y-165235688D02*
X123214800Y-165235688D01*
X124934800Y-165275688D02*
X123324800Y-165275688D01*
X124806800Y-165315688D02*
X123452800Y-165315688D01*
X124647800Y-165355688D02*
X123611800Y-165355688D01*
X124413800Y-165395688D02*
X123845800Y-165395688D01*
X126749800Y-162794688D02*
G75*
G03*
X121509800Y-162794688I-2620000J0D01*
G01*
X121509800Y-162794688D02*
G75*
G03*
X126749800Y-162794688I2620000J0D01*
G01*
%TO.C,C1*%
X87834800Y-131404800D02*
X90574800Y-131404800D01*
X87834800Y-131404800D02*
X87834800Y-124164800D01*
X90574800Y-131404800D02*
X90574800Y-124164800D01*
X87834800Y-124164800D02*
X90574800Y-124164800D01*
%TO.C,Q1*%
X141931800Y-57640800D02*
X138331800Y-57640800D01*
X141271800Y-61840799D02*
G75*
G03*
X142498998Y-60594642I-1140000J2349999D01*
G01*
X142455983Y-58368005D02*
G75*
G03*
X141931799Y-57640801I-2324183J-1122795D01*
G01*
X137776343Y-60589171D02*
G75*
G03*
X139021800Y-61840800I2355457J1098371D01*
G01*
X138331801Y-57640801D02*
G75*
G03*
X137807617Y-58368005I1799999J-1849999D01*
G01*
%TO.C,C26*%
X138155825Y-161274800D02*
X138655825Y-161274800D01*
X138405825Y-161024800D02*
X138405825Y-161524800D01*
X140960600Y-160169800D02*
X140960600Y-161709800D01*
X140960600Y-163789800D02*
X140960600Y-165329800D01*
X141000600Y-160169800D02*
X141000600Y-161709800D01*
X141000600Y-163789800D02*
X141000600Y-165329800D01*
X141040600Y-160170800D02*
X141040600Y-161709800D01*
X141040600Y-163789800D02*
X141040600Y-165328800D01*
X141080600Y-160171800D02*
X141080600Y-161709800D01*
X141080600Y-163789800D02*
X141080600Y-165327800D01*
X141120600Y-160173800D02*
X141120600Y-161709800D01*
X141120600Y-163789800D02*
X141120600Y-165325800D01*
X141160600Y-160176800D02*
X141160600Y-161709800D01*
X141160600Y-163789800D02*
X141160600Y-165322800D01*
X141200600Y-160180800D02*
X141200600Y-161709800D01*
X141200600Y-163789800D02*
X141200600Y-165318800D01*
X141240600Y-160184800D02*
X141240600Y-161709800D01*
X141240600Y-163789800D02*
X141240600Y-165314800D01*
X141280600Y-160188800D02*
X141280600Y-161709800D01*
X141280600Y-163789800D02*
X141280600Y-165310800D01*
X141320600Y-160193800D02*
X141320600Y-161709800D01*
X141320600Y-163789800D02*
X141320600Y-165305800D01*
X141360600Y-160199800D02*
X141360600Y-161709800D01*
X141360600Y-163789800D02*
X141360600Y-165299800D01*
X141400600Y-160206800D02*
X141400600Y-161709800D01*
X141400600Y-163789800D02*
X141400600Y-165292800D01*
X141440600Y-160213800D02*
X141440600Y-161709800D01*
X141440600Y-163789800D02*
X141440600Y-165285800D01*
X141480600Y-160221800D02*
X141480600Y-161709800D01*
X141480600Y-163789800D02*
X141480600Y-165277800D01*
X141520600Y-160229800D02*
X141520600Y-161709800D01*
X141520600Y-163789800D02*
X141520600Y-165269800D01*
X141560600Y-160238800D02*
X141560600Y-161709800D01*
X141560600Y-163789800D02*
X141560600Y-165260800D01*
X141600600Y-160248800D02*
X141600600Y-161709800D01*
X141600600Y-163789800D02*
X141600600Y-165250800D01*
X141640600Y-160258800D02*
X141640600Y-161709800D01*
X141640600Y-163789800D02*
X141640600Y-165240800D01*
X141681600Y-160269800D02*
X141681600Y-161709800D01*
X141681600Y-163789800D02*
X141681600Y-165229800D01*
X141721600Y-160281800D02*
X141721600Y-161709800D01*
X141721600Y-163789800D02*
X141721600Y-165217800D01*
X141761600Y-160294800D02*
X141761600Y-161709800D01*
X141761600Y-163789800D02*
X141761600Y-165204800D01*
X141801600Y-160307800D02*
X141801600Y-161709800D01*
X141801600Y-163789800D02*
X141801600Y-165191800D01*
X141841600Y-160321800D02*
X141841600Y-161709800D01*
X141841600Y-163789800D02*
X141841600Y-165177800D01*
X141881600Y-160335800D02*
X141881600Y-161709800D01*
X141881600Y-163789800D02*
X141881600Y-165163800D01*
X141921600Y-160351800D02*
X141921600Y-161709800D01*
X141921600Y-163789800D02*
X141921600Y-165147800D01*
X141961600Y-160367800D02*
X141961600Y-161709800D01*
X141961600Y-163789800D02*
X141961600Y-165131800D01*
X142001600Y-160384800D02*
X142001600Y-161709800D01*
X142001600Y-163789800D02*
X142001600Y-165114800D01*
X142041600Y-160401800D02*
X142041600Y-161709800D01*
X142041600Y-163789800D02*
X142041600Y-165097800D01*
X142081600Y-160420800D02*
X142081600Y-161709800D01*
X142081600Y-163789800D02*
X142081600Y-165078800D01*
X142121600Y-160439800D02*
X142121600Y-161709800D01*
X142121600Y-163789800D02*
X142121600Y-165059800D01*
X142161600Y-160459800D02*
X142161600Y-161709800D01*
X142161600Y-163789800D02*
X142161600Y-165039800D01*
X142201600Y-160481800D02*
X142201600Y-161709800D01*
X142201600Y-163789800D02*
X142201600Y-165017800D01*
X142241600Y-160502800D02*
X142241600Y-161709800D01*
X142241600Y-163789800D02*
X142241600Y-164996800D01*
X142281600Y-160525800D02*
X142281600Y-161709800D01*
X142281600Y-163789800D02*
X142281600Y-164973800D01*
X142321600Y-160549800D02*
X142321600Y-161709800D01*
X142321600Y-163789800D02*
X142321600Y-164949800D01*
X142361600Y-160574800D02*
X142361600Y-161709800D01*
X142361600Y-163789800D02*
X142361600Y-164924800D01*
X142401600Y-160600800D02*
X142401600Y-161709800D01*
X142401600Y-163789800D02*
X142401600Y-164898800D01*
X142441600Y-160627800D02*
X142441600Y-161709800D01*
X142441600Y-163789800D02*
X142441600Y-164871800D01*
X142481600Y-160654800D02*
X142481600Y-161709800D01*
X142481600Y-163789800D02*
X142481600Y-164844800D01*
X142521600Y-160684800D02*
X142521600Y-161709800D01*
X142521600Y-163789800D02*
X142521600Y-164814800D01*
X142561600Y-160714800D02*
X142561600Y-161709800D01*
X142561600Y-163789800D02*
X142561600Y-164784800D01*
X142601600Y-160745800D02*
X142601600Y-161709800D01*
X142601600Y-163789800D02*
X142601600Y-164753800D01*
X142641600Y-160778800D02*
X142641600Y-161709800D01*
X142641600Y-163789800D02*
X142641600Y-164720800D01*
X142681600Y-160812800D02*
X142681600Y-161709800D01*
X142681600Y-163789800D02*
X142681600Y-164686800D01*
X142721600Y-160848800D02*
X142721600Y-161709800D01*
X142721600Y-163789800D02*
X142721600Y-164650800D01*
X142761600Y-160885800D02*
X142761600Y-161709800D01*
X142761600Y-163789800D02*
X142761600Y-164613800D01*
X142801600Y-160923800D02*
X142801600Y-161709800D01*
X142801600Y-163789800D02*
X142801600Y-164575800D01*
X142841600Y-160964800D02*
X142841600Y-161709800D01*
X142841600Y-163789800D02*
X142841600Y-164534800D01*
X142881600Y-161006800D02*
X142881600Y-161709800D01*
X142881600Y-163789800D02*
X142881600Y-164492800D01*
X142921600Y-161050800D02*
X142921600Y-161709800D01*
X142921600Y-163789800D02*
X142921600Y-164448800D01*
X142961600Y-161096800D02*
X142961600Y-161709800D01*
X142961600Y-163789800D02*
X142961600Y-164402800D01*
X143001600Y-161144800D02*
X143001600Y-164354800D01*
X143041600Y-161195800D02*
X143041600Y-164303800D01*
X143081600Y-161249800D02*
X143081600Y-164249800D01*
X143121600Y-161306800D02*
X143121600Y-164192800D01*
X143161600Y-161366800D02*
X143161600Y-164132800D01*
X143201600Y-161430800D02*
X143201600Y-164068800D01*
X143241600Y-161498800D02*
X143241600Y-164000800D01*
X143281600Y-161571800D02*
X143281600Y-163927800D01*
X143321600Y-161651800D02*
X143321600Y-163847800D01*
X143361600Y-161738800D02*
X143361600Y-163760800D01*
X143401600Y-161834800D02*
X143401600Y-163664800D01*
X143441600Y-161944800D02*
X143441600Y-163554800D01*
X143481600Y-162072800D02*
X143481600Y-163426800D01*
X143521600Y-162231800D02*
X143521600Y-163267800D01*
X143561600Y-162465800D02*
X143561600Y-163033800D01*
X143580600Y-162749800D02*
G75*
G03*
X138340600Y-162749800I-2620000J0D01*
G01*
X138340600Y-162749800D02*
G75*
G03*
X143580600Y-162749800I2620000J0D01*
G01*
%TO.C,R11*%
X135414000Y-63488200D02*
X141954000Y-63488200D01*
X135414000Y-63818200D02*
X135414000Y-63488200D01*
X135414000Y-65898200D02*
X135414000Y-66228200D01*
X135414000Y-66228200D02*
X141954000Y-66228200D01*
X141954000Y-63488200D02*
X141954000Y-63818200D01*
X141954000Y-66228200D02*
X141954000Y-65898200D01*
%TO.C,R4*%
X140506150Y-174492600D02*
X140506150Y-167952600D01*
X140836150Y-174492600D02*
X140506150Y-174492600D01*
X142916150Y-174492600D02*
X143246150Y-174492600D01*
X143246150Y-174492600D02*
X143246150Y-167952600D01*
X140506150Y-167952600D02*
X140836150Y-167952600D01*
X143246150Y-167952600D02*
X142916150Y-167952600D01*
%TO.C,J1*%
X82459600Y-88311600D02*
X82459600Y-86981600D01*
X83789600Y-88311600D02*
X82459600Y-88311600D01*
X85059600Y-88311600D02*
X100359600Y-88311600D01*
X85059600Y-88311600D02*
X85059600Y-85651600D01*
X100359600Y-88311600D02*
X100359600Y-85651600D01*
X85059600Y-85651600D02*
X100359600Y-85651600D01*
%TO.C,U2*%
X155254000Y-121755800D02*
X134814000Y-121755800D01*
X134814000Y-121755800D02*
X134814000Y-127055800D01*
X155254000Y-123405800D02*
X155254000Y-121755800D01*
X155254000Y-127055800D02*
X155254000Y-125405800D01*
X134814000Y-127055800D02*
X155254000Y-127055800D01*
X155254000Y-123405800D02*
G75*
G03*
X155254000Y-125405800I0J-1000000D01*
G01*
%TO.C,C13*%
X116457400Y-80988600D02*
X113717400Y-80988600D01*
X116457400Y-80988600D02*
X116457400Y-88228600D01*
X113717400Y-80988600D02*
X113717400Y-88228600D01*
X116457400Y-88228600D02*
X113717400Y-88228600D01*
%TO.C,C2*%
X154638800Y-166311451D02*
X154638800Y-167111451D01*
X155038800Y-166711451D02*
X154238800Y-166711451D01*
X156403800Y-170721149D02*
X148243800Y-170721149D01*
X156403800Y-170761149D02*
X148243800Y-170761149D01*
X156403800Y-170801149D02*
X148243800Y-170801149D01*
X156402800Y-170841149D02*
X148244800Y-170841149D01*
X156400800Y-170881149D02*
X148246800Y-170881149D01*
X156399800Y-170921149D02*
X148247800Y-170921149D01*
X156397800Y-170961149D02*
X148249800Y-170961149D01*
X156394800Y-171001149D02*
X148252800Y-171001149D01*
X156391800Y-171041149D02*
X148255800Y-171041149D01*
X156388800Y-171081149D02*
X148258800Y-171081149D01*
X156384800Y-171121149D02*
X148262800Y-171121149D01*
X156380800Y-171161149D02*
X148266800Y-171161149D01*
X156375800Y-171201149D02*
X148271800Y-171201149D01*
X156371800Y-171241149D02*
X148275800Y-171241149D01*
X156365800Y-171281149D02*
X148281800Y-171281149D01*
X156360800Y-171321149D02*
X148286800Y-171321149D01*
X156353800Y-171361149D02*
X148293800Y-171361149D01*
X156347800Y-171401149D02*
X148299800Y-171401149D01*
X156340800Y-171442149D02*
X148306800Y-171442149D01*
X156333800Y-171482149D02*
X148313800Y-171482149D01*
X156325800Y-171522149D02*
X148321800Y-171522149D01*
X156317800Y-171562149D02*
X148329800Y-171562149D01*
X156308800Y-171602149D02*
X148338800Y-171602149D01*
X156299800Y-171642149D02*
X148347800Y-171642149D01*
X156290800Y-171682149D02*
X148356800Y-171682149D01*
X156280800Y-171722149D02*
X148366800Y-171722149D01*
X156270800Y-171762149D02*
X148376800Y-171762149D01*
X156259800Y-171802149D02*
X148387800Y-171802149D01*
X156248800Y-171842149D02*
X148398800Y-171842149D01*
X156237800Y-171882149D02*
X148409800Y-171882149D01*
X156225800Y-171922149D02*
X148421800Y-171922149D01*
X156212800Y-171962149D02*
X148434800Y-171962149D01*
X156200800Y-172002149D02*
X148446800Y-172002149D01*
X156186800Y-172042149D02*
X148460800Y-172042149D01*
X156173800Y-172082149D02*
X148473800Y-172082149D01*
X156158800Y-172122149D02*
X148488800Y-172122149D01*
X156144800Y-172162149D02*
X148502800Y-172162149D01*
X156128800Y-172202149D02*
X153363800Y-172202149D01*
X151283800Y-172202149D02*
X148518800Y-172202149D01*
X156113800Y-172242149D02*
X153363800Y-172242149D01*
X151283800Y-172242149D02*
X148533800Y-172242149D01*
X156097800Y-172282149D02*
X153363800Y-172282149D01*
X151283800Y-172282149D02*
X148549800Y-172282149D01*
X156080800Y-172322149D02*
X153363800Y-172322149D01*
X151283800Y-172322149D02*
X148566800Y-172322149D01*
X156063800Y-172362149D02*
X153363800Y-172362149D01*
X151283800Y-172362149D02*
X148583800Y-172362149D01*
X156045800Y-172402149D02*
X153363800Y-172402149D01*
X151283800Y-172402149D02*
X148601800Y-172402149D01*
X156027800Y-172442149D02*
X153363800Y-172442149D01*
X151283800Y-172442149D02*
X148619800Y-172442149D01*
X156009800Y-172482149D02*
X153363800Y-172482149D01*
X151283800Y-172482149D02*
X148637800Y-172482149D01*
X155989800Y-172522149D02*
X153363800Y-172522149D01*
X151283800Y-172522149D02*
X148657800Y-172522149D01*
X155970800Y-172562149D02*
X153363800Y-172562149D01*
X151283800Y-172562149D02*
X148676800Y-172562149D01*
X155950800Y-172602149D02*
X153363800Y-172602149D01*
X151283800Y-172602149D02*
X148696800Y-172602149D01*
X155929800Y-172642149D02*
X153363800Y-172642149D01*
X151283800Y-172642149D02*
X148717800Y-172642149D01*
X155907800Y-172682149D02*
X153363800Y-172682149D01*
X151283800Y-172682149D02*
X148739800Y-172682149D01*
X155885800Y-172722149D02*
X153363800Y-172722149D01*
X151283800Y-172722149D02*
X148761800Y-172722149D01*
X155863800Y-172762149D02*
X153363800Y-172762149D01*
X151283800Y-172762149D02*
X148783800Y-172762149D01*
X155840800Y-172802149D02*
X153363800Y-172802149D01*
X151283800Y-172802149D02*
X148806800Y-172802149D01*
X155816800Y-172842149D02*
X153363800Y-172842149D01*
X151283800Y-172842149D02*
X148830800Y-172842149D01*
X155792800Y-172882149D02*
X153363800Y-172882149D01*
X151283800Y-172882149D02*
X148854800Y-172882149D01*
X155767800Y-172922149D02*
X153363800Y-172922149D01*
X151283800Y-172922149D02*
X148879800Y-172922149D01*
X155741800Y-172962149D02*
X153363800Y-172962149D01*
X151283800Y-172962149D02*
X148905800Y-172962149D01*
X155715800Y-173002149D02*
X153363800Y-173002149D01*
X151283800Y-173002149D02*
X148931800Y-173002149D01*
X155688800Y-173042149D02*
X153363800Y-173042149D01*
X151283800Y-173042149D02*
X148958800Y-173042149D01*
X155661800Y-173082149D02*
X153363800Y-173082149D01*
X151283800Y-173082149D02*
X148985800Y-173082149D01*
X155632800Y-173122149D02*
X153363800Y-173122149D01*
X151283800Y-173122149D02*
X149014800Y-173122149D01*
X155603800Y-173162149D02*
X153363800Y-173162149D01*
X151283800Y-173162149D02*
X149043800Y-173162149D01*
X155573800Y-173202149D02*
X153363800Y-173202149D01*
X151283800Y-173202149D02*
X149073800Y-173202149D01*
X155543800Y-173242149D02*
X153363800Y-173242149D01*
X151283800Y-173242149D02*
X149103800Y-173242149D01*
X155512800Y-173282149D02*
X153363800Y-173282149D01*
X151283800Y-173282149D02*
X149134800Y-173282149D01*
X155479800Y-173322149D02*
X153363800Y-173322149D01*
X151283800Y-173322149D02*
X149167800Y-173322149D01*
X155447800Y-173362149D02*
X153363800Y-173362149D01*
X151283800Y-173362149D02*
X149199800Y-173362149D01*
X155413800Y-173402149D02*
X153363800Y-173402149D01*
X151283800Y-173402149D02*
X149233800Y-173402149D01*
X155378800Y-173442149D02*
X153363800Y-173442149D01*
X151283800Y-173442149D02*
X149268800Y-173442149D01*
X155342800Y-173482149D02*
X153363800Y-173482149D01*
X151283800Y-173482149D02*
X149304800Y-173482149D01*
X155306800Y-173522149D02*
X153363800Y-173522149D01*
X151283800Y-173522149D02*
X149340800Y-173522149D01*
X155268800Y-173562149D02*
X153363800Y-173562149D01*
X151283800Y-173562149D02*
X149378800Y-173562149D01*
X155230800Y-173602149D02*
X153363800Y-173602149D01*
X151283800Y-173602149D02*
X149416800Y-173602149D01*
X155190800Y-173642149D02*
X153363800Y-173642149D01*
X151283800Y-173642149D02*
X149456800Y-173642149D01*
X155149800Y-173682149D02*
X153363800Y-173682149D01*
X151283800Y-173682149D02*
X149497800Y-173682149D01*
X155107800Y-173722149D02*
X153363800Y-173722149D01*
X151283800Y-173722149D02*
X149539800Y-173722149D01*
X155064800Y-173762149D02*
X153363800Y-173762149D01*
X151283800Y-173762149D02*
X149582800Y-173762149D01*
X155020800Y-173802149D02*
X153363800Y-173802149D01*
X151283800Y-173802149D02*
X149626800Y-173802149D01*
X154974800Y-173842149D02*
X153363800Y-173842149D01*
X151283800Y-173842149D02*
X149672800Y-173842149D01*
X154927800Y-173882149D02*
X153363800Y-173882149D01*
X151283800Y-173882149D02*
X149719800Y-173882149D01*
X154879800Y-173922149D02*
X153363800Y-173922149D01*
X151283800Y-173922149D02*
X149767800Y-173922149D01*
X154828800Y-173962149D02*
X153363800Y-173962149D01*
X151283800Y-173962149D02*
X149818800Y-173962149D01*
X154777800Y-174002149D02*
X153363800Y-174002149D01*
X151283800Y-174002149D02*
X149869800Y-174002149D01*
X154723800Y-174042149D02*
X153363800Y-174042149D01*
X151283800Y-174042149D02*
X149923800Y-174042149D01*
X154668800Y-174082149D02*
X153363800Y-174082149D01*
X151283800Y-174082149D02*
X149978800Y-174082149D01*
X154610800Y-174122149D02*
X153363800Y-174122149D01*
X151283800Y-174122149D02*
X150036800Y-174122149D01*
X154551800Y-174162149D02*
X153363800Y-174162149D01*
X151283800Y-174162149D02*
X150095800Y-174162149D01*
X154489800Y-174202149D02*
X153363800Y-174202149D01*
X151283800Y-174202149D02*
X150157800Y-174202149D01*
X154425800Y-174242149D02*
X153363800Y-174242149D01*
X151283800Y-174242149D02*
X150221800Y-174242149D01*
X154357800Y-174282149D02*
X150289800Y-174282149D01*
X154287800Y-174322149D02*
X150359800Y-174322149D01*
X154213800Y-174362149D02*
X150433800Y-174362149D01*
X154136800Y-174402149D02*
X150510800Y-174402149D01*
X154054800Y-174442149D02*
X150592800Y-174442149D01*
X153968800Y-174482149D02*
X150678800Y-174482149D01*
X153875800Y-174522149D02*
X150771800Y-174522149D01*
X153776800Y-174562149D02*
X150870800Y-174562149D01*
X153669800Y-174602149D02*
X150977800Y-174602149D01*
X153552800Y-174642149D02*
X151094800Y-174642149D01*
X153421800Y-174682149D02*
X151225800Y-174682149D01*
X153271800Y-174722149D02*
X151375800Y-174722149D01*
X153091800Y-174762149D02*
X151555800Y-174762149D01*
X152856800Y-174802149D02*
X151790800Y-174802149D01*
X156443800Y-170721149D02*
G75*
G03*
X148203800Y-170721149I-4120000J0D01*
G01*
X148203800Y-170721149D02*
G75*
G03*
X156443800Y-170721149I4120000J0D01*
G01*
%TD*%
M02*
