%TF.GenerationSoftware,KiCad,Pcbnew,7.0.11-7.0.11~ubuntu22.04.1*%
%TF.CreationDate,2024-05-25T12:47:58-04:00*%
%TF.ProjectId,coleco_original,636f6c65-636f-45f6-9f72-6967696e616c,DEV*%
%TF.SameCoordinates,Original*%
%TF.FileFunction,Paste,Bot*%
%TF.FilePolarity,Positive*%
%FSLAX46Y46*%
G04 Gerber Fmt 4.6, Leading zero omitted, Abs format (unit mm)*
G04 Created by KiCad (PCBNEW 7.0.11-7.0.11~ubuntu22.04.1) date 2024-05-25 12:47:58*
%MOMM*%
%LPD*%
G01*
G04 APERTURE LIST*
G04 Aperture macros list*
%AMRoundRect*
0 Rectangle with rounded corners*
0 $1 Rounding radius*
0 $2 $3 $4 $5 $6 $7 $8 $9 X,Y pos of 4 corners*
0 Add a 4 corners polygon primitive as box body*
4,1,4,$2,$3,$4,$5,$6,$7,$8,$9,$2,$3,0*
0 Add four circle primitives for the rounded corners*
1,1,$1+$1,$2,$3*
1,1,$1+$1,$4,$5*
1,1,$1+$1,$6,$7*
1,1,$1+$1,$8,$9*
0 Add four rect primitives between the rounded corners*
20,1,$1+$1,$2,$3,$4,$5,0*
20,1,$1+$1,$4,$5,$6,$7,0*
20,1,$1+$1,$6,$7,$8,$9,0*
20,1,$1+$1,$8,$9,$2,$3,0*%
G04 Aperture macros list end*
%ADD10RoundRect,0.250000X0.325000X0.650000X-0.325000X0.650000X-0.325000X-0.650000X0.325000X-0.650000X0*%
%ADD11RoundRect,0.100000X0.637500X0.100000X-0.637500X0.100000X-0.637500X-0.100000X0.637500X-0.100000X0*%
%ADD12RoundRect,0.250000X0.450000X-0.262500X0.450000X0.262500X-0.450000X0.262500X-0.450000X-0.262500X0*%
%ADD13RoundRect,0.250000X-0.262500X-0.450000X0.262500X-0.450000X0.262500X0.450000X-0.262500X0.450000X0*%
%ADD14RoundRect,0.137500X0.600000X0.137500X-0.600000X0.137500X-0.600000X-0.137500X0.600000X-0.137500X0*%
%ADD15RoundRect,0.137500X0.137500X0.600000X-0.137500X0.600000X-0.137500X-0.600000X0.137500X-0.600000X0*%
%ADD16RoundRect,0.250000X-0.450000X0.262500X-0.450000X-0.262500X0.450000X-0.262500X0.450000X0.262500X0*%
%ADD17RoundRect,0.250000X0.650000X-0.325000X0.650000X0.325000X-0.650000X0.325000X-0.650000X-0.325000X0*%
G04 APERTURE END LIST*
D10*
%TO.C,C22*%
X81383400Y-89369200D03*
X78433400Y-89369200D03*
%TD*%
D11*
%TO.C,U10*%
X82847100Y-91204400D03*
X82847100Y-91854400D03*
X82847100Y-92504400D03*
X82847100Y-93154400D03*
X82847100Y-93804400D03*
X82847100Y-94454400D03*
X82847100Y-95104400D03*
X82847100Y-95754400D03*
X82847100Y-96404400D03*
X82847100Y-97054400D03*
X82847100Y-97704400D03*
X82847100Y-98354400D03*
X77122100Y-98354400D03*
X77122100Y-97704400D03*
X77122100Y-97054400D03*
X77122100Y-96404400D03*
X77122100Y-95754400D03*
X77122100Y-95104400D03*
X77122100Y-94454400D03*
X77122100Y-93804400D03*
X77122100Y-93154400D03*
X77122100Y-92504400D03*
X77122100Y-91854400D03*
X77122100Y-91204400D03*
%TD*%
D12*
%TO.C,R20*%
X85344000Y-92007000D03*
X85344000Y-90182000D03*
%TD*%
D10*
%TO.C,C17*%
X94362800Y-96532000D03*
X91412800Y-96532000D03*
%TD*%
D13*
%TO.C,R13*%
X108485300Y-146874800D03*
X110310300Y-146874800D03*
%TD*%
D14*
%TO.C,U3*%
X119554400Y-125604500D03*
X119554400Y-126404500D03*
X119554400Y-127204500D03*
X119554400Y-128004500D03*
X119554400Y-128804500D03*
X119554400Y-129604500D03*
X119554400Y-130404500D03*
X119554400Y-131204500D03*
X119554400Y-132004500D03*
X119554400Y-132804500D03*
X119554400Y-133604500D03*
D15*
X117891900Y-135267000D03*
X117091900Y-135267000D03*
X116291900Y-135267000D03*
X115491900Y-135267000D03*
X114691900Y-135267000D03*
X113891900Y-135267000D03*
X113091900Y-135267000D03*
X112291900Y-135267000D03*
X111491900Y-135267000D03*
X110691900Y-135267000D03*
X109891900Y-135267000D03*
D14*
X108229400Y-133604500D03*
X108229400Y-132804500D03*
X108229400Y-132004500D03*
X108229400Y-131204500D03*
X108229400Y-130404500D03*
X108229400Y-129604500D03*
X108229400Y-128804500D03*
X108229400Y-128004500D03*
X108229400Y-127204500D03*
X108229400Y-126404500D03*
X108229400Y-125604500D03*
D15*
X109891900Y-123942000D03*
X110691900Y-123942000D03*
X111491900Y-123942000D03*
X112291900Y-123942000D03*
X113091900Y-123942000D03*
X113891900Y-123942000D03*
X114691900Y-123942000D03*
X115491900Y-123942000D03*
X116291900Y-123942000D03*
X117091900Y-123942000D03*
X117891900Y-123942000D03*
%TD*%
D16*
%TO.C,R9*%
X119354600Y-137137400D03*
X119354600Y-138962400D03*
%TD*%
%TO.C,R7*%
X117221000Y-137162800D03*
X117221000Y-138987800D03*
%TD*%
D17*
%TO.C,C9*%
X122224800Y-129568100D03*
X122224800Y-126618100D03*
%TD*%
D12*
%TO.C,R8*%
X108331000Y-138962400D03*
X108331000Y-137137400D03*
%TD*%
M02*
