%TF.GenerationSoftware,KiCad,Pcbnew,7.0.11-7.0.11~ubuntu22.04.1*%
%TF.CreationDate,2024-08-01T20:44:47-04:00*%
%TF.ProjectId,coleco_original,636f6c65-636f-45f6-9f72-6967696e616c,DEV*%
%TF.SameCoordinates,Original*%
%TF.FileFunction,Copper,L4,Bot*%
%TF.FilePolarity,Positive*%
%FSLAX46Y46*%
G04 Gerber Fmt 4.6, Leading zero omitted, Abs format (unit mm)*
G04 Created by KiCad (PCBNEW 7.0.11-7.0.11~ubuntu22.04.1) date 2024-08-01 20:44:47*
%MOMM*%
%LPD*%
G01*
G04 APERTURE LIST*
G04 Aperture macros list*
%AMRoundRect*
0 Rectangle with rounded corners*
0 $1 Rounding radius*
0 $2 $3 $4 $5 $6 $7 $8 $9 X,Y pos of 4 corners*
0 Add a 4 corners polygon primitive as box body*
4,1,4,$2,$3,$4,$5,$6,$7,$8,$9,$2,$3,0*
0 Add four circle primitives for the rounded corners*
1,1,$1+$1,$2,$3*
1,1,$1+$1,$4,$5*
1,1,$1+$1,$6,$7*
1,1,$1+$1,$8,$9*
0 Add four rect primitives between the rounded corners*
20,1,$1+$1,$2,$3,$4,$5,0*
20,1,$1+$1,$4,$5,$6,$7,0*
20,1,$1+$1,$6,$7,$8,$9,0*
20,1,$1+$1,$8,$9,$2,$3,0*%
G04 Aperture macros list end*
%TA.AperFunction,ComponentPad*%
%ADD10C,1.600000*%
%TD*%
%TA.AperFunction,ComponentPad*%
%ADD11R,1.600000X1.600000*%
%TD*%
%TA.AperFunction,ComponentPad*%
%ADD12O,1.600000X1.600000*%
%TD*%
%TA.AperFunction,SMDPad,CuDef*%
%ADD13R,0.650000X1.525000*%
%TD*%
%TA.AperFunction,ComponentPad*%
%ADD14C,1.500000*%
%TD*%
%TA.AperFunction,ComponentPad*%
%ADD15C,5.600000*%
%TD*%
%TA.AperFunction,ComponentPad*%
%ADD16RoundRect,0.250000X0.620000X0.845000X-0.620000X0.845000X-0.620000X-0.845000X0.620000X-0.845000X0*%
%TD*%
%TA.AperFunction,ComponentPad*%
%ADD17O,1.740000X2.190000*%
%TD*%
%TA.AperFunction,ComponentPad*%
%ADD18C,4.000000*%
%TD*%
%TA.AperFunction,ComponentPad*%
%ADD19O,2.006600X1.320800*%
%TD*%
%TA.AperFunction,ComponentPad*%
%ADD20O,1.320800X2.006600*%
%TD*%
%TA.AperFunction,ComponentPad*%
%ADD21C,1.701800*%
%TD*%
%TA.AperFunction,ComponentPad*%
%ADD22C,2.100000*%
%TD*%
%TA.AperFunction,ComponentPad*%
%ADD23R,1.700000X1.700000*%
%TD*%
%TA.AperFunction,ComponentPad*%
%ADD24O,1.700000X1.700000*%
%TD*%
%TA.AperFunction,ComponentPad*%
%ADD25R,1.422400X1.422400*%
%TD*%
%TA.AperFunction,ComponentPad*%
%ADD26C,1.422400*%
%TD*%
%TA.AperFunction,ComponentPad*%
%ADD27R,1.800000X1.800000*%
%TD*%
%TA.AperFunction,ComponentPad*%
%ADD28C,1.800000*%
%TD*%
%TA.AperFunction,ComponentPad*%
%ADD29C,2.200000*%
%TD*%
%TA.AperFunction,ComponentPad*%
%ADD30C,1.700000*%
%TD*%
%TA.AperFunction,ComponentPad*%
%ADD31O,3.000000X1.800000*%
%TD*%
%TA.AperFunction,ComponentPad*%
%ADD32R,2.500000X1.500000*%
%TD*%
%TA.AperFunction,ComponentPad*%
%ADD33O,2.500000X1.500000*%
%TD*%
%TA.AperFunction,ComponentPad*%
%ADD34O,1.500000X2.000000*%
%TD*%
%TA.AperFunction,ComponentPad*%
%ADD35C,4.875000*%
%TD*%
%TA.AperFunction,ComponentPad*%
%ADD36C,2.775000*%
%TD*%
%TA.AperFunction,ComponentPad*%
%ADD37R,1.500000X1.500000*%
%TD*%
%TA.AperFunction,SMDPad,CuDef*%
%ADD38RoundRect,0.250000X0.325000X0.650000X-0.325000X0.650000X-0.325000X-0.650000X0.325000X-0.650000X0*%
%TD*%
%TA.AperFunction,SMDPad,CuDef*%
%ADD39RoundRect,0.100000X0.637500X0.100000X-0.637500X0.100000X-0.637500X-0.100000X0.637500X-0.100000X0*%
%TD*%
%TA.AperFunction,SMDPad,CuDef*%
%ADD40RoundRect,0.250000X0.450000X-0.262500X0.450000X0.262500X-0.450000X0.262500X-0.450000X-0.262500X0*%
%TD*%
%TA.AperFunction,SMDPad,CuDef*%
%ADD41RoundRect,0.250000X-0.262500X-0.450000X0.262500X-0.450000X0.262500X0.450000X-0.262500X0.450000X0*%
%TD*%
%TA.AperFunction,SMDPad,CuDef*%
%ADD42RoundRect,0.137500X0.600000X0.137500X-0.600000X0.137500X-0.600000X-0.137500X0.600000X-0.137500X0*%
%TD*%
%TA.AperFunction,SMDPad,CuDef*%
%ADD43RoundRect,0.137500X0.137500X0.600000X-0.137500X0.600000X-0.137500X-0.600000X0.137500X-0.600000X0*%
%TD*%
%TA.AperFunction,SMDPad,CuDef*%
%ADD44RoundRect,0.250000X-0.450000X0.262500X-0.450000X-0.262500X0.450000X-0.262500X0.450000X0.262500X0*%
%TD*%
%TA.AperFunction,SMDPad,CuDef*%
%ADD45RoundRect,0.250000X0.650000X-0.325000X0.650000X0.325000X-0.650000X0.325000X-0.650000X-0.325000X0*%
%TD*%
%TA.AperFunction,ViaPad*%
%ADD46C,1.270000*%
%TD*%
%TA.AperFunction,ViaPad*%
%ADD47C,0.762000*%
%TD*%
%TA.AperFunction,Conductor*%
%ADD48C,0.457200*%
%TD*%
%TA.AperFunction,Conductor*%
%ADD49C,0.203200*%
%TD*%
G04 APERTURE END LIST*
D10*
%TO.P,C1,1*%
%TO.N,Net-(C1-Pad1)*%
X89204800Y-130284800D03*
%TO.P,C1,2*%
%TO.N,GNDD*%
X89204800Y-125284800D03*
%TD*%
D11*
%TO.P,C3,1*%
%TO.N,+5V*%
X120610513Y-162343400D03*
D10*
%TO.P,C3,2*%
%TO.N,GNDD*%
X118110513Y-162343400D03*
%TD*%
%TO.P,L1,1,1*%
%TO.N,+5VA*%
X130022600Y-156857000D03*
D12*
%TO.P,L1,2,2*%
%TO.N,+5V*%
X119862600Y-156857000D03*
%TD*%
D13*
%TO.P,U1,1,SHUTDOWN*%
%TO.N,GNDD*%
X129219250Y-167545400D03*
%TO.P,U1,2,BYPASS*%
%TO.N,Net-(U1-BYPASS)*%
X130489250Y-167545400D03*
%TO.P,U1,3,SE/~{BTL}*%
%TO.N,Net-(U1-SE{slash}~{BTL})*%
X131759250Y-167545400D03*
%TO.P,U1,4,IN*%
%TO.N,Net-(U1-IN)*%
X133029250Y-167545400D03*
%TO.P,U1,5,VO+*%
%TO.N,/sound/SP+*%
X133029250Y-172969400D03*
%TO.P,U1,6,VDD*%
%TO.N,+5VA*%
X131759250Y-172969400D03*
%TO.P,U1,7,GND*%
%TO.N,GNDD*%
X130489250Y-172969400D03*
%TO.P,U1,8,VO-*%
%TO.N,/sound/SP-*%
X129219250Y-172969400D03*
%TD*%
D10*
%TO.P,R27,1*%
%TO.N,/sound/HP_BTL*%
X145043450Y-175032600D03*
D12*
%TO.P,R27,2*%
%TO.N,+5VA*%
X145043450Y-167412600D03*
%TD*%
D10*
%TO.P,R26,1*%
%TO.N,GNDD*%
X142316200Y-150507000D03*
D12*
%TO.P,R26,2*%
%TO.N,Net-(C26-Pad2)*%
X142316200Y-158127000D03*
%TD*%
D10*
%TO.P,R25,1*%
%TO.N,Net-(U1-IN)*%
X138708850Y-166447400D03*
D12*
%TO.P,R25,2*%
%TO.N,/sound/SP+*%
X138708850Y-174067400D03*
%TD*%
D10*
%TO.P,R24,1*%
%TO.N,GNDD*%
X147294600Y-164527800D03*
D12*
%TO.P,R24,2*%
%TO.N,/sound/HP+*%
X154914600Y-164527800D03*
%TD*%
D10*
%TO.P,R23,1*%
%TO.N,Net-(C26-Pad1)*%
X135559800Y-157517400D03*
D12*
%TO.P,R23,2*%
%TO.N,Net-(U1-IN)*%
X135559800Y-165137400D03*
%TD*%
D11*
%TO.P,C28,1*%
%TO.N,Net-(U1-BYPASS)*%
X125196600Y-163298513D03*
D10*
%TO.P,C28,2*%
%TO.N,GNDD*%
X125196600Y-161298513D03*
%TD*%
D11*
%TO.P,C27,1*%
%TO.N,Net-(U1-SE{slash}~{BTL})*%
X131038600Y-163298513D03*
D10*
%TO.P,C27,2*%
%TO.N,GNDD*%
X131038600Y-161298513D03*
%TD*%
D11*
%TO.P,C26,1*%
%TO.N,Net-(C26-Pad1)*%
X139278287Y-162343400D03*
D10*
%TO.P,C26,2*%
%TO.N,Net-(C26-Pad2)*%
X141278287Y-162343400D03*
%TD*%
D11*
%TO.P,C24,1*%
%TO.N,+5VA*%
X132322688Y-179971000D03*
D10*
%TO.P,C24,2*%
%TO.N,GNDD*%
X134822688Y-179971000D03*
%TD*%
%TO.P,C4,1*%
%TO.N,GNDD*%
X132755000Y-154621800D03*
%TO.P,C4,2*%
%TO.N,Net-(C4-Pad2)*%
X137755000Y-154621800D03*
%TD*%
D14*
%TO.P,Y1,1,1*%
%TO.N,Net-(U6-XTAL1)*%
X136144000Y-73799000D03*
%TO.P,Y1,2,2*%
%TO.N,Net-(U6-XTAL2)*%
X136144000Y-78679000D03*
%TD*%
D10*
%TO.P,R6,1*%
%TO.N,Net-(C4-Pad2)*%
X137337800Y-151827800D03*
D12*
%TO.P,R6,2*%
%TO.N,Net-(U11-OUT)*%
X137337800Y-144207800D03*
%TD*%
D15*
%TO.P,H6,1,1*%
%TO.N,unconnected-(H6-Pad1)*%
X153466800Y-51955000D03*
%TD*%
D11*
%TO.P,U6,1,~{RAS}*%
%TO.N,/video/nRAS*%
X131622800Y-64451800D03*
D12*
%TO.P,U6,2,~{CAS}*%
%TO.N,/video/nCAS*%
X129082800Y-64451800D03*
%TO.P,U6,3,AD7*%
%TO.N,/video/AD7*%
X126542800Y-64451800D03*
%TO.P,U6,4,AD6*%
%TO.N,/video/AD6*%
X124002800Y-64451800D03*
%TO.P,U6,5,AD5*%
%TO.N,/video/AD5*%
X121462800Y-64451800D03*
%TO.P,U6,6,AD4*%
%TO.N,/video/AD4*%
X118922800Y-64451800D03*
%TO.P,U6,7,AD3*%
%TO.N,/video/AD3*%
X116382800Y-64451800D03*
%TO.P,U6,8,AD2*%
%TO.N,/video/AD2*%
X113842800Y-64451800D03*
%TO.P,U6,9,AD1*%
%TO.N,/video/AD1*%
X111302800Y-64451800D03*
%TO.P,U6,10,AD0*%
%TO.N,/video/AD0*%
X108762800Y-64451800D03*
%TO.P,U6,11,R/~{W}*%
%TO.N,/video/RnW*%
X106222800Y-64451800D03*
%TO.P,U6,12,VSS*%
%TO.N,GNDD*%
X103682800Y-64451800D03*
%TO.P,U6,13,MODE*%
%TO.N,/GLUE/A0*%
X101142800Y-64451800D03*
%TO.P,U6,14,~{CSW}*%
%TO.N,/GLUE/~{CSW}*%
X98602800Y-64451800D03*
%TO.P,U6,15,~{CSR}*%
%TO.N,/GLUE/~{CSR}*%
X96062800Y-64451800D03*
%TO.P,U6,16,~{INT}*%
%TO.N,/cpu/~{NMI}*%
X93522800Y-64451800D03*
%TO.P,U6,17,CD7*%
%TO.N,/GLUE/D0*%
X90982800Y-64451800D03*
%TO.P,U6,18,CD6*%
%TO.N,/GLUE/D1*%
X88442800Y-64451800D03*
%TO.P,U6,19,CD5*%
%TO.N,/GLUE/D2*%
X85902800Y-64451800D03*
%TO.P,U6,20,CD4*%
%TO.N,/GLUE/D3*%
X83362800Y-64451800D03*
%TO.P,U6,21,CD3*%
%TO.N,/GLUE/D4*%
X83362800Y-79691800D03*
%TO.P,U6,22,CD2*%
%TO.N,/GLUE/D5*%
X85902800Y-79691800D03*
%TO.P,U6,23,CD1*%
%TO.N,/GLUE/D6*%
X88442800Y-79691800D03*
%TO.P,U6,24,CD0*%
%TO.N,/GLUE/D7*%
X90982800Y-79691800D03*
%TO.P,U6,25,RD7*%
%TO.N,/video/R7*%
X93522800Y-79691800D03*
%TO.P,U6,26,RD6*%
%TO.N,/video/R6*%
X96062800Y-79691800D03*
%TO.P,U6,27,RD5*%
%TO.N,/video/R5*%
X98602800Y-79691800D03*
%TO.P,U6,28,RD4*%
%TO.N,/video/R4*%
X101142800Y-79691800D03*
%TO.P,U6,29,RD3*%
%TO.N,/video/R3*%
X103682800Y-79691800D03*
%TO.P,U6,30,RD2*%
%TO.N,/video/R2*%
X106222800Y-79691800D03*
%TO.P,U6,31,RD1*%
%TO.N,/video/R1*%
X108762800Y-79691800D03*
%TO.P,U6,32,RD0*%
%TO.N,/video/R0*%
X111302800Y-79691800D03*
%TO.P,U6,33,VCC*%
%TO.N,+5V*%
X113842800Y-79691800D03*
%TO.P,U6,34,~{RESET}*%
%TO.N,/GLUE/~{SND_RESET}*%
X116382800Y-79691800D03*
%TO.P,U6,35,EXTVID*%
%TO.N,unconnected-(U6-EXTVID-Pad35)*%
X118922800Y-79691800D03*
%TO.P,U6,36,COMVID*%
%TO.N,/video/Y*%
X121462800Y-79691800D03*
%TO.P,U6,37,NC*%
%TO.N,unconnected-(U6-NC-Pad37)*%
X124002800Y-79691800D03*
%TO.P,U6,38,CPUCLK*%
%TO.N,/GLUE/CLK*%
X126542800Y-79691800D03*
%TO.P,U6,39,XTAL2*%
%TO.N,Net-(U6-XTAL2)*%
X129082800Y-79691800D03*
%TO.P,U6,40,XTAL1*%
%TO.N,Net-(U6-XTAL1)*%
X131622800Y-79691800D03*
%TD*%
D16*
%TO.P,J3,1,In*%
%TO.N,Net-(J3-In)*%
X79756000Y-49237200D03*
D17*
%TO.P,J3,2,Ext*%
%TO.N,GNDD*%
X77216000Y-49237200D03*
%TD*%
D18*
%TO.P,J5,0*%
%TO.N,N/C*%
X77901800Y-60311600D03*
X77901800Y-85311600D03*
D11*
%TO.P,J5,1,1*%
%TO.N,/GLUE/C1P1*%
X79321800Y-67271600D03*
D10*
%TO.P,J5,2,2*%
%TO.N,/GLUE/C1P2*%
X79321800Y-70041600D03*
%TO.P,J5,3,3*%
%TO.N,/GLUE/C1P3*%
X79321800Y-72811600D03*
%TO.P,J5,4,4*%
%TO.N,/GLUE/C1P4*%
X79321800Y-75581600D03*
%TO.P,J5,5,5*%
%TO.N,/GLUE/C5_ARM*%
X79321800Y-78351600D03*
%TO.P,J5,6,6*%
%TO.N,/GLUE/C1P6*%
X76481800Y-68656600D03*
%TO.P,J5,7,7*%
%TO.N,/GLUE/C1P7*%
X76481800Y-71426600D03*
%TO.P,J5,8,8*%
%TO.N,/GLUE/C8_FIRE*%
X76481800Y-74196600D03*
%TO.P,J5,9,9*%
%TO.N,Net-(J5-Pad9)*%
X76481800Y-76966600D03*
%TD*%
%TO.P,R19,1*%
%TO.N,Net-(J5-Pad9)*%
X70078600Y-89928000D03*
D12*
%TO.P,R19,2*%
%TO.N,/GLUE/C1P9*%
X70078600Y-100088000D03*
%TD*%
D10*
%TO.P,R14,1*%
%TO.N,/GLUE/TDI*%
X85852000Y-127342200D03*
D12*
%TO.P,R14,2*%
%TO.N,+5V*%
X85852000Y-117182200D03*
%TD*%
D10*
%TO.P,R22,1*%
%TO.N,+5V*%
X85140800Y-147255800D03*
D12*
%TO.P,R22,2*%
%TO.N,Net-(D1-A)*%
X74980800Y-147255800D03*
%TD*%
D11*
%TO.P,RN1,1,common*%
%TO.N,+5V*%
X71170800Y-112508600D03*
D12*
%TO.P,RN1,2,R1*%
%TO.N,/GLUE/C1P1*%
X73710800Y-112508600D03*
%TO.P,RN1,3,R2*%
%TO.N,/GLUE/C1P2*%
X76250800Y-112508600D03*
%TO.P,RN1,4,R3*%
%TO.N,/GLUE/C1P3*%
X78790800Y-112508600D03*
%TO.P,RN1,5,R4*%
%TO.N,/GLUE/C1P4*%
X81330800Y-112508600D03*
%TO.P,RN1,6,R5*%
%TO.N,/GLUE/C1P6*%
X83870800Y-112508600D03*
%TO.P,RN1,7,R6*%
%TO.N,/GLUE/C1P7*%
X86410800Y-112508600D03*
%TD*%
D10*
%TO.P,R21,1*%
%TO.N,Net-(SW3-A)*%
X75361800Y-142810800D03*
D12*
%TO.P,R21,2*%
%TO.N,+5V*%
X75361800Y-132650800D03*
%TD*%
D15*
%TO.P,H2,1,1*%
%TO.N,unconnected-(H2-Pad1)*%
X73710800Y-166051800D03*
%TD*%
D11*
%TO.P,U4,1,A14*%
%TO.N,/GLUE/A14*%
X89799000Y-186046600D03*
D12*
%TO.P,U4,2,A12*%
%TO.N,/GLUE/A12*%
X92339000Y-186046600D03*
%TO.P,U4,3,A7*%
%TO.N,/GLUE/A7*%
X94879000Y-186046600D03*
%TO.P,U4,4,A6*%
%TO.N,/GLUE/A6*%
X97419000Y-186046600D03*
%TO.P,U4,5,A5*%
%TO.N,/GLUE/A5*%
X99959000Y-186046600D03*
%TO.P,U4,6,A4*%
%TO.N,/GLUE/A4*%
X102499000Y-186046600D03*
%TO.P,U4,7,A3*%
%TO.N,/GLUE/A3*%
X105039000Y-186046600D03*
%TO.P,U4,8,A2*%
%TO.N,/GLUE/A2*%
X107579000Y-186046600D03*
%TO.P,U4,9,A1*%
%TO.N,/GLUE/A1*%
X110119000Y-186046600D03*
%TO.P,U4,10,A0*%
%TO.N,/GLUE/A0*%
X112659000Y-186046600D03*
%TO.P,U4,11,Q0*%
%TO.N,/GLUE/D0*%
X115199000Y-186046600D03*
%TO.P,U4,12,Q1*%
%TO.N,/GLUE/D1*%
X117739000Y-186046600D03*
%TO.P,U4,13,Q2*%
%TO.N,/GLUE/D2*%
X120279000Y-186046600D03*
%TO.P,U4,14,GND*%
%TO.N,GNDD*%
X122819000Y-186046600D03*
%TO.P,U4,15,Q3*%
%TO.N,/GLUE/D3*%
X122819000Y-170806600D03*
%TO.P,U4,16,Q4*%
%TO.N,/GLUE/D4*%
X120279000Y-170806600D03*
%TO.P,U4,17,Q5*%
%TO.N,/GLUE/D5*%
X117739000Y-170806600D03*
%TO.P,U4,18,Q6*%
%TO.N,/GLUE/D6*%
X115199000Y-170806600D03*
%TO.P,U4,19,Q7*%
%TO.N,/GLUE/D7*%
X112659000Y-170806600D03*
%TO.P,U4,20,~{CS}*%
%TO.N,/GLUE/~{RAM_CS}*%
X110119000Y-170806600D03*
%TO.P,U4,21,A10*%
%TO.N,/GLUE/A10*%
X107579000Y-170806600D03*
%TO.P,U4,22,~{OE}*%
%TO.N,/GLUE/~{RAM_OE}*%
X105039000Y-170806600D03*
%TO.P,U4,23,A11*%
%TO.N,/GLUE/A11*%
X102499000Y-170806600D03*
%TO.P,U4,24,A9*%
%TO.N,/GLUE/A9*%
X99959000Y-170806600D03*
%TO.P,U4,25,A8*%
%TO.N,/GLUE/A8*%
X97419000Y-170806600D03*
%TO.P,U4,26,A13*%
%TO.N,/GLUE/A13*%
X94879000Y-170806600D03*
%TO.P,U4,27,~{WE}*%
%TO.N,/GLUE/~{WR}*%
X92339000Y-170806600D03*
%TO.P,U4,28,VCC*%
%TO.N,+5V*%
X89799000Y-170806600D03*
%TD*%
D11*
%TO.P,U7,1,~{G}*%
%TO.N,GNDD*%
X111074200Y-58736800D03*
D12*
%TO.P,U7,2,DQ1*%
%TO.N,/video/R0*%
X113614200Y-58736800D03*
%TO.P,U7,3,DQ2*%
%TO.N,/video/R1*%
X116154200Y-58736800D03*
%TO.P,U7,4,~{W}*%
%TO.N,/video/RnW*%
X118694200Y-58736800D03*
%TO.P,U7,5,~{RAS}*%
%TO.N,/video/nRAS*%
X121234200Y-58736800D03*
%TO.P,U7,6,A6*%
%TO.N,/video/AD1*%
X123774200Y-58736800D03*
%TO.P,U7,7,A5*%
%TO.N,/video/AD2*%
X126314200Y-58736800D03*
%TO.P,U7,8,A4*%
%TO.N,/video/AD3*%
X128854200Y-58736800D03*
%TO.P,U7,9,VDD*%
%TO.N,+5V*%
X131394200Y-58736800D03*
%TO.P,U7,10,A7*%
%TO.N,/video/AD0*%
X131394200Y-51116800D03*
%TO.P,U7,11,A3*%
%TO.N,/video/AD4*%
X128854200Y-51116800D03*
%TO.P,U7,12,A2*%
%TO.N,/video/AD5*%
X126314200Y-51116800D03*
%TO.P,U7,13,A1*%
%TO.N,/video/AD6*%
X123774200Y-51116800D03*
%TO.P,U7,14,A0*%
%TO.N,/video/AD7*%
X121234200Y-51116800D03*
%TO.P,U7,15,DQ3*%
%TO.N,/video/R2*%
X118694200Y-51116800D03*
%TO.P,U7,16,~{CAS}*%
%TO.N,/video/nCAS*%
X116154200Y-51116800D03*
%TO.P,U7,17,DQ4*%
%TO.N,/video/R3*%
X113614200Y-51116800D03*
%TO.P,U7,18,VSS*%
%TO.N,GNDD*%
X111074200Y-51116800D03*
%TD*%
D19*
%TO.P,J8,1*%
%TO.N,GNDD*%
X143640800Y-48783803D03*
D20*
%TO.P,J8,2*%
%TO.N,Net-(Q1-E)*%
X138640800Y-53783800D03*
%TO.P,J8,3*%
%TO.N,unconnected-(J8-Pad3)*%
X148640800Y-53783800D03*
%TO.P,J8,4*%
%TO.N,Net-(J3-In)*%
X141140800Y-53783800D03*
%TO.P,J8,5*%
%TO.N,unconnected-(J8-Pad5)*%
X146140800Y-53783800D03*
D21*
%TO.P,J8,6*%
%TO.N,N/C*%
X138640800Y-46283802D03*
%TO.P,J8,7*%
X148640800Y-46283802D03*
%TO.P,J8,8*%
X138640800Y-48783803D03*
%TO.P,J8,9*%
X148640800Y-48783803D03*
%TO.P,J8,10*%
X143640800Y-53783800D03*
%TD*%
D16*
%TO.P,J11,1,Pin_1*%
%TO.N,+5V*%
X81203800Y-138492800D03*
D17*
%TO.P,J11,2,Pin_2*%
%TO.N,GNDD*%
X78663800Y-138492800D03*
%TD*%
D10*
%TO.P,C10,1*%
%TO.N,+5V*%
X86995000Y-171233400D03*
%TO.P,C10,2*%
%TO.N,GNDD*%
X81995000Y-171233400D03*
%TD*%
%TO.P,C20,1*%
%TO.N,/GLUE/C1P9*%
X70129400Y-102581000D03*
%TO.P,C20,2*%
%TO.N,GNDD*%
X70129400Y-107581000D03*
%TD*%
D14*
%TO.P,RV1,1,1*%
%TO.N,GNDD*%
X145698800Y-150514800D03*
%TO.P,RV1,2,2*%
%TO.N,Net-(C26-Pad2)*%
X145698800Y-154514800D03*
%TO.P,RV1,3,3*%
%TO.N,Net-(C4-Pad2)*%
X145698800Y-158514800D03*
D22*
%TO.P,RV1,MH1*%
%TO.N,N/C*%
X155698800Y-149514800D03*
%TO.P,RV1,MH2*%
X155698800Y-159514800D03*
%TD*%
D19*
%TO.P,J9,1*%
%TO.N,GNDD*%
X143640800Y-184049599D03*
D20*
%TO.P,J9,2*%
%TO.N,/sound/HP+*%
X148640800Y-179049602D03*
%TO.P,J9,3*%
X138640800Y-179049602D03*
%TO.P,J9,4*%
%TO.N,/sound/HP_BTL*%
X146140800Y-179049602D03*
%TO.P,J9,5*%
%TO.N,unconnected-(J9-Pad5)*%
X141140800Y-179049602D03*
D21*
%TO.P,J9,6*%
%TO.N,N/C*%
X148640800Y-186549600D03*
%TO.P,J9,7*%
X138640800Y-186549600D03*
%TO.P,J9,8*%
X148640800Y-184049599D03*
%TO.P,J9,9*%
X138640800Y-184049599D03*
%TO.P,J9,10*%
X143640800Y-179049602D03*
%TD*%
D10*
%TO.P,R10,1*%
%TO.N,GNDD*%
X128320800Y-46341600D03*
D12*
%TO.P,R10,2*%
%TO.N,Net-(Q1-E)*%
X135940800Y-46341600D03*
%TD*%
D10*
%TO.P,R16,1*%
%TO.N,/GLUE/TDO*%
X79756000Y-127291400D03*
D12*
%TO.P,R16,2*%
%TO.N,+5V*%
X79756000Y-117131400D03*
%TD*%
D23*
%TO.P,J6,1,Pin_1*%
%TO.N,/GLUE/TCK*%
X73334800Y-127489600D03*
D24*
%TO.P,J6,2,Pin_2*%
%TO.N,GNDD*%
X70794800Y-127489600D03*
%TO.P,J6,3,Pin_3*%
%TO.N,/GLUE/TDO*%
X73334800Y-124949600D03*
%TO.P,J6,4,Pin_4*%
%TO.N,+5V*%
X70794800Y-124949600D03*
%TO.P,J6,5,Pin_5*%
%TO.N,/GLUE/TMS*%
X73334800Y-122409600D03*
%TO.P,J6,6,Pin_6*%
%TO.N,unconnected-(J6-Pin_6-Pad6)*%
X70794800Y-122409600D03*
%TO.P,J6,7,Pin_7*%
%TO.N,unconnected-(J6-Pin_7-Pad7)*%
X73334800Y-119869600D03*
%TO.P,J6,8,Pin_8*%
%TO.N,unconnected-(J6-Pin_8-Pad8)*%
X70794800Y-119869600D03*
%TO.P,J6,9,Pin_9*%
%TO.N,/GLUE/TDI*%
X73334800Y-117329600D03*
%TO.P,J6,10,Pin_10*%
%TO.N,GNDD*%
X70794800Y-117329600D03*
%TD*%
D10*
%TO.P,R12,1*%
%TO.N,Net-(Q1-B)*%
X142494000Y-68414200D03*
D12*
%TO.P,R12,2*%
%TO.N,/video/Y*%
X134874000Y-68414200D03*
%TD*%
D10*
%TO.P,C8,1*%
%TO.N,+5VA*%
X153934800Y-130999800D03*
%TO.P,C8,2*%
%TO.N,GNDD*%
X148934800Y-130999800D03*
%TD*%
%TO.P,C7,1*%
%TO.N,+5VA*%
X130621400Y-175653000D03*
%TO.P,C7,2*%
%TO.N,GNDD*%
X135621400Y-175653000D03*
%TD*%
%TO.P,R17,1*%
%TO.N,/GLUE/TCK*%
X76708000Y-127291400D03*
D12*
%TO.P,R17,2*%
%TO.N,GNDD*%
X76708000Y-117131400D03*
%TD*%
D18*
%TO.P,J7,0*%
%TO.N,N/C*%
X147652600Y-85170800D03*
X147652600Y-60170800D03*
D11*
%TO.P,J7,1,1*%
%TO.N,/GLUE/C2P1*%
X146232600Y-78210800D03*
D10*
%TO.P,J7,2,2*%
%TO.N,/GLUE/C2P2*%
X146232600Y-75440800D03*
%TO.P,J7,3,3*%
%TO.N,/GLUE/C2P3*%
X146232600Y-72670800D03*
%TO.P,J7,4,4*%
%TO.N,/GLUE/C2P4*%
X146232600Y-69900800D03*
%TO.P,J7,5,5*%
%TO.N,/GLUE/C5_ARM*%
X146232600Y-67130800D03*
%TO.P,J7,6,6*%
%TO.N,/GLUE/C2P6*%
X149072600Y-76825800D03*
%TO.P,J7,7,7*%
%TO.N,/GLUE/C2P7*%
X149072600Y-74055800D03*
%TO.P,J7,8,8*%
%TO.N,/GLUE/C8_FIRE*%
X149072600Y-71285800D03*
%TO.P,J7,9,9*%
%TO.N,Net-(J7-Pad9)*%
X149072600Y-68515800D03*
%TD*%
D25*
%TO.P,U9,1,INPUT/GLCRn*%
%TO.N,/GLUE/~{RESET_SW}*%
X113487200Y-114300900D03*
D26*
%TO.P,U9,2,INPUT/OE2/(GCLK2)*%
%TO.N,/GLUE/C1P1*%
X113487200Y-116840900D03*
%TO.P,U9,3,VCCINT*%
%TO.N,+5V*%
X110947200Y-114300900D03*
%TO.P,U9,4,I/O*%
%TO.N,/GLUE/C1P2*%
X110947200Y-116840900D03*
%TO.P,U9,5,I/O*%
%TO.N,/GLUE/C1P3*%
X108407200Y-114300900D03*
%TO.P,U9,6,I/O*%
%TO.N,/GLUE/C1P4*%
X108407200Y-116840900D03*
%TO.P,U9,7,GND*%
%TO.N,GNDD*%
X105867200Y-114300900D03*
%TO.P,U9,8,I/O*%
%TO.N,/GLUE/C1P6*%
X105867200Y-116840900D03*
%TO.P,U9,9,I/O*%
%TO.N,/GLUE/C1P7*%
X103327200Y-114300900D03*
%TO.P,U9,10,I/O*%
%TO.N,/GLUE/AS*%
X103327200Y-116840900D03*
%TO.P,U9,11,I/O*%
%TO.N,/GLUE/C5_ARM*%
X100787200Y-114300900D03*
%TO.P,U9,12,I/O*%
%TO.N,/GLUE/C8_FIRE*%
X98247200Y-116840900D03*
%TO.P,U9,13,VCCIO*%
%TO.N,+5V*%
X100787200Y-116840900D03*
%TO.P,U9,14,I/O/(TDI)*%
%TO.N,/GLUE/TDI*%
X98247200Y-119380900D03*
%TO.P,U9,15,I/O*%
%TO.N,/GLUE/A15*%
X100787200Y-119380900D03*
%TO.P,U9,16,I/O*%
%TO.N,/GLUE/A14*%
X98247200Y-121920900D03*
%TO.P,U9,17,I/O*%
%TO.N,/GLUE/A13*%
X100787200Y-121920900D03*
%TO.P,U9,18,I/O*%
%TO.N,/GLUE/A12*%
X98247200Y-124460900D03*
%TO.P,U9,19,GND*%
%TO.N,GNDD*%
X100787200Y-124460900D03*
%TO.P,U9,20,I/O*%
%TO.N,/GLUE/A11*%
X98247200Y-127000900D03*
%TO.P,U9,21,I/O*%
%TO.N,/GLUE/A10*%
X100787200Y-127000900D03*
%TO.P,U9,22,I/O*%
%TO.N,/GLUE/A9*%
X98247200Y-129540900D03*
%TO.P,U9,23,I/O/(TMS)*%
%TO.N,/GLUE/TMS*%
X100787200Y-129540900D03*
%TO.P,U9,24,I/O*%
%TO.N,/GLUE/A8*%
X98247200Y-132080900D03*
%TO.P,U9,25,I/O*%
%TO.N,/GLUE/A7*%
X100787200Y-132080900D03*
%TO.P,U9,26,VCCIO*%
%TO.N,+5V*%
X98247200Y-134620900D03*
%TO.P,U9,27,I/O*%
%TO.N,/GLUE/A6*%
X100787200Y-134620900D03*
%TO.P,U9,28,I/O*%
%TO.N,/GLUE/A5*%
X98247200Y-137160900D03*
%TO.P,U9,29,I/O*%
%TO.N,/GLUE/A4*%
X100787200Y-137160900D03*
%TO.P,U9,30,I/O*%
%TO.N,/GLUE/A3*%
X98247200Y-139700900D03*
%TO.P,U9,31,I/O*%
%TO.N,/GLUE/A2*%
X100787200Y-139700900D03*
%TO.P,U9,32,GND*%
%TO.N,GNDD*%
X98247200Y-142240900D03*
%TO.P,U9,33,I/O*%
%TO.N,/GLUE/A1*%
X100787200Y-144780900D03*
%TO.P,U9,34,I/O*%
%TO.N,/GLUE/A0*%
X100787200Y-142240900D03*
%TO.P,U9,35,I/O*%
%TO.N,/GLUE/~{M1}*%
X103327200Y-144780900D03*
%TO.P,U9,36,I/O*%
%TO.N,/GLUE/~{RFSH}*%
X103327200Y-142240900D03*
%TO.P,U9,37,I/O*%
%TO.N,/GLUE/~{RESET}*%
X105867200Y-144780900D03*
%TO.P,U9,38,VCCIO*%
%TO.N,+5V*%
X105867200Y-142240900D03*
%TO.P,U9,39,I/O*%
%TO.N,/GLUE/~{WAIT}*%
X108407200Y-144780900D03*
%TO.P,U9,40,I/O*%
%TO.N,/GLUE/~{RD}*%
X108407200Y-142240900D03*
%TO.P,U9,41,I/O*%
%TO.N,/GLUE/~{RAM_OE}*%
X110947200Y-144780900D03*
%TO.P,U9,42,GND*%
%TO.N,GNDD*%
X110947200Y-142240900D03*
%TO.P,U9,43,VCCITN*%
%TO.N,+5V*%
X113487200Y-144780900D03*
%TO.P,U9,44,I/O*%
%TO.N,/GLUE/~{IORQ}*%
X113487200Y-142240900D03*
%TO.P,U9,45,I/O*%
%TO.N,/GLUE/~{MREQ}*%
X116027200Y-144780900D03*
%TO.P,U9,46,I/O*%
%TO.N,/GLUE/D0*%
X116027200Y-142240900D03*
%TO.P,U9,47,GND*%
%TO.N,GNDD*%
X118567200Y-144780900D03*
%TO.P,U9,48,I/O*%
%TO.N,/GLUE/D1*%
X118567200Y-142240900D03*
%TO.P,U9,49,I/O*%
%TO.N,/GLUE/D7*%
X121107200Y-144780900D03*
%TO.P,U9,50,I/O*%
%TO.N,/GLUE/D2*%
X121107200Y-142240900D03*
%TO.P,U9,51,I/O*%
%TO.N,/GLUE/D6*%
X123647200Y-144780900D03*
%TO.P,U9,52,I/O*%
%TO.N,/GLUE/D5*%
X123647200Y-142240900D03*
%TO.P,U9,53,VCCIO*%
%TO.N,+5V*%
X126187200Y-144780900D03*
%TO.P,U9,54,I/O*%
%TO.N,/GLUE/D4*%
X128727200Y-142240900D03*
%TO.P,U9,55,I/O*%
%TO.N,/GLUE/D3*%
X126187200Y-142240900D03*
%TO.P,U9,56,I/O*%
%TO.N,/GLUE/~{ROM_ENABLE}*%
X128727200Y-139700900D03*
%TO.P,U9,57,I/O*%
%TO.N,/GLUE/~{RAM_CS}*%
X126187200Y-139700900D03*
%TO.P,U9,58,I/O*%
%TO.N,/GLUE/~{SND_ENABLE}*%
X128727200Y-137160900D03*
%TO.P,U9,59,GND*%
%TO.N,GNDD*%
X126187200Y-137160900D03*
%TO.P,U9,60,I/O*%
%TO.N,/GLUE/~{SND_RESET}*%
X128727200Y-134620900D03*
%TO.P,U9,61,I/O*%
%TO.N,/GLUE/~{INT}*%
X126187200Y-134620900D03*
%TO.P,U9,62,I/O/(TCK)*%
%TO.N,/GLUE/TCK*%
X128727200Y-132080900D03*
%TO.P,U9,63,I/O*%
%TO.N,/GLUE/~{CS_hC000}*%
X126187200Y-132080900D03*
%TO.P,U9,64,I/O*%
%TO.N,/GLUE/~{CS_hA000}*%
X128727200Y-129540900D03*
%TO.P,U9,65,I/O*%
%TO.N,/GLUE/~{CS_h8000}*%
X126187200Y-129540900D03*
%TO.P,U9,66,VCCIO*%
%TO.N,+5V*%
X128727200Y-127000900D03*
%TO.P,U9,67,I/O*%
%TO.N,/GLUE/~{CS_hE000}*%
X126187200Y-127000900D03*
%TO.P,U9,68,I/O*%
%TO.N,/GLUE/~{CSR}*%
X128727200Y-124460900D03*
%TO.P,U9,69,I/O*%
%TO.N,/GLUE/~{CSW}*%
X126187200Y-124460900D03*
%TO.P,U9,70,I/O*%
%TO.N,/GLUE/C2P1*%
X128727200Y-121920900D03*
%TO.P,U9,71,I/O/(TDO)*%
%TO.N,/GLUE/TDO*%
X126187200Y-121920900D03*
%TO.P,U9,72,GND*%
%TO.N,GNDD*%
X128727200Y-119380900D03*
%TO.P,U9,73,I/O*%
%TO.N,/GLUE/C2P2*%
X126187200Y-119380900D03*
%TO.P,U9,74,I/O*%
%TO.N,/GLUE/C2P3*%
X128727200Y-116840900D03*
%TO.P,U9,75,I/O*%
%TO.N,/GLUE/C2P4*%
X126187200Y-114300900D03*
%TO.P,U9,76,I/O*%
%TO.N,/GLUE/C2P6*%
X126187200Y-116840900D03*
%TO.P,U9,77,I/O*%
%TO.N,/GLUE/C2P7*%
X123647200Y-114300900D03*
%TO.P,U9,78,VCCIO*%
%TO.N,+5V*%
X123647200Y-116840900D03*
%TO.P,U9,79,I/O*%
%TO.N,/GLUE/~{AY_SND_ENABLE}*%
X121107200Y-114300900D03*
%TO.P,U9,80,I/O*%
%TO.N,/GLUE/C1P9*%
X121107200Y-116840900D03*
%TO.P,U9,81,I/O*%
%TO.N,/GLUE/C2P9*%
X118567200Y-114300900D03*
%TO.P,U9,82,GND*%
%TO.N,GNDD*%
X118567200Y-116840900D03*
%TO.P,U9,83,INPUT/GCLK1*%
%TO.N,/GLUE/CLK*%
X116027200Y-114300900D03*
%TO.P,U9,84,INPUT/OE1*%
%TO.N,/GLUE/~{WR}*%
X116027200Y-116840900D03*
%TD*%
D11*
%TO.P,U11,1,~{WR}*%
%TO.N,/GLUE/~{AY_SND_ENABLE}*%
X153873200Y-133616000D03*
D12*
%TO.P,U11,2,~{CS}*%
X151333200Y-133616000D03*
%TO.P,U11,3,A0*%
%TO.N,/GLUE/AS*%
X148793200Y-133616000D03*
%TO.P,U11,4,VDD*%
%TO.N,+5VA*%
X146253200Y-133616000D03*
%TO.P,U11,5,OUT*%
%TO.N,Net-(U11-OUT)*%
X143713200Y-133616000D03*
%TO.P,U11,6,GND*%
%TO.N,GNDD*%
X141173200Y-133616000D03*
%TO.P,U11,7,CLK*%
%TO.N,/GLUE/CLK*%
X138633200Y-133616000D03*
%TO.P,U11,8,~{RESET}*%
%TO.N,/GLUE/~{SND_RESET}*%
X136093200Y-133616000D03*
%TO.P,U11,9,D7*%
%TO.N,/GLUE/D7*%
X136093200Y-141236000D03*
%TO.P,U11,10,D6*%
%TO.N,/GLUE/D6*%
X138633200Y-141236000D03*
%TO.P,U11,11,D5*%
%TO.N,/GLUE/D5*%
X141173200Y-141236000D03*
%TO.P,U11,12,D4*%
%TO.N,/GLUE/D4*%
X143713200Y-141236000D03*
%TO.P,U11,13,D3*%
%TO.N,/GLUE/D3*%
X146253200Y-141236000D03*
%TO.P,U11,14,D2*%
%TO.N,/GLUE/D2*%
X148793200Y-141236000D03*
%TO.P,U11,15,D1*%
%TO.N,/GLUE/D1*%
X151333200Y-141236000D03*
%TO.P,U11,16,D0*%
%TO.N,/GLUE/D0*%
X153873200Y-141236000D03*
%TD*%
D10*
%TO.P,C16,1*%
%TO.N,Net-(U6-XTAL2)*%
X140081000Y-78746600D03*
%TO.P,C16,2*%
%TO.N,GNDD*%
X140081000Y-81246600D03*
%TD*%
%TO.P,C18,1*%
%TO.N,+5V*%
X92964000Y-134632000D03*
%TO.P,C18,2*%
%TO.N,GNDD*%
X92964000Y-139632000D03*
%TD*%
D27*
%TO.P,D1,1,K*%
%TO.N,GNDD*%
X71297800Y-148403800D03*
D28*
%TO.P,D1,2,A*%
%TO.N,Net-(D1-A)*%
X71297800Y-145863800D03*
%TD*%
D10*
%TO.P,C15,1*%
%TO.N,GNDD*%
X140131800Y-71253600D03*
%TO.P,C15,2*%
%TO.N,Net-(U6-XTAL1)*%
X140131800Y-73753600D03*
%TD*%
D11*
%TO.P,RN2,1,common*%
%TO.N,+5V*%
X154787600Y-112508600D03*
D12*
%TO.P,RN2,2,R1*%
%TO.N,/GLUE/C2P1*%
X152247600Y-112508600D03*
%TO.P,RN2,3,R2*%
%TO.N,/GLUE/C2P2*%
X149707600Y-112508600D03*
%TO.P,RN2,4,R3*%
%TO.N,/GLUE/C2P3*%
X147167600Y-112508600D03*
%TO.P,RN2,5,R4*%
%TO.N,/GLUE/C2P4*%
X144627600Y-112508600D03*
%TO.P,RN2,6,R5*%
%TO.N,/GLUE/C2P6*%
X142087600Y-112508600D03*
%TO.P,RN2,7,R6*%
%TO.N,/GLUE/C2P7*%
X139547600Y-112508600D03*
%TD*%
D10*
%TO.P,C14,1*%
%TO.N,+5V*%
X134772400Y-57299800D03*
%TO.P,C14,2*%
%TO.N,GNDD*%
X134772400Y-52299800D03*
%TD*%
D29*
%TO.P,SW1,*%
%TO.N,*%
X73747000Y-158386400D03*
X73747000Y-151386400D03*
D30*
%TO.P,SW1,1,1*%
%TO.N,Net-(C1-Pad1)*%
X71247000Y-157136400D03*
%TO.P,SW1,2,2*%
%TO.N,GNDD*%
X71247000Y-152636400D03*
%TD*%
D16*
%TO.P,J2,1,Pin_1*%
%TO.N,/sound/SP+*%
X128905000Y-180967000D03*
D17*
%TO.P,J2,2,Pin_2*%
%TO.N,/sound/SP-*%
X126365000Y-180967000D03*
%TD*%
D15*
%TO.P,H7,1,1*%
%TO.N,unconnected-(H7-Pad1)*%
X110375700Y-84352700D03*
%TD*%
D12*
%TO.P,R5,2*%
%TO.N,Net-(U2-OUT)*%
X133654800Y-144207800D03*
D10*
%TO.P,R5,1*%
%TO.N,Net-(C4-Pad2)*%
X133654800Y-151827800D03*
%TD*%
D11*
%TO.P,U5,1,VPP*%
%TO.N,+5V*%
X81061400Y-166082200D03*
D12*
%TO.P,U5,2,A12*%
%TO.N,/GLUE/A12*%
X83601400Y-166082200D03*
%TO.P,U5,3,A7*%
%TO.N,/GLUE/A7*%
X86141400Y-166082200D03*
%TO.P,U5,4,A6*%
%TO.N,/GLUE/A6*%
X88681400Y-166082200D03*
%TO.P,U5,5,A5*%
%TO.N,/GLUE/A5*%
X91221400Y-166082200D03*
%TO.P,U5,6,A4*%
%TO.N,/GLUE/A4*%
X93761400Y-166082200D03*
%TO.P,U5,7,A3*%
%TO.N,/GLUE/A3*%
X96301400Y-166082200D03*
%TO.P,U5,8,A2*%
%TO.N,/GLUE/A2*%
X98841400Y-166082200D03*
%TO.P,U5,9,A1*%
%TO.N,/GLUE/A1*%
X101381400Y-166082200D03*
%TO.P,U5,10,A0*%
%TO.N,/GLUE/A0*%
X103921400Y-166082200D03*
%TO.P,U5,11,D0*%
%TO.N,/GLUE/D0*%
X106461400Y-166082200D03*
%TO.P,U5,12,D1*%
%TO.N,/GLUE/D1*%
X109001400Y-166082200D03*
%TO.P,U5,13,D2*%
%TO.N,/GLUE/D2*%
X111541400Y-166082200D03*
%TO.P,U5,14,GND*%
%TO.N,GNDD*%
X114081400Y-166082200D03*
%TO.P,U5,15,D3*%
%TO.N,/GLUE/D3*%
X114081400Y-150842200D03*
%TO.P,U5,16,D4*%
%TO.N,/GLUE/D4*%
X111541400Y-150842200D03*
%TO.P,U5,17,D5*%
%TO.N,/GLUE/D5*%
X109001400Y-150842200D03*
%TO.P,U5,18,D6*%
%TO.N,/GLUE/D6*%
X106461400Y-150842200D03*
%TO.P,U5,19,D7*%
%TO.N,/GLUE/D7*%
X103921400Y-150842200D03*
%TO.P,U5,20,~{CE}*%
%TO.N,/GLUE/~{ROM_ENABLE}*%
X101381400Y-150842200D03*
%TO.P,U5,21,A10*%
%TO.N,/GLUE/A10*%
X98841400Y-150842200D03*
%TO.P,U5,22,~{OE}*%
%TO.N,/GLUE/~{ROM_ENABLE}*%
X96301400Y-150842200D03*
%TO.P,U5,23,A11*%
%TO.N,/GLUE/A11*%
X93761400Y-150842200D03*
%TO.P,U5,24,A9*%
%TO.N,/GLUE/A9*%
X91221400Y-150842200D03*
%TO.P,U5,25,A8*%
%TO.N,/GLUE/A8*%
X88681400Y-150842200D03*
%TO.P,U5,26,A13*%
%TO.N,+5V*%
X86141400Y-150842200D03*
%TO.P,U5,27,A14*%
X83601400Y-150842200D03*
%TO.P,U5,28,VCC*%
X81061400Y-150842200D03*
%TD*%
D10*
%TO.P,C19,1*%
%TO.N,+5V*%
X93649800Y-116267800D03*
%TO.P,C19,2*%
%TO.N,GNDD*%
X88649800Y-116267800D03*
%TD*%
D15*
%TO.P,H4,1,1*%
%TO.N,unconnected-(H4-Pad1)*%
X72136000Y-52005800D03*
%TD*%
D10*
%TO.P,R18,1*%
%TO.N,Net-(J7-Pad9)*%
X155270200Y-89801000D03*
D12*
%TO.P,R18,2*%
%TO.N,/GLUE/C2P9*%
X155270200Y-99961000D03*
%TD*%
D10*
%TO.P,R1,1*%
%TO.N,+5V*%
X78409800Y-133158800D03*
D12*
%TO.P,R1,2*%
%TO.N,Net-(C1-Pad1)*%
X88569800Y-133158800D03*
%TD*%
D15*
%TO.P,H1,1,1*%
%TO.N,unconnected-(H1-Pad1)*%
X153466800Y-184009600D03*
%TD*%
D10*
%TO.P,C6,1*%
%TO.N,/sound/SP+*%
X135541550Y-172757400D03*
%TO.P,C6,2*%
%TO.N,Net-(U1-IN)*%
X135541550Y-167757400D03*
%TD*%
%TO.P,R2,1*%
%TO.N,Net-(C1-Pad1)*%
X76271200Y-130029600D03*
D12*
%TO.P,R2,2*%
%TO.N,/GLUE/~{RESET_SW}*%
X86431200Y-130029600D03*
%TD*%
D31*
%TO.P,SW3,*%
%TO.N,*%
X71011800Y-134113400D03*
X71011800Y-142313400D03*
D32*
%TO.P,SW3,1,A*%
%TO.N,Net-(SW3-A)*%
X71011800Y-136213400D03*
D33*
%TO.P,SW3,2,B*%
%TO.N,Net-(SW3-B)*%
X71011800Y-138213400D03*
%TO.P,SW3,3,C*%
%TO.N,GNDD*%
X71011800Y-140213400D03*
%TD*%
D10*
%TO.P,C12,1*%
%TO.N,+5V*%
X106730800Y-56338400D03*
%TO.P,C12,2*%
%TO.N,GNDD*%
X106730800Y-61338400D03*
%TD*%
%TO.P,R15,1*%
%TO.N,/GLUE/TMS*%
X82778600Y-127316800D03*
D12*
%TO.P,R15,2*%
%TO.N,+5V*%
X82778600Y-117156800D03*
%TD*%
D10*
%TO.P,C11,1*%
%TO.N,+5V*%
X77901800Y-150978800D03*
%TO.P,C11,2*%
%TO.N,GNDD*%
X77901800Y-155978800D03*
%TD*%
D16*
%TO.P,J10,1,Pin_1*%
%TO.N,Net-(J10-Pin_1)*%
X87426800Y-138472800D03*
D17*
%TO.P,J10,2,Pin_2*%
%TO.N,GNDD*%
X84886800Y-138472800D03*
%TD*%
D10*
%TO.P,C21,1*%
%TO.N,/GLUE/C2P9*%
X155244800Y-102490200D03*
%TO.P,C21,2*%
%TO.N,GNDD*%
X155244800Y-107490200D03*
%TD*%
D34*
%TO.P,J4,1,Pin_1*%
%TO.N,/GLUE/D2*%
X130073400Y-103567800D03*
%TO.P,J4,2,Pin_2*%
%TO.N,/GLUE/~{CS_hC000}*%
X130073400Y-98741800D03*
%TO.P,J4,3,Pin_3*%
%TO.N,/GLUE/D1*%
X127533400Y-103567800D03*
%TO.P,J4,4,Pin_4*%
%TO.N,/GLUE/D3*%
X127533400Y-98741800D03*
%TO.P,J4,5,Pin_5*%
%TO.N,/GLUE/D0*%
X124993400Y-103567800D03*
%TO.P,J4,6,Pin_6*%
%TO.N,/GLUE/D4*%
X124993400Y-98741800D03*
%TO.P,J4,7,Pin_7*%
%TO.N,/GLUE/A0*%
X122453400Y-103567800D03*
%TO.P,J4,8,Pin_8*%
%TO.N,/GLUE/D5*%
X122453400Y-98741800D03*
%TO.P,J4,9,Pin_9*%
%TO.N,/GLUE/A1*%
X119913400Y-103567800D03*
%TO.P,J4,10,Pin_10*%
%TO.N,/GLUE/D6*%
X119913400Y-98741800D03*
%TO.P,J4,11,Pin_11*%
%TO.N,/GLUE/A2*%
X117373400Y-103567800D03*
%TO.P,J4,12,Pin_12*%
%TO.N,/GLUE/D7*%
X117373400Y-98741800D03*
%TO.P,J4,13,Pin_13*%
%TO.N,GND*%
X114833400Y-103567800D03*
%TO.P,J4,14,Pin_14*%
%TO.N,/GLUE/A11*%
X114833400Y-98741800D03*
%TO.P,J4,15,Pin_15*%
%TO.N,/GLUE/A3*%
X112293400Y-103567800D03*
%TO.P,J4,16,Pin_16*%
%TO.N,/GLUE/A10*%
X112293400Y-98741800D03*
%TO.P,J4,17,Pin_17*%
%TO.N,/GLUE/A4*%
X109753400Y-103567800D03*
%TO.P,J4,18,Pin_18*%
%TO.N,/GLUE/~{CS_h8000}*%
X109753400Y-98741800D03*
%TO.P,J4,19,Pin_19*%
%TO.N,/GLUE/A13*%
X107213400Y-103567800D03*
%TO.P,J4,20,Pin_20*%
%TO.N,/GLUE/A14*%
X107213400Y-98741800D03*
%TO.P,J4,21,Pin_21*%
%TO.N,/GLUE/A5*%
X104673400Y-103567800D03*
%TO.P,J4,22,Pin_22*%
%TO.N,/GLUE/~{CS_hA000}*%
X104673400Y-98741800D03*
%TO.P,J4,23,Pin_23*%
%TO.N,/GLUE/A6*%
X102133400Y-103567800D03*
%TO.P,J4,24,Pin_24*%
%TO.N,/GLUE/A12*%
X102133400Y-98741800D03*
%TO.P,J4,25,Pin_25*%
%TO.N,/GLUE/A7*%
X99593400Y-103567800D03*
%TO.P,J4,26,Pin_26*%
%TO.N,/GLUE/A9*%
X99593400Y-98741800D03*
%TO.P,J4,27,Pin_27*%
%TO.N,/GLUE/~{CS_hE000}*%
X97053400Y-103567800D03*
%TO.P,J4,28,Pin_28*%
%TO.N,/GLUE/A8*%
X97053400Y-98741800D03*
%TO.P,J4,29,Pin_29*%
%TO.N,GNDD*%
X94513400Y-103567800D03*
%TO.P,J4,30,Pin_30*%
%TO.N,+5V*%
X94513400Y-98741800D03*
D35*
%TO.P,J4,MH1*%
%TO.N,N/C*%
X138643400Y-101166800D03*
%TO.P,J4,MH2*%
X85943400Y-101166800D03*
%TD*%
D10*
%TO.P,C23,1*%
%TO.N,+5VA*%
X146314800Y-130999800D03*
%TO.P,C23,2*%
%TO.N,GNDD*%
X141314800Y-130999800D03*
%TD*%
D36*
%TO.P,SW2,1,A*%
%TO.N,unconnected-(SW2-A-Pad1)*%
X72515500Y-176189600D03*
%TO.P,SW2,2,B*%
%TO.N,Net-(J10-Pin_1)*%
X77215500Y-176189600D03*
%TO.P,SW2,3,C*%
%TO.N,+5V*%
X81915500Y-176189600D03*
%TO.P,SW2,4*%
%TO.N,N/C*%
X70610500Y-185719600D03*
X83820500Y-185719600D03*
%TD*%
D11*
%TO.P,U8,1,~{G}*%
%TO.N,GNDD*%
X83362800Y-58736800D03*
D12*
%TO.P,U8,2,DQ1*%
%TO.N,/video/R7*%
X85902800Y-58736800D03*
%TO.P,U8,3,DQ2*%
%TO.N,/video/R6*%
X88442800Y-58736800D03*
%TO.P,U8,4,~{W}*%
%TO.N,/video/RnW*%
X90982800Y-58736800D03*
%TO.P,U8,5,~{RAS}*%
%TO.N,/video/nRAS*%
X93522800Y-58736800D03*
%TO.P,U8,6,A6*%
%TO.N,/video/AD1*%
X96062800Y-58736800D03*
%TO.P,U8,7,A5*%
%TO.N,/video/AD2*%
X98602800Y-58736800D03*
%TO.P,U8,8,A4*%
%TO.N,/video/AD3*%
X101142800Y-58736800D03*
%TO.P,U8,9,VDD*%
%TO.N,+5V*%
X103682800Y-58736800D03*
%TO.P,U8,10,A7*%
%TO.N,/video/AD0*%
X103682800Y-51116800D03*
%TO.P,U8,11,A3*%
%TO.N,/video/AD4*%
X101142800Y-51116800D03*
%TO.P,U8,12,A2*%
%TO.N,/video/AD5*%
X98602800Y-51116800D03*
%TO.P,U8,13,A1*%
%TO.N,/video/AD6*%
X96062800Y-51116800D03*
%TO.P,U8,14,A0*%
%TO.N,/video/AD7*%
X93522800Y-51116800D03*
%TO.P,U8,15,DQ3*%
%TO.N,/video/R5*%
X90982800Y-51116800D03*
%TO.P,U8,16,~{CAS}*%
%TO.N,/video/nCAS*%
X88442800Y-51116800D03*
%TO.P,U8,17,DQ4*%
%TO.N,/video/R4*%
X85902800Y-51116800D03*
%TO.P,U8,18,VSS*%
%TO.N,GNDD*%
X83362800Y-51116800D03*
%TD*%
D37*
%TO.P,Q1,1,E*%
%TO.N,Net-(Q1-E)*%
X142671800Y-59490800D03*
D14*
%TO.P,Q1,2,B*%
%TO.N,Net-(Q1-B)*%
X140131800Y-62030800D03*
%TO.P,Q1,3,C*%
%TO.N,+5V*%
X137591800Y-59490800D03*
%TD*%
D10*
%TO.P,R11,1*%
%TO.N,Net-(Q1-B)*%
X134874000Y-64858200D03*
D12*
%TO.P,R11,2*%
%TO.N,GNDD*%
X142494000Y-64858200D03*
%TD*%
D10*
%TO.P,R4,1*%
%TO.N,/sound/HP_BTL*%
X141876150Y-175032600D03*
D12*
%TO.P,R4,2*%
%TO.N,Net-(U1-SE{slash}~{BTL})*%
X141876150Y-167412600D03*
%TD*%
D23*
%TO.P,J1,1,Pin_1*%
%TO.N,Net-(J1-Pin_1)*%
X83789600Y-86981600D03*
D24*
%TO.P,J1,2,Pin_2*%
%TO.N,Net-(J1-Pin_2)*%
X86329600Y-86981600D03*
%TO.P,J1,3,Pin_3*%
%TO.N,Net-(J1-Pin_3)*%
X88869600Y-86981600D03*
%TO.P,J1,4,Pin_4*%
%TO.N,Net-(J1-Pin_4)*%
X91409600Y-86981600D03*
%TO.P,J1,5,Pin_5*%
%TO.N,Net-(J1-Pin_5)*%
X93949600Y-86981600D03*
%TO.P,J1,6,Pin_6*%
%TO.N,/GLUE/C8_FIRE*%
X96489600Y-86981600D03*
%TO.P,J1,7,Pin_7*%
%TO.N,/GLUE/C5_ARM*%
X99029600Y-86981600D03*
%TD*%
D11*
%TO.P,U2,1,D2*%
%TO.N,/GLUE/D5*%
X153924000Y-120595800D03*
D12*
%TO.P,U2,2,D1*%
%TO.N,/GLUE/D6*%
X151384000Y-120595800D03*
%TO.P,U2,3,D0*%
%TO.N,/GLUE/D7*%
X148844000Y-120595800D03*
%TO.P,U2,4,RDY*%
%TO.N,/GLUE/~{WAIT}*%
X146304000Y-120595800D03*
%TO.P,U2,5,~{WE}*%
%TO.N,/GLUE/~{SND_ENABLE}*%
X143764000Y-120595800D03*
%TO.P,U2,6,~{CE}*%
X141224000Y-120595800D03*
%TO.P,U2,7,OUT*%
%TO.N,Net-(U2-OUT)*%
X138684000Y-120595800D03*
%TO.P,U2,8,GND*%
%TO.N,GNDD*%
X136144000Y-120595800D03*
%TO.P,U2,9,N.C.*%
%TO.N,unconnected-(U2-N.C.-Pad9)*%
X136144000Y-128215800D03*
%TO.P,U2,10,D7*%
%TO.N,/GLUE/D0*%
X138684000Y-128215800D03*
%TO.P,U2,11,D6*%
%TO.N,/GLUE/D1*%
X141224000Y-128215800D03*
%TO.P,U2,12,D5*%
%TO.N,/GLUE/D2*%
X143764000Y-128215800D03*
%TO.P,U2,13,D4*%
%TO.N,/GLUE/D3*%
X146304000Y-128215800D03*
%TO.P,U2,14,CLK*%
%TO.N,/GLUE/CLK*%
X148844000Y-128215800D03*
%TO.P,U2,15,D3*%
%TO.N,/GLUE/D4*%
X151384000Y-128215800D03*
%TO.P,U2,16,VCC*%
%TO.N,+5VA*%
X153924000Y-128215800D03*
%TD*%
D10*
%TO.P,C13,1*%
%TO.N,+5V*%
X114822600Y-82765200D03*
%TO.P,C13,2*%
%TO.N,GNDD*%
X119822600Y-82765200D03*
%TD*%
D11*
%TO.P,C2,1*%
%TO.N,/sound/SP+*%
X152323800Y-168221149D03*
D10*
%TO.P,C2,2*%
%TO.N,/sound/HP+*%
X152323800Y-173221149D03*
%TD*%
D38*
%TO.P,C22,1*%
%TO.N,+5V*%
X81383400Y-89369200D03*
%TO.P,C22,2*%
%TO.N,GNDD*%
X78433400Y-89369200D03*
%TD*%
D39*
%TO.P,U10,1,VCCA*%
%TO.N,+5V*%
X82847100Y-91204400D03*
%TO.P,U10,2,DIR*%
%TO.N,Net-(U10-DIR)*%
X82847100Y-91854400D03*
%TO.P,U10,3,A1*%
%TO.N,Net-(J1-Pin_1)*%
X82847100Y-92504400D03*
%TO.P,U10,4,A2*%
%TO.N,Net-(J1-Pin_2)*%
X82847100Y-93154400D03*
%TO.P,U10,5,A3*%
%TO.N,Net-(J1-Pin_3)*%
X82847100Y-93804400D03*
%TO.P,U10,6,A4*%
%TO.N,Net-(J1-Pin_4)*%
X82847100Y-94454400D03*
%TO.P,U10,7,A5*%
%TO.N,Net-(J1-Pin_5)*%
X82847100Y-95104400D03*
%TO.P,U10,8,A6*%
%TO.N,GNDD*%
X82847100Y-95754400D03*
%TO.P,U10,9,A7*%
X82847100Y-96404400D03*
%TO.P,U10,10,A8*%
X82847100Y-97054400D03*
%TO.P,U10,11,GND*%
X82847100Y-97704400D03*
%TO.P,U10,12,GND*%
X82847100Y-98354400D03*
%TO.P,U10,13,GND*%
X77122100Y-98354400D03*
%TO.P,U10,14,B8*%
%TO.N,unconnected-(U10-B8-Pad14)*%
X77122100Y-97704400D03*
%TO.P,U10,15,B7*%
%TO.N,unconnected-(U10-B7-Pad15)*%
X77122100Y-97054400D03*
%TO.P,U10,16,B6*%
%TO.N,unconnected-(U10-B6-Pad16)*%
X77122100Y-96404400D03*
%TO.P,U10,17,B5*%
%TO.N,/GLUE/C1P6*%
X77122100Y-95754400D03*
%TO.P,U10,18,B4*%
%TO.N,/GLUE/C1P4*%
X77122100Y-95104400D03*
%TO.P,U10,19,B3*%
%TO.N,/GLUE/C1P3*%
X77122100Y-94454400D03*
%TO.P,U10,20,B2*%
%TO.N,/GLUE/C1P2*%
X77122100Y-93804400D03*
%TO.P,U10,21,B1*%
%TO.N,/GLUE/C1P1*%
X77122100Y-93154400D03*
%TO.P,U10,22,~{OE}*%
%TO.N,Net-(SW3-B)*%
X77122100Y-92504400D03*
%TO.P,U10,23,VCCB*%
%TO.N,+5V*%
X77122100Y-91854400D03*
%TO.P,U10,24,VCCB*%
X77122100Y-91204400D03*
%TD*%
D40*
%TO.P,R20,1*%
%TO.N,Net-(U10-DIR)*%
X85344000Y-92007000D03*
%TO.P,R20,2*%
%TO.N,+5V*%
X85344000Y-90182000D03*
%TD*%
D38*
%TO.P,C17,1*%
%TO.N,+5V*%
X94362800Y-96532000D03*
%TO.P,C17,2*%
%TO.N,GNDD*%
X91412800Y-96532000D03*
%TD*%
D41*
%TO.P,R13,1*%
%TO.N,/GLUE/~{WAIT}*%
X108485300Y-146874800D03*
%TO.P,R13,2*%
%TO.N,+5V*%
X110310300Y-146874800D03*
%TD*%
D42*
%TO.P,U3,1,CLK*%
%TO.N,/GLUE/CLK*%
X119554400Y-125604500D03*
%TO.P,U3,2,D4*%
%TO.N,/GLUE/D4*%
X119554400Y-126404500D03*
%TO.P,U3,3,D3*%
%TO.N,/GLUE/D3*%
X119554400Y-127204500D03*
%TO.P,U3,4,D5*%
%TO.N,/GLUE/D5*%
X119554400Y-128004500D03*
%TO.P,U3,5,D6*%
%TO.N,/GLUE/D6*%
X119554400Y-128804500D03*
%TO.P,U3,6,+5V*%
%TO.N,+5V*%
X119554400Y-129604500D03*
%TO.P,U3,7,D2*%
%TO.N,/GLUE/D2*%
X119554400Y-130404500D03*
%TO.P,U3,8,D7*%
%TO.N,/GLUE/D7*%
X119554400Y-131204500D03*
%TO.P,U3,9,D0*%
%TO.N,/GLUE/D0*%
X119554400Y-132004500D03*
%TO.P,U3,10,D1*%
%TO.N,/GLUE/D1*%
X119554400Y-132804500D03*
%TO.P,U3,11,NC_1*%
%TO.N,unconnected-(U3-NC_1-Pad11)*%
X119554400Y-133604500D03*
D43*
%TO.P,U3,12,~{INT}*%
%TO.N,/GLUE/~{INT}*%
X117891900Y-135267000D03*
%TO.P,U3,13,~{NMI}*%
%TO.N,/cpu/~{NMI}*%
X117091900Y-135267000D03*
%TO.P,U3,14,~{HALT}*%
%TO.N,/cpu/~{HALT}*%
X116291900Y-135267000D03*
%TO.P,U3,15,~{MREQ}*%
%TO.N,/GLUE/~{MREQ}*%
X115491900Y-135267000D03*
%TO.P,U3,16,~{IORQ}*%
%TO.N,/GLUE/~{IORQ}*%
X114691900Y-135267000D03*
%TO.P,U3,17,NC_2*%
%TO.N,unconnected-(U3-NC_2-Pad17)*%
X113891900Y-135267000D03*
%TO.P,U3,18,~{RD}*%
%TO.N,/GLUE/~{RD}*%
X113091900Y-135267000D03*
%TO.P,U3,19,~{WR}*%
%TO.N,/GLUE/~{WR}*%
X112291900Y-135267000D03*
%TO.P,U3,20,~{BUSACK}*%
%TO.N,/cpu/~{BUSAK}*%
X111491900Y-135267000D03*
%TO.P,U3,21,~{WAIT}*%
%TO.N,/GLUE/~{WAIT}*%
X110691900Y-135267000D03*
%TO.P,U3,22,~{BUSREQ}*%
%TO.N,/cpu/~{BUSRQ}*%
X109891900Y-135267000D03*
D42*
%TO.P,U3,23,~{RESET}*%
%TO.N,/GLUE/~{RESET}*%
X108229400Y-133604500D03*
%TO.P,U3,24,~{M1}*%
%TO.N,/GLUE/~{M1}*%
X108229400Y-132804500D03*
%TO.P,U3,25,~{RFSH}*%
%TO.N,/GLUE/~{RFSH}*%
X108229400Y-132004500D03*
%TO.P,U3,26,GND*%
%TO.N,GNDD*%
X108229400Y-131204500D03*
%TO.P,U3,27,A0*%
%TO.N,/GLUE/A0*%
X108229400Y-130404500D03*
%TO.P,U3,28,A1*%
%TO.N,/GLUE/A1*%
X108229400Y-129604500D03*
%TO.P,U3,29,A2*%
%TO.N,/GLUE/A2*%
X108229400Y-128804500D03*
%TO.P,U3,30,A3*%
%TO.N,/GLUE/A3*%
X108229400Y-128004500D03*
%TO.P,U3,31,A4*%
%TO.N,/GLUE/A4*%
X108229400Y-127204500D03*
%TO.P,U3,32,A5*%
%TO.N,/GLUE/A5*%
X108229400Y-126404500D03*
%TO.P,U3,33,NC_3*%
%TO.N,unconnected-(U3-NC_3-Pad33)*%
X108229400Y-125604500D03*
D43*
%TO.P,U3,34,A6*%
%TO.N,/GLUE/A6*%
X109891900Y-123942000D03*
%TO.P,U3,35,A7*%
%TO.N,/GLUE/A7*%
X110691900Y-123942000D03*
%TO.P,U3,36,A8*%
%TO.N,/GLUE/A8*%
X111491900Y-123942000D03*
%TO.P,U3,37,A9*%
%TO.N,/GLUE/A9*%
X112291900Y-123942000D03*
%TO.P,U3,38,A10*%
%TO.N,/GLUE/A10*%
X113091900Y-123942000D03*
%TO.P,U3,39,NC_4*%
%TO.N,unconnected-(U3-NC_4-Pad39)*%
X113891900Y-123942000D03*
%TO.P,U3,40,A11*%
%TO.N,/GLUE/A11*%
X114691900Y-123942000D03*
%TO.P,U3,41,A12*%
%TO.N,/GLUE/A12*%
X115491900Y-123942000D03*
%TO.P,U3,42,A13*%
%TO.N,/GLUE/A13*%
X116291900Y-123942000D03*
%TO.P,U3,43,A14*%
%TO.N,/GLUE/A14*%
X117091900Y-123942000D03*
%TO.P,U3,44,A15*%
%TO.N,/GLUE/A15*%
X117891900Y-123942000D03*
%TD*%
D44*
%TO.P,R9,1*%
%TO.N,/GLUE/~{INT}*%
X119354600Y-137137400D03*
%TO.P,R9,2*%
%TO.N,+5V*%
X119354600Y-138962400D03*
%TD*%
%TO.P,R7,1*%
%TO.N,/cpu/~{HALT}*%
X117221000Y-137162800D03*
%TO.P,R7,2*%
%TO.N,+5V*%
X117221000Y-138987800D03*
%TD*%
D45*
%TO.P,C9,1*%
%TO.N,+5V*%
X122224800Y-129568100D03*
%TO.P,C9,2*%
%TO.N,GNDD*%
X122224800Y-126618100D03*
%TD*%
D40*
%TO.P,R8,1*%
%TO.N,+5V*%
X108331000Y-138962400D03*
%TO.P,R8,2*%
%TO.N,/cpu/~{BUSRQ}*%
X108331000Y-137137400D03*
%TD*%
D46*
%TO.N,GNDD*%
X77622400Y-99554600D03*
X82829400Y-99503800D03*
X79933800Y-87667400D03*
X122250200Y-124954600D03*
X129209800Y-170268200D03*
%TO.N,+5V*%
X117271800Y-141007400D03*
D47*
%TO.N,GNDD*%
X110921800Y-132904800D03*
%TO.N,/GLUE/C1P4*%
X77495400Y-78853600D03*
X75133200Y-95140200D03*
%TO.N,/GLUE/C1P1*%
X72110600Y-93052200D03*
%TO.N,/GLUE/C1P2*%
X73456800Y-93840200D03*
%TO.N,/GLUE/C1P3*%
X74345800Y-94490200D03*
%TO.N,/GLUE/C5_ARM*%
X112318800Y-109663800D03*
X130886200Y-108901800D03*
%TO.N,/GLUE/C1P7*%
X75919102Y-82480117D03*
%TO.N,/GLUE/C1P6*%
X74954900Y-82511200D03*
X75946000Y-95790200D03*
%TO.N,/GLUE/C8_FIRE*%
X124257458Y-111151300D03*
X106787988Y-109987612D03*
X132059716Y-110030330D03*
X74980800Y-114097700D03*
%TO.N,/GLUE/C1P9*%
X121818400Y-111888400D03*
%TO.N,/GLUE/TCK*%
X96538313Y-121756618D03*
%TO.N,/GLUE/TMS*%
X92710574Y-131197630D03*
%TO.N,/GLUE/~{INT}*%
X117906800Y-133666800D03*
%TO.N,/GLUE/CLK*%
X140497766Y-122170966D03*
X130722085Y-110398093D03*
%TO.N,/GLUE/~{ROM_ENABLE}*%
X98983800Y-152716800D03*
%TO.N,/cpu/~{NMI}*%
X91628116Y-81561084D03*
X124355162Y-127289418D03*
X118033800Y-129856800D03*
%TO.N,/GLUE/D4*%
X129286000Y-101027800D03*
X129184400Y-150049800D03*
%TO.N,/GLUE/D3*%
X123875800Y-131380800D03*
X125450600Y-130745800D03*
X128193800Y-150735600D03*
%TO.N,/GLUE/D5*%
X126842932Y-150146732D03*
%TO.N,/GLUE/D6*%
X123647200Y-148830600D03*
X115620800Y-133452500D03*
%TO.N,/GLUE/D2*%
X118668800Y-151446800D03*
X118240891Y-146235909D03*
%TO.N,/GLUE/D7*%
X121970800Y-148551200D03*
X127838200Y-106260200D03*
%TO.N,/GLUE/D0*%
X117017800Y-152716800D03*
X115747800Y-146239800D03*
%TO.N,/GLUE/D1*%
X117068600Y-146239800D03*
X117805496Y-151878452D03*
%TO.N,/GLUE/A0*%
X101828600Y-95389000D03*
%TO.N,/GLUE/A10*%
X103013860Y-122530500D03*
%TO.N,/GLUE/A11*%
X103555300Y-121692800D03*
%TO.N,/GLUE/A12*%
X94180400Y-155442100D03*
%TO.N,/GLUE/A13*%
X84646488Y-163474688D03*
%TO.N,/GLUE/C2P4*%
X134012493Y-113145373D03*
%TO.N,/GLUE/C2P1*%
X134899400Y-115759800D03*
%TO.N,/GLUE/C2P2*%
X134899400Y-114794597D03*
%TO.N,/GLUE/C2P3*%
X134793194Y-113835255D03*
%TO.N,/GLUE/C2P7*%
X132665203Y-111798083D03*
%TO.N,/GLUE/C2P6*%
X133503606Y-112325221D03*
%TO.N,/GLUE/C2P9*%
X132690966Y-110760495D03*
%TO.N,Net-(SW3-B)*%
X72821800Y-108876400D03*
X73075800Y-92468600D03*
%TD*%
D48*
%TO.N,GNDD*%
X91412800Y-96532000D02*
X82974700Y-96532000D01*
X82974700Y-96532000D02*
X82847100Y-96404400D01*
D49*
%TO.N,/GLUE/A11*%
X103555300Y-121692800D02*
X102564700Y-121692800D01*
X102564700Y-121692800D02*
X102311200Y-121946300D01*
X102311200Y-122673436D02*
X101854000Y-123130636D01*
X101854000Y-124980000D02*
X100976100Y-125857900D01*
X102311200Y-121946300D02*
X102311200Y-122673436D01*
X101854000Y-123130636D02*
X101854000Y-124980000D01*
X100976100Y-125857900D02*
X99390200Y-125857900D01*
X99390200Y-125857900D02*
X98247200Y-127000900D01*
%TO.N,/GLUE/A7*%
X86141400Y-166082200D02*
X86126400Y-166082200D01*
X94879000Y-185147152D02*
X94879000Y-186046600D01*
X86126400Y-166082200D02*
X84378800Y-167829800D01*
X84378800Y-167829800D02*
X81219736Y-167829800D01*
X80172400Y-171338528D02*
X82096624Y-173262752D01*
X81219736Y-167829800D02*
X80172400Y-168877136D01*
X80172400Y-168877136D02*
X80172400Y-171338528D01*
X82096624Y-173262752D02*
X82994600Y-173262752D01*
X82994600Y-173262752D02*
X94879000Y-185147152D01*
%TO.N,/GLUE/A12*%
X83601400Y-166082200D02*
X83591400Y-166092200D01*
X79766000Y-168708800D02*
X79766000Y-171506864D01*
X83591400Y-166092200D02*
X83591400Y-166610600D01*
X83591400Y-166610600D02*
X82778600Y-167423400D01*
X79766000Y-171506864D02*
X81928288Y-173669152D01*
X82778600Y-167423400D02*
X81051400Y-167423400D01*
X92379800Y-183222688D02*
X92379800Y-186005800D01*
X81051400Y-167423400D02*
X79766000Y-168708800D01*
X82826264Y-173669152D02*
X92379800Y-183222688D01*
X81928288Y-173669152D02*
X82826264Y-173669152D01*
X92379800Y-186005800D02*
X92339000Y-186046600D01*
%TO.N,/GLUE/A14*%
X89763600Y-142937800D02*
X89763600Y-146782664D01*
X89763600Y-146782664D02*
X87029864Y-149516400D01*
X87029864Y-149516400D02*
X85394800Y-149516400D01*
X79359600Y-165574400D02*
X79359600Y-171675200D01*
X82657928Y-174075552D02*
X89799000Y-181216624D01*
X85394800Y-149516400D02*
X84810600Y-150100600D01*
X84810600Y-150100600D02*
X84810600Y-160123400D01*
X81759952Y-174075552D02*
X82657928Y-174075552D01*
X89799000Y-181216624D02*
X89799000Y-186046600D01*
X84810600Y-160123400D02*
X79359600Y-165574400D01*
X79359600Y-171675200D02*
X81759952Y-174075552D01*
%TO.N,/GLUE/D0*%
X115747800Y-146239800D02*
X117017800Y-147509800D01*
X117017800Y-147509800D02*
X117017800Y-152716800D01*
%TO.N,/GLUE/D1*%
X117068600Y-146239800D02*
X117779800Y-146951000D01*
X117779800Y-146951000D02*
X117779800Y-151852756D01*
X117779800Y-151852756D02*
X117805496Y-151878452D01*
%TO.N,/GLUE/D2*%
X118240891Y-146235909D02*
X118668800Y-146663818D01*
X118668800Y-146663818D02*
X118668800Y-153894664D01*
X118668800Y-153894664D02*
X111541400Y-161022064D01*
X111541400Y-161022064D02*
X111541400Y-166082200D01*
%TO.N,/GLUE/~{RAM_CS}*%
X110119000Y-170806600D02*
X110119000Y-169826400D01*
X110119000Y-169826400D02*
X112801400Y-167144000D01*
X112801400Y-167144000D02*
X112801400Y-160336800D01*
X112801400Y-160336800D02*
X121716800Y-151421400D01*
X121716800Y-151421400D02*
X129235200Y-151421400D01*
X128543674Y-141097900D02*
X127146674Y-139700900D01*
X127146674Y-139700900D02*
X126187200Y-139700900D01*
X129235200Y-151421400D02*
X129870200Y-150786400D01*
X129870200Y-150786400D02*
X129870200Y-141732900D01*
X129870200Y-141732900D02*
X129235200Y-141097900D01*
X129235200Y-141097900D02*
X128543674Y-141097900D01*
%TO.N,/GLUE/TDO*%
X112471200Y-115189900D02*
X113106200Y-115824900D01*
X112471200Y-113386500D02*
X112471200Y-115189900D01*
X127431800Y-118960200D02*
X128143000Y-118249000D01*
X113106200Y-115824900D02*
X113919000Y-115824900D01*
X86956800Y-127799824D02*
X86238224Y-128518400D01*
X113284000Y-112573700D02*
X112471200Y-113386500D01*
X129743200Y-116190452D02*
X126126448Y-112573700D01*
X114503200Y-117298100D02*
X112966000Y-118835300D01*
X86956800Y-124865800D02*
X86956800Y-127799824D01*
X129743200Y-117715600D02*
X129743200Y-116190452D01*
X113919000Y-115824900D02*
X114503200Y-116409100D01*
X91400300Y-120422300D02*
X86956800Y-124865800D01*
X129209800Y-118249000D02*
X129743200Y-117715600D01*
X114503200Y-116409100D02*
X114503200Y-117298100D01*
X126126448Y-112573700D02*
X113284000Y-112573700D01*
X128143000Y-118249000D02*
X129209800Y-118249000D01*
X112966000Y-118835300D02*
X102253177Y-118835300D01*
X127431800Y-120636600D02*
X127431800Y-118960200D01*
X102253177Y-118835300D02*
X101376377Y-117958500D01*
X126187200Y-121881200D02*
X127431800Y-120636600D01*
X80983000Y-128518400D02*
X79756000Y-127291400D01*
X126187200Y-121920900D02*
X126187200Y-121881200D01*
X101376377Y-117958500D02*
X100198023Y-117958500D01*
X100198023Y-117958500D02*
X99314000Y-118842523D01*
X99314000Y-118842523D02*
X99314000Y-119914300D01*
X99314000Y-119914300D02*
X98806000Y-120422300D01*
X98806000Y-120422300D02*
X91400300Y-120422300D01*
X86238224Y-128518400D02*
X80983000Y-128518400D01*
%TO.N,/GLUE/~{CSR}*%
X101078600Y-100634800D02*
X101078600Y-97967800D01*
X95783400Y-102653400D02*
X96723200Y-101713600D01*
X96723200Y-101713600D02*
X99999800Y-101713600D01*
X130556000Y-115853780D02*
X124761320Y-110059100D01*
X101078600Y-97967800D02*
X104089200Y-94957200D01*
X99999800Y-101713600D02*
X101078600Y-100634800D01*
X130556000Y-122632100D02*
X130556000Y-115853780D01*
X95783400Y-104380600D02*
X95783400Y-102653400D01*
X97494600Y-106091800D02*
X95783400Y-104380600D01*
X112826736Y-106091800D02*
X97494600Y-106091800D01*
X124761320Y-110059100D02*
X116794036Y-110059100D01*
X116794036Y-110059100D02*
X112826736Y-106091800D01*
X101485184Y-83685800D02*
X99522761Y-83685800D01*
X128727200Y-124460900D02*
X130556000Y-122632100D01*
X104089200Y-94957200D02*
X104089200Y-86289816D01*
X104089200Y-86289816D02*
X101485184Y-83685800D01*
X99522761Y-83685800D02*
X99116361Y-83279400D01*
X99116361Y-83279400D02*
X92376564Y-83279400D01*
X92376564Y-83279400D02*
X90344564Y-81247400D01*
X90344564Y-81247400D02*
X82752777Y-81247400D01*
X82105600Y-63644977D02*
X82797377Y-62953200D01*
X82752777Y-81247400D02*
X82105600Y-80600223D01*
X82797377Y-62953200D02*
X94361000Y-62953200D01*
X82105600Y-80600223D02*
X82105600Y-63644977D01*
X94361000Y-62953200D02*
X95910400Y-64502600D01*
%TO.N,/GLUE/C5_ARM*%
X112318800Y-109663800D02*
X111048800Y-108393800D01*
X111048800Y-108393800D02*
X96885064Y-108393800D01*
X96885064Y-108393800D02*
X93001400Y-104510136D01*
X93001400Y-104510136D02*
X93001400Y-102691509D01*
X93001400Y-102691509D02*
X95071509Y-100621400D01*
X102870000Y-93280800D02*
X102870000Y-86794824D01*
X95071509Y-100621400D02*
X97345912Y-100621400D01*
X97345912Y-100621400D02*
X98323400Y-99643912D01*
X98323400Y-99643912D02*
X98323400Y-97827400D01*
X98323400Y-97827400D02*
X102870000Y-93280800D01*
X102870000Y-86794824D02*
X100980176Y-84905000D01*
X100980176Y-84905000D02*
X99017753Y-84905000D01*
%TO.N,/GLUE/~{CSW}*%
X94960445Y-101307200D02*
X99831464Y-101307200D01*
X90176228Y-81653800D02*
X82584441Y-81653800D01*
X93407800Y-102859845D02*
X94960445Y-101307200D01*
X99354425Y-84092200D02*
X98948025Y-83685800D01*
X93407800Y-104341800D02*
X93407800Y-102859845D01*
X101316848Y-84092200D02*
X99354425Y-84092200D01*
X112658400Y-106498200D02*
X95564200Y-106498200D01*
X127203200Y-123444900D02*
X128803400Y-123444900D01*
X116625700Y-110465500D02*
X112658400Y-106498200D01*
X124592984Y-110465500D02*
X116625700Y-110465500D01*
X99831464Y-101307200D02*
X100672200Y-100466464D01*
X82584441Y-81653800D02*
X81699200Y-80768559D01*
X130149600Y-116022116D02*
X124592984Y-110465500D01*
X96494600Y-62546800D02*
X98450400Y-64502600D01*
X130149600Y-122098700D02*
X130149600Y-116022116D01*
X98948025Y-83685800D02*
X92208228Y-83685800D01*
X128803400Y-123444900D02*
X130149600Y-122098700D01*
X95564200Y-106498200D02*
X93407800Y-104341800D01*
X126187200Y-124460900D02*
X127203200Y-123444900D01*
X92208228Y-83685800D02*
X90176228Y-81653800D01*
X100672200Y-100466464D02*
X100672200Y-97799464D01*
X100672200Y-97799464D02*
X103682800Y-94788864D01*
X81699200Y-80768559D02*
X81699200Y-63476641D01*
X103682800Y-94788864D02*
X103682800Y-86458152D01*
X103682800Y-86458152D02*
X101316848Y-84092200D01*
X81699200Y-63476641D02*
X82629041Y-62546800D01*
X82629041Y-62546800D02*
X96494600Y-62546800D01*
%TO.N,/GLUE/C1P6*%
X105867200Y-116840900D02*
X104622600Y-115596300D01*
X85394800Y-110984600D02*
X83870800Y-112508600D01*
X104622600Y-115596300D02*
X104622600Y-114159459D01*
X104622600Y-114159459D02*
X102528841Y-112065700D01*
X102528841Y-112065700D02*
X91701828Y-112065700D01*
X91701828Y-112065700D02*
X90620728Y-110984600D01*
X90620728Y-110984600D02*
X85394800Y-110984600D01*
%TO.N,/GLUE/C1P4*%
X108407200Y-116840900D02*
X107391200Y-115824900D01*
X107391200Y-115824900D02*
X107391200Y-114316216D01*
X107391200Y-114316216D02*
X104734284Y-111659300D01*
X90789064Y-110578200D02*
X83261200Y-110578200D01*
X104734284Y-111659300D02*
X91870164Y-111659300D01*
X91870164Y-111659300D02*
X90789064Y-110578200D01*
X83261200Y-110578200D02*
X81330800Y-112508600D01*
D48*
%TO.N,GNDD*%
X82847100Y-98354400D02*
X82847100Y-99486100D01*
X82847100Y-99486100D02*
X82829400Y-99503800D01*
X77622400Y-98854700D02*
X77154700Y-98387000D01*
X77622400Y-99554600D02*
X77622400Y-98854700D01*
X77154700Y-98387000D02*
X77122100Y-98387000D01*
X82847100Y-98354400D02*
X82847100Y-95787000D01*
X78433400Y-89167800D02*
X79933800Y-87667400D01*
X78433400Y-89369200D02*
X78433400Y-89167800D01*
%TO.N,+5V*%
X82931000Y-105091800D02*
X88773000Y-105091800D01*
X80137000Y-91171800D02*
X81407000Y-91171800D01*
X77154700Y-91171800D02*
X80137000Y-91171800D01*
X80137000Y-91171800D02*
X80137000Y-102297800D01*
X80137000Y-102297800D02*
X82931000Y-105091800D01*
X88773000Y-105091800D02*
X94513400Y-99351400D01*
X94513400Y-99351400D02*
X94513400Y-98741800D01*
X85344000Y-90182000D02*
X83836900Y-90182000D01*
X83836900Y-90182000D02*
X82847100Y-91171800D01*
X81383400Y-91148200D02*
X81407000Y-91171800D01*
X81407000Y-91171800D02*
X82847100Y-91171800D01*
X81383400Y-89369200D02*
X81383400Y-91148200D01*
X77122100Y-91204400D02*
X77154700Y-91171800D01*
X77122100Y-91204400D02*
X77122100Y-91821800D01*
%TO.N,GNDD*%
X122224800Y-124980000D02*
X122250200Y-124954600D01*
X122224800Y-126618100D02*
X122224800Y-124980000D01*
X108229400Y-131204500D02*
X109221500Y-131204500D01*
X109221500Y-131204500D02*
X110921800Y-132904800D01*
X129219250Y-167545400D02*
X129219250Y-170258750D01*
X129219250Y-170258750D02*
X129209800Y-170268200D01*
X130489250Y-171547650D02*
X129209800Y-170268200D01*
X130489250Y-172969400D02*
X130489250Y-171547650D01*
%TO.N,+5VA*%
X131759250Y-172969400D02*
X131759250Y-174515150D01*
X131759250Y-174515150D02*
X130621400Y-175653000D01*
X145043450Y-167412600D02*
X141476650Y-170979400D01*
X132529550Y-170979400D02*
X131759250Y-171749700D01*
X141476650Y-170979400D02*
X132529550Y-170979400D01*
X131759250Y-171749700D02*
X131759250Y-172969400D01*
%TO.N,+5V*%
X94513400Y-98741800D02*
X94513400Y-96682600D01*
X94513400Y-96682600D02*
X94362800Y-96532000D01*
X122224800Y-129568100D02*
X119590800Y-129568100D01*
X119590800Y-129568100D02*
X119554400Y-129604500D01*
X122224800Y-129568100D02*
X122504200Y-129847500D01*
X122504200Y-129847500D02*
X122504200Y-141695611D01*
X122504200Y-141695611D02*
X122453400Y-141746411D01*
X122453400Y-141746411D02*
X122453400Y-142887789D01*
X123152711Y-143587100D02*
X124167216Y-143587100D01*
X122453400Y-142887789D02*
X123152711Y-143587100D01*
X124167216Y-143587100D02*
X125361016Y-144780900D01*
X125361016Y-144780900D02*
X126187200Y-144780900D01*
X119354600Y-138962400D02*
X117246400Y-138962400D01*
X117246400Y-138962400D02*
X117221000Y-138987800D01*
X117221000Y-138987800D02*
X117221000Y-140956600D01*
X117221000Y-140956600D02*
X117271800Y-141007400D01*
X110310300Y-146874800D02*
X111393300Y-146874800D01*
X111393300Y-146874800D02*
X113487200Y-144780900D01*
X105867200Y-142240900D02*
X105867200Y-141426200D01*
X105867200Y-141426200D02*
X108331000Y-138962400D01*
%TO.N,/sound/SP+*%
X138708850Y-174067400D02*
X138708850Y-175399550D01*
X135356600Y-183019000D02*
X130957000Y-183019000D01*
X138708850Y-175399550D02*
X136931400Y-177177000D01*
X136931400Y-177177000D02*
X136931400Y-181444200D01*
X136931400Y-181444200D02*
X135356600Y-183019000D01*
X130957000Y-183019000D02*
X128905000Y-180967000D01*
D49*
%TO.N,Net-(C4-Pad2)*%
X137755000Y-154621800D02*
X137337800Y-154204600D01*
X137337800Y-154204600D02*
X137337800Y-151827800D01*
X133654800Y-151827800D02*
X140639800Y-151827800D01*
X140639800Y-151827800D02*
X141249400Y-152437400D01*
X148259800Y-155953800D02*
X145698800Y-158514800D01*
X141249400Y-152437400D02*
X146964400Y-152437400D01*
X146964400Y-152437400D02*
X148259800Y-153732800D01*
X148259800Y-153732800D02*
X148259800Y-155953800D01*
D48*
%TO.N,/sound/SP+*%
X144169050Y-173011400D02*
X148959301Y-168221149D01*
X148959301Y-168221149D02*
X152323800Y-168221149D01*
X138708850Y-174067400D02*
X138708850Y-174052000D01*
X138708850Y-174052000D02*
X139749450Y-173011400D01*
X139749450Y-173011400D02*
X144169050Y-173011400D01*
%TO.N,/sound/HP_BTL*%
X146140800Y-179049602D02*
X146380200Y-178810202D01*
X146380200Y-178810202D02*
X146380200Y-176618200D01*
X146380200Y-176618200D02*
X145043450Y-175281450D01*
X145043450Y-175281450D02*
X145043450Y-175032600D01*
D49*
%TO.N,Net-(U1-BYPASS)*%
X130489250Y-167545400D02*
X130489250Y-167107900D01*
X130489250Y-167107900D02*
X126679863Y-163298513D01*
X126679863Y-163298513D02*
X125196600Y-163298513D01*
%TO.N,Net-(U1-SE{slash}~{BTL})*%
X131759250Y-167545400D02*
X131759250Y-164019163D01*
X131759250Y-164019163D02*
X131038600Y-163298513D01*
%TO.N,Net-(U1-IN)*%
X135559800Y-165137400D02*
X135559800Y-167739150D01*
X135559800Y-167739150D02*
X135541550Y-167757400D01*
X136878300Y-167768200D02*
X136867500Y-167757400D01*
X136867500Y-167757400D02*
X135541550Y-167757400D01*
X135541550Y-167757400D02*
X133241250Y-167757400D01*
X133241250Y-167757400D02*
X133029250Y-167545400D01*
%TO.N,Net-(U1-SE{slash}~{BTL})*%
X141876150Y-167412600D02*
X139579350Y-169709400D01*
X139579350Y-169709400D02*
X133485750Y-169709400D01*
X133485750Y-169709400D02*
X131759250Y-167982900D01*
X131759250Y-167982900D02*
X131759250Y-167545400D01*
D48*
%TO.N,/sound/SP-*%
X126365000Y-180967000D02*
X126365000Y-175823650D01*
X126365000Y-175823650D02*
X129219250Y-172969400D01*
D49*
%TO.N,Net-(C26-Pad1)*%
X139278287Y-162343400D02*
X139278287Y-161235887D01*
X139278287Y-161235887D02*
X135559800Y-157517400D01*
%TO.N,Net-(C26-Pad2)*%
X142316200Y-158127000D02*
X142316200Y-161305487D01*
X142316200Y-161305487D02*
X141278287Y-162343400D01*
X145698800Y-154514800D02*
X142316200Y-157897400D01*
X142316200Y-157897400D02*
X142316200Y-158127000D01*
D48*
%TO.N,/sound/SP+*%
X138708850Y-174067400D02*
X138693450Y-174067400D01*
%TO.N,/sound/HP+*%
X152323800Y-173221149D02*
X154914600Y-170630349D01*
X154914600Y-170630349D02*
X154914600Y-164527800D01*
D49*
%TO.N,Net-(U1-IN)*%
X138188300Y-166458200D02*
X136878300Y-167768200D01*
D48*
%TO.N,/sound/HP+*%
X148640800Y-179049602D02*
X148640800Y-176904149D01*
X148640800Y-176904149D02*
X152323800Y-173221149D01*
%TO.N,/sound/HP_BTL*%
X144804050Y-175272000D02*
X145043450Y-175032600D01*
X141876150Y-175032600D02*
X145043450Y-175032600D01*
%TO.N,/sound/SP+*%
X135541550Y-172757400D02*
X137398850Y-172757400D01*
X137398850Y-172757400D02*
X138708850Y-174067400D01*
X135541550Y-172757400D02*
X133241250Y-172757400D01*
X133241250Y-172757400D02*
X133029250Y-172969400D01*
D49*
%TO.N,Net-(C1-Pad1)*%
X85226464Y-149110000D02*
X86861528Y-149110000D01*
X77503000Y-149686600D02*
X84649864Y-149686600D01*
X89585800Y-132142800D02*
X89585800Y-130919800D01*
X88569800Y-133158800D02*
X89585800Y-132142800D01*
X89357200Y-133946200D02*
X88569800Y-133158800D01*
X71247000Y-157136400D02*
X71247000Y-155942600D01*
X84649864Y-149686600D02*
X85226464Y-149110000D01*
X86861528Y-149110000D02*
X89357200Y-146614328D01*
X89357200Y-146614328D02*
X89357200Y-133946200D01*
X81550400Y-130029600D02*
X84679600Y-133158800D01*
X76271200Y-129902600D02*
X76271200Y-130029600D01*
X89585800Y-130919800D02*
X89077800Y-130411800D01*
X71247000Y-155942600D02*
X77503000Y-149686600D01*
X76271200Y-130029600D02*
X81550400Y-130029600D01*
X84679600Y-133158800D02*
X88696800Y-133158800D01*
%TO.N,/GLUE/~{CS_hC000}*%
X127203200Y-133096900D02*
X126187200Y-132080900D01*
X128600200Y-100215000D02*
X128600200Y-104411048D01*
X128981200Y-104792048D02*
X128981200Y-110808156D01*
X132994399Y-126328044D02*
X132287400Y-127035047D01*
X130073400Y-98741800D02*
X128600200Y-100215000D01*
X128600200Y-104411048D02*
X128981200Y-104792048D01*
X129717799Y-133096900D02*
X127203200Y-133096900D01*
X132287400Y-130527299D02*
X129717799Y-133096900D01*
X128981200Y-110808156D02*
X132994400Y-114821356D01*
X132287400Y-127035047D02*
X132287400Y-130527299D01*
X132994400Y-114821356D02*
X132994399Y-126328044D01*
D48*
%TO.N,+5V*%
X85102700Y-89987700D02*
X84950100Y-89835100D01*
X86106000Y-117182200D02*
X85852000Y-116928200D01*
D49*
%TO.N,/GLUE/~{CS_h8000}*%
X117489300Y-108433500D02*
X125457072Y-108433500D01*
X131474600Y-129790700D02*
X130708400Y-130556900D01*
X109753400Y-98741800D02*
X109753400Y-99286088D01*
X132181600Y-115158028D02*
X132181600Y-125991372D01*
X131474600Y-126698373D02*
X131474600Y-129790700D01*
X130708400Y-130556900D02*
X127203200Y-130556900D01*
X132181600Y-125991372D02*
X131474600Y-126698373D01*
X109753400Y-99286088D02*
X113588800Y-103121488D01*
X125457072Y-108433500D02*
X132181600Y-115158028D01*
X127203200Y-130556900D02*
X126187200Y-129540900D01*
X113588800Y-103121488D02*
X113588800Y-104533000D01*
X113588800Y-104533000D02*
X117489300Y-108433500D01*
%TO.N,/GLUE/~{CS_hA000}*%
X110190312Y-102263000D02*
X108194600Y-102263000D01*
X111245464Y-104872600D02*
X110808200Y-104435336D01*
X131775200Y-125823036D02*
X131775200Y-115326364D01*
X113331744Y-104872600D02*
X111245464Y-104872600D01*
X108194600Y-102263000D02*
X104673400Y-98741800D01*
X125288736Y-108839900D02*
X117299044Y-108839900D01*
X128727200Y-129540900D02*
X129692400Y-129540900D01*
X131068200Y-128165100D02*
X131068200Y-126530036D01*
X129692400Y-129540900D02*
X131068200Y-128165100D01*
X131775200Y-115326364D02*
X125288736Y-108839900D01*
X110808200Y-102880888D02*
X110190312Y-102263000D01*
X110808200Y-104435336D02*
X110808200Y-102880888D01*
X117299044Y-108839900D02*
X113331744Y-104872600D01*
X131068200Y-126530036D02*
X131775200Y-125823036D01*
%TO.N,/GLUE/~{CS_hE000}*%
X97053400Y-104482200D02*
X97053400Y-103567800D01*
X112995072Y-105685400D02*
X98256600Y-105685400D01*
X130962400Y-125486364D02*
X130962400Y-115685444D01*
X98256600Y-105685400D02*
X97053400Y-104482200D01*
X126187200Y-127000900D02*
X127254000Y-128067700D01*
X130255400Y-126981384D02*
X130255400Y-126193364D01*
X127254000Y-128067700D02*
X129169084Y-128067700D01*
X129169084Y-128067700D02*
X130255400Y-126981384D01*
X130255400Y-126193364D02*
X130962400Y-125486364D01*
X124929656Y-109652700D02*
X116962372Y-109652700D01*
X130962400Y-115685444D02*
X124929656Y-109652700D01*
X116962372Y-109652700D02*
X112995072Y-105685400D01*
%TO.N,/GLUE/C1P4*%
X79525000Y-76290600D02*
X79525000Y-75581600D01*
X77495400Y-78320200D02*
X79525000Y-76290600D01*
X75169000Y-95104400D02*
X75133200Y-95140200D01*
X77495400Y-78853600D02*
X77495400Y-78320200D01*
X77122100Y-95104400D02*
X75169000Y-95104400D01*
%TO.N,/GLUE/C1P1*%
X105695872Y-110440100D02*
X92486236Y-110440100D01*
X112064800Y-115418500D02*
X113487200Y-116840900D01*
X91405136Y-109359000D02*
X76860400Y-109359000D01*
X76860400Y-109359000D02*
X73710800Y-112508600D01*
X72110600Y-93052200D02*
X72212800Y-93154400D01*
X111342500Y-112878500D02*
X108134272Y-112878500D01*
X92486236Y-110440100D02*
X91405136Y-109359000D01*
X108134272Y-112878500D02*
X105695872Y-110440100D01*
X112064800Y-113600800D02*
X112064800Y-115418500D01*
X112064800Y-113600800D02*
X111342500Y-112878500D01*
X72212800Y-93154400D02*
X77122100Y-93154400D01*
%TO.N,/GLUE/C1P2*%
X91236800Y-109765400D02*
X78994000Y-109765400D01*
X73492600Y-93804400D02*
X73456800Y-93840200D01*
X78994000Y-109765400D02*
X76250800Y-112508600D01*
X108828041Y-113284900D02*
X107965936Y-113284900D01*
X105527536Y-110846500D02*
X92317900Y-110846500D01*
X109423200Y-113880059D02*
X108828041Y-113284900D01*
X107965936Y-113284900D02*
X105527536Y-110846500D01*
X109423200Y-115316900D02*
X109423200Y-113880059D01*
X110947200Y-116840900D02*
X109423200Y-115316900D01*
X77122100Y-93804400D02*
X73492600Y-93804400D01*
X92317900Y-110846500D02*
X91236800Y-109765400D01*
%TO.N,/GLUE/C1P3*%
X92038500Y-111252900D02*
X90957400Y-110171800D01*
X81127600Y-110171800D02*
X78790800Y-112508600D01*
X108407200Y-114300900D02*
X105359200Y-111252900D01*
X105359200Y-111252900D02*
X92038500Y-111252900D01*
X90957400Y-110171800D02*
X81127600Y-110171800D01*
X74381600Y-94454400D02*
X74345800Y-94490200D01*
X77122100Y-94454400D02*
X74381600Y-94454400D01*
%TO.N,/GLUE/C5_ARM*%
X130886200Y-108901800D02*
X139674600Y-108901800D01*
X99029600Y-84916847D02*
X99017753Y-84905000D01*
X89839556Y-82466600D02*
X82247769Y-82466600D01*
X98611353Y-84498600D02*
X91871556Y-84498600D01*
X82247769Y-82466600D02*
X79525000Y-79743831D01*
X99017753Y-84905000D02*
X98611353Y-84498600D01*
X144526000Y-104050400D02*
X144526000Y-68837400D01*
X91871556Y-84498600D02*
X89839556Y-82466600D01*
X144526000Y-68837400D02*
X146232600Y-67130800D01*
X79525000Y-79743831D02*
X79525000Y-78351600D01*
X139674600Y-108901800D02*
X144526000Y-104050400D01*
X99029600Y-86981600D02*
X99029600Y-84916847D01*
%TO.N,/GLUE/C1P7*%
X75919102Y-79426838D02*
X74879200Y-78386936D01*
X101498400Y-112472100D02*
X91533492Y-112472100D01*
X75919102Y-82480117D02*
X75919102Y-79426838D01*
X74879200Y-78386936D02*
X74879200Y-73232400D01*
X90452392Y-111391000D02*
X87528400Y-111391000D01*
X103327200Y-114300900D02*
X101498400Y-112472100D01*
X91533492Y-112472100D02*
X90452392Y-111391000D01*
X74879200Y-73232400D02*
X76685000Y-71426600D01*
X87528400Y-111391000D02*
X86410800Y-112508600D01*
%TO.N,/GLUE/C1P6*%
X74955400Y-82510700D02*
X74955400Y-79037872D01*
X74472800Y-70868800D02*
X76685000Y-68656600D01*
X74472800Y-78555272D02*
X74472800Y-70868800D01*
X74955400Y-79037872D02*
X74472800Y-78555272D01*
X77122100Y-95754400D02*
X75981800Y-95754400D01*
X74954900Y-82511200D02*
X74955400Y-82510700D01*
X75981800Y-95754400D02*
X75946000Y-95790200D01*
%TO.N,/GLUE/C8_FIRE*%
X132553246Y-109536800D02*
X140157200Y-109536800D01*
X94894400Y-114097700D02*
X97637600Y-116840900D01*
X97637600Y-116840900D02*
X98247200Y-116840900D01*
X147967800Y-72390600D02*
X149072600Y-71285800D01*
X106787988Y-109987612D02*
X107951676Y-111151300D01*
X145338800Y-104355200D02*
X145338800Y-81266600D01*
X147967800Y-78637600D02*
X147967800Y-72390600D01*
X95334800Y-85826800D02*
X82893800Y-85826800D01*
X96489600Y-86981600D02*
X95334800Y-85826800D01*
X82893800Y-85826800D02*
X75285600Y-78218600D01*
X75285600Y-75596000D02*
X76685000Y-74196600D01*
X132059716Y-110030330D02*
X132553246Y-109536800D01*
X74980800Y-114097700D02*
X94894400Y-114097700D01*
X140157200Y-109536800D02*
X145338800Y-104355200D01*
X75285600Y-78218600D02*
X75285600Y-75596000D01*
X145338800Y-81266600D02*
X147967800Y-78637600D01*
X107951676Y-111151300D02*
X124257458Y-111151300D01*
%TO.N,/GLUE/C1P9*%
X121818400Y-111888400D02*
X107718908Y-111888400D01*
X107718908Y-111888400D02*
X105813408Y-109982900D01*
X74752200Y-108952600D02*
X70129400Y-104329800D01*
X70129400Y-104329800D02*
X70129400Y-102581000D01*
X92648100Y-109982900D02*
X91617800Y-108952600D01*
X91617800Y-108952600D02*
X74752200Y-108952600D01*
X70078600Y-100088000D02*
X70078600Y-102530200D01*
X105813408Y-109982900D02*
X92648100Y-109982900D01*
X70078600Y-102530200D02*
X70129400Y-102581000D01*
%TO.N,/GLUE/TCK*%
X96538313Y-121915911D02*
X91137424Y-127316800D01*
X87342800Y-128924800D02*
X78341400Y-128924800D01*
X76708000Y-127291400D02*
X73533000Y-127291400D01*
X91137424Y-127316800D02*
X88950800Y-127316800D01*
X73533000Y-127291400D02*
X73334800Y-127489600D01*
X78341400Y-128924800D02*
X76708000Y-127291400D01*
X96538313Y-121756618D02*
X96538313Y-121915911D01*
X88950800Y-127316800D02*
X87342800Y-128924800D01*
%TO.N,/GLUE/TDO*%
X77414200Y-124949600D02*
X73334800Y-124949600D01*
X79756000Y-127291400D02*
X77414200Y-124949600D01*
%TO.N,/GLUE/TMS*%
X82778600Y-127316800D02*
X77871400Y-122409600D01*
X77871400Y-122409600D02*
X73334800Y-122409600D01*
X92710574Y-131197630D02*
X93351304Y-130556900D01*
X99771200Y-130556900D02*
X100787200Y-129540900D01*
X93351304Y-130556900D02*
X99771200Y-130556900D01*
%TO.N,/GLUE/TDI*%
X91806700Y-119380900D02*
X98247200Y-119380900D01*
X78455600Y-119945800D02*
X75951000Y-119945800D01*
X85852000Y-127342200D02*
X78455600Y-119945800D01*
X85852000Y-127342200D02*
X85852000Y-125335600D01*
X85852000Y-125335600D02*
X91806700Y-119380900D01*
X75951000Y-119945800D02*
X73334800Y-117329600D01*
%TO.N,Net-(Q1-B)*%
X139039600Y-63123000D02*
X139039600Y-64858200D01*
X140471400Y-61691200D02*
X139039600Y-63123000D01*
X135077200Y-64858200D02*
X139039600Y-64858200D01*
X139039600Y-64858200D02*
X142595600Y-68414200D01*
%TO.N,/GLUE/~{RESET_SW}*%
X98898136Y-120904900D02*
X97713800Y-120904900D01*
X86812736Y-130029600D02*
X86431200Y-130029600D01*
X115011200Y-117780700D02*
X113550200Y-119241700D01*
X99771200Y-120031836D02*
X98898136Y-120904900D01*
X91541599Y-127723200D02*
X89119136Y-127723200D01*
X89119136Y-127723200D02*
X86812736Y-130029600D01*
X115011200Y-115824900D02*
X115011200Y-117780700D01*
X86558200Y-130029600D02*
X86431200Y-129902600D01*
X99771200Y-118960059D02*
X99771200Y-120031836D01*
X101208041Y-118364900D02*
X100366359Y-118364900D01*
X97231200Y-121387500D02*
X97231200Y-122033599D01*
X97713800Y-120904900D02*
X97231200Y-121387500D01*
X100366359Y-118364900D02*
X99771200Y-118960059D01*
X113550200Y-119241700D02*
X102084841Y-119241700D01*
X113487200Y-114300900D02*
X115011200Y-115824900D01*
X97231200Y-122033599D02*
X91541599Y-127723200D01*
X102084841Y-119241700D02*
X101208041Y-118364900D01*
%TO.N,/GLUE/~{INT}*%
X117891900Y-135267000D02*
X119354600Y-136729700D01*
X117891900Y-133681700D02*
X117891900Y-135267000D01*
X119354600Y-136729700D02*
X119354600Y-137137400D01*
X117906800Y-133666800D02*
X117891900Y-133681700D01*
%TO.N,/video/Y*%
X121310400Y-77507400D02*
X122885200Y-75932600D01*
X134518400Y-68414200D02*
X134975600Y-68414200D01*
X127000000Y-75932600D02*
X134518400Y-68414200D01*
X122885200Y-75932600D02*
X127000000Y-75932600D01*
X121310400Y-79742600D02*
X121310400Y-77507400D01*
%TO.N,/GLUE/~{WAIT}*%
X106984800Y-143191800D02*
X106984800Y-141651723D01*
X110637200Y-135410300D02*
X110780900Y-135266600D01*
X108407200Y-144614200D02*
X106984800Y-143191800D01*
X107818023Y-140818500D02*
X108122996Y-140818500D01*
X106984800Y-141651723D02*
X107818023Y-140818500D01*
X110691900Y-138249596D02*
X110691900Y-135267000D01*
X108483400Y-144857100D02*
X108407200Y-144780900D01*
X108122996Y-140818500D02*
X110691900Y-138249596D01*
X108407200Y-144780900D02*
X108407200Y-144614200D01*
X108483400Y-146560800D02*
X108483400Y-144857100D01*
%TO.N,/GLUE/~{SND_ENABLE}*%
X133506600Y-127592000D02*
X134467600Y-126631000D01*
X140639800Y-122998800D02*
X141224000Y-122414600D01*
X128727200Y-137160900D02*
X128727200Y-136181400D01*
X133506600Y-131402000D02*
X133506600Y-127592000D01*
X135671400Y-122998800D02*
X140639800Y-122998800D01*
X134467600Y-124202600D02*
X135671400Y-122998800D01*
X128727200Y-136181400D02*
X133506600Y-131402000D01*
X141224000Y-122414600D02*
X141224000Y-120595800D01*
X134467600Y-126631000D02*
X134467600Y-124202600D01*
X141224000Y-120595800D02*
X143764000Y-120595800D01*
%TO.N,/GLUE/CLK*%
X116027200Y-114300900D02*
X117043200Y-115316900D01*
X140436600Y-122109800D02*
X140497766Y-122170966D01*
X131941000Y-97554928D02*
X130968872Y-96582800D01*
X131941000Y-99765384D02*
X131941000Y-97554928D01*
X126390400Y-95068264D02*
X126390400Y-79742600D01*
X135695577Y-122109800D02*
X140436600Y-122109800D01*
X130722085Y-110398093D02*
X130722085Y-110824833D01*
X139623800Y-130999800D02*
X141303000Y-129320600D01*
X120091200Y-122759100D02*
X120091200Y-125067700D01*
X126390400Y-79742600D02*
X126403100Y-79755300D01*
X117043200Y-119711100D02*
X120091200Y-122759100D01*
X131572000Y-104939400D02*
X131572000Y-100134384D01*
X127904936Y-96582800D02*
X126390400Y-95068264D01*
X147739200Y-129320600D02*
X148844000Y-128215800D01*
X139623800Y-132625400D02*
X139623800Y-130999800D01*
X120091200Y-125067700D02*
X119554400Y-125604500D01*
X138633200Y-133616000D02*
X139623800Y-132625400D01*
X130722085Y-110824833D02*
X134213600Y-114316348D01*
X130968872Y-96582800D02*
X127904936Y-96582800D01*
X117043200Y-115316900D02*
X117043200Y-119711100D01*
X130200400Y-109876408D02*
X130200400Y-106311000D01*
X130722085Y-110398093D02*
X130200400Y-109876408D01*
X134213599Y-120627822D02*
X135695577Y-122109800D01*
X141303000Y-129320600D02*
X147739200Y-129320600D01*
X134213600Y-114316348D02*
X134213599Y-120627822D01*
X131572000Y-100134384D02*
X131941000Y-99765384D01*
X130200400Y-106311000D02*
X131572000Y-104939400D01*
%TO.N,/GLUE/~{MREQ}*%
X114655600Y-143409300D02*
X114655600Y-137702402D01*
X116027200Y-144780900D02*
X114655600Y-143409300D01*
X115491900Y-135267000D02*
X115491900Y-136866102D01*
X115491900Y-136866102D02*
X114655600Y-137702402D01*
%TO.N,/GLUE/~{IORQ}*%
X114691900Y-135267000D02*
X114691900Y-137091366D01*
X113944400Y-141783700D02*
X113487200Y-142240900D01*
X113944400Y-137838866D02*
X113944400Y-141783700D01*
X114691900Y-137091366D02*
X113944400Y-137838866D01*
%TO.N,/GLUE/~{WR}*%
X93461600Y-169684000D02*
X92339000Y-170806600D01*
X105356600Y-165241600D02*
X105356600Y-166460800D01*
X112291900Y-135267000D02*
X112291900Y-133835000D01*
X113588800Y-132538100D02*
X113588800Y-129896500D01*
X107986359Y-141224900D02*
X107391200Y-141820059D01*
X113588800Y-129896500D02*
X119148000Y-124337300D01*
X105356600Y-166460800D02*
X102133400Y-169684000D01*
X112291900Y-135267000D02*
X112291900Y-137224332D01*
X114477800Y-146112800D02*
X116332000Y-147967000D01*
X107391200Y-141820059D02*
X107391200Y-143023464D01*
X108081836Y-143714100D02*
X113929084Y-143714100D01*
X119148000Y-124337300D02*
X119148000Y-122807936D01*
X102133400Y-169684000D02*
X93461600Y-169684000D01*
X112291900Y-137224332D02*
X108291332Y-141224900D01*
X116332000Y-154266200D02*
X105356600Y-165241600D01*
X119148000Y-122807936D02*
X116027200Y-119687136D01*
X108291332Y-141224900D02*
X107986359Y-141224900D01*
X113929084Y-143714100D02*
X114554000Y-144339016D01*
X107391200Y-143023464D02*
X108081836Y-143714100D01*
X116332000Y-147967000D02*
X116332000Y-154266200D01*
X112291900Y-133835000D02*
X113588800Y-132538100D01*
X114477800Y-145298984D02*
X114477800Y-146112800D01*
X114554000Y-144339016D02*
X114554000Y-145222784D01*
X114554000Y-145222784D02*
X114477800Y-145298984D01*
X116027200Y-119687136D02*
X116027200Y-116840900D01*
%TO.N,/GLUE/~{RESET}*%
X107010200Y-139119562D02*
X104800400Y-141329362D01*
X107010200Y-134062100D02*
X107010200Y-139119562D01*
X107468200Y-133604100D02*
X107010200Y-134062100D01*
X104800400Y-143714100D02*
X105867200Y-144780900D01*
X104800400Y-141329362D02*
X104800400Y-143714100D01*
%TO.N,/GLUE/~{M1}*%
X103327200Y-143821426D02*
X104343200Y-142805426D01*
X104343200Y-142805426D02*
X104343200Y-141211826D01*
X106603800Y-133863282D02*
X107662582Y-132804500D01*
X104343200Y-141211826D02*
X106603800Y-138951226D01*
X106603800Y-138951226D02*
X106603800Y-133863282D01*
X107662582Y-132804500D02*
X108229400Y-132804500D01*
X103327200Y-144780900D02*
X103327200Y-143821426D01*
%TO.N,/GLUE/~{RFSH}*%
X106197400Y-138761100D02*
X106197400Y-133334964D01*
X103327200Y-142240900D02*
X103327200Y-141631300D01*
X107527864Y-132004500D02*
X108229400Y-132004500D01*
X106197400Y-133334964D02*
X107527864Y-132004500D01*
X103327200Y-141631300D02*
X106197400Y-138761100D01*
%TO.N,/GLUE/~{ROM_ENABLE}*%
X101381400Y-151462200D02*
X101381400Y-150842200D01*
X98983800Y-152716800D02*
X100126800Y-152716800D01*
X100126800Y-152716800D02*
X101381400Y-151462200D01*
%TO.N,/video/RnW*%
X113232777Y-62997800D02*
X112420400Y-63810177D01*
X112420400Y-65213800D02*
X111626800Y-66007400D01*
X109905800Y-63835577D02*
X109048823Y-62978600D01*
X111626800Y-66007400D02*
X110343800Y-66007400D01*
X118694200Y-58736800D02*
X114433200Y-62997800D01*
X114433200Y-62997800D02*
X113232777Y-62997800D01*
X109905800Y-65569400D02*
X109905800Y-63835577D01*
X110343800Y-66007400D02*
X109905800Y-65569400D01*
X107594400Y-62978600D02*
X106070400Y-64502600D01*
X109048823Y-62978600D02*
X107594400Y-62978600D01*
X112420400Y-63810177D02*
X112420400Y-65213800D01*
%TO.N,/video/R4*%
X102412800Y-78320200D02*
X100990400Y-79742600D01*
X94805600Y-58209577D02*
X94805600Y-59594423D01*
X94805600Y-59594423D02*
X96716577Y-61505400D01*
X85750400Y-51116800D02*
X85750400Y-51701000D01*
X102412800Y-63962577D02*
X102412800Y-78320200D01*
X93828023Y-57232000D02*
X94805600Y-58209577D01*
X85750400Y-51701000D02*
X91281400Y-57232000D01*
X99961823Y-61511600D02*
X102412800Y-63962577D01*
X98212064Y-61511600D02*
X99961823Y-61511600D01*
X96716577Y-61505400D02*
X98205864Y-61505400D01*
X98205864Y-61505400D02*
X98212064Y-61511600D01*
X91281400Y-57232000D02*
X93828023Y-57232000D01*
%TO.N,/video/R3*%
X107391200Y-80453800D02*
X106597600Y-81247400D01*
X106597600Y-81247400D02*
X105035200Y-81247400D01*
X110836136Y-73773600D02*
X107391200Y-77218536D01*
X115976400Y-48754600D02*
X129603895Y-48754600D01*
X130762041Y-49211800D02*
X130768241Y-49205600D01*
X130061095Y-49211800D02*
X130762041Y-49211800D01*
X132905400Y-50090841D02*
X132905400Y-53011992D01*
X133527800Y-60461008D02*
X133527800Y-66118736D01*
X129603895Y-48754600D02*
X130061095Y-49211800D01*
X134464608Y-54571200D02*
X135658408Y-54571200D01*
X137287000Y-56199792D02*
X137287000Y-58143674D01*
X135658408Y-54571200D02*
X137287000Y-56199792D01*
X135756074Y-59674600D02*
X134314208Y-59674600D01*
X132905400Y-53011992D02*
X134464608Y-54571200D01*
X132020159Y-49205600D02*
X132905400Y-50090841D01*
X130768241Y-49205600D02*
X132020159Y-49205600D01*
X107391200Y-77218536D02*
X107391200Y-80453800D01*
X113614200Y-51116800D02*
X115976400Y-48754600D01*
X137287000Y-58143674D02*
X135756074Y-59674600D01*
X105035200Y-81247400D02*
X103530400Y-79742600D01*
X125872936Y-73773600D02*
X110836136Y-73773600D01*
X133527800Y-66118736D02*
X125872936Y-73773600D01*
X134314208Y-59674600D02*
X133527800Y-60461008D01*
%TO.N,/video/R2*%
X133121400Y-65950400D02*
X125704600Y-73367200D01*
X110667800Y-73367200D02*
X106070400Y-77964600D01*
X118694200Y-51116800D02*
X120650000Y-49161000D01*
X131851823Y-49612000D02*
X132499000Y-50259177D01*
X132499000Y-53180328D02*
X134296272Y-54977600D01*
X132499000Y-50259177D02*
X132499000Y-53180328D01*
X106070400Y-77964600D02*
X106070400Y-79742600D01*
X130930377Y-49618200D02*
X130936577Y-49612000D01*
X134145872Y-59268200D02*
X133121400Y-60292672D01*
X130936577Y-49612000D02*
X131851823Y-49612000D01*
X129892759Y-49618200D02*
X130930377Y-49618200D01*
X129435559Y-49161000D02*
X129892759Y-49618200D01*
X120650000Y-49161000D02*
X129435559Y-49161000D01*
X136880600Y-57975338D02*
X135587738Y-59268200D01*
X135490072Y-54977600D02*
X136880600Y-56368128D01*
X134296272Y-54977600D02*
X135490072Y-54977600D01*
X125704600Y-73367200D02*
X110667800Y-73367200D01*
X136880600Y-56368128D02*
X136880600Y-57975338D01*
X135587738Y-59268200D02*
X134145872Y-59268200D01*
X133121400Y-60292672D02*
X133121400Y-65950400D01*
%TO.N,/cpu/~{HALT}*%
X117221000Y-137162800D02*
X116291900Y-136233700D01*
X116291900Y-136233700D02*
X116291900Y-135267000D01*
%TO.N,/cpu/~{NMI}*%
X124355162Y-127289418D02*
X125539844Y-128474100D01*
X101653520Y-83279400D02*
X99691097Y-83279400D01*
X117221000Y-135306700D02*
X117180900Y-135266600D01*
X130661800Y-126361700D02*
X131368800Y-125654700D01*
X118033800Y-129856800D02*
X117144800Y-130745800D01*
X104495600Y-97177888D02*
X104495600Y-86121480D01*
X104495600Y-86121480D02*
X101653520Y-83279400D01*
X113163408Y-105279000D02*
X104490488Y-105279000D01*
X117091900Y-134700182D02*
X117091900Y-135267000D01*
X104490488Y-105279000D02*
X103618600Y-104407112D01*
X125120400Y-109246300D02*
X117130708Y-109246300D01*
X125539844Y-128474100D02*
X129337420Y-128474100D01*
X131368800Y-115494700D02*
X125120400Y-109246300D01*
X117130708Y-109246300D02*
X113163408Y-105279000D01*
X117144800Y-134647282D02*
X117091900Y-134700182D01*
X92940032Y-82873000D02*
X91628116Y-81561084D01*
X103618600Y-104407112D02*
X103618600Y-98054888D01*
X103618600Y-98054888D02*
X104495600Y-97177888D01*
X99284697Y-82873000D02*
X92940032Y-82873000D01*
X117144800Y-130745800D02*
X117144800Y-134647282D01*
X130661800Y-127149720D02*
X130661800Y-126361700D01*
X129337420Y-128474100D02*
X130661800Y-127149720D01*
X99691097Y-83279400D02*
X99284697Y-82873000D01*
X131368800Y-125654700D02*
X131368800Y-115494700D01*
%TO.N,/GLUE/D4*%
X124637800Y-128536052D02*
X123926448Y-127824700D01*
X127609600Y-141123300D02*
X125933200Y-141123300D01*
X97992777Y-81247400D02*
X99958041Y-81247400D01*
X83210400Y-79742600D02*
X85528000Y-77425000D01*
X133400799Y-126496379D02*
X133400800Y-114653020D01*
X129387600Y-104623712D02*
X129018600Y-104254712D01*
X128955800Y-142469500D02*
X128727200Y-142240900D01*
X129018600Y-104254712D02*
X129018600Y-101295200D01*
X95555223Y-77425000D02*
X97332800Y-79202577D01*
X129387600Y-110639820D02*
X129387600Y-104623712D01*
X123926448Y-127824700D02*
X121464336Y-127824700D01*
X124637800Y-139827900D02*
X124637800Y-128536052D01*
X99958041Y-81247400D02*
X100364441Y-81653800D01*
X97332800Y-79202577D02*
X97332800Y-80587423D01*
X144830800Y-130745800D02*
X144830800Y-140118400D01*
X102326864Y-81653800D02*
X106121200Y-85448136D01*
X129784535Y-133604900D02*
X132693800Y-130695635D01*
X129184400Y-150049800D02*
X128727200Y-149592600D01*
X124637800Y-133604900D02*
X129784535Y-133604900D01*
X132693800Y-127203382D02*
X133400799Y-126496379D01*
X133400800Y-114653020D02*
X129387600Y-110639820D01*
X111896464Y-93001400D02*
X113417472Y-93001400D01*
X106121200Y-85448136D02*
X106121200Y-87226136D01*
X85528000Y-77425000D02*
X95555223Y-77425000D01*
X128727200Y-142240900D02*
X128219200Y-142240900D01*
X106121200Y-87226136D02*
X111896464Y-93001400D01*
X120596700Y-126957064D02*
X120596700Y-126879982D01*
X120121218Y-126404500D02*
X119554400Y-126404500D01*
X121827864Y-95576264D02*
X124993400Y-98741800D01*
X128727200Y-142240900D02*
X127609600Y-141123300D01*
X129018600Y-101295200D02*
X129286000Y-101027800D01*
X128727200Y-149592600D02*
X128727200Y-142240900D01*
X113417472Y-93001400D02*
X115992336Y-95576264D01*
X145732400Y-129844200D02*
X144830800Y-130745800D01*
X132693800Y-130695635D02*
X132693800Y-127203382D01*
X149755600Y-129844200D02*
X145732400Y-129844200D01*
X100364441Y-81653800D02*
X102326864Y-81653800D01*
X97332800Y-80587423D02*
X97992777Y-81247400D01*
X151384000Y-128215800D02*
X149755600Y-129844200D01*
X120596700Y-126879982D02*
X120121218Y-126404500D01*
X121464336Y-127824700D02*
X120596700Y-126957064D01*
X144830800Y-140118400D02*
X143713200Y-141236000D01*
X125933200Y-141123300D02*
X124637800Y-139827900D01*
X115992336Y-95576264D02*
X121827864Y-95576264D01*
%TO.N,/GLUE/D3*%
X127533400Y-98183000D02*
X124347196Y-94996796D01*
X115987604Y-94996796D02*
X113585808Y-92595000D01*
X112064800Y-92595000D02*
X106527600Y-87057800D01*
X119554000Y-127204100D02*
X119554400Y-127204500D01*
X126478600Y-99796600D02*
X126478600Y-104254712D01*
X125084041Y-142240900D02*
X126187200Y-142240900D01*
X128244600Y-150684800D02*
X128244600Y-144298300D01*
X131881000Y-126866709D02*
X131881000Y-129959036D01*
X106527600Y-87057800D02*
X106527600Y-85279800D01*
X113585808Y-92595000D02*
X112064800Y-92595000D01*
X97688823Y-77018600D02*
X85744200Y-77018600D01*
X102495200Y-81247400D02*
X100532777Y-81247400D01*
X130840236Y-130999800D02*
X126796800Y-130999800D01*
X154451200Y-126660200D02*
X155168600Y-127377600D01*
X127696688Y-105472800D02*
X128020668Y-105472800D01*
X123875800Y-131380800D02*
X123875800Y-141032659D01*
X128574800Y-110976492D02*
X132588000Y-114989692D01*
X132588000Y-114989692D02*
X132587999Y-126159708D01*
X83210400Y-74484800D02*
X83210400Y-64502600D01*
X155168600Y-134590664D02*
X149628064Y-140131200D01*
X126478600Y-104254712D02*
X127696688Y-105472800D01*
X128574800Y-106026932D02*
X128574800Y-110976492D01*
X128244600Y-144298300D02*
X126187200Y-142240900D01*
X127533400Y-98741800D02*
X127533400Y-98183000D01*
X121296000Y-128231100D02*
X123758112Y-128231100D01*
X120345200Y-127280300D02*
X121296000Y-128231100D01*
X147358000Y-140131200D02*
X146253200Y-141236000D01*
X126542800Y-130745800D02*
X125450600Y-130745800D01*
X123886800Y-128359788D02*
X123886800Y-131369800D01*
X131881000Y-129959036D02*
X130840236Y-130999800D01*
X99885600Y-79215377D02*
X97688823Y-77018600D01*
X147859600Y-126660200D02*
X154451200Y-126660200D01*
X128020668Y-105472800D02*
X128574800Y-106026932D01*
X155168600Y-127377600D02*
X155168600Y-134590664D01*
X85744200Y-77018600D02*
X83210400Y-74484800D01*
X126796800Y-130999800D02*
X126542800Y-130745800D01*
X146304000Y-128215800D02*
X147859600Y-126660200D01*
X99885600Y-80600223D02*
X99885600Y-79215377D01*
X119630200Y-127280300D02*
X120345200Y-127280300D01*
X106527600Y-85279800D02*
X102495200Y-81247400D01*
X149628064Y-140131200D02*
X147358000Y-140131200D01*
X123758112Y-128231100D02*
X123886800Y-128359788D01*
X123886800Y-131369800D02*
X123875800Y-131380800D01*
X124347196Y-94996796D02*
X115987604Y-94996796D01*
X132587999Y-126159708D02*
X131881000Y-126866709D01*
X123875800Y-141032659D02*
X125084041Y-142240900D01*
X128193800Y-150735600D02*
X128244600Y-150684800D01*
X100532777Y-81247400D02*
X99885600Y-80600223D01*
X127533400Y-98741800D02*
X126478600Y-99796600D01*
X119554400Y-127204500D02*
X119630200Y-127280300D01*
%TO.N,/GLUE/D5*%
X94742000Y-78821377D02*
X93752023Y-77831400D01*
X123480400Y-130506200D02*
X123480400Y-128985324D01*
X95859177Y-81653800D02*
X94742000Y-80536623D01*
X123647200Y-142240900D02*
X123113800Y-141707500D01*
X123113800Y-141707500D02*
X123113800Y-130872800D01*
X124688600Y-143282300D02*
X123647200Y-142240900D01*
X123132576Y-128637500D02*
X120754218Y-128637500D01*
X105714800Y-87394472D02*
X105714800Y-85616472D01*
X126842932Y-150146732D02*
X127254000Y-149735664D01*
X120121218Y-128004500D02*
X119554400Y-128004500D01*
X127254000Y-144339016D02*
X126197284Y-143282300D01*
X120754218Y-128637500D02*
X120121218Y-128004500D01*
X127254000Y-149735664D02*
X127254000Y-144339016D01*
X122453400Y-98741800D02*
X119735600Y-96024000D01*
X87661600Y-77831400D02*
X85750400Y-79742600D01*
X99789705Y-81653800D02*
X95859177Y-81653800D01*
X113299936Y-93458600D02*
X111778928Y-93458600D01*
X102158528Y-82060200D02*
X100196105Y-82060200D01*
X111778928Y-93458600D02*
X105714800Y-87394472D01*
X100196105Y-82060200D02*
X99789705Y-81653800D01*
X119735600Y-96024000D02*
X115865336Y-96024000D01*
X126197284Y-143282300D02*
X124688600Y-143282300D01*
X105714800Y-85616472D02*
X102158528Y-82060200D01*
X123113800Y-130872800D02*
X123480400Y-130506200D01*
X123480400Y-128985324D02*
X123132576Y-128637500D01*
X94742000Y-80536623D02*
X94742000Y-78821377D01*
X115865336Y-96024000D02*
X113299936Y-93458600D01*
X93752023Y-77831400D02*
X87661600Y-77831400D01*
%TO.N,/GLUE/D6*%
X119913400Y-98741800D02*
X117602000Y-96430400D01*
X113131600Y-93865000D02*
X111610592Y-93865000D01*
X93725577Y-82060200D02*
X92252800Y-80587423D01*
X101990192Y-82466600D02*
X100027769Y-82466600D01*
X105308400Y-87562808D02*
X105308400Y-85784808D01*
X100027769Y-82466600D02*
X99621369Y-82060200D01*
X123647200Y-148830600D02*
X123647200Y-144780900D01*
X92252800Y-79202577D02*
X91288023Y-78237800D01*
X117602000Y-96430400D02*
X115697000Y-96430400D01*
X105308400Y-85784808D02*
X101990192Y-82466600D01*
X111610592Y-93865000D02*
X105308400Y-87562808D01*
X92252800Y-80587423D02*
X92252800Y-79202577D01*
X99621369Y-82060200D02*
X93725577Y-82060200D01*
X91288023Y-78237800D02*
X89795200Y-78237800D01*
X115620800Y-129475800D02*
X116292500Y-128804100D01*
X116292500Y-128804100D02*
X118999200Y-128804100D01*
X115620800Y-133452500D02*
X115620800Y-129475800D01*
X89795200Y-78237800D02*
X88290400Y-79742600D01*
X115697000Y-96430400D02*
X113131600Y-93865000D01*
%TO.N,/GLUE/D2*%
X121920000Y-131965000D02*
X120359500Y-130404500D01*
X121920000Y-140053508D02*
X121920000Y-131965000D01*
X154679800Y-126253800D02*
X155575000Y-127149000D01*
X155575000Y-127149000D02*
X155575000Y-134759000D01*
X149098000Y-141236000D02*
X148793200Y-141236000D01*
X143764000Y-128215800D02*
X145726000Y-126253800D01*
X145726000Y-126253800D02*
X154679800Y-126253800D01*
X120359500Y-130404500D02*
X119554400Y-130404500D01*
X121107200Y-140866308D02*
X121920000Y-140053508D01*
X155575000Y-134759000D02*
X149098000Y-141236000D01*
X121107200Y-142240900D02*
X121107200Y-140866308D01*
%TO.N,/GLUE/D7*%
X121970800Y-148551200D02*
X121437400Y-148017800D01*
X111442256Y-94271400D02*
X112903000Y-94271400D01*
X127838200Y-106260200D02*
X126048200Y-104470200D01*
X118694200Y-100062600D02*
X117373400Y-98741800D01*
X120091200Y-143764900D02*
X120091200Y-141307572D01*
X99859433Y-82873000D02*
X101821856Y-82873000D01*
X112903000Y-94271400D02*
X117373400Y-98741800D01*
X90830400Y-79742600D02*
X93554400Y-82466600D01*
X120091200Y-141307572D02*
X121513600Y-139885172D01*
X101821856Y-82873000D02*
X104902000Y-85953144D01*
X93554400Y-82466600D02*
X99453033Y-82466600D01*
X121107200Y-144780900D02*
X120091200Y-143764900D01*
X121513600Y-139885172D02*
X121513600Y-132193600D01*
X126048200Y-102819200D02*
X123291600Y-100062600D01*
X121513600Y-132193600D02*
X120524100Y-131204100D01*
X121437400Y-145111100D02*
X121107200Y-144780900D01*
X104902000Y-85953144D02*
X104902000Y-87731144D01*
X121437400Y-148017800D02*
X121437400Y-145111100D01*
X126048200Y-104470200D02*
X126048200Y-102819200D01*
X123291600Y-100062600D02*
X118694200Y-100062600D01*
X99453033Y-82466600D02*
X99859433Y-82873000D01*
X120524100Y-131204100D02*
X119732898Y-131204100D01*
X104902000Y-87731144D02*
X111442256Y-94271400D01*
%TO.N,/GLUE/D0*%
X117017800Y-152716800D02*
X117017800Y-154396192D01*
X106461400Y-164952592D02*
X106461400Y-166082200D01*
X156387800Y-126726664D02*
X155102136Y-125441000D01*
X119583200Y-142661741D02*
X119583200Y-141240836D01*
X155102136Y-125441000D02*
X141458800Y-125441000D01*
X119583200Y-141240836D02*
X121107200Y-139716836D01*
X153873200Y-141236000D02*
X153873200Y-137680000D01*
X121107200Y-132563500D02*
X120548200Y-132004500D01*
X120548200Y-132004500D02*
X119554400Y-132004500D01*
X116027200Y-142240900D02*
X117043200Y-143256900D01*
X118988041Y-143256900D02*
X119583200Y-142661741D01*
X153873200Y-137680000D02*
X156387800Y-135165400D01*
X156387800Y-135165400D02*
X156387800Y-126726664D01*
X121107200Y-139716836D02*
X121107200Y-132563500D01*
X141458800Y-125441000D02*
X138684000Y-128215800D01*
X117043200Y-143256900D02*
X118988041Y-143256900D01*
X117017800Y-154396192D02*
X106461400Y-164952592D01*
%TO.N,/GLUE/D1*%
X118999000Y-132868300D02*
X118999000Y-132737998D01*
X155981400Y-134927336D02*
X151333200Y-139575536D01*
X120700800Y-133384082D02*
X120700800Y-139548500D01*
X141224000Y-128215800D02*
X143592400Y-125847400D01*
X143592400Y-125847400D02*
X154933800Y-125847400D01*
X155981400Y-126895000D02*
X155981400Y-134927336D01*
X117779800Y-154208928D02*
X109001400Y-162987328D01*
X154933800Y-125847400D02*
X155981400Y-126895000D01*
X151333200Y-139575536D02*
X151333200Y-141236000D01*
X118567200Y-141682100D02*
X118567200Y-142240900D01*
X119774600Y-133024700D02*
X120341418Y-133024700D01*
X117779800Y-151904148D02*
X117779800Y-154208928D01*
X117805496Y-151878452D02*
X117779800Y-151904148D01*
X119554400Y-132804500D02*
X119774600Y-133024700D01*
X120341418Y-133024700D02*
X120700800Y-133384082D01*
X120700800Y-139548500D02*
X118567200Y-141682100D01*
X109001400Y-162987328D02*
X109001400Y-166082200D01*
%TO.N,/GLUE/A0*%
X82460705Y-62140400D02*
X98628200Y-62140400D01*
X85839400Y-172084400D02*
X85839400Y-170392352D01*
X88586616Y-169625400D02*
X88950576Y-169261440D01*
X112646200Y-150384576D02*
X112646200Y-156732800D01*
X86606352Y-169625400D02*
X88586616Y-169625400D01*
X100787200Y-142240900D02*
X101803200Y-143256900D01*
X103035100Y-86385188D02*
X101148512Y-84498600D01*
X100742160Y-169261440D02*
X103921400Y-166082200D01*
X112659000Y-185848400D02*
X107543600Y-180733000D01*
X106324400Y-130404500D02*
X108229400Y-130404500D01*
X101803200Y-147281200D02*
X103040200Y-148518200D01*
X111592624Y-149331000D02*
X112646200Y-150384576D01*
X100787200Y-142240900D02*
X100787200Y-141856162D01*
X104916808Y-148518200D02*
X105305408Y-148906800D01*
X107543600Y-180733000D02*
X94488000Y-180733000D01*
X92039892Y-84092200D02*
X90007892Y-82060200D01*
X90007892Y-82060200D02*
X82416105Y-82060200D01*
X85839400Y-170392352D02*
X86606352Y-169625400D01*
X107720272Y-149331000D02*
X111592624Y-149331000D01*
X104419400Y-135827644D02*
X104419400Y-132309500D01*
X88950576Y-169261440D02*
X100742160Y-169261440D01*
X112646200Y-156732800D02*
X103921400Y-165457600D01*
X107296072Y-148906800D02*
X107720272Y-149331000D01*
X103276400Y-86626488D02*
X102958656Y-86308744D01*
X105305408Y-148906800D02*
X107296072Y-148906800D01*
X103124000Y-137123044D02*
X104419400Y-135827644D01*
X103124000Y-139519362D02*
X103124000Y-137123044D01*
X81292800Y-63308305D02*
X82460705Y-62140400D01*
X101148512Y-84498600D02*
X99186089Y-84498600D01*
X98779689Y-84092200D02*
X92039892Y-84092200D01*
X101803200Y-143256900D02*
X101803200Y-147281200D01*
X94488000Y-180733000D02*
X85839400Y-172084400D01*
X82416105Y-82060200D02*
X81292800Y-80936895D01*
X99186089Y-84498600D02*
X98779689Y-84092200D01*
X103040200Y-148518200D02*
X104916808Y-148518200D01*
X81292800Y-80936895D02*
X81292800Y-63308305D01*
X112659000Y-186046600D02*
X112659000Y-185848400D01*
X103921400Y-165457600D02*
X103921400Y-166082200D01*
X101828600Y-95389000D02*
X103276400Y-93941200D01*
X103276400Y-93941200D02*
X103276400Y-86626488D01*
X104419400Y-132309500D02*
X106324400Y-130404500D01*
X98628200Y-62140400D02*
X100990400Y-64502600D01*
X100787200Y-141856162D02*
X103124000Y-139519362D01*
%TO.N,/GLUE/A1*%
X104748472Y-148924600D02*
X102750432Y-148924600D01*
X85433000Y-170224016D02*
X86438016Y-169219000D01*
X100324274Y-141123300D02*
X99669600Y-141777974D01*
X102750432Y-148924600D02*
X100787200Y-146961368D01*
X94319664Y-181139400D02*
X85433000Y-172252736D01*
X105137072Y-149313200D02*
X104748472Y-148924600D01*
X107127736Y-149313200D02*
X105137072Y-149313200D01*
X110119000Y-185848400D02*
X105410000Y-181139400D01*
X110106200Y-150384576D02*
X109459024Y-149737400D01*
X110106200Y-157357400D02*
X110106200Y-150384576D01*
X106260800Y-129604500D02*
X104013000Y-131852300D01*
X110119000Y-186046600D02*
X110119000Y-185848400D01*
X101381400Y-166082200D02*
X110106200Y-157357400D01*
X107551936Y-149737400D02*
X107127736Y-149313200D01*
X102717600Y-136954708D02*
X102717600Y-139351026D01*
X85433000Y-172252736D02*
X85433000Y-170224016D01*
X100945326Y-141123300D02*
X100324274Y-141123300D01*
X102717600Y-139351026D02*
X100945326Y-141123300D01*
X104013000Y-135659308D02*
X102717600Y-136954708D01*
X104013000Y-131852300D02*
X104013000Y-135659308D01*
X99669600Y-141777974D02*
X99669600Y-143663300D01*
X99669600Y-143663300D02*
X100787200Y-144780900D01*
X86438016Y-169219000D02*
X88418280Y-169219000D01*
X105410000Y-181139400D02*
X94319664Y-181139400D01*
X88418280Y-169219000D02*
X88782240Y-168855040D01*
X88782240Y-168855040D02*
X98608560Y-168855040D01*
X109459024Y-149737400D02*
X107551936Y-149737400D01*
X108229400Y-129604500D02*
X106260800Y-129604500D01*
X98608560Y-168855040D02*
X101381400Y-166082200D01*
X100787200Y-146961368D02*
X100787200Y-144780900D01*
%TO.N,/GLUE/A2*%
X96023204Y-142875796D02*
X98182100Y-140716900D01*
X85026600Y-170055680D02*
X86269680Y-168812600D01*
X103276400Y-181545800D02*
X94151328Y-181545800D01*
X88249944Y-168812600D02*
X88656344Y-168406200D01*
X104580136Y-149331000D02*
X102582096Y-149331000D01*
X102311200Y-138176900D02*
X100787200Y-139700900D01*
X94151328Y-181545800D02*
X85026600Y-172421072D01*
X103606600Y-131606757D02*
X103606600Y-135490972D01*
X103606600Y-135490972D02*
X102311200Y-136786372D01*
X108229400Y-128804500D02*
X106408857Y-128804500D01*
X100421008Y-148924600D02*
X96023204Y-144526796D01*
X85026600Y-172421072D02*
X85026600Y-170055680D01*
X107579000Y-186046600D02*
X107579000Y-185848400D01*
X99771200Y-140716900D02*
X100787200Y-139700900D01*
X104968736Y-149719600D02*
X104580136Y-149331000D01*
X98841400Y-166082200D02*
X107566200Y-157357400D01*
X96517400Y-168406200D02*
X98841400Y-166082200D01*
X88656344Y-168406200D02*
X96517400Y-168406200D01*
X102311200Y-136786372D02*
X102311200Y-138176900D01*
X102582096Y-149331000D02*
X102175696Y-148924600D01*
X107579000Y-185848400D02*
X103276400Y-181545800D01*
X86269680Y-168812600D02*
X88249944Y-168812600D01*
X107566200Y-150326400D02*
X106959400Y-149719600D01*
X102175696Y-148924600D02*
X100421008Y-148924600D01*
X106408857Y-128804500D02*
X103606600Y-131606757D01*
X106959400Y-149719600D02*
X104968736Y-149719600D01*
X107566200Y-157357400D02*
X107566200Y-150326400D01*
X98182100Y-140716900D02*
X99771200Y-140716900D01*
X96023204Y-144526796D02*
X96023204Y-142875796D01*
%TO.N,/GLUE/A3*%
X99364800Y-138583300D02*
X100945326Y-138583300D01*
X102413760Y-149737400D02*
X102007360Y-149331000D01*
X86101344Y-168406200D02*
X88081608Y-168406200D01*
X105039000Y-185848400D02*
X101142800Y-181952200D01*
X96301400Y-166082200D02*
X105026200Y-157357400D01*
X105039000Y-186046600D02*
X105039000Y-185848400D01*
X105026200Y-150351800D02*
X104411800Y-149737400D01*
X84620200Y-169887344D02*
X86101344Y-168406200D01*
X100945326Y-138583300D02*
X101904800Y-137623826D01*
X95275400Y-144353728D02*
X95275400Y-142672700D01*
X101904800Y-136618036D02*
X103200200Y-135322636D01*
X88488008Y-167999800D02*
X94383800Y-167999800D01*
X100252672Y-149331000D02*
X95275400Y-144353728D01*
X103200200Y-135322636D02*
X103200200Y-131438421D01*
X104411800Y-149737400D02*
X102413760Y-149737400D01*
X88081608Y-168406200D02*
X88488008Y-167999800D01*
X101142800Y-181952200D02*
X93982992Y-181952200D01*
X94383800Y-167999800D02*
X96301400Y-166082200D01*
X84620200Y-172589408D02*
X84620200Y-169887344D01*
X103200200Y-131438421D02*
X106634121Y-128004500D01*
X93982992Y-181952200D02*
X84620200Y-172589408D01*
X106634121Y-128004500D02*
X108229400Y-128004500D01*
X98247200Y-139700900D02*
X99364800Y-138583300D01*
X95275400Y-142672700D02*
X98247200Y-139700900D01*
X102007360Y-149331000D02*
X100252672Y-149331000D01*
X101904800Y-137623826D02*
X101904800Y-136618036D01*
X105026200Y-157357400D02*
X105026200Y-150351800D01*
%TO.N,/GLUE/A4*%
X99110800Y-138238800D02*
X100188700Y-137160900D01*
X102793800Y-131270085D02*
X106859385Y-127204500D01*
X102793800Y-135154300D02*
X102793800Y-131270085D01*
X92250200Y-167593400D02*
X93761400Y-166082200D01*
X106859385Y-127204500D02*
X108229400Y-127204500D01*
X93761400Y-166082200D02*
X102486200Y-157357400D01*
X93814656Y-182358600D02*
X84213800Y-172757744D01*
X85933008Y-167999800D02*
X87913272Y-167999800D01*
X99009200Y-182358600D02*
X93814656Y-182358600D01*
X98272459Y-138238800D02*
X99110800Y-138238800D01*
X100787200Y-137160900D02*
X102793800Y-135154300D01*
X100084336Y-149737400D02*
X94869000Y-144522064D01*
X102499000Y-186046600D02*
X102499000Y-185848400D01*
X102486200Y-157357400D02*
X102486200Y-150384576D01*
X102486200Y-150384576D02*
X101839024Y-149737400D01*
X102499000Y-185848400D02*
X99009200Y-182358600D01*
X84213800Y-172757744D02*
X84213800Y-169719008D01*
X100188700Y-137160900D02*
X100787200Y-137160900D01*
X94869000Y-141642259D02*
X98272459Y-138238800D01*
X94869000Y-144522064D02*
X94869000Y-141642259D01*
X84213800Y-169719008D02*
X85933008Y-167999800D01*
X88319672Y-167593400D02*
X92250200Y-167593400D01*
X87913272Y-167999800D02*
X88319672Y-167593400D01*
X101839024Y-149737400D02*
X100084336Y-149737400D01*
%TO.N,/GLUE/A5*%
X97967800Y-159335800D02*
X97967800Y-152589800D01*
X102387400Y-131101749D02*
X107084649Y-126404500D01*
X94462600Y-140945500D02*
X98247200Y-137160900D01*
X98610600Y-151947000D02*
X99299024Y-151947000D01*
X97967800Y-152589800D02*
X98610600Y-151947000D01*
X85764672Y-167593400D02*
X87744936Y-167593400D01*
X87744936Y-167593400D02*
X88151336Y-167187000D01*
X99959000Y-186046600D02*
X99959000Y-185848400D01*
X90243824Y-166082200D02*
X91221400Y-166082200D01*
X99959000Y-185848400D02*
X96951800Y-182841200D01*
X102387400Y-134985964D02*
X102387400Y-131101749D01*
X99299024Y-151947000D02*
X99946200Y-151299824D01*
X89139024Y-167187000D02*
X90243824Y-166082200D01*
X83807400Y-172926080D02*
X83807400Y-169550672D01*
X88151336Y-167187000D02*
X89139024Y-167187000D01*
X99946200Y-150174000D02*
X94462600Y-144690400D01*
X101406264Y-135967100D02*
X102387400Y-134985964D01*
X96951800Y-182841200D02*
X93722520Y-182841200D01*
X99441000Y-135967100D02*
X101406264Y-135967100D01*
X99946200Y-151299824D02*
X99946200Y-150174000D01*
X94462600Y-144690400D02*
X94462600Y-140945500D01*
X107084649Y-126404500D02*
X108229400Y-126404500D01*
X83807400Y-169550672D02*
X85764672Y-167593400D01*
X91221400Y-166082200D02*
X97967800Y-159335800D01*
X98247200Y-137160900D02*
X99441000Y-135967100D01*
X93722520Y-182841200D02*
X83807400Y-172926080D01*
%TO.N,/GLUE/A6*%
X109891900Y-123942000D02*
X107007150Y-123942000D01*
X97419000Y-185848400D02*
X94919800Y-183349200D01*
X107007549Y-123941600D02*
X106888925Y-124060225D01*
X97499500Y-133554100D02*
X96977200Y-133031800D01*
X100787200Y-134620900D02*
X99720400Y-133554100D01*
X101981000Y-133427100D02*
X100787200Y-134620900D01*
X87576600Y-167187000D02*
X88681400Y-166082200D01*
X97419000Y-186046600D02*
X97419000Y-185848400D01*
X101981000Y-130933413D02*
X101981000Y-133427100D01*
X83401000Y-173094416D02*
X83401000Y-169382336D01*
X92929934Y-133031800D02*
X91795600Y-134166134D01*
X94919800Y-183349200D02*
X93655784Y-183349200D01*
X85596336Y-167187000D02*
X87576600Y-167187000D01*
X97406200Y-150379800D02*
X97406200Y-157357400D01*
X96977200Y-133031800D02*
X92929934Y-133031800D01*
X102616000Y-128333149D02*
X102616000Y-130298413D01*
X91795600Y-144769200D02*
X97406200Y-150379800D01*
X91795600Y-134166134D02*
X91795600Y-144769200D01*
X99720400Y-133554100D02*
X97499500Y-133554100D01*
X83401000Y-169382336D02*
X85596336Y-167187000D01*
X107007150Y-123942000D02*
X106888925Y-124060225D01*
X97406200Y-157357400D02*
X88681400Y-166082200D01*
X102616000Y-130298413D02*
X101981000Y-130933413D01*
X106888925Y-124060225D02*
X102616000Y-128333149D01*
X93655784Y-183349200D02*
X83401000Y-173094416D01*
%TO.N,/GLUE/A7*%
X100787200Y-131369700D02*
X100787200Y-132080900D01*
X99771200Y-133096900D02*
X97826359Y-133096900D01*
X100787200Y-132080900D02*
X99771200Y-133096900D01*
X110386699Y-122899300D02*
X110691900Y-123204501D01*
X107475113Y-122899300D02*
X110386699Y-122899300D01*
X97216759Y-132487300D02*
X92899698Y-132487300D01*
X94869000Y-157354600D02*
X86141400Y-166082200D01*
X102209600Y-130130077D02*
X100969977Y-131369700D01*
X102209600Y-128164813D02*
X102209600Y-130130077D01*
X94866200Y-150326400D02*
X94866200Y-157016868D01*
X92899698Y-132487300D02*
X91389200Y-133997798D01*
X107475113Y-122899300D02*
X102209600Y-128164813D01*
X97826359Y-133096900D02*
X97216759Y-132487300D01*
X100969977Y-131369700D02*
X100787200Y-131369700D01*
X91389200Y-133997798D02*
X91389200Y-146849400D01*
X110691900Y-123204501D02*
X110691900Y-123942000D01*
X94869000Y-157019668D02*
X94869000Y-157354600D01*
X91389200Y-146849400D02*
X94866200Y-150326400D01*
X94866200Y-157016868D02*
X94869000Y-157019668D01*
%TO.N,/GLUE/A8*%
X90982800Y-133829462D02*
X92731362Y-132080900D01*
X91679024Y-151947000D02*
X92326200Y-151299824D01*
X107306777Y-122492900D02*
X101803200Y-127996477D01*
X92326200Y-151299824D02*
X92326200Y-149920000D01*
X89786200Y-151947000D02*
X91679024Y-151947000D01*
X92326200Y-149920000D02*
X90982800Y-148576600D01*
X100801641Y-130963300D02*
X99364800Y-130963300D01*
X99364800Y-130963300D02*
X98247200Y-132080900D01*
X90982800Y-148576600D02*
X90982800Y-133829462D01*
X92731362Y-132080900D02*
X98247200Y-132080900D01*
X111491900Y-123375182D02*
X110609618Y-122492900D01*
X101803200Y-129961741D02*
X100801641Y-130963300D01*
X111491900Y-123942000D02*
X111491900Y-123375182D01*
X101803200Y-127996477D02*
X101803200Y-129961741D01*
X110609618Y-122492900D02*
X107306777Y-122492900D01*
X88681400Y-150842200D02*
X89786200Y-151947000D01*
%TO.N,/video/AD7*%
X119754800Y-52621600D02*
X108751589Y-52621600D01*
X122783600Y-49567400D02*
X121234200Y-51116800D01*
X135928000Y-57778466D02*
X135928000Y-56565000D01*
X126390400Y-64502600D02*
X127895200Y-62997800D01*
X135928000Y-56565000D02*
X135153400Y-55790400D01*
X121259600Y-51116800D02*
X119754800Y-52621600D01*
X129266800Y-62997800D02*
X133809200Y-58455400D01*
X127895200Y-62997800D02*
X129266800Y-62997800D01*
X129267223Y-49567400D02*
X122783600Y-49567400D01*
X133809200Y-58455400D02*
X135251066Y-58455400D01*
X135153400Y-55790400D02*
X133959600Y-55790400D01*
X104421189Y-48291200D02*
X96297600Y-48291200D01*
X108751589Y-52621600D02*
X104421189Y-48291200D01*
X129971800Y-50271977D02*
X129267223Y-49567400D01*
X135251066Y-58455400D02*
X135928000Y-57778466D01*
X96297600Y-48291200D02*
X93472000Y-51116800D01*
X129971800Y-51802600D02*
X129971800Y-50271977D01*
X133959600Y-55790400D02*
X129971800Y-51802600D01*
%TO.N,/video/AD6*%
X104252853Y-48697600D02*
X98431200Y-48697600D01*
X121888400Y-53028000D02*
X108583253Y-53028000D01*
X98431200Y-48697600D02*
X96012000Y-51116800D01*
X108583253Y-53028000D02*
X104252853Y-48697600D01*
X123799600Y-51116800D02*
X121888400Y-53028000D01*
%TO.N,/video/AD5*%
X108414917Y-53434400D02*
X104084517Y-49104000D01*
X100564800Y-49104000D02*
X98552000Y-51116800D01*
X126339600Y-51116800D02*
X124022000Y-53434400D01*
X104084517Y-49104000D02*
X100564800Y-49104000D01*
X124022000Y-53434400D02*
X108414917Y-53434400D01*
%TO.N,/video/AD4*%
X129971800Y-53326600D02*
X128854200Y-52209000D01*
X125120400Y-65455200D02*
X125120400Y-63461200D01*
X129971800Y-59676600D02*
X129971800Y-53326600D01*
X102698400Y-49510400D02*
X101092000Y-51116800D01*
X108246581Y-53840800D02*
X103916181Y-49510400D01*
X103916181Y-49510400D02*
X102698400Y-49510400D01*
X128270000Y-60311600D02*
X129336800Y-60311600D01*
X124568200Y-66007400D02*
X125120400Y-65455200D01*
X118770400Y-64502600D02*
X120275200Y-66007400D01*
X120275200Y-66007400D02*
X124568200Y-66007400D01*
X127349400Y-53840800D02*
X108246581Y-53840800D01*
X128879600Y-52310600D02*
X127349400Y-53840800D01*
X128879600Y-51116800D02*
X128879600Y-52310600D01*
X128854200Y-52209000D02*
X128854200Y-51116800D01*
X125120400Y-63461200D02*
X128270000Y-60311600D01*
X129336800Y-60311600D02*
X129971800Y-59676600D01*
%TO.N,/video/AD3*%
X127736600Y-55765000D02*
X128879600Y-56908000D01*
X116230400Y-64502600D02*
X118389400Y-62343600D01*
X102647600Y-60292400D02*
X104438600Y-60292400D01*
X106832400Y-57898600D02*
X107544476Y-57898600D01*
X125247400Y-62343600D02*
X128854200Y-58736800D01*
X109678076Y-55765000D02*
X127736600Y-55765000D01*
X104438600Y-60292400D02*
X106832400Y-57898600D01*
X107544476Y-57898600D02*
X109678076Y-55765000D01*
X101092000Y-58736800D02*
X102647600Y-60292400D01*
X118389400Y-62343600D02*
X125247400Y-62343600D01*
X128879600Y-56908000D02*
X128879600Y-58736800D01*
%TO.N,/video/AD2*%
X106848336Y-58457400D02*
X107560412Y-58457400D01*
X109846412Y-56171400D02*
X125247400Y-56171400D01*
X100514000Y-60698800D02*
X104606936Y-60698800D01*
X107560412Y-58457400D02*
X109846412Y-56171400D01*
X116509800Y-61683200D02*
X123367800Y-61683200D01*
X98552000Y-58736800D02*
X100514000Y-60698800D01*
X126339600Y-57263600D02*
X126339600Y-58736800D01*
X113690400Y-64502600D02*
X116509800Y-61683200D01*
X104606936Y-60698800D02*
X106848336Y-58457400D01*
X123367800Y-61683200D02*
X126314200Y-58736800D01*
X125247400Y-56171400D02*
X126339600Y-57263600D01*
%TO.N,/video/AD1*%
X123012200Y-56577800D02*
X123799600Y-57365200D01*
X123799600Y-57365200D02*
X123799600Y-58736800D01*
X96012000Y-58736800D02*
X98380400Y-61105200D01*
X107576348Y-59016200D02*
X110014748Y-56577800D01*
X104775272Y-61105200D02*
X106864272Y-59016200D01*
X111150400Y-62590252D02*
X107576348Y-59016200D01*
X111150400Y-64502600D02*
X111150400Y-62590252D01*
X98380400Y-61105200D02*
X104775272Y-61105200D01*
X110014748Y-56577800D02*
X123012200Y-56577800D01*
X106864272Y-59016200D02*
X107576348Y-59016200D01*
%TO.N,/video/AD0*%
X135321736Y-55384000D02*
X136474200Y-56536464D01*
X109423200Y-66585400D02*
X108839000Y-66001200D01*
X131394200Y-51116800D02*
X131394200Y-52650264D01*
X133977536Y-58861800D02*
X130352800Y-62486536D01*
X108839000Y-66001200D02*
X108839000Y-64731200D01*
X136474200Y-57807002D02*
X135419402Y-58861800D01*
X129158800Y-66585400D02*
X109423200Y-66585400D01*
X130352800Y-65391400D02*
X129158800Y-66585400D01*
X130352800Y-62486536D02*
X130352800Y-65391400D01*
X136474200Y-56536464D02*
X136474200Y-57807002D01*
X131394200Y-52650264D02*
X134127936Y-55384000D01*
X135419402Y-58861800D02*
X133977536Y-58861800D01*
X108839000Y-64731200D02*
X108610400Y-64502600D01*
X134127936Y-55384000D02*
X135321736Y-55384000D01*
%TO.N,/GLUE/A9*%
X100801641Y-128423300D02*
X107138441Y-122086500D01*
X107138441Y-122086500D02*
X111003218Y-122086500D01*
X91221400Y-150842200D02*
X90576400Y-150197200D01*
X112291900Y-123375182D02*
X112291900Y-123942000D01*
X111003218Y-122086500D02*
X112291900Y-123375182D01*
X99364800Y-128423300D02*
X100801641Y-128423300D01*
X91287600Y-131650736D02*
X93397436Y-129540900D01*
X90576400Y-150197200D02*
X90576400Y-133661126D01*
X90576400Y-133661126D02*
X91287600Y-132949926D01*
X93397436Y-129540900D02*
X98247200Y-129540900D01*
X98247200Y-129540900D02*
X99364800Y-128423300D01*
X91287600Y-132949926D02*
X91287600Y-131650736D01*
%TO.N,/GLUE/A10*%
X104787200Y-121680100D02*
X111396818Y-121680100D01*
X104089200Y-122378100D02*
X104787200Y-121680100D01*
X103013860Y-124774240D02*
X100787200Y-127000900D01*
X103013860Y-122530500D02*
X103166260Y-122378100D01*
X111396818Y-121680100D02*
X113091900Y-123375182D01*
X103166260Y-122378100D02*
X104089200Y-122378100D01*
X103013860Y-122530500D02*
X103013860Y-124774240D01*
X113091900Y-123375182D02*
X113091900Y-123942000D01*
%TO.N,/GLUE/A11*%
X103555300Y-121692800D02*
X104199764Y-121692800D01*
X104199764Y-121692800D02*
X104618864Y-121273700D01*
X104618864Y-121273700D02*
X112590418Y-121273700D01*
X112590418Y-121273700D02*
X114691900Y-123375182D01*
X114691900Y-123375182D02*
X114691900Y-123942000D01*
%TO.N,/GLUE/A12*%
X112984018Y-120867300D02*
X102538798Y-120867300D01*
X94180400Y-155442100D02*
X94180400Y-155503200D01*
X101904800Y-122505100D02*
X101244400Y-123165500D01*
X99542600Y-123165500D02*
X98247200Y-124460900D01*
X94180400Y-155503200D02*
X83601400Y-166082200D01*
X101244400Y-123165500D02*
X99542600Y-123165500D01*
X115491900Y-123942000D02*
X115491900Y-123375182D01*
X102538798Y-120867300D02*
X101904800Y-121501298D01*
X101904800Y-121501298D02*
X101904800Y-122505100D01*
X115491900Y-123375182D02*
X112984018Y-120867300D01*
%TO.N,/GLUE/A13*%
X93229100Y-129134500D02*
X96099300Y-129134500D01*
X102370462Y-120460900D02*
X113377618Y-120460900D01*
X90881200Y-131482400D02*
X93229100Y-129134500D01*
X84646488Y-163474688D02*
X87452200Y-160668976D01*
X113377618Y-120460900D02*
X116291900Y-123375182D01*
X97078800Y-128155000D02*
X97078800Y-124192600D01*
X100787200Y-121920900D02*
X100910462Y-121920900D01*
X116291900Y-123375182D02*
X116291900Y-123942000D01*
X99781412Y-121920900D02*
X100787200Y-121920900D01*
X98257412Y-123444900D02*
X99781412Y-121920900D01*
X100910462Y-121920900D02*
X102370462Y-120460900D01*
X97826500Y-123444900D02*
X98257412Y-123444900D01*
X87452200Y-149668800D02*
X90170000Y-146951000D01*
X90881200Y-132781590D02*
X90881200Y-131482400D01*
X90170000Y-133492790D02*
X90881200Y-132781590D01*
X97078800Y-124192600D02*
X97826500Y-123444900D01*
X87452200Y-160668976D02*
X87452200Y-149668800D01*
X96099300Y-129134500D02*
X97078800Y-128155000D01*
X90170000Y-146951000D02*
X90170000Y-133492790D01*
%TO.N,/GLUE/A14*%
X95930964Y-128728100D02*
X93000500Y-128728100D01*
X90474800Y-132613254D02*
X89763600Y-133324454D01*
X113771218Y-120054500D02*
X117091900Y-123375182D01*
X89763600Y-133324454D02*
X89763600Y-143242600D01*
X93000500Y-128728100D02*
X90474800Y-131253800D01*
X98247200Y-121920900D02*
X96672400Y-123495700D01*
X98374200Y-121793900D02*
X98831400Y-121793900D01*
X117091900Y-123375182D02*
X117091900Y-123942000D01*
X99999800Y-120625500D02*
X101631126Y-120625500D01*
X102202126Y-120054500D02*
X113771218Y-120054500D01*
X96672400Y-127986664D02*
X95930964Y-128728100D01*
X98247200Y-121920900D02*
X98374200Y-121793900D01*
X98831400Y-121793900D02*
X99999800Y-120625500D01*
X96672400Y-123495700D02*
X96672400Y-127986664D01*
X90474800Y-131253800D02*
X90474800Y-132613254D01*
X101631126Y-120625500D02*
X102202126Y-120054500D01*
%TO.N,/GLUE/A15*%
X114164818Y-119648100D02*
X101054400Y-119648100D01*
X117891900Y-123942000D02*
X117891900Y-123375182D01*
X117891900Y-123375182D02*
X114164818Y-119648100D01*
X101054400Y-119648100D02*
X100787200Y-119380900D01*
%TO.N,Net-(U6-XTAL1)*%
X131470400Y-79742600D02*
X131470400Y-78472600D01*
X131470400Y-78472600D02*
X136144000Y-73799000D01*
X140086400Y-73799000D02*
X140131800Y-73753600D01*
X136144000Y-73799000D02*
X140086400Y-73799000D01*
%TO.N,Net-(U6-XTAL2)*%
X140081000Y-78746600D02*
X136211600Y-78746600D01*
X136211600Y-78746600D02*
X136144000Y-78679000D01*
X130435200Y-81247400D02*
X128930400Y-79742600D01*
X133575600Y-81247400D02*
X130435200Y-81247400D01*
X136144000Y-78679000D02*
X133575600Y-81247400D01*
%TO.N,Net-(U2-OUT)*%
X144221624Y-119491000D02*
X139788800Y-119491000D01*
X134289800Y-127383536D02*
X135051800Y-126621536D01*
X135940800Y-124014800D02*
X142237824Y-124014800D01*
X135051800Y-126621536D02*
X135051800Y-124903800D01*
X144957800Y-121294824D02*
X144957800Y-120227176D01*
X134289800Y-143572800D02*
X134289800Y-127383536D01*
X144957800Y-120227176D02*
X144221624Y-119491000D01*
X135051800Y-124903800D02*
X135940800Y-124014800D01*
X142237824Y-124014800D02*
X144957800Y-121294824D01*
X139788800Y-119491000D02*
X138684000Y-120595800D01*
X133654800Y-144207800D02*
X134289800Y-143572800D01*
%TO.N,Net-(U11-OUT)*%
X137337800Y-144207800D02*
X137337800Y-139991400D01*
X137337800Y-139991400D02*
X143713200Y-133616000D01*
%TO.N,/GLUE/C2P4*%
X134012493Y-113145373D02*
X134016575Y-113149455D01*
X138921640Y-114019800D02*
X143116400Y-114019800D01*
X143116400Y-114019800D02*
X144627600Y-112508600D01*
X138051295Y-113149455D02*
X138921640Y-114019800D01*
X134016575Y-113149455D02*
X138051295Y-113149455D01*
%TO.N,/GLUE/C2P1*%
X148996400Y-115759800D02*
X152247600Y-112508600D01*
X134899400Y-115759800D02*
X148996400Y-115759800D01*
%TO.N,/GLUE/C2P2*%
X147294600Y-114921600D02*
X149707600Y-112508600D01*
X135026403Y-114921600D02*
X147294600Y-114921600D01*
X134899400Y-114794597D02*
X135026403Y-114921600D01*
%TO.N,/GLUE/C2P3*%
X134812739Y-113854800D02*
X138181904Y-113854800D01*
X138842304Y-114515200D02*
X145161000Y-114515200D01*
X134793194Y-113835255D02*
X134812739Y-113854800D01*
X138181904Y-113854800D02*
X138842304Y-114515200D01*
X145161000Y-114515200D02*
X147167600Y-112508600D01*
%TO.N,/GLUE/C2P7*%
X133373012Y-111090274D02*
X138129274Y-111090274D01*
X138129274Y-111090274D02*
X139547600Y-112508600D01*
X132665203Y-111798083D02*
X133373012Y-111090274D01*
%TO.N,/GLUE/C2P6*%
X139089976Y-113613400D02*
X140982800Y-113613400D01*
X133509185Y-112330800D02*
X137807376Y-112330800D01*
X133503606Y-112325221D02*
X133509185Y-112330800D01*
X140982800Y-113613400D02*
X142087600Y-112508600D01*
X137807376Y-112330800D02*
X139089976Y-113613400D01*
%TO.N,/GLUE/C2P9*%
X155270200Y-99961000D02*
X155270200Y-102464800D01*
X133482861Y-109968600D02*
X141605000Y-109968600D01*
X155270200Y-102464800D02*
X155244800Y-102490200D01*
X149083400Y-102490200D02*
X155244800Y-102490200D01*
X132690966Y-110760495D02*
X133482861Y-109968600D01*
X141605000Y-109968600D02*
X149083400Y-102490200D01*
%TO.N,/cpu/~{BUSRQ}*%
X108331000Y-137565400D02*
X108534200Y-137362200D01*
X108331000Y-136827900D02*
X109891900Y-135267000D01*
X108331000Y-137137400D02*
X108331000Y-136827900D01*
%TO.N,/GLUE/~{RD}*%
X108407200Y-141683768D02*
X113091900Y-136999068D01*
X113091900Y-136999068D02*
X113091900Y-135267000D01*
X108407200Y-142240900D02*
X108407200Y-141683768D01*
%TO.N,Net-(J1-Pin_1)*%
X86156800Y-92950600D02*
X86399600Y-92707800D01*
X83584599Y-92504400D02*
X84030799Y-92950600D01*
X84030799Y-92950600D02*
X86156800Y-92950600D01*
X86399600Y-92707800D02*
X86399600Y-89591600D01*
X82847100Y-92504400D02*
X83584599Y-92504400D01*
X86399600Y-89591600D02*
X83789600Y-86981600D01*
%TO.N,Net-(J1-Pin_2)*%
X87680800Y-88332800D02*
X86329600Y-86981600D01*
X83877272Y-93458600D02*
X86487000Y-93458600D01*
X86487000Y-93458600D02*
X87680800Y-92264800D01*
X87680800Y-92264800D02*
X87680800Y-88332800D01*
X83573072Y-93154400D02*
X83877272Y-93458600D01*
X82847100Y-93154400D02*
X83573072Y-93154400D01*
%TO.N,Net-(J5-Pad9)*%
X77356624Y-67474400D02*
X77647800Y-67765576D01*
X77647800Y-76003800D02*
X76685000Y-76966600D01*
X76101576Y-67474400D02*
X77356624Y-67474400D01*
X77647800Y-67765576D02*
X77647800Y-76003800D01*
X70078600Y-89928000D02*
X70078600Y-73497376D01*
X70078600Y-73497376D02*
X76101576Y-67474400D01*
%TO.N,Net-(J7-Pad9)*%
X155270200Y-74713400D02*
X155270200Y-89801000D01*
X149072600Y-68515800D02*
X155270200Y-74713400D01*
%TO.N,Net-(J1-Pin_3)*%
X82847100Y-93804400D02*
X83648336Y-93804400D01*
X83810536Y-93966600D02*
X86614000Y-93966600D01*
X86614000Y-93966600D02*
X88869600Y-91711000D01*
X83648336Y-93804400D02*
X83810536Y-93966600D01*
X88869600Y-91711000D02*
X88869600Y-86981600D01*
%TO.N,Net-(J1-Pin_4)*%
X86700936Y-94454400D02*
X91409600Y-89745736D01*
X91409600Y-89745736D02*
X91409600Y-86981600D01*
X82847100Y-94454400D02*
X86700936Y-94454400D01*
%TO.N,Net-(J1-Pin_5)*%
X93949600Y-87824800D02*
X93949600Y-86981600D01*
X82847100Y-95104400D02*
X82852300Y-95109600D01*
X86664800Y-95109600D02*
X93949600Y-87824800D01*
X82852300Y-95109600D02*
X86664800Y-95109600D01*
%TO.N,Net-(U10-DIR)*%
X85344000Y-92007000D02*
X85191400Y-91854400D01*
X85191400Y-91854400D02*
X82847100Y-91854400D01*
%TO.N,Net-(SW3-B)*%
X69589200Y-111397800D02*
X69589200Y-129545200D01*
X71621400Y-138213400D02*
X71011800Y-138213400D01*
X73329800Y-136505000D02*
X71621400Y-138213400D01*
X69589200Y-129545200D02*
X73329800Y-133285800D01*
X72821800Y-108876400D02*
X72110600Y-108876400D01*
X73075800Y-92468600D02*
X73111600Y-92504400D01*
X73111600Y-92504400D02*
X77122100Y-92504400D01*
X73329800Y-133285800D02*
X73329800Y-136505000D01*
X72110600Y-108876400D02*
X69589200Y-111397800D01*
D48*
%TO.N,/sound/HP+*%
X146855802Y-180834600D02*
X148640800Y-179049602D01*
X140425798Y-180834600D02*
X146855802Y-180834600D01*
X138640800Y-179049602D02*
X140425798Y-180834600D01*
D49*
%TO.N,Net-(Q1-E)*%
X142671800Y-57814800D02*
X138640800Y-53783800D01*
X135940800Y-51083800D02*
X138640800Y-53783800D01*
X135940800Y-46341600D02*
X135940800Y-51083800D01*
X142671800Y-59490800D02*
X142671800Y-57814800D01*
%TO.N,/GLUE/~{SND_RESET}*%
X133807199Y-126664715D02*
X133100200Y-127371717D01*
X116230400Y-85483000D02*
X127736600Y-96989200D01*
X129794000Y-106057000D02*
X129794000Y-110471484D01*
X129343271Y-134620900D02*
X128727200Y-134620900D01*
X131534600Y-97723264D02*
X131534600Y-99597048D01*
X127736600Y-96989200D02*
X130800536Y-96989200D01*
X133100200Y-127371717D02*
X133100200Y-130863971D01*
X133807200Y-114484684D02*
X133807199Y-126664715D01*
X129794000Y-110471484D02*
X133807200Y-114484684D01*
X131165600Y-104685400D02*
X129794000Y-106057000D01*
X131534600Y-99597048D02*
X131165600Y-99966048D01*
X131165600Y-99966048D02*
X131165600Y-104685400D01*
X133100200Y-130863971D02*
X129343271Y-134620900D01*
X130800536Y-96989200D02*
X131534600Y-97723264D01*
X116230400Y-79742600D02*
X116230400Y-85483000D01*
%TO.N,/GLUE/~{AY_SND_ENABLE}*%
X151333200Y-133616000D02*
X153873200Y-133616000D01*
D48*
%TO.N,Net-(D1-A)*%
X74980800Y-147255800D02*
X72689800Y-147255800D01*
X72689800Y-147255800D02*
X71297800Y-145863800D01*
%TD*%
M02*
