%TF.GenerationSoftware,KiCad,Pcbnew,7.0.11-7.0.11~ubuntu22.04.1*%
%TF.CreationDate,2024-05-25T12:47:59-04:00*%
%TF.ProjectId,coleco_original,636f6c65-636f-45f6-9f72-6967696e616c,DEV*%
%TF.SameCoordinates,Original*%
%TF.FileFunction,Legend,Top*%
%TF.FilePolarity,Positive*%
%FSLAX46Y46*%
G04 Gerber Fmt 4.6, Leading zero omitted, Abs format (unit mm)*
G04 Created by KiCad (PCBNEW 7.0.11-7.0.11~ubuntu22.04.1) date 2024-05-25 12:47:59*
%MOMM*%
%LPD*%
G01*
G04 APERTURE LIST*
%ADD10C,0.150000*%
%ADD11C,0.254000*%
%ADD12C,0.120000*%
%ADD13C,0.152400*%
%ADD14C,0.100000*%
%ADD15C,0.200000*%
G04 APERTURE END LIST*
D10*
X133762809Y-83074028D02*
X133762809Y-83550219D01*
X133429476Y-82550219D02*
X133762809Y-83074028D01*
X133762809Y-83074028D02*
X134096142Y-82550219D01*
X134953285Y-83550219D02*
X134381857Y-83550219D01*
X134667571Y-83550219D02*
X134667571Y-82550219D01*
X134667571Y-82550219D02*
X134572333Y-82693076D01*
X134572333Y-82693076D02*
X134477095Y-82788314D01*
X134477095Y-82788314D02*
X134381857Y-82835933D01*
X137171133Y-154187619D02*
X136837800Y-153711428D01*
X136599705Y-154187619D02*
X136599705Y-153187619D01*
X136599705Y-153187619D02*
X136980657Y-153187619D01*
X136980657Y-153187619D02*
X137075895Y-153235238D01*
X137075895Y-153235238D02*
X137123514Y-153282857D01*
X137123514Y-153282857D02*
X137171133Y-153378095D01*
X137171133Y-153378095D02*
X137171133Y-153520952D01*
X137171133Y-153520952D02*
X137123514Y-153616190D01*
X137123514Y-153616190D02*
X137075895Y-153663809D01*
X137075895Y-153663809D02*
X136980657Y-153711428D01*
X136980657Y-153711428D02*
X136599705Y-153711428D01*
X138028276Y-153187619D02*
X137837800Y-153187619D01*
X137837800Y-153187619D02*
X137742562Y-153235238D01*
X137742562Y-153235238D02*
X137694943Y-153282857D01*
X137694943Y-153282857D02*
X137599705Y-153425714D01*
X137599705Y-153425714D02*
X137552086Y-153616190D01*
X137552086Y-153616190D02*
X137552086Y-153997142D01*
X137552086Y-153997142D02*
X137599705Y-154092380D01*
X137599705Y-154092380D02*
X137647324Y-154140000D01*
X137647324Y-154140000D02*
X137742562Y-154187619D01*
X137742562Y-154187619D02*
X137933038Y-154187619D01*
X137933038Y-154187619D02*
X138028276Y-154140000D01*
X138028276Y-154140000D02*
X138075895Y-154092380D01*
X138075895Y-154092380D02*
X138123514Y-153997142D01*
X138123514Y-153997142D02*
X138123514Y-153759047D01*
X138123514Y-153759047D02*
X138075895Y-153663809D01*
X138075895Y-153663809D02*
X138028276Y-153616190D01*
X138028276Y-153616190D02*
X137933038Y-153568571D01*
X137933038Y-153568571D02*
X137742562Y-153568571D01*
X137742562Y-153568571D02*
X137647324Y-153616190D01*
X137647324Y-153616190D02*
X137599705Y-153663809D01*
X137599705Y-153663809D02*
X137552086Y-153759047D01*
X140346133Y-165268380D02*
X140298514Y-165316000D01*
X140298514Y-165316000D02*
X140155657Y-165363619D01*
X140155657Y-165363619D02*
X140060419Y-165363619D01*
X140060419Y-165363619D02*
X139917562Y-165316000D01*
X139917562Y-165316000D02*
X139822324Y-165220761D01*
X139822324Y-165220761D02*
X139774705Y-165125523D01*
X139774705Y-165125523D02*
X139727086Y-164935047D01*
X139727086Y-164935047D02*
X139727086Y-164792190D01*
X139727086Y-164792190D02*
X139774705Y-164601714D01*
X139774705Y-164601714D02*
X139822324Y-164506476D01*
X139822324Y-164506476D02*
X139917562Y-164411238D01*
X139917562Y-164411238D02*
X140060419Y-164363619D01*
X140060419Y-164363619D02*
X140155657Y-164363619D01*
X140155657Y-164363619D02*
X140298514Y-164411238D01*
X140298514Y-164411238D02*
X140346133Y-164458857D01*
X141203276Y-164696952D02*
X141203276Y-165363619D01*
X140965181Y-164316000D02*
X140727086Y-165030285D01*
X140727086Y-165030285D02*
X141346133Y-165030285D01*
X152831895Y-56296019D02*
X152831895Y-55296019D01*
X152831895Y-55772209D02*
X153403323Y-55772209D01*
X153403323Y-56296019D02*
X153403323Y-55296019D01*
X154308085Y-55296019D02*
X154117609Y-55296019D01*
X154117609Y-55296019D02*
X154022371Y-55343638D01*
X154022371Y-55343638D02*
X153974752Y-55391257D01*
X153974752Y-55391257D02*
X153879514Y-55534114D01*
X153879514Y-55534114D02*
X153831895Y-55724590D01*
X153831895Y-55724590D02*
X153831895Y-56105542D01*
X153831895Y-56105542D02*
X153879514Y-56200780D01*
X153879514Y-56200780D02*
X153927133Y-56248400D01*
X153927133Y-56248400D02*
X154022371Y-56296019D01*
X154022371Y-56296019D02*
X154212847Y-56296019D01*
X154212847Y-56296019D02*
X154308085Y-56248400D01*
X154308085Y-56248400D02*
X154355704Y-56200780D01*
X154355704Y-56200780D02*
X154403323Y-56105542D01*
X154403323Y-56105542D02*
X154403323Y-55867447D01*
X154403323Y-55867447D02*
X154355704Y-55772209D01*
X154355704Y-55772209D02*
X154308085Y-55724590D01*
X154308085Y-55724590D02*
X154212847Y-55676971D01*
X154212847Y-55676971D02*
X154022371Y-55676971D01*
X154022371Y-55676971D02*
X153927133Y-55724590D01*
X153927133Y-55724590D02*
X153879514Y-55772209D01*
X153879514Y-55772209D02*
X153831895Y-55867447D01*
X130886295Y-62204819D02*
X130886295Y-63014342D01*
X130886295Y-63014342D02*
X130933914Y-63109580D01*
X130933914Y-63109580D02*
X130981533Y-63157200D01*
X130981533Y-63157200D02*
X131076771Y-63204819D01*
X131076771Y-63204819D02*
X131267247Y-63204819D01*
X131267247Y-63204819D02*
X131362485Y-63157200D01*
X131362485Y-63157200D02*
X131410104Y-63109580D01*
X131410104Y-63109580D02*
X131457723Y-63014342D01*
X131457723Y-63014342D02*
X131457723Y-62204819D01*
X132362485Y-62204819D02*
X132172009Y-62204819D01*
X132172009Y-62204819D02*
X132076771Y-62252438D01*
X132076771Y-62252438D02*
X132029152Y-62300057D01*
X132029152Y-62300057D02*
X131933914Y-62442914D01*
X131933914Y-62442914D02*
X131886295Y-62633390D01*
X131886295Y-62633390D02*
X131886295Y-63014342D01*
X131886295Y-63014342D02*
X131933914Y-63109580D01*
X131933914Y-63109580D02*
X131981533Y-63157200D01*
X131981533Y-63157200D02*
X132076771Y-63204819D01*
X132076771Y-63204819D02*
X132267247Y-63204819D01*
X132267247Y-63204819D02*
X132362485Y-63157200D01*
X132362485Y-63157200D02*
X132410104Y-63109580D01*
X132410104Y-63109580D02*
X132457723Y-63014342D01*
X132457723Y-63014342D02*
X132457723Y-62776247D01*
X132457723Y-62776247D02*
X132410104Y-62681009D01*
X132410104Y-62681009D02*
X132362485Y-62633390D01*
X132362485Y-62633390D02*
X132267247Y-62585771D01*
X132267247Y-62585771D02*
X132076771Y-62585771D01*
X132076771Y-62585771D02*
X131981533Y-62633390D01*
X131981533Y-62633390D02*
X131933914Y-62681009D01*
X131933914Y-62681009D02*
X131886295Y-62776247D01*
X78025666Y-53035419D02*
X78025666Y-53749704D01*
X78025666Y-53749704D02*
X77978047Y-53892561D01*
X77978047Y-53892561D02*
X77882809Y-53987800D01*
X77882809Y-53987800D02*
X77739952Y-54035419D01*
X77739952Y-54035419D02*
X77644714Y-54035419D01*
X78406619Y-53035419D02*
X79025666Y-53035419D01*
X79025666Y-53035419D02*
X78692333Y-53416371D01*
X78692333Y-53416371D02*
X78835190Y-53416371D01*
X78835190Y-53416371D02*
X78930428Y-53463990D01*
X78930428Y-53463990D02*
X78978047Y-53511609D01*
X78978047Y-53511609D02*
X79025666Y-53606847D01*
X79025666Y-53606847D02*
X79025666Y-53844942D01*
X79025666Y-53844942D02*
X78978047Y-53940180D01*
X78978047Y-53940180D02*
X78930428Y-53987800D01*
X78930428Y-53987800D02*
X78835190Y-54035419D01*
X78835190Y-54035419D02*
X78549476Y-54035419D01*
X78549476Y-54035419D02*
X78454238Y-53987800D01*
X78454238Y-53987800D02*
X78406619Y-53940180D01*
X80413266Y-89078019D02*
X80413266Y-89792304D01*
X80413266Y-89792304D02*
X80365647Y-89935161D01*
X80365647Y-89935161D02*
X80270409Y-90030400D01*
X80270409Y-90030400D02*
X80127552Y-90078019D01*
X80127552Y-90078019D02*
X80032314Y-90078019D01*
X81365647Y-89078019D02*
X80889457Y-89078019D01*
X80889457Y-89078019D02*
X80841838Y-89554209D01*
X80841838Y-89554209D02*
X80889457Y-89506590D01*
X80889457Y-89506590D02*
X80984695Y-89458971D01*
X80984695Y-89458971D02*
X81222790Y-89458971D01*
X81222790Y-89458971D02*
X81318028Y-89506590D01*
X81318028Y-89506590D02*
X81365647Y-89554209D01*
X81365647Y-89554209D02*
X81413266Y-89649447D01*
X81413266Y-89649447D02*
X81413266Y-89887542D01*
X81413266Y-89887542D02*
X81365647Y-89982780D01*
X81365647Y-89982780D02*
X81318028Y-90030400D01*
X81318028Y-90030400D02*
X81222790Y-90078019D01*
X81222790Y-90078019D02*
X80984695Y-90078019D01*
X80984695Y-90078019D02*
X80889457Y-90030400D01*
X80889457Y-90030400D02*
X80841838Y-89982780D01*
X72903419Y-95650857D02*
X72427228Y-95984190D01*
X72903419Y-96222285D02*
X71903419Y-96222285D01*
X71903419Y-96222285D02*
X71903419Y-95841333D01*
X71903419Y-95841333D02*
X71951038Y-95746095D01*
X71951038Y-95746095D02*
X71998657Y-95698476D01*
X71998657Y-95698476D02*
X72093895Y-95650857D01*
X72093895Y-95650857D02*
X72236752Y-95650857D01*
X72236752Y-95650857D02*
X72331990Y-95698476D01*
X72331990Y-95698476D02*
X72379609Y-95746095D01*
X72379609Y-95746095D02*
X72427228Y-95841333D01*
X72427228Y-95841333D02*
X72427228Y-96222285D01*
X72903419Y-94698476D02*
X72903419Y-95269904D01*
X72903419Y-94984190D02*
X71903419Y-94984190D01*
X71903419Y-94984190D02*
X72046276Y-95079428D01*
X72046276Y-95079428D02*
X72141514Y-95174666D01*
X72141514Y-95174666D02*
X72189133Y-95269904D01*
X72903419Y-94222285D02*
X72903419Y-94031809D01*
X72903419Y-94031809D02*
X72855800Y-93936571D01*
X72855800Y-93936571D02*
X72808180Y-93888952D01*
X72808180Y-93888952D02*
X72665323Y-93793714D01*
X72665323Y-93793714D02*
X72474847Y-93746095D01*
X72474847Y-93746095D02*
X72093895Y-93746095D01*
X72093895Y-93746095D02*
X71998657Y-93793714D01*
X71998657Y-93793714D02*
X71951038Y-93841333D01*
X71951038Y-93841333D02*
X71903419Y-93936571D01*
X71903419Y-93936571D02*
X71903419Y-94127047D01*
X71903419Y-94127047D02*
X71951038Y-94222285D01*
X71951038Y-94222285D02*
X71998657Y-94269904D01*
X71998657Y-94269904D02*
X72093895Y-94317523D01*
X72093895Y-94317523D02*
X72331990Y-94317523D01*
X72331990Y-94317523D02*
X72427228Y-94269904D01*
X72427228Y-94269904D02*
X72474847Y-94222285D01*
X72474847Y-94222285D02*
X72522466Y-94127047D01*
X72522466Y-94127047D02*
X72522466Y-93936571D01*
X72522466Y-93936571D02*
X72474847Y-93841333D01*
X72474847Y-93841333D02*
X72427228Y-93793714D01*
X72427228Y-93793714D02*
X72331990Y-93746095D01*
X85209142Y-115909819D02*
X84875809Y-115433628D01*
X84637714Y-115909819D02*
X84637714Y-114909819D01*
X84637714Y-114909819D02*
X85018666Y-114909819D01*
X85018666Y-114909819D02*
X85113904Y-114957438D01*
X85113904Y-114957438D02*
X85161523Y-115005057D01*
X85161523Y-115005057D02*
X85209142Y-115100295D01*
X85209142Y-115100295D02*
X85209142Y-115243152D01*
X85209142Y-115243152D02*
X85161523Y-115338390D01*
X85161523Y-115338390D02*
X85113904Y-115386009D01*
X85113904Y-115386009D02*
X85018666Y-115433628D01*
X85018666Y-115433628D02*
X84637714Y-115433628D01*
X86161523Y-115909819D02*
X85590095Y-115909819D01*
X85875809Y-115909819D02*
X85875809Y-114909819D01*
X85875809Y-114909819D02*
X85780571Y-115052676D01*
X85780571Y-115052676D02*
X85685333Y-115147914D01*
X85685333Y-115147914D02*
X85590095Y-115195533D01*
X87018666Y-115243152D02*
X87018666Y-115909819D01*
X86780571Y-114862200D02*
X86542476Y-115576485D01*
X86542476Y-115576485D02*
X87161523Y-115576485D01*
X87164942Y-147837619D02*
X86831609Y-147361428D01*
X86593514Y-147837619D02*
X86593514Y-146837619D01*
X86593514Y-146837619D02*
X86974466Y-146837619D01*
X86974466Y-146837619D02*
X87069704Y-146885238D01*
X87069704Y-146885238D02*
X87117323Y-146932857D01*
X87117323Y-146932857D02*
X87164942Y-147028095D01*
X87164942Y-147028095D02*
X87164942Y-147170952D01*
X87164942Y-147170952D02*
X87117323Y-147266190D01*
X87117323Y-147266190D02*
X87069704Y-147313809D01*
X87069704Y-147313809D02*
X86974466Y-147361428D01*
X86974466Y-147361428D02*
X86593514Y-147361428D01*
X87545895Y-146932857D02*
X87593514Y-146885238D01*
X87593514Y-146885238D02*
X87688752Y-146837619D01*
X87688752Y-146837619D02*
X87926847Y-146837619D01*
X87926847Y-146837619D02*
X88022085Y-146885238D01*
X88022085Y-146885238D02*
X88069704Y-146932857D01*
X88069704Y-146932857D02*
X88117323Y-147028095D01*
X88117323Y-147028095D02*
X88117323Y-147123333D01*
X88117323Y-147123333D02*
X88069704Y-147266190D01*
X88069704Y-147266190D02*
X87498276Y-147837619D01*
X87498276Y-147837619D02*
X88117323Y-147837619D01*
X88498276Y-146932857D02*
X88545895Y-146885238D01*
X88545895Y-146885238D02*
X88641133Y-146837619D01*
X88641133Y-146837619D02*
X88879228Y-146837619D01*
X88879228Y-146837619D02*
X88974466Y-146885238D01*
X88974466Y-146885238D02*
X89022085Y-146932857D01*
X89022085Y-146932857D02*
X89069704Y-147028095D01*
X89069704Y-147028095D02*
X89069704Y-147123333D01*
X89069704Y-147123333D02*
X89022085Y-147266190D01*
X89022085Y-147266190D02*
X88450657Y-147837619D01*
X88450657Y-147837619D02*
X89069704Y-147837619D01*
X79370323Y-110563419D02*
X79036990Y-110087228D01*
X78798895Y-110563419D02*
X78798895Y-109563419D01*
X78798895Y-109563419D02*
X79179847Y-109563419D01*
X79179847Y-109563419D02*
X79275085Y-109611038D01*
X79275085Y-109611038D02*
X79322704Y-109658657D01*
X79322704Y-109658657D02*
X79370323Y-109753895D01*
X79370323Y-109753895D02*
X79370323Y-109896752D01*
X79370323Y-109896752D02*
X79322704Y-109991990D01*
X79322704Y-109991990D02*
X79275085Y-110039609D01*
X79275085Y-110039609D02*
X79179847Y-110087228D01*
X79179847Y-110087228D02*
X78798895Y-110087228D01*
X79798895Y-110563419D02*
X79798895Y-109563419D01*
X79798895Y-109563419D02*
X80370323Y-110563419D01*
X80370323Y-110563419D02*
X80370323Y-109563419D01*
X81370323Y-110563419D02*
X80798895Y-110563419D01*
X81084609Y-110563419D02*
X81084609Y-109563419D01*
X81084609Y-109563419D02*
X80989371Y-109706276D01*
X80989371Y-109706276D02*
X80894133Y-109801514D01*
X80894133Y-109801514D02*
X80798895Y-109849133D01*
X74845942Y-145043619D02*
X74512609Y-144567428D01*
X74274514Y-145043619D02*
X74274514Y-144043619D01*
X74274514Y-144043619D02*
X74655466Y-144043619D01*
X74655466Y-144043619D02*
X74750704Y-144091238D01*
X74750704Y-144091238D02*
X74798323Y-144138857D01*
X74798323Y-144138857D02*
X74845942Y-144234095D01*
X74845942Y-144234095D02*
X74845942Y-144376952D01*
X74845942Y-144376952D02*
X74798323Y-144472190D01*
X74798323Y-144472190D02*
X74750704Y-144519809D01*
X74750704Y-144519809D02*
X74655466Y-144567428D01*
X74655466Y-144567428D02*
X74274514Y-144567428D01*
X75226895Y-144138857D02*
X75274514Y-144091238D01*
X75274514Y-144091238D02*
X75369752Y-144043619D01*
X75369752Y-144043619D02*
X75607847Y-144043619D01*
X75607847Y-144043619D02*
X75703085Y-144091238D01*
X75703085Y-144091238D02*
X75750704Y-144138857D01*
X75750704Y-144138857D02*
X75798323Y-144234095D01*
X75798323Y-144234095D02*
X75798323Y-144329333D01*
X75798323Y-144329333D02*
X75750704Y-144472190D01*
X75750704Y-144472190D02*
X75179276Y-145043619D01*
X75179276Y-145043619D02*
X75798323Y-145043619D01*
X76750704Y-145043619D02*
X76179276Y-145043619D01*
X76464990Y-145043619D02*
X76464990Y-144043619D01*
X76464990Y-144043619D02*
X76369752Y-144186476D01*
X76369752Y-144186476D02*
X76274514Y-144281714D01*
X76274514Y-144281714D02*
X76179276Y-144329333D01*
X132003895Y-178460619D02*
X132003895Y-179270142D01*
X132003895Y-179270142D02*
X132051514Y-179365380D01*
X132051514Y-179365380D02*
X132099133Y-179413000D01*
X132099133Y-179413000D02*
X132194371Y-179460619D01*
X132194371Y-179460619D02*
X132384847Y-179460619D01*
X132384847Y-179460619D02*
X132480085Y-179413000D01*
X132480085Y-179413000D02*
X132527704Y-179365380D01*
X132527704Y-179365380D02*
X132575323Y-179270142D01*
X132575323Y-179270142D02*
X132575323Y-178460619D01*
X133575323Y-179460619D02*
X133003895Y-179460619D01*
X133289609Y-179460619D02*
X133289609Y-178460619D01*
X133289609Y-178460619D02*
X133194371Y-178603476D01*
X133194371Y-178603476D02*
X133099133Y-178698714D01*
X133099133Y-178698714D02*
X133003895Y-178746333D01*
X77139895Y-166684419D02*
X77139895Y-165684419D01*
X77139895Y-166160609D02*
X77711323Y-166160609D01*
X77711323Y-166684419D02*
X77711323Y-165684419D01*
X78139895Y-165779657D02*
X78187514Y-165732038D01*
X78187514Y-165732038D02*
X78282752Y-165684419D01*
X78282752Y-165684419D02*
X78520847Y-165684419D01*
X78520847Y-165684419D02*
X78616085Y-165732038D01*
X78616085Y-165732038D02*
X78663704Y-165779657D01*
X78663704Y-165779657D02*
X78711323Y-165874895D01*
X78711323Y-165874895D02*
X78711323Y-165970133D01*
X78711323Y-165970133D02*
X78663704Y-166112990D01*
X78663704Y-166112990D02*
X78092276Y-166684419D01*
X78092276Y-166684419D02*
X78711323Y-166684419D01*
X86881619Y-179188504D02*
X87691142Y-179188504D01*
X87691142Y-179188504D02*
X87786380Y-179140885D01*
X87786380Y-179140885D02*
X87834000Y-179093266D01*
X87834000Y-179093266D02*
X87881619Y-178998028D01*
X87881619Y-178998028D02*
X87881619Y-178807552D01*
X87881619Y-178807552D02*
X87834000Y-178712314D01*
X87834000Y-178712314D02*
X87786380Y-178664695D01*
X87786380Y-178664695D02*
X87691142Y-178617076D01*
X87691142Y-178617076D02*
X86881619Y-178617076D01*
X87214952Y-177712314D02*
X87881619Y-177712314D01*
X86834000Y-177950409D02*
X87548285Y-178188504D01*
X87548285Y-178188504D02*
X87548285Y-177569457D01*
X108217619Y-54672704D02*
X109027142Y-54672704D01*
X109027142Y-54672704D02*
X109122380Y-54625085D01*
X109122380Y-54625085D02*
X109170000Y-54577466D01*
X109170000Y-54577466D02*
X109217619Y-54482228D01*
X109217619Y-54482228D02*
X109217619Y-54291752D01*
X109217619Y-54291752D02*
X109170000Y-54196514D01*
X109170000Y-54196514D02*
X109122380Y-54148895D01*
X109122380Y-54148895D02*
X109027142Y-54101276D01*
X109027142Y-54101276D02*
X108217619Y-54101276D01*
X108217619Y-53720323D02*
X108217619Y-53053657D01*
X108217619Y-53053657D02*
X109217619Y-53482228D01*
X131964133Y-160823380D02*
X131916514Y-160871000D01*
X131916514Y-160871000D02*
X131773657Y-160918619D01*
X131773657Y-160918619D02*
X131678419Y-160918619D01*
X131678419Y-160918619D02*
X131535562Y-160871000D01*
X131535562Y-160871000D02*
X131440324Y-160775761D01*
X131440324Y-160775761D02*
X131392705Y-160680523D01*
X131392705Y-160680523D02*
X131345086Y-160490047D01*
X131345086Y-160490047D02*
X131345086Y-160347190D01*
X131345086Y-160347190D02*
X131392705Y-160156714D01*
X131392705Y-160156714D02*
X131440324Y-160061476D01*
X131440324Y-160061476D02*
X131535562Y-159966238D01*
X131535562Y-159966238D02*
X131678419Y-159918619D01*
X131678419Y-159918619D02*
X131773657Y-159918619D01*
X131773657Y-159918619D02*
X131916514Y-159966238D01*
X131916514Y-159966238D02*
X131964133Y-160013857D01*
X132868895Y-159918619D02*
X132392705Y-159918619D01*
X132392705Y-159918619D02*
X132345086Y-160394809D01*
X132345086Y-160394809D02*
X132392705Y-160347190D01*
X132392705Y-160347190D02*
X132487943Y-160299571D01*
X132487943Y-160299571D02*
X132726038Y-160299571D01*
X132726038Y-160299571D02*
X132821276Y-160347190D01*
X132821276Y-160347190D02*
X132868895Y-160394809D01*
X132868895Y-160394809D02*
X132916514Y-160490047D01*
X132916514Y-160490047D02*
X132916514Y-160728142D01*
X132916514Y-160728142D02*
X132868895Y-160823380D01*
X132868895Y-160823380D02*
X132821276Y-160871000D01*
X132821276Y-160871000D02*
X132726038Y-160918619D01*
X132726038Y-160918619D02*
X132487943Y-160918619D01*
X132487943Y-160918619D02*
X132392705Y-160871000D01*
X132392705Y-160871000D02*
X132345086Y-160823380D01*
X150720466Y-45491619D02*
X150720466Y-46205904D01*
X150720466Y-46205904D02*
X150672847Y-46348761D01*
X150672847Y-46348761D02*
X150577609Y-46444000D01*
X150577609Y-46444000D02*
X150434752Y-46491619D01*
X150434752Y-46491619D02*
X150339514Y-46491619D01*
X151339514Y-45920190D02*
X151244276Y-45872571D01*
X151244276Y-45872571D02*
X151196657Y-45824952D01*
X151196657Y-45824952D02*
X151149038Y-45729714D01*
X151149038Y-45729714D02*
X151149038Y-45682095D01*
X151149038Y-45682095D02*
X151196657Y-45586857D01*
X151196657Y-45586857D02*
X151244276Y-45539238D01*
X151244276Y-45539238D02*
X151339514Y-45491619D01*
X151339514Y-45491619D02*
X151529990Y-45491619D01*
X151529990Y-45491619D02*
X151625228Y-45539238D01*
X151625228Y-45539238D02*
X151672847Y-45586857D01*
X151672847Y-45586857D02*
X151720466Y-45682095D01*
X151720466Y-45682095D02*
X151720466Y-45729714D01*
X151720466Y-45729714D02*
X151672847Y-45824952D01*
X151672847Y-45824952D02*
X151625228Y-45872571D01*
X151625228Y-45872571D02*
X151529990Y-45920190D01*
X151529990Y-45920190D02*
X151339514Y-45920190D01*
X151339514Y-45920190D02*
X151244276Y-45967809D01*
X151244276Y-45967809D02*
X151196657Y-46015428D01*
X151196657Y-46015428D02*
X151149038Y-46110666D01*
X151149038Y-46110666D02*
X151149038Y-46301142D01*
X151149038Y-46301142D02*
X151196657Y-46396380D01*
X151196657Y-46396380D02*
X151244276Y-46444000D01*
X151244276Y-46444000D02*
X151339514Y-46491619D01*
X151339514Y-46491619D02*
X151529990Y-46491619D01*
X151529990Y-46491619D02*
X151625228Y-46444000D01*
X151625228Y-46444000D02*
X151672847Y-46396380D01*
X151672847Y-46396380D02*
X151720466Y-46301142D01*
X151720466Y-46301142D02*
X151720466Y-46110666D01*
X151720466Y-46110666D02*
X151672847Y-46015428D01*
X151672847Y-46015428D02*
X151625228Y-45967809D01*
X151625228Y-45967809D02*
X151529990Y-45920190D01*
X79251276Y-142138619D02*
X79251276Y-142852904D01*
X79251276Y-142852904D02*
X79203657Y-142995761D01*
X79203657Y-142995761D02*
X79108419Y-143091000D01*
X79108419Y-143091000D02*
X78965562Y-143138619D01*
X78965562Y-143138619D02*
X78870324Y-143138619D01*
X80251276Y-143138619D02*
X79679848Y-143138619D01*
X79965562Y-143138619D02*
X79965562Y-142138619D01*
X79965562Y-142138619D02*
X79870324Y-142281476D01*
X79870324Y-142281476D02*
X79775086Y-142376714D01*
X79775086Y-142376714D02*
X79679848Y-142424333D01*
X81203657Y-143138619D02*
X80632229Y-143138619D01*
X80917943Y-143138619D02*
X80917943Y-142138619D01*
X80917943Y-142138619D02*
X80822705Y-142281476D01*
X80822705Y-142281476D02*
X80727467Y-142376714D01*
X80727467Y-142376714D02*
X80632229Y-142424333D01*
X78782942Y-171745380D02*
X78735323Y-171793000D01*
X78735323Y-171793000D02*
X78592466Y-171840619D01*
X78592466Y-171840619D02*
X78497228Y-171840619D01*
X78497228Y-171840619D02*
X78354371Y-171793000D01*
X78354371Y-171793000D02*
X78259133Y-171697761D01*
X78259133Y-171697761D02*
X78211514Y-171602523D01*
X78211514Y-171602523D02*
X78163895Y-171412047D01*
X78163895Y-171412047D02*
X78163895Y-171269190D01*
X78163895Y-171269190D02*
X78211514Y-171078714D01*
X78211514Y-171078714D02*
X78259133Y-170983476D01*
X78259133Y-170983476D02*
X78354371Y-170888238D01*
X78354371Y-170888238D02*
X78497228Y-170840619D01*
X78497228Y-170840619D02*
X78592466Y-170840619D01*
X78592466Y-170840619D02*
X78735323Y-170888238D01*
X78735323Y-170888238D02*
X78782942Y-170935857D01*
X79735323Y-171840619D02*
X79163895Y-171840619D01*
X79449609Y-171840619D02*
X79449609Y-170840619D01*
X79449609Y-170840619D02*
X79354371Y-170983476D01*
X79354371Y-170983476D02*
X79259133Y-171078714D01*
X79259133Y-171078714D02*
X79163895Y-171126333D01*
X80354371Y-170840619D02*
X80449609Y-170840619D01*
X80449609Y-170840619D02*
X80544847Y-170888238D01*
X80544847Y-170888238D02*
X80592466Y-170935857D01*
X80592466Y-170935857D02*
X80640085Y-171031095D01*
X80640085Y-171031095D02*
X80687704Y-171221571D01*
X80687704Y-171221571D02*
X80687704Y-171459666D01*
X80687704Y-171459666D02*
X80640085Y-171650142D01*
X80640085Y-171650142D02*
X80592466Y-171745380D01*
X80592466Y-171745380D02*
X80544847Y-171793000D01*
X80544847Y-171793000D02*
X80449609Y-171840619D01*
X80449609Y-171840619D02*
X80354371Y-171840619D01*
X80354371Y-171840619D02*
X80259133Y-171793000D01*
X80259133Y-171793000D02*
X80211514Y-171745380D01*
X80211514Y-171745380D02*
X80163895Y-171650142D01*
X80163895Y-171650142D02*
X80116276Y-171459666D01*
X80116276Y-171459666D02*
X80116276Y-171221571D01*
X80116276Y-171221571D02*
X80163895Y-171031095D01*
X80163895Y-171031095D02*
X80211514Y-170935857D01*
X80211514Y-170935857D02*
X80259133Y-170888238D01*
X80259133Y-170888238D02*
X80354371Y-170840619D01*
X72988980Y-105723857D02*
X73036600Y-105771476D01*
X73036600Y-105771476D02*
X73084219Y-105914333D01*
X73084219Y-105914333D02*
X73084219Y-106009571D01*
X73084219Y-106009571D02*
X73036600Y-106152428D01*
X73036600Y-106152428D02*
X72941361Y-106247666D01*
X72941361Y-106247666D02*
X72846123Y-106295285D01*
X72846123Y-106295285D02*
X72655647Y-106342904D01*
X72655647Y-106342904D02*
X72512790Y-106342904D01*
X72512790Y-106342904D02*
X72322314Y-106295285D01*
X72322314Y-106295285D02*
X72227076Y-106247666D01*
X72227076Y-106247666D02*
X72131838Y-106152428D01*
X72131838Y-106152428D02*
X72084219Y-106009571D01*
X72084219Y-106009571D02*
X72084219Y-105914333D01*
X72084219Y-105914333D02*
X72131838Y-105771476D01*
X72131838Y-105771476D02*
X72179457Y-105723857D01*
X72179457Y-105342904D02*
X72131838Y-105295285D01*
X72131838Y-105295285D02*
X72084219Y-105200047D01*
X72084219Y-105200047D02*
X72084219Y-104961952D01*
X72084219Y-104961952D02*
X72131838Y-104866714D01*
X72131838Y-104866714D02*
X72179457Y-104819095D01*
X72179457Y-104819095D02*
X72274695Y-104771476D01*
X72274695Y-104771476D02*
X72369933Y-104771476D01*
X72369933Y-104771476D02*
X72512790Y-104819095D01*
X72512790Y-104819095D02*
X73084219Y-105390523D01*
X73084219Y-105390523D02*
X73084219Y-104771476D01*
X72084219Y-104152428D02*
X72084219Y-104057190D01*
X72084219Y-104057190D02*
X72131838Y-103961952D01*
X72131838Y-103961952D02*
X72179457Y-103914333D01*
X72179457Y-103914333D02*
X72274695Y-103866714D01*
X72274695Y-103866714D02*
X72465171Y-103819095D01*
X72465171Y-103819095D02*
X72703266Y-103819095D01*
X72703266Y-103819095D02*
X72893742Y-103866714D01*
X72893742Y-103866714D02*
X72988980Y-103914333D01*
X72988980Y-103914333D02*
X73036600Y-103961952D01*
X73036600Y-103961952D02*
X73084219Y-104057190D01*
X73084219Y-104057190D02*
X73084219Y-104152428D01*
X73084219Y-104152428D02*
X73036600Y-104247666D01*
X73036600Y-104247666D02*
X72988980Y-104295285D01*
X72988980Y-104295285D02*
X72893742Y-104342904D01*
X72893742Y-104342904D02*
X72703266Y-104390523D01*
X72703266Y-104390523D02*
X72465171Y-104390523D01*
X72465171Y-104390523D02*
X72274695Y-104342904D01*
X72274695Y-104342904D02*
X72179457Y-104295285D01*
X72179457Y-104295285D02*
X72131838Y-104247666D01*
X72131838Y-104247666D02*
X72084219Y-104152428D01*
D11*
X150932848Y-146052118D02*
X150509514Y-145447356D01*
X150207133Y-146052118D02*
X150207133Y-144782118D01*
X150207133Y-144782118D02*
X150690943Y-144782118D01*
X150690943Y-144782118D02*
X150811895Y-144842594D01*
X150811895Y-144842594D02*
X150872372Y-144903070D01*
X150872372Y-144903070D02*
X150932848Y-145024022D01*
X150932848Y-145024022D02*
X150932848Y-145205451D01*
X150932848Y-145205451D02*
X150872372Y-145326403D01*
X150872372Y-145326403D02*
X150811895Y-145386880D01*
X150811895Y-145386880D02*
X150690943Y-145447356D01*
X150690943Y-145447356D02*
X150207133Y-145447356D01*
X151295705Y-144782118D02*
X151719038Y-146052118D01*
X151719038Y-146052118D02*
X152142372Y-144782118D01*
X153230943Y-146052118D02*
X152505228Y-146052118D01*
X152868085Y-146052118D02*
X152868085Y-144782118D01*
X152868085Y-144782118D02*
X152747133Y-144963546D01*
X152747133Y-144963546D02*
X152626181Y-145084499D01*
X152626181Y-145084499D02*
X152505228Y-145144975D01*
D10*
X155038466Y-175539619D02*
X155038466Y-176253904D01*
X155038466Y-176253904D02*
X154990847Y-176396761D01*
X154990847Y-176396761D02*
X154895609Y-176492000D01*
X154895609Y-176492000D02*
X154752752Y-176539619D01*
X154752752Y-176539619D02*
X154657514Y-176539619D01*
X155562276Y-176539619D02*
X155752752Y-176539619D01*
X155752752Y-176539619D02*
X155847990Y-176492000D01*
X155847990Y-176492000D02*
X155895609Y-176444380D01*
X155895609Y-176444380D02*
X155990847Y-176301523D01*
X155990847Y-176301523D02*
X156038466Y-176111047D01*
X156038466Y-176111047D02*
X156038466Y-175730095D01*
X156038466Y-175730095D02*
X155990847Y-175634857D01*
X155990847Y-175634857D02*
X155943228Y-175587238D01*
X155943228Y-175587238D02*
X155847990Y-175539619D01*
X155847990Y-175539619D02*
X155657514Y-175539619D01*
X155657514Y-175539619D02*
X155562276Y-175587238D01*
X155562276Y-175587238D02*
X155514657Y-175634857D01*
X155514657Y-175634857D02*
X155467038Y-175730095D01*
X155467038Y-175730095D02*
X155467038Y-175968190D01*
X155467038Y-175968190D02*
X155514657Y-176063428D01*
X155514657Y-176063428D02*
X155562276Y-176111047D01*
X155562276Y-176111047D02*
X155657514Y-176158666D01*
X155657514Y-176158666D02*
X155847990Y-176158666D01*
X155847990Y-176158666D02*
X155943228Y-176111047D01*
X155943228Y-176111047D02*
X155990847Y-176063428D01*
X155990847Y-176063428D02*
X156038466Y-175968190D01*
X124934742Y-46872619D02*
X124601409Y-46396428D01*
X124363314Y-46872619D02*
X124363314Y-45872619D01*
X124363314Y-45872619D02*
X124744266Y-45872619D01*
X124744266Y-45872619D02*
X124839504Y-45920238D01*
X124839504Y-45920238D02*
X124887123Y-45967857D01*
X124887123Y-45967857D02*
X124934742Y-46063095D01*
X124934742Y-46063095D02*
X124934742Y-46205952D01*
X124934742Y-46205952D02*
X124887123Y-46301190D01*
X124887123Y-46301190D02*
X124839504Y-46348809D01*
X124839504Y-46348809D02*
X124744266Y-46396428D01*
X124744266Y-46396428D02*
X124363314Y-46396428D01*
X125887123Y-46872619D02*
X125315695Y-46872619D01*
X125601409Y-46872619D02*
X125601409Y-45872619D01*
X125601409Y-45872619D02*
X125506171Y-46015476D01*
X125506171Y-46015476D02*
X125410933Y-46110714D01*
X125410933Y-46110714D02*
X125315695Y-46158333D01*
X126506171Y-45872619D02*
X126601409Y-45872619D01*
X126601409Y-45872619D02*
X126696647Y-45920238D01*
X126696647Y-45920238D02*
X126744266Y-45967857D01*
X126744266Y-45967857D02*
X126791885Y-46063095D01*
X126791885Y-46063095D02*
X126839504Y-46253571D01*
X126839504Y-46253571D02*
X126839504Y-46491666D01*
X126839504Y-46491666D02*
X126791885Y-46682142D01*
X126791885Y-46682142D02*
X126744266Y-46777380D01*
X126744266Y-46777380D02*
X126696647Y-46825000D01*
X126696647Y-46825000D02*
X126601409Y-46872619D01*
X126601409Y-46872619D02*
X126506171Y-46872619D01*
X126506171Y-46872619D02*
X126410933Y-46825000D01*
X126410933Y-46825000D02*
X126363314Y-46777380D01*
X126363314Y-46777380D02*
X126315695Y-46682142D01*
X126315695Y-46682142D02*
X126268076Y-46491666D01*
X126268076Y-46491666D02*
X126268076Y-46253571D01*
X126268076Y-46253571D02*
X126315695Y-46063095D01*
X126315695Y-46063095D02*
X126363314Y-45967857D01*
X126363314Y-45967857D02*
X126410933Y-45920238D01*
X126410933Y-45920238D02*
X126506171Y-45872619D01*
X79082742Y-115904819D02*
X78749409Y-115428628D01*
X78511314Y-115904819D02*
X78511314Y-114904819D01*
X78511314Y-114904819D02*
X78892266Y-114904819D01*
X78892266Y-114904819D02*
X78987504Y-114952438D01*
X78987504Y-114952438D02*
X79035123Y-115000057D01*
X79035123Y-115000057D02*
X79082742Y-115095295D01*
X79082742Y-115095295D02*
X79082742Y-115238152D01*
X79082742Y-115238152D02*
X79035123Y-115333390D01*
X79035123Y-115333390D02*
X78987504Y-115381009D01*
X78987504Y-115381009D02*
X78892266Y-115428628D01*
X78892266Y-115428628D02*
X78511314Y-115428628D01*
X80035123Y-115904819D02*
X79463695Y-115904819D01*
X79749409Y-115904819D02*
X79749409Y-114904819D01*
X79749409Y-114904819D02*
X79654171Y-115047676D01*
X79654171Y-115047676D02*
X79558933Y-115142914D01*
X79558933Y-115142914D02*
X79463695Y-115190533D01*
X80892266Y-114904819D02*
X80701790Y-114904819D01*
X80701790Y-114904819D02*
X80606552Y-114952438D01*
X80606552Y-114952438D02*
X80558933Y-115000057D01*
X80558933Y-115000057D02*
X80463695Y-115142914D01*
X80463695Y-115142914D02*
X80416076Y-115333390D01*
X80416076Y-115333390D02*
X80416076Y-115714342D01*
X80416076Y-115714342D02*
X80463695Y-115809580D01*
X80463695Y-115809580D02*
X80511314Y-115857200D01*
X80511314Y-115857200D02*
X80606552Y-115904819D01*
X80606552Y-115904819D02*
X80797028Y-115904819D01*
X80797028Y-115904819D02*
X80892266Y-115857200D01*
X80892266Y-115857200D02*
X80939885Y-115809580D01*
X80939885Y-115809580D02*
X80987504Y-115714342D01*
X80987504Y-115714342D02*
X80987504Y-115476247D01*
X80987504Y-115476247D02*
X80939885Y-115381009D01*
X80939885Y-115381009D02*
X80892266Y-115333390D01*
X80892266Y-115333390D02*
X80797028Y-115285771D01*
X80797028Y-115285771D02*
X80606552Y-115285771D01*
X80606552Y-115285771D02*
X80511314Y-115333390D01*
X80511314Y-115333390D02*
X80463695Y-115381009D01*
X80463695Y-115381009D02*
X80416076Y-115476247D01*
X71726466Y-129489419D02*
X71726466Y-130203704D01*
X71726466Y-130203704D02*
X71678847Y-130346561D01*
X71678847Y-130346561D02*
X71583609Y-130441800D01*
X71583609Y-130441800D02*
X71440752Y-130489419D01*
X71440752Y-130489419D02*
X71345514Y-130489419D01*
X72631228Y-129489419D02*
X72440752Y-129489419D01*
X72440752Y-129489419D02*
X72345514Y-129537038D01*
X72345514Y-129537038D02*
X72297895Y-129584657D01*
X72297895Y-129584657D02*
X72202657Y-129727514D01*
X72202657Y-129727514D02*
X72155038Y-129917990D01*
X72155038Y-129917990D02*
X72155038Y-130298942D01*
X72155038Y-130298942D02*
X72202657Y-130394180D01*
X72202657Y-130394180D02*
X72250276Y-130441800D01*
X72250276Y-130441800D02*
X72345514Y-130489419D01*
X72345514Y-130489419D02*
X72535990Y-130489419D01*
X72535990Y-130489419D02*
X72631228Y-130441800D01*
X72631228Y-130441800D02*
X72678847Y-130394180D01*
X72678847Y-130394180D02*
X72726466Y-130298942D01*
X72726466Y-130298942D02*
X72726466Y-130060847D01*
X72726466Y-130060847D02*
X72678847Y-129965609D01*
X72678847Y-129965609D02*
X72631228Y-129917990D01*
X72631228Y-129917990D02*
X72535990Y-129870371D01*
X72535990Y-129870371D02*
X72345514Y-129870371D01*
X72345514Y-129870371D02*
X72250276Y-129917990D01*
X72250276Y-129917990D02*
X72202657Y-129965609D01*
X72202657Y-129965609D02*
X72155038Y-130060847D01*
X141901942Y-71256619D02*
X141568609Y-70780428D01*
X141330514Y-71256619D02*
X141330514Y-70256619D01*
X141330514Y-70256619D02*
X141711466Y-70256619D01*
X141711466Y-70256619D02*
X141806704Y-70304238D01*
X141806704Y-70304238D02*
X141854323Y-70351857D01*
X141854323Y-70351857D02*
X141901942Y-70447095D01*
X141901942Y-70447095D02*
X141901942Y-70589952D01*
X141901942Y-70589952D02*
X141854323Y-70685190D01*
X141854323Y-70685190D02*
X141806704Y-70732809D01*
X141806704Y-70732809D02*
X141711466Y-70780428D01*
X141711466Y-70780428D02*
X141330514Y-70780428D01*
X142854323Y-71256619D02*
X142282895Y-71256619D01*
X142568609Y-71256619D02*
X142568609Y-70256619D01*
X142568609Y-70256619D02*
X142473371Y-70399476D01*
X142473371Y-70399476D02*
X142378133Y-70494714D01*
X142378133Y-70494714D02*
X142282895Y-70542333D01*
X143235276Y-70351857D02*
X143282895Y-70304238D01*
X143282895Y-70304238D02*
X143378133Y-70256619D01*
X143378133Y-70256619D02*
X143616228Y-70256619D01*
X143616228Y-70256619D02*
X143711466Y-70304238D01*
X143711466Y-70304238D02*
X143759085Y-70351857D01*
X143759085Y-70351857D02*
X143806704Y-70447095D01*
X143806704Y-70447095D02*
X143806704Y-70542333D01*
X143806704Y-70542333D02*
X143759085Y-70685190D01*
X143759085Y-70685190D02*
X143187657Y-71256619D01*
X143187657Y-71256619D02*
X143806704Y-71256619D01*
X156239380Y-131293466D02*
X156287000Y-131341085D01*
X156287000Y-131341085D02*
X156334619Y-131483942D01*
X156334619Y-131483942D02*
X156334619Y-131579180D01*
X156334619Y-131579180D02*
X156287000Y-131722037D01*
X156287000Y-131722037D02*
X156191761Y-131817275D01*
X156191761Y-131817275D02*
X156096523Y-131864894D01*
X156096523Y-131864894D02*
X155906047Y-131912513D01*
X155906047Y-131912513D02*
X155763190Y-131912513D01*
X155763190Y-131912513D02*
X155572714Y-131864894D01*
X155572714Y-131864894D02*
X155477476Y-131817275D01*
X155477476Y-131817275D02*
X155382238Y-131722037D01*
X155382238Y-131722037D02*
X155334619Y-131579180D01*
X155334619Y-131579180D02*
X155334619Y-131483942D01*
X155334619Y-131483942D02*
X155382238Y-131341085D01*
X155382238Y-131341085D02*
X155429857Y-131293466D01*
X155763190Y-130722037D02*
X155715571Y-130817275D01*
X155715571Y-130817275D02*
X155667952Y-130864894D01*
X155667952Y-130864894D02*
X155572714Y-130912513D01*
X155572714Y-130912513D02*
X155525095Y-130912513D01*
X155525095Y-130912513D02*
X155429857Y-130864894D01*
X155429857Y-130864894D02*
X155382238Y-130817275D01*
X155382238Y-130817275D02*
X155334619Y-130722037D01*
X155334619Y-130722037D02*
X155334619Y-130531561D01*
X155334619Y-130531561D02*
X155382238Y-130436323D01*
X155382238Y-130436323D02*
X155429857Y-130388704D01*
X155429857Y-130388704D02*
X155525095Y-130341085D01*
X155525095Y-130341085D02*
X155572714Y-130341085D01*
X155572714Y-130341085D02*
X155667952Y-130388704D01*
X155667952Y-130388704D02*
X155715571Y-130436323D01*
X155715571Y-130436323D02*
X155763190Y-130531561D01*
X155763190Y-130531561D02*
X155763190Y-130722037D01*
X155763190Y-130722037D02*
X155810809Y-130817275D01*
X155810809Y-130817275D02*
X155858428Y-130864894D01*
X155858428Y-130864894D02*
X155953666Y-130912513D01*
X155953666Y-130912513D02*
X156144142Y-130912513D01*
X156144142Y-130912513D02*
X156239380Y-130864894D01*
X156239380Y-130864894D02*
X156287000Y-130817275D01*
X156287000Y-130817275D02*
X156334619Y-130722037D01*
X156334619Y-130722037D02*
X156334619Y-130531561D01*
X156334619Y-130531561D02*
X156287000Y-130436323D01*
X156287000Y-130436323D02*
X156239380Y-130388704D01*
X156239380Y-130388704D02*
X156144142Y-130341085D01*
X156144142Y-130341085D02*
X155953666Y-130341085D01*
X155953666Y-130341085D02*
X155858428Y-130388704D01*
X155858428Y-130388704D02*
X155810809Y-130436323D01*
X155810809Y-130436323D02*
X155763190Y-130531561D01*
X126122133Y-178857380D02*
X126074514Y-178905000D01*
X126074514Y-178905000D02*
X125931657Y-178952619D01*
X125931657Y-178952619D02*
X125836419Y-178952619D01*
X125836419Y-178952619D02*
X125693562Y-178905000D01*
X125693562Y-178905000D02*
X125598324Y-178809761D01*
X125598324Y-178809761D02*
X125550705Y-178714523D01*
X125550705Y-178714523D02*
X125503086Y-178524047D01*
X125503086Y-178524047D02*
X125503086Y-178381190D01*
X125503086Y-178381190D02*
X125550705Y-178190714D01*
X125550705Y-178190714D02*
X125598324Y-178095476D01*
X125598324Y-178095476D02*
X125693562Y-178000238D01*
X125693562Y-178000238D02*
X125836419Y-177952619D01*
X125836419Y-177952619D02*
X125931657Y-177952619D01*
X125931657Y-177952619D02*
X126074514Y-178000238D01*
X126074514Y-178000238D02*
X126122133Y-178047857D01*
X126455467Y-177952619D02*
X127122133Y-177952619D01*
X127122133Y-177952619D02*
X126693562Y-178952619D01*
X76060142Y-115879419D02*
X75726809Y-115403228D01*
X75488714Y-115879419D02*
X75488714Y-114879419D01*
X75488714Y-114879419D02*
X75869666Y-114879419D01*
X75869666Y-114879419D02*
X75964904Y-114927038D01*
X75964904Y-114927038D02*
X76012523Y-114974657D01*
X76012523Y-114974657D02*
X76060142Y-115069895D01*
X76060142Y-115069895D02*
X76060142Y-115212752D01*
X76060142Y-115212752D02*
X76012523Y-115307990D01*
X76012523Y-115307990D02*
X75964904Y-115355609D01*
X75964904Y-115355609D02*
X75869666Y-115403228D01*
X75869666Y-115403228D02*
X75488714Y-115403228D01*
X77012523Y-115879419D02*
X76441095Y-115879419D01*
X76726809Y-115879419D02*
X76726809Y-114879419D01*
X76726809Y-114879419D02*
X76631571Y-115022276D01*
X76631571Y-115022276D02*
X76536333Y-115117514D01*
X76536333Y-115117514D02*
X76441095Y-115165133D01*
X77345857Y-114879419D02*
X78012523Y-114879419D01*
X78012523Y-114879419D02*
X77583952Y-115879419D01*
X144472066Y-89332019D02*
X144472066Y-90046304D01*
X144472066Y-90046304D02*
X144424447Y-90189161D01*
X144424447Y-90189161D02*
X144329209Y-90284400D01*
X144329209Y-90284400D02*
X144186352Y-90332019D01*
X144186352Y-90332019D02*
X144091114Y-90332019D01*
X144853019Y-89332019D02*
X145519685Y-89332019D01*
X145519685Y-89332019D02*
X145091114Y-90332019D01*
X115493895Y-109880619D02*
X115493895Y-110690142D01*
X115493895Y-110690142D02*
X115541514Y-110785380D01*
X115541514Y-110785380D02*
X115589133Y-110833000D01*
X115589133Y-110833000D02*
X115684371Y-110880619D01*
X115684371Y-110880619D02*
X115874847Y-110880619D01*
X115874847Y-110880619D02*
X115970085Y-110833000D01*
X115970085Y-110833000D02*
X116017704Y-110785380D01*
X116017704Y-110785380D02*
X116065323Y-110690142D01*
X116065323Y-110690142D02*
X116065323Y-109880619D01*
X116589133Y-110880619D02*
X116779609Y-110880619D01*
X116779609Y-110880619D02*
X116874847Y-110833000D01*
X116874847Y-110833000D02*
X116922466Y-110785380D01*
X116922466Y-110785380D02*
X117017704Y-110642523D01*
X117017704Y-110642523D02*
X117065323Y-110452047D01*
X117065323Y-110452047D02*
X117065323Y-110071095D01*
X117065323Y-110071095D02*
X117017704Y-109975857D01*
X117017704Y-109975857D02*
X116970085Y-109928238D01*
X116970085Y-109928238D02*
X116874847Y-109880619D01*
X116874847Y-109880619D02*
X116684371Y-109880619D01*
X116684371Y-109880619D02*
X116589133Y-109928238D01*
X116589133Y-109928238D02*
X116541514Y-109975857D01*
X116541514Y-109975857D02*
X116493895Y-110071095D01*
X116493895Y-110071095D02*
X116493895Y-110309190D01*
X116493895Y-110309190D02*
X116541514Y-110404428D01*
X116541514Y-110404428D02*
X116589133Y-110452047D01*
X116589133Y-110452047D02*
X116684371Y-110499666D01*
X116684371Y-110499666D02*
X116874847Y-110499666D01*
X116874847Y-110499666D02*
X116970085Y-110452047D01*
X116970085Y-110452047D02*
X117017704Y-110404428D01*
X117017704Y-110404428D02*
X117065323Y-110309190D01*
X132982619Y-138841894D02*
X133792142Y-138841894D01*
X133792142Y-138841894D02*
X133887380Y-138794275D01*
X133887380Y-138794275D02*
X133935000Y-138746656D01*
X133935000Y-138746656D02*
X133982619Y-138651418D01*
X133982619Y-138651418D02*
X133982619Y-138460942D01*
X133982619Y-138460942D02*
X133935000Y-138365704D01*
X133935000Y-138365704D02*
X133887380Y-138318085D01*
X133887380Y-138318085D02*
X133792142Y-138270466D01*
X133792142Y-138270466D02*
X132982619Y-138270466D01*
X133982619Y-137270466D02*
X133982619Y-137841894D01*
X133982619Y-137556180D02*
X132982619Y-137556180D01*
X132982619Y-137556180D02*
X133125476Y-137651418D01*
X133125476Y-137651418D02*
X133220714Y-137746656D01*
X133220714Y-137746656D02*
X133268333Y-137841894D01*
X133982619Y-136318085D02*
X133982619Y-136889513D01*
X133982619Y-136603799D02*
X132982619Y-136603799D01*
X132982619Y-136603799D02*
X133125476Y-136699037D01*
X133125476Y-136699037D02*
X133220714Y-136794275D01*
X133220714Y-136794275D02*
X133268333Y-136889513D01*
X139488942Y-83454980D02*
X139441323Y-83502600D01*
X139441323Y-83502600D02*
X139298466Y-83550219D01*
X139298466Y-83550219D02*
X139203228Y-83550219D01*
X139203228Y-83550219D02*
X139060371Y-83502600D01*
X139060371Y-83502600D02*
X138965133Y-83407361D01*
X138965133Y-83407361D02*
X138917514Y-83312123D01*
X138917514Y-83312123D02*
X138869895Y-83121647D01*
X138869895Y-83121647D02*
X138869895Y-82978790D01*
X138869895Y-82978790D02*
X138917514Y-82788314D01*
X138917514Y-82788314D02*
X138965133Y-82693076D01*
X138965133Y-82693076D02*
X139060371Y-82597838D01*
X139060371Y-82597838D02*
X139203228Y-82550219D01*
X139203228Y-82550219D02*
X139298466Y-82550219D01*
X139298466Y-82550219D02*
X139441323Y-82597838D01*
X139441323Y-82597838D02*
X139488942Y-82645457D01*
X140441323Y-83550219D02*
X139869895Y-83550219D01*
X140155609Y-83550219D02*
X140155609Y-82550219D01*
X140155609Y-82550219D02*
X140060371Y-82693076D01*
X140060371Y-82693076D02*
X139965133Y-82788314D01*
X139965133Y-82788314D02*
X139869895Y-82835933D01*
X141298466Y-82550219D02*
X141107990Y-82550219D01*
X141107990Y-82550219D02*
X141012752Y-82597838D01*
X141012752Y-82597838D02*
X140965133Y-82645457D01*
X140965133Y-82645457D02*
X140869895Y-82788314D01*
X140869895Y-82788314D02*
X140822276Y-82978790D01*
X140822276Y-82978790D02*
X140822276Y-83359742D01*
X140822276Y-83359742D02*
X140869895Y-83454980D01*
X140869895Y-83454980D02*
X140917514Y-83502600D01*
X140917514Y-83502600D02*
X141012752Y-83550219D01*
X141012752Y-83550219D02*
X141203228Y-83550219D01*
X141203228Y-83550219D02*
X141298466Y-83502600D01*
X141298466Y-83502600D02*
X141346085Y-83454980D01*
X141346085Y-83454980D02*
X141393704Y-83359742D01*
X141393704Y-83359742D02*
X141393704Y-83121647D01*
X141393704Y-83121647D02*
X141346085Y-83026409D01*
X141346085Y-83026409D02*
X141298466Y-82978790D01*
X141298466Y-82978790D02*
X141203228Y-82931171D01*
X141203228Y-82931171D02*
X141012752Y-82931171D01*
X141012752Y-82931171D02*
X140917514Y-82978790D01*
X140917514Y-82978790D02*
X140869895Y-83026409D01*
X140869895Y-83026409D02*
X140822276Y-83121647D01*
X92371942Y-142078180D02*
X92324323Y-142125800D01*
X92324323Y-142125800D02*
X92181466Y-142173419D01*
X92181466Y-142173419D02*
X92086228Y-142173419D01*
X92086228Y-142173419D02*
X91943371Y-142125800D01*
X91943371Y-142125800D02*
X91848133Y-142030561D01*
X91848133Y-142030561D02*
X91800514Y-141935323D01*
X91800514Y-141935323D02*
X91752895Y-141744847D01*
X91752895Y-141744847D02*
X91752895Y-141601990D01*
X91752895Y-141601990D02*
X91800514Y-141411514D01*
X91800514Y-141411514D02*
X91848133Y-141316276D01*
X91848133Y-141316276D02*
X91943371Y-141221038D01*
X91943371Y-141221038D02*
X92086228Y-141173419D01*
X92086228Y-141173419D02*
X92181466Y-141173419D01*
X92181466Y-141173419D02*
X92324323Y-141221038D01*
X92324323Y-141221038D02*
X92371942Y-141268657D01*
X93324323Y-142173419D02*
X92752895Y-142173419D01*
X93038609Y-142173419D02*
X93038609Y-141173419D01*
X93038609Y-141173419D02*
X92943371Y-141316276D01*
X92943371Y-141316276D02*
X92848133Y-141411514D01*
X92848133Y-141411514D02*
X92752895Y-141459133D01*
X93895752Y-141601990D02*
X93800514Y-141554371D01*
X93800514Y-141554371D02*
X93752895Y-141506752D01*
X93752895Y-141506752D02*
X93705276Y-141411514D01*
X93705276Y-141411514D02*
X93705276Y-141363895D01*
X93705276Y-141363895D02*
X93752895Y-141268657D01*
X93752895Y-141268657D02*
X93800514Y-141221038D01*
X93800514Y-141221038D02*
X93895752Y-141173419D01*
X93895752Y-141173419D02*
X94086228Y-141173419D01*
X94086228Y-141173419D02*
X94181466Y-141221038D01*
X94181466Y-141221038D02*
X94229085Y-141268657D01*
X94229085Y-141268657D02*
X94276704Y-141363895D01*
X94276704Y-141363895D02*
X94276704Y-141411514D01*
X94276704Y-141411514D02*
X94229085Y-141506752D01*
X94229085Y-141506752D02*
X94181466Y-141554371D01*
X94181466Y-141554371D02*
X94086228Y-141601990D01*
X94086228Y-141601990D02*
X93895752Y-141601990D01*
X93895752Y-141601990D02*
X93800514Y-141649609D01*
X93800514Y-141649609D02*
X93752895Y-141697228D01*
X93752895Y-141697228D02*
X93705276Y-141792466D01*
X93705276Y-141792466D02*
X93705276Y-141982942D01*
X93705276Y-141982942D02*
X93752895Y-142078180D01*
X93752895Y-142078180D02*
X93800514Y-142125800D01*
X93800514Y-142125800D02*
X93895752Y-142173419D01*
X93895752Y-142173419D02*
X94086228Y-142173419D01*
X94086228Y-142173419D02*
X94181466Y-142125800D01*
X94181466Y-142125800D02*
X94229085Y-142078180D01*
X94229085Y-142078180D02*
X94276704Y-141982942D01*
X94276704Y-141982942D02*
X94276704Y-141792466D01*
X94276704Y-141792466D02*
X94229085Y-141697228D01*
X94229085Y-141697228D02*
X94181466Y-141649609D01*
X94181466Y-141649609D02*
X94086228Y-141601990D01*
X70432705Y-150758619D02*
X70432705Y-149758619D01*
X70432705Y-149758619D02*
X70670800Y-149758619D01*
X70670800Y-149758619D02*
X70813657Y-149806238D01*
X70813657Y-149806238D02*
X70908895Y-149901476D01*
X70908895Y-149901476D02*
X70956514Y-149996714D01*
X70956514Y-149996714D02*
X71004133Y-150187190D01*
X71004133Y-150187190D02*
X71004133Y-150330047D01*
X71004133Y-150330047D02*
X70956514Y-150520523D01*
X70956514Y-150520523D02*
X70908895Y-150615761D01*
X70908895Y-150615761D02*
X70813657Y-150711000D01*
X70813657Y-150711000D02*
X70670800Y-150758619D01*
X70670800Y-150758619D02*
X70432705Y-150758619D01*
X71956514Y-150758619D02*
X71385086Y-150758619D01*
X71670800Y-150758619D02*
X71670800Y-149758619D01*
X71670800Y-149758619D02*
X71575562Y-149901476D01*
X71575562Y-149901476D02*
X71480324Y-149996714D01*
X71480324Y-149996714D02*
X71385086Y-150044333D01*
X139819142Y-75911180D02*
X139771523Y-75958800D01*
X139771523Y-75958800D02*
X139628666Y-76006419D01*
X139628666Y-76006419D02*
X139533428Y-76006419D01*
X139533428Y-76006419D02*
X139390571Y-75958800D01*
X139390571Y-75958800D02*
X139295333Y-75863561D01*
X139295333Y-75863561D02*
X139247714Y-75768323D01*
X139247714Y-75768323D02*
X139200095Y-75577847D01*
X139200095Y-75577847D02*
X139200095Y-75434990D01*
X139200095Y-75434990D02*
X139247714Y-75244514D01*
X139247714Y-75244514D02*
X139295333Y-75149276D01*
X139295333Y-75149276D02*
X139390571Y-75054038D01*
X139390571Y-75054038D02*
X139533428Y-75006419D01*
X139533428Y-75006419D02*
X139628666Y-75006419D01*
X139628666Y-75006419D02*
X139771523Y-75054038D01*
X139771523Y-75054038D02*
X139819142Y-75101657D01*
X140771523Y-76006419D02*
X140200095Y-76006419D01*
X140485809Y-76006419D02*
X140485809Y-75006419D01*
X140485809Y-75006419D02*
X140390571Y-75149276D01*
X140390571Y-75149276D02*
X140295333Y-75244514D01*
X140295333Y-75244514D02*
X140200095Y-75292133D01*
X141676285Y-75006419D02*
X141200095Y-75006419D01*
X141200095Y-75006419D02*
X141152476Y-75482609D01*
X141152476Y-75482609D02*
X141200095Y-75434990D01*
X141200095Y-75434990D02*
X141295333Y-75387371D01*
X141295333Y-75387371D02*
X141533428Y-75387371D01*
X141533428Y-75387371D02*
X141628666Y-75434990D01*
X141628666Y-75434990D02*
X141676285Y-75482609D01*
X141676285Y-75482609D02*
X141723904Y-75577847D01*
X141723904Y-75577847D02*
X141723904Y-75815942D01*
X141723904Y-75815942D02*
X141676285Y-75911180D01*
X141676285Y-75911180D02*
X141628666Y-75958800D01*
X141628666Y-75958800D02*
X141533428Y-76006419D01*
X141533428Y-76006419D02*
X141295333Y-76006419D01*
X141295333Y-76006419D02*
X141200095Y-75958800D01*
X141200095Y-75958800D02*
X141152476Y-75911180D01*
X145207123Y-115363419D02*
X144873790Y-114887228D01*
X144635695Y-115363419D02*
X144635695Y-114363419D01*
X144635695Y-114363419D02*
X145016647Y-114363419D01*
X145016647Y-114363419D02*
X145111885Y-114411038D01*
X145111885Y-114411038D02*
X145159504Y-114458657D01*
X145159504Y-114458657D02*
X145207123Y-114553895D01*
X145207123Y-114553895D02*
X145207123Y-114696752D01*
X145207123Y-114696752D02*
X145159504Y-114791990D01*
X145159504Y-114791990D02*
X145111885Y-114839609D01*
X145111885Y-114839609D02*
X145016647Y-114887228D01*
X145016647Y-114887228D02*
X144635695Y-114887228D01*
X145635695Y-115363419D02*
X145635695Y-114363419D01*
X145635695Y-114363419D02*
X146207123Y-115363419D01*
X146207123Y-115363419D02*
X146207123Y-114363419D01*
X146635695Y-114458657D02*
X146683314Y-114411038D01*
X146683314Y-114411038D02*
X146778552Y-114363419D01*
X146778552Y-114363419D02*
X147016647Y-114363419D01*
X147016647Y-114363419D02*
X147111885Y-114411038D01*
X147111885Y-114411038D02*
X147159504Y-114458657D01*
X147159504Y-114458657D02*
X147207123Y-114553895D01*
X147207123Y-114553895D02*
X147207123Y-114649133D01*
X147207123Y-114649133D02*
X147159504Y-114791990D01*
X147159504Y-114791990D02*
X146588076Y-115363419D01*
X146588076Y-115363419D02*
X147207123Y-115363419D01*
X134154942Y-50587380D02*
X134107323Y-50635000D01*
X134107323Y-50635000D02*
X133964466Y-50682619D01*
X133964466Y-50682619D02*
X133869228Y-50682619D01*
X133869228Y-50682619D02*
X133726371Y-50635000D01*
X133726371Y-50635000D02*
X133631133Y-50539761D01*
X133631133Y-50539761D02*
X133583514Y-50444523D01*
X133583514Y-50444523D02*
X133535895Y-50254047D01*
X133535895Y-50254047D02*
X133535895Y-50111190D01*
X133535895Y-50111190D02*
X133583514Y-49920714D01*
X133583514Y-49920714D02*
X133631133Y-49825476D01*
X133631133Y-49825476D02*
X133726371Y-49730238D01*
X133726371Y-49730238D02*
X133869228Y-49682619D01*
X133869228Y-49682619D02*
X133964466Y-49682619D01*
X133964466Y-49682619D02*
X134107323Y-49730238D01*
X134107323Y-49730238D02*
X134154942Y-49777857D01*
X135107323Y-50682619D02*
X134535895Y-50682619D01*
X134821609Y-50682619D02*
X134821609Y-49682619D01*
X134821609Y-49682619D02*
X134726371Y-49825476D01*
X134726371Y-49825476D02*
X134631133Y-49920714D01*
X134631133Y-49920714D02*
X134535895Y-49968333D01*
X135964466Y-50015952D02*
X135964466Y-50682619D01*
X135726371Y-49635000D02*
X135488276Y-50349285D01*
X135488276Y-50349285D02*
X136107323Y-50349285D01*
X70345467Y-161175800D02*
X70488324Y-161223419D01*
X70488324Y-161223419D02*
X70726419Y-161223419D01*
X70726419Y-161223419D02*
X70821657Y-161175800D01*
X70821657Y-161175800D02*
X70869276Y-161128180D01*
X70869276Y-161128180D02*
X70916895Y-161032942D01*
X70916895Y-161032942D02*
X70916895Y-160937704D01*
X70916895Y-160937704D02*
X70869276Y-160842466D01*
X70869276Y-160842466D02*
X70821657Y-160794847D01*
X70821657Y-160794847D02*
X70726419Y-160747228D01*
X70726419Y-160747228D02*
X70535943Y-160699609D01*
X70535943Y-160699609D02*
X70440705Y-160651990D01*
X70440705Y-160651990D02*
X70393086Y-160604371D01*
X70393086Y-160604371D02*
X70345467Y-160509133D01*
X70345467Y-160509133D02*
X70345467Y-160413895D01*
X70345467Y-160413895D02*
X70393086Y-160318657D01*
X70393086Y-160318657D02*
X70440705Y-160271038D01*
X70440705Y-160271038D02*
X70535943Y-160223419D01*
X70535943Y-160223419D02*
X70774038Y-160223419D01*
X70774038Y-160223419D02*
X70916895Y-160271038D01*
X71250229Y-160223419D02*
X71488324Y-161223419D01*
X71488324Y-161223419D02*
X71678800Y-160509133D01*
X71678800Y-160509133D02*
X71869276Y-161223419D01*
X71869276Y-161223419D02*
X72107372Y-160223419D01*
X73012133Y-161223419D02*
X72440705Y-161223419D01*
X72726419Y-161223419D02*
X72726419Y-160223419D01*
X72726419Y-160223419D02*
X72631181Y-160366276D01*
X72631181Y-160366276D02*
X72535943Y-160461514D01*
X72535943Y-160461514D02*
X72440705Y-160509133D01*
X143735466Y-178226619D02*
X143735466Y-178940904D01*
X143735466Y-178940904D02*
X143687847Y-179083761D01*
X143687847Y-179083761D02*
X143592609Y-179179000D01*
X143592609Y-179179000D02*
X143449752Y-179226619D01*
X143449752Y-179226619D02*
X143354514Y-179226619D01*
X144164038Y-178321857D02*
X144211657Y-178274238D01*
X144211657Y-178274238D02*
X144306895Y-178226619D01*
X144306895Y-178226619D02*
X144544990Y-178226619D01*
X144544990Y-178226619D02*
X144640228Y-178274238D01*
X144640228Y-178274238D02*
X144687847Y-178321857D01*
X144687847Y-178321857D02*
X144735466Y-178417095D01*
X144735466Y-178417095D02*
X144735466Y-178512333D01*
X144735466Y-178512333D02*
X144687847Y-178655190D01*
X144687847Y-178655190D02*
X144116419Y-179226619D01*
X144116419Y-179226619D02*
X144735466Y-179226619D01*
X105371995Y-84680519D02*
X105371995Y-83680519D01*
X105371995Y-84156709D02*
X105943423Y-84156709D01*
X105943423Y-84680519D02*
X105943423Y-83680519D01*
X106324376Y-83680519D02*
X106991042Y-83680519D01*
X106991042Y-83680519D02*
X106562471Y-84680519D01*
X133488133Y-154187619D02*
X133154800Y-153711428D01*
X132916705Y-154187619D02*
X132916705Y-153187619D01*
X132916705Y-153187619D02*
X133297657Y-153187619D01*
X133297657Y-153187619D02*
X133392895Y-153235238D01*
X133392895Y-153235238D02*
X133440514Y-153282857D01*
X133440514Y-153282857D02*
X133488133Y-153378095D01*
X133488133Y-153378095D02*
X133488133Y-153520952D01*
X133488133Y-153520952D02*
X133440514Y-153616190D01*
X133440514Y-153616190D02*
X133392895Y-153663809D01*
X133392895Y-153663809D02*
X133297657Y-153711428D01*
X133297657Y-153711428D02*
X132916705Y-153711428D01*
X134392895Y-153187619D02*
X133916705Y-153187619D01*
X133916705Y-153187619D02*
X133869086Y-153663809D01*
X133869086Y-153663809D02*
X133916705Y-153616190D01*
X133916705Y-153616190D02*
X134011943Y-153568571D01*
X134011943Y-153568571D02*
X134250038Y-153568571D01*
X134250038Y-153568571D02*
X134345276Y-153616190D01*
X134345276Y-153616190D02*
X134392895Y-153663809D01*
X134392895Y-153663809D02*
X134440514Y-153759047D01*
X134440514Y-153759047D02*
X134440514Y-153997142D01*
X134440514Y-153997142D02*
X134392895Y-154092380D01*
X134392895Y-154092380D02*
X134345276Y-154140000D01*
X134345276Y-154140000D02*
X134250038Y-154187619D01*
X134250038Y-154187619D02*
X134011943Y-154187619D01*
X134011943Y-154187619D02*
X133916705Y-154140000D01*
X133916705Y-154140000D02*
X133869086Y-154092380D01*
X77737619Y-159320704D02*
X78547142Y-159320704D01*
X78547142Y-159320704D02*
X78642380Y-159273085D01*
X78642380Y-159273085D02*
X78690000Y-159225466D01*
X78690000Y-159225466D02*
X78737619Y-159130228D01*
X78737619Y-159130228D02*
X78737619Y-158939752D01*
X78737619Y-158939752D02*
X78690000Y-158844514D01*
X78690000Y-158844514D02*
X78642380Y-158796895D01*
X78642380Y-158796895D02*
X78547142Y-158749276D01*
X78547142Y-158749276D02*
X77737619Y-158749276D01*
X77737619Y-157796895D02*
X77737619Y-158273085D01*
X77737619Y-158273085D02*
X78213809Y-158320704D01*
X78213809Y-158320704D02*
X78166190Y-158273085D01*
X78166190Y-158273085D02*
X78118571Y-158177847D01*
X78118571Y-158177847D02*
X78118571Y-157939752D01*
X78118571Y-157939752D02*
X78166190Y-157844514D01*
X78166190Y-157844514D02*
X78213809Y-157796895D01*
X78213809Y-157796895D02*
X78309047Y-157749276D01*
X78309047Y-157749276D02*
X78547142Y-157749276D01*
X78547142Y-157749276D02*
X78642380Y-157796895D01*
X78642380Y-157796895D02*
X78690000Y-157844514D01*
X78690000Y-157844514D02*
X78737619Y-157939752D01*
X78737619Y-157939752D02*
X78737619Y-158177847D01*
X78737619Y-158177847D02*
X78690000Y-158273085D01*
X78690000Y-158273085D02*
X78642380Y-158320704D01*
X123455133Y-154568619D02*
X123121800Y-154092428D01*
X122883705Y-154568619D02*
X122883705Y-153568619D01*
X122883705Y-153568619D02*
X123264657Y-153568619D01*
X123264657Y-153568619D02*
X123359895Y-153616238D01*
X123359895Y-153616238D02*
X123407514Y-153663857D01*
X123407514Y-153663857D02*
X123455133Y-153759095D01*
X123455133Y-153759095D02*
X123455133Y-153901952D01*
X123455133Y-153901952D02*
X123407514Y-153997190D01*
X123407514Y-153997190D02*
X123359895Y-154044809D01*
X123359895Y-154044809D02*
X123264657Y-154092428D01*
X123264657Y-154092428D02*
X122883705Y-154092428D01*
X123788467Y-153568619D02*
X124407514Y-153568619D01*
X124407514Y-153568619D02*
X124074181Y-153949571D01*
X124074181Y-153949571D02*
X124217038Y-153949571D01*
X124217038Y-153949571D02*
X124312276Y-153997190D01*
X124312276Y-153997190D02*
X124359895Y-154044809D01*
X124359895Y-154044809D02*
X124407514Y-154140047D01*
X124407514Y-154140047D02*
X124407514Y-154378142D01*
X124407514Y-154378142D02*
X124359895Y-154473380D01*
X124359895Y-154473380D02*
X124312276Y-154521000D01*
X124312276Y-154521000D02*
X124217038Y-154568619D01*
X124217038Y-154568619D02*
X123931324Y-154568619D01*
X123931324Y-154568619D02*
X123836086Y-154521000D01*
X123836086Y-154521000D02*
X123788467Y-154473380D01*
X90365342Y-114442980D02*
X90317723Y-114490600D01*
X90317723Y-114490600D02*
X90174866Y-114538219D01*
X90174866Y-114538219D02*
X90079628Y-114538219D01*
X90079628Y-114538219D02*
X89936771Y-114490600D01*
X89936771Y-114490600D02*
X89841533Y-114395361D01*
X89841533Y-114395361D02*
X89793914Y-114300123D01*
X89793914Y-114300123D02*
X89746295Y-114109647D01*
X89746295Y-114109647D02*
X89746295Y-113966790D01*
X89746295Y-113966790D02*
X89793914Y-113776314D01*
X89793914Y-113776314D02*
X89841533Y-113681076D01*
X89841533Y-113681076D02*
X89936771Y-113585838D01*
X89936771Y-113585838D02*
X90079628Y-113538219D01*
X90079628Y-113538219D02*
X90174866Y-113538219D01*
X90174866Y-113538219D02*
X90317723Y-113585838D01*
X90317723Y-113585838D02*
X90365342Y-113633457D01*
X91317723Y-114538219D02*
X90746295Y-114538219D01*
X91032009Y-114538219D02*
X91032009Y-113538219D01*
X91032009Y-113538219D02*
X90936771Y-113681076D01*
X90936771Y-113681076D02*
X90841533Y-113776314D01*
X90841533Y-113776314D02*
X90746295Y-113823933D01*
X91793914Y-114538219D02*
X91984390Y-114538219D01*
X91984390Y-114538219D02*
X92079628Y-114490600D01*
X92079628Y-114490600D02*
X92127247Y-114442980D01*
X92127247Y-114442980D02*
X92222485Y-114300123D01*
X92222485Y-114300123D02*
X92270104Y-114109647D01*
X92270104Y-114109647D02*
X92270104Y-113728695D01*
X92270104Y-113728695D02*
X92222485Y-113633457D01*
X92222485Y-113633457D02*
X92174866Y-113585838D01*
X92174866Y-113585838D02*
X92079628Y-113538219D01*
X92079628Y-113538219D02*
X91889152Y-113538219D01*
X91889152Y-113538219D02*
X91793914Y-113585838D01*
X91793914Y-113585838D02*
X91746295Y-113633457D01*
X91746295Y-113633457D02*
X91698676Y-113728695D01*
X91698676Y-113728695D02*
X91698676Y-113966790D01*
X91698676Y-113966790D02*
X91746295Y-114062028D01*
X91746295Y-114062028D02*
X91793914Y-114109647D01*
X91793914Y-114109647D02*
X91889152Y-114157266D01*
X91889152Y-114157266D02*
X92079628Y-114157266D01*
X92079628Y-114157266D02*
X92174866Y-114109647D01*
X92174866Y-114109647D02*
X92222485Y-114062028D01*
X92222485Y-114062028D02*
X92270104Y-113966790D01*
X71475695Y-56448419D02*
X71475695Y-55448419D01*
X71475695Y-55924609D02*
X72047123Y-55924609D01*
X72047123Y-56448419D02*
X72047123Y-55448419D01*
X72951885Y-55781752D02*
X72951885Y-56448419D01*
X72713790Y-55400800D02*
X72475695Y-56115085D01*
X72475695Y-56115085D02*
X73094742Y-56115085D01*
X153286619Y-95879457D02*
X152810428Y-96212790D01*
X153286619Y-96450885D02*
X152286619Y-96450885D01*
X152286619Y-96450885D02*
X152286619Y-96069933D01*
X152286619Y-96069933D02*
X152334238Y-95974695D01*
X152334238Y-95974695D02*
X152381857Y-95927076D01*
X152381857Y-95927076D02*
X152477095Y-95879457D01*
X152477095Y-95879457D02*
X152619952Y-95879457D01*
X152619952Y-95879457D02*
X152715190Y-95927076D01*
X152715190Y-95927076D02*
X152762809Y-95974695D01*
X152762809Y-95974695D02*
X152810428Y-96069933D01*
X152810428Y-96069933D02*
X152810428Y-96450885D01*
X153286619Y-94927076D02*
X153286619Y-95498504D01*
X153286619Y-95212790D02*
X152286619Y-95212790D01*
X152286619Y-95212790D02*
X152429476Y-95308028D01*
X152429476Y-95308028D02*
X152524714Y-95403266D01*
X152524714Y-95403266D02*
X152572333Y-95498504D01*
X152715190Y-94355647D02*
X152667571Y-94450885D01*
X152667571Y-94450885D02*
X152619952Y-94498504D01*
X152619952Y-94498504D02*
X152524714Y-94546123D01*
X152524714Y-94546123D02*
X152477095Y-94546123D01*
X152477095Y-94546123D02*
X152381857Y-94498504D01*
X152381857Y-94498504D02*
X152334238Y-94450885D01*
X152334238Y-94450885D02*
X152286619Y-94355647D01*
X152286619Y-94355647D02*
X152286619Y-94165171D01*
X152286619Y-94165171D02*
X152334238Y-94069933D01*
X152334238Y-94069933D02*
X152381857Y-94022314D01*
X152381857Y-94022314D02*
X152477095Y-93974695D01*
X152477095Y-93974695D02*
X152524714Y-93974695D01*
X152524714Y-93974695D02*
X152619952Y-94022314D01*
X152619952Y-94022314D02*
X152667571Y-94069933D01*
X152667571Y-94069933D02*
X152715190Y-94165171D01*
X152715190Y-94165171D02*
X152715190Y-94355647D01*
X152715190Y-94355647D02*
X152762809Y-94450885D01*
X152762809Y-94450885D02*
X152810428Y-94498504D01*
X152810428Y-94498504D02*
X152905666Y-94546123D01*
X152905666Y-94546123D02*
X153096142Y-94546123D01*
X153096142Y-94546123D02*
X153191380Y-94498504D01*
X153191380Y-94498504D02*
X153239000Y-94450885D01*
X153239000Y-94450885D02*
X153286619Y-94355647D01*
X153286619Y-94355647D02*
X153286619Y-94165171D01*
X153286619Y-94165171D02*
X153239000Y-94069933D01*
X153239000Y-94069933D02*
X153191380Y-94022314D01*
X153191380Y-94022314D02*
X153096142Y-93974695D01*
X153096142Y-93974695D02*
X152905666Y-93974695D01*
X152905666Y-93974695D02*
X152810428Y-94022314D01*
X152810428Y-94022314D02*
X152762809Y-94069933D01*
X152762809Y-94069933D02*
X152715190Y-94165171D01*
X90435133Y-133359619D02*
X90101800Y-132883428D01*
X89863705Y-133359619D02*
X89863705Y-132359619D01*
X89863705Y-132359619D02*
X90244657Y-132359619D01*
X90244657Y-132359619D02*
X90339895Y-132407238D01*
X90339895Y-132407238D02*
X90387514Y-132454857D01*
X90387514Y-132454857D02*
X90435133Y-132550095D01*
X90435133Y-132550095D02*
X90435133Y-132692952D01*
X90435133Y-132692952D02*
X90387514Y-132788190D01*
X90387514Y-132788190D02*
X90339895Y-132835809D01*
X90339895Y-132835809D02*
X90244657Y-132883428D01*
X90244657Y-132883428D02*
X89863705Y-132883428D01*
X91387514Y-133359619D02*
X90816086Y-133359619D01*
X91101800Y-133359619D02*
X91101800Y-132359619D01*
X91101800Y-132359619D02*
X91006562Y-132502476D01*
X91006562Y-132502476D02*
X90911324Y-132597714D01*
X90911324Y-132597714D02*
X90816086Y-132645333D01*
X134035895Y-184032619D02*
X134035895Y-183032619D01*
X134035895Y-183508809D02*
X134607323Y-183508809D01*
X134607323Y-184032619D02*
X134607323Y-183032619D01*
X135607323Y-184032619D02*
X135035895Y-184032619D01*
X135321609Y-184032619D02*
X135321609Y-183032619D01*
X135321609Y-183032619D02*
X135226371Y-183175476D01*
X135226371Y-183175476D02*
X135131133Y-183270714D01*
X135131133Y-183270714D02*
X135035895Y-183318333D01*
X141235133Y-180254380D02*
X141187514Y-180302000D01*
X141187514Y-180302000D02*
X141044657Y-180349619D01*
X141044657Y-180349619D02*
X140949419Y-180349619D01*
X140949419Y-180349619D02*
X140806562Y-180302000D01*
X140806562Y-180302000D02*
X140711324Y-180206761D01*
X140711324Y-180206761D02*
X140663705Y-180111523D01*
X140663705Y-180111523D02*
X140616086Y-179921047D01*
X140616086Y-179921047D02*
X140616086Y-179778190D01*
X140616086Y-179778190D02*
X140663705Y-179587714D01*
X140663705Y-179587714D02*
X140711324Y-179492476D01*
X140711324Y-179492476D02*
X140806562Y-179397238D01*
X140806562Y-179397238D02*
X140949419Y-179349619D01*
X140949419Y-179349619D02*
X141044657Y-179349619D01*
X141044657Y-179349619D02*
X141187514Y-179397238D01*
X141187514Y-179397238D02*
X141235133Y-179444857D01*
X142092276Y-179349619D02*
X141901800Y-179349619D01*
X141901800Y-179349619D02*
X141806562Y-179397238D01*
X141806562Y-179397238D02*
X141758943Y-179444857D01*
X141758943Y-179444857D02*
X141663705Y-179587714D01*
X141663705Y-179587714D02*
X141616086Y-179778190D01*
X141616086Y-179778190D02*
X141616086Y-180159142D01*
X141616086Y-180159142D02*
X141663705Y-180254380D01*
X141663705Y-180254380D02*
X141711324Y-180302000D01*
X141711324Y-180302000D02*
X141806562Y-180349619D01*
X141806562Y-180349619D02*
X141997038Y-180349619D01*
X141997038Y-180349619D02*
X142092276Y-180302000D01*
X142092276Y-180302000D02*
X142139895Y-180254380D01*
X142139895Y-180254380D02*
X142187514Y-180159142D01*
X142187514Y-180159142D02*
X142187514Y-179921047D01*
X142187514Y-179921047D02*
X142139895Y-179825809D01*
X142139895Y-179825809D02*
X142092276Y-179778190D01*
X142092276Y-179778190D02*
X141997038Y-179730571D01*
X141997038Y-179730571D02*
X141806562Y-179730571D01*
X141806562Y-179730571D02*
X141711324Y-179778190D01*
X141711324Y-179778190D02*
X141663705Y-179825809D01*
X141663705Y-179825809D02*
X141616086Y-179921047D01*
X73925133Y-130692619D02*
X73591800Y-130216428D01*
X73353705Y-130692619D02*
X73353705Y-129692619D01*
X73353705Y-129692619D02*
X73734657Y-129692619D01*
X73734657Y-129692619D02*
X73829895Y-129740238D01*
X73829895Y-129740238D02*
X73877514Y-129787857D01*
X73877514Y-129787857D02*
X73925133Y-129883095D01*
X73925133Y-129883095D02*
X73925133Y-130025952D01*
X73925133Y-130025952D02*
X73877514Y-130121190D01*
X73877514Y-130121190D02*
X73829895Y-130168809D01*
X73829895Y-130168809D02*
X73734657Y-130216428D01*
X73734657Y-130216428D02*
X73353705Y-130216428D01*
X74306086Y-129787857D02*
X74353705Y-129740238D01*
X74353705Y-129740238D02*
X74448943Y-129692619D01*
X74448943Y-129692619D02*
X74687038Y-129692619D01*
X74687038Y-129692619D02*
X74782276Y-129740238D01*
X74782276Y-129740238D02*
X74829895Y-129787857D01*
X74829895Y-129787857D02*
X74877514Y-129883095D01*
X74877514Y-129883095D02*
X74877514Y-129978333D01*
X74877514Y-129978333D02*
X74829895Y-130121190D01*
X74829895Y-130121190D02*
X74258467Y-130692619D01*
X74258467Y-130692619D02*
X74877514Y-130692619D01*
X69837467Y-132169000D02*
X69980324Y-132216619D01*
X69980324Y-132216619D02*
X70218419Y-132216619D01*
X70218419Y-132216619D02*
X70313657Y-132169000D01*
X70313657Y-132169000D02*
X70361276Y-132121380D01*
X70361276Y-132121380D02*
X70408895Y-132026142D01*
X70408895Y-132026142D02*
X70408895Y-131930904D01*
X70408895Y-131930904D02*
X70361276Y-131835666D01*
X70361276Y-131835666D02*
X70313657Y-131788047D01*
X70313657Y-131788047D02*
X70218419Y-131740428D01*
X70218419Y-131740428D02*
X70027943Y-131692809D01*
X70027943Y-131692809D02*
X69932705Y-131645190D01*
X69932705Y-131645190D02*
X69885086Y-131597571D01*
X69885086Y-131597571D02*
X69837467Y-131502333D01*
X69837467Y-131502333D02*
X69837467Y-131407095D01*
X69837467Y-131407095D02*
X69885086Y-131311857D01*
X69885086Y-131311857D02*
X69932705Y-131264238D01*
X69932705Y-131264238D02*
X70027943Y-131216619D01*
X70027943Y-131216619D02*
X70266038Y-131216619D01*
X70266038Y-131216619D02*
X70408895Y-131264238D01*
X70742229Y-131216619D02*
X70980324Y-132216619D01*
X70980324Y-132216619D02*
X71170800Y-131502333D01*
X71170800Y-131502333D02*
X71361276Y-132216619D01*
X71361276Y-132216619D02*
X71599372Y-131216619D01*
X71885086Y-131216619D02*
X72504133Y-131216619D01*
X72504133Y-131216619D02*
X72170800Y-131597571D01*
X72170800Y-131597571D02*
X72313657Y-131597571D01*
X72313657Y-131597571D02*
X72408895Y-131645190D01*
X72408895Y-131645190D02*
X72456514Y-131692809D01*
X72456514Y-131692809D02*
X72504133Y-131788047D01*
X72504133Y-131788047D02*
X72504133Y-132026142D01*
X72504133Y-132026142D02*
X72456514Y-132121380D01*
X72456514Y-132121380D02*
X72408895Y-132169000D01*
X72408895Y-132169000D02*
X72313657Y-132216619D01*
X72313657Y-132216619D02*
X72027943Y-132216619D01*
X72027943Y-132216619D02*
X71932705Y-132169000D01*
X71932705Y-132169000D02*
X71885086Y-132121380D01*
X109034342Y-61788780D02*
X108986723Y-61836400D01*
X108986723Y-61836400D02*
X108843866Y-61884019D01*
X108843866Y-61884019D02*
X108748628Y-61884019D01*
X108748628Y-61884019D02*
X108605771Y-61836400D01*
X108605771Y-61836400D02*
X108510533Y-61741161D01*
X108510533Y-61741161D02*
X108462914Y-61645923D01*
X108462914Y-61645923D02*
X108415295Y-61455447D01*
X108415295Y-61455447D02*
X108415295Y-61312590D01*
X108415295Y-61312590D02*
X108462914Y-61122114D01*
X108462914Y-61122114D02*
X108510533Y-61026876D01*
X108510533Y-61026876D02*
X108605771Y-60931638D01*
X108605771Y-60931638D02*
X108748628Y-60884019D01*
X108748628Y-60884019D02*
X108843866Y-60884019D01*
X108843866Y-60884019D02*
X108986723Y-60931638D01*
X108986723Y-60931638D02*
X109034342Y-60979257D01*
X109986723Y-61884019D02*
X109415295Y-61884019D01*
X109701009Y-61884019D02*
X109701009Y-60884019D01*
X109701009Y-60884019D02*
X109605771Y-61026876D01*
X109605771Y-61026876D02*
X109510533Y-61122114D01*
X109510533Y-61122114D02*
X109415295Y-61169733D01*
X110367676Y-60979257D02*
X110415295Y-60931638D01*
X110415295Y-60931638D02*
X110510533Y-60884019D01*
X110510533Y-60884019D02*
X110748628Y-60884019D01*
X110748628Y-60884019D02*
X110843866Y-60931638D01*
X110843866Y-60931638D02*
X110891485Y-60979257D01*
X110891485Y-60979257D02*
X110939104Y-61074495D01*
X110939104Y-61074495D02*
X110939104Y-61169733D01*
X110939104Y-61169733D02*
X110891485Y-61312590D01*
X110891485Y-61312590D02*
X110320057Y-61884019D01*
X110320057Y-61884019D02*
X110939104Y-61884019D01*
X82206942Y-115904819D02*
X81873609Y-115428628D01*
X81635514Y-115904819D02*
X81635514Y-114904819D01*
X81635514Y-114904819D02*
X82016466Y-114904819D01*
X82016466Y-114904819D02*
X82111704Y-114952438D01*
X82111704Y-114952438D02*
X82159323Y-115000057D01*
X82159323Y-115000057D02*
X82206942Y-115095295D01*
X82206942Y-115095295D02*
X82206942Y-115238152D01*
X82206942Y-115238152D02*
X82159323Y-115333390D01*
X82159323Y-115333390D02*
X82111704Y-115381009D01*
X82111704Y-115381009D02*
X82016466Y-115428628D01*
X82016466Y-115428628D02*
X81635514Y-115428628D01*
X83159323Y-115904819D02*
X82587895Y-115904819D01*
X82873609Y-115904819D02*
X82873609Y-114904819D01*
X82873609Y-114904819D02*
X82778371Y-115047676D01*
X82778371Y-115047676D02*
X82683133Y-115142914D01*
X82683133Y-115142914D02*
X82587895Y-115190533D01*
X84064085Y-114904819D02*
X83587895Y-114904819D01*
X83587895Y-114904819D02*
X83540276Y-115381009D01*
X83540276Y-115381009D02*
X83587895Y-115333390D01*
X83587895Y-115333390D02*
X83683133Y-115285771D01*
X83683133Y-115285771D02*
X83921228Y-115285771D01*
X83921228Y-115285771D02*
X84016466Y-115333390D01*
X84016466Y-115333390D02*
X84064085Y-115381009D01*
X84064085Y-115381009D02*
X84111704Y-115476247D01*
X84111704Y-115476247D02*
X84111704Y-115714342D01*
X84111704Y-115714342D02*
X84064085Y-115809580D01*
X84064085Y-115809580D02*
X84016466Y-115857200D01*
X84016466Y-115857200D02*
X83921228Y-115904819D01*
X83921228Y-115904819D02*
X83683133Y-115904819D01*
X83683133Y-115904819D02*
X83587895Y-115857200D01*
X83587895Y-115857200D02*
X83540276Y-115809580D01*
X78464580Y-148863857D02*
X78512200Y-148911476D01*
X78512200Y-148911476D02*
X78559819Y-149054333D01*
X78559819Y-149054333D02*
X78559819Y-149149571D01*
X78559819Y-149149571D02*
X78512200Y-149292428D01*
X78512200Y-149292428D02*
X78416961Y-149387666D01*
X78416961Y-149387666D02*
X78321723Y-149435285D01*
X78321723Y-149435285D02*
X78131247Y-149482904D01*
X78131247Y-149482904D02*
X77988390Y-149482904D01*
X77988390Y-149482904D02*
X77797914Y-149435285D01*
X77797914Y-149435285D02*
X77702676Y-149387666D01*
X77702676Y-149387666D02*
X77607438Y-149292428D01*
X77607438Y-149292428D02*
X77559819Y-149149571D01*
X77559819Y-149149571D02*
X77559819Y-149054333D01*
X77559819Y-149054333D02*
X77607438Y-148911476D01*
X77607438Y-148911476D02*
X77655057Y-148863857D01*
X78559819Y-147911476D02*
X78559819Y-148482904D01*
X78559819Y-148197190D02*
X77559819Y-148197190D01*
X77559819Y-148197190D02*
X77702676Y-148292428D01*
X77702676Y-148292428D02*
X77797914Y-148387666D01*
X77797914Y-148387666D02*
X77845533Y-148482904D01*
X78559819Y-146959095D02*
X78559819Y-147530523D01*
X78559819Y-147244809D02*
X77559819Y-147244809D01*
X77559819Y-147244809D02*
X77702676Y-147340047D01*
X77702676Y-147340047D02*
X77797914Y-147435285D01*
X77797914Y-147435285D02*
X77845533Y-147530523D01*
X85220276Y-142138619D02*
X85220276Y-142852904D01*
X85220276Y-142852904D02*
X85172657Y-142995761D01*
X85172657Y-142995761D02*
X85077419Y-143091000D01*
X85077419Y-143091000D02*
X84934562Y-143138619D01*
X84934562Y-143138619D02*
X84839324Y-143138619D01*
X86220276Y-143138619D02*
X85648848Y-143138619D01*
X85934562Y-143138619D02*
X85934562Y-142138619D01*
X85934562Y-142138619D02*
X85839324Y-142281476D01*
X85839324Y-142281476D02*
X85744086Y-142376714D01*
X85744086Y-142376714D02*
X85648848Y-142424333D01*
X86839324Y-142138619D02*
X86934562Y-142138619D01*
X86934562Y-142138619D02*
X87029800Y-142186238D01*
X87029800Y-142186238D02*
X87077419Y-142233857D01*
X87077419Y-142233857D02*
X87125038Y-142329095D01*
X87125038Y-142329095D02*
X87172657Y-142519571D01*
X87172657Y-142519571D02*
X87172657Y-142757666D01*
X87172657Y-142757666D02*
X87125038Y-142948142D01*
X87125038Y-142948142D02*
X87077419Y-143043380D01*
X87077419Y-143043380D02*
X87029800Y-143091000D01*
X87029800Y-143091000D02*
X86934562Y-143138619D01*
X86934562Y-143138619D02*
X86839324Y-143138619D01*
X86839324Y-143138619D02*
X86744086Y-143091000D01*
X86744086Y-143091000D02*
X86696467Y-143043380D01*
X86696467Y-143043380D02*
X86648848Y-142948142D01*
X86648848Y-142948142D02*
X86601229Y-142757666D01*
X86601229Y-142757666D02*
X86601229Y-142519571D01*
X86601229Y-142519571D02*
X86648848Y-142329095D01*
X86648848Y-142329095D02*
X86696467Y-142233857D01*
X86696467Y-142233857D02*
X86744086Y-142186238D01*
X86744086Y-142186238D02*
X86839324Y-142138619D01*
X153089780Y-105633057D02*
X153137400Y-105680676D01*
X153137400Y-105680676D02*
X153185019Y-105823533D01*
X153185019Y-105823533D02*
X153185019Y-105918771D01*
X153185019Y-105918771D02*
X153137400Y-106061628D01*
X153137400Y-106061628D02*
X153042161Y-106156866D01*
X153042161Y-106156866D02*
X152946923Y-106204485D01*
X152946923Y-106204485D02*
X152756447Y-106252104D01*
X152756447Y-106252104D02*
X152613590Y-106252104D01*
X152613590Y-106252104D02*
X152423114Y-106204485D01*
X152423114Y-106204485D02*
X152327876Y-106156866D01*
X152327876Y-106156866D02*
X152232638Y-106061628D01*
X152232638Y-106061628D02*
X152185019Y-105918771D01*
X152185019Y-105918771D02*
X152185019Y-105823533D01*
X152185019Y-105823533D02*
X152232638Y-105680676D01*
X152232638Y-105680676D02*
X152280257Y-105633057D01*
X152280257Y-105252104D02*
X152232638Y-105204485D01*
X152232638Y-105204485D02*
X152185019Y-105109247D01*
X152185019Y-105109247D02*
X152185019Y-104871152D01*
X152185019Y-104871152D02*
X152232638Y-104775914D01*
X152232638Y-104775914D02*
X152280257Y-104728295D01*
X152280257Y-104728295D02*
X152375495Y-104680676D01*
X152375495Y-104680676D02*
X152470733Y-104680676D01*
X152470733Y-104680676D02*
X152613590Y-104728295D01*
X152613590Y-104728295D02*
X153185019Y-105299723D01*
X153185019Y-105299723D02*
X153185019Y-104680676D01*
X153185019Y-103728295D02*
X153185019Y-104299723D01*
X153185019Y-104014009D02*
X152185019Y-104014009D01*
X152185019Y-104014009D02*
X152327876Y-104109247D01*
X152327876Y-104109247D02*
X152423114Y-104204485D01*
X152423114Y-104204485D02*
X152470733Y-104299723D01*
X139729380Y-131642657D02*
X139777000Y-131690276D01*
X139777000Y-131690276D02*
X139824619Y-131833133D01*
X139824619Y-131833133D02*
X139824619Y-131928371D01*
X139824619Y-131928371D02*
X139777000Y-132071228D01*
X139777000Y-132071228D02*
X139681761Y-132166466D01*
X139681761Y-132166466D02*
X139586523Y-132214085D01*
X139586523Y-132214085D02*
X139396047Y-132261704D01*
X139396047Y-132261704D02*
X139253190Y-132261704D01*
X139253190Y-132261704D02*
X139062714Y-132214085D01*
X139062714Y-132214085D02*
X138967476Y-132166466D01*
X138967476Y-132166466D02*
X138872238Y-132071228D01*
X138872238Y-132071228D02*
X138824619Y-131928371D01*
X138824619Y-131928371D02*
X138824619Y-131833133D01*
X138824619Y-131833133D02*
X138872238Y-131690276D01*
X138872238Y-131690276D02*
X138919857Y-131642657D01*
X138919857Y-131261704D02*
X138872238Y-131214085D01*
X138872238Y-131214085D02*
X138824619Y-131118847D01*
X138824619Y-131118847D02*
X138824619Y-130880752D01*
X138824619Y-130880752D02*
X138872238Y-130785514D01*
X138872238Y-130785514D02*
X138919857Y-130737895D01*
X138919857Y-130737895D02*
X139015095Y-130690276D01*
X139015095Y-130690276D02*
X139110333Y-130690276D01*
X139110333Y-130690276D02*
X139253190Y-130737895D01*
X139253190Y-130737895D02*
X139824619Y-131309323D01*
X139824619Y-131309323D02*
X139824619Y-130690276D01*
X138824619Y-130356942D02*
X138824619Y-129737895D01*
X138824619Y-129737895D02*
X139205571Y-130071228D01*
X139205571Y-130071228D02*
X139205571Y-129928371D01*
X139205571Y-129928371D02*
X139253190Y-129833133D01*
X139253190Y-129833133D02*
X139300809Y-129785514D01*
X139300809Y-129785514D02*
X139396047Y-129737895D01*
X139396047Y-129737895D02*
X139634142Y-129737895D01*
X139634142Y-129737895D02*
X139729380Y-129785514D01*
X139729380Y-129785514D02*
X139777000Y-129833133D01*
X139777000Y-129833133D02*
X139824619Y-129928371D01*
X139824619Y-129928371D02*
X139824619Y-130214085D01*
X139824619Y-130214085D02*
X139777000Y-130309323D01*
X139777000Y-130309323D02*
X139729380Y-130356942D01*
D11*
X70747466Y-173423642D02*
X70928895Y-173484118D01*
X70928895Y-173484118D02*
X71231276Y-173484118D01*
X71231276Y-173484118D02*
X71352228Y-173423642D01*
X71352228Y-173423642D02*
X71412704Y-173363165D01*
X71412704Y-173363165D02*
X71473181Y-173242213D01*
X71473181Y-173242213D02*
X71473181Y-173121261D01*
X71473181Y-173121261D02*
X71412704Y-173000308D01*
X71412704Y-173000308D02*
X71352228Y-172939832D01*
X71352228Y-172939832D02*
X71231276Y-172879356D01*
X71231276Y-172879356D02*
X70989371Y-172818880D01*
X70989371Y-172818880D02*
X70868419Y-172758403D01*
X70868419Y-172758403D02*
X70807942Y-172697927D01*
X70807942Y-172697927D02*
X70747466Y-172576975D01*
X70747466Y-172576975D02*
X70747466Y-172456022D01*
X70747466Y-172456022D02*
X70807942Y-172335070D01*
X70807942Y-172335070D02*
X70868419Y-172274594D01*
X70868419Y-172274594D02*
X70989371Y-172214118D01*
X70989371Y-172214118D02*
X71291752Y-172214118D01*
X71291752Y-172214118D02*
X71473181Y-172274594D01*
X71896514Y-172214118D02*
X72198895Y-173484118D01*
X72198895Y-173484118D02*
X72440800Y-172576975D01*
X72440800Y-172576975D02*
X72682705Y-173484118D01*
X72682705Y-173484118D02*
X72985086Y-172214118D01*
X73408419Y-172335070D02*
X73468895Y-172274594D01*
X73468895Y-172274594D02*
X73589848Y-172214118D01*
X73589848Y-172214118D02*
X73892229Y-172214118D01*
X73892229Y-172214118D02*
X74013181Y-172274594D01*
X74013181Y-172274594D02*
X74073657Y-172335070D01*
X74073657Y-172335070D02*
X74134134Y-172456022D01*
X74134134Y-172456022D02*
X74134134Y-172576975D01*
X74134134Y-172576975D02*
X74073657Y-172758403D01*
X74073657Y-172758403D02*
X73347943Y-173484118D01*
X73347943Y-173484118D02*
X74134134Y-173484118D01*
D10*
X80487619Y-55688704D02*
X81297142Y-55688704D01*
X81297142Y-55688704D02*
X81392380Y-55641085D01*
X81392380Y-55641085D02*
X81440000Y-55593466D01*
X81440000Y-55593466D02*
X81487619Y-55498228D01*
X81487619Y-55498228D02*
X81487619Y-55307752D01*
X81487619Y-55307752D02*
X81440000Y-55212514D01*
X81440000Y-55212514D02*
X81392380Y-55164895D01*
X81392380Y-55164895D02*
X81297142Y-55117276D01*
X81297142Y-55117276D02*
X80487619Y-55117276D01*
X80916190Y-54498228D02*
X80868571Y-54593466D01*
X80868571Y-54593466D02*
X80820952Y-54641085D01*
X80820952Y-54641085D02*
X80725714Y-54688704D01*
X80725714Y-54688704D02*
X80678095Y-54688704D01*
X80678095Y-54688704D02*
X80582857Y-54641085D01*
X80582857Y-54641085D02*
X80535238Y-54593466D01*
X80535238Y-54593466D02*
X80487619Y-54498228D01*
X80487619Y-54498228D02*
X80487619Y-54307752D01*
X80487619Y-54307752D02*
X80535238Y-54212514D01*
X80535238Y-54212514D02*
X80582857Y-54164895D01*
X80582857Y-54164895D02*
X80678095Y-54117276D01*
X80678095Y-54117276D02*
X80725714Y-54117276D01*
X80725714Y-54117276D02*
X80820952Y-54164895D01*
X80820952Y-54164895D02*
X80868571Y-54212514D01*
X80868571Y-54212514D02*
X80916190Y-54307752D01*
X80916190Y-54307752D02*
X80916190Y-54498228D01*
X80916190Y-54498228D02*
X80963809Y-54593466D01*
X80963809Y-54593466D02*
X81011428Y-54641085D01*
X81011428Y-54641085D02*
X81106666Y-54688704D01*
X81106666Y-54688704D02*
X81297142Y-54688704D01*
X81297142Y-54688704D02*
X81392380Y-54641085D01*
X81392380Y-54641085D02*
X81440000Y-54593466D01*
X81440000Y-54593466D02*
X81487619Y-54498228D01*
X81487619Y-54498228D02*
X81487619Y-54307752D01*
X81487619Y-54307752D02*
X81440000Y-54212514D01*
X81440000Y-54212514D02*
X81392380Y-54164895D01*
X81392380Y-54164895D02*
X81297142Y-54117276D01*
X81297142Y-54117276D02*
X81106666Y-54117276D01*
X81106666Y-54117276D02*
X81011428Y-54164895D01*
X81011428Y-54164895D02*
X80963809Y-54212514D01*
X80963809Y-54212514D02*
X80916190Y-54307752D01*
X89038133Y-123699380D02*
X88990514Y-123747000D01*
X88990514Y-123747000D02*
X88847657Y-123794619D01*
X88847657Y-123794619D02*
X88752419Y-123794619D01*
X88752419Y-123794619D02*
X88609562Y-123747000D01*
X88609562Y-123747000D02*
X88514324Y-123651761D01*
X88514324Y-123651761D02*
X88466705Y-123556523D01*
X88466705Y-123556523D02*
X88419086Y-123366047D01*
X88419086Y-123366047D02*
X88419086Y-123223190D01*
X88419086Y-123223190D02*
X88466705Y-123032714D01*
X88466705Y-123032714D02*
X88514324Y-122937476D01*
X88514324Y-122937476D02*
X88609562Y-122842238D01*
X88609562Y-122842238D02*
X88752419Y-122794619D01*
X88752419Y-122794619D02*
X88847657Y-122794619D01*
X88847657Y-122794619D02*
X88990514Y-122842238D01*
X88990514Y-122842238D02*
X89038133Y-122889857D01*
X89990514Y-123794619D02*
X89419086Y-123794619D01*
X89704800Y-123794619D02*
X89704800Y-122794619D01*
X89704800Y-122794619D02*
X89609562Y-122937476D01*
X89609562Y-122937476D02*
X89514324Y-123032714D01*
X89514324Y-123032714D02*
X89419086Y-123080333D01*
X135464561Y-60556857D02*
X135369323Y-60509238D01*
X135369323Y-60509238D02*
X135274085Y-60414000D01*
X135274085Y-60414000D02*
X135131228Y-60271142D01*
X135131228Y-60271142D02*
X135035990Y-60223523D01*
X135035990Y-60223523D02*
X134940752Y-60223523D01*
X134988371Y-60461619D02*
X134893133Y-60414000D01*
X134893133Y-60414000D02*
X134797895Y-60318761D01*
X134797895Y-60318761D02*
X134750276Y-60128285D01*
X134750276Y-60128285D02*
X134750276Y-59794952D01*
X134750276Y-59794952D02*
X134797895Y-59604476D01*
X134797895Y-59604476D02*
X134893133Y-59509238D01*
X134893133Y-59509238D02*
X134988371Y-59461619D01*
X134988371Y-59461619D02*
X135178847Y-59461619D01*
X135178847Y-59461619D02*
X135274085Y-59509238D01*
X135274085Y-59509238D02*
X135369323Y-59604476D01*
X135369323Y-59604476D02*
X135416942Y-59794952D01*
X135416942Y-59794952D02*
X135416942Y-60128285D01*
X135416942Y-60128285D02*
X135369323Y-60318761D01*
X135369323Y-60318761D02*
X135274085Y-60414000D01*
X135274085Y-60414000D02*
X135178847Y-60461619D01*
X135178847Y-60461619D02*
X134988371Y-60461619D01*
X136369323Y-60461619D02*
X135797895Y-60461619D01*
X136083609Y-60461619D02*
X136083609Y-59461619D01*
X136083609Y-59461619D02*
X135988371Y-59604476D01*
X135988371Y-59604476D02*
X135893133Y-59699714D01*
X135893133Y-59699714D02*
X135797895Y-59747333D01*
X134535942Y-63179419D02*
X134202609Y-62703228D01*
X133964514Y-63179419D02*
X133964514Y-62179419D01*
X133964514Y-62179419D02*
X134345466Y-62179419D01*
X134345466Y-62179419D02*
X134440704Y-62227038D01*
X134440704Y-62227038D02*
X134488323Y-62274657D01*
X134488323Y-62274657D02*
X134535942Y-62369895D01*
X134535942Y-62369895D02*
X134535942Y-62512752D01*
X134535942Y-62512752D02*
X134488323Y-62607990D01*
X134488323Y-62607990D02*
X134440704Y-62655609D01*
X134440704Y-62655609D02*
X134345466Y-62703228D01*
X134345466Y-62703228D02*
X133964514Y-62703228D01*
X135488323Y-63179419D02*
X134916895Y-63179419D01*
X135202609Y-63179419D02*
X135202609Y-62179419D01*
X135202609Y-62179419D02*
X135107371Y-62322276D01*
X135107371Y-62322276D02*
X135012133Y-62417514D01*
X135012133Y-62417514D02*
X134916895Y-62465133D01*
X136440704Y-63179419D02*
X135869276Y-63179419D01*
X136154990Y-63179419D02*
X136154990Y-62179419D01*
X136154990Y-62179419D02*
X136059752Y-62322276D01*
X136059752Y-62322276D02*
X135964514Y-62417514D01*
X135964514Y-62417514D02*
X135869276Y-62465133D01*
X140473133Y-154187619D02*
X140139800Y-153711428D01*
X139901705Y-154187619D02*
X139901705Y-153187619D01*
X139901705Y-153187619D02*
X140282657Y-153187619D01*
X140282657Y-153187619D02*
X140377895Y-153235238D01*
X140377895Y-153235238D02*
X140425514Y-153282857D01*
X140425514Y-153282857D02*
X140473133Y-153378095D01*
X140473133Y-153378095D02*
X140473133Y-153520952D01*
X140473133Y-153520952D02*
X140425514Y-153616190D01*
X140425514Y-153616190D02*
X140377895Y-153663809D01*
X140377895Y-153663809D02*
X140282657Y-153711428D01*
X140282657Y-153711428D02*
X139901705Y-153711428D01*
X141330276Y-153520952D02*
X141330276Y-154187619D01*
X141092181Y-153140000D02*
X140854086Y-153854285D01*
X140854086Y-153854285D02*
X141473133Y-153854285D01*
X101317466Y-86385619D02*
X101317466Y-87099904D01*
X101317466Y-87099904D02*
X101269847Y-87242761D01*
X101269847Y-87242761D02*
X101174609Y-87338000D01*
X101174609Y-87338000D02*
X101031752Y-87385619D01*
X101031752Y-87385619D02*
X100936514Y-87385619D01*
X102317466Y-87385619D02*
X101746038Y-87385619D01*
X102031752Y-87385619D02*
X102031752Y-86385619D01*
X102031752Y-86385619D02*
X101936514Y-86528476D01*
X101936514Y-86528476D02*
X101841276Y-86623714D01*
X101841276Y-86623714D02*
X101746038Y-86671333D01*
X123455133Y-166538380D02*
X123407514Y-166586000D01*
X123407514Y-166586000D02*
X123264657Y-166633619D01*
X123264657Y-166633619D02*
X123169419Y-166633619D01*
X123169419Y-166633619D02*
X123026562Y-166586000D01*
X123026562Y-166586000D02*
X122931324Y-166490761D01*
X122931324Y-166490761D02*
X122883705Y-166395523D01*
X122883705Y-166395523D02*
X122836086Y-166205047D01*
X122836086Y-166205047D02*
X122836086Y-166062190D01*
X122836086Y-166062190D02*
X122883705Y-165871714D01*
X122883705Y-165871714D02*
X122931324Y-165776476D01*
X122931324Y-165776476D02*
X123026562Y-165681238D01*
X123026562Y-165681238D02*
X123169419Y-165633619D01*
X123169419Y-165633619D02*
X123264657Y-165633619D01*
X123264657Y-165633619D02*
X123407514Y-165681238D01*
X123407514Y-165681238D02*
X123455133Y-165728857D01*
X123788467Y-165633619D02*
X124407514Y-165633619D01*
X124407514Y-165633619D02*
X124074181Y-166014571D01*
X124074181Y-166014571D02*
X124217038Y-166014571D01*
X124217038Y-166014571D02*
X124312276Y-166062190D01*
X124312276Y-166062190D02*
X124359895Y-166109809D01*
X124359895Y-166109809D02*
X124407514Y-166205047D01*
X124407514Y-166205047D02*
X124407514Y-166443142D01*
X124407514Y-166443142D02*
X124359895Y-166538380D01*
X124359895Y-166538380D02*
X124312276Y-166586000D01*
X124312276Y-166586000D02*
X124217038Y-166633619D01*
X124217038Y-166633619D02*
X123931324Y-166633619D01*
X123931324Y-166633619D02*
X123836086Y-166586000D01*
X123836086Y-166586000D02*
X123788467Y-166538380D01*
X133236619Y-125284704D02*
X134046142Y-125284704D01*
X134046142Y-125284704D02*
X134141380Y-125237085D01*
X134141380Y-125237085D02*
X134189000Y-125189466D01*
X134189000Y-125189466D02*
X134236619Y-125094228D01*
X134236619Y-125094228D02*
X134236619Y-124903752D01*
X134236619Y-124903752D02*
X134189000Y-124808514D01*
X134189000Y-124808514D02*
X134141380Y-124760895D01*
X134141380Y-124760895D02*
X134046142Y-124713276D01*
X134046142Y-124713276D02*
X133236619Y-124713276D01*
X133331857Y-124284704D02*
X133284238Y-124237085D01*
X133284238Y-124237085D02*
X133236619Y-124141847D01*
X133236619Y-124141847D02*
X133236619Y-123903752D01*
X133236619Y-123903752D02*
X133284238Y-123808514D01*
X133284238Y-123808514D02*
X133331857Y-123760895D01*
X133331857Y-123760895D02*
X133427095Y-123713276D01*
X133427095Y-123713276D02*
X133522333Y-123713276D01*
X133522333Y-123713276D02*
X133665190Y-123760895D01*
X133665190Y-123760895D02*
X134236619Y-124332323D01*
X134236619Y-124332323D02*
X134236619Y-123713276D01*
X121912142Y-83404180D02*
X121864523Y-83451800D01*
X121864523Y-83451800D02*
X121721666Y-83499419D01*
X121721666Y-83499419D02*
X121626428Y-83499419D01*
X121626428Y-83499419D02*
X121483571Y-83451800D01*
X121483571Y-83451800D02*
X121388333Y-83356561D01*
X121388333Y-83356561D02*
X121340714Y-83261323D01*
X121340714Y-83261323D02*
X121293095Y-83070847D01*
X121293095Y-83070847D02*
X121293095Y-82927990D01*
X121293095Y-82927990D02*
X121340714Y-82737514D01*
X121340714Y-82737514D02*
X121388333Y-82642276D01*
X121388333Y-82642276D02*
X121483571Y-82547038D01*
X121483571Y-82547038D02*
X121626428Y-82499419D01*
X121626428Y-82499419D02*
X121721666Y-82499419D01*
X121721666Y-82499419D02*
X121864523Y-82547038D01*
X121864523Y-82547038D02*
X121912142Y-82594657D01*
X122864523Y-83499419D02*
X122293095Y-83499419D01*
X122578809Y-83499419D02*
X122578809Y-82499419D01*
X122578809Y-82499419D02*
X122483571Y-82642276D01*
X122483571Y-82642276D02*
X122388333Y-82737514D01*
X122388333Y-82737514D02*
X122293095Y-82785133D01*
X123197857Y-82499419D02*
X123816904Y-82499419D01*
X123816904Y-82499419D02*
X123483571Y-82880371D01*
X123483571Y-82880371D02*
X123626428Y-82880371D01*
X123626428Y-82880371D02*
X123721666Y-82927990D01*
X123721666Y-82927990D02*
X123769285Y-82975609D01*
X123769285Y-82975609D02*
X123816904Y-83070847D01*
X123816904Y-83070847D02*
X123816904Y-83308942D01*
X123816904Y-83308942D02*
X123769285Y-83404180D01*
X123769285Y-83404180D02*
X123721666Y-83451800D01*
X123721666Y-83451800D02*
X123626428Y-83499419D01*
X123626428Y-83499419D02*
X123340714Y-83499419D01*
X123340714Y-83499419D02*
X123245476Y-83451800D01*
X123245476Y-83451800D02*
X123197857Y-83404180D01*
X142413882Y-163922180D02*
X142366263Y-163969800D01*
X142366263Y-163969800D02*
X142223406Y-164017419D01*
X142223406Y-164017419D02*
X142128168Y-164017419D01*
X142128168Y-164017419D02*
X141985311Y-163969800D01*
X141985311Y-163969800D02*
X141890073Y-163874561D01*
X141890073Y-163874561D02*
X141842454Y-163779323D01*
X141842454Y-163779323D02*
X141794835Y-163588847D01*
X141794835Y-163588847D02*
X141794835Y-163445990D01*
X141794835Y-163445990D02*
X141842454Y-163255514D01*
X141842454Y-163255514D02*
X141890073Y-163160276D01*
X141890073Y-163160276D02*
X141985311Y-163065038D01*
X141985311Y-163065038D02*
X142128168Y-163017419D01*
X142128168Y-163017419D02*
X142223406Y-163017419D01*
X142223406Y-163017419D02*
X142366263Y-163065038D01*
X142366263Y-163065038D02*
X142413882Y-163112657D01*
X142794835Y-163112657D02*
X142842454Y-163065038D01*
X142842454Y-163065038D02*
X142937692Y-163017419D01*
X142937692Y-163017419D02*
X143175787Y-163017419D01*
X143175787Y-163017419D02*
X143271025Y-163065038D01*
X143271025Y-163065038D02*
X143318644Y-163112657D01*
X143318644Y-163112657D02*
X143366263Y-163207895D01*
X143366263Y-163207895D02*
X143366263Y-163303133D01*
X143366263Y-163303133D02*
X143318644Y-163445990D01*
X143318644Y-163445990D02*
X142747216Y-164017419D01*
X142747216Y-164017419D02*
X143366263Y-164017419D01*
D12*
%TO.C,Y1*%
X138669000Y-73039000D02*
X138669000Y-79439000D01*
X133619000Y-73039000D02*
X133619000Y-79439000D01*
X138669000Y-73039000D02*
G75*
G03*
X133619000Y-73039000I-2525000J0D01*
G01*
X133619000Y-79439000D02*
G75*
G03*
X138669000Y-79439000I2525000J0D01*
G01*
%TO.C,R6*%
X135967800Y-151287800D02*
X135967800Y-144747800D01*
X136297800Y-151287800D02*
X135967800Y-151287800D01*
X138377800Y-151287800D02*
X138707800Y-151287800D01*
X138707800Y-151287800D02*
X138707800Y-144747800D01*
X135967800Y-144747800D02*
X136297800Y-144747800D01*
X138707800Y-144747800D02*
X138377800Y-144747800D01*
%TO.C,C4*%
X139037800Y-171224688D02*
X139037800Y-170724688D01*
X138787800Y-170974688D02*
X139287800Y-170974688D01*
X137932800Y-168419913D02*
X143092800Y-168419913D01*
X137932800Y-168379913D02*
X143092800Y-168379913D01*
X137933800Y-168339913D02*
X143091800Y-168339913D01*
X137934800Y-168299913D02*
X143090800Y-168299913D01*
X137936800Y-168259913D02*
X143088800Y-168259913D01*
X137939800Y-168219913D02*
X143085800Y-168219913D01*
X137943800Y-168179913D02*
X139472800Y-168179913D01*
X141552800Y-168179913D02*
X143081800Y-168179913D01*
X137947800Y-168139913D02*
X139472800Y-168139913D01*
X141552800Y-168139913D02*
X143077800Y-168139913D01*
X137951800Y-168099913D02*
X139472800Y-168099913D01*
X141552800Y-168099913D02*
X143073800Y-168099913D01*
X137956800Y-168059913D02*
X139472800Y-168059913D01*
X141552800Y-168059913D02*
X143068800Y-168059913D01*
X137962800Y-168019913D02*
X139472800Y-168019913D01*
X141552800Y-168019913D02*
X143062800Y-168019913D01*
X137969800Y-167979913D02*
X139472800Y-167979913D01*
X141552800Y-167979913D02*
X143055800Y-167979913D01*
X137976800Y-167939913D02*
X139472800Y-167939913D01*
X141552800Y-167939913D02*
X143048800Y-167939913D01*
X137984800Y-167899913D02*
X139472800Y-167899913D01*
X141552800Y-167899913D02*
X143040800Y-167899913D01*
X137992800Y-167859913D02*
X139472800Y-167859913D01*
X141552800Y-167859913D02*
X143032800Y-167859913D01*
X138001800Y-167819913D02*
X139472800Y-167819913D01*
X141552800Y-167819913D02*
X143023800Y-167819913D01*
X138011800Y-167779913D02*
X139472800Y-167779913D01*
X141552800Y-167779913D02*
X143013800Y-167779913D01*
X138021800Y-167739913D02*
X139472800Y-167739913D01*
X141552800Y-167739913D02*
X143003800Y-167739913D01*
X138032800Y-167698913D02*
X139472800Y-167698913D01*
X141552800Y-167698913D02*
X142992800Y-167698913D01*
X138044800Y-167658913D02*
X139472800Y-167658913D01*
X141552800Y-167658913D02*
X142980800Y-167658913D01*
X138057800Y-167618913D02*
X139472800Y-167618913D01*
X141552800Y-167618913D02*
X142967800Y-167618913D01*
X138070800Y-167578913D02*
X139472800Y-167578913D01*
X141552800Y-167578913D02*
X142954800Y-167578913D01*
X138084800Y-167538913D02*
X139472800Y-167538913D01*
X141552800Y-167538913D02*
X142940800Y-167538913D01*
X138098800Y-167498913D02*
X139472800Y-167498913D01*
X141552800Y-167498913D02*
X142926800Y-167498913D01*
X138114800Y-167458913D02*
X139472800Y-167458913D01*
X141552800Y-167458913D02*
X142910800Y-167458913D01*
X138130800Y-167418913D02*
X139472800Y-167418913D01*
X141552800Y-167418913D02*
X142894800Y-167418913D01*
X138147800Y-167378913D02*
X139472800Y-167378913D01*
X141552800Y-167378913D02*
X142877800Y-167378913D01*
X138164800Y-167338913D02*
X139472800Y-167338913D01*
X141552800Y-167338913D02*
X142860800Y-167338913D01*
X138183800Y-167298913D02*
X139472800Y-167298913D01*
X141552800Y-167298913D02*
X142841800Y-167298913D01*
X138202800Y-167258913D02*
X139472800Y-167258913D01*
X141552800Y-167258913D02*
X142822800Y-167258913D01*
X138222800Y-167218913D02*
X139472800Y-167218913D01*
X141552800Y-167218913D02*
X142802800Y-167218913D01*
X138244800Y-167178913D02*
X139472800Y-167178913D01*
X141552800Y-167178913D02*
X142780800Y-167178913D01*
X138265800Y-167138913D02*
X139472800Y-167138913D01*
X141552800Y-167138913D02*
X142759800Y-167138913D01*
X138288800Y-167098913D02*
X139472800Y-167098913D01*
X141552800Y-167098913D02*
X142736800Y-167098913D01*
X138312800Y-167058913D02*
X139472800Y-167058913D01*
X141552800Y-167058913D02*
X142712800Y-167058913D01*
X138337800Y-167018913D02*
X139472800Y-167018913D01*
X141552800Y-167018913D02*
X142687800Y-167018913D01*
X138363800Y-166978913D02*
X139472800Y-166978913D01*
X141552800Y-166978913D02*
X142661800Y-166978913D01*
X138390800Y-166938913D02*
X139472800Y-166938913D01*
X141552800Y-166938913D02*
X142634800Y-166938913D01*
X138417800Y-166898913D02*
X139472800Y-166898913D01*
X141552800Y-166898913D02*
X142607800Y-166898913D01*
X138447800Y-166858913D02*
X139472800Y-166858913D01*
X141552800Y-166858913D02*
X142577800Y-166858913D01*
X138477800Y-166818913D02*
X139472800Y-166818913D01*
X141552800Y-166818913D02*
X142547800Y-166818913D01*
X138508800Y-166778913D02*
X139472800Y-166778913D01*
X141552800Y-166778913D02*
X142516800Y-166778913D01*
X138541800Y-166738913D02*
X139472800Y-166738913D01*
X141552800Y-166738913D02*
X142483800Y-166738913D01*
X138575800Y-166698913D02*
X139472800Y-166698913D01*
X141552800Y-166698913D02*
X142449800Y-166698913D01*
X138611800Y-166658913D02*
X139472800Y-166658913D01*
X141552800Y-166658913D02*
X142413800Y-166658913D01*
X138648800Y-166618913D02*
X139472800Y-166618913D01*
X141552800Y-166618913D02*
X142376800Y-166618913D01*
X138686800Y-166578913D02*
X139472800Y-166578913D01*
X141552800Y-166578913D02*
X142338800Y-166578913D01*
X138727800Y-166538913D02*
X139472800Y-166538913D01*
X141552800Y-166538913D02*
X142297800Y-166538913D01*
X138769800Y-166498913D02*
X139472800Y-166498913D01*
X141552800Y-166498913D02*
X142255800Y-166498913D01*
X138813800Y-166458913D02*
X139472800Y-166458913D01*
X141552800Y-166458913D02*
X142211800Y-166458913D01*
X138859800Y-166418913D02*
X139472800Y-166418913D01*
X141552800Y-166418913D02*
X142165800Y-166418913D01*
X138907800Y-166378913D02*
X139472800Y-166378913D01*
X141552800Y-166378913D02*
X142117800Y-166378913D01*
X138958800Y-166338913D02*
X139472800Y-166338913D01*
X141552800Y-166338913D02*
X142066800Y-166338913D01*
X139012800Y-166298913D02*
X139472800Y-166298913D01*
X141552800Y-166298913D02*
X142012800Y-166298913D01*
X139069800Y-166258913D02*
X139472800Y-166258913D01*
X141552800Y-166258913D02*
X141955800Y-166258913D01*
X139129800Y-166218913D02*
X139472800Y-166218913D01*
X141552800Y-166218913D02*
X141895800Y-166218913D01*
X139193800Y-166178913D02*
X139472800Y-166178913D01*
X141552800Y-166178913D02*
X141831800Y-166178913D01*
X139261800Y-166138913D02*
X139472800Y-166138913D01*
X141552800Y-166138913D02*
X141763800Y-166138913D01*
X139334800Y-166098913D02*
X141690800Y-166098913D01*
X139414800Y-166058913D02*
X141610800Y-166058913D01*
X139501800Y-166018913D02*
X141523800Y-166018913D01*
X139597800Y-165978913D02*
X141427800Y-165978913D01*
X139707800Y-165938913D02*
X141317800Y-165938913D01*
X139835800Y-165898913D02*
X141189800Y-165898913D01*
X139994800Y-165858913D02*
X141030800Y-165858913D01*
X140228800Y-165818913D02*
X140796800Y-165818913D01*
X143132800Y-168419913D02*
G75*
G03*
X137892800Y-168419913I-2620000J0D01*
G01*
X137892800Y-168419913D02*
G75*
G03*
X143132800Y-168419913I2620000J0D01*
G01*
%TO.C,U6*%
X132952800Y-65611800D02*
X82032800Y-65611800D01*
X82032800Y-65611800D02*
X82032800Y-78531800D01*
X132952800Y-71071800D02*
X132952800Y-65611800D01*
X132952800Y-78531800D02*
X132952800Y-73071800D01*
X82032800Y-78531800D02*
X132952800Y-78531800D01*
X132952800Y-71071800D02*
G75*
G03*
X132952800Y-73071800I0J-1000000D01*
G01*
%TO.C,J3*%
X81426000Y-51237200D02*
X81426000Y-47237200D01*
X81136000Y-52267200D02*
X81136000Y-46247200D01*
X81136000Y-46247200D02*
X75836000Y-46247200D01*
X80556000Y-52267200D02*
X80556000Y-51667200D01*
X80556000Y-51667200D02*
X78956000Y-51667200D01*
X79756000Y-47247200D02*
X79506000Y-47777200D01*
X79756000Y-47247200D02*
X77216000Y-47247200D01*
X79756000Y-46247200D02*
X79756000Y-47247200D01*
X79506000Y-47777200D02*
X77466000Y-47777200D01*
X79506000Y-46247200D02*
X79506000Y-47247200D01*
X78956000Y-51667200D02*
X78956000Y-52267200D01*
X78016000Y-52267200D02*
X78016000Y-51667200D01*
X78016000Y-51667200D02*
X76416000Y-51667200D01*
X77466000Y-47777200D02*
X77216000Y-47247200D01*
X77466000Y-46247200D02*
X77466000Y-47247200D01*
X77216000Y-47247200D02*
X77216000Y-46247200D01*
X76416000Y-51667200D02*
X76416000Y-52267200D01*
X75836000Y-52267200D02*
X81136000Y-52267200D01*
X75836000Y-46247200D02*
X75836000Y-52267200D01*
%TO.C,J5*%
X81181800Y-57326600D02*
X81181800Y-88296600D01*
X68841800Y-57326600D02*
X81181800Y-57326600D01*
X82076138Y-67021600D02*
X82076138Y-67521600D01*
X81643125Y-67271600D02*
X82076138Y-67021600D01*
X82076138Y-67521600D02*
X81643125Y-67271600D01*
X81181800Y-88296600D02*
X68841800Y-88296600D01*
%TO.C,R19*%
X70078600Y-90968000D02*
X70078600Y-91738000D01*
X71448600Y-91738000D02*
X68708600Y-91738000D01*
X68708600Y-91738000D02*
X68708600Y-98278000D01*
X71448600Y-98278000D02*
X71448600Y-91738000D01*
X68708600Y-98278000D02*
X71448600Y-98278000D01*
X70078600Y-99048000D02*
X70078600Y-98278000D01*
%TO.C,R14*%
X85852000Y-126302200D02*
X85852000Y-125532200D01*
X84482000Y-125532200D02*
X87222000Y-125532200D01*
X87222000Y-125532200D02*
X87222000Y-118992200D01*
X84482000Y-118992200D02*
X84482000Y-125532200D01*
X87222000Y-118992200D02*
X84482000Y-118992200D01*
X85852000Y-118222200D02*
X85852000Y-118992200D01*
%TO.C,R22*%
X84100800Y-147255800D02*
X83330800Y-147255800D01*
X83330800Y-148625800D02*
X83330800Y-145885800D01*
X83330800Y-145885800D02*
X76790800Y-145885800D01*
X76790800Y-148625800D02*
X83330800Y-148625800D01*
X76790800Y-145885800D02*
X76790800Y-148625800D01*
X76020800Y-147255800D02*
X76790800Y-147255800D01*
%TO.C,RN1*%
X69730800Y-111108600D02*
X69730800Y-113908600D01*
X69730800Y-113908600D02*
X87850800Y-113908600D01*
X72440800Y-111108600D02*
X72440800Y-113908600D01*
X87850800Y-111108600D02*
X69730800Y-111108600D01*
X87850800Y-113908600D02*
X87850800Y-111108600D01*
%TO.C,R21*%
X75361800Y-141770800D02*
X75361800Y-141000800D01*
X73991800Y-141000800D02*
X76731800Y-141000800D01*
X76731800Y-141000800D02*
X76731800Y-134460800D01*
X73991800Y-134460800D02*
X73991800Y-141000800D01*
X76731800Y-134460800D02*
X73991800Y-134460800D01*
X75361800Y-133690800D02*
X75361800Y-134460800D01*
%TO.C,U1*%
X135405800Y-177785800D02*
X135405800Y-167505800D01*
X135405800Y-167505800D02*
X130105800Y-167505800D01*
X133755800Y-177785800D02*
X135405800Y-177785800D01*
X130105800Y-177785800D02*
X131755800Y-177785800D01*
X130105800Y-167505800D02*
X130105800Y-177785800D01*
X133755800Y-177785800D02*
G75*
G03*
X131755800Y-177785800I-1000000J0D01*
G01*
%TO.C,U4*%
X88469000Y-184886600D02*
X124149000Y-184886600D01*
X124149000Y-184886600D02*
X124149000Y-171966600D01*
X88469000Y-179426600D02*
X88469000Y-184886600D01*
X88469000Y-171966600D02*
X88469000Y-177426600D01*
X124149000Y-171966600D02*
X88469000Y-171966600D01*
X88469000Y-179426600D02*
G75*
G03*
X88469000Y-177426600I0J1000000D01*
G01*
%TO.C,U7*%
X109744200Y-57576800D02*
X132724200Y-57576800D01*
X132724200Y-57576800D02*
X132724200Y-52276800D01*
X109744200Y-55926800D02*
X109744200Y-57576800D01*
X109744200Y-52276800D02*
X109744200Y-53926800D01*
X132724200Y-52276800D02*
X109744200Y-52276800D01*
X109744200Y-55926800D02*
G75*
G03*
X109744200Y-53926800I0J1000000D01*
G01*
%TO.C,C5*%
X129370913Y-162417800D02*
X129870913Y-162417800D01*
X129620913Y-162167800D02*
X129620913Y-162667800D01*
X132175688Y-161312800D02*
X132175688Y-166472800D01*
X132215688Y-161312800D02*
X132215688Y-166472800D01*
X132255688Y-161313800D02*
X132255688Y-166471800D01*
X132295688Y-161314800D02*
X132295688Y-166470800D01*
X132335688Y-161316800D02*
X132335688Y-166468800D01*
X132375688Y-161319800D02*
X132375688Y-166465800D01*
X132415688Y-161323800D02*
X132415688Y-162852800D01*
X132415688Y-164932800D02*
X132415688Y-166461800D01*
X132455688Y-161327800D02*
X132455688Y-162852800D01*
X132455688Y-164932800D02*
X132455688Y-166457800D01*
X132495688Y-161331800D02*
X132495688Y-162852800D01*
X132495688Y-164932800D02*
X132495688Y-166453800D01*
X132535688Y-161336800D02*
X132535688Y-162852800D01*
X132535688Y-164932800D02*
X132535688Y-166448800D01*
X132575688Y-161342800D02*
X132575688Y-162852800D01*
X132575688Y-164932800D02*
X132575688Y-166442800D01*
X132615688Y-161349800D02*
X132615688Y-162852800D01*
X132615688Y-164932800D02*
X132615688Y-166435800D01*
X132655688Y-161356800D02*
X132655688Y-162852800D01*
X132655688Y-164932800D02*
X132655688Y-166428800D01*
X132695688Y-161364800D02*
X132695688Y-162852800D01*
X132695688Y-164932800D02*
X132695688Y-166420800D01*
X132735688Y-161372800D02*
X132735688Y-162852800D01*
X132735688Y-164932800D02*
X132735688Y-166412800D01*
X132775688Y-161381800D02*
X132775688Y-162852800D01*
X132775688Y-164932800D02*
X132775688Y-166403800D01*
X132815688Y-161391800D02*
X132815688Y-162852800D01*
X132815688Y-164932800D02*
X132815688Y-166393800D01*
X132855688Y-161401800D02*
X132855688Y-162852800D01*
X132855688Y-164932800D02*
X132855688Y-166383800D01*
X132896688Y-161412800D02*
X132896688Y-162852800D01*
X132896688Y-164932800D02*
X132896688Y-166372800D01*
X132936688Y-161424800D02*
X132936688Y-162852800D01*
X132936688Y-164932800D02*
X132936688Y-166360800D01*
X132976688Y-161437800D02*
X132976688Y-162852800D01*
X132976688Y-164932800D02*
X132976688Y-166347800D01*
X133016688Y-161450800D02*
X133016688Y-162852800D01*
X133016688Y-164932800D02*
X133016688Y-166334800D01*
X133056688Y-161464800D02*
X133056688Y-162852800D01*
X133056688Y-164932800D02*
X133056688Y-166320800D01*
X133096688Y-161478800D02*
X133096688Y-162852800D01*
X133096688Y-164932800D02*
X133096688Y-166306800D01*
X133136688Y-161494800D02*
X133136688Y-162852800D01*
X133136688Y-164932800D02*
X133136688Y-166290800D01*
X133176688Y-161510800D02*
X133176688Y-162852800D01*
X133176688Y-164932800D02*
X133176688Y-166274800D01*
X133216688Y-161527800D02*
X133216688Y-162852800D01*
X133216688Y-164932800D02*
X133216688Y-166257800D01*
X133256688Y-161544800D02*
X133256688Y-162852800D01*
X133256688Y-164932800D02*
X133256688Y-166240800D01*
X133296688Y-161563800D02*
X133296688Y-162852800D01*
X133296688Y-164932800D02*
X133296688Y-166221800D01*
X133336688Y-161582800D02*
X133336688Y-162852800D01*
X133336688Y-164932800D02*
X133336688Y-166202800D01*
X133376688Y-161602800D02*
X133376688Y-162852800D01*
X133376688Y-164932800D02*
X133376688Y-166182800D01*
X133416688Y-161624800D02*
X133416688Y-162852800D01*
X133416688Y-164932800D02*
X133416688Y-166160800D01*
X133456688Y-161645800D02*
X133456688Y-162852800D01*
X133456688Y-164932800D02*
X133456688Y-166139800D01*
X133496688Y-161668800D02*
X133496688Y-162852800D01*
X133496688Y-164932800D02*
X133496688Y-166116800D01*
X133536688Y-161692800D02*
X133536688Y-162852800D01*
X133536688Y-164932800D02*
X133536688Y-166092800D01*
X133576688Y-161717800D02*
X133576688Y-162852800D01*
X133576688Y-164932800D02*
X133576688Y-166067800D01*
X133616688Y-161743800D02*
X133616688Y-162852800D01*
X133616688Y-164932800D02*
X133616688Y-166041800D01*
X133656688Y-161770800D02*
X133656688Y-162852800D01*
X133656688Y-164932800D02*
X133656688Y-166014800D01*
X133696688Y-161797800D02*
X133696688Y-162852800D01*
X133696688Y-164932800D02*
X133696688Y-165987800D01*
X133736688Y-161827800D02*
X133736688Y-162852800D01*
X133736688Y-164932800D02*
X133736688Y-165957800D01*
X133776688Y-161857800D02*
X133776688Y-162852800D01*
X133776688Y-164932800D02*
X133776688Y-165927800D01*
X133816688Y-161888800D02*
X133816688Y-162852800D01*
X133816688Y-164932800D02*
X133816688Y-165896800D01*
X133856688Y-161921800D02*
X133856688Y-162852800D01*
X133856688Y-164932800D02*
X133856688Y-165863800D01*
X133896688Y-161955800D02*
X133896688Y-162852800D01*
X133896688Y-164932800D02*
X133896688Y-165829800D01*
X133936688Y-161991800D02*
X133936688Y-162852800D01*
X133936688Y-164932800D02*
X133936688Y-165793800D01*
X133976688Y-162028800D02*
X133976688Y-162852800D01*
X133976688Y-164932800D02*
X133976688Y-165756800D01*
X134016688Y-162066800D02*
X134016688Y-162852800D01*
X134016688Y-164932800D02*
X134016688Y-165718800D01*
X134056688Y-162107800D02*
X134056688Y-162852800D01*
X134056688Y-164932800D02*
X134056688Y-165677800D01*
X134096688Y-162149800D02*
X134096688Y-162852800D01*
X134096688Y-164932800D02*
X134096688Y-165635800D01*
X134136688Y-162193800D02*
X134136688Y-162852800D01*
X134136688Y-164932800D02*
X134136688Y-165591800D01*
X134176688Y-162239800D02*
X134176688Y-162852800D01*
X134176688Y-164932800D02*
X134176688Y-165545800D01*
X134216688Y-162287800D02*
X134216688Y-162852800D01*
X134216688Y-164932800D02*
X134216688Y-165497800D01*
X134256688Y-162338800D02*
X134256688Y-162852800D01*
X134256688Y-164932800D02*
X134256688Y-165446800D01*
X134296688Y-162392800D02*
X134296688Y-162852800D01*
X134296688Y-164932800D02*
X134296688Y-165392800D01*
X134336688Y-162449800D02*
X134336688Y-162852800D01*
X134336688Y-164932800D02*
X134336688Y-165335800D01*
X134376688Y-162509800D02*
X134376688Y-162852800D01*
X134376688Y-164932800D02*
X134376688Y-165275800D01*
X134416688Y-162573800D02*
X134416688Y-162852800D01*
X134416688Y-164932800D02*
X134416688Y-165211800D01*
X134456688Y-162641800D02*
X134456688Y-162852800D01*
X134456688Y-164932800D02*
X134456688Y-165143800D01*
X134496688Y-162714800D02*
X134496688Y-165070800D01*
X134536688Y-162794800D02*
X134536688Y-164990800D01*
X134576688Y-162881800D02*
X134576688Y-164903800D01*
X134616688Y-162977800D02*
X134616688Y-164807800D01*
X134656688Y-163087800D02*
X134656688Y-164697800D01*
X134696688Y-163215800D02*
X134696688Y-164569800D01*
X134736688Y-163374800D02*
X134736688Y-164410800D01*
X134776688Y-163608800D02*
X134776688Y-164176800D01*
X134795688Y-163892800D02*
G75*
G03*
X129555688Y-163892800I-2620000J0D01*
G01*
X129555688Y-163892800D02*
G75*
G03*
X134795688Y-163892800I2620000J0D01*
G01*
D13*
%TO.C,J8*%
X137519400Y-44156802D02*
X137519400Y-45905032D01*
X137519400Y-46662571D02*
X137519400Y-48405034D01*
X137519400Y-49162572D02*
X137519400Y-56399602D01*
X137519400Y-56399602D02*
X149762200Y-56399602D01*
X140516600Y-42150202D02*
X140516600Y-44410802D01*
X140516600Y-44410802D02*
X146765000Y-44410802D01*
X146765000Y-42150202D02*
X140516600Y-42150202D01*
X146765000Y-44410802D02*
X146765000Y-42150202D01*
X149762200Y-44156802D02*
X137519400Y-44156802D01*
X149762200Y-45905032D02*
X149762200Y-44156802D01*
X149762200Y-48405034D02*
X149762200Y-46662571D01*
X149762200Y-56399602D02*
X149762200Y-49162572D01*
D12*
%TO.C,J11*%
X82873800Y-140492800D02*
X82873800Y-136492800D01*
X82583800Y-141522800D02*
X82583800Y-135502800D01*
X82583800Y-135502800D02*
X77283800Y-135502800D01*
X82003800Y-141522800D02*
X82003800Y-140922800D01*
X82003800Y-140922800D02*
X80403800Y-140922800D01*
X81203800Y-136502800D02*
X80953800Y-137032800D01*
X81203800Y-136502800D02*
X78663800Y-136502800D01*
X81203800Y-135502800D02*
X81203800Y-136502800D01*
X80953800Y-137032800D02*
X78913800Y-137032800D01*
X80953800Y-135502800D02*
X80953800Y-136502800D01*
X80403800Y-140922800D02*
X80403800Y-141522800D01*
X79463800Y-141522800D02*
X79463800Y-140922800D01*
X79463800Y-140922800D02*
X77863800Y-140922800D01*
X78913800Y-137032800D02*
X78663800Y-136502800D01*
X78913800Y-135502800D02*
X78913800Y-136502800D01*
X78663800Y-136502800D02*
X78663800Y-135502800D01*
X77863800Y-140922800D02*
X77863800Y-141522800D01*
X77283800Y-141522800D02*
X82583800Y-141522800D01*
X77283800Y-135502800D02*
X77283800Y-141522800D01*
%TO.C,C10*%
X88115000Y-172603400D02*
X88115000Y-169863400D01*
X88115000Y-172603400D02*
X80875000Y-172603400D01*
X88115000Y-169863400D02*
X80875000Y-169863400D01*
X80875000Y-172603400D02*
X80875000Y-169863400D01*
%TO.C,C20*%
X71499400Y-101461000D02*
X68759400Y-101461000D01*
X71499400Y-101461000D02*
X71499400Y-108701000D01*
X68759400Y-101461000D02*
X68759400Y-108701000D01*
X71499400Y-108701000D02*
X68759400Y-108701000D01*
D14*
%TO.C,RV1*%
X145798800Y-148514800D02*
X145798800Y-148514800D01*
X145698800Y-148514800D02*
X145698800Y-148514800D01*
X145698800Y-148514800D02*
G75*
G03*
X145798800Y-148514800I50000J0D01*
G01*
X145798800Y-148514800D02*
G75*
G03*
X145698800Y-148514800I-50000J0D01*
G01*
D13*
%TO.C,J9*%
X157458801Y-162744400D02*
X155710571Y-162744400D01*
X154953032Y-162744400D02*
X153210569Y-162744400D01*
X152453031Y-162744400D02*
X145216001Y-162744400D01*
X145216001Y-162744400D02*
X145216001Y-174987200D01*
X159465401Y-165741600D02*
X157204801Y-165741600D01*
X157204801Y-165741600D02*
X157204801Y-171990000D01*
X159465401Y-171990000D02*
X159465401Y-165741600D01*
X157204801Y-171990000D02*
X159465401Y-171990000D01*
X157458801Y-174987200D02*
X157458801Y-162744400D01*
X155710571Y-174987200D02*
X157458801Y-174987200D01*
X153210569Y-174987200D02*
X154953032Y-174987200D01*
X145216001Y-174987200D02*
X152453031Y-174987200D01*
D12*
%TO.C,R10*%
X128860800Y-44971600D02*
X135400800Y-44971600D01*
X128860800Y-45301600D02*
X128860800Y-44971600D01*
X128860800Y-47381600D02*
X128860800Y-47711600D01*
X128860800Y-47711600D02*
X135400800Y-47711600D01*
X135400800Y-44971600D02*
X135400800Y-45301600D01*
X135400800Y-47711600D02*
X135400800Y-47381600D01*
%TO.C,R16*%
X79756000Y-126251400D02*
X79756000Y-125481400D01*
X78386000Y-125481400D02*
X81126000Y-125481400D01*
X81126000Y-125481400D02*
X81126000Y-118941400D01*
X78386000Y-118941400D02*
X78386000Y-125481400D01*
X81126000Y-118941400D02*
X78386000Y-118941400D01*
X79756000Y-118171400D02*
X79756000Y-118941400D01*
%TO.C,J6*%
X74664800Y-128819600D02*
X73334800Y-128819600D01*
X74664800Y-127489600D02*
X74664800Y-128819600D01*
X74664800Y-126219600D02*
X74664800Y-115999600D01*
X74664800Y-126219600D02*
X72064800Y-126219600D01*
X74664800Y-115999600D02*
X69464800Y-115999600D01*
X72064800Y-128819600D02*
X69464800Y-128819600D01*
X72064800Y-126219600D02*
X72064800Y-128819600D01*
X69464800Y-128819600D02*
X69464800Y-115999600D01*
%TO.C,R12*%
X141954000Y-69784200D02*
X135414000Y-69784200D01*
X141954000Y-69454200D02*
X141954000Y-69784200D01*
X141954000Y-67374200D02*
X141954000Y-67044200D01*
X141954000Y-67044200D02*
X135414000Y-67044200D01*
X135414000Y-69784200D02*
X135414000Y-69454200D01*
X135414000Y-67044200D02*
X135414000Y-67374200D01*
%TO.C,C8*%
X155054800Y-132369800D02*
X155054800Y-129629800D01*
X155054800Y-132369800D02*
X147814800Y-132369800D01*
X155054800Y-129629800D02*
X147814800Y-129629800D01*
X147814800Y-132369800D02*
X147814800Y-129629800D01*
%TO.C,C7*%
X127531800Y-170305800D02*
X124791800Y-170305800D01*
X127531800Y-170305800D02*
X127531800Y-177545800D01*
X124791800Y-170305800D02*
X124791800Y-177545800D01*
X127531800Y-177545800D02*
X124791800Y-177545800D01*
%TO.C,R17*%
X76708000Y-126251400D02*
X76708000Y-125481400D01*
X75338000Y-125481400D02*
X78078000Y-125481400D01*
X78078000Y-125481400D02*
X78078000Y-118941400D01*
X75338000Y-118941400D02*
X75338000Y-125481400D01*
X78078000Y-118941400D02*
X75338000Y-118941400D01*
X76708000Y-118171400D02*
X76708000Y-118941400D01*
%TO.C,J7*%
X144372600Y-88155800D02*
X144372600Y-57185800D01*
X156712600Y-88155800D02*
X144372600Y-88155800D01*
X143478262Y-78460800D02*
X143478262Y-77960800D01*
X143911275Y-78210800D02*
X143478262Y-78460800D01*
X143478262Y-77960800D02*
X143911275Y-78210800D01*
X144372600Y-57185800D02*
X156712600Y-57185800D01*
%TO.C,U9*%
X95362200Y-112430900D02*
X95362200Y-147650900D01*
X95362200Y-147650900D02*
X131612200Y-147650900D01*
X96362200Y-111430900D02*
X95362200Y-112430900D01*
X112487200Y-111430900D02*
X96362200Y-111430900D01*
X131612200Y-111430900D02*
X114487200Y-111430900D01*
X131612200Y-147650900D02*
X131612200Y-111430900D01*
%TO.C,U11*%
X155203200Y-134776000D02*
X134763200Y-134776000D01*
X134763200Y-134776000D02*
X134763200Y-140076000D01*
X155203200Y-136426000D02*
X155203200Y-134776000D01*
X155203200Y-140076000D02*
X155203200Y-138426000D01*
X134763200Y-140076000D02*
X155203200Y-140076000D01*
X155203200Y-136426000D02*
G75*
G03*
X155203200Y-138426000I0J-1000000D01*
G01*
%TO.C,C16*%
X141001000Y-79367600D02*
X141001000Y-80625600D01*
X139161000Y-79367600D02*
X139161000Y-80625600D01*
%TO.C,C18*%
X94334000Y-133512000D02*
X91594000Y-133512000D01*
X94334000Y-133512000D02*
X94334000Y-140752000D01*
X91594000Y-133512000D02*
X91594000Y-140752000D01*
X94334000Y-140752000D02*
X91594000Y-140752000D01*
%TO.C,D1*%
X70061800Y-148693800D02*
X70217800Y-148693800D01*
X72377800Y-148693800D02*
X72533800Y-148693800D01*
X70219192Y-145461466D02*
G75*
G03*
X70062285Y-148693799I1078608J-1672334D01*
G01*
X70217964Y-146092671D02*
G75*
G03*
X70217801Y-148174760I1079836J-1041129D01*
G01*
X72377799Y-148174760D02*
G75*
G03*
X72377636Y-146092671I-1079999J1040960D01*
G01*
X72533315Y-148693799D02*
G75*
G03*
X72376408Y-145461466I-1235515J1559999D01*
G01*
%TO.C,C15*%
X141051800Y-71874600D02*
X141051800Y-73132600D01*
X139211800Y-71874600D02*
X139211800Y-73132600D01*
%TO.C,RN2*%
X156227600Y-113908600D02*
X156227600Y-111108600D01*
X156227600Y-111108600D02*
X138107600Y-111108600D01*
X153517600Y-113908600D02*
X153517600Y-111108600D01*
X138107600Y-113908600D02*
X156227600Y-113908600D01*
X138107600Y-111108600D02*
X138107600Y-113908600D01*
%TO.C,C14*%
X133402400Y-58419800D02*
X136142400Y-58419800D01*
X133402400Y-58419800D02*
X133402400Y-51179800D01*
X136142400Y-58419800D02*
X136142400Y-51179800D01*
X133402400Y-51179800D02*
X136142400Y-51179800D01*
%TO.C,SW1*%
X68577000Y-158756400D02*
X72427000Y-158756400D01*
X75067000Y-158756400D02*
X75367000Y-158756400D01*
X75367000Y-157866400D02*
X75367000Y-158756400D01*
X75367000Y-157866400D02*
X75017000Y-157866400D01*
X72817000Y-157376400D02*
X72817000Y-152396400D01*
X75367000Y-151906400D02*
X75017000Y-151906400D01*
X68577000Y-151016400D02*
X68577000Y-158756400D01*
X72427000Y-151016400D02*
X68577000Y-151016400D01*
X75067000Y-151016400D02*
X75367000Y-151016400D01*
X75367000Y-151016400D02*
X75367000Y-151906400D01*
%TO.C,J2*%
X151072800Y-180751800D02*
X151072800Y-176751800D01*
X150782800Y-181781800D02*
X150782800Y-175761800D01*
X150782800Y-175761800D02*
X145482800Y-175761800D01*
X150202800Y-181781800D02*
X150202800Y-181181800D01*
X150202800Y-181181800D02*
X148602800Y-181181800D01*
X149402800Y-176761800D02*
X149152800Y-177291800D01*
X149402800Y-176761800D02*
X146862800Y-176761800D01*
X149402800Y-175761800D02*
X149402800Y-176761800D01*
X149152800Y-177291800D02*
X147112800Y-177291800D01*
X149152800Y-175761800D02*
X149152800Y-176761800D01*
X148602800Y-181181800D02*
X148602800Y-181781800D01*
X147662800Y-181781800D02*
X147662800Y-181181800D01*
X147662800Y-181181800D02*
X146062800Y-181181800D01*
X147112800Y-177291800D02*
X146862800Y-176761800D01*
X147112800Y-175761800D02*
X147112800Y-176761800D01*
X146862800Y-176761800D02*
X146862800Y-175761800D01*
X146062800Y-181181800D02*
X146062800Y-181781800D01*
X145482800Y-181781800D02*
X150782800Y-181781800D01*
X145482800Y-175761800D02*
X145482800Y-181781800D01*
%TO.C,R5*%
X132284800Y-151287800D02*
X132284800Y-144747800D01*
X132614800Y-151287800D02*
X132284800Y-151287800D01*
X134694800Y-151287800D02*
X135024800Y-151287800D01*
X135024800Y-151287800D02*
X135024800Y-144747800D01*
X132284800Y-144747800D02*
X132614800Y-144747800D01*
X135024800Y-144747800D02*
X134694800Y-144747800D01*
%TO.C,U5*%
X79731400Y-164922200D02*
X115411400Y-164922200D01*
X115411400Y-164922200D02*
X115411400Y-152002200D01*
X79731400Y-159462200D02*
X79731400Y-164922200D01*
X79731400Y-152002200D02*
X79731400Y-157462200D01*
X115411400Y-152002200D02*
X79731400Y-152002200D01*
X79731400Y-159462200D02*
G75*
G03*
X79731400Y-157462200I0J1000000D01*
G01*
%TO.C,R3*%
X127658800Y-154399800D02*
X127658800Y-160939800D01*
X127328800Y-154399800D02*
X127658800Y-154399800D01*
X125248800Y-154399800D02*
X124918800Y-154399800D01*
X124918800Y-154399800D02*
X124918800Y-160939800D01*
X127658800Y-160939800D02*
X127328800Y-160939800D01*
X124918800Y-160939800D02*
X125248800Y-160939800D01*
%TO.C,C19*%
X94769800Y-117637800D02*
X94769800Y-114897800D01*
X94769800Y-117637800D02*
X87529800Y-117637800D01*
X94769800Y-114897800D02*
X87529800Y-114897800D01*
X87529800Y-117637800D02*
X87529800Y-114897800D01*
%TO.C,R18*%
X155270200Y-90841000D02*
X155270200Y-91611000D01*
X156640200Y-91611000D02*
X153900200Y-91611000D01*
X153900200Y-91611000D02*
X153900200Y-98151000D01*
X156640200Y-98151000D02*
X156640200Y-91611000D01*
X153900200Y-98151000D02*
X156640200Y-98151000D01*
X155270200Y-98921000D02*
X155270200Y-98151000D01*
%TO.C,R1*%
X79449800Y-133158800D02*
X80219800Y-133158800D01*
X80219800Y-131788800D02*
X80219800Y-134528800D01*
X80219800Y-134528800D02*
X86759800Y-134528800D01*
X86759800Y-131788800D02*
X80219800Y-131788800D01*
X86759800Y-134528800D02*
X86759800Y-131788800D01*
X87529800Y-133158800D02*
X86759800Y-133158800D01*
%TO.C,C6*%
X140031800Y-177792800D02*
X140346800Y-177792800D01*
X140031800Y-177792800D02*
X140031800Y-172852800D01*
X142456800Y-177792800D02*
X142771800Y-177792800D01*
X142771800Y-177792800D02*
X142771800Y-172852800D01*
X140031800Y-172852800D02*
X140346800Y-172852800D01*
X142456800Y-172852800D02*
X142771800Y-172852800D01*
%TO.C,R2*%
X77311200Y-130029600D02*
X78081200Y-130029600D01*
X78081200Y-128659600D02*
X78081200Y-131399600D01*
X78081200Y-131399600D02*
X84621200Y-131399600D01*
X84621200Y-128659600D02*
X78081200Y-128659600D01*
X84621200Y-131399600D02*
X84621200Y-128659600D01*
X85391200Y-130029600D02*
X84621200Y-130029600D01*
D10*
%TO.C,SW3*%
X73311800Y-133913400D02*
X73311800Y-142513400D01*
X68711800Y-133913400D02*
X68711800Y-136113400D01*
X68711800Y-140213400D02*
X68711800Y-142513400D01*
D12*
%TO.C,C12*%
X108100800Y-55218400D02*
X105360800Y-55218400D01*
X108100800Y-55218400D02*
X108100800Y-62458400D01*
X105360800Y-55218400D02*
X105360800Y-62458400D01*
X108100800Y-62458400D02*
X105360800Y-62458400D01*
%TO.C,R15*%
X82778600Y-126276800D02*
X82778600Y-125506800D01*
X81408600Y-125506800D02*
X84148600Y-125506800D01*
X84148600Y-125506800D02*
X84148600Y-118966800D01*
X81408600Y-118966800D02*
X81408600Y-125506800D01*
X84148600Y-118966800D02*
X81408600Y-118966800D01*
X82778600Y-118196800D02*
X82778600Y-118966800D01*
%TO.C,C11*%
X79271800Y-149858800D02*
X76531800Y-149858800D01*
X79271800Y-149858800D02*
X79271800Y-157098800D01*
X76531800Y-149858800D02*
X76531800Y-157098800D01*
X79271800Y-157098800D02*
X76531800Y-157098800D01*
%TO.C,J10*%
X89096800Y-140472800D02*
X89096800Y-136472800D01*
X88806800Y-141502800D02*
X88806800Y-135482800D01*
X88806800Y-135482800D02*
X83506800Y-135482800D01*
X88226800Y-141502800D02*
X88226800Y-140902800D01*
X88226800Y-140902800D02*
X86626800Y-140902800D01*
X87426800Y-136482800D02*
X87176800Y-137012800D01*
X87426800Y-136482800D02*
X84886800Y-136482800D01*
X87426800Y-135482800D02*
X87426800Y-136482800D01*
X87176800Y-137012800D02*
X85136800Y-137012800D01*
X87176800Y-135482800D02*
X87176800Y-136482800D01*
X86626800Y-140902800D02*
X86626800Y-141502800D01*
X85686800Y-141502800D02*
X85686800Y-140902800D01*
X85686800Y-140902800D02*
X84086800Y-140902800D01*
X85136800Y-137012800D02*
X84886800Y-136482800D01*
X85136800Y-135482800D02*
X85136800Y-136482800D01*
X84886800Y-136482800D02*
X84886800Y-135482800D01*
X84086800Y-140902800D02*
X84086800Y-141502800D01*
X83506800Y-141502800D02*
X88806800Y-141502800D01*
X83506800Y-135482800D02*
X83506800Y-141502800D01*
%TO.C,C21*%
X156614800Y-101370200D02*
X153874800Y-101370200D01*
X156614800Y-101370200D02*
X156614800Y-108610200D01*
X153874800Y-101370200D02*
X153874800Y-108610200D01*
X156614800Y-108610200D02*
X153874800Y-108610200D01*
D14*
%TO.C,J4*%
X82638400Y-96491800D02*
X82638400Y-105841800D01*
X82638400Y-105841800D02*
X141948400Y-105841800D01*
X141948400Y-96491800D02*
X82638400Y-96491800D01*
X141948400Y-105841800D02*
X141948400Y-96491800D01*
D12*
%TO.C,C23*%
X147434800Y-132369800D02*
X147434800Y-129629800D01*
X147434800Y-132369800D02*
X140194800Y-132369800D01*
X147434800Y-129629800D02*
X140194800Y-129629800D01*
X140194800Y-132369800D02*
X140194800Y-129629800D01*
D14*
%TO.C,SW2*%
X70865500Y-180369600D02*
X83565500Y-180369600D01*
X70865500Y-183719600D02*
X70865500Y-180369600D01*
X72215500Y-186719600D02*
X82215500Y-186719600D01*
X83565500Y-180369600D02*
X83565500Y-183719600D01*
D15*
X83715500Y-176089600D02*
X83715500Y-176089600D01*
X83715500Y-176289600D02*
X83715500Y-176289600D01*
X83715500Y-176289600D02*
G75*
G03*
X83715500Y-176089600I0J100000D01*
G01*
X83715500Y-176089600D02*
G75*
G03*
X83715500Y-176289600I0J-100000D01*
G01*
D12*
%TO.C,U8*%
X82032800Y-57576800D02*
X105012800Y-57576800D01*
X105012800Y-57576800D02*
X105012800Y-52276800D01*
X82032800Y-55926800D02*
X82032800Y-57576800D01*
X82032800Y-52276800D02*
X82032800Y-53926800D01*
X105012800Y-52276800D02*
X82032800Y-52276800D01*
X82032800Y-55926800D02*
G75*
G03*
X82032800Y-53926800I0J1000000D01*
G01*
%TO.C,C1*%
X87834800Y-131404800D02*
X90574800Y-131404800D01*
X87834800Y-131404800D02*
X87834800Y-124164800D01*
X90574800Y-131404800D02*
X90574800Y-124164800D01*
X87834800Y-124164800D02*
X90574800Y-124164800D01*
%TO.C,Q1*%
X141931800Y-57640800D02*
X138331800Y-57640800D01*
X141271800Y-61840799D02*
G75*
G03*
X142498998Y-60594642I-1140000J2349999D01*
G01*
X142455983Y-58368005D02*
G75*
G03*
X141931799Y-57640801I-2324183J-1122795D01*
G01*
X137776343Y-60589171D02*
G75*
G03*
X139021800Y-61840800I2355457J1098371D01*
G01*
X138331801Y-57640801D02*
G75*
G03*
X137807617Y-58368005I1799999J-1849999D01*
G01*
%TO.C,R11*%
X135414000Y-63488200D02*
X141954000Y-63488200D01*
X135414000Y-63818200D02*
X135414000Y-63488200D01*
X135414000Y-65898200D02*
X135414000Y-66228200D01*
X135414000Y-66228200D02*
X141954000Y-66228200D01*
X141954000Y-63488200D02*
X141954000Y-63818200D01*
X141954000Y-66228200D02*
X141954000Y-65898200D01*
%TO.C,R4*%
X142009800Y-144747800D02*
X142009800Y-151287800D01*
X141679800Y-144747800D02*
X142009800Y-144747800D01*
X139599800Y-144747800D02*
X139269800Y-144747800D01*
X139269800Y-144747800D02*
X139269800Y-151287800D01*
X142009800Y-151287800D02*
X141679800Y-151287800D01*
X139269800Y-151287800D02*
X139599800Y-151287800D01*
%TO.C,J1*%
X82459600Y-88311600D02*
X82459600Y-86981600D01*
X83789600Y-88311600D02*
X82459600Y-88311600D01*
X85059600Y-88311600D02*
X100359600Y-88311600D01*
X85059600Y-88311600D02*
X85059600Y-85651600D01*
X100359600Y-88311600D02*
X100359600Y-85651600D01*
X85059600Y-85651600D02*
X100359600Y-85651600D01*
%TO.C,C3*%
X127658800Y-163835800D02*
X127343800Y-163835800D01*
X127658800Y-163835800D02*
X127658800Y-168775800D01*
X125233800Y-163835800D02*
X124918800Y-163835800D01*
X124918800Y-163835800D02*
X124918800Y-168775800D01*
X127658800Y-168775800D02*
X127343800Y-168775800D01*
X125233800Y-168775800D02*
X124918800Y-168775800D01*
%TO.C,U2*%
X155254000Y-121755800D02*
X134814000Y-121755800D01*
X134814000Y-121755800D02*
X134814000Y-127055800D01*
X155254000Y-123405800D02*
X155254000Y-121755800D01*
X155254000Y-127055800D02*
X155254000Y-125405800D01*
X134814000Y-127055800D02*
X155254000Y-127055800D01*
X155254000Y-123405800D02*
G75*
G03*
X155254000Y-125405800I0J-1000000D01*
G01*
%TO.C,C13*%
X113702600Y-81395200D02*
X113702600Y-84135200D01*
X113702600Y-81395200D02*
X120942600Y-81395200D01*
X113702600Y-84135200D02*
X120942600Y-84135200D01*
X120942600Y-81395200D02*
X120942600Y-84135200D01*
%TO.C,C2*%
X134803451Y-157386800D02*
X135603451Y-157386800D01*
X135203451Y-156986800D02*
X135203451Y-157786800D01*
X139213149Y-155621800D02*
X139213149Y-163781800D01*
X139253149Y-155621800D02*
X139253149Y-163781800D01*
X139293149Y-155621800D02*
X139293149Y-163781800D01*
X139333149Y-155622800D02*
X139333149Y-163780800D01*
X139373149Y-155624800D02*
X139373149Y-163778800D01*
X139413149Y-155625800D02*
X139413149Y-163777800D01*
X139453149Y-155627800D02*
X139453149Y-163775800D01*
X139493149Y-155630800D02*
X139493149Y-163772800D01*
X139533149Y-155633800D02*
X139533149Y-163769800D01*
X139573149Y-155636800D02*
X139573149Y-163766800D01*
X139613149Y-155640800D02*
X139613149Y-163762800D01*
X139653149Y-155644800D02*
X139653149Y-163758800D01*
X139693149Y-155649800D02*
X139693149Y-163753800D01*
X139733149Y-155653800D02*
X139733149Y-163749800D01*
X139773149Y-155659800D02*
X139773149Y-163743800D01*
X139813149Y-155664800D02*
X139813149Y-163738800D01*
X139853149Y-155671800D02*
X139853149Y-163731800D01*
X139893149Y-155677800D02*
X139893149Y-163725800D01*
X139934149Y-155684800D02*
X139934149Y-163718800D01*
X139974149Y-155691800D02*
X139974149Y-163711800D01*
X140014149Y-155699800D02*
X140014149Y-163703800D01*
X140054149Y-155707800D02*
X140054149Y-163695800D01*
X140094149Y-155716800D02*
X140094149Y-163686800D01*
X140134149Y-155725800D02*
X140134149Y-163677800D01*
X140174149Y-155734800D02*
X140174149Y-163668800D01*
X140214149Y-155744800D02*
X140214149Y-163658800D01*
X140254149Y-155754800D02*
X140254149Y-163648800D01*
X140294149Y-155765800D02*
X140294149Y-163637800D01*
X140334149Y-155776800D02*
X140334149Y-163626800D01*
X140374149Y-155787800D02*
X140374149Y-163615800D01*
X140414149Y-155799800D02*
X140414149Y-163603800D01*
X140454149Y-155812800D02*
X140454149Y-163590800D01*
X140494149Y-155824800D02*
X140494149Y-163578800D01*
X140534149Y-155838800D02*
X140534149Y-163564800D01*
X140574149Y-155851800D02*
X140574149Y-163551800D01*
X140614149Y-155866800D02*
X140614149Y-163536800D01*
X140654149Y-155880800D02*
X140654149Y-163522800D01*
X140694149Y-155896800D02*
X140694149Y-158661800D01*
X140694149Y-160741800D02*
X140694149Y-163506800D01*
X140734149Y-155911800D02*
X140734149Y-158661800D01*
X140734149Y-160741800D02*
X140734149Y-163491800D01*
X140774149Y-155927800D02*
X140774149Y-158661800D01*
X140774149Y-160741800D02*
X140774149Y-163475800D01*
X140814149Y-155944800D02*
X140814149Y-158661800D01*
X140814149Y-160741800D02*
X140814149Y-163458800D01*
X140854149Y-155961800D02*
X140854149Y-158661800D01*
X140854149Y-160741800D02*
X140854149Y-163441800D01*
X140894149Y-155979800D02*
X140894149Y-158661800D01*
X140894149Y-160741800D02*
X140894149Y-163423800D01*
X140934149Y-155997800D02*
X140934149Y-158661800D01*
X140934149Y-160741800D02*
X140934149Y-163405800D01*
X140974149Y-156015800D02*
X140974149Y-158661800D01*
X140974149Y-160741800D02*
X140974149Y-163387800D01*
X141014149Y-156035800D02*
X141014149Y-158661800D01*
X141014149Y-160741800D02*
X141014149Y-163367800D01*
X141054149Y-156054800D02*
X141054149Y-158661800D01*
X141054149Y-160741800D02*
X141054149Y-163348800D01*
X141094149Y-156074800D02*
X141094149Y-158661800D01*
X141094149Y-160741800D02*
X141094149Y-163328800D01*
X141134149Y-156095800D02*
X141134149Y-158661800D01*
X141134149Y-160741800D02*
X141134149Y-163307800D01*
X141174149Y-156117800D02*
X141174149Y-158661800D01*
X141174149Y-160741800D02*
X141174149Y-163285800D01*
X141214149Y-156139800D02*
X141214149Y-158661800D01*
X141214149Y-160741800D02*
X141214149Y-163263800D01*
X141254149Y-156161800D02*
X141254149Y-158661800D01*
X141254149Y-160741800D02*
X141254149Y-163241800D01*
X141294149Y-156184800D02*
X141294149Y-158661800D01*
X141294149Y-160741800D02*
X141294149Y-163218800D01*
X141334149Y-156208800D02*
X141334149Y-158661800D01*
X141334149Y-160741800D02*
X141334149Y-163194800D01*
X141374149Y-156232800D02*
X141374149Y-158661800D01*
X141374149Y-160741800D02*
X141374149Y-163170800D01*
X141414149Y-156257800D02*
X141414149Y-158661800D01*
X141414149Y-160741800D02*
X141414149Y-163145800D01*
X141454149Y-156283800D02*
X141454149Y-158661800D01*
X141454149Y-160741800D02*
X141454149Y-163119800D01*
X141494149Y-156309800D02*
X141494149Y-158661800D01*
X141494149Y-160741800D02*
X141494149Y-163093800D01*
X141534149Y-156336800D02*
X141534149Y-158661800D01*
X141534149Y-160741800D02*
X141534149Y-163066800D01*
X141574149Y-156363800D02*
X141574149Y-158661800D01*
X141574149Y-160741800D02*
X141574149Y-163039800D01*
X141614149Y-156392800D02*
X141614149Y-158661800D01*
X141614149Y-160741800D02*
X141614149Y-163010800D01*
X141654149Y-156421800D02*
X141654149Y-158661800D01*
X141654149Y-160741800D02*
X141654149Y-162981800D01*
X141694149Y-156451800D02*
X141694149Y-158661800D01*
X141694149Y-160741800D02*
X141694149Y-162951800D01*
X141734149Y-156481800D02*
X141734149Y-158661800D01*
X141734149Y-160741800D02*
X141734149Y-162921800D01*
X141774149Y-156512800D02*
X141774149Y-158661800D01*
X141774149Y-160741800D02*
X141774149Y-162890800D01*
X141814149Y-156545800D02*
X141814149Y-158661800D01*
X141814149Y-160741800D02*
X141814149Y-162857800D01*
X141854149Y-156577800D02*
X141854149Y-158661800D01*
X141854149Y-160741800D02*
X141854149Y-162825800D01*
X141894149Y-156611800D02*
X141894149Y-158661800D01*
X141894149Y-160741800D02*
X141894149Y-162791800D01*
X141934149Y-156646800D02*
X141934149Y-158661800D01*
X141934149Y-160741800D02*
X141934149Y-162756800D01*
X141974149Y-156682800D02*
X141974149Y-158661800D01*
X141974149Y-160741800D02*
X141974149Y-162720800D01*
X142014149Y-156718800D02*
X142014149Y-158661800D01*
X142014149Y-160741800D02*
X142014149Y-162684800D01*
X142054149Y-156756800D02*
X142054149Y-158661800D01*
X142054149Y-160741800D02*
X142054149Y-162646800D01*
X142094149Y-156794800D02*
X142094149Y-158661800D01*
X142094149Y-160741800D02*
X142094149Y-162608800D01*
X142134149Y-156834800D02*
X142134149Y-158661800D01*
X142134149Y-160741800D02*
X142134149Y-162568800D01*
X142174149Y-156875800D02*
X142174149Y-158661800D01*
X142174149Y-160741800D02*
X142174149Y-162527800D01*
X142214149Y-156917800D02*
X142214149Y-158661800D01*
X142214149Y-160741800D02*
X142214149Y-162485800D01*
X142254149Y-156960800D02*
X142254149Y-158661800D01*
X142254149Y-160741800D02*
X142254149Y-162442800D01*
X142294149Y-157004800D02*
X142294149Y-158661800D01*
X142294149Y-160741800D02*
X142294149Y-162398800D01*
X142334149Y-157050800D02*
X142334149Y-158661800D01*
X142334149Y-160741800D02*
X142334149Y-162352800D01*
X142374149Y-157097800D02*
X142374149Y-158661800D01*
X142374149Y-160741800D02*
X142374149Y-162305800D01*
X142414149Y-157145800D02*
X142414149Y-158661800D01*
X142414149Y-160741800D02*
X142414149Y-162257800D01*
X142454149Y-157196800D02*
X142454149Y-158661800D01*
X142454149Y-160741800D02*
X142454149Y-162206800D01*
X142494149Y-157247800D02*
X142494149Y-158661800D01*
X142494149Y-160741800D02*
X142494149Y-162155800D01*
X142534149Y-157301800D02*
X142534149Y-158661800D01*
X142534149Y-160741800D02*
X142534149Y-162101800D01*
X142574149Y-157356800D02*
X142574149Y-158661800D01*
X142574149Y-160741800D02*
X142574149Y-162046800D01*
X142614149Y-157414800D02*
X142614149Y-158661800D01*
X142614149Y-160741800D02*
X142614149Y-161988800D01*
X142654149Y-157473800D02*
X142654149Y-158661800D01*
X142654149Y-160741800D02*
X142654149Y-161929800D01*
X142694149Y-157535800D02*
X142694149Y-158661800D01*
X142694149Y-160741800D02*
X142694149Y-161867800D01*
X142734149Y-157599800D02*
X142734149Y-158661800D01*
X142734149Y-160741800D02*
X142734149Y-161803800D01*
X142774149Y-157667800D02*
X142774149Y-161735800D01*
X142814149Y-157737800D02*
X142814149Y-161665800D01*
X142854149Y-157811800D02*
X142854149Y-161591800D01*
X142894149Y-157888800D02*
X142894149Y-161514800D01*
X142934149Y-157970800D02*
X142934149Y-161432800D01*
X142974149Y-158056800D02*
X142974149Y-161346800D01*
X143014149Y-158149800D02*
X143014149Y-161253800D01*
X143054149Y-158248800D02*
X143054149Y-161154800D01*
X143094149Y-158355800D02*
X143094149Y-161047800D01*
X143134149Y-158472800D02*
X143134149Y-160930800D01*
X143174149Y-158603800D02*
X143174149Y-160799800D01*
X143214149Y-158753800D02*
X143214149Y-160649800D01*
X143254149Y-158933800D02*
X143254149Y-160469800D01*
X143294149Y-159168800D02*
X143294149Y-160234800D01*
X143333149Y-159701800D02*
G75*
G03*
X135093149Y-159701800I-4120000J0D01*
G01*
X135093149Y-159701800D02*
G75*
G03*
X143333149Y-159701800I4120000J0D01*
G01*
%TD*%
M02*
