M48
; DRILL file {KiCad 7.0.11-7.0.11~ubuntu22.04.1} date Tue 15 Oct 2024 09:24:39 PM EDT
; FORMAT={-:-/ absolute / inch / decimal}
; #@! TF.CreationDate,2024-10-15T21:24:39-04:00
; #@! TF.GenerationSoftware,Kicad,Pcbnew,7.0.11-7.0.11~ubuntu22.04.1
; #@! TF.FileFunction,Plated,1,4,PTH
FMAT,2
INCH
; #@! TA.AperFunction,Plated,PTH,ViaDrill
T1C0.0140
; #@! TA.AperFunction,Plated,PTH,ViaDrill
T2C0.0220
; #@! TA.AperFunction,Plated,PTH,ComponentDrill
T3C0.0295
; #@! TA.AperFunction,Plated,PTH,ComponentDrill
T4C0.0315
; #@! TA.AperFunction,Plated,PTH,ComponentDrill
T5C0.0354
; #@! TA.AperFunction,Plated,PTH,ComponentDrill
T6C0.0394
; #@! TA.AperFunction,Plated,PTH,ComponentDrill
T7C0.0433
; #@! TA.AperFunction,Plated,PTH,ComponentDrill
T8C0.0469
; #@! TA.AperFunction,Plated,PTH,ComponentDrill
T9C0.0470
; #@! TA.AperFunction,Plated,PTH,ComponentDrill
T10C0.0492
; #@! TA.AperFunction,Plated,PTH,ComponentDrill
T11C0.0512
; #@! TA.AperFunction,Plated,PTH,ComponentDrill
T12C0.0551
; #@! TA.AperFunction,Plated,PTH,ComponentDrill
T13C0.0728
; #@! TA.AperFunction,Plated,PTH,ComponentDrill
T14C0.1260
; #@! TA.AperFunction,Plated,PTH,ComponentDrill
T15C0.1280
%
G90
G05
T1
X2.901Y-3.2485
X2.939Y-3.2497
X3.0573Y-3.67
X3.087Y-3.8075
X3.121Y-3.7254
X3.251Y-3.6535
X3.287Y-6.4645
X3.313Y-3.5735
X3.3325Y-6.436
X3.356Y-3.5725
X3.3946Y-4.1639
X3.53Y-4.4445
X3.532Y-6.9945
X3.5325Y-3.0895
X3.65Y-5.1653
X3.7079Y-6.1198
X3.711Y-6.0675
X3.8007Y-4.7936
X3.86Y-6.0275
X3.912Y-4.303
X3.9174Y-7.1375
X4.009Y-3.7555
X4.0474Y-7.0295
X4.0557Y-4.824
X4.077Y-4.7911
X4.137Y-4.6676
X4.2624Y-7.0195
X4.287Y-3.5695
X4.307Y-3.6045
X4.332Y-5.2575
X4.422Y-3.5695
X4.4674Y-7.0195
X4.477Y-3.6045
X4.4793Y-4.405
X4.552Y-5.254
X4.557Y-5.7575
X4.564Y-6.0015
X4.591Y-5.8325
X4.609Y-5.7575
X4.613Y-5.9735
X4.642Y-5.2625
X4.647Y-5.7573
X4.647Y-5.1125
X4.652Y-4.6695
X4.759Y-5.9885
X4.799Y-6.0175
X4.802Y-5.8485
X4.865Y-5.8755
X4.877Y-5.1725
X4.8959Y-5.0114
X4.939Y-5.1475
X5.009Y-5.9005
X5.033Y-4.1835
X5.058Y-5.9345
X5.086Y-5.9075
X5.09Y-3.9775
X5.1465Y-4.3464
X5.223Y-4.4015
X5.2241Y-4.3606
X5.256Y-4.4223
X5.2761Y-4.4545
X5.3068Y-4.4817
X5.311Y-4.5195
X5.311Y-4.5575
X5.445Y-4.3295
X5.452Y-3.5695
X5.492Y-3.6045
X5.5314Y-4.8099
T2
X3.0544Y-3.62
X3.147Y-3.5245
X3.217Y-3.9545
X3.327Y-7.0545
X3.4936Y-7.0495
X3.7165Y-7.05
X3.8747Y-6.8922
X3.9326Y-7.0897
X4.0774Y-6.8995
X4.1424Y-7.0845
X4.3007Y-6.9018
X4.3524Y-7.0795
X4.401Y-5.1155
X4.617Y-5.5515
X4.813Y-4.9195
X5.037Y-6.7555
T4
X2.759Y-3.5405
X2.759Y-3.9405
X2.761Y-4.0386
X2.761Y-4.2355
X2.777Y-4.5645
X2.802Y-4.4295
X2.902Y-4.4295
X2.952Y-5.7975
X3.002Y-4.4295
X3.002Y-5.2645
X3.002Y-5.3895
X3.02Y-4.6935
X3.02Y-5.0935
X3.067Y-5.944
X3.067Y-6.1409
X3.102Y-4.4295
X3.14Y-4.6935
X3.14Y-5.0935
X3.177Y-4.5645
X3.1914Y-5.9387
X3.1914Y-6.5387
X3.202Y-4.4295
X3.2281Y-6.7415
X3.259Y-4.6945
X3.259Y-5.0945
X3.282Y-2.0125
X3.282Y-2.3125
X3.282Y-2.5375
X3.282Y-3.1375
X3.2914Y-5.9387
X3.2914Y-6.5387
X3.302Y-4.4295
X3.352Y-5.7975
X3.38Y-4.6945
X3.38Y-5.0945
X3.382Y-2.0125
X3.382Y-2.3125
X3.382Y-2.5375
X3.382Y-3.1375
X3.3914Y-5.9387
X3.3914Y-6.5387
X3.402Y-4.4295
X3.402Y-5.2645
X3.402Y-5.3895
X3.425Y-6.7415
X3.482Y-2.0125
X3.482Y-2.3125
X3.482Y-2.5375
X3.482Y-3.1375
X3.4901Y-4.5775
X3.4914Y-5.9387
X3.4914Y-6.5387
X3.512Y-4.9325
X3.512Y-5.1293
X3.5354Y-6.7247
X3.5354Y-7.3247
X3.582Y-2.0125
X3.582Y-2.3125
X3.582Y-2.5375
X3.582Y-3.1375
X3.5914Y-5.9387
X3.5914Y-6.5387
X3.6354Y-6.7247
X3.6354Y-7.3247
X3.66Y-5.3005
X3.66Y-5.4973
X3.682Y-2.0125
X3.682Y-2.3125
X3.682Y-2.5375
X3.682Y-3.1375
X3.687Y-4.5775
X3.6914Y-5.9387
X3.6914Y-6.5387
X3.7354Y-6.7247
X3.7354Y-7.3247
X3.782Y-2.0125
X3.782Y-2.3125
X3.782Y-2.5375
X3.782Y-3.1375
X3.7914Y-5.9387
X3.7914Y-6.5387
X3.8354Y-6.7247
X3.8354Y-7.3247
X3.868Y-4.6
X3.868Y-4.7
X3.868Y-4.8
X3.868Y-4.9
X3.868Y-5.0
X3.868Y-5.1
X3.868Y-5.2
X3.868Y-5.3
X3.868Y-5.4
X3.868Y-5.5
X3.868Y-5.6
X3.882Y-2.0125
X3.882Y-2.3125
X3.882Y-2.5375
X3.882Y-3.1375
X3.8914Y-5.9387
X3.8914Y-6.5387
X3.9354Y-6.7247
X3.9354Y-7.3247
X3.968Y-4.5
X3.968Y-4.6
X3.968Y-4.7
X3.968Y-4.8
X3.968Y-4.9
X3.968Y-5.0
X3.968Y-5.1
X3.968Y-5.2
X3.968Y-5.3
X3.968Y-5.4
X3.968Y-5.5
X3.968Y-5.6
X3.968Y-5.7
X3.982Y-2.0125
X3.982Y-2.3125
X3.982Y-2.5375
X3.982Y-3.1375
X3.9914Y-5.9387
X3.9914Y-6.5387
X4.0354Y-6.7247
X4.0354Y-7.3247
X4.068Y-4.5
X4.068Y-4.6
X4.068Y-5.6
X4.068Y-5.7
X4.082Y-2.0125
X4.082Y-2.3125
X4.082Y-2.5375
X4.082Y-3.1375
X4.0914Y-5.9387
X4.0914Y-6.5387
X4.1354Y-6.7247
X4.1354Y-7.3247
X4.168Y-4.5
X4.168Y-4.6
X4.168Y-5.6
X4.168Y-5.7
X4.182Y-2.5375
X4.182Y-3.1375
X4.1914Y-5.9387
X4.1914Y-6.5387
X4.209Y-2.057
X4.209Y-2.2539
X4.2354Y-6.7247
X4.2354Y-7.3247
X4.268Y-4.5
X4.268Y-4.6
X4.268Y-5.6
X4.268Y-5.7
X4.282Y-2.5375
X4.282Y-3.1375
X4.2914Y-5.9387
X4.2914Y-6.5387
X4.3354Y-6.7247
X4.3354Y-7.3247
X4.368Y-4.5
X4.368Y-4.6
X4.368Y-5.6
X4.368Y-5.7
X4.373Y-2.0125
X4.373Y-2.3125
X4.382Y-2.5375
X4.382Y-3.1375
X4.3914Y-5.9387
X4.3914Y-6.5387
X4.4354Y-6.7247
X4.4354Y-7.3247
X4.468Y-4.5
X4.468Y-4.6
X4.468Y-5.6
X4.468Y-5.7
X4.473Y-2.0125
X4.473Y-2.3125
X4.482Y-2.5375
X4.482Y-3.1375
X4.4914Y-5.9387
X4.4914Y-6.5387
X4.531Y-3.2326
X4.531Y-3.4295
X4.5354Y-6.7247
X4.5354Y-7.3247
X4.568Y-4.5
X4.568Y-4.6
X4.568Y-5.6
X4.568Y-5.7
X4.573Y-2.0125
X4.573Y-2.3125
X4.582Y-2.5375
X4.582Y-3.1375
X4.6354Y-6.7247
X4.6354Y-7.3247
X4.639Y-3.2815
X4.663Y-6.36
X4.663Y-6.4585
X4.668Y-4.5
X4.668Y-4.6
X4.668Y-5.6
X4.668Y-5.7
X4.673Y-2.0125
X4.673Y-2.3125
X4.682Y-2.5375
X4.682Y-3.1375
X4.713Y-6.0635
X4.713Y-6.2155
X4.7354Y-6.7247
X4.7354Y-7.3247
X4.768Y-4.5
X4.768Y-4.6
X4.768Y-5.6
X4.768Y-5.7
X4.773Y-2.0125
X4.773Y-2.3125
X4.782Y-2.5375
X4.782Y-3.1375
X4.787Y-6.6215
X4.8146Y-3.4195
X4.8354Y-6.7247
X4.8354Y-7.3247
X4.868Y-4.5
X4.868Y-4.6
X4.868Y-5.6
X4.868Y-5.7
X4.873Y-2.0125
X4.873Y-2.3125
X4.882Y-2.5375
X4.882Y-3.1375
X4.887Y-6.36
X4.887Y-6.4585
X4.968Y-4.5
X4.968Y-4.6
X4.968Y-4.7
X4.968Y-4.8
X4.968Y-4.9
X4.968Y-5.0
X4.968Y-5.1
X4.968Y-5.2
X4.968Y-5.3
X4.968Y-5.4
X4.968Y-5.5
X4.968Y-5.6
X4.968Y-5.7
X4.973Y-2.0125
X4.973Y-2.3125
X4.982Y-2.5375
X4.982Y-3.1375
X4.9839Y-6.6215
X5.0114Y-3.4195
X5.039Y-3.2815
X5.053Y-1.8615
X5.068Y-4.6
X5.068Y-4.7
X5.068Y-4.8
X5.068Y-4.9
X5.068Y-5.0
X5.068Y-5.1
X5.068Y-5.2
X5.068Y-5.3
X5.068Y-5.4
X5.068Y-5.5
X5.068Y-5.6
X5.073Y-2.0125
X5.073Y-2.3125
X5.082Y-2.5375
X5.082Y-3.1375
X5.107Y-6.3663
X5.107Y-6.4451
X5.113Y-6.0635
X5.113Y-6.2155
X5.1456Y-3.3675
X5.1466Y-6.9155
X5.173Y-2.0125
X5.173Y-2.3125
X5.182Y-2.5375
X5.182Y-3.1375
X5.199Y-6.0875
X5.199Y-6.2195
X5.2096Y-7.0855
X5.244Y-3.3675
X5.262Y-5.6775
X5.262Y-5.9775
X5.306Y-2.059
X5.306Y-2.2559
X5.308Y-7.0855
X5.31Y-2.5535
X5.31Y-2.6935
X5.329Y-6.3663
X5.329Y-6.4451
X5.3363Y-6.6046
X5.3363Y-6.8015
X5.3434Y-6.9155
X5.353Y-1.8615
X5.358Y-5.2605
X5.358Y-5.5605
X5.36Y-2.9055
X5.36Y-3.0976
X5.36Y-4.7479
X5.36Y-5.0479
X5.3959Y-6.0875
X5.407Y-5.6775
X5.407Y-5.9775
X5.417Y-2.3422
X5.458Y-5.2605
X5.458Y-5.5605
X5.46Y-4.7479
X5.46Y-5.0479
X5.461Y-6.553
X5.461Y-6.853
X5.494Y-4.4295
X5.499Y-6.2195
X5.5103Y-6.4075
X5.515Y-3.1003
X5.515Y-3.1987
X5.517Y-2.4422
X5.517Y-2.8053
X5.517Y-2.9037
X5.558Y-5.2605
X5.558Y-5.5605
X5.56Y-4.7479
X5.56Y-5.0479
X5.5636Y-5.1575
X5.5857Y-6.591
X5.5857Y-6.891
X5.589Y-6.4075
X5.594Y-4.4295
X5.603Y-5.9095
X5.603Y-6.2095
X5.61Y-2.5535
X5.61Y-2.6935
X5.617Y-2.3422
X5.658Y-5.2605
X5.658Y-5.5605
X5.66Y-4.7479
X5.66Y-5.0479
X5.692Y-4.5845
X5.694Y-4.4295
X5.7104Y-6.591
X5.7104Y-6.891
X5.758Y-5.2605
X5.758Y-5.5605
X5.76Y-4.7479
X5.76Y-5.0479
X5.7604Y-5.1575
X5.794Y-4.4295
X5.799Y-6.4775
X5.858Y-5.2605
X5.858Y-5.5605
X5.86Y-4.7479
X5.86Y-5.0479
X5.8636Y-5.1575
X5.894Y-4.4295
X5.958Y-5.2605
X5.958Y-5.5605
X5.96Y-4.7479
X5.96Y-5.0479
X5.994Y-4.4295
X5.997Y-6.6229
X5.997Y-6.8197
X6.058Y-5.2605
X6.058Y-5.5605
X6.06Y-4.7479
X6.06Y-5.0479
X6.0604Y-5.1575
X6.092Y-4.5845
X6.094Y-4.4295
X6.099Y-6.4775
X6.112Y-4.035
X6.112Y-4.2319
X6.113Y-3.5355
X6.113Y-3.9355
T5
X2.7957Y-5.3627
X2.7957Y-5.4415
X2.7957Y-5.5202
X2.807Y-5.7427
X2.807Y-5.8427
T6
X2.7872Y-4.7013
X2.7872Y-4.8013
X2.7872Y-4.9013
X2.7872Y-5.0013
X2.7872Y-5.1013
X2.805Y-6.0093
X2.805Y-6.1865
X2.8872Y-4.7013
X2.8872Y-4.8013
X2.8872Y-4.9013
X2.8872Y-5.0013
X2.8872Y-5.1013
X3.0111Y-2.703
X3.0111Y-2.8121
X3.0111Y-2.9211
X3.0111Y-3.0302
X3.1229Y-2.6485
X3.1229Y-2.7575
X3.1229Y-2.8666
X3.1229Y-2.9757
X3.1229Y-3.0847
X3.2988Y-3.4245
X3.3988Y-3.4245
X3.4988Y-3.4245
X3.5988Y-3.4245
X3.6988Y-3.4245
X3.7988Y-3.4245
X3.8988Y-3.4245
X5.7362Y-5.9258
X5.7362Y-6.0833
X5.7362Y-6.2407
X5.7572Y-2.6429
X5.7572Y-2.752
X5.7572Y-2.8611
X5.7572Y-2.9701
X5.7572Y-3.0792
X5.869Y-2.6975
X5.869Y-2.8065
X5.869Y-2.9156
X5.869Y-3.0246
T7
X3.721Y-3.8875
X3.721Y-4.0775
X3.821Y-3.8875
X3.821Y-4.0775
X3.921Y-3.8875
X3.921Y-4.0775
X4.021Y-3.8875
X4.021Y-4.0775
X4.121Y-3.8875
X4.121Y-4.0775
X4.221Y-3.8875
X4.221Y-4.0775
X4.321Y-3.8875
X4.321Y-4.0775
X4.421Y-3.8875
X4.421Y-4.0775
X4.521Y-3.8875
X4.521Y-4.0775
X4.621Y-3.8875
X4.621Y-4.0775
X4.721Y-3.8875
X4.721Y-4.0775
X4.821Y-3.8875
X4.821Y-4.0775
X4.921Y-3.8875
X4.921Y-4.0775
X5.021Y-3.8875
X5.021Y-4.0775
X5.121Y-3.8875
X5.121Y-4.0775
T8
X3.043Y-2.0975
X3.097Y-5.5903
X3.143Y-2.0975
X3.197Y-5.5903
X3.342Y-5.5895
X3.442Y-5.5895
X4.975Y-7.1247
X5.075Y-7.1247
T9
X5.4561Y-1.785
X5.4561Y-1.8835
X5.4583Y-7.246
X5.4583Y-7.3445
X5.653Y-2.0803
X5.6551Y-7.0492
X5.8499Y-1.785
X5.8499Y-1.8835
X5.852Y-7.246
X5.852Y-7.3445
T10
X2.7957Y-5.2801
X2.7957Y-5.6029
T11
X2.9034Y-5.9601
X2.9034Y-6.2357
T12
X6.1299Y-5.8864
X6.1299Y-6.2801
T13
X2.7799Y-7.3118
X2.8549Y-6.9366
X3.04Y-6.9366
X3.225Y-6.9366
X3.3Y-7.3118
T14
X2.839Y-1.9455
X2.902Y-6.5375
X3.067Y-2.3745
X3.067Y-3.3587
X4.3455Y-3.321
X5.8131Y-2.3689
X5.8131Y-3.3532
X6.041Y-1.9435
X6.042Y-7.2445
T15
X3.3836Y-3.9829
X5.4584Y-3.9829
T3
G00X5.4561Y-2.0902
M15
G01X5.4561Y-2.0704
M16
G05
G00X5.4583Y-7.0393
M15
G01X5.4583Y-7.0591
M16
G05
G00X5.5546Y-2.0902
M15
G01X5.5546Y-2.0704
M16
G05
G00X5.5567Y-7.0393
M15
G01X5.5567Y-7.0591
M16
G05
G00X5.6431Y-1.8835
M15
G01X5.6629Y-1.8835
M16
G05
G00X5.6651Y-7.246
M15
G01X5.6452Y-7.246
M16
G05
G00X5.7514Y-2.0902
M15
G01X5.7514Y-2.0704
M16
G05
G00X5.7536Y-7.0393
M15
G01X5.7536Y-7.0591
M16
G05
G00X5.8499Y-2.0902
M15
G01X5.8499Y-2.0704
M16
G05
G00X5.852Y-7.0393
M15
G01X5.852Y-7.0591
M16
G05
M30
