%TF.GenerationSoftware,KiCad,Pcbnew,7.0.11-7.0.11~ubuntu22.04.1*%
%TF.CreationDate,2024-08-01T20:44:47-04:00*%
%TF.ProjectId,coleco_original,636f6c65-636f-45f6-9f72-6967696e616c,DEV*%
%TF.SameCoordinates,Original*%
%TF.FileFunction,Legend,Top*%
%TF.FilePolarity,Positive*%
%FSLAX46Y46*%
G04 Gerber Fmt 4.6, Leading zero omitted, Abs format (unit mm)*
G04 Created by KiCad (PCBNEW 7.0.11-7.0.11~ubuntu22.04.1) date 2024-08-01 20:44:47*
%MOMM*%
%LPD*%
G01*
G04 APERTURE LIST*
%ADD10C,0.150000*%
%ADD11C,0.254000*%
%ADD12C,0.120000*%
%ADD13C,0.152400*%
%ADD14C,0.100000*%
%ADD15C,0.200000*%
G04 APERTURE END LIST*
D10*
X89012733Y-123739380D02*
X88965114Y-123787000D01*
X88965114Y-123787000D02*
X88822257Y-123834619D01*
X88822257Y-123834619D02*
X88727019Y-123834619D01*
X88727019Y-123834619D02*
X88584162Y-123787000D01*
X88584162Y-123787000D02*
X88488924Y-123691761D01*
X88488924Y-123691761D02*
X88441305Y-123596523D01*
X88441305Y-123596523D02*
X88393686Y-123406047D01*
X88393686Y-123406047D02*
X88393686Y-123263190D01*
X88393686Y-123263190D02*
X88441305Y-123072714D01*
X88441305Y-123072714D02*
X88488924Y-122977476D01*
X88488924Y-122977476D02*
X88584162Y-122882238D01*
X88584162Y-122882238D02*
X88727019Y-122834619D01*
X88727019Y-122834619D02*
X88822257Y-122834619D01*
X88822257Y-122834619D02*
X88965114Y-122882238D01*
X88965114Y-122882238D02*
X89012733Y-122929857D01*
X89965114Y-123834619D02*
X89393686Y-123834619D01*
X89679400Y-123834619D02*
X89679400Y-122834619D01*
X89679400Y-122834619D02*
X89584162Y-122977476D01*
X89584162Y-122977476D02*
X89488924Y-123072714D01*
X89488924Y-123072714D02*
X89393686Y-123120333D01*
X119193846Y-166452980D02*
X119146227Y-166500600D01*
X119146227Y-166500600D02*
X119003370Y-166548219D01*
X119003370Y-166548219D02*
X118908132Y-166548219D01*
X118908132Y-166548219D02*
X118765275Y-166500600D01*
X118765275Y-166500600D02*
X118670037Y-166405361D01*
X118670037Y-166405361D02*
X118622418Y-166310123D01*
X118622418Y-166310123D02*
X118574799Y-166119647D01*
X118574799Y-166119647D02*
X118574799Y-165976790D01*
X118574799Y-165976790D02*
X118622418Y-165786314D01*
X118622418Y-165786314D02*
X118670037Y-165691076D01*
X118670037Y-165691076D02*
X118765275Y-165595838D01*
X118765275Y-165595838D02*
X118908132Y-165548219D01*
X118908132Y-165548219D02*
X119003370Y-165548219D01*
X119003370Y-165548219D02*
X119146227Y-165595838D01*
X119146227Y-165595838D02*
X119193846Y-165643457D01*
X119527180Y-165548219D02*
X120146227Y-165548219D01*
X120146227Y-165548219D02*
X119812894Y-165929171D01*
X119812894Y-165929171D02*
X119955751Y-165929171D01*
X119955751Y-165929171D02*
X120050989Y-165976790D01*
X120050989Y-165976790D02*
X120098608Y-166024409D01*
X120098608Y-166024409D02*
X120146227Y-166119647D01*
X120146227Y-166119647D02*
X120146227Y-166357742D01*
X120146227Y-166357742D02*
X120098608Y-166452980D01*
X120098608Y-166452980D02*
X120050989Y-166500600D01*
X120050989Y-166500600D02*
X119955751Y-166548219D01*
X119955751Y-166548219D02*
X119670037Y-166548219D01*
X119670037Y-166548219D02*
X119574799Y-166500600D01*
X119574799Y-166500600D02*
X119527180Y-166452980D01*
X124979133Y-154721019D02*
X124502943Y-154721019D01*
X124502943Y-154721019D02*
X124502943Y-153721019D01*
X125836276Y-154721019D02*
X125264848Y-154721019D01*
X125550562Y-154721019D02*
X125550562Y-153721019D01*
X125550562Y-153721019D02*
X125455324Y-153863876D01*
X125455324Y-153863876D02*
X125360086Y-153959114D01*
X125360086Y-153959114D02*
X125264848Y-154006733D01*
X147448592Y-176046219D02*
X147115259Y-175570028D01*
X146877164Y-176046219D02*
X146877164Y-175046219D01*
X146877164Y-175046219D02*
X147258116Y-175046219D01*
X147258116Y-175046219D02*
X147353354Y-175093838D01*
X147353354Y-175093838D02*
X147400973Y-175141457D01*
X147400973Y-175141457D02*
X147448592Y-175236695D01*
X147448592Y-175236695D02*
X147448592Y-175379552D01*
X147448592Y-175379552D02*
X147400973Y-175474790D01*
X147400973Y-175474790D02*
X147353354Y-175522409D01*
X147353354Y-175522409D02*
X147258116Y-175570028D01*
X147258116Y-175570028D02*
X146877164Y-175570028D01*
X147829545Y-175141457D02*
X147877164Y-175093838D01*
X147877164Y-175093838D02*
X147972402Y-175046219D01*
X147972402Y-175046219D02*
X148210497Y-175046219D01*
X148210497Y-175046219D02*
X148305735Y-175093838D01*
X148305735Y-175093838D02*
X148353354Y-175141457D01*
X148353354Y-175141457D02*
X148400973Y-175236695D01*
X148400973Y-175236695D02*
X148400973Y-175331933D01*
X148400973Y-175331933D02*
X148353354Y-175474790D01*
X148353354Y-175474790D02*
X147781926Y-176046219D01*
X147781926Y-176046219D02*
X148400973Y-176046219D01*
X148734307Y-175046219D02*
X149400973Y-175046219D01*
X149400973Y-175046219D02*
X148972402Y-176046219D01*
X141673342Y-149234619D02*
X141340009Y-148758428D01*
X141101914Y-149234619D02*
X141101914Y-148234619D01*
X141101914Y-148234619D02*
X141482866Y-148234619D01*
X141482866Y-148234619D02*
X141578104Y-148282238D01*
X141578104Y-148282238D02*
X141625723Y-148329857D01*
X141625723Y-148329857D02*
X141673342Y-148425095D01*
X141673342Y-148425095D02*
X141673342Y-148567952D01*
X141673342Y-148567952D02*
X141625723Y-148663190D01*
X141625723Y-148663190D02*
X141578104Y-148710809D01*
X141578104Y-148710809D02*
X141482866Y-148758428D01*
X141482866Y-148758428D02*
X141101914Y-148758428D01*
X142054295Y-148329857D02*
X142101914Y-148282238D01*
X142101914Y-148282238D02*
X142197152Y-148234619D01*
X142197152Y-148234619D02*
X142435247Y-148234619D01*
X142435247Y-148234619D02*
X142530485Y-148282238D01*
X142530485Y-148282238D02*
X142578104Y-148329857D01*
X142578104Y-148329857D02*
X142625723Y-148425095D01*
X142625723Y-148425095D02*
X142625723Y-148520333D01*
X142625723Y-148520333D02*
X142578104Y-148663190D01*
X142578104Y-148663190D02*
X142006676Y-149234619D01*
X142006676Y-149234619D02*
X142625723Y-149234619D01*
X143482866Y-148234619D02*
X143292390Y-148234619D01*
X143292390Y-148234619D02*
X143197152Y-148282238D01*
X143197152Y-148282238D02*
X143149533Y-148329857D01*
X143149533Y-148329857D02*
X143054295Y-148472714D01*
X143054295Y-148472714D02*
X143006676Y-148663190D01*
X143006676Y-148663190D02*
X143006676Y-149044142D01*
X143006676Y-149044142D02*
X143054295Y-149139380D01*
X143054295Y-149139380D02*
X143101914Y-149187000D01*
X143101914Y-149187000D02*
X143197152Y-149234619D01*
X143197152Y-149234619D02*
X143387628Y-149234619D01*
X143387628Y-149234619D02*
X143482866Y-149187000D01*
X143482866Y-149187000D02*
X143530485Y-149139380D01*
X143530485Y-149139380D02*
X143578104Y-149044142D01*
X143578104Y-149044142D02*
X143578104Y-148806047D01*
X143578104Y-148806047D02*
X143530485Y-148710809D01*
X143530485Y-148710809D02*
X143482866Y-148663190D01*
X143482866Y-148663190D02*
X143387628Y-148615571D01*
X143387628Y-148615571D02*
X143197152Y-148615571D01*
X143197152Y-148615571D02*
X143101914Y-148663190D01*
X143101914Y-148663190D02*
X143054295Y-148710809D01*
X143054295Y-148710809D02*
X143006676Y-148806047D01*
X141673342Y-166252619D02*
X141340009Y-165776428D01*
X141101914Y-166252619D02*
X141101914Y-165252619D01*
X141101914Y-165252619D02*
X141482866Y-165252619D01*
X141482866Y-165252619D02*
X141578104Y-165300238D01*
X141578104Y-165300238D02*
X141625723Y-165347857D01*
X141625723Y-165347857D02*
X141673342Y-165443095D01*
X141673342Y-165443095D02*
X141673342Y-165585952D01*
X141673342Y-165585952D02*
X141625723Y-165681190D01*
X141625723Y-165681190D02*
X141578104Y-165728809D01*
X141578104Y-165728809D02*
X141482866Y-165776428D01*
X141482866Y-165776428D02*
X141101914Y-165776428D01*
X142054295Y-165347857D02*
X142101914Y-165300238D01*
X142101914Y-165300238D02*
X142197152Y-165252619D01*
X142197152Y-165252619D02*
X142435247Y-165252619D01*
X142435247Y-165252619D02*
X142530485Y-165300238D01*
X142530485Y-165300238D02*
X142578104Y-165347857D01*
X142578104Y-165347857D02*
X142625723Y-165443095D01*
X142625723Y-165443095D02*
X142625723Y-165538333D01*
X142625723Y-165538333D02*
X142578104Y-165681190D01*
X142578104Y-165681190D02*
X142006676Y-166252619D01*
X142006676Y-166252619D02*
X142625723Y-166252619D01*
X143530485Y-165252619D02*
X143054295Y-165252619D01*
X143054295Y-165252619D02*
X143006676Y-165728809D01*
X143006676Y-165728809D02*
X143054295Y-165681190D01*
X143054295Y-165681190D02*
X143149533Y-165633571D01*
X143149533Y-165633571D02*
X143387628Y-165633571D01*
X143387628Y-165633571D02*
X143482866Y-165681190D01*
X143482866Y-165681190D02*
X143530485Y-165728809D01*
X143530485Y-165728809D02*
X143578104Y-165824047D01*
X143578104Y-165824047D02*
X143578104Y-166062142D01*
X143578104Y-166062142D02*
X143530485Y-166157380D01*
X143530485Y-166157380D02*
X143482866Y-166205000D01*
X143482866Y-166205000D02*
X143387628Y-166252619D01*
X143387628Y-166252619D02*
X143149533Y-166252619D01*
X143149533Y-166252619D02*
X143054295Y-166205000D01*
X143054295Y-166205000D02*
X143006676Y-166157380D01*
X144111742Y-164220619D02*
X143778409Y-163744428D01*
X143540314Y-164220619D02*
X143540314Y-163220619D01*
X143540314Y-163220619D02*
X143921266Y-163220619D01*
X143921266Y-163220619D02*
X144016504Y-163268238D01*
X144016504Y-163268238D02*
X144064123Y-163315857D01*
X144064123Y-163315857D02*
X144111742Y-163411095D01*
X144111742Y-163411095D02*
X144111742Y-163553952D01*
X144111742Y-163553952D02*
X144064123Y-163649190D01*
X144064123Y-163649190D02*
X144016504Y-163696809D01*
X144016504Y-163696809D02*
X143921266Y-163744428D01*
X143921266Y-163744428D02*
X143540314Y-163744428D01*
X144492695Y-163315857D02*
X144540314Y-163268238D01*
X144540314Y-163268238D02*
X144635552Y-163220619D01*
X144635552Y-163220619D02*
X144873647Y-163220619D01*
X144873647Y-163220619D02*
X144968885Y-163268238D01*
X144968885Y-163268238D02*
X145016504Y-163315857D01*
X145016504Y-163315857D02*
X145064123Y-163411095D01*
X145064123Y-163411095D02*
X145064123Y-163506333D01*
X145064123Y-163506333D02*
X145016504Y-163649190D01*
X145016504Y-163649190D02*
X144445076Y-164220619D01*
X144445076Y-164220619D02*
X145064123Y-164220619D01*
X145921266Y-163553952D02*
X145921266Y-164220619D01*
X145683171Y-163173000D02*
X145445076Y-163887285D01*
X145445076Y-163887285D02*
X146064123Y-163887285D01*
X137914142Y-157616619D02*
X137580809Y-157140428D01*
X137342714Y-157616619D02*
X137342714Y-156616619D01*
X137342714Y-156616619D02*
X137723666Y-156616619D01*
X137723666Y-156616619D02*
X137818904Y-156664238D01*
X137818904Y-156664238D02*
X137866523Y-156711857D01*
X137866523Y-156711857D02*
X137914142Y-156807095D01*
X137914142Y-156807095D02*
X137914142Y-156949952D01*
X137914142Y-156949952D02*
X137866523Y-157045190D01*
X137866523Y-157045190D02*
X137818904Y-157092809D01*
X137818904Y-157092809D02*
X137723666Y-157140428D01*
X137723666Y-157140428D02*
X137342714Y-157140428D01*
X138295095Y-156711857D02*
X138342714Y-156664238D01*
X138342714Y-156664238D02*
X138437952Y-156616619D01*
X138437952Y-156616619D02*
X138676047Y-156616619D01*
X138676047Y-156616619D02*
X138771285Y-156664238D01*
X138771285Y-156664238D02*
X138818904Y-156711857D01*
X138818904Y-156711857D02*
X138866523Y-156807095D01*
X138866523Y-156807095D02*
X138866523Y-156902333D01*
X138866523Y-156902333D02*
X138818904Y-157045190D01*
X138818904Y-157045190D02*
X138247476Y-157616619D01*
X138247476Y-157616619D02*
X138866523Y-157616619D01*
X139199857Y-156616619D02*
X139818904Y-156616619D01*
X139818904Y-156616619D02*
X139485571Y-156997571D01*
X139485571Y-156997571D02*
X139628428Y-156997571D01*
X139628428Y-156997571D02*
X139723666Y-157045190D01*
X139723666Y-157045190D02*
X139771285Y-157092809D01*
X139771285Y-157092809D02*
X139818904Y-157188047D01*
X139818904Y-157188047D02*
X139818904Y-157426142D01*
X139818904Y-157426142D02*
X139771285Y-157521380D01*
X139771285Y-157521380D02*
X139723666Y-157569000D01*
X139723666Y-157569000D02*
X139628428Y-157616619D01*
X139628428Y-157616619D02*
X139342714Y-157616619D01*
X139342714Y-157616619D02*
X139247476Y-157569000D01*
X139247476Y-157569000D02*
X139199857Y-157521380D01*
X124604542Y-166157380D02*
X124556923Y-166205000D01*
X124556923Y-166205000D02*
X124414066Y-166252619D01*
X124414066Y-166252619D02*
X124318828Y-166252619D01*
X124318828Y-166252619D02*
X124175971Y-166205000D01*
X124175971Y-166205000D02*
X124080733Y-166109761D01*
X124080733Y-166109761D02*
X124033114Y-166014523D01*
X124033114Y-166014523D02*
X123985495Y-165824047D01*
X123985495Y-165824047D02*
X123985495Y-165681190D01*
X123985495Y-165681190D02*
X124033114Y-165490714D01*
X124033114Y-165490714D02*
X124080733Y-165395476D01*
X124080733Y-165395476D02*
X124175971Y-165300238D01*
X124175971Y-165300238D02*
X124318828Y-165252619D01*
X124318828Y-165252619D02*
X124414066Y-165252619D01*
X124414066Y-165252619D02*
X124556923Y-165300238D01*
X124556923Y-165300238D02*
X124604542Y-165347857D01*
X124985495Y-165347857D02*
X125033114Y-165300238D01*
X125033114Y-165300238D02*
X125128352Y-165252619D01*
X125128352Y-165252619D02*
X125366447Y-165252619D01*
X125366447Y-165252619D02*
X125461685Y-165300238D01*
X125461685Y-165300238D02*
X125509304Y-165347857D01*
X125509304Y-165347857D02*
X125556923Y-165443095D01*
X125556923Y-165443095D02*
X125556923Y-165538333D01*
X125556923Y-165538333D02*
X125509304Y-165681190D01*
X125509304Y-165681190D02*
X124937876Y-166252619D01*
X124937876Y-166252619D02*
X125556923Y-166252619D01*
X126128352Y-165681190D02*
X126033114Y-165633571D01*
X126033114Y-165633571D02*
X125985495Y-165585952D01*
X125985495Y-165585952D02*
X125937876Y-165490714D01*
X125937876Y-165490714D02*
X125937876Y-165443095D01*
X125937876Y-165443095D02*
X125985495Y-165347857D01*
X125985495Y-165347857D02*
X126033114Y-165300238D01*
X126033114Y-165300238D02*
X126128352Y-165252619D01*
X126128352Y-165252619D02*
X126318828Y-165252619D01*
X126318828Y-165252619D02*
X126414066Y-165300238D01*
X126414066Y-165300238D02*
X126461685Y-165347857D01*
X126461685Y-165347857D02*
X126509304Y-165443095D01*
X126509304Y-165443095D02*
X126509304Y-165490714D01*
X126509304Y-165490714D02*
X126461685Y-165585952D01*
X126461685Y-165585952D02*
X126414066Y-165633571D01*
X126414066Y-165633571D02*
X126318828Y-165681190D01*
X126318828Y-165681190D02*
X126128352Y-165681190D01*
X126128352Y-165681190D02*
X126033114Y-165728809D01*
X126033114Y-165728809D02*
X125985495Y-165776428D01*
X125985495Y-165776428D02*
X125937876Y-165871666D01*
X125937876Y-165871666D02*
X125937876Y-166062142D01*
X125937876Y-166062142D02*
X125985495Y-166157380D01*
X125985495Y-166157380D02*
X126033114Y-166205000D01*
X126033114Y-166205000D02*
X126128352Y-166252619D01*
X126128352Y-166252619D02*
X126318828Y-166252619D01*
X126318828Y-166252619D02*
X126414066Y-166205000D01*
X126414066Y-166205000D02*
X126461685Y-166157380D01*
X126461685Y-166157380D02*
X126509304Y-166062142D01*
X126509304Y-166062142D02*
X126509304Y-165871666D01*
X126509304Y-165871666D02*
X126461685Y-165776428D01*
X126461685Y-165776428D02*
X126414066Y-165728809D01*
X126414066Y-165728809D02*
X126318828Y-165681190D01*
X130395742Y-166258980D02*
X130348123Y-166306600D01*
X130348123Y-166306600D02*
X130205266Y-166354219D01*
X130205266Y-166354219D02*
X130110028Y-166354219D01*
X130110028Y-166354219D02*
X129967171Y-166306600D01*
X129967171Y-166306600D02*
X129871933Y-166211361D01*
X129871933Y-166211361D02*
X129824314Y-166116123D01*
X129824314Y-166116123D02*
X129776695Y-165925647D01*
X129776695Y-165925647D02*
X129776695Y-165782790D01*
X129776695Y-165782790D02*
X129824314Y-165592314D01*
X129824314Y-165592314D02*
X129871933Y-165497076D01*
X129871933Y-165497076D02*
X129967171Y-165401838D01*
X129967171Y-165401838D02*
X130110028Y-165354219D01*
X130110028Y-165354219D02*
X130205266Y-165354219D01*
X130205266Y-165354219D02*
X130348123Y-165401838D01*
X130348123Y-165401838D02*
X130395742Y-165449457D01*
X130776695Y-165449457D02*
X130824314Y-165401838D01*
X130824314Y-165401838D02*
X130919552Y-165354219D01*
X130919552Y-165354219D02*
X131157647Y-165354219D01*
X131157647Y-165354219D02*
X131252885Y-165401838D01*
X131252885Y-165401838D02*
X131300504Y-165449457D01*
X131300504Y-165449457D02*
X131348123Y-165544695D01*
X131348123Y-165544695D02*
X131348123Y-165639933D01*
X131348123Y-165639933D02*
X131300504Y-165782790D01*
X131300504Y-165782790D02*
X130729076Y-166354219D01*
X130729076Y-166354219D02*
X131348123Y-166354219D01*
X131681457Y-165354219D02*
X132348123Y-165354219D01*
X132348123Y-165354219D02*
X131919552Y-166354219D01*
X138472942Y-159350180D02*
X138425323Y-159397800D01*
X138425323Y-159397800D02*
X138282466Y-159445419D01*
X138282466Y-159445419D02*
X138187228Y-159445419D01*
X138187228Y-159445419D02*
X138044371Y-159397800D01*
X138044371Y-159397800D02*
X137949133Y-159302561D01*
X137949133Y-159302561D02*
X137901514Y-159207323D01*
X137901514Y-159207323D02*
X137853895Y-159016847D01*
X137853895Y-159016847D02*
X137853895Y-158873990D01*
X137853895Y-158873990D02*
X137901514Y-158683514D01*
X137901514Y-158683514D02*
X137949133Y-158588276D01*
X137949133Y-158588276D02*
X138044371Y-158493038D01*
X138044371Y-158493038D02*
X138187228Y-158445419D01*
X138187228Y-158445419D02*
X138282466Y-158445419D01*
X138282466Y-158445419D02*
X138425323Y-158493038D01*
X138425323Y-158493038D02*
X138472942Y-158540657D01*
X138853895Y-158540657D02*
X138901514Y-158493038D01*
X138901514Y-158493038D02*
X138996752Y-158445419D01*
X138996752Y-158445419D02*
X139234847Y-158445419D01*
X139234847Y-158445419D02*
X139330085Y-158493038D01*
X139330085Y-158493038D02*
X139377704Y-158540657D01*
X139377704Y-158540657D02*
X139425323Y-158635895D01*
X139425323Y-158635895D02*
X139425323Y-158731133D01*
X139425323Y-158731133D02*
X139377704Y-158873990D01*
X139377704Y-158873990D02*
X138806276Y-159445419D01*
X138806276Y-159445419D02*
X139425323Y-159445419D01*
X140282466Y-158445419D02*
X140091990Y-158445419D01*
X140091990Y-158445419D02*
X139996752Y-158493038D01*
X139996752Y-158493038D02*
X139949133Y-158540657D01*
X139949133Y-158540657D02*
X139853895Y-158683514D01*
X139853895Y-158683514D02*
X139806276Y-158873990D01*
X139806276Y-158873990D02*
X139806276Y-159254942D01*
X139806276Y-159254942D02*
X139853895Y-159350180D01*
X139853895Y-159350180D02*
X139901514Y-159397800D01*
X139901514Y-159397800D02*
X139996752Y-159445419D01*
X139996752Y-159445419D02*
X140187228Y-159445419D01*
X140187228Y-159445419D02*
X140282466Y-159397800D01*
X140282466Y-159397800D02*
X140330085Y-159350180D01*
X140330085Y-159350180D02*
X140377704Y-159254942D01*
X140377704Y-159254942D02*
X140377704Y-159016847D01*
X140377704Y-159016847D02*
X140330085Y-158921609D01*
X140330085Y-158921609D02*
X140282466Y-158873990D01*
X140282466Y-158873990D02*
X140187228Y-158826371D01*
X140187228Y-158826371D02*
X139996752Y-158826371D01*
X139996752Y-158826371D02*
X139901514Y-158873990D01*
X139901514Y-158873990D02*
X139853895Y-158921609D01*
X139853895Y-158921609D02*
X139806276Y-159016847D01*
X132732542Y-184038980D02*
X132684923Y-184086600D01*
X132684923Y-184086600D02*
X132542066Y-184134219D01*
X132542066Y-184134219D02*
X132446828Y-184134219D01*
X132446828Y-184134219D02*
X132303971Y-184086600D01*
X132303971Y-184086600D02*
X132208733Y-183991361D01*
X132208733Y-183991361D02*
X132161114Y-183896123D01*
X132161114Y-183896123D02*
X132113495Y-183705647D01*
X132113495Y-183705647D02*
X132113495Y-183562790D01*
X132113495Y-183562790D02*
X132161114Y-183372314D01*
X132161114Y-183372314D02*
X132208733Y-183277076D01*
X132208733Y-183277076D02*
X132303971Y-183181838D01*
X132303971Y-183181838D02*
X132446828Y-183134219D01*
X132446828Y-183134219D02*
X132542066Y-183134219D01*
X132542066Y-183134219D02*
X132684923Y-183181838D01*
X132684923Y-183181838D02*
X132732542Y-183229457D01*
X133113495Y-183229457D02*
X133161114Y-183181838D01*
X133161114Y-183181838D02*
X133256352Y-183134219D01*
X133256352Y-183134219D02*
X133494447Y-183134219D01*
X133494447Y-183134219D02*
X133589685Y-183181838D01*
X133589685Y-183181838D02*
X133637304Y-183229457D01*
X133637304Y-183229457D02*
X133684923Y-183324695D01*
X133684923Y-183324695D02*
X133684923Y-183419933D01*
X133684923Y-183419933D02*
X133637304Y-183562790D01*
X133637304Y-183562790D02*
X133065876Y-184134219D01*
X133065876Y-184134219D02*
X133684923Y-184134219D01*
X134542066Y-183467552D02*
X134542066Y-184134219D01*
X134303971Y-183086600D02*
X134065876Y-183800885D01*
X134065876Y-183800885D02*
X134684923Y-183800885D01*
X132395933Y-157622980D02*
X132348314Y-157670600D01*
X132348314Y-157670600D02*
X132205457Y-157718219D01*
X132205457Y-157718219D02*
X132110219Y-157718219D01*
X132110219Y-157718219D02*
X131967362Y-157670600D01*
X131967362Y-157670600D02*
X131872124Y-157575361D01*
X131872124Y-157575361D02*
X131824505Y-157480123D01*
X131824505Y-157480123D02*
X131776886Y-157289647D01*
X131776886Y-157289647D02*
X131776886Y-157146790D01*
X131776886Y-157146790D02*
X131824505Y-156956314D01*
X131824505Y-156956314D02*
X131872124Y-156861076D01*
X131872124Y-156861076D02*
X131967362Y-156765838D01*
X131967362Y-156765838D02*
X132110219Y-156718219D01*
X132110219Y-156718219D02*
X132205457Y-156718219D01*
X132205457Y-156718219D02*
X132348314Y-156765838D01*
X132348314Y-156765838D02*
X132395933Y-156813457D01*
X133253076Y-157051552D02*
X133253076Y-157718219D01*
X133014981Y-156670600D02*
X132776886Y-157384885D01*
X132776886Y-157384885D02*
X133395933Y-157384885D01*
X133762809Y-83074028D02*
X133762809Y-83550219D01*
X133429476Y-82550219D02*
X133762809Y-83074028D01*
X133762809Y-83074028D02*
X134096142Y-82550219D01*
X134953285Y-83550219D02*
X134381857Y-83550219D01*
X134667571Y-83550219D02*
X134667571Y-82550219D01*
X134667571Y-82550219D02*
X134572333Y-82693076D01*
X134572333Y-82693076D02*
X134477095Y-82788314D01*
X134477095Y-82788314D02*
X134381857Y-82835933D01*
X139711133Y-144459419D02*
X139377800Y-143983228D01*
X139139705Y-144459419D02*
X139139705Y-143459419D01*
X139139705Y-143459419D02*
X139520657Y-143459419D01*
X139520657Y-143459419D02*
X139615895Y-143507038D01*
X139615895Y-143507038D02*
X139663514Y-143554657D01*
X139663514Y-143554657D02*
X139711133Y-143649895D01*
X139711133Y-143649895D02*
X139711133Y-143792752D01*
X139711133Y-143792752D02*
X139663514Y-143887990D01*
X139663514Y-143887990D02*
X139615895Y-143935609D01*
X139615895Y-143935609D02*
X139520657Y-143983228D01*
X139520657Y-143983228D02*
X139139705Y-143983228D01*
X140568276Y-143459419D02*
X140377800Y-143459419D01*
X140377800Y-143459419D02*
X140282562Y-143507038D01*
X140282562Y-143507038D02*
X140234943Y-143554657D01*
X140234943Y-143554657D02*
X140139705Y-143697514D01*
X140139705Y-143697514D02*
X140092086Y-143887990D01*
X140092086Y-143887990D02*
X140092086Y-144268942D01*
X140092086Y-144268942D02*
X140139705Y-144364180D01*
X140139705Y-144364180D02*
X140187324Y-144411800D01*
X140187324Y-144411800D02*
X140282562Y-144459419D01*
X140282562Y-144459419D02*
X140473038Y-144459419D01*
X140473038Y-144459419D02*
X140568276Y-144411800D01*
X140568276Y-144411800D02*
X140615895Y-144364180D01*
X140615895Y-144364180D02*
X140663514Y-144268942D01*
X140663514Y-144268942D02*
X140663514Y-144030847D01*
X140663514Y-144030847D02*
X140615895Y-143935609D01*
X140615895Y-143935609D02*
X140568276Y-143887990D01*
X140568276Y-143887990D02*
X140473038Y-143840371D01*
X140473038Y-143840371D02*
X140282562Y-143840371D01*
X140282562Y-143840371D02*
X140187324Y-143887990D01*
X140187324Y-143887990D02*
X140139705Y-143935609D01*
X140139705Y-143935609D02*
X140092086Y-144030847D01*
X152831895Y-56296019D02*
X152831895Y-55296019D01*
X152831895Y-55772209D02*
X153403323Y-55772209D01*
X153403323Y-56296019D02*
X153403323Y-55296019D01*
X154308085Y-55296019D02*
X154117609Y-55296019D01*
X154117609Y-55296019D02*
X154022371Y-55343638D01*
X154022371Y-55343638D02*
X153974752Y-55391257D01*
X153974752Y-55391257D02*
X153879514Y-55534114D01*
X153879514Y-55534114D02*
X153831895Y-55724590D01*
X153831895Y-55724590D02*
X153831895Y-56105542D01*
X153831895Y-56105542D02*
X153879514Y-56200780D01*
X153879514Y-56200780D02*
X153927133Y-56248400D01*
X153927133Y-56248400D02*
X154022371Y-56296019D01*
X154022371Y-56296019D02*
X154212847Y-56296019D01*
X154212847Y-56296019D02*
X154308085Y-56248400D01*
X154308085Y-56248400D02*
X154355704Y-56200780D01*
X154355704Y-56200780D02*
X154403323Y-56105542D01*
X154403323Y-56105542D02*
X154403323Y-55867447D01*
X154403323Y-55867447D02*
X154355704Y-55772209D01*
X154355704Y-55772209D02*
X154308085Y-55724590D01*
X154308085Y-55724590D02*
X154212847Y-55676971D01*
X154212847Y-55676971D02*
X154022371Y-55676971D01*
X154022371Y-55676971D02*
X153927133Y-55724590D01*
X153927133Y-55724590D02*
X153879514Y-55772209D01*
X153879514Y-55772209D02*
X153831895Y-55867447D01*
X130886295Y-62204819D02*
X130886295Y-63014342D01*
X130886295Y-63014342D02*
X130933914Y-63109580D01*
X130933914Y-63109580D02*
X130981533Y-63157200D01*
X130981533Y-63157200D02*
X131076771Y-63204819D01*
X131076771Y-63204819D02*
X131267247Y-63204819D01*
X131267247Y-63204819D02*
X131362485Y-63157200D01*
X131362485Y-63157200D02*
X131410104Y-63109580D01*
X131410104Y-63109580D02*
X131457723Y-63014342D01*
X131457723Y-63014342D02*
X131457723Y-62204819D01*
X132362485Y-62204819D02*
X132172009Y-62204819D01*
X132172009Y-62204819D02*
X132076771Y-62252438D01*
X132076771Y-62252438D02*
X132029152Y-62300057D01*
X132029152Y-62300057D02*
X131933914Y-62442914D01*
X131933914Y-62442914D02*
X131886295Y-62633390D01*
X131886295Y-62633390D02*
X131886295Y-63014342D01*
X131886295Y-63014342D02*
X131933914Y-63109580D01*
X131933914Y-63109580D02*
X131981533Y-63157200D01*
X131981533Y-63157200D02*
X132076771Y-63204819D01*
X132076771Y-63204819D02*
X132267247Y-63204819D01*
X132267247Y-63204819D02*
X132362485Y-63157200D01*
X132362485Y-63157200D02*
X132410104Y-63109580D01*
X132410104Y-63109580D02*
X132457723Y-63014342D01*
X132457723Y-63014342D02*
X132457723Y-62776247D01*
X132457723Y-62776247D02*
X132410104Y-62681009D01*
X132410104Y-62681009D02*
X132362485Y-62633390D01*
X132362485Y-62633390D02*
X132267247Y-62585771D01*
X132267247Y-62585771D02*
X132076771Y-62585771D01*
X132076771Y-62585771D02*
X131981533Y-62633390D01*
X131981533Y-62633390D02*
X131933914Y-62681009D01*
X131933914Y-62681009D02*
X131886295Y-62776247D01*
X78025666Y-53035419D02*
X78025666Y-53749704D01*
X78025666Y-53749704D02*
X77978047Y-53892561D01*
X77978047Y-53892561D02*
X77882809Y-53987800D01*
X77882809Y-53987800D02*
X77739952Y-54035419D01*
X77739952Y-54035419D02*
X77644714Y-54035419D01*
X78406619Y-53035419D02*
X79025666Y-53035419D01*
X79025666Y-53035419D02*
X78692333Y-53416371D01*
X78692333Y-53416371D02*
X78835190Y-53416371D01*
X78835190Y-53416371D02*
X78930428Y-53463990D01*
X78930428Y-53463990D02*
X78978047Y-53511609D01*
X78978047Y-53511609D02*
X79025666Y-53606847D01*
X79025666Y-53606847D02*
X79025666Y-53844942D01*
X79025666Y-53844942D02*
X78978047Y-53940180D01*
X78978047Y-53940180D02*
X78930428Y-53987800D01*
X78930428Y-53987800D02*
X78835190Y-54035419D01*
X78835190Y-54035419D02*
X78549476Y-54035419D01*
X78549476Y-54035419D02*
X78454238Y-53987800D01*
X78454238Y-53987800D02*
X78406619Y-53940180D01*
X80413266Y-89078019D02*
X80413266Y-89792304D01*
X80413266Y-89792304D02*
X80365647Y-89935161D01*
X80365647Y-89935161D02*
X80270409Y-90030400D01*
X80270409Y-90030400D02*
X80127552Y-90078019D01*
X80127552Y-90078019D02*
X80032314Y-90078019D01*
X81365647Y-89078019D02*
X80889457Y-89078019D01*
X80889457Y-89078019D02*
X80841838Y-89554209D01*
X80841838Y-89554209D02*
X80889457Y-89506590D01*
X80889457Y-89506590D02*
X80984695Y-89458971D01*
X80984695Y-89458971D02*
X81222790Y-89458971D01*
X81222790Y-89458971D02*
X81318028Y-89506590D01*
X81318028Y-89506590D02*
X81365647Y-89554209D01*
X81365647Y-89554209D02*
X81413266Y-89649447D01*
X81413266Y-89649447D02*
X81413266Y-89887542D01*
X81413266Y-89887542D02*
X81365647Y-89982780D01*
X81365647Y-89982780D02*
X81318028Y-90030400D01*
X81318028Y-90030400D02*
X81222790Y-90078019D01*
X81222790Y-90078019D02*
X80984695Y-90078019D01*
X80984695Y-90078019D02*
X80889457Y-90030400D01*
X80889457Y-90030400D02*
X80841838Y-89982780D01*
X72903419Y-95650857D02*
X72427228Y-95984190D01*
X72903419Y-96222285D02*
X71903419Y-96222285D01*
X71903419Y-96222285D02*
X71903419Y-95841333D01*
X71903419Y-95841333D02*
X71951038Y-95746095D01*
X71951038Y-95746095D02*
X71998657Y-95698476D01*
X71998657Y-95698476D02*
X72093895Y-95650857D01*
X72093895Y-95650857D02*
X72236752Y-95650857D01*
X72236752Y-95650857D02*
X72331990Y-95698476D01*
X72331990Y-95698476D02*
X72379609Y-95746095D01*
X72379609Y-95746095D02*
X72427228Y-95841333D01*
X72427228Y-95841333D02*
X72427228Y-96222285D01*
X72903419Y-94698476D02*
X72903419Y-95269904D01*
X72903419Y-94984190D02*
X71903419Y-94984190D01*
X71903419Y-94984190D02*
X72046276Y-95079428D01*
X72046276Y-95079428D02*
X72141514Y-95174666D01*
X72141514Y-95174666D02*
X72189133Y-95269904D01*
X72903419Y-94222285D02*
X72903419Y-94031809D01*
X72903419Y-94031809D02*
X72855800Y-93936571D01*
X72855800Y-93936571D02*
X72808180Y-93888952D01*
X72808180Y-93888952D02*
X72665323Y-93793714D01*
X72665323Y-93793714D02*
X72474847Y-93746095D01*
X72474847Y-93746095D02*
X72093895Y-93746095D01*
X72093895Y-93746095D02*
X71998657Y-93793714D01*
X71998657Y-93793714D02*
X71951038Y-93841333D01*
X71951038Y-93841333D02*
X71903419Y-93936571D01*
X71903419Y-93936571D02*
X71903419Y-94127047D01*
X71903419Y-94127047D02*
X71951038Y-94222285D01*
X71951038Y-94222285D02*
X71998657Y-94269904D01*
X71998657Y-94269904D02*
X72093895Y-94317523D01*
X72093895Y-94317523D02*
X72331990Y-94317523D01*
X72331990Y-94317523D02*
X72427228Y-94269904D01*
X72427228Y-94269904D02*
X72474847Y-94222285D01*
X72474847Y-94222285D02*
X72522466Y-94127047D01*
X72522466Y-94127047D02*
X72522466Y-93936571D01*
X72522466Y-93936571D02*
X72474847Y-93841333D01*
X72474847Y-93841333D02*
X72427228Y-93793714D01*
X72427228Y-93793714D02*
X72331990Y-93746095D01*
X85209142Y-115909819D02*
X84875809Y-115433628D01*
X84637714Y-115909819D02*
X84637714Y-114909819D01*
X84637714Y-114909819D02*
X85018666Y-114909819D01*
X85018666Y-114909819D02*
X85113904Y-114957438D01*
X85113904Y-114957438D02*
X85161523Y-115005057D01*
X85161523Y-115005057D02*
X85209142Y-115100295D01*
X85209142Y-115100295D02*
X85209142Y-115243152D01*
X85209142Y-115243152D02*
X85161523Y-115338390D01*
X85161523Y-115338390D02*
X85113904Y-115386009D01*
X85113904Y-115386009D02*
X85018666Y-115433628D01*
X85018666Y-115433628D02*
X84637714Y-115433628D01*
X86161523Y-115909819D02*
X85590095Y-115909819D01*
X85875809Y-115909819D02*
X85875809Y-114909819D01*
X85875809Y-114909819D02*
X85780571Y-115052676D01*
X85780571Y-115052676D02*
X85685333Y-115147914D01*
X85685333Y-115147914D02*
X85590095Y-115195533D01*
X87018666Y-115243152D02*
X87018666Y-115909819D01*
X86780571Y-114862200D02*
X86542476Y-115576485D01*
X86542476Y-115576485D02*
X87161523Y-115576485D01*
X87164942Y-147837619D02*
X86831609Y-147361428D01*
X86593514Y-147837619D02*
X86593514Y-146837619D01*
X86593514Y-146837619D02*
X86974466Y-146837619D01*
X86974466Y-146837619D02*
X87069704Y-146885238D01*
X87069704Y-146885238D02*
X87117323Y-146932857D01*
X87117323Y-146932857D02*
X87164942Y-147028095D01*
X87164942Y-147028095D02*
X87164942Y-147170952D01*
X87164942Y-147170952D02*
X87117323Y-147266190D01*
X87117323Y-147266190D02*
X87069704Y-147313809D01*
X87069704Y-147313809D02*
X86974466Y-147361428D01*
X86974466Y-147361428D02*
X86593514Y-147361428D01*
X87545895Y-146932857D02*
X87593514Y-146885238D01*
X87593514Y-146885238D02*
X87688752Y-146837619D01*
X87688752Y-146837619D02*
X87926847Y-146837619D01*
X87926847Y-146837619D02*
X88022085Y-146885238D01*
X88022085Y-146885238D02*
X88069704Y-146932857D01*
X88069704Y-146932857D02*
X88117323Y-147028095D01*
X88117323Y-147028095D02*
X88117323Y-147123333D01*
X88117323Y-147123333D02*
X88069704Y-147266190D01*
X88069704Y-147266190D02*
X87498276Y-147837619D01*
X87498276Y-147837619D02*
X88117323Y-147837619D01*
X88498276Y-146932857D02*
X88545895Y-146885238D01*
X88545895Y-146885238D02*
X88641133Y-146837619D01*
X88641133Y-146837619D02*
X88879228Y-146837619D01*
X88879228Y-146837619D02*
X88974466Y-146885238D01*
X88974466Y-146885238D02*
X89022085Y-146932857D01*
X89022085Y-146932857D02*
X89069704Y-147028095D01*
X89069704Y-147028095D02*
X89069704Y-147123333D01*
X89069704Y-147123333D02*
X89022085Y-147266190D01*
X89022085Y-147266190D02*
X88450657Y-147837619D01*
X88450657Y-147837619D02*
X89069704Y-147837619D01*
X79370323Y-110563419D02*
X79036990Y-110087228D01*
X78798895Y-110563419D02*
X78798895Y-109563419D01*
X78798895Y-109563419D02*
X79179847Y-109563419D01*
X79179847Y-109563419D02*
X79275085Y-109611038D01*
X79275085Y-109611038D02*
X79322704Y-109658657D01*
X79322704Y-109658657D02*
X79370323Y-109753895D01*
X79370323Y-109753895D02*
X79370323Y-109896752D01*
X79370323Y-109896752D02*
X79322704Y-109991990D01*
X79322704Y-109991990D02*
X79275085Y-110039609D01*
X79275085Y-110039609D02*
X79179847Y-110087228D01*
X79179847Y-110087228D02*
X78798895Y-110087228D01*
X79798895Y-110563419D02*
X79798895Y-109563419D01*
X79798895Y-109563419D02*
X80370323Y-110563419D01*
X80370323Y-110563419D02*
X80370323Y-109563419D01*
X81370323Y-110563419D02*
X80798895Y-110563419D01*
X81084609Y-110563419D02*
X81084609Y-109563419D01*
X81084609Y-109563419D02*
X80989371Y-109706276D01*
X80989371Y-109706276D02*
X80894133Y-109801514D01*
X80894133Y-109801514D02*
X80798895Y-109849133D01*
X74845942Y-145043619D02*
X74512609Y-144567428D01*
X74274514Y-145043619D02*
X74274514Y-144043619D01*
X74274514Y-144043619D02*
X74655466Y-144043619D01*
X74655466Y-144043619D02*
X74750704Y-144091238D01*
X74750704Y-144091238D02*
X74798323Y-144138857D01*
X74798323Y-144138857D02*
X74845942Y-144234095D01*
X74845942Y-144234095D02*
X74845942Y-144376952D01*
X74845942Y-144376952D02*
X74798323Y-144472190D01*
X74798323Y-144472190D02*
X74750704Y-144519809D01*
X74750704Y-144519809D02*
X74655466Y-144567428D01*
X74655466Y-144567428D02*
X74274514Y-144567428D01*
X75226895Y-144138857D02*
X75274514Y-144091238D01*
X75274514Y-144091238D02*
X75369752Y-144043619D01*
X75369752Y-144043619D02*
X75607847Y-144043619D01*
X75607847Y-144043619D02*
X75703085Y-144091238D01*
X75703085Y-144091238D02*
X75750704Y-144138857D01*
X75750704Y-144138857D02*
X75798323Y-144234095D01*
X75798323Y-144234095D02*
X75798323Y-144329333D01*
X75798323Y-144329333D02*
X75750704Y-144472190D01*
X75750704Y-144472190D02*
X75179276Y-145043619D01*
X75179276Y-145043619D02*
X75798323Y-145043619D01*
X76750704Y-145043619D02*
X76179276Y-145043619D01*
X76464990Y-145043619D02*
X76464990Y-144043619D01*
X76464990Y-144043619D02*
X76369752Y-144186476D01*
X76369752Y-144186476D02*
X76274514Y-144281714D01*
X76274514Y-144281714D02*
X76179276Y-144329333D01*
X77139895Y-166684419D02*
X77139895Y-165684419D01*
X77139895Y-166160609D02*
X77711323Y-166160609D01*
X77711323Y-166684419D02*
X77711323Y-165684419D01*
X78139895Y-165779657D02*
X78187514Y-165732038D01*
X78187514Y-165732038D02*
X78282752Y-165684419D01*
X78282752Y-165684419D02*
X78520847Y-165684419D01*
X78520847Y-165684419D02*
X78616085Y-165732038D01*
X78616085Y-165732038D02*
X78663704Y-165779657D01*
X78663704Y-165779657D02*
X78711323Y-165874895D01*
X78711323Y-165874895D02*
X78711323Y-165970133D01*
X78711323Y-165970133D02*
X78663704Y-166112990D01*
X78663704Y-166112990D02*
X78092276Y-166684419D01*
X78092276Y-166684419D02*
X78711323Y-166684419D01*
X86881619Y-179188504D02*
X87691142Y-179188504D01*
X87691142Y-179188504D02*
X87786380Y-179140885D01*
X87786380Y-179140885D02*
X87834000Y-179093266D01*
X87834000Y-179093266D02*
X87881619Y-178998028D01*
X87881619Y-178998028D02*
X87881619Y-178807552D01*
X87881619Y-178807552D02*
X87834000Y-178712314D01*
X87834000Y-178712314D02*
X87786380Y-178664695D01*
X87786380Y-178664695D02*
X87691142Y-178617076D01*
X87691142Y-178617076D02*
X86881619Y-178617076D01*
X87214952Y-177712314D02*
X87881619Y-177712314D01*
X86834000Y-177950409D02*
X87548285Y-178188504D01*
X87548285Y-178188504D02*
X87548285Y-177569457D01*
X108217619Y-54672704D02*
X109027142Y-54672704D01*
X109027142Y-54672704D02*
X109122380Y-54625085D01*
X109122380Y-54625085D02*
X109170000Y-54577466D01*
X109170000Y-54577466D02*
X109217619Y-54482228D01*
X109217619Y-54482228D02*
X109217619Y-54291752D01*
X109217619Y-54291752D02*
X109170000Y-54196514D01*
X109170000Y-54196514D02*
X109122380Y-54148895D01*
X109122380Y-54148895D02*
X109027142Y-54101276D01*
X109027142Y-54101276D02*
X108217619Y-54101276D01*
X108217619Y-53720323D02*
X108217619Y-53053657D01*
X108217619Y-53053657D02*
X109217619Y-53482228D01*
X150720466Y-45491619D02*
X150720466Y-46205904D01*
X150720466Y-46205904D02*
X150672847Y-46348761D01*
X150672847Y-46348761D02*
X150577609Y-46444000D01*
X150577609Y-46444000D02*
X150434752Y-46491619D01*
X150434752Y-46491619D02*
X150339514Y-46491619D01*
X151339514Y-45920190D02*
X151244276Y-45872571D01*
X151244276Y-45872571D02*
X151196657Y-45824952D01*
X151196657Y-45824952D02*
X151149038Y-45729714D01*
X151149038Y-45729714D02*
X151149038Y-45682095D01*
X151149038Y-45682095D02*
X151196657Y-45586857D01*
X151196657Y-45586857D02*
X151244276Y-45539238D01*
X151244276Y-45539238D02*
X151339514Y-45491619D01*
X151339514Y-45491619D02*
X151529990Y-45491619D01*
X151529990Y-45491619D02*
X151625228Y-45539238D01*
X151625228Y-45539238D02*
X151672847Y-45586857D01*
X151672847Y-45586857D02*
X151720466Y-45682095D01*
X151720466Y-45682095D02*
X151720466Y-45729714D01*
X151720466Y-45729714D02*
X151672847Y-45824952D01*
X151672847Y-45824952D02*
X151625228Y-45872571D01*
X151625228Y-45872571D02*
X151529990Y-45920190D01*
X151529990Y-45920190D02*
X151339514Y-45920190D01*
X151339514Y-45920190D02*
X151244276Y-45967809D01*
X151244276Y-45967809D02*
X151196657Y-46015428D01*
X151196657Y-46015428D02*
X151149038Y-46110666D01*
X151149038Y-46110666D02*
X151149038Y-46301142D01*
X151149038Y-46301142D02*
X151196657Y-46396380D01*
X151196657Y-46396380D02*
X151244276Y-46444000D01*
X151244276Y-46444000D02*
X151339514Y-46491619D01*
X151339514Y-46491619D02*
X151529990Y-46491619D01*
X151529990Y-46491619D02*
X151625228Y-46444000D01*
X151625228Y-46444000D02*
X151672847Y-46396380D01*
X151672847Y-46396380D02*
X151720466Y-46301142D01*
X151720466Y-46301142D02*
X151720466Y-46110666D01*
X151720466Y-46110666D02*
X151672847Y-46015428D01*
X151672847Y-46015428D02*
X151625228Y-45967809D01*
X151625228Y-45967809D02*
X151529990Y-45920190D01*
X79251276Y-142138619D02*
X79251276Y-142852904D01*
X79251276Y-142852904D02*
X79203657Y-142995761D01*
X79203657Y-142995761D02*
X79108419Y-143091000D01*
X79108419Y-143091000D02*
X78965562Y-143138619D01*
X78965562Y-143138619D02*
X78870324Y-143138619D01*
X80251276Y-143138619D02*
X79679848Y-143138619D01*
X79965562Y-143138619D02*
X79965562Y-142138619D01*
X79965562Y-142138619D02*
X79870324Y-142281476D01*
X79870324Y-142281476D02*
X79775086Y-142376714D01*
X79775086Y-142376714D02*
X79679848Y-142424333D01*
X81203657Y-143138619D02*
X80632229Y-143138619D01*
X80917943Y-143138619D02*
X80917943Y-142138619D01*
X80917943Y-142138619D02*
X80822705Y-142281476D01*
X80822705Y-142281476D02*
X80727467Y-142376714D01*
X80727467Y-142376714D02*
X80632229Y-142424333D01*
X78782942Y-171745380D02*
X78735323Y-171793000D01*
X78735323Y-171793000D02*
X78592466Y-171840619D01*
X78592466Y-171840619D02*
X78497228Y-171840619D01*
X78497228Y-171840619D02*
X78354371Y-171793000D01*
X78354371Y-171793000D02*
X78259133Y-171697761D01*
X78259133Y-171697761D02*
X78211514Y-171602523D01*
X78211514Y-171602523D02*
X78163895Y-171412047D01*
X78163895Y-171412047D02*
X78163895Y-171269190D01*
X78163895Y-171269190D02*
X78211514Y-171078714D01*
X78211514Y-171078714D02*
X78259133Y-170983476D01*
X78259133Y-170983476D02*
X78354371Y-170888238D01*
X78354371Y-170888238D02*
X78497228Y-170840619D01*
X78497228Y-170840619D02*
X78592466Y-170840619D01*
X78592466Y-170840619D02*
X78735323Y-170888238D01*
X78735323Y-170888238D02*
X78782942Y-170935857D01*
X79735323Y-171840619D02*
X79163895Y-171840619D01*
X79449609Y-171840619D02*
X79449609Y-170840619D01*
X79449609Y-170840619D02*
X79354371Y-170983476D01*
X79354371Y-170983476D02*
X79259133Y-171078714D01*
X79259133Y-171078714D02*
X79163895Y-171126333D01*
X80354371Y-170840619D02*
X80449609Y-170840619D01*
X80449609Y-170840619D02*
X80544847Y-170888238D01*
X80544847Y-170888238D02*
X80592466Y-170935857D01*
X80592466Y-170935857D02*
X80640085Y-171031095D01*
X80640085Y-171031095D02*
X80687704Y-171221571D01*
X80687704Y-171221571D02*
X80687704Y-171459666D01*
X80687704Y-171459666D02*
X80640085Y-171650142D01*
X80640085Y-171650142D02*
X80592466Y-171745380D01*
X80592466Y-171745380D02*
X80544847Y-171793000D01*
X80544847Y-171793000D02*
X80449609Y-171840619D01*
X80449609Y-171840619D02*
X80354371Y-171840619D01*
X80354371Y-171840619D02*
X80259133Y-171793000D01*
X80259133Y-171793000D02*
X80211514Y-171745380D01*
X80211514Y-171745380D02*
X80163895Y-171650142D01*
X80163895Y-171650142D02*
X80116276Y-171459666D01*
X80116276Y-171459666D02*
X80116276Y-171221571D01*
X80116276Y-171221571D02*
X80163895Y-171031095D01*
X80163895Y-171031095D02*
X80211514Y-170935857D01*
X80211514Y-170935857D02*
X80259133Y-170888238D01*
X80259133Y-170888238D02*
X80354371Y-170840619D01*
X72988980Y-105723857D02*
X73036600Y-105771476D01*
X73036600Y-105771476D02*
X73084219Y-105914333D01*
X73084219Y-105914333D02*
X73084219Y-106009571D01*
X73084219Y-106009571D02*
X73036600Y-106152428D01*
X73036600Y-106152428D02*
X72941361Y-106247666D01*
X72941361Y-106247666D02*
X72846123Y-106295285D01*
X72846123Y-106295285D02*
X72655647Y-106342904D01*
X72655647Y-106342904D02*
X72512790Y-106342904D01*
X72512790Y-106342904D02*
X72322314Y-106295285D01*
X72322314Y-106295285D02*
X72227076Y-106247666D01*
X72227076Y-106247666D02*
X72131838Y-106152428D01*
X72131838Y-106152428D02*
X72084219Y-106009571D01*
X72084219Y-106009571D02*
X72084219Y-105914333D01*
X72084219Y-105914333D02*
X72131838Y-105771476D01*
X72131838Y-105771476D02*
X72179457Y-105723857D01*
X72179457Y-105342904D02*
X72131838Y-105295285D01*
X72131838Y-105295285D02*
X72084219Y-105200047D01*
X72084219Y-105200047D02*
X72084219Y-104961952D01*
X72084219Y-104961952D02*
X72131838Y-104866714D01*
X72131838Y-104866714D02*
X72179457Y-104819095D01*
X72179457Y-104819095D02*
X72274695Y-104771476D01*
X72274695Y-104771476D02*
X72369933Y-104771476D01*
X72369933Y-104771476D02*
X72512790Y-104819095D01*
X72512790Y-104819095D02*
X73084219Y-105390523D01*
X73084219Y-105390523D02*
X73084219Y-104771476D01*
X72084219Y-104152428D02*
X72084219Y-104057190D01*
X72084219Y-104057190D02*
X72131838Y-103961952D01*
X72131838Y-103961952D02*
X72179457Y-103914333D01*
X72179457Y-103914333D02*
X72274695Y-103866714D01*
X72274695Y-103866714D02*
X72465171Y-103819095D01*
X72465171Y-103819095D02*
X72703266Y-103819095D01*
X72703266Y-103819095D02*
X72893742Y-103866714D01*
X72893742Y-103866714D02*
X72988980Y-103914333D01*
X72988980Y-103914333D02*
X73036600Y-103961952D01*
X73036600Y-103961952D02*
X73084219Y-104057190D01*
X73084219Y-104057190D02*
X73084219Y-104152428D01*
X73084219Y-104152428D02*
X73036600Y-104247666D01*
X73036600Y-104247666D02*
X72988980Y-104295285D01*
X72988980Y-104295285D02*
X72893742Y-104342904D01*
X72893742Y-104342904D02*
X72703266Y-104390523D01*
X72703266Y-104390523D02*
X72465171Y-104390523D01*
X72465171Y-104390523D02*
X72274695Y-104342904D01*
X72274695Y-104342904D02*
X72179457Y-104295285D01*
X72179457Y-104295285D02*
X72131838Y-104247666D01*
X72131838Y-104247666D02*
X72084219Y-104152428D01*
D11*
X150932848Y-146052118D02*
X150509514Y-145447356D01*
X150207133Y-146052118D02*
X150207133Y-144782118D01*
X150207133Y-144782118D02*
X150690943Y-144782118D01*
X150690943Y-144782118D02*
X150811895Y-144842594D01*
X150811895Y-144842594D02*
X150872372Y-144903070D01*
X150872372Y-144903070D02*
X150932848Y-145024022D01*
X150932848Y-145024022D02*
X150932848Y-145205451D01*
X150932848Y-145205451D02*
X150872372Y-145326403D01*
X150872372Y-145326403D02*
X150811895Y-145386880D01*
X150811895Y-145386880D02*
X150690943Y-145447356D01*
X150690943Y-145447356D02*
X150207133Y-145447356D01*
X151295705Y-144782118D02*
X151719038Y-146052118D01*
X151719038Y-146052118D02*
X152142372Y-144782118D01*
X153230943Y-146052118D02*
X152505228Y-146052118D01*
X152868085Y-146052118D02*
X152868085Y-144782118D01*
X152868085Y-144782118D02*
X152747133Y-144963546D01*
X152747133Y-144963546D02*
X152626181Y-145084499D01*
X152626181Y-145084499D02*
X152505228Y-145144975D01*
D10*
X136140866Y-184353419D02*
X136140866Y-185067704D01*
X136140866Y-185067704D02*
X136093247Y-185210561D01*
X136093247Y-185210561D02*
X135998009Y-185305800D01*
X135998009Y-185305800D02*
X135855152Y-185353419D01*
X135855152Y-185353419D02*
X135759914Y-185353419D01*
X136664676Y-185353419D02*
X136855152Y-185353419D01*
X136855152Y-185353419D02*
X136950390Y-185305800D01*
X136950390Y-185305800D02*
X136998009Y-185258180D01*
X136998009Y-185258180D02*
X137093247Y-185115323D01*
X137093247Y-185115323D02*
X137140866Y-184924847D01*
X137140866Y-184924847D02*
X137140866Y-184543895D01*
X137140866Y-184543895D02*
X137093247Y-184448657D01*
X137093247Y-184448657D02*
X137045628Y-184401038D01*
X137045628Y-184401038D02*
X136950390Y-184353419D01*
X136950390Y-184353419D02*
X136759914Y-184353419D01*
X136759914Y-184353419D02*
X136664676Y-184401038D01*
X136664676Y-184401038D02*
X136617057Y-184448657D01*
X136617057Y-184448657D02*
X136569438Y-184543895D01*
X136569438Y-184543895D02*
X136569438Y-184781990D01*
X136569438Y-184781990D02*
X136617057Y-184877228D01*
X136617057Y-184877228D02*
X136664676Y-184924847D01*
X136664676Y-184924847D02*
X136759914Y-184972466D01*
X136759914Y-184972466D02*
X136950390Y-184972466D01*
X136950390Y-184972466D02*
X137045628Y-184924847D01*
X137045628Y-184924847D02*
X137093247Y-184877228D01*
X137093247Y-184877228D02*
X137140866Y-184781990D01*
X124934742Y-46872619D02*
X124601409Y-46396428D01*
X124363314Y-46872619D02*
X124363314Y-45872619D01*
X124363314Y-45872619D02*
X124744266Y-45872619D01*
X124744266Y-45872619D02*
X124839504Y-45920238D01*
X124839504Y-45920238D02*
X124887123Y-45967857D01*
X124887123Y-45967857D02*
X124934742Y-46063095D01*
X124934742Y-46063095D02*
X124934742Y-46205952D01*
X124934742Y-46205952D02*
X124887123Y-46301190D01*
X124887123Y-46301190D02*
X124839504Y-46348809D01*
X124839504Y-46348809D02*
X124744266Y-46396428D01*
X124744266Y-46396428D02*
X124363314Y-46396428D01*
X125887123Y-46872619D02*
X125315695Y-46872619D01*
X125601409Y-46872619D02*
X125601409Y-45872619D01*
X125601409Y-45872619D02*
X125506171Y-46015476D01*
X125506171Y-46015476D02*
X125410933Y-46110714D01*
X125410933Y-46110714D02*
X125315695Y-46158333D01*
X126506171Y-45872619D02*
X126601409Y-45872619D01*
X126601409Y-45872619D02*
X126696647Y-45920238D01*
X126696647Y-45920238D02*
X126744266Y-45967857D01*
X126744266Y-45967857D02*
X126791885Y-46063095D01*
X126791885Y-46063095D02*
X126839504Y-46253571D01*
X126839504Y-46253571D02*
X126839504Y-46491666D01*
X126839504Y-46491666D02*
X126791885Y-46682142D01*
X126791885Y-46682142D02*
X126744266Y-46777380D01*
X126744266Y-46777380D02*
X126696647Y-46825000D01*
X126696647Y-46825000D02*
X126601409Y-46872619D01*
X126601409Y-46872619D02*
X126506171Y-46872619D01*
X126506171Y-46872619D02*
X126410933Y-46825000D01*
X126410933Y-46825000D02*
X126363314Y-46777380D01*
X126363314Y-46777380D02*
X126315695Y-46682142D01*
X126315695Y-46682142D02*
X126268076Y-46491666D01*
X126268076Y-46491666D02*
X126268076Y-46253571D01*
X126268076Y-46253571D02*
X126315695Y-46063095D01*
X126315695Y-46063095D02*
X126363314Y-45967857D01*
X126363314Y-45967857D02*
X126410933Y-45920238D01*
X126410933Y-45920238D02*
X126506171Y-45872619D01*
X79082742Y-115904819D02*
X78749409Y-115428628D01*
X78511314Y-115904819D02*
X78511314Y-114904819D01*
X78511314Y-114904819D02*
X78892266Y-114904819D01*
X78892266Y-114904819D02*
X78987504Y-114952438D01*
X78987504Y-114952438D02*
X79035123Y-115000057D01*
X79035123Y-115000057D02*
X79082742Y-115095295D01*
X79082742Y-115095295D02*
X79082742Y-115238152D01*
X79082742Y-115238152D02*
X79035123Y-115333390D01*
X79035123Y-115333390D02*
X78987504Y-115381009D01*
X78987504Y-115381009D02*
X78892266Y-115428628D01*
X78892266Y-115428628D02*
X78511314Y-115428628D01*
X80035123Y-115904819D02*
X79463695Y-115904819D01*
X79749409Y-115904819D02*
X79749409Y-114904819D01*
X79749409Y-114904819D02*
X79654171Y-115047676D01*
X79654171Y-115047676D02*
X79558933Y-115142914D01*
X79558933Y-115142914D02*
X79463695Y-115190533D01*
X80892266Y-114904819D02*
X80701790Y-114904819D01*
X80701790Y-114904819D02*
X80606552Y-114952438D01*
X80606552Y-114952438D02*
X80558933Y-115000057D01*
X80558933Y-115000057D02*
X80463695Y-115142914D01*
X80463695Y-115142914D02*
X80416076Y-115333390D01*
X80416076Y-115333390D02*
X80416076Y-115714342D01*
X80416076Y-115714342D02*
X80463695Y-115809580D01*
X80463695Y-115809580D02*
X80511314Y-115857200D01*
X80511314Y-115857200D02*
X80606552Y-115904819D01*
X80606552Y-115904819D02*
X80797028Y-115904819D01*
X80797028Y-115904819D02*
X80892266Y-115857200D01*
X80892266Y-115857200D02*
X80939885Y-115809580D01*
X80939885Y-115809580D02*
X80987504Y-115714342D01*
X80987504Y-115714342D02*
X80987504Y-115476247D01*
X80987504Y-115476247D02*
X80939885Y-115381009D01*
X80939885Y-115381009D02*
X80892266Y-115333390D01*
X80892266Y-115333390D02*
X80797028Y-115285771D01*
X80797028Y-115285771D02*
X80606552Y-115285771D01*
X80606552Y-115285771D02*
X80511314Y-115333390D01*
X80511314Y-115333390D02*
X80463695Y-115381009D01*
X80463695Y-115381009D02*
X80416076Y-115476247D01*
X71726466Y-129489419D02*
X71726466Y-130203704D01*
X71726466Y-130203704D02*
X71678847Y-130346561D01*
X71678847Y-130346561D02*
X71583609Y-130441800D01*
X71583609Y-130441800D02*
X71440752Y-130489419D01*
X71440752Y-130489419D02*
X71345514Y-130489419D01*
X72631228Y-129489419D02*
X72440752Y-129489419D01*
X72440752Y-129489419D02*
X72345514Y-129537038D01*
X72345514Y-129537038D02*
X72297895Y-129584657D01*
X72297895Y-129584657D02*
X72202657Y-129727514D01*
X72202657Y-129727514D02*
X72155038Y-129917990D01*
X72155038Y-129917990D02*
X72155038Y-130298942D01*
X72155038Y-130298942D02*
X72202657Y-130394180D01*
X72202657Y-130394180D02*
X72250276Y-130441800D01*
X72250276Y-130441800D02*
X72345514Y-130489419D01*
X72345514Y-130489419D02*
X72535990Y-130489419D01*
X72535990Y-130489419D02*
X72631228Y-130441800D01*
X72631228Y-130441800D02*
X72678847Y-130394180D01*
X72678847Y-130394180D02*
X72726466Y-130298942D01*
X72726466Y-130298942D02*
X72726466Y-130060847D01*
X72726466Y-130060847D02*
X72678847Y-129965609D01*
X72678847Y-129965609D02*
X72631228Y-129917990D01*
X72631228Y-129917990D02*
X72535990Y-129870371D01*
X72535990Y-129870371D02*
X72345514Y-129870371D01*
X72345514Y-129870371D02*
X72250276Y-129917990D01*
X72250276Y-129917990D02*
X72202657Y-129965609D01*
X72202657Y-129965609D02*
X72155038Y-130060847D01*
X141901942Y-71256619D02*
X141568609Y-70780428D01*
X141330514Y-71256619D02*
X141330514Y-70256619D01*
X141330514Y-70256619D02*
X141711466Y-70256619D01*
X141711466Y-70256619D02*
X141806704Y-70304238D01*
X141806704Y-70304238D02*
X141854323Y-70351857D01*
X141854323Y-70351857D02*
X141901942Y-70447095D01*
X141901942Y-70447095D02*
X141901942Y-70589952D01*
X141901942Y-70589952D02*
X141854323Y-70685190D01*
X141854323Y-70685190D02*
X141806704Y-70732809D01*
X141806704Y-70732809D02*
X141711466Y-70780428D01*
X141711466Y-70780428D02*
X141330514Y-70780428D01*
X142854323Y-71256619D02*
X142282895Y-71256619D01*
X142568609Y-71256619D02*
X142568609Y-70256619D01*
X142568609Y-70256619D02*
X142473371Y-70399476D01*
X142473371Y-70399476D02*
X142378133Y-70494714D01*
X142378133Y-70494714D02*
X142282895Y-70542333D01*
X143235276Y-70351857D02*
X143282895Y-70304238D01*
X143282895Y-70304238D02*
X143378133Y-70256619D01*
X143378133Y-70256619D02*
X143616228Y-70256619D01*
X143616228Y-70256619D02*
X143711466Y-70304238D01*
X143711466Y-70304238D02*
X143759085Y-70351857D01*
X143759085Y-70351857D02*
X143806704Y-70447095D01*
X143806704Y-70447095D02*
X143806704Y-70542333D01*
X143806704Y-70542333D02*
X143759085Y-70685190D01*
X143759085Y-70685190D02*
X143187657Y-71256619D01*
X143187657Y-71256619D02*
X143806704Y-71256619D01*
X156239380Y-131293466D02*
X156287000Y-131341085D01*
X156287000Y-131341085D02*
X156334619Y-131483942D01*
X156334619Y-131483942D02*
X156334619Y-131579180D01*
X156334619Y-131579180D02*
X156287000Y-131722037D01*
X156287000Y-131722037D02*
X156191761Y-131817275D01*
X156191761Y-131817275D02*
X156096523Y-131864894D01*
X156096523Y-131864894D02*
X155906047Y-131912513D01*
X155906047Y-131912513D02*
X155763190Y-131912513D01*
X155763190Y-131912513D02*
X155572714Y-131864894D01*
X155572714Y-131864894D02*
X155477476Y-131817275D01*
X155477476Y-131817275D02*
X155382238Y-131722037D01*
X155382238Y-131722037D02*
X155334619Y-131579180D01*
X155334619Y-131579180D02*
X155334619Y-131483942D01*
X155334619Y-131483942D02*
X155382238Y-131341085D01*
X155382238Y-131341085D02*
X155429857Y-131293466D01*
X155763190Y-130722037D02*
X155715571Y-130817275D01*
X155715571Y-130817275D02*
X155667952Y-130864894D01*
X155667952Y-130864894D02*
X155572714Y-130912513D01*
X155572714Y-130912513D02*
X155525095Y-130912513D01*
X155525095Y-130912513D02*
X155429857Y-130864894D01*
X155429857Y-130864894D02*
X155382238Y-130817275D01*
X155382238Y-130817275D02*
X155334619Y-130722037D01*
X155334619Y-130722037D02*
X155334619Y-130531561D01*
X155334619Y-130531561D02*
X155382238Y-130436323D01*
X155382238Y-130436323D02*
X155429857Y-130388704D01*
X155429857Y-130388704D02*
X155525095Y-130341085D01*
X155525095Y-130341085D02*
X155572714Y-130341085D01*
X155572714Y-130341085D02*
X155667952Y-130388704D01*
X155667952Y-130388704D02*
X155715571Y-130436323D01*
X155715571Y-130436323D02*
X155763190Y-130531561D01*
X155763190Y-130531561D02*
X155763190Y-130722037D01*
X155763190Y-130722037D02*
X155810809Y-130817275D01*
X155810809Y-130817275D02*
X155858428Y-130864894D01*
X155858428Y-130864894D02*
X155953666Y-130912513D01*
X155953666Y-130912513D02*
X156144142Y-130912513D01*
X156144142Y-130912513D02*
X156239380Y-130864894D01*
X156239380Y-130864894D02*
X156287000Y-130817275D01*
X156287000Y-130817275D02*
X156334619Y-130722037D01*
X156334619Y-130722037D02*
X156334619Y-130531561D01*
X156334619Y-130531561D02*
X156287000Y-130436323D01*
X156287000Y-130436323D02*
X156239380Y-130388704D01*
X156239380Y-130388704D02*
X156144142Y-130341085D01*
X156144142Y-130341085D02*
X155953666Y-130341085D01*
X155953666Y-130341085D02*
X155858428Y-130388704D01*
X155858428Y-130388704D02*
X155810809Y-130436323D01*
X155810809Y-130436323D02*
X155763190Y-130531561D01*
X127722333Y-176012580D02*
X127674714Y-176060200D01*
X127674714Y-176060200D02*
X127531857Y-176107819D01*
X127531857Y-176107819D02*
X127436619Y-176107819D01*
X127436619Y-176107819D02*
X127293762Y-176060200D01*
X127293762Y-176060200D02*
X127198524Y-175964961D01*
X127198524Y-175964961D02*
X127150905Y-175869723D01*
X127150905Y-175869723D02*
X127103286Y-175679247D01*
X127103286Y-175679247D02*
X127103286Y-175536390D01*
X127103286Y-175536390D02*
X127150905Y-175345914D01*
X127150905Y-175345914D02*
X127198524Y-175250676D01*
X127198524Y-175250676D02*
X127293762Y-175155438D01*
X127293762Y-175155438D02*
X127436619Y-175107819D01*
X127436619Y-175107819D02*
X127531857Y-175107819D01*
X127531857Y-175107819D02*
X127674714Y-175155438D01*
X127674714Y-175155438D02*
X127722333Y-175203057D01*
X128055667Y-175107819D02*
X128722333Y-175107819D01*
X128722333Y-175107819D02*
X128293762Y-176107819D01*
X76060142Y-115879419D02*
X75726809Y-115403228D01*
X75488714Y-115879419D02*
X75488714Y-114879419D01*
X75488714Y-114879419D02*
X75869666Y-114879419D01*
X75869666Y-114879419D02*
X75964904Y-114927038D01*
X75964904Y-114927038D02*
X76012523Y-114974657D01*
X76012523Y-114974657D02*
X76060142Y-115069895D01*
X76060142Y-115069895D02*
X76060142Y-115212752D01*
X76060142Y-115212752D02*
X76012523Y-115307990D01*
X76012523Y-115307990D02*
X75964904Y-115355609D01*
X75964904Y-115355609D02*
X75869666Y-115403228D01*
X75869666Y-115403228D02*
X75488714Y-115403228D01*
X77012523Y-115879419D02*
X76441095Y-115879419D01*
X76726809Y-115879419D02*
X76726809Y-114879419D01*
X76726809Y-114879419D02*
X76631571Y-115022276D01*
X76631571Y-115022276D02*
X76536333Y-115117514D01*
X76536333Y-115117514D02*
X76441095Y-115165133D01*
X77345857Y-114879419D02*
X78012523Y-114879419D01*
X78012523Y-114879419D02*
X77583952Y-115879419D01*
X144472066Y-89332019D02*
X144472066Y-90046304D01*
X144472066Y-90046304D02*
X144424447Y-90189161D01*
X144424447Y-90189161D02*
X144329209Y-90284400D01*
X144329209Y-90284400D02*
X144186352Y-90332019D01*
X144186352Y-90332019D02*
X144091114Y-90332019D01*
X144853019Y-89332019D02*
X145519685Y-89332019D01*
X145519685Y-89332019D02*
X145091114Y-90332019D01*
X115493895Y-109880619D02*
X115493895Y-110690142D01*
X115493895Y-110690142D02*
X115541514Y-110785380D01*
X115541514Y-110785380D02*
X115589133Y-110833000D01*
X115589133Y-110833000D02*
X115684371Y-110880619D01*
X115684371Y-110880619D02*
X115874847Y-110880619D01*
X115874847Y-110880619D02*
X115970085Y-110833000D01*
X115970085Y-110833000D02*
X116017704Y-110785380D01*
X116017704Y-110785380D02*
X116065323Y-110690142D01*
X116065323Y-110690142D02*
X116065323Y-109880619D01*
X116589133Y-110880619D02*
X116779609Y-110880619D01*
X116779609Y-110880619D02*
X116874847Y-110833000D01*
X116874847Y-110833000D02*
X116922466Y-110785380D01*
X116922466Y-110785380D02*
X117017704Y-110642523D01*
X117017704Y-110642523D02*
X117065323Y-110452047D01*
X117065323Y-110452047D02*
X117065323Y-110071095D01*
X117065323Y-110071095D02*
X117017704Y-109975857D01*
X117017704Y-109975857D02*
X116970085Y-109928238D01*
X116970085Y-109928238D02*
X116874847Y-109880619D01*
X116874847Y-109880619D02*
X116684371Y-109880619D01*
X116684371Y-109880619D02*
X116589133Y-109928238D01*
X116589133Y-109928238D02*
X116541514Y-109975857D01*
X116541514Y-109975857D02*
X116493895Y-110071095D01*
X116493895Y-110071095D02*
X116493895Y-110309190D01*
X116493895Y-110309190D02*
X116541514Y-110404428D01*
X116541514Y-110404428D02*
X116589133Y-110452047D01*
X116589133Y-110452047D02*
X116684371Y-110499666D01*
X116684371Y-110499666D02*
X116874847Y-110499666D01*
X116874847Y-110499666D02*
X116970085Y-110452047D01*
X116970085Y-110452047D02*
X117017704Y-110404428D01*
X117017704Y-110404428D02*
X117065323Y-110309190D01*
X132982619Y-138841894D02*
X133792142Y-138841894D01*
X133792142Y-138841894D02*
X133887380Y-138794275D01*
X133887380Y-138794275D02*
X133935000Y-138746656D01*
X133935000Y-138746656D02*
X133982619Y-138651418D01*
X133982619Y-138651418D02*
X133982619Y-138460942D01*
X133982619Y-138460942D02*
X133935000Y-138365704D01*
X133935000Y-138365704D02*
X133887380Y-138318085D01*
X133887380Y-138318085D02*
X133792142Y-138270466D01*
X133792142Y-138270466D02*
X132982619Y-138270466D01*
X133982619Y-137270466D02*
X133982619Y-137841894D01*
X133982619Y-137556180D02*
X132982619Y-137556180D01*
X132982619Y-137556180D02*
X133125476Y-137651418D01*
X133125476Y-137651418D02*
X133220714Y-137746656D01*
X133220714Y-137746656D02*
X133268333Y-137841894D01*
X133982619Y-136318085D02*
X133982619Y-136889513D01*
X133982619Y-136603799D02*
X132982619Y-136603799D01*
X132982619Y-136603799D02*
X133125476Y-136699037D01*
X133125476Y-136699037D02*
X133220714Y-136794275D01*
X133220714Y-136794275D02*
X133268333Y-136889513D01*
X139488942Y-83454980D02*
X139441323Y-83502600D01*
X139441323Y-83502600D02*
X139298466Y-83550219D01*
X139298466Y-83550219D02*
X139203228Y-83550219D01*
X139203228Y-83550219D02*
X139060371Y-83502600D01*
X139060371Y-83502600D02*
X138965133Y-83407361D01*
X138965133Y-83407361D02*
X138917514Y-83312123D01*
X138917514Y-83312123D02*
X138869895Y-83121647D01*
X138869895Y-83121647D02*
X138869895Y-82978790D01*
X138869895Y-82978790D02*
X138917514Y-82788314D01*
X138917514Y-82788314D02*
X138965133Y-82693076D01*
X138965133Y-82693076D02*
X139060371Y-82597838D01*
X139060371Y-82597838D02*
X139203228Y-82550219D01*
X139203228Y-82550219D02*
X139298466Y-82550219D01*
X139298466Y-82550219D02*
X139441323Y-82597838D01*
X139441323Y-82597838D02*
X139488942Y-82645457D01*
X140441323Y-83550219D02*
X139869895Y-83550219D01*
X140155609Y-83550219D02*
X140155609Y-82550219D01*
X140155609Y-82550219D02*
X140060371Y-82693076D01*
X140060371Y-82693076D02*
X139965133Y-82788314D01*
X139965133Y-82788314D02*
X139869895Y-82835933D01*
X141298466Y-82550219D02*
X141107990Y-82550219D01*
X141107990Y-82550219D02*
X141012752Y-82597838D01*
X141012752Y-82597838D02*
X140965133Y-82645457D01*
X140965133Y-82645457D02*
X140869895Y-82788314D01*
X140869895Y-82788314D02*
X140822276Y-82978790D01*
X140822276Y-82978790D02*
X140822276Y-83359742D01*
X140822276Y-83359742D02*
X140869895Y-83454980D01*
X140869895Y-83454980D02*
X140917514Y-83502600D01*
X140917514Y-83502600D02*
X141012752Y-83550219D01*
X141012752Y-83550219D02*
X141203228Y-83550219D01*
X141203228Y-83550219D02*
X141298466Y-83502600D01*
X141298466Y-83502600D02*
X141346085Y-83454980D01*
X141346085Y-83454980D02*
X141393704Y-83359742D01*
X141393704Y-83359742D02*
X141393704Y-83121647D01*
X141393704Y-83121647D02*
X141346085Y-83026409D01*
X141346085Y-83026409D02*
X141298466Y-82978790D01*
X141298466Y-82978790D02*
X141203228Y-82931171D01*
X141203228Y-82931171D02*
X141012752Y-82931171D01*
X141012752Y-82931171D02*
X140917514Y-82978790D01*
X140917514Y-82978790D02*
X140869895Y-83026409D01*
X140869895Y-83026409D02*
X140822276Y-83121647D01*
X92371942Y-142078180D02*
X92324323Y-142125800D01*
X92324323Y-142125800D02*
X92181466Y-142173419D01*
X92181466Y-142173419D02*
X92086228Y-142173419D01*
X92086228Y-142173419D02*
X91943371Y-142125800D01*
X91943371Y-142125800D02*
X91848133Y-142030561D01*
X91848133Y-142030561D02*
X91800514Y-141935323D01*
X91800514Y-141935323D02*
X91752895Y-141744847D01*
X91752895Y-141744847D02*
X91752895Y-141601990D01*
X91752895Y-141601990D02*
X91800514Y-141411514D01*
X91800514Y-141411514D02*
X91848133Y-141316276D01*
X91848133Y-141316276D02*
X91943371Y-141221038D01*
X91943371Y-141221038D02*
X92086228Y-141173419D01*
X92086228Y-141173419D02*
X92181466Y-141173419D01*
X92181466Y-141173419D02*
X92324323Y-141221038D01*
X92324323Y-141221038D02*
X92371942Y-141268657D01*
X93324323Y-142173419D02*
X92752895Y-142173419D01*
X93038609Y-142173419D02*
X93038609Y-141173419D01*
X93038609Y-141173419D02*
X92943371Y-141316276D01*
X92943371Y-141316276D02*
X92848133Y-141411514D01*
X92848133Y-141411514D02*
X92752895Y-141459133D01*
X93895752Y-141601990D02*
X93800514Y-141554371D01*
X93800514Y-141554371D02*
X93752895Y-141506752D01*
X93752895Y-141506752D02*
X93705276Y-141411514D01*
X93705276Y-141411514D02*
X93705276Y-141363895D01*
X93705276Y-141363895D02*
X93752895Y-141268657D01*
X93752895Y-141268657D02*
X93800514Y-141221038D01*
X93800514Y-141221038D02*
X93895752Y-141173419D01*
X93895752Y-141173419D02*
X94086228Y-141173419D01*
X94086228Y-141173419D02*
X94181466Y-141221038D01*
X94181466Y-141221038D02*
X94229085Y-141268657D01*
X94229085Y-141268657D02*
X94276704Y-141363895D01*
X94276704Y-141363895D02*
X94276704Y-141411514D01*
X94276704Y-141411514D02*
X94229085Y-141506752D01*
X94229085Y-141506752D02*
X94181466Y-141554371D01*
X94181466Y-141554371D02*
X94086228Y-141601990D01*
X94086228Y-141601990D02*
X93895752Y-141601990D01*
X93895752Y-141601990D02*
X93800514Y-141649609D01*
X93800514Y-141649609D02*
X93752895Y-141697228D01*
X93752895Y-141697228D02*
X93705276Y-141792466D01*
X93705276Y-141792466D02*
X93705276Y-141982942D01*
X93705276Y-141982942D02*
X93752895Y-142078180D01*
X93752895Y-142078180D02*
X93800514Y-142125800D01*
X93800514Y-142125800D02*
X93895752Y-142173419D01*
X93895752Y-142173419D02*
X94086228Y-142173419D01*
X94086228Y-142173419D02*
X94181466Y-142125800D01*
X94181466Y-142125800D02*
X94229085Y-142078180D01*
X94229085Y-142078180D02*
X94276704Y-141982942D01*
X94276704Y-141982942D02*
X94276704Y-141792466D01*
X94276704Y-141792466D02*
X94229085Y-141697228D01*
X94229085Y-141697228D02*
X94181466Y-141649609D01*
X94181466Y-141649609D02*
X94086228Y-141601990D01*
X70432705Y-150758619D02*
X70432705Y-149758619D01*
X70432705Y-149758619D02*
X70670800Y-149758619D01*
X70670800Y-149758619D02*
X70813657Y-149806238D01*
X70813657Y-149806238D02*
X70908895Y-149901476D01*
X70908895Y-149901476D02*
X70956514Y-149996714D01*
X70956514Y-149996714D02*
X71004133Y-150187190D01*
X71004133Y-150187190D02*
X71004133Y-150330047D01*
X71004133Y-150330047D02*
X70956514Y-150520523D01*
X70956514Y-150520523D02*
X70908895Y-150615761D01*
X70908895Y-150615761D02*
X70813657Y-150711000D01*
X70813657Y-150711000D02*
X70670800Y-150758619D01*
X70670800Y-150758619D02*
X70432705Y-150758619D01*
X71956514Y-150758619D02*
X71385086Y-150758619D01*
X71670800Y-150758619D02*
X71670800Y-149758619D01*
X71670800Y-149758619D02*
X71575562Y-149901476D01*
X71575562Y-149901476D02*
X71480324Y-149996714D01*
X71480324Y-149996714D02*
X71385086Y-150044333D01*
X139819142Y-75911180D02*
X139771523Y-75958800D01*
X139771523Y-75958800D02*
X139628666Y-76006419D01*
X139628666Y-76006419D02*
X139533428Y-76006419D01*
X139533428Y-76006419D02*
X139390571Y-75958800D01*
X139390571Y-75958800D02*
X139295333Y-75863561D01*
X139295333Y-75863561D02*
X139247714Y-75768323D01*
X139247714Y-75768323D02*
X139200095Y-75577847D01*
X139200095Y-75577847D02*
X139200095Y-75434990D01*
X139200095Y-75434990D02*
X139247714Y-75244514D01*
X139247714Y-75244514D02*
X139295333Y-75149276D01*
X139295333Y-75149276D02*
X139390571Y-75054038D01*
X139390571Y-75054038D02*
X139533428Y-75006419D01*
X139533428Y-75006419D02*
X139628666Y-75006419D01*
X139628666Y-75006419D02*
X139771523Y-75054038D01*
X139771523Y-75054038D02*
X139819142Y-75101657D01*
X140771523Y-76006419D02*
X140200095Y-76006419D01*
X140485809Y-76006419D02*
X140485809Y-75006419D01*
X140485809Y-75006419D02*
X140390571Y-75149276D01*
X140390571Y-75149276D02*
X140295333Y-75244514D01*
X140295333Y-75244514D02*
X140200095Y-75292133D01*
X141676285Y-75006419D02*
X141200095Y-75006419D01*
X141200095Y-75006419D02*
X141152476Y-75482609D01*
X141152476Y-75482609D02*
X141200095Y-75434990D01*
X141200095Y-75434990D02*
X141295333Y-75387371D01*
X141295333Y-75387371D02*
X141533428Y-75387371D01*
X141533428Y-75387371D02*
X141628666Y-75434990D01*
X141628666Y-75434990D02*
X141676285Y-75482609D01*
X141676285Y-75482609D02*
X141723904Y-75577847D01*
X141723904Y-75577847D02*
X141723904Y-75815942D01*
X141723904Y-75815942D02*
X141676285Y-75911180D01*
X141676285Y-75911180D02*
X141628666Y-75958800D01*
X141628666Y-75958800D02*
X141533428Y-76006419D01*
X141533428Y-76006419D02*
X141295333Y-76006419D01*
X141295333Y-76006419D02*
X141200095Y-75958800D01*
X141200095Y-75958800D02*
X141152476Y-75911180D01*
X145207123Y-115363419D02*
X144873790Y-114887228D01*
X144635695Y-115363419D02*
X144635695Y-114363419D01*
X144635695Y-114363419D02*
X145016647Y-114363419D01*
X145016647Y-114363419D02*
X145111885Y-114411038D01*
X145111885Y-114411038D02*
X145159504Y-114458657D01*
X145159504Y-114458657D02*
X145207123Y-114553895D01*
X145207123Y-114553895D02*
X145207123Y-114696752D01*
X145207123Y-114696752D02*
X145159504Y-114791990D01*
X145159504Y-114791990D02*
X145111885Y-114839609D01*
X145111885Y-114839609D02*
X145016647Y-114887228D01*
X145016647Y-114887228D02*
X144635695Y-114887228D01*
X145635695Y-115363419D02*
X145635695Y-114363419D01*
X145635695Y-114363419D02*
X146207123Y-115363419D01*
X146207123Y-115363419D02*
X146207123Y-114363419D01*
X146635695Y-114458657D02*
X146683314Y-114411038D01*
X146683314Y-114411038D02*
X146778552Y-114363419D01*
X146778552Y-114363419D02*
X147016647Y-114363419D01*
X147016647Y-114363419D02*
X147111885Y-114411038D01*
X147111885Y-114411038D02*
X147159504Y-114458657D01*
X147159504Y-114458657D02*
X147207123Y-114553895D01*
X147207123Y-114553895D02*
X147207123Y-114649133D01*
X147207123Y-114649133D02*
X147159504Y-114791990D01*
X147159504Y-114791990D02*
X146588076Y-115363419D01*
X146588076Y-115363419D02*
X147207123Y-115363419D01*
X134154942Y-50587380D02*
X134107323Y-50635000D01*
X134107323Y-50635000D02*
X133964466Y-50682619D01*
X133964466Y-50682619D02*
X133869228Y-50682619D01*
X133869228Y-50682619D02*
X133726371Y-50635000D01*
X133726371Y-50635000D02*
X133631133Y-50539761D01*
X133631133Y-50539761D02*
X133583514Y-50444523D01*
X133583514Y-50444523D02*
X133535895Y-50254047D01*
X133535895Y-50254047D02*
X133535895Y-50111190D01*
X133535895Y-50111190D02*
X133583514Y-49920714D01*
X133583514Y-49920714D02*
X133631133Y-49825476D01*
X133631133Y-49825476D02*
X133726371Y-49730238D01*
X133726371Y-49730238D02*
X133869228Y-49682619D01*
X133869228Y-49682619D02*
X133964466Y-49682619D01*
X133964466Y-49682619D02*
X134107323Y-49730238D01*
X134107323Y-49730238D02*
X134154942Y-49777857D01*
X135107323Y-50682619D02*
X134535895Y-50682619D01*
X134821609Y-50682619D02*
X134821609Y-49682619D01*
X134821609Y-49682619D02*
X134726371Y-49825476D01*
X134726371Y-49825476D02*
X134631133Y-49920714D01*
X134631133Y-49920714D02*
X134535895Y-49968333D01*
X135964466Y-50015952D02*
X135964466Y-50682619D01*
X135726371Y-49635000D02*
X135488276Y-50349285D01*
X135488276Y-50349285D02*
X136107323Y-50349285D01*
X70345467Y-161175800D02*
X70488324Y-161223419D01*
X70488324Y-161223419D02*
X70726419Y-161223419D01*
X70726419Y-161223419D02*
X70821657Y-161175800D01*
X70821657Y-161175800D02*
X70869276Y-161128180D01*
X70869276Y-161128180D02*
X70916895Y-161032942D01*
X70916895Y-161032942D02*
X70916895Y-160937704D01*
X70916895Y-160937704D02*
X70869276Y-160842466D01*
X70869276Y-160842466D02*
X70821657Y-160794847D01*
X70821657Y-160794847D02*
X70726419Y-160747228D01*
X70726419Y-160747228D02*
X70535943Y-160699609D01*
X70535943Y-160699609D02*
X70440705Y-160651990D01*
X70440705Y-160651990D02*
X70393086Y-160604371D01*
X70393086Y-160604371D02*
X70345467Y-160509133D01*
X70345467Y-160509133D02*
X70345467Y-160413895D01*
X70345467Y-160413895D02*
X70393086Y-160318657D01*
X70393086Y-160318657D02*
X70440705Y-160271038D01*
X70440705Y-160271038D02*
X70535943Y-160223419D01*
X70535943Y-160223419D02*
X70774038Y-160223419D01*
X70774038Y-160223419D02*
X70916895Y-160271038D01*
X71250229Y-160223419D02*
X71488324Y-161223419D01*
X71488324Y-161223419D02*
X71678800Y-160509133D01*
X71678800Y-160509133D02*
X71869276Y-161223419D01*
X71869276Y-161223419D02*
X72107372Y-160223419D01*
X73012133Y-161223419D02*
X72440705Y-161223419D01*
X72726419Y-161223419D02*
X72726419Y-160223419D01*
X72726419Y-160223419D02*
X72631181Y-160366276D01*
X72631181Y-160366276D02*
X72535943Y-160461514D01*
X72535943Y-160461514D02*
X72440705Y-160509133D01*
X127403266Y-184759819D02*
X127403266Y-185474104D01*
X127403266Y-185474104D02*
X127355647Y-185616961D01*
X127355647Y-185616961D02*
X127260409Y-185712200D01*
X127260409Y-185712200D02*
X127117552Y-185759819D01*
X127117552Y-185759819D02*
X127022314Y-185759819D01*
X127831838Y-184855057D02*
X127879457Y-184807438D01*
X127879457Y-184807438D02*
X127974695Y-184759819D01*
X127974695Y-184759819D02*
X128212790Y-184759819D01*
X128212790Y-184759819D02*
X128308028Y-184807438D01*
X128308028Y-184807438D02*
X128355647Y-184855057D01*
X128355647Y-184855057D02*
X128403266Y-184950295D01*
X128403266Y-184950295D02*
X128403266Y-185045533D01*
X128403266Y-185045533D02*
X128355647Y-185188390D01*
X128355647Y-185188390D02*
X127784219Y-185759819D01*
X127784219Y-185759819D02*
X128403266Y-185759819D01*
X105371995Y-84680519D02*
X105371995Y-83680519D01*
X105371995Y-84156709D02*
X105943423Y-84156709D01*
X105943423Y-84680519D02*
X105943423Y-83680519D01*
X106324376Y-83680519D02*
X106991042Y-83680519D01*
X106991042Y-83680519D02*
X106562471Y-84680519D01*
X133208733Y-142833819D02*
X132875400Y-142357628D01*
X132637305Y-142833819D02*
X132637305Y-141833819D01*
X132637305Y-141833819D02*
X133018257Y-141833819D01*
X133018257Y-141833819D02*
X133113495Y-141881438D01*
X133113495Y-141881438D02*
X133161114Y-141929057D01*
X133161114Y-141929057D02*
X133208733Y-142024295D01*
X133208733Y-142024295D02*
X133208733Y-142167152D01*
X133208733Y-142167152D02*
X133161114Y-142262390D01*
X133161114Y-142262390D02*
X133113495Y-142310009D01*
X133113495Y-142310009D02*
X133018257Y-142357628D01*
X133018257Y-142357628D02*
X132637305Y-142357628D01*
X134113495Y-141833819D02*
X133637305Y-141833819D01*
X133637305Y-141833819D02*
X133589686Y-142310009D01*
X133589686Y-142310009D02*
X133637305Y-142262390D01*
X133637305Y-142262390D02*
X133732543Y-142214771D01*
X133732543Y-142214771D02*
X133970638Y-142214771D01*
X133970638Y-142214771D02*
X134065876Y-142262390D01*
X134065876Y-142262390D02*
X134113495Y-142310009D01*
X134113495Y-142310009D02*
X134161114Y-142405247D01*
X134161114Y-142405247D02*
X134161114Y-142643342D01*
X134161114Y-142643342D02*
X134113495Y-142738580D01*
X134113495Y-142738580D02*
X134065876Y-142786200D01*
X134065876Y-142786200D02*
X133970638Y-142833819D01*
X133970638Y-142833819D02*
X133732543Y-142833819D01*
X133732543Y-142833819D02*
X133637305Y-142786200D01*
X133637305Y-142786200D02*
X133589686Y-142738580D01*
X78245619Y-163943504D02*
X79055142Y-163943504D01*
X79055142Y-163943504D02*
X79150380Y-163895885D01*
X79150380Y-163895885D02*
X79198000Y-163848266D01*
X79198000Y-163848266D02*
X79245619Y-163753028D01*
X79245619Y-163753028D02*
X79245619Y-163562552D01*
X79245619Y-163562552D02*
X79198000Y-163467314D01*
X79198000Y-163467314D02*
X79150380Y-163419695D01*
X79150380Y-163419695D02*
X79055142Y-163372076D01*
X79055142Y-163372076D02*
X78245619Y-163372076D01*
X78245619Y-162419695D02*
X78245619Y-162895885D01*
X78245619Y-162895885D02*
X78721809Y-162943504D01*
X78721809Y-162943504D02*
X78674190Y-162895885D01*
X78674190Y-162895885D02*
X78626571Y-162800647D01*
X78626571Y-162800647D02*
X78626571Y-162562552D01*
X78626571Y-162562552D02*
X78674190Y-162467314D01*
X78674190Y-162467314D02*
X78721809Y-162419695D01*
X78721809Y-162419695D02*
X78817047Y-162372076D01*
X78817047Y-162372076D02*
X79055142Y-162372076D01*
X79055142Y-162372076D02*
X79150380Y-162419695D01*
X79150380Y-162419695D02*
X79198000Y-162467314D01*
X79198000Y-162467314D02*
X79245619Y-162562552D01*
X79245619Y-162562552D02*
X79245619Y-162800647D01*
X79245619Y-162800647D02*
X79198000Y-162895885D01*
X79198000Y-162895885D02*
X79150380Y-162943504D01*
X90365342Y-114442980D02*
X90317723Y-114490600D01*
X90317723Y-114490600D02*
X90174866Y-114538219D01*
X90174866Y-114538219D02*
X90079628Y-114538219D01*
X90079628Y-114538219D02*
X89936771Y-114490600D01*
X89936771Y-114490600D02*
X89841533Y-114395361D01*
X89841533Y-114395361D02*
X89793914Y-114300123D01*
X89793914Y-114300123D02*
X89746295Y-114109647D01*
X89746295Y-114109647D02*
X89746295Y-113966790D01*
X89746295Y-113966790D02*
X89793914Y-113776314D01*
X89793914Y-113776314D02*
X89841533Y-113681076D01*
X89841533Y-113681076D02*
X89936771Y-113585838D01*
X89936771Y-113585838D02*
X90079628Y-113538219D01*
X90079628Y-113538219D02*
X90174866Y-113538219D01*
X90174866Y-113538219D02*
X90317723Y-113585838D01*
X90317723Y-113585838D02*
X90365342Y-113633457D01*
X91317723Y-114538219D02*
X90746295Y-114538219D01*
X91032009Y-114538219D02*
X91032009Y-113538219D01*
X91032009Y-113538219D02*
X90936771Y-113681076D01*
X90936771Y-113681076D02*
X90841533Y-113776314D01*
X90841533Y-113776314D02*
X90746295Y-113823933D01*
X91793914Y-114538219D02*
X91984390Y-114538219D01*
X91984390Y-114538219D02*
X92079628Y-114490600D01*
X92079628Y-114490600D02*
X92127247Y-114442980D01*
X92127247Y-114442980D02*
X92222485Y-114300123D01*
X92222485Y-114300123D02*
X92270104Y-114109647D01*
X92270104Y-114109647D02*
X92270104Y-113728695D01*
X92270104Y-113728695D02*
X92222485Y-113633457D01*
X92222485Y-113633457D02*
X92174866Y-113585838D01*
X92174866Y-113585838D02*
X92079628Y-113538219D01*
X92079628Y-113538219D02*
X91889152Y-113538219D01*
X91889152Y-113538219D02*
X91793914Y-113585838D01*
X91793914Y-113585838D02*
X91746295Y-113633457D01*
X91746295Y-113633457D02*
X91698676Y-113728695D01*
X91698676Y-113728695D02*
X91698676Y-113966790D01*
X91698676Y-113966790D02*
X91746295Y-114062028D01*
X91746295Y-114062028D02*
X91793914Y-114109647D01*
X91793914Y-114109647D02*
X91889152Y-114157266D01*
X91889152Y-114157266D02*
X92079628Y-114157266D01*
X92079628Y-114157266D02*
X92174866Y-114109647D01*
X92174866Y-114109647D02*
X92222485Y-114062028D01*
X92222485Y-114062028D02*
X92270104Y-113966790D01*
X71475695Y-56448419D02*
X71475695Y-55448419D01*
X71475695Y-55924609D02*
X72047123Y-55924609D01*
X72047123Y-56448419D02*
X72047123Y-55448419D01*
X72951885Y-55781752D02*
X72951885Y-56448419D01*
X72713790Y-55400800D02*
X72475695Y-56115085D01*
X72475695Y-56115085D02*
X73094742Y-56115085D01*
X153286619Y-95879457D02*
X152810428Y-96212790D01*
X153286619Y-96450885D02*
X152286619Y-96450885D01*
X152286619Y-96450885D02*
X152286619Y-96069933D01*
X152286619Y-96069933D02*
X152334238Y-95974695D01*
X152334238Y-95974695D02*
X152381857Y-95927076D01*
X152381857Y-95927076D02*
X152477095Y-95879457D01*
X152477095Y-95879457D02*
X152619952Y-95879457D01*
X152619952Y-95879457D02*
X152715190Y-95927076D01*
X152715190Y-95927076D02*
X152762809Y-95974695D01*
X152762809Y-95974695D02*
X152810428Y-96069933D01*
X152810428Y-96069933D02*
X152810428Y-96450885D01*
X153286619Y-94927076D02*
X153286619Y-95498504D01*
X153286619Y-95212790D02*
X152286619Y-95212790D01*
X152286619Y-95212790D02*
X152429476Y-95308028D01*
X152429476Y-95308028D02*
X152524714Y-95403266D01*
X152524714Y-95403266D02*
X152572333Y-95498504D01*
X152715190Y-94355647D02*
X152667571Y-94450885D01*
X152667571Y-94450885D02*
X152619952Y-94498504D01*
X152619952Y-94498504D02*
X152524714Y-94546123D01*
X152524714Y-94546123D02*
X152477095Y-94546123D01*
X152477095Y-94546123D02*
X152381857Y-94498504D01*
X152381857Y-94498504D02*
X152334238Y-94450885D01*
X152334238Y-94450885D02*
X152286619Y-94355647D01*
X152286619Y-94355647D02*
X152286619Y-94165171D01*
X152286619Y-94165171D02*
X152334238Y-94069933D01*
X152334238Y-94069933D02*
X152381857Y-94022314D01*
X152381857Y-94022314D02*
X152477095Y-93974695D01*
X152477095Y-93974695D02*
X152524714Y-93974695D01*
X152524714Y-93974695D02*
X152619952Y-94022314D01*
X152619952Y-94022314D02*
X152667571Y-94069933D01*
X152667571Y-94069933D02*
X152715190Y-94165171D01*
X152715190Y-94165171D02*
X152715190Y-94355647D01*
X152715190Y-94355647D02*
X152762809Y-94450885D01*
X152762809Y-94450885D02*
X152810428Y-94498504D01*
X152810428Y-94498504D02*
X152905666Y-94546123D01*
X152905666Y-94546123D02*
X153096142Y-94546123D01*
X153096142Y-94546123D02*
X153191380Y-94498504D01*
X153191380Y-94498504D02*
X153239000Y-94450885D01*
X153239000Y-94450885D02*
X153286619Y-94355647D01*
X153286619Y-94355647D02*
X153286619Y-94165171D01*
X153286619Y-94165171D02*
X153239000Y-94069933D01*
X153239000Y-94069933D02*
X153191380Y-94022314D01*
X153191380Y-94022314D02*
X153096142Y-93974695D01*
X153096142Y-93974695D02*
X152905666Y-93974695D01*
X152905666Y-93974695D02*
X152810428Y-94022314D01*
X152810428Y-94022314D02*
X152762809Y-94069933D01*
X152762809Y-94069933D02*
X152715190Y-94165171D01*
X90435133Y-133359619D02*
X90101800Y-132883428D01*
X89863705Y-133359619D02*
X89863705Y-132359619D01*
X89863705Y-132359619D02*
X90244657Y-132359619D01*
X90244657Y-132359619D02*
X90339895Y-132407238D01*
X90339895Y-132407238D02*
X90387514Y-132454857D01*
X90387514Y-132454857D02*
X90435133Y-132550095D01*
X90435133Y-132550095D02*
X90435133Y-132692952D01*
X90435133Y-132692952D02*
X90387514Y-132788190D01*
X90387514Y-132788190D02*
X90339895Y-132835809D01*
X90339895Y-132835809D02*
X90244657Y-132883428D01*
X90244657Y-132883428D02*
X89863705Y-132883428D01*
X91387514Y-133359619D02*
X90816086Y-133359619D01*
X91101800Y-133359619D02*
X91101800Y-132359619D01*
X91101800Y-132359619D02*
X91006562Y-132502476D01*
X91006562Y-132502476D02*
X90911324Y-132597714D01*
X90911324Y-132597714D02*
X90816086Y-132645333D01*
X153085895Y-180400419D02*
X153085895Y-179400419D01*
X153085895Y-179876609D02*
X153657323Y-179876609D01*
X153657323Y-180400419D02*
X153657323Y-179400419D01*
X154657323Y-180400419D02*
X154085895Y-180400419D01*
X154371609Y-180400419D02*
X154371609Y-179400419D01*
X154371609Y-179400419D02*
X154276371Y-179543276D01*
X154276371Y-179543276D02*
X154181133Y-179638514D01*
X154181133Y-179638514D02*
X154085895Y-179686133D01*
X133734980Y-165405666D02*
X133782600Y-165453285D01*
X133782600Y-165453285D02*
X133830219Y-165596142D01*
X133830219Y-165596142D02*
X133830219Y-165691380D01*
X133830219Y-165691380D02*
X133782600Y-165834237D01*
X133782600Y-165834237D02*
X133687361Y-165929475D01*
X133687361Y-165929475D02*
X133592123Y-165977094D01*
X133592123Y-165977094D02*
X133401647Y-166024713D01*
X133401647Y-166024713D02*
X133258790Y-166024713D01*
X133258790Y-166024713D02*
X133068314Y-165977094D01*
X133068314Y-165977094D02*
X132973076Y-165929475D01*
X132973076Y-165929475D02*
X132877838Y-165834237D01*
X132877838Y-165834237D02*
X132830219Y-165691380D01*
X132830219Y-165691380D02*
X132830219Y-165596142D01*
X132830219Y-165596142D02*
X132877838Y-165453285D01*
X132877838Y-165453285D02*
X132925457Y-165405666D01*
X132830219Y-164548523D02*
X132830219Y-164738999D01*
X132830219Y-164738999D02*
X132877838Y-164834237D01*
X132877838Y-164834237D02*
X132925457Y-164881856D01*
X132925457Y-164881856D02*
X133068314Y-164977094D01*
X133068314Y-164977094D02*
X133258790Y-165024713D01*
X133258790Y-165024713D02*
X133639742Y-165024713D01*
X133639742Y-165024713D02*
X133734980Y-164977094D01*
X133734980Y-164977094D02*
X133782600Y-164929475D01*
X133782600Y-164929475D02*
X133830219Y-164834237D01*
X133830219Y-164834237D02*
X133830219Y-164643761D01*
X133830219Y-164643761D02*
X133782600Y-164548523D01*
X133782600Y-164548523D02*
X133734980Y-164500904D01*
X133734980Y-164500904D02*
X133639742Y-164453285D01*
X133639742Y-164453285D02*
X133401647Y-164453285D01*
X133401647Y-164453285D02*
X133306409Y-164500904D01*
X133306409Y-164500904D02*
X133258790Y-164548523D01*
X133258790Y-164548523D02*
X133211171Y-164643761D01*
X133211171Y-164643761D02*
X133211171Y-164834237D01*
X133211171Y-164834237D02*
X133258790Y-164929475D01*
X133258790Y-164929475D02*
X133306409Y-164977094D01*
X133306409Y-164977094D02*
X133401647Y-165024713D01*
X73925133Y-130692619D02*
X73591800Y-130216428D01*
X73353705Y-130692619D02*
X73353705Y-129692619D01*
X73353705Y-129692619D02*
X73734657Y-129692619D01*
X73734657Y-129692619D02*
X73829895Y-129740238D01*
X73829895Y-129740238D02*
X73877514Y-129787857D01*
X73877514Y-129787857D02*
X73925133Y-129883095D01*
X73925133Y-129883095D02*
X73925133Y-130025952D01*
X73925133Y-130025952D02*
X73877514Y-130121190D01*
X73877514Y-130121190D02*
X73829895Y-130168809D01*
X73829895Y-130168809D02*
X73734657Y-130216428D01*
X73734657Y-130216428D02*
X73353705Y-130216428D01*
X74306086Y-129787857D02*
X74353705Y-129740238D01*
X74353705Y-129740238D02*
X74448943Y-129692619D01*
X74448943Y-129692619D02*
X74687038Y-129692619D01*
X74687038Y-129692619D02*
X74782276Y-129740238D01*
X74782276Y-129740238D02*
X74829895Y-129787857D01*
X74829895Y-129787857D02*
X74877514Y-129883095D01*
X74877514Y-129883095D02*
X74877514Y-129978333D01*
X74877514Y-129978333D02*
X74829895Y-130121190D01*
X74829895Y-130121190D02*
X74258467Y-130692619D01*
X74258467Y-130692619D02*
X74877514Y-130692619D01*
X69837467Y-132169000D02*
X69980324Y-132216619D01*
X69980324Y-132216619D02*
X70218419Y-132216619D01*
X70218419Y-132216619D02*
X70313657Y-132169000D01*
X70313657Y-132169000D02*
X70361276Y-132121380D01*
X70361276Y-132121380D02*
X70408895Y-132026142D01*
X70408895Y-132026142D02*
X70408895Y-131930904D01*
X70408895Y-131930904D02*
X70361276Y-131835666D01*
X70361276Y-131835666D02*
X70313657Y-131788047D01*
X70313657Y-131788047D02*
X70218419Y-131740428D01*
X70218419Y-131740428D02*
X70027943Y-131692809D01*
X70027943Y-131692809D02*
X69932705Y-131645190D01*
X69932705Y-131645190D02*
X69885086Y-131597571D01*
X69885086Y-131597571D02*
X69837467Y-131502333D01*
X69837467Y-131502333D02*
X69837467Y-131407095D01*
X69837467Y-131407095D02*
X69885086Y-131311857D01*
X69885086Y-131311857D02*
X69932705Y-131264238D01*
X69932705Y-131264238D02*
X70027943Y-131216619D01*
X70027943Y-131216619D02*
X70266038Y-131216619D01*
X70266038Y-131216619D02*
X70408895Y-131264238D01*
X70742229Y-131216619D02*
X70980324Y-132216619D01*
X70980324Y-132216619D02*
X71170800Y-131502333D01*
X71170800Y-131502333D02*
X71361276Y-132216619D01*
X71361276Y-132216619D02*
X71599372Y-131216619D01*
X71885086Y-131216619D02*
X72504133Y-131216619D01*
X72504133Y-131216619D02*
X72170800Y-131597571D01*
X72170800Y-131597571D02*
X72313657Y-131597571D01*
X72313657Y-131597571D02*
X72408895Y-131645190D01*
X72408895Y-131645190D02*
X72456514Y-131692809D01*
X72456514Y-131692809D02*
X72504133Y-131788047D01*
X72504133Y-131788047D02*
X72504133Y-132026142D01*
X72504133Y-132026142D02*
X72456514Y-132121380D01*
X72456514Y-132121380D02*
X72408895Y-132169000D01*
X72408895Y-132169000D02*
X72313657Y-132216619D01*
X72313657Y-132216619D02*
X72027943Y-132216619D01*
X72027943Y-132216619D02*
X71932705Y-132169000D01*
X71932705Y-132169000D02*
X71885086Y-132121380D01*
X109034342Y-61788780D02*
X108986723Y-61836400D01*
X108986723Y-61836400D02*
X108843866Y-61884019D01*
X108843866Y-61884019D02*
X108748628Y-61884019D01*
X108748628Y-61884019D02*
X108605771Y-61836400D01*
X108605771Y-61836400D02*
X108510533Y-61741161D01*
X108510533Y-61741161D02*
X108462914Y-61645923D01*
X108462914Y-61645923D02*
X108415295Y-61455447D01*
X108415295Y-61455447D02*
X108415295Y-61312590D01*
X108415295Y-61312590D02*
X108462914Y-61122114D01*
X108462914Y-61122114D02*
X108510533Y-61026876D01*
X108510533Y-61026876D02*
X108605771Y-60931638D01*
X108605771Y-60931638D02*
X108748628Y-60884019D01*
X108748628Y-60884019D02*
X108843866Y-60884019D01*
X108843866Y-60884019D02*
X108986723Y-60931638D01*
X108986723Y-60931638D02*
X109034342Y-60979257D01*
X109986723Y-61884019D02*
X109415295Y-61884019D01*
X109701009Y-61884019D02*
X109701009Y-60884019D01*
X109701009Y-60884019D02*
X109605771Y-61026876D01*
X109605771Y-61026876D02*
X109510533Y-61122114D01*
X109510533Y-61122114D02*
X109415295Y-61169733D01*
X110367676Y-60979257D02*
X110415295Y-60931638D01*
X110415295Y-60931638D02*
X110510533Y-60884019D01*
X110510533Y-60884019D02*
X110748628Y-60884019D01*
X110748628Y-60884019D02*
X110843866Y-60931638D01*
X110843866Y-60931638D02*
X110891485Y-60979257D01*
X110891485Y-60979257D02*
X110939104Y-61074495D01*
X110939104Y-61074495D02*
X110939104Y-61169733D01*
X110939104Y-61169733D02*
X110891485Y-61312590D01*
X110891485Y-61312590D02*
X110320057Y-61884019D01*
X110320057Y-61884019D02*
X110939104Y-61884019D01*
X82206942Y-115904819D02*
X81873609Y-115428628D01*
X81635514Y-115904819D02*
X81635514Y-114904819D01*
X81635514Y-114904819D02*
X82016466Y-114904819D01*
X82016466Y-114904819D02*
X82111704Y-114952438D01*
X82111704Y-114952438D02*
X82159323Y-115000057D01*
X82159323Y-115000057D02*
X82206942Y-115095295D01*
X82206942Y-115095295D02*
X82206942Y-115238152D01*
X82206942Y-115238152D02*
X82159323Y-115333390D01*
X82159323Y-115333390D02*
X82111704Y-115381009D01*
X82111704Y-115381009D02*
X82016466Y-115428628D01*
X82016466Y-115428628D02*
X81635514Y-115428628D01*
X83159323Y-115904819D02*
X82587895Y-115904819D01*
X82873609Y-115904819D02*
X82873609Y-114904819D01*
X82873609Y-114904819D02*
X82778371Y-115047676D01*
X82778371Y-115047676D02*
X82683133Y-115142914D01*
X82683133Y-115142914D02*
X82587895Y-115190533D01*
X84064085Y-114904819D02*
X83587895Y-114904819D01*
X83587895Y-114904819D02*
X83540276Y-115381009D01*
X83540276Y-115381009D02*
X83587895Y-115333390D01*
X83587895Y-115333390D02*
X83683133Y-115285771D01*
X83683133Y-115285771D02*
X83921228Y-115285771D01*
X83921228Y-115285771D02*
X84016466Y-115333390D01*
X84016466Y-115333390D02*
X84064085Y-115381009D01*
X84064085Y-115381009D02*
X84111704Y-115476247D01*
X84111704Y-115476247D02*
X84111704Y-115714342D01*
X84111704Y-115714342D02*
X84064085Y-115809580D01*
X84064085Y-115809580D02*
X84016466Y-115857200D01*
X84016466Y-115857200D02*
X83921228Y-115904819D01*
X83921228Y-115904819D02*
X83683133Y-115904819D01*
X83683133Y-115904819D02*
X83587895Y-115857200D01*
X83587895Y-115857200D02*
X83540276Y-115809580D01*
X78515380Y-159252457D02*
X78563000Y-159300076D01*
X78563000Y-159300076D02*
X78610619Y-159442933D01*
X78610619Y-159442933D02*
X78610619Y-159538171D01*
X78610619Y-159538171D02*
X78563000Y-159681028D01*
X78563000Y-159681028D02*
X78467761Y-159776266D01*
X78467761Y-159776266D02*
X78372523Y-159823885D01*
X78372523Y-159823885D02*
X78182047Y-159871504D01*
X78182047Y-159871504D02*
X78039190Y-159871504D01*
X78039190Y-159871504D02*
X77848714Y-159823885D01*
X77848714Y-159823885D02*
X77753476Y-159776266D01*
X77753476Y-159776266D02*
X77658238Y-159681028D01*
X77658238Y-159681028D02*
X77610619Y-159538171D01*
X77610619Y-159538171D02*
X77610619Y-159442933D01*
X77610619Y-159442933D02*
X77658238Y-159300076D01*
X77658238Y-159300076D02*
X77705857Y-159252457D01*
X78610619Y-158300076D02*
X78610619Y-158871504D01*
X78610619Y-158585790D02*
X77610619Y-158585790D01*
X77610619Y-158585790D02*
X77753476Y-158681028D01*
X77753476Y-158681028D02*
X77848714Y-158776266D01*
X77848714Y-158776266D02*
X77896333Y-158871504D01*
X78610619Y-157347695D02*
X78610619Y-157919123D01*
X78610619Y-157633409D02*
X77610619Y-157633409D01*
X77610619Y-157633409D02*
X77753476Y-157728647D01*
X77753476Y-157728647D02*
X77848714Y-157823885D01*
X77848714Y-157823885D02*
X77896333Y-157919123D01*
X85220276Y-142138619D02*
X85220276Y-142852904D01*
X85220276Y-142852904D02*
X85172657Y-142995761D01*
X85172657Y-142995761D02*
X85077419Y-143091000D01*
X85077419Y-143091000D02*
X84934562Y-143138619D01*
X84934562Y-143138619D02*
X84839324Y-143138619D01*
X86220276Y-143138619D02*
X85648848Y-143138619D01*
X85934562Y-143138619D02*
X85934562Y-142138619D01*
X85934562Y-142138619D02*
X85839324Y-142281476D01*
X85839324Y-142281476D02*
X85744086Y-142376714D01*
X85744086Y-142376714D02*
X85648848Y-142424333D01*
X86839324Y-142138619D02*
X86934562Y-142138619D01*
X86934562Y-142138619D02*
X87029800Y-142186238D01*
X87029800Y-142186238D02*
X87077419Y-142233857D01*
X87077419Y-142233857D02*
X87125038Y-142329095D01*
X87125038Y-142329095D02*
X87172657Y-142519571D01*
X87172657Y-142519571D02*
X87172657Y-142757666D01*
X87172657Y-142757666D02*
X87125038Y-142948142D01*
X87125038Y-142948142D02*
X87077419Y-143043380D01*
X87077419Y-143043380D02*
X87029800Y-143091000D01*
X87029800Y-143091000D02*
X86934562Y-143138619D01*
X86934562Y-143138619D02*
X86839324Y-143138619D01*
X86839324Y-143138619D02*
X86744086Y-143091000D01*
X86744086Y-143091000D02*
X86696467Y-143043380D01*
X86696467Y-143043380D02*
X86648848Y-142948142D01*
X86648848Y-142948142D02*
X86601229Y-142757666D01*
X86601229Y-142757666D02*
X86601229Y-142519571D01*
X86601229Y-142519571D02*
X86648848Y-142329095D01*
X86648848Y-142329095D02*
X86696467Y-142233857D01*
X86696467Y-142233857D02*
X86744086Y-142186238D01*
X86744086Y-142186238D02*
X86839324Y-142138619D01*
X153089780Y-105633057D02*
X153137400Y-105680676D01*
X153137400Y-105680676D02*
X153185019Y-105823533D01*
X153185019Y-105823533D02*
X153185019Y-105918771D01*
X153185019Y-105918771D02*
X153137400Y-106061628D01*
X153137400Y-106061628D02*
X153042161Y-106156866D01*
X153042161Y-106156866D02*
X152946923Y-106204485D01*
X152946923Y-106204485D02*
X152756447Y-106252104D01*
X152756447Y-106252104D02*
X152613590Y-106252104D01*
X152613590Y-106252104D02*
X152423114Y-106204485D01*
X152423114Y-106204485D02*
X152327876Y-106156866D01*
X152327876Y-106156866D02*
X152232638Y-106061628D01*
X152232638Y-106061628D02*
X152185019Y-105918771D01*
X152185019Y-105918771D02*
X152185019Y-105823533D01*
X152185019Y-105823533D02*
X152232638Y-105680676D01*
X152232638Y-105680676D02*
X152280257Y-105633057D01*
X152280257Y-105252104D02*
X152232638Y-105204485D01*
X152232638Y-105204485D02*
X152185019Y-105109247D01*
X152185019Y-105109247D02*
X152185019Y-104871152D01*
X152185019Y-104871152D02*
X152232638Y-104775914D01*
X152232638Y-104775914D02*
X152280257Y-104728295D01*
X152280257Y-104728295D02*
X152375495Y-104680676D01*
X152375495Y-104680676D02*
X152470733Y-104680676D01*
X152470733Y-104680676D02*
X152613590Y-104728295D01*
X152613590Y-104728295D02*
X153185019Y-105299723D01*
X153185019Y-105299723D02*
X153185019Y-104680676D01*
X153185019Y-103728295D02*
X153185019Y-104299723D01*
X153185019Y-104014009D02*
X152185019Y-104014009D01*
X152185019Y-104014009D02*
X152327876Y-104109247D01*
X152327876Y-104109247D02*
X152423114Y-104204485D01*
X152423114Y-104204485D02*
X152470733Y-104299723D01*
X139729380Y-131642657D02*
X139777000Y-131690276D01*
X139777000Y-131690276D02*
X139824619Y-131833133D01*
X139824619Y-131833133D02*
X139824619Y-131928371D01*
X139824619Y-131928371D02*
X139777000Y-132071228D01*
X139777000Y-132071228D02*
X139681761Y-132166466D01*
X139681761Y-132166466D02*
X139586523Y-132214085D01*
X139586523Y-132214085D02*
X139396047Y-132261704D01*
X139396047Y-132261704D02*
X139253190Y-132261704D01*
X139253190Y-132261704D02*
X139062714Y-132214085D01*
X139062714Y-132214085D02*
X138967476Y-132166466D01*
X138967476Y-132166466D02*
X138872238Y-132071228D01*
X138872238Y-132071228D02*
X138824619Y-131928371D01*
X138824619Y-131928371D02*
X138824619Y-131833133D01*
X138824619Y-131833133D02*
X138872238Y-131690276D01*
X138872238Y-131690276D02*
X138919857Y-131642657D01*
X138919857Y-131261704D02*
X138872238Y-131214085D01*
X138872238Y-131214085D02*
X138824619Y-131118847D01*
X138824619Y-131118847D02*
X138824619Y-130880752D01*
X138824619Y-130880752D02*
X138872238Y-130785514D01*
X138872238Y-130785514D02*
X138919857Y-130737895D01*
X138919857Y-130737895D02*
X139015095Y-130690276D01*
X139015095Y-130690276D02*
X139110333Y-130690276D01*
X139110333Y-130690276D02*
X139253190Y-130737895D01*
X139253190Y-130737895D02*
X139824619Y-131309323D01*
X139824619Y-131309323D02*
X139824619Y-130690276D01*
X138824619Y-130356942D02*
X138824619Y-129737895D01*
X138824619Y-129737895D02*
X139205571Y-130071228D01*
X139205571Y-130071228D02*
X139205571Y-129928371D01*
X139205571Y-129928371D02*
X139253190Y-129833133D01*
X139253190Y-129833133D02*
X139300809Y-129785514D01*
X139300809Y-129785514D02*
X139396047Y-129737895D01*
X139396047Y-129737895D02*
X139634142Y-129737895D01*
X139634142Y-129737895D02*
X139729380Y-129785514D01*
X139729380Y-129785514D02*
X139777000Y-129833133D01*
X139777000Y-129833133D02*
X139824619Y-129928371D01*
X139824619Y-129928371D02*
X139824619Y-130214085D01*
X139824619Y-130214085D02*
X139777000Y-130309323D01*
X139777000Y-130309323D02*
X139729380Y-130356942D01*
D11*
X70747466Y-173423642D02*
X70928895Y-173484118D01*
X70928895Y-173484118D02*
X71231276Y-173484118D01*
X71231276Y-173484118D02*
X71352228Y-173423642D01*
X71352228Y-173423642D02*
X71412704Y-173363165D01*
X71412704Y-173363165D02*
X71473181Y-173242213D01*
X71473181Y-173242213D02*
X71473181Y-173121261D01*
X71473181Y-173121261D02*
X71412704Y-173000308D01*
X71412704Y-173000308D02*
X71352228Y-172939832D01*
X71352228Y-172939832D02*
X71231276Y-172879356D01*
X71231276Y-172879356D02*
X70989371Y-172818880D01*
X70989371Y-172818880D02*
X70868419Y-172758403D01*
X70868419Y-172758403D02*
X70807942Y-172697927D01*
X70807942Y-172697927D02*
X70747466Y-172576975D01*
X70747466Y-172576975D02*
X70747466Y-172456022D01*
X70747466Y-172456022D02*
X70807942Y-172335070D01*
X70807942Y-172335070D02*
X70868419Y-172274594D01*
X70868419Y-172274594D02*
X70989371Y-172214118D01*
X70989371Y-172214118D02*
X71291752Y-172214118D01*
X71291752Y-172214118D02*
X71473181Y-172274594D01*
X71896514Y-172214118D02*
X72198895Y-173484118D01*
X72198895Y-173484118D02*
X72440800Y-172576975D01*
X72440800Y-172576975D02*
X72682705Y-173484118D01*
X72682705Y-173484118D02*
X72985086Y-172214118D01*
X73408419Y-172335070D02*
X73468895Y-172274594D01*
X73468895Y-172274594D02*
X73589848Y-172214118D01*
X73589848Y-172214118D02*
X73892229Y-172214118D01*
X73892229Y-172214118D02*
X74013181Y-172274594D01*
X74013181Y-172274594D02*
X74073657Y-172335070D01*
X74073657Y-172335070D02*
X74134134Y-172456022D01*
X74134134Y-172456022D02*
X74134134Y-172576975D01*
X74134134Y-172576975D02*
X74073657Y-172758403D01*
X74073657Y-172758403D02*
X73347943Y-173484118D01*
X73347943Y-173484118D02*
X74134134Y-173484118D01*
D10*
X80487619Y-55688704D02*
X81297142Y-55688704D01*
X81297142Y-55688704D02*
X81392380Y-55641085D01*
X81392380Y-55641085D02*
X81440000Y-55593466D01*
X81440000Y-55593466D02*
X81487619Y-55498228D01*
X81487619Y-55498228D02*
X81487619Y-55307752D01*
X81487619Y-55307752D02*
X81440000Y-55212514D01*
X81440000Y-55212514D02*
X81392380Y-55164895D01*
X81392380Y-55164895D02*
X81297142Y-55117276D01*
X81297142Y-55117276D02*
X80487619Y-55117276D01*
X80916190Y-54498228D02*
X80868571Y-54593466D01*
X80868571Y-54593466D02*
X80820952Y-54641085D01*
X80820952Y-54641085D02*
X80725714Y-54688704D01*
X80725714Y-54688704D02*
X80678095Y-54688704D01*
X80678095Y-54688704D02*
X80582857Y-54641085D01*
X80582857Y-54641085D02*
X80535238Y-54593466D01*
X80535238Y-54593466D02*
X80487619Y-54498228D01*
X80487619Y-54498228D02*
X80487619Y-54307752D01*
X80487619Y-54307752D02*
X80535238Y-54212514D01*
X80535238Y-54212514D02*
X80582857Y-54164895D01*
X80582857Y-54164895D02*
X80678095Y-54117276D01*
X80678095Y-54117276D02*
X80725714Y-54117276D01*
X80725714Y-54117276D02*
X80820952Y-54164895D01*
X80820952Y-54164895D02*
X80868571Y-54212514D01*
X80868571Y-54212514D02*
X80916190Y-54307752D01*
X80916190Y-54307752D02*
X80916190Y-54498228D01*
X80916190Y-54498228D02*
X80963809Y-54593466D01*
X80963809Y-54593466D02*
X81011428Y-54641085D01*
X81011428Y-54641085D02*
X81106666Y-54688704D01*
X81106666Y-54688704D02*
X81297142Y-54688704D01*
X81297142Y-54688704D02*
X81392380Y-54641085D01*
X81392380Y-54641085D02*
X81440000Y-54593466D01*
X81440000Y-54593466D02*
X81487619Y-54498228D01*
X81487619Y-54498228D02*
X81487619Y-54307752D01*
X81487619Y-54307752D02*
X81440000Y-54212514D01*
X81440000Y-54212514D02*
X81392380Y-54164895D01*
X81392380Y-54164895D02*
X81297142Y-54117276D01*
X81297142Y-54117276D02*
X81106666Y-54117276D01*
X81106666Y-54117276D02*
X81011428Y-54164895D01*
X81011428Y-54164895D02*
X80963809Y-54212514D01*
X80963809Y-54212514D02*
X80916190Y-54307752D01*
X135464561Y-60556857D02*
X135369323Y-60509238D01*
X135369323Y-60509238D02*
X135274085Y-60414000D01*
X135274085Y-60414000D02*
X135131228Y-60271142D01*
X135131228Y-60271142D02*
X135035990Y-60223523D01*
X135035990Y-60223523D02*
X134940752Y-60223523D01*
X134988371Y-60461619D02*
X134893133Y-60414000D01*
X134893133Y-60414000D02*
X134797895Y-60318761D01*
X134797895Y-60318761D02*
X134750276Y-60128285D01*
X134750276Y-60128285D02*
X134750276Y-59794952D01*
X134750276Y-59794952D02*
X134797895Y-59604476D01*
X134797895Y-59604476D02*
X134893133Y-59509238D01*
X134893133Y-59509238D02*
X134988371Y-59461619D01*
X134988371Y-59461619D02*
X135178847Y-59461619D01*
X135178847Y-59461619D02*
X135274085Y-59509238D01*
X135274085Y-59509238D02*
X135369323Y-59604476D01*
X135369323Y-59604476D02*
X135416942Y-59794952D01*
X135416942Y-59794952D02*
X135416942Y-60128285D01*
X135416942Y-60128285D02*
X135369323Y-60318761D01*
X135369323Y-60318761D02*
X135274085Y-60414000D01*
X135274085Y-60414000D02*
X135178847Y-60461619D01*
X135178847Y-60461619D02*
X134988371Y-60461619D01*
X136369323Y-60461619D02*
X135797895Y-60461619D01*
X136083609Y-60461619D02*
X136083609Y-59461619D01*
X136083609Y-59461619D02*
X135988371Y-59604476D01*
X135988371Y-59604476D02*
X135893133Y-59699714D01*
X135893133Y-59699714D02*
X135797895Y-59747333D01*
X134535942Y-63179419D02*
X134202609Y-62703228D01*
X133964514Y-63179419D02*
X133964514Y-62179419D01*
X133964514Y-62179419D02*
X134345466Y-62179419D01*
X134345466Y-62179419D02*
X134440704Y-62227038D01*
X134440704Y-62227038D02*
X134488323Y-62274657D01*
X134488323Y-62274657D02*
X134535942Y-62369895D01*
X134535942Y-62369895D02*
X134535942Y-62512752D01*
X134535942Y-62512752D02*
X134488323Y-62607990D01*
X134488323Y-62607990D02*
X134440704Y-62655609D01*
X134440704Y-62655609D02*
X134345466Y-62703228D01*
X134345466Y-62703228D02*
X133964514Y-62703228D01*
X135488323Y-63179419D02*
X134916895Y-63179419D01*
X135202609Y-63179419D02*
X135202609Y-62179419D01*
X135202609Y-62179419D02*
X135107371Y-62322276D01*
X135107371Y-62322276D02*
X135012133Y-62417514D01*
X135012133Y-62417514D02*
X134916895Y-62465133D01*
X136440704Y-63179419D02*
X135869276Y-63179419D01*
X136154990Y-63179419D02*
X136154990Y-62179419D01*
X136154990Y-62179419D02*
X136059752Y-62322276D01*
X136059752Y-62322276D02*
X135964514Y-62417514D01*
X135964514Y-62417514D02*
X135869276Y-62465133D01*
X144892733Y-166201819D02*
X144559400Y-165725628D01*
X144321305Y-166201819D02*
X144321305Y-165201819D01*
X144321305Y-165201819D02*
X144702257Y-165201819D01*
X144702257Y-165201819D02*
X144797495Y-165249438D01*
X144797495Y-165249438D02*
X144845114Y-165297057D01*
X144845114Y-165297057D02*
X144892733Y-165392295D01*
X144892733Y-165392295D02*
X144892733Y-165535152D01*
X144892733Y-165535152D02*
X144845114Y-165630390D01*
X144845114Y-165630390D02*
X144797495Y-165678009D01*
X144797495Y-165678009D02*
X144702257Y-165725628D01*
X144702257Y-165725628D02*
X144321305Y-165725628D01*
X145749876Y-165535152D02*
X145749876Y-166201819D01*
X145511781Y-165154200D02*
X145273686Y-165868485D01*
X145273686Y-165868485D02*
X145892733Y-165868485D01*
X101317466Y-86385619D02*
X101317466Y-87099904D01*
X101317466Y-87099904D02*
X101269847Y-87242761D01*
X101269847Y-87242761D02*
X101174609Y-87338000D01*
X101174609Y-87338000D02*
X101031752Y-87385619D01*
X101031752Y-87385619D02*
X100936514Y-87385619D01*
X102317466Y-87385619D02*
X101746038Y-87385619D01*
X102031752Y-87385619D02*
X102031752Y-86385619D01*
X102031752Y-86385619D02*
X101936514Y-86528476D01*
X101936514Y-86528476D02*
X101841276Y-86623714D01*
X101841276Y-86623714D02*
X101746038Y-86671333D01*
X133236619Y-125284704D02*
X134046142Y-125284704D01*
X134046142Y-125284704D02*
X134141380Y-125237085D01*
X134141380Y-125237085D02*
X134189000Y-125189466D01*
X134189000Y-125189466D02*
X134236619Y-125094228D01*
X134236619Y-125094228D02*
X134236619Y-124903752D01*
X134236619Y-124903752D02*
X134189000Y-124808514D01*
X134189000Y-124808514D02*
X134141380Y-124760895D01*
X134141380Y-124760895D02*
X134046142Y-124713276D01*
X134046142Y-124713276D02*
X133236619Y-124713276D01*
X133331857Y-124284704D02*
X133284238Y-124237085D01*
X133284238Y-124237085D02*
X133236619Y-124141847D01*
X133236619Y-124141847D02*
X133236619Y-123903752D01*
X133236619Y-123903752D02*
X133284238Y-123808514D01*
X133284238Y-123808514D02*
X133331857Y-123760895D01*
X133331857Y-123760895D02*
X133427095Y-123713276D01*
X133427095Y-123713276D02*
X133522333Y-123713276D01*
X133522333Y-123713276D02*
X133665190Y-123760895D01*
X133665190Y-123760895D02*
X134236619Y-124332323D01*
X134236619Y-124332323D02*
X134236619Y-123713276D01*
X121912142Y-83404180D02*
X121864523Y-83451800D01*
X121864523Y-83451800D02*
X121721666Y-83499419D01*
X121721666Y-83499419D02*
X121626428Y-83499419D01*
X121626428Y-83499419D02*
X121483571Y-83451800D01*
X121483571Y-83451800D02*
X121388333Y-83356561D01*
X121388333Y-83356561D02*
X121340714Y-83261323D01*
X121340714Y-83261323D02*
X121293095Y-83070847D01*
X121293095Y-83070847D02*
X121293095Y-82927990D01*
X121293095Y-82927990D02*
X121340714Y-82737514D01*
X121340714Y-82737514D02*
X121388333Y-82642276D01*
X121388333Y-82642276D02*
X121483571Y-82547038D01*
X121483571Y-82547038D02*
X121626428Y-82499419D01*
X121626428Y-82499419D02*
X121721666Y-82499419D01*
X121721666Y-82499419D02*
X121864523Y-82547038D01*
X121864523Y-82547038D02*
X121912142Y-82594657D01*
X122864523Y-83499419D02*
X122293095Y-83499419D01*
X122578809Y-83499419D02*
X122578809Y-82499419D01*
X122578809Y-82499419D02*
X122483571Y-82642276D01*
X122483571Y-82642276D02*
X122388333Y-82737514D01*
X122388333Y-82737514D02*
X122293095Y-82785133D01*
X123197857Y-82499419D02*
X123816904Y-82499419D01*
X123816904Y-82499419D02*
X123483571Y-82880371D01*
X123483571Y-82880371D02*
X123626428Y-82880371D01*
X123626428Y-82880371D02*
X123721666Y-82927990D01*
X123721666Y-82927990D02*
X123769285Y-82975609D01*
X123769285Y-82975609D02*
X123816904Y-83070847D01*
X123816904Y-83070847D02*
X123816904Y-83308942D01*
X123816904Y-83308942D02*
X123769285Y-83404180D01*
X123769285Y-83404180D02*
X123721666Y-83451800D01*
X123721666Y-83451800D02*
X123626428Y-83499419D01*
X123626428Y-83499419D02*
X123340714Y-83499419D01*
X123340714Y-83499419D02*
X123245476Y-83451800D01*
X123245476Y-83451800D02*
X123197857Y-83404180D01*
X154595533Y-175961780D02*
X154547914Y-176009400D01*
X154547914Y-176009400D02*
X154405057Y-176057019D01*
X154405057Y-176057019D02*
X154309819Y-176057019D01*
X154309819Y-176057019D02*
X154166962Y-176009400D01*
X154166962Y-176009400D02*
X154071724Y-175914161D01*
X154071724Y-175914161D02*
X154024105Y-175818923D01*
X154024105Y-175818923D02*
X153976486Y-175628447D01*
X153976486Y-175628447D02*
X153976486Y-175485590D01*
X153976486Y-175485590D02*
X154024105Y-175295114D01*
X154024105Y-175295114D02*
X154071724Y-175199876D01*
X154071724Y-175199876D02*
X154166962Y-175104638D01*
X154166962Y-175104638D02*
X154309819Y-175057019D01*
X154309819Y-175057019D02*
X154405057Y-175057019D01*
X154405057Y-175057019D02*
X154547914Y-175104638D01*
X154547914Y-175104638D02*
X154595533Y-175152257D01*
X154976486Y-175152257D02*
X155024105Y-175104638D01*
X155024105Y-175104638D02*
X155119343Y-175057019D01*
X155119343Y-175057019D02*
X155357438Y-175057019D01*
X155357438Y-175057019D02*
X155452676Y-175104638D01*
X155452676Y-175104638D02*
X155500295Y-175152257D01*
X155500295Y-175152257D02*
X155547914Y-175247495D01*
X155547914Y-175247495D02*
X155547914Y-175342733D01*
X155547914Y-175342733D02*
X155500295Y-175485590D01*
X155500295Y-175485590D02*
X154928867Y-176057019D01*
X154928867Y-176057019D02*
X155547914Y-176057019D01*
D12*
%TO.C,C1*%
X87834800Y-131404800D02*
X90574800Y-131404800D01*
X90574800Y-131404800D02*
X90574800Y-124164800D01*
X87834800Y-131404800D02*
X87834800Y-124164800D01*
X87834800Y-124164800D02*
X90574800Y-124164800D01*
%TO.C,C3*%
X118279513Y-161303400D02*
X118279513Y-159995400D01*
X117399513Y-164042400D02*
X117399513Y-163383400D01*
X117119513Y-163662400D02*
X117119513Y-163383400D01*
X117159513Y-163726400D02*
X117159513Y-163383400D01*
X118880513Y-161303400D02*
X118880513Y-159807400D01*
X118079513Y-164590400D02*
X118079513Y-163383400D01*
X119360513Y-164923400D02*
X119360513Y-159763400D01*
X118199513Y-161303400D02*
X118199513Y-160033400D01*
X117519513Y-161303400D02*
X117519513Y-160517400D01*
X117919513Y-161303400D02*
X117919513Y-160194400D01*
X118639513Y-161303400D02*
X118639513Y-159863400D01*
X117879513Y-161303400D02*
X117879513Y-160221400D01*
X117199513Y-163786400D02*
X117199513Y-163383400D01*
X119280513Y-164922400D02*
X119280513Y-159764400D01*
X117759513Y-164378400D02*
X117759513Y-163383400D01*
X116799513Y-162861400D02*
X116799513Y-161825400D01*
X118559513Y-164798400D02*
X118559513Y-163383400D01*
X118039513Y-164567400D02*
X118039513Y-163383400D01*
X118239513Y-161303400D02*
X118239513Y-160014400D01*
X117439513Y-161303400D02*
X117439513Y-160600400D01*
X117719513Y-161303400D02*
X117719513Y-160339400D01*
X117119513Y-161303400D02*
X117119513Y-161024400D01*
X117079513Y-161303400D02*
X117079513Y-161092400D01*
X117559513Y-161303400D02*
X117559513Y-160479400D01*
X118800513Y-161303400D02*
X118800513Y-159823400D01*
X118880513Y-164879400D02*
X118880513Y-163383400D01*
X118639513Y-164823400D02*
X118639513Y-163383400D01*
X118439513Y-164757400D02*
X118439513Y-163383400D01*
X118680513Y-161303400D02*
X118680513Y-159852400D01*
X116839513Y-163020400D02*
X116839513Y-161666400D01*
X117959513Y-164518400D02*
X117959513Y-163383400D01*
X118599513Y-161303400D02*
X118599513Y-159875400D01*
X117479513Y-164128400D02*
X117479513Y-163383400D01*
X117199513Y-161303400D02*
X117199513Y-160900400D01*
X117639513Y-164280400D02*
X117639513Y-163383400D01*
X117919513Y-164492400D02*
X117919513Y-163383400D01*
X118239513Y-164672400D02*
X118239513Y-163383400D01*
X119000513Y-161303400D02*
X119000513Y-159787400D01*
X117159513Y-161303400D02*
X117159513Y-160960400D01*
X118760513Y-164854400D02*
X118760513Y-163383400D01*
X116999513Y-163441400D02*
X116999513Y-161245400D01*
X117439513Y-164086400D02*
X117439513Y-163383400D01*
X119120513Y-161303400D02*
X119120513Y-159774400D01*
X118840513Y-161303400D02*
X118840513Y-159815400D01*
X118920513Y-164886400D02*
X118920513Y-163383400D01*
X119200513Y-164919400D02*
X119200513Y-159767400D01*
X117839513Y-164438400D02*
X117839513Y-163383400D01*
X118119513Y-161303400D02*
X118119513Y-160075400D01*
X118359513Y-164725400D02*
X118359513Y-163383400D01*
X118720513Y-161303400D02*
X118720513Y-159842400D01*
X118840513Y-164871400D02*
X118840513Y-163383400D01*
X119320513Y-164923400D02*
X119320513Y-159763400D01*
X118319513Y-164708400D02*
X118319513Y-163383400D01*
X117359513Y-161303400D02*
X117359513Y-160690400D01*
X118720513Y-164844400D02*
X118720513Y-163383400D01*
X119040513Y-164904400D02*
X119040513Y-163383400D01*
X117999513Y-164543400D02*
X117999513Y-163383400D01*
X117759513Y-161303400D02*
X117759513Y-160308400D01*
X117519513Y-164169400D02*
X117519513Y-163383400D01*
X118960513Y-161303400D02*
X118960513Y-159793400D01*
X118519513Y-164785400D02*
X118519513Y-163383400D01*
X118800513Y-164863400D02*
X118800513Y-163383400D01*
X118960513Y-164893400D02*
X118960513Y-163383400D01*
X117959513Y-161303400D02*
X117959513Y-160168400D01*
X118399513Y-161303400D02*
X118399513Y-159945400D01*
X119240513Y-164921400D02*
X119240513Y-159765400D01*
X119160513Y-164916400D02*
X119160513Y-159770400D01*
X119120513Y-164912400D02*
X119120513Y-163383400D01*
X118760513Y-161303400D02*
X118760513Y-159832400D01*
X117479513Y-161303400D02*
X117479513Y-160558400D01*
X118159513Y-164633400D02*
X118159513Y-163383400D01*
X117799513Y-164408400D02*
X117799513Y-163383400D01*
X118319513Y-161303400D02*
X118319513Y-159978400D01*
X117359513Y-163996400D02*
X117359513Y-163383400D01*
X119000513Y-164899400D02*
X119000513Y-163383400D01*
X117639513Y-161303400D02*
X117639513Y-160406400D01*
X118519513Y-161303400D02*
X118519513Y-159901400D01*
X117799513Y-161303400D02*
X117799513Y-160278400D01*
X118079513Y-161303400D02*
X118079513Y-160096400D01*
X117599513Y-161303400D02*
X117599513Y-160442400D01*
X118559513Y-161303400D02*
X118559513Y-159888400D01*
X118039513Y-161303400D02*
X118039513Y-160119400D01*
X118399513Y-164741400D02*
X118399513Y-163383400D01*
X122165288Y-163818400D02*
X121665288Y-163818400D01*
X117319513Y-161303400D02*
X117319513Y-160738400D01*
X116879513Y-163148400D02*
X116879513Y-161538400D01*
X117079513Y-163594400D02*
X117079513Y-163383400D01*
X118479513Y-161303400D02*
X118479513Y-159915400D01*
X119080513Y-161303400D02*
X119080513Y-159778400D01*
X116759513Y-162627400D02*
X116759513Y-162059400D01*
X118479513Y-164771400D02*
X118479513Y-163383400D01*
X116959513Y-163354400D02*
X116959513Y-161332400D01*
X118359513Y-161303400D02*
X118359513Y-159961400D01*
X117719513Y-164347400D02*
X117719513Y-163383400D01*
X117239513Y-163843400D02*
X117239513Y-163383400D01*
X117039513Y-163521400D02*
X117039513Y-161165400D01*
X117879513Y-164465400D02*
X117879513Y-163383400D01*
X117999513Y-161303400D02*
X117999513Y-160143400D01*
X118439513Y-161303400D02*
X118439513Y-159929400D01*
X121915288Y-164068400D02*
X121915288Y-163568400D01*
X118279513Y-164691400D02*
X118279513Y-163383400D01*
X117679513Y-164314400D02*
X117679513Y-163383400D01*
X118680513Y-164834400D02*
X118680513Y-163383400D01*
X117839513Y-161303400D02*
X117839513Y-160248400D01*
X119040513Y-161303400D02*
X119040513Y-159782400D01*
X118159513Y-161303400D02*
X118159513Y-160053400D01*
X118119513Y-164611400D02*
X118119513Y-163383400D01*
X117279513Y-163897400D02*
X117279513Y-163383400D01*
X118199513Y-164653400D02*
X118199513Y-163383400D01*
X117279513Y-161303400D02*
X117279513Y-160789400D01*
X116919513Y-163258400D02*
X116919513Y-161428400D01*
X117679513Y-161303400D02*
X117679513Y-160372400D01*
X119080513Y-164908400D02*
X119080513Y-163383400D01*
X117239513Y-161303400D02*
X117239513Y-160843400D01*
X117599513Y-164244400D02*
X117599513Y-163383400D01*
X118920513Y-161303400D02*
X118920513Y-159800400D01*
X117319513Y-163948400D02*
X117319513Y-163383400D01*
X118599513Y-164811400D02*
X118599513Y-163383400D01*
X117399513Y-161303400D02*
X117399513Y-160644400D01*
X117559513Y-164207400D02*
X117559513Y-163383400D01*
X121980513Y-162343400D02*
G75*
G03*
X116740513Y-162343400I-2620000J0D01*
G01*
X116740513Y-162343400D02*
G75*
G03*
X121980513Y-162343400I2620000J0D01*
G01*
%TO.C,L1*%
X128982600Y-156857000D02*
X128562600Y-156857000D01*
X128562600Y-158627000D02*
X128562600Y-155087000D01*
X121322600Y-155087000D02*
X121322600Y-158627000D01*
X128562600Y-155087000D02*
X121322600Y-155087000D01*
X120902600Y-156857000D02*
X121322600Y-156857000D01*
X121322600Y-158627000D02*
X128562600Y-158627000D01*
%TO.C,R27*%
X146413450Y-167952600D02*
X146083450Y-167952600D01*
X143673450Y-174492600D02*
X143673450Y-167952600D01*
X146413450Y-174492600D02*
X146413450Y-167952600D01*
X146083450Y-174492600D02*
X146413450Y-174492600D01*
X144003450Y-174492600D02*
X143673450Y-174492600D01*
X143673450Y-167952600D02*
X144003450Y-167952600D01*
%TO.C,R26*%
X140946200Y-157587000D02*
X141276200Y-157587000D01*
X143686200Y-151047000D02*
X143686200Y-157587000D01*
X140946200Y-151047000D02*
X140946200Y-157587000D01*
X141276200Y-151047000D02*
X140946200Y-151047000D01*
X143356200Y-151047000D02*
X143686200Y-151047000D01*
X143686200Y-157587000D02*
X143356200Y-157587000D01*
%TO.C,R25*%
X137338850Y-173527400D02*
X137668850Y-173527400D01*
X140078850Y-166987400D02*
X140078850Y-173527400D01*
X137338850Y-166987400D02*
X137338850Y-173527400D01*
X137668850Y-166987400D02*
X137338850Y-166987400D01*
X139748850Y-166987400D02*
X140078850Y-166987400D01*
X140078850Y-173527400D02*
X139748850Y-173527400D01*
%TO.C,R24*%
X154374600Y-165897800D02*
X154374600Y-165567800D01*
X147834600Y-163157800D02*
X154374600Y-163157800D01*
X147834600Y-165897800D02*
X154374600Y-165897800D01*
X147834600Y-165567800D02*
X147834600Y-165897800D01*
X147834600Y-163487800D02*
X147834600Y-163157800D01*
X154374600Y-163157800D02*
X154374600Y-163487800D01*
%TO.C,R23*%
X134189800Y-164597400D02*
X134519800Y-164597400D01*
X136929800Y-158057400D02*
X136929800Y-164597400D01*
X134189800Y-158057400D02*
X134189800Y-164597400D01*
X134519800Y-158057400D02*
X134189800Y-158057400D01*
X136599800Y-158057400D02*
X136929800Y-158057400D01*
X136929800Y-164597400D02*
X136599800Y-164597400D01*
%TO.C,C28*%
X126236600Y-160297513D02*
X126849600Y-160297513D01*
X126236600Y-160977513D02*
X127420600Y-160977513D01*
X126236600Y-162098513D02*
X127769600Y-162098513D01*
X122928600Y-161057513D02*
X124156600Y-161057513D01*
X122867600Y-161177513D02*
X124156600Y-161177513D01*
X122886600Y-161137513D02*
X124156600Y-161137513D01*
X123225600Y-160617513D02*
X124156600Y-160617513D01*
X126236600Y-160337513D02*
X126895600Y-160337513D01*
X126236600Y-160657513D02*
X127200600Y-160657513D01*
X122620600Y-162138513D02*
X124156600Y-162138513D01*
X123131600Y-160737513D02*
X124156600Y-160737513D01*
X126236600Y-162258513D02*
X127776600Y-162258513D01*
X126236600Y-161577513D02*
X127676600Y-161577513D01*
X122768600Y-161417513D02*
X124156600Y-161417513D01*
X122782600Y-161377513D02*
X124156600Y-161377513D01*
X123295600Y-160537513D02*
X124156600Y-160537513D01*
X122685600Y-161698513D02*
X124156600Y-161698513D01*
X126236600Y-162058513D02*
X127765600Y-162058513D01*
X126236600Y-161457513D02*
X127638600Y-161457513D01*
X126236600Y-161738513D02*
X127716600Y-161738513D01*
X126236600Y-161017513D02*
X127443600Y-161017513D01*
X126236600Y-160897513D02*
X127371600Y-160897513D01*
X126236600Y-162178513D02*
X127774600Y-162178513D01*
X122668600Y-161778513D02*
X124156600Y-161778513D01*
X123047600Y-160857513D02*
X124156600Y-160857513D01*
X123370600Y-160457513D02*
X124156600Y-160457513D01*
X123543600Y-160297513D02*
X124156600Y-160297513D01*
X126236600Y-161257513D02*
X127561600Y-161257513D01*
X122616600Y-162298513D02*
X124156600Y-162298513D01*
X122635600Y-161978513D02*
X124156600Y-161978513D01*
X122831600Y-161257513D02*
X124156600Y-161257513D01*
X122660600Y-161818513D02*
X124156600Y-161818513D01*
X124391600Y-159817513D02*
X126001600Y-159817513D01*
X123945600Y-160017513D02*
X126447600Y-160017513D01*
X123696600Y-160177513D02*
X126696600Y-160177513D01*
X126236600Y-161938513D02*
X127752600Y-161938513D01*
X126236600Y-161217513D02*
X127544600Y-161217513D01*
X124519600Y-159777513D02*
X125873600Y-159777513D01*
X126236600Y-160737513D02*
X127261600Y-160737513D01*
X126236600Y-160777513D02*
X127291600Y-160777513D01*
X122728600Y-161537513D02*
X124156600Y-161537513D01*
X126236600Y-161297513D02*
X127578600Y-161297513D01*
X126236600Y-161417513D02*
X127624600Y-161417513D01*
X122848600Y-161217513D02*
X124156600Y-161217513D01*
X126236600Y-161057513D02*
X127464600Y-161057513D01*
X123411600Y-160417513D02*
X124156600Y-160417513D01*
X123101600Y-160777513D02*
X124156600Y-160777513D01*
X126236600Y-161978513D02*
X127757600Y-161978513D01*
X126236600Y-161377513D02*
X127610600Y-161377513D01*
X126236600Y-161337513D02*
X127594600Y-161337513D01*
X126236600Y-162138513D02*
X127772600Y-162138513D01*
X122814600Y-161297513D02*
X124156600Y-161297513D01*
X122705600Y-161618513D02*
X124156600Y-161618513D01*
X124185600Y-159897513D02*
X126207600Y-159897513D01*
X123642600Y-160217513D02*
X126750600Y-160217513D01*
X124281600Y-159857513D02*
X126111600Y-159857513D01*
X123721600Y-165103288D02*
X123721600Y-164603288D01*
X126236600Y-162298513D02*
X127776600Y-162298513D01*
X122741600Y-161497513D02*
X124156600Y-161497513D01*
X123074600Y-160817513D02*
X124156600Y-160817513D01*
X126236600Y-161097513D02*
X127486600Y-161097513D01*
X122996600Y-160937513D02*
X124156600Y-160937513D01*
X123332600Y-160497513D02*
X124156600Y-160497513D01*
X126236600Y-160377513D02*
X126939600Y-160377513D01*
X124098600Y-159937513D02*
X126294600Y-159937513D01*
X122618600Y-162178513D02*
X124156600Y-162178513D01*
X122631600Y-162018513D02*
X124156600Y-162018513D01*
X122617600Y-162218513D02*
X124156600Y-162218513D01*
X122623600Y-162098513D02*
X124156600Y-162098513D01*
X126236600Y-160497513D02*
X127060600Y-160497513D01*
X126236600Y-161177513D02*
X127525600Y-161177513D01*
X124678600Y-159737513D02*
X125714600Y-159737513D01*
X124912600Y-159697513D02*
X125480600Y-159697513D01*
X126236600Y-161698513D02*
X127707600Y-161698513D01*
X126236600Y-160577513D02*
X127133600Y-160577513D01*
X126236600Y-161137513D02*
X127506600Y-161137513D01*
X126236600Y-161898513D02*
X127746600Y-161898513D01*
X123877600Y-160057513D02*
X126515600Y-160057513D01*
X123813600Y-160097513D02*
X126579600Y-160097513D01*
X122798600Y-161337513D02*
X124156600Y-161337513D01*
X122949600Y-161017513D02*
X124156600Y-161017513D01*
X124018600Y-159977513D02*
X126374600Y-159977513D01*
X126236600Y-160937513D02*
X127396600Y-160937513D01*
X123453600Y-160377513D02*
X124156600Y-160377513D01*
X123161600Y-160697513D02*
X124156600Y-160697513D01*
X123591600Y-160257513D02*
X126801600Y-160257513D01*
X126236600Y-160817513D02*
X127318600Y-160817513D01*
X126236600Y-161537513D02*
X127664600Y-161537513D01*
X126236600Y-161778513D02*
X127724600Y-161778513D01*
X122754600Y-161457513D02*
X124156600Y-161457513D01*
X122640600Y-161938513D02*
X124156600Y-161938513D01*
X126236600Y-161858513D02*
X127739600Y-161858513D01*
X123753600Y-160137513D02*
X126639600Y-160137513D01*
X126236600Y-160457513D02*
X127022600Y-160457513D01*
X126236600Y-161497513D02*
X127651600Y-161497513D01*
X126236600Y-162018513D02*
X127761600Y-162018513D01*
X126236600Y-162218513D02*
X127775600Y-162218513D01*
X126236600Y-161618513D02*
X127687600Y-161618513D01*
X126236600Y-160417513D02*
X126981600Y-160417513D01*
X122716600Y-161577513D02*
X124156600Y-161577513D01*
X123192600Y-160657513D02*
X124156600Y-160657513D01*
X126236600Y-160857513D02*
X127345600Y-160857513D01*
X123021600Y-160897513D02*
X124156600Y-160897513D01*
X122906600Y-161097513D02*
X124156600Y-161097513D01*
X122627600Y-162058513D02*
X124156600Y-162058513D01*
X123259600Y-160577513D02*
X124156600Y-160577513D01*
X122653600Y-161858513D02*
X124156600Y-161858513D01*
X126236600Y-161658513D02*
X127697600Y-161658513D01*
X122972600Y-160977513D02*
X124156600Y-160977513D01*
X123471600Y-164853288D02*
X123971600Y-164853288D01*
X122646600Y-161898513D02*
X124156600Y-161898513D01*
X126236600Y-160617513D02*
X127167600Y-160617513D01*
X126236600Y-161818513D02*
X127732600Y-161818513D01*
X122676600Y-161738513D02*
X124156600Y-161738513D01*
X126236600Y-160697513D02*
X127231600Y-160697513D01*
X126236600Y-160537513D02*
X127097600Y-160537513D01*
X122616600Y-162258513D02*
X124156600Y-162258513D01*
X122695600Y-161658513D02*
X124156600Y-161658513D01*
X123497600Y-160337513D02*
X124156600Y-160337513D01*
X127816600Y-162298513D02*
G75*
G03*
X122576600Y-162298513I-2620000J0D01*
G01*
X122576600Y-162298513D02*
G75*
G03*
X127816600Y-162298513I2620000J0D01*
G01*
%TO.C,C27*%
X132078600Y-160297513D02*
X132691600Y-160297513D01*
X132078600Y-160977513D02*
X133262600Y-160977513D01*
X132078600Y-162098513D02*
X133611600Y-162098513D01*
X128770600Y-161057513D02*
X129998600Y-161057513D01*
X128709600Y-161177513D02*
X129998600Y-161177513D01*
X128728600Y-161137513D02*
X129998600Y-161137513D01*
X129067600Y-160617513D02*
X129998600Y-160617513D01*
X132078600Y-160337513D02*
X132737600Y-160337513D01*
X132078600Y-160657513D02*
X133042600Y-160657513D01*
X128462600Y-162138513D02*
X129998600Y-162138513D01*
X128973600Y-160737513D02*
X129998600Y-160737513D01*
X132078600Y-162258513D02*
X133618600Y-162258513D01*
X132078600Y-161577513D02*
X133518600Y-161577513D01*
X128610600Y-161417513D02*
X129998600Y-161417513D01*
X128624600Y-161377513D02*
X129998600Y-161377513D01*
X129137600Y-160537513D02*
X129998600Y-160537513D01*
X128527600Y-161698513D02*
X129998600Y-161698513D01*
X132078600Y-162058513D02*
X133607600Y-162058513D01*
X132078600Y-161457513D02*
X133480600Y-161457513D01*
X132078600Y-161738513D02*
X133558600Y-161738513D01*
X132078600Y-161017513D02*
X133285600Y-161017513D01*
X132078600Y-160897513D02*
X133213600Y-160897513D01*
X132078600Y-162178513D02*
X133616600Y-162178513D01*
X128510600Y-161778513D02*
X129998600Y-161778513D01*
X128889600Y-160857513D02*
X129998600Y-160857513D01*
X129212600Y-160457513D02*
X129998600Y-160457513D01*
X129385600Y-160297513D02*
X129998600Y-160297513D01*
X132078600Y-161257513D02*
X133403600Y-161257513D01*
X128458600Y-162298513D02*
X129998600Y-162298513D01*
X128477600Y-161978513D02*
X129998600Y-161978513D01*
X128673600Y-161257513D02*
X129998600Y-161257513D01*
X128502600Y-161818513D02*
X129998600Y-161818513D01*
X130233600Y-159817513D02*
X131843600Y-159817513D01*
X129787600Y-160017513D02*
X132289600Y-160017513D01*
X129538600Y-160177513D02*
X132538600Y-160177513D01*
X132078600Y-161938513D02*
X133594600Y-161938513D01*
X132078600Y-161217513D02*
X133386600Y-161217513D01*
X130361600Y-159777513D02*
X131715600Y-159777513D01*
X132078600Y-160737513D02*
X133103600Y-160737513D01*
X132078600Y-160777513D02*
X133133600Y-160777513D01*
X128570600Y-161537513D02*
X129998600Y-161537513D01*
X132078600Y-161297513D02*
X133420600Y-161297513D01*
X132078600Y-161417513D02*
X133466600Y-161417513D01*
X128690600Y-161217513D02*
X129998600Y-161217513D01*
X132078600Y-161057513D02*
X133306600Y-161057513D01*
X129253600Y-160417513D02*
X129998600Y-160417513D01*
X128943600Y-160777513D02*
X129998600Y-160777513D01*
X132078600Y-161978513D02*
X133599600Y-161978513D01*
X132078600Y-161377513D02*
X133452600Y-161377513D01*
X132078600Y-161337513D02*
X133436600Y-161337513D01*
X132078600Y-162138513D02*
X133614600Y-162138513D01*
X128656600Y-161297513D02*
X129998600Y-161297513D01*
X128547600Y-161618513D02*
X129998600Y-161618513D01*
X130027600Y-159897513D02*
X132049600Y-159897513D01*
X129484600Y-160217513D02*
X132592600Y-160217513D01*
X130123600Y-159857513D02*
X131953600Y-159857513D01*
X129563600Y-165103288D02*
X129563600Y-164603288D01*
X132078600Y-162298513D02*
X133618600Y-162298513D01*
X128583600Y-161497513D02*
X129998600Y-161497513D01*
X128916600Y-160817513D02*
X129998600Y-160817513D01*
X132078600Y-161097513D02*
X133328600Y-161097513D01*
X128838600Y-160937513D02*
X129998600Y-160937513D01*
X129174600Y-160497513D02*
X129998600Y-160497513D01*
X132078600Y-160377513D02*
X132781600Y-160377513D01*
X129940600Y-159937513D02*
X132136600Y-159937513D01*
X128460600Y-162178513D02*
X129998600Y-162178513D01*
X128473600Y-162018513D02*
X129998600Y-162018513D01*
X128459600Y-162218513D02*
X129998600Y-162218513D01*
X128465600Y-162098513D02*
X129998600Y-162098513D01*
X132078600Y-160497513D02*
X132902600Y-160497513D01*
X132078600Y-161177513D02*
X133367600Y-161177513D01*
X130520600Y-159737513D02*
X131556600Y-159737513D01*
X130754600Y-159697513D02*
X131322600Y-159697513D01*
X132078600Y-161698513D02*
X133549600Y-161698513D01*
X132078600Y-160577513D02*
X132975600Y-160577513D01*
X132078600Y-161137513D02*
X133348600Y-161137513D01*
X132078600Y-161898513D02*
X133588600Y-161898513D01*
X129719600Y-160057513D02*
X132357600Y-160057513D01*
X129655600Y-160097513D02*
X132421600Y-160097513D01*
X128640600Y-161337513D02*
X129998600Y-161337513D01*
X128791600Y-161017513D02*
X129998600Y-161017513D01*
X129860600Y-159977513D02*
X132216600Y-159977513D01*
X132078600Y-160937513D02*
X133238600Y-160937513D01*
X129295600Y-160377513D02*
X129998600Y-160377513D01*
X129003600Y-160697513D02*
X129998600Y-160697513D01*
X129433600Y-160257513D02*
X132643600Y-160257513D01*
X132078600Y-160817513D02*
X133160600Y-160817513D01*
X132078600Y-161537513D02*
X133506600Y-161537513D01*
X132078600Y-161778513D02*
X133566600Y-161778513D01*
X128596600Y-161457513D02*
X129998600Y-161457513D01*
X128482600Y-161938513D02*
X129998600Y-161938513D01*
X132078600Y-161858513D02*
X133581600Y-161858513D01*
X129595600Y-160137513D02*
X132481600Y-160137513D01*
X132078600Y-160457513D02*
X132864600Y-160457513D01*
X132078600Y-161497513D02*
X133493600Y-161497513D01*
X132078600Y-162018513D02*
X133603600Y-162018513D01*
X132078600Y-162218513D02*
X133617600Y-162218513D01*
X132078600Y-161618513D02*
X133529600Y-161618513D01*
X132078600Y-160417513D02*
X132823600Y-160417513D01*
X128558600Y-161577513D02*
X129998600Y-161577513D01*
X129034600Y-160657513D02*
X129998600Y-160657513D01*
X132078600Y-160857513D02*
X133187600Y-160857513D01*
X128863600Y-160897513D02*
X129998600Y-160897513D01*
X128748600Y-161097513D02*
X129998600Y-161097513D01*
X128469600Y-162058513D02*
X129998600Y-162058513D01*
X129101600Y-160577513D02*
X129998600Y-160577513D01*
X128495600Y-161858513D02*
X129998600Y-161858513D01*
X132078600Y-161658513D02*
X133539600Y-161658513D01*
X128814600Y-160977513D02*
X129998600Y-160977513D01*
X129313600Y-164853288D02*
X129813600Y-164853288D01*
X128488600Y-161898513D02*
X129998600Y-161898513D01*
X132078600Y-160617513D02*
X133009600Y-160617513D01*
X132078600Y-161818513D02*
X133574600Y-161818513D01*
X128518600Y-161738513D02*
X129998600Y-161738513D01*
X132078600Y-160697513D02*
X133073600Y-160697513D01*
X132078600Y-160537513D02*
X132939600Y-160537513D01*
X128458600Y-162258513D02*
X129998600Y-162258513D01*
X128537600Y-161658513D02*
X129998600Y-161658513D01*
X129339600Y-160337513D02*
X129998600Y-160337513D01*
X133658600Y-162298513D02*
G75*
G03*
X128418600Y-162298513I-2620000J0D01*
G01*
X128418600Y-162298513D02*
G75*
G03*
X133658600Y-162298513I2620000J0D01*
G01*
%TO.C,C26*%
X142279287Y-163383400D02*
X142279287Y-163996400D01*
X141599287Y-163383400D02*
X141599287Y-164567400D01*
X140478287Y-163383400D02*
X140478287Y-164916400D01*
X141519287Y-160075400D02*
X141519287Y-161303400D01*
X141399287Y-160014400D02*
X141399287Y-161303400D01*
X141439287Y-160033400D02*
X141439287Y-161303400D01*
X141959287Y-160372400D02*
X141959287Y-161303400D01*
X142239287Y-163383400D02*
X142239287Y-164042400D01*
X141919287Y-163383400D02*
X141919287Y-164347400D01*
X140438287Y-159767400D02*
X140438287Y-161303400D01*
X141839287Y-160278400D02*
X141839287Y-161303400D01*
X140318287Y-163383400D02*
X140318287Y-164923400D01*
X140999287Y-163383400D02*
X140999287Y-164823400D01*
X141159287Y-159915400D02*
X141159287Y-161303400D01*
X141199287Y-159929400D02*
X141199287Y-161303400D01*
X142039287Y-160442400D02*
X142039287Y-161303400D01*
X140878287Y-159832400D02*
X140878287Y-161303400D01*
X140518287Y-163383400D02*
X140518287Y-164912400D01*
X141119287Y-163383400D02*
X141119287Y-164785400D01*
X140838287Y-163383400D02*
X140838287Y-164863400D01*
X141559287Y-163383400D02*
X141559287Y-164590400D01*
X141679287Y-163383400D02*
X141679287Y-164518400D01*
X140398287Y-163383400D02*
X140398287Y-164921400D01*
X140798287Y-159815400D02*
X140798287Y-161303400D01*
X141719287Y-160194400D02*
X141719287Y-161303400D01*
X142119287Y-160517400D02*
X142119287Y-161303400D01*
X142279287Y-160690400D02*
X142279287Y-161303400D01*
X141319287Y-163383400D02*
X141319287Y-164708400D01*
X140278287Y-159763400D02*
X140278287Y-161303400D01*
X140598287Y-159782400D02*
X140598287Y-161303400D01*
X141319287Y-159978400D02*
X141319287Y-161303400D01*
X140758287Y-159807400D02*
X140758287Y-161303400D01*
X142759287Y-161538400D02*
X142759287Y-163148400D01*
X142559287Y-161092400D02*
X142559287Y-163594400D01*
X142399287Y-160843400D02*
X142399287Y-163843400D01*
X140638287Y-163383400D02*
X140638287Y-164899400D01*
X141359287Y-163383400D02*
X141359287Y-164691400D01*
X142799287Y-161666400D02*
X142799287Y-163020400D01*
X141839287Y-163383400D02*
X141839287Y-164408400D01*
X141799287Y-163383400D02*
X141799287Y-164438400D01*
X141039287Y-159875400D02*
X141039287Y-161303400D01*
X141279287Y-163383400D02*
X141279287Y-164725400D01*
X141159287Y-163383400D02*
X141159287Y-164771400D01*
X141359287Y-159995400D02*
X141359287Y-161303400D01*
X141519287Y-163383400D02*
X141519287Y-164611400D01*
X142159287Y-160558400D02*
X142159287Y-161303400D01*
X141799287Y-160248400D02*
X141799287Y-161303400D01*
X140598287Y-163383400D02*
X140598287Y-164904400D01*
X141199287Y-163383400D02*
X141199287Y-164757400D01*
X141239287Y-163383400D02*
X141239287Y-164741400D01*
X140438287Y-163383400D02*
X140438287Y-164919400D01*
X141279287Y-159961400D02*
X141279287Y-161303400D01*
X140958287Y-159852400D02*
X140958287Y-161303400D01*
X142679287Y-161332400D02*
X142679287Y-163354400D01*
X142359287Y-160789400D02*
X142359287Y-163897400D01*
X142719287Y-161428400D02*
X142719287Y-163258400D01*
X137473512Y-160868400D02*
X137973512Y-160868400D01*
X140278287Y-163383400D02*
X140278287Y-164923400D01*
X141079287Y-159888400D02*
X141079287Y-161303400D01*
X141759287Y-160221400D02*
X141759287Y-161303400D01*
X141479287Y-163383400D02*
X141479287Y-164633400D01*
X141639287Y-160143400D02*
X141639287Y-161303400D01*
X142079287Y-160479400D02*
X142079287Y-161303400D01*
X142199287Y-163383400D02*
X142199287Y-164086400D01*
X142639287Y-161245400D02*
X142639287Y-163441400D01*
X140398287Y-159765400D02*
X140398287Y-161303400D01*
X140558287Y-159778400D02*
X140558287Y-161303400D01*
X140358287Y-159764400D02*
X140358287Y-161303400D01*
X140478287Y-159770400D02*
X140478287Y-161303400D01*
X142079287Y-163383400D02*
X142079287Y-164207400D01*
X141399287Y-163383400D02*
X141399287Y-164672400D01*
X142839287Y-161825400D02*
X142839287Y-162861400D01*
X142879287Y-162059400D02*
X142879287Y-162627400D01*
X140878287Y-163383400D02*
X140878287Y-164854400D01*
X141999287Y-163383400D02*
X141999287Y-164280400D01*
X141439287Y-163383400D02*
X141439287Y-164653400D01*
X140678287Y-163383400D02*
X140678287Y-164893400D01*
X142519287Y-161024400D02*
X142519287Y-163662400D01*
X142479287Y-160960400D02*
X142479287Y-163726400D01*
X141239287Y-159945400D02*
X141239287Y-161303400D01*
X141559287Y-160096400D02*
X141559287Y-161303400D01*
X142599287Y-161165400D02*
X142599287Y-163521400D01*
X141639287Y-163383400D02*
X141639287Y-164543400D01*
X142199287Y-160600400D02*
X142199287Y-161303400D01*
X141879287Y-160308400D02*
X141879287Y-161303400D01*
X142319287Y-160738400D02*
X142319287Y-163948400D01*
X141759287Y-163383400D02*
X141759287Y-164465400D01*
X141039287Y-163383400D02*
X141039287Y-164811400D01*
X140798287Y-163383400D02*
X140798287Y-164871400D01*
X141119287Y-159901400D02*
X141119287Y-161303400D01*
X140638287Y-159787400D02*
X140638287Y-161303400D01*
X140718287Y-163383400D02*
X140718287Y-164886400D01*
X142439287Y-160900400D02*
X142439287Y-163786400D01*
X142119287Y-163383400D02*
X142119287Y-164169400D01*
X141079287Y-163383400D02*
X141079287Y-164798400D01*
X140558287Y-163383400D02*
X140558287Y-164908400D01*
X140358287Y-163383400D02*
X140358287Y-164922400D01*
X140958287Y-163383400D02*
X140958287Y-164834400D01*
X142159287Y-163383400D02*
X142159287Y-164128400D01*
X140999287Y-159863400D02*
X140999287Y-161303400D01*
X141919287Y-160339400D02*
X141919287Y-161303400D01*
X141719287Y-163383400D02*
X141719287Y-164492400D01*
X141679287Y-160168400D02*
X141679287Y-161303400D01*
X141479287Y-160053400D02*
X141479287Y-161303400D01*
X140518287Y-159774400D02*
X140518287Y-161303400D01*
X141999287Y-160406400D02*
X141999287Y-161303400D01*
X140718287Y-159800400D02*
X140718287Y-161303400D01*
X140918287Y-163383400D02*
X140918287Y-164844400D01*
X141599287Y-160119400D02*
X141599287Y-161303400D01*
X137723512Y-160618400D02*
X137723512Y-161118400D01*
X140678287Y-159793400D02*
X140678287Y-161303400D01*
X141959287Y-163383400D02*
X141959287Y-164314400D01*
X140758287Y-163383400D02*
X140758287Y-164879400D01*
X140838287Y-159823400D02*
X140838287Y-161303400D01*
X141879287Y-163383400D02*
X141879287Y-164378400D01*
X142039287Y-163383400D02*
X142039287Y-164244400D01*
X140318287Y-159763400D02*
X140318287Y-161303400D01*
X140918287Y-159842400D02*
X140918287Y-161303400D01*
X142239287Y-160644400D02*
X142239287Y-161303400D01*
X142898287Y-162343400D02*
G75*
G03*
X137658287Y-162343400I-2620000J0D01*
G01*
X137658287Y-162343400D02*
G75*
G03*
X142898287Y-162343400I2620000J0D01*
G01*
%TO.C,C24*%
X134653688Y-181011000D02*
X134653688Y-182319000D01*
X135533688Y-178272000D02*
X135533688Y-178931000D01*
X135813688Y-178652000D02*
X135813688Y-178931000D01*
X135773688Y-178588000D02*
X135773688Y-178931000D01*
X134052688Y-181011000D02*
X134052688Y-182507000D01*
X134853688Y-177724000D02*
X134853688Y-178931000D01*
X133572688Y-177391000D02*
X133572688Y-182551000D01*
X134733688Y-181011000D02*
X134733688Y-182281000D01*
X135413688Y-181011000D02*
X135413688Y-181797000D01*
X135013688Y-181011000D02*
X135013688Y-182120000D01*
X134293688Y-181011000D02*
X134293688Y-182451000D01*
X135053688Y-181011000D02*
X135053688Y-182093000D01*
X135733688Y-178528000D02*
X135733688Y-178931000D01*
X133652688Y-177392000D02*
X133652688Y-182550000D01*
X135173688Y-177936000D02*
X135173688Y-178931000D01*
X136133688Y-179453000D02*
X136133688Y-180489000D01*
X134373688Y-177516000D02*
X134373688Y-178931000D01*
X134893688Y-177747000D02*
X134893688Y-178931000D01*
X134693688Y-181011000D02*
X134693688Y-182300000D01*
X135493688Y-181011000D02*
X135493688Y-181714000D01*
X135213688Y-181011000D02*
X135213688Y-181975000D01*
X135813688Y-181011000D02*
X135813688Y-181290000D01*
X135853688Y-181011000D02*
X135853688Y-181222000D01*
X135373688Y-181011000D02*
X135373688Y-181835000D01*
X134132688Y-181011000D02*
X134132688Y-182491000D01*
X134052688Y-177435000D02*
X134052688Y-178931000D01*
X134293688Y-177491000D02*
X134293688Y-178931000D01*
X134493688Y-177557000D02*
X134493688Y-178931000D01*
X134252688Y-181011000D02*
X134252688Y-182462000D01*
X136093688Y-179294000D02*
X136093688Y-180648000D01*
X134973688Y-177796000D02*
X134973688Y-178931000D01*
X134333688Y-181011000D02*
X134333688Y-182439000D01*
X135453688Y-178186000D02*
X135453688Y-178931000D01*
X135733688Y-181011000D02*
X135733688Y-181414000D01*
X135293688Y-178034000D02*
X135293688Y-178931000D01*
X135013688Y-177822000D02*
X135013688Y-178931000D01*
X134693688Y-177642000D02*
X134693688Y-178931000D01*
X133932688Y-181011000D02*
X133932688Y-182527000D01*
X135773688Y-181011000D02*
X135773688Y-181354000D01*
X134172688Y-177460000D02*
X134172688Y-178931000D01*
X135933688Y-178873000D02*
X135933688Y-181069000D01*
X135493688Y-178228000D02*
X135493688Y-178931000D01*
X133812688Y-181011000D02*
X133812688Y-182540000D01*
X134092688Y-181011000D02*
X134092688Y-182499000D01*
X134012688Y-177428000D02*
X134012688Y-178931000D01*
X133732688Y-177395000D02*
X133732688Y-182547000D01*
X135093688Y-177876000D02*
X135093688Y-178931000D01*
X134813688Y-181011000D02*
X134813688Y-182239000D01*
X134573688Y-177589000D02*
X134573688Y-178931000D01*
X134212688Y-181011000D02*
X134212688Y-182472000D01*
X134092688Y-177443000D02*
X134092688Y-178931000D01*
X133612688Y-177391000D02*
X133612688Y-182551000D01*
X134613688Y-177606000D02*
X134613688Y-178931000D01*
X135573688Y-181011000D02*
X135573688Y-181624000D01*
X134212688Y-177470000D02*
X134212688Y-178931000D01*
X133892688Y-177410000D02*
X133892688Y-178931000D01*
X134933688Y-177771000D02*
X134933688Y-178931000D01*
X135173688Y-181011000D02*
X135173688Y-182006000D01*
X135413688Y-178145000D02*
X135413688Y-178931000D01*
X133972688Y-181011000D02*
X133972688Y-182521000D01*
X134413688Y-177529000D02*
X134413688Y-178931000D01*
X134132688Y-177451000D02*
X134132688Y-178931000D01*
X133972688Y-177421000D02*
X133972688Y-178931000D01*
X134973688Y-181011000D02*
X134973688Y-182146000D01*
X134533688Y-181011000D02*
X134533688Y-182369000D01*
X133692688Y-177393000D02*
X133692688Y-182549000D01*
X133772688Y-177398000D02*
X133772688Y-182544000D01*
X133812688Y-177402000D02*
X133812688Y-178931000D01*
X134172688Y-181011000D02*
X134172688Y-182482000D01*
X135453688Y-181011000D02*
X135453688Y-181756000D01*
X134773688Y-177681000D02*
X134773688Y-178931000D01*
X135133688Y-177906000D02*
X135133688Y-178931000D01*
X134613688Y-181011000D02*
X134613688Y-182336000D01*
X135573688Y-178318000D02*
X135573688Y-178931000D01*
X133932688Y-177415000D02*
X133932688Y-178931000D01*
X135293688Y-181011000D02*
X135293688Y-181908000D01*
X134413688Y-181011000D02*
X134413688Y-182413000D01*
X135133688Y-181011000D02*
X135133688Y-182036000D01*
X134853688Y-181011000D02*
X134853688Y-182218000D01*
X135333688Y-181011000D02*
X135333688Y-181872000D01*
X134373688Y-181011000D02*
X134373688Y-182426000D01*
X134893688Y-181011000D02*
X134893688Y-182195000D01*
X134533688Y-177573000D02*
X134533688Y-178931000D01*
X130767913Y-178496000D02*
X131267913Y-178496000D01*
X135613688Y-181011000D02*
X135613688Y-181576000D01*
X136053688Y-179166000D02*
X136053688Y-180776000D01*
X135853688Y-178720000D02*
X135853688Y-178931000D01*
X134453688Y-181011000D02*
X134453688Y-182399000D01*
X133852688Y-181011000D02*
X133852688Y-182536000D01*
X136173688Y-179687000D02*
X136173688Y-180255000D01*
X134453688Y-177543000D02*
X134453688Y-178931000D01*
X135973688Y-178960000D02*
X135973688Y-180982000D01*
X134573688Y-181011000D02*
X134573688Y-182353000D01*
X135213688Y-177967000D02*
X135213688Y-178931000D01*
X135693688Y-178471000D02*
X135693688Y-178931000D01*
X135893688Y-178793000D02*
X135893688Y-181149000D01*
X135053688Y-177849000D02*
X135053688Y-178931000D01*
X134933688Y-181011000D02*
X134933688Y-182171000D01*
X134493688Y-181011000D02*
X134493688Y-182385000D01*
X131017913Y-178246000D02*
X131017913Y-178746000D01*
X134653688Y-177623000D02*
X134653688Y-178931000D01*
X135253688Y-178000000D02*
X135253688Y-178931000D01*
X134252688Y-177480000D02*
X134252688Y-178931000D01*
X135093688Y-181011000D02*
X135093688Y-182066000D01*
X133892688Y-181011000D02*
X133892688Y-182532000D01*
X134773688Y-181011000D02*
X134773688Y-182261000D01*
X134813688Y-177703000D02*
X134813688Y-178931000D01*
X135653688Y-178417000D02*
X135653688Y-178931000D01*
X134733688Y-177661000D02*
X134733688Y-178931000D01*
X135653688Y-181011000D02*
X135653688Y-181525000D01*
X136013688Y-179056000D02*
X136013688Y-180886000D01*
X135253688Y-181011000D02*
X135253688Y-181942000D01*
X133852688Y-177406000D02*
X133852688Y-178931000D01*
X135693688Y-181011000D02*
X135693688Y-181471000D01*
X135333688Y-178070000D02*
X135333688Y-178931000D01*
X134012688Y-181011000D02*
X134012688Y-182514000D01*
X135613688Y-178366000D02*
X135613688Y-178931000D01*
X134333688Y-177503000D02*
X134333688Y-178931000D01*
X135533688Y-181011000D02*
X135533688Y-181670000D01*
X135373688Y-178107000D02*
X135373688Y-178931000D01*
X136192688Y-179971000D02*
G75*
G03*
X130952688Y-179971000I-2620000J0D01*
G01*
X130952688Y-179971000D02*
G75*
G03*
X136192688Y-179971000I2620000J0D01*
G01*
%TO.C,C4*%
X132785000Y-153251800D02*
X137725000Y-153251800D01*
X132785000Y-153251800D02*
X132785000Y-153566800D01*
X137725000Y-155676800D02*
X137725000Y-155991800D01*
X137725000Y-153251800D02*
X137725000Y-153566800D01*
X132785000Y-155991800D02*
X137725000Y-155991800D01*
X132785000Y-155676800D02*
X132785000Y-155991800D01*
%TO.C,Y1*%
X138669000Y-73039000D02*
X138669000Y-79439000D01*
X133619000Y-73039000D02*
X133619000Y-79439000D01*
X138669000Y-73039000D02*
G75*
G03*
X133619000Y-73039000I-2525000J0D01*
G01*
X133619000Y-79439000D02*
G75*
G03*
X138669000Y-79439000I2525000J0D01*
G01*
%TO.C,R6*%
X135967800Y-151287800D02*
X135967800Y-144747800D01*
X136297800Y-151287800D02*
X135967800Y-151287800D01*
X138377800Y-151287800D02*
X138707800Y-151287800D01*
X138707800Y-151287800D02*
X138707800Y-144747800D01*
X135967800Y-144747800D02*
X136297800Y-144747800D01*
X138707800Y-144747800D02*
X138377800Y-144747800D01*
%TO.C,U6*%
X132952800Y-65611800D02*
X82032800Y-65611800D01*
X82032800Y-65611800D02*
X82032800Y-78531800D01*
X132952800Y-71071800D02*
X132952800Y-65611800D01*
X132952800Y-78531800D02*
X132952800Y-73071800D01*
X82032800Y-78531800D02*
X132952800Y-78531800D01*
X132952800Y-71071800D02*
G75*
G03*
X132952800Y-73071800I0J-1000000D01*
G01*
%TO.C,J3*%
X81426000Y-51237200D02*
X81426000Y-47237200D01*
X81136000Y-52267200D02*
X81136000Y-46247200D01*
X81136000Y-46247200D02*
X75836000Y-46247200D01*
X80556000Y-52267200D02*
X80556000Y-51667200D01*
X80556000Y-51667200D02*
X78956000Y-51667200D01*
X79756000Y-47247200D02*
X79506000Y-47777200D01*
X79756000Y-47247200D02*
X77216000Y-47247200D01*
X79756000Y-46247200D02*
X79756000Y-47247200D01*
X79506000Y-47777200D02*
X77466000Y-47777200D01*
X79506000Y-46247200D02*
X79506000Y-47247200D01*
X78956000Y-51667200D02*
X78956000Y-52267200D01*
X78016000Y-52267200D02*
X78016000Y-51667200D01*
X78016000Y-51667200D02*
X76416000Y-51667200D01*
X77466000Y-47777200D02*
X77216000Y-47247200D01*
X77466000Y-46247200D02*
X77466000Y-47247200D01*
X77216000Y-47247200D02*
X77216000Y-46247200D01*
X76416000Y-51667200D02*
X76416000Y-52267200D01*
X75836000Y-52267200D02*
X81136000Y-52267200D01*
X75836000Y-46247200D02*
X75836000Y-52267200D01*
%TO.C,J5*%
X81181800Y-57326600D02*
X81181800Y-88296600D01*
X68841800Y-57326600D02*
X81181800Y-57326600D01*
X82076138Y-67021600D02*
X82076138Y-67521600D01*
X81643125Y-67271600D02*
X82076138Y-67021600D01*
X82076138Y-67521600D02*
X81643125Y-67271600D01*
X81181800Y-88296600D02*
X68841800Y-88296600D01*
%TO.C,R19*%
X70078600Y-90968000D02*
X70078600Y-91738000D01*
X71448600Y-91738000D02*
X68708600Y-91738000D01*
X68708600Y-91738000D02*
X68708600Y-98278000D01*
X71448600Y-98278000D02*
X71448600Y-91738000D01*
X68708600Y-98278000D02*
X71448600Y-98278000D01*
X70078600Y-99048000D02*
X70078600Y-98278000D01*
%TO.C,R14*%
X85852000Y-126302200D02*
X85852000Y-125532200D01*
X84482000Y-125532200D02*
X87222000Y-125532200D01*
X87222000Y-125532200D02*
X87222000Y-118992200D01*
X84482000Y-118992200D02*
X84482000Y-125532200D01*
X87222000Y-118992200D02*
X84482000Y-118992200D01*
X85852000Y-118222200D02*
X85852000Y-118992200D01*
%TO.C,R22*%
X84100800Y-147255800D02*
X83330800Y-147255800D01*
X83330800Y-148625800D02*
X83330800Y-145885800D01*
X83330800Y-145885800D02*
X76790800Y-145885800D01*
X76790800Y-148625800D02*
X83330800Y-148625800D01*
X76790800Y-145885800D02*
X76790800Y-148625800D01*
X76020800Y-147255800D02*
X76790800Y-147255800D01*
%TO.C,RN1*%
X69730800Y-111108600D02*
X69730800Y-113908600D01*
X69730800Y-113908600D02*
X87850800Y-113908600D01*
X72440800Y-111108600D02*
X72440800Y-113908600D01*
X87850800Y-111108600D02*
X69730800Y-111108600D01*
X87850800Y-113908600D02*
X87850800Y-111108600D01*
%TO.C,R21*%
X75361800Y-141770800D02*
X75361800Y-141000800D01*
X73991800Y-141000800D02*
X76731800Y-141000800D01*
X76731800Y-141000800D02*
X76731800Y-134460800D01*
X73991800Y-134460800D02*
X73991800Y-141000800D01*
X76731800Y-134460800D02*
X73991800Y-134460800D01*
X75361800Y-133690800D02*
X75361800Y-134460800D01*
%TO.C,U4*%
X88469000Y-184886600D02*
X124149000Y-184886600D01*
X124149000Y-184886600D02*
X124149000Y-171966600D01*
X88469000Y-179426600D02*
X88469000Y-184886600D01*
X88469000Y-171966600D02*
X88469000Y-177426600D01*
X124149000Y-171966600D02*
X88469000Y-171966600D01*
X88469000Y-179426600D02*
G75*
G03*
X88469000Y-177426600I0J1000000D01*
G01*
%TO.C,U7*%
X109744200Y-57576800D02*
X132724200Y-57576800D01*
X132724200Y-57576800D02*
X132724200Y-52276800D01*
X109744200Y-55926800D02*
X109744200Y-57576800D01*
X109744200Y-52276800D02*
X109744200Y-53926800D01*
X132724200Y-52276800D02*
X109744200Y-52276800D01*
X109744200Y-55926800D02*
G75*
G03*
X109744200Y-53926800I0J1000000D01*
G01*
D13*
%TO.C,J8*%
X137519400Y-44156802D02*
X137519400Y-45905032D01*
X137519400Y-46662571D02*
X137519400Y-48405034D01*
X137519400Y-49162572D02*
X137519400Y-56399602D01*
X137519400Y-56399602D02*
X149762200Y-56399602D01*
X140516600Y-42150202D02*
X140516600Y-44410802D01*
X140516600Y-44410802D02*
X146765000Y-44410802D01*
X146765000Y-42150202D02*
X140516600Y-42150202D01*
X146765000Y-44410802D02*
X146765000Y-42150202D01*
X149762200Y-44156802D02*
X137519400Y-44156802D01*
X149762200Y-45905032D02*
X149762200Y-44156802D01*
X149762200Y-48405034D02*
X149762200Y-46662571D01*
X149762200Y-56399602D02*
X149762200Y-49162572D01*
D12*
%TO.C,J11*%
X82873800Y-140492800D02*
X82873800Y-136492800D01*
X82583800Y-141522800D02*
X82583800Y-135502800D01*
X82583800Y-135502800D02*
X77283800Y-135502800D01*
X82003800Y-141522800D02*
X82003800Y-140922800D01*
X82003800Y-140922800D02*
X80403800Y-140922800D01*
X81203800Y-136502800D02*
X80953800Y-137032800D01*
X81203800Y-136502800D02*
X78663800Y-136502800D01*
X81203800Y-135502800D02*
X81203800Y-136502800D01*
X80953800Y-137032800D02*
X78913800Y-137032800D01*
X80953800Y-135502800D02*
X80953800Y-136502800D01*
X80403800Y-140922800D02*
X80403800Y-141522800D01*
X79463800Y-141522800D02*
X79463800Y-140922800D01*
X79463800Y-140922800D02*
X77863800Y-140922800D01*
X78913800Y-137032800D02*
X78663800Y-136502800D01*
X78913800Y-135502800D02*
X78913800Y-136502800D01*
X78663800Y-136502800D02*
X78663800Y-135502800D01*
X77863800Y-140922800D02*
X77863800Y-141522800D01*
X77283800Y-141522800D02*
X82583800Y-141522800D01*
X77283800Y-135502800D02*
X77283800Y-141522800D01*
%TO.C,C10*%
X88115000Y-172603400D02*
X88115000Y-169863400D01*
X88115000Y-172603400D02*
X80875000Y-172603400D01*
X88115000Y-169863400D02*
X80875000Y-169863400D01*
X80875000Y-172603400D02*
X80875000Y-169863400D01*
%TO.C,C20*%
X71499400Y-101461000D02*
X68759400Y-101461000D01*
X71499400Y-101461000D02*
X71499400Y-108701000D01*
X68759400Y-101461000D02*
X68759400Y-108701000D01*
X71499400Y-108701000D02*
X68759400Y-108701000D01*
D14*
%TO.C,RV1*%
X145798800Y-148514800D02*
X145798800Y-148514800D01*
X145698800Y-148514800D02*
X145698800Y-148514800D01*
X145698800Y-148514800D02*
G75*
G03*
X145798800Y-148514800I50000J0D01*
G01*
X145798800Y-148514800D02*
G75*
G03*
X145698800Y-148514800I-50000J0D01*
G01*
D13*
%TO.C,J9*%
X149762200Y-188676600D02*
X149762200Y-186928370D01*
X149762200Y-186170831D02*
X149762200Y-184428368D01*
X149762200Y-183670830D02*
X149762200Y-176433800D01*
X149762200Y-176433800D02*
X137519400Y-176433800D01*
X146765000Y-190683200D02*
X146765000Y-188422600D01*
X146765000Y-188422600D02*
X140516600Y-188422600D01*
X140516600Y-190683200D02*
X146765000Y-190683200D01*
X140516600Y-188422600D02*
X140516600Y-190683200D01*
X137519400Y-188676600D02*
X149762200Y-188676600D01*
X137519400Y-186928370D02*
X137519400Y-188676600D01*
X137519400Y-184428368D02*
X137519400Y-186170831D01*
X137519400Y-176433800D02*
X137519400Y-183670830D01*
D12*
%TO.C,R10*%
X128860800Y-44971600D02*
X135400800Y-44971600D01*
X128860800Y-45301600D02*
X128860800Y-44971600D01*
X128860800Y-47381600D02*
X128860800Y-47711600D01*
X128860800Y-47711600D02*
X135400800Y-47711600D01*
X135400800Y-44971600D02*
X135400800Y-45301600D01*
X135400800Y-47711600D02*
X135400800Y-47381600D01*
%TO.C,R16*%
X79756000Y-126251400D02*
X79756000Y-125481400D01*
X78386000Y-125481400D02*
X81126000Y-125481400D01*
X81126000Y-125481400D02*
X81126000Y-118941400D01*
X78386000Y-118941400D02*
X78386000Y-125481400D01*
X81126000Y-118941400D02*
X78386000Y-118941400D01*
X79756000Y-118171400D02*
X79756000Y-118941400D01*
%TO.C,J6*%
X74664800Y-128819600D02*
X73334800Y-128819600D01*
X74664800Y-127489600D02*
X74664800Y-128819600D01*
X74664800Y-126219600D02*
X74664800Y-115999600D01*
X74664800Y-126219600D02*
X72064800Y-126219600D01*
X74664800Y-115999600D02*
X69464800Y-115999600D01*
X72064800Y-128819600D02*
X69464800Y-128819600D01*
X72064800Y-126219600D02*
X72064800Y-128819600D01*
X69464800Y-128819600D02*
X69464800Y-115999600D01*
%TO.C,R12*%
X141954000Y-69784200D02*
X135414000Y-69784200D01*
X141954000Y-69454200D02*
X141954000Y-69784200D01*
X141954000Y-67374200D02*
X141954000Y-67044200D01*
X141954000Y-67044200D02*
X135414000Y-67044200D01*
X135414000Y-69784200D02*
X135414000Y-69454200D01*
X135414000Y-67044200D02*
X135414000Y-67374200D01*
%TO.C,C8*%
X155054800Y-132369800D02*
X155054800Y-129629800D01*
X155054800Y-132369800D02*
X147814800Y-132369800D01*
X155054800Y-129629800D02*
X147814800Y-129629800D01*
X147814800Y-132369800D02*
X147814800Y-129629800D01*
%TO.C,C7*%
X129501400Y-174283000D02*
X129501400Y-177023000D01*
X129501400Y-174283000D02*
X136741400Y-174283000D01*
X129501400Y-177023000D02*
X136741400Y-177023000D01*
X136741400Y-174283000D02*
X136741400Y-177023000D01*
%TO.C,R17*%
X76708000Y-126251400D02*
X76708000Y-125481400D01*
X75338000Y-125481400D02*
X78078000Y-125481400D01*
X78078000Y-125481400D02*
X78078000Y-118941400D01*
X75338000Y-118941400D02*
X75338000Y-125481400D01*
X78078000Y-118941400D02*
X75338000Y-118941400D01*
X76708000Y-118171400D02*
X76708000Y-118941400D01*
%TO.C,J7*%
X144372600Y-88155800D02*
X144372600Y-57185800D01*
X156712600Y-88155800D02*
X144372600Y-88155800D01*
X143478262Y-78460800D02*
X143478262Y-77960800D01*
X143911275Y-78210800D02*
X143478262Y-78460800D01*
X143478262Y-77960800D02*
X143911275Y-78210800D01*
X144372600Y-57185800D02*
X156712600Y-57185800D01*
%TO.C,U9*%
X95362200Y-112430900D02*
X95362200Y-147650900D01*
X95362200Y-147650900D02*
X131612200Y-147650900D01*
X96362200Y-111430900D02*
X95362200Y-112430900D01*
X112487200Y-111430900D02*
X96362200Y-111430900D01*
X131612200Y-111430900D02*
X114487200Y-111430900D01*
X131612200Y-147650900D02*
X131612200Y-111430900D01*
%TO.C,U11*%
X155203200Y-134776000D02*
X134763200Y-134776000D01*
X134763200Y-134776000D02*
X134763200Y-140076000D01*
X155203200Y-136426000D02*
X155203200Y-134776000D01*
X155203200Y-140076000D02*
X155203200Y-138426000D01*
X134763200Y-140076000D02*
X155203200Y-140076000D01*
X155203200Y-136426000D02*
G75*
G03*
X155203200Y-138426000I0J-1000000D01*
G01*
%TO.C,C16*%
X141001000Y-79367600D02*
X141001000Y-80625600D01*
X139161000Y-79367600D02*
X139161000Y-80625600D01*
%TO.C,C18*%
X94334000Y-133512000D02*
X91594000Y-133512000D01*
X94334000Y-133512000D02*
X94334000Y-140752000D01*
X91594000Y-133512000D02*
X91594000Y-140752000D01*
X94334000Y-140752000D02*
X91594000Y-140752000D01*
%TO.C,D1*%
X70061800Y-148693800D02*
X70217800Y-148693800D01*
X72377800Y-148693800D02*
X72533800Y-148693800D01*
X70219192Y-145461466D02*
G75*
G03*
X70062285Y-148693799I1078608J-1672334D01*
G01*
X70217964Y-146092671D02*
G75*
G03*
X70217801Y-148174760I1079836J-1041129D01*
G01*
X72377799Y-148174760D02*
G75*
G03*
X72377636Y-146092671I-1079999J1040960D01*
G01*
X72533315Y-148693799D02*
G75*
G03*
X72376408Y-145461466I-1235515J1559999D01*
G01*
%TO.C,C15*%
X141051800Y-71874600D02*
X141051800Y-73132600D01*
X139211800Y-71874600D02*
X139211800Y-73132600D01*
%TO.C,RN2*%
X156227600Y-113908600D02*
X156227600Y-111108600D01*
X156227600Y-111108600D02*
X138107600Y-111108600D01*
X153517600Y-113908600D02*
X153517600Y-111108600D01*
X138107600Y-113908600D02*
X156227600Y-113908600D01*
X138107600Y-111108600D02*
X138107600Y-113908600D01*
%TO.C,C14*%
X133402400Y-58419800D02*
X136142400Y-58419800D01*
X133402400Y-58419800D02*
X133402400Y-51179800D01*
X136142400Y-58419800D02*
X136142400Y-51179800D01*
X133402400Y-51179800D02*
X136142400Y-51179800D01*
%TO.C,SW1*%
X68577000Y-158756400D02*
X72427000Y-158756400D01*
X75067000Y-158756400D02*
X75367000Y-158756400D01*
X75367000Y-157866400D02*
X75367000Y-158756400D01*
X75367000Y-157866400D02*
X75017000Y-157866400D01*
X72817000Y-157376400D02*
X72817000Y-152396400D01*
X75367000Y-151906400D02*
X75017000Y-151906400D01*
X68577000Y-151016400D02*
X68577000Y-158756400D01*
X72427000Y-151016400D02*
X68577000Y-151016400D01*
X75067000Y-151016400D02*
X75367000Y-151016400D01*
X75367000Y-151016400D02*
X75367000Y-151906400D01*
%TO.C,J2*%
X130575000Y-182967000D02*
X130575000Y-178967000D01*
X130285000Y-183997000D02*
X130285000Y-177977000D01*
X130285000Y-177977000D02*
X124985000Y-177977000D01*
X129705000Y-183997000D02*
X129705000Y-183397000D01*
X129705000Y-183397000D02*
X128105000Y-183397000D01*
X128905000Y-178977000D02*
X128655000Y-179507000D01*
X128905000Y-178977000D02*
X126365000Y-178977000D01*
X128905000Y-177977000D02*
X128905000Y-178977000D01*
X128655000Y-179507000D02*
X126615000Y-179507000D01*
X128655000Y-177977000D02*
X128655000Y-178977000D01*
X128105000Y-183397000D02*
X128105000Y-183997000D01*
X127165000Y-183997000D02*
X127165000Y-183397000D01*
X127165000Y-183397000D02*
X125565000Y-183397000D01*
X126615000Y-179507000D02*
X126365000Y-178977000D01*
X126615000Y-177977000D02*
X126615000Y-178977000D01*
X126365000Y-178977000D02*
X126365000Y-177977000D01*
X125565000Y-183397000D02*
X125565000Y-183997000D01*
X124985000Y-183997000D02*
X130285000Y-183997000D01*
X124985000Y-177977000D02*
X124985000Y-183997000D01*
%TO.C,R5*%
X135024800Y-144747800D02*
X134694800Y-144747800D01*
X132284800Y-144747800D02*
X132614800Y-144747800D01*
X135024800Y-151287800D02*
X135024800Y-144747800D01*
X134694800Y-151287800D02*
X135024800Y-151287800D01*
X132614800Y-151287800D02*
X132284800Y-151287800D01*
X132284800Y-151287800D02*
X132284800Y-144747800D01*
%TO.C,U5*%
X79731400Y-164922200D02*
X115411400Y-164922200D01*
X115411400Y-164922200D02*
X115411400Y-152002200D01*
X79731400Y-159462200D02*
X79731400Y-164922200D01*
X79731400Y-152002200D02*
X79731400Y-157462200D01*
X115411400Y-152002200D02*
X79731400Y-152002200D01*
X79731400Y-159462200D02*
G75*
G03*
X79731400Y-157462200I0J1000000D01*
G01*
%TO.C,C19*%
X94769800Y-117637800D02*
X94769800Y-114897800D01*
X94769800Y-117637800D02*
X87529800Y-117637800D01*
X94769800Y-114897800D02*
X87529800Y-114897800D01*
X87529800Y-117637800D02*
X87529800Y-114897800D01*
%TO.C,R18*%
X155270200Y-90841000D02*
X155270200Y-91611000D01*
X156640200Y-91611000D02*
X153900200Y-91611000D01*
X153900200Y-91611000D02*
X153900200Y-98151000D01*
X156640200Y-98151000D02*
X156640200Y-91611000D01*
X153900200Y-98151000D02*
X156640200Y-98151000D01*
X155270200Y-98921000D02*
X155270200Y-98151000D01*
%TO.C,R1*%
X79449800Y-133158800D02*
X80219800Y-133158800D01*
X80219800Y-131788800D02*
X80219800Y-134528800D01*
X80219800Y-134528800D02*
X86759800Y-134528800D01*
X86759800Y-131788800D02*
X80219800Y-131788800D01*
X86759800Y-134528800D02*
X86759800Y-131788800D01*
X87529800Y-133158800D02*
X86759800Y-133158800D01*
%TO.C,C6*%
X134171550Y-172727400D02*
X134486550Y-172727400D01*
X134171550Y-172727400D02*
X134171550Y-167787400D01*
X136596550Y-172727400D02*
X136911550Y-172727400D01*
X136911550Y-172727400D02*
X136911550Y-167787400D01*
X134171550Y-167787400D02*
X134486550Y-167787400D01*
X136596550Y-167787400D02*
X136911550Y-167787400D01*
%TO.C,R2*%
X77311200Y-130029600D02*
X78081200Y-130029600D01*
X78081200Y-128659600D02*
X78081200Y-131399600D01*
X78081200Y-131399600D02*
X84621200Y-131399600D01*
X84621200Y-128659600D02*
X78081200Y-128659600D01*
X84621200Y-131399600D02*
X84621200Y-128659600D01*
X85391200Y-130029600D02*
X84621200Y-130029600D01*
D10*
%TO.C,SW3*%
X73311800Y-133913400D02*
X73311800Y-142513400D01*
X68711800Y-133913400D02*
X68711800Y-136113400D01*
X68711800Y-140213400D02*
X68711800Y-142513400D01*
D12*
%TO.C,C12*%
X108100800Y-55218400D02*
X105360800Y-55218400D01*
X108100800Y-55218400D02*
X108100800Y-62458400D01*
X105360800Y-55218400D02*
X105360800Y-62458400D01*
X108100800Y-62458400D02*
X105360800Y-62458400D01*
%TO.C,R15*%
X82778600Y-126276800D02*
X82778600Y-125506800D01*
X81408600Y-125506800D02*
X84148600Y-125506800D01*
X84148600Y-125506800D02*
X84148600Y-118966800D01*
X81408600Y-118966800D02*
X81408600Y-125506800D01*
X84148600Y-118966800D02*
X81408600Y-118966800D01*
X82778600Y-118196800D02*
X82778600Y-118966800D01*
%TO.C,C11*%
X79271800Y-149858800D02*
X76531800Y-149858800D01*
X79271800Y-149858800D02*
X79271800Y-157098800D01*
X76531800Y-149858800D02*
X76531800Y-157098800D01*
X79271800Y-157098800D02*
X76531800Y-157098800D01*
%TO.C,J10*%
X89096800Y-140472800D02*
X89096800Y-136472800D01*
X88806800Y-141502800D02*
X88806800Y-135482800D01*
X88806800Y-135482800D02*
X83506800Y-135482800D01*
X88226800Y-141502800D02*
X88226800Y-140902800D01*
X88226800Y-140902800D02*
X86626800Y-140902800D01*
X87426800Y-136482800D02*
X87176800Y-137012800D01*
X87426800Y-136482800D02*
X84886800Y-136482800D01*
X87426800Y-135482800D02*
X87426800Y-136482800D01*
X87176800Y-137012800D02*
X85136800Y-137012800D01*
X87176800Y-135482800D02*
X87176800Y-136482800D01*
X86626800Y-140902800D02*
X86626800Y-141502800D01*
X85686800Y-141502800D02*
X85686800Y-140902800D01*
X85686800Y-140902800D02*
X84086800Y-140902800D01*
X85136800Y-137012800D02*
X84886800Y-136482800D01*
X85136800Y-135482800D02*
X85136800Y-136482800D01*
X84886800Y-136482800D02*
X84886800Y-135482800D01*
X84086800Y-140902800D02*
X84086800Y-141502800D01*
X83506800Y-141502800D02*
X88806800Y-141502800D01*
X83506800Y-135482800D02*
X83506800Y-141502800D01*
%TO.C,C21*%
X156614800Y-101370200D02*
X153874800Y-101370200D01*
X156614800Y-101370200D02*
X156614800Y-108610200D01*
X153874800Y-101370200D02*
X153874800Y-108610200D01*
X156614800Y-108610200D02*
X153874800Y-108610200D01*
D14*
%TO.C,J4*%
X82638400Y-96491800D02*
X82638400Y-105841800D01*
X82638400Y-105841800D02*
X141948400Y-105841800D01*
X141948400Y-96491800D02*
X82638400Y-96491800D01*
X141948400Y-105841800D02*
X141948400Y-96491800D01*
D12*
%TO.C,C23*%
X147434800Y-132369800D02*
X147434800Y-129629800D01*
X147434800Y-132369800D02*
X140194800Y-132369800D01*
X147434800Y-129629800D02*
X140194800Y-129629800D01*
X140194800Y-132369800D02*
X140194800Y-129629800D01*
D14*
%TO.C,SW2*%
X70865500Y-180369600D02*
X83565500Y-180369600D01*
X70865500Y-183719600D02*
X70865500Y-180369600D01*
X72215500Y-186719600D02*
X82215500Y-186719600D01*
X83565500Y-180369600D02*
X83565500Y-183719600D01*
D15*
X83715500Y-176089600D02*
X83715500Y-176089600D01*
X83715500Y-176289600D02*
X83715500Y-176289600D01*
X83715500Y-176289600D02*
G75*
G03*
X83715500Y-176089600I0J100000D01*
G01*
X83715500Y-176089600D02*
G75*
G03*
X83715500Y-176289600I0J-100000D01*
G01*
D12*
%TO.C,U8*%
X82032800Y-57576800D02*
X105012800Y-57576800D01*
X105012800Y-57576800D02*
X105012800Y-52276800D01*
X82032800Y-55926800D02*
X82032800Y-57576800D01*
X82032800Y-52276800D02*
X82032800Y-53926800D01*
X105012800Y-52276800D02*
X82032800Y-52276800D01*
X82032800Y-55926800D02*
G75*
G03*
X82032800Y-53926800I0J1000000D01*
G01*
%TO.C,Q1*%
X141931800Y-57640800D02*
X138331800Y-57640800D01*
X141271800Y-61840799D02*
G75*
G03*
X142498998Y-60594642I-1140000J2349999D01*
G01*
X142455983Y-58368005D02*
G75*
G03*
X141931799Y-57640801I-2324183J-1122795D01*
G01*
X137776343Y-60589171D02*
G75*
G03*
X139021800Y-61840800I2355457J1098371D01*
G01*
X138331801Y-57640801D02*
G75*
G03*
X137807617Y-58368005I1799999J-1849999D01*
G01*
%TO.C,R11*%
X135414000Y-63488200D02*
X141954000Y-63488200D01*
X135414000Y-63818200D02*
X135414000Y-63488200D01*
X135414000Y-65898200D02*
X135414000Y-66228200D01*
X135414000Y-66228200D02*
X141954000Y-66228200D01*
X141954000Y-63488200D02*
X141954000Y-63818200D01*
X141954000Y-66228200D02*
X141954000Y-65898200D01*
%TO.C,R4*%
X140506150Y-174492600D02*
X140506150Y-167952600D01*
X140836150Y-174492600D02*
X140506150Y-174492600D01*
X142916150Y-174492600D02*
X143246150Y-174492600D01*
X143246150Y-174492600D02*
X143246150Y-167952600D01*
X140506150Y-167952600D02*
X140836150Y-167952600D01*
X143246150Y-167952600D02*
X142916150Y-167952600D01*
%TO.C,J1*%
X82459600Y-88311600D02*
X82459600Y-86981600D01*
X83789600Y-88311600D02*
X82459600Y-88311600D01*
X85059600Y-88311600D02*
X100359600Y-88311600D01*
X85059600Y-88311600D02*
X85059600Y-85651600D01*
X100359600Y-88311600D02*
X100359600Y-85651600D01*
X85059600Y-85651600D02*
X100359600Y-85651600D01*
%TO.C,U2*%
X155254000Y-121755800D02*
X134814000Y-121755800D01*
X134814000Y-121755800D02*
X134814000Y-127055800D01*
X155254000Y-123405800D02*
X155254000Y-121755800D01*
X155254000Y-127055800D02*
X155254000Y-125405800D01*
X134814000Y-127055800D02*
X155254000Y-127055800D01*
X155254000Y-123405800D02*
G75*
G03*
X155254000Y-125405800I0J-1000000D01*
G01*
%TO.C,C13*%
X113702600Y-81395200D02*
X113702600Y-84135200D01*
X113702600Y-81395200D02*
X120942600Y-81395200D01*
X113702600Y-84135200D02*
X120942600Y-84135200D01*
X120942600Y-81395200D02*
X120942600Y-84135200D01*
%TO.C,C2*%
X154638800Y-166311451D02*
X154638800Y-167111451D01*
X155038800Y-166711451D02*
X154238800Y-166711451D01*
X156403800Y-170721149D02*
X148243800Y-170721149D01*
X156403800Y-170761149D02*
X148243800Y-170761149D01*
X156403800Y-170801149D02*
X148243800Y-170801149D01*
X156402800Y-170841149D02*
X148244800Y-170841149D01*
X156400800Y-170881149D02*
X148246800Y-170881149D01*
X156399800Y-170921149D02*
X148247800Y-170921149D01*
X156397800Y-170961149D02*
X148249800Y-170961149D01*
X156394800Y-171001149D02*
X148252800Y-171001149D01*
X156391800Y-171041149D02*
X148255800Y-171041149D01*
X156388800Y-171081149D02*
X148258800Y-171081149D01*
X156384800Y-171121149D02*
X148262800Y-171121149D01*
X156380800Y-171161149D02*
X148266800Y-171161149D01*
X156375800Y-171201149D02*
X148271800Y-171201149D01*
X156371800Y-171241149D02*
X148275800Y-171241149D01*
X156365800Y-171281149D02*
X148281800Y-171281149D01*
X156360800Y-171321149D02*
X148286800Y-171321149D01*
X156353800Y-171361149D02*
X148293800Y-171361149D01*
X156347800Y-171401149D02*
X148299800Y-171401149D01*
X156340800Y-171442149D02*
X148306800Y-171442149D01*
X156333800Y-171482149D02*
X148313800Y-171482149D01*
X156325800Y-171522149D02*
X148321800Y-171522149D01*
X156317800Y-171562149D02*
X148329800Y-171562149D01*
X156308800Y-171602149D02*
X148338800Y-171602149D01*
X156299800Y-171642149D02*
X148347800Y-171642149D01*
X156290800Y-171682149D02*
X148356800Y-171682149D01*
X156280800Y-171722149D02*
X148366800Y-171722149D01*
X156270800Y-171762149D02*
X148376800Y-171762149D01*
X156259800Y-171802149D02*
X148387800Y-171802149D01*
X156248800Y-171842149D02*
X148398800Y-171842149D01*
X156237800Y-171882149D02*
X148409800Y-171882149D01*
X156225800Y-171922149D02*
X148421800Y-171922149D01*
X156212800Y-171962149D02*
X148434800Y-171962149D01*
X156200800Y-172002149D02*
X148446800Y-172002149D01*
X156186800Y-172042149D02*
X148460800Y-172042149D01*
X156173800Y-172082149D02*
X148473800Y-172082149D01*
X156158800Y-172122149D02*
X148488800Y-172122149D01*
X156144800Y-172162149D02*
X148502800Y-172162149D01*
X156128800Y-172202149D02*
X153363800Y-172202149D01*
X151283800Y-172202149D02*
X148518800Y-172202149D01*
X156113800Y-172242149D02*
X153363800Y-172242149D01*
X151283800Y-172242149D02*
X148533800Y-172242149D01*
X156097800Y-172282149D02*
X153363800Y-172282149D01*
X151283800Y-172282149D02*
X148549800Y-172282149D01*
X156080800Y-172322149D02*
X153363800Y-172322149D01*
X151283800Y-172322149D02*
X148566800Y-172322149D01*
X156063800Y-172362149D02*
X153363800Y-172362149D01*
X151283800Y-172362149D02*
X148583800Y-172362149D01*
X156045800Y-172402149D02*
X153363800Y-172402149D01*
X151283800Y-172402149D02*
X148601800Y-172402149D01*
X156027800Y-172442149D02*
X153363800Y-172442149D01*
X151283800Y-172442149D02*
X148619800Y-172442149D01*
X156009800Y-172482149D02*
X153363800Y-172482149D01*
X151283800Y-172482149D02*
X148637800Y-172482149D01*
X155989800Y-172522149D02*
X153363800Y-172522149D01*
X151283800Y-172522149D02*
X148657800Y-172522149D01*
X155970800Y-172562149D02*
X153363800Y-172562149D01*
X151283800Y-172562149D02*
X148676800Y-172562149D01*
X155950800Y-172602149D02*
X153363800Y-172602149D01*
X151283800Y-172602149D02*
X148696800Y-172602149D01*
X155929800Y-172642149D02*
X153363800Y-172642149D01*
X151283800Y-172642149D02*
X148717800Y-172642149D01*
X155907800Y-172682149D02*
X153363800Y-172682149D01*
X151283800Y-172682149D02*
X148739800Y-172682149D01*
X155885800Y-172722149D02*
X153363800Y-172722149D01*
X151283800Y-172722149D02*
X148761800Y-172722149D01*
X155863800Y-172762149D02*
X153363800Y-172762149D01*
X151283800Y-172762149D02*
X148783800Y-172762149D01*
X155840800Y-172802149D02*
X153363800Y-172802149D01*
X151283800Y-172802149D02*
X148806800Y-172802149D01*
X155816800Y-172842149D02*
X153363800Y-172842149D01*
X151283800Y-172842149D02*
X148830800Y-172842149D01*
X155792800Y-172882149D02*
X153363800Y-172882149D01*
X151283800Y-172882149D02*
X148854800Y-172882149D01*
X155767800Y-172922149D02*
X153363800Y-172922149D01*
X151283800Y-172922149D02*
X148879800Y-172922149D01*
X155741800Y-172962149D02*
X153363800Y-172962149D01*
X151283800Y-172962149D02*
X148905800Y-172962149D01*
X155715800Y-173002149D02*
X153363800Y-173002149D01*
X151283800Y-173002149D02*
X148931800Y-173002149D01*
X155688800Y-173042149D02*
X153363800Y-173042149D01*
X151283800Y-173042149D02*
X148958800Y-173042149D01*
X155661800Y-173082149D02*
X153363800Y-173082149D01*
X151283800Y-173082149D02*
X148985800Y-173082149D01*
X155632800Y-173122149D02*
X153363800Y-173122149D01*
X151283800Y-173122149D02*
X149014800Y-173122149D01*
X155603800Y-173162149D02*
X153363800Y-173162149D01*
X151283800Y-173162149D02*
X149043800Y-173162149D01*
X155573800Y-173202149D02*
X153363800Y-173202149D01*
X151283800Y-173202149D02*
X149073800Y-173202149D01*
X155543800Y-173242149D02*
X153363800Y-173242149D01*
X151283800Y-173242149D02*
X149103800Y-173242149D01*
X155512800Y-173282149D02*
X153363800Y-173282149D01*
X151283800Y-173282149D02*
X149134800Y-173282149D01*
X155479800Y-173322149D02*
X153363800Y-173322149D01*
X151283800Y-173322149D02*
X149167800Y-173322149D01*
X155447800Y-173362149D02*
X153363800Y-173362149D01*
X151283800Y-173362149D02*
X149199800Y-173362149D01*
X155413800Y-173402149D02*
X153363800Y-173402149D01*
X151283800Y-173402149D02*
X149233800Y-173402149D01*
X155378800Y-173442149D02*
X153363800Y-173442149D01*
X151283800Y-173442149D02*
X149268800Y-173442149D01*
X155342800Y-173482149D02*
X153363800Y-173482149D01*
X151283800Y-173482149D02*
X149304800Y-173482149D01*
X155306800Y-173522149D02*
X153363800Y-173522149D01*
X151283800Y-173522149D02*
X149340800Y-173522149D01*
X155268800Y-173562149D02*
X153363800Y-173562149D01*
X151283800Y-173562149D02*
X149378800Y-173562149D01*
X155230800Y-173602149D02*
X153363800Y-173602149D01*
X151283800Y-173602149D02*
X149416800Y-173602149D01*
X155190800Y-173642149D02*
X153363800Y-173642149D01*
X151283800Y-173642149D02*
X149456800Y-173642149D01*
X155149800Y-173682149D02*
X153363800Y-173682149D01*
X151283800Y-173682149D02*
X149497800Y-173682149D01*
X155107800Y-173722149D02*
X153363800Y-173722149D01*
X151283800Y-173722149D02*
X149539800Y-173722149D01*
X155064800Y-173762149D02*
X153363800Y-173762149D01*
X151283800Y-173762149D02*
X149582800Y-173762149D01*
X155020800Y-173802149D02*
X153363800Y-173802149D01*
X151283800Y-173802149D02*
X149626800Y-173802149D01*
X154974800Y-173842149D02*
X153363800Y-173842149D01*
X151283800Y-173842149D02*
X149672800Y-173842149D01*
X154927800Y-173882149D02*
X153363800Y-173882149D01*
X151283800Y-173882149D02*
X149719800Y-173882149D01*
X154879800Y-173922149D02*
X153363800Y-173922149D01*
X151283800Y-173922149D02*
X149767800Y-173922149D01*
X154828800Y-173962149D02*
X153363800Y-173962149D01*
X151283800Y-173962149D02*
X149818800Y-173962149D01*
X154777800Y-174002149D02*
X153363800Y-174002149D01*
X151283800Y-174002149D02*
X149869800Y-174002149D01*
X154723800Y-174042149D02*
X153363800Y-174042149D01*
X151283800Y-174042149D02*
X149923800Y-174042149D01*
X154668800Y-174082149D02*
X153363800Y-174082149D01*
X151283800Y-174082149D02*
X149978800Y-174082149D01*
X154610800Y-174122149D02*
X153363800Y-174122149D01*
X151283800Y-174122149D02*
X150036800Y-174122149D01*
X154551800Y-174162149D02*
X153363800Y-174162149D01*
X151283800Y-174162149D02*
X150095800Y-174162149D01*
X154489800Y-174202149D02*
X153363800Y-174202149D01*
X151283800Y-174202149D02*
X150157800Y-174202149D01*
X154425800Y-174242149D02*
X153363800Y-174242149D01*
X151283800Y-174242149D02*
X150221800Y-174242149D01*
X154357800Y-174282149D02*
X150289800Y-174282149D01*
X154287800Y-174322149D02*
X150359800Y-174322149D01*
X154213800Y-174362149D02*
X150433800Y-174362149D01*
X154136800Y-174402149D02*
X150510800Y-174402149D01*
X154054800Y-174442149D02*
X150592800Y-174442149D01*
X153968800Y-174482149D02*
X150678800Y-174482149D01*
X153875800Y-174522149D02*
X150771800Y-174522149D01*
X153776800Y-174562149D02*
X150870800Y-174562149D01*
X153669800Y-174602149D02*
X150977800Y-174602149D01*
X153552800Y-174642149D02*
X151094800Y-174642149D01*
X153421800Y-174682149D02*
X151225800Y-174682149D01*
X153271800Y-174722149D02*
X151375800Y-174722149D01*
X153091800Y-174762149D02*
X151555800Y-174762149D01*
X152856800Y-174802149D02*
X151790800Y-174802149D01*
X156443800Y-170721149D02*
G75*
G03*
X148203800Y-170721149I-4120000J0D01*
G01*
X148203800Y-170721149D02*
G75*
G03*
X156443800Y-170721149I4120000J0D01*
G01*
%TD*%
M02*
