%TF.GenerationSoftware,KiCad,Pcbnew,7.0.11-7.0.11~ubuntu22.04.1*%
%TF.CreationDate,2024-11-09T08:52:53-05:00*%
%TF.ProjectId,coleco_original,636f6c65-636f-45f6-9f72-6967696e616c,DEV*%
%TF.SameCoordinates,Original*%
%TF.FileFunction,Copper,L2,Inr*%
%TF.FilePolarity,Positive*%
%FSLAX46Y46*%
G04 Gerber Fmt 4.6, Leading zero omitted, Abs format (unit mm)*
G04 Created by KiCad (PCBNEW 7.0.11-7.0.11~ubuntu22.04.1) date 2024-11-09 08:52:53*
%MOMM*%
%LPD*%
G01*
G04 APERTURE LIST*
G04 Aperture macros list*
%AMRoundRect*
0 Rectangle with rounded corners*
0 $1 Rounding radius*
0 $2 $3 $4 $5 $6 $7 $8 $9 X,Y pos of 4 corners*
0 Add a 4 corners polygon primitive as box body*
4,1,4,$2,$3,$4,$5,$6,$7,$8,$9,$2,$3,0*
0 Add four circle primitives for the rounded corners*
1,1,$1+$1,$2,$3*
1,1,$1+$1,$4,$5*
1,1,$1+$1,$6,$7*
1,1,$1+$1,$8,$9*
0 Add four rect primitives between the rounded corners*
20,1,$1+$1,$2,$3,$4,$5,0*
20,1,$1+$1,$4,$5,$6,$7,0*
20,1,$1+$1,$6,$7,$8,$9,0*
20,1,$1+$1,$8,$9,$2,$3,0*%
G04 Aperture macros list end*
%TA.AperFunction,ComponentPad*%
%ADD10C,1.600000*%
%TD*%
%TA.AperFunction,ComponentPad*%
%ADD11O,1.600000X1.600000*%
%TD*%
%TA.AperFunction,ComponentPad*%
%ADD12C,1.500000*%
%TD*%
%TA.AperFunction,ComponentPad*%
%ADD13C,5.600000*%
%TD*%
%TA.AperFunction,ComponentPad*%
%ADD14R,1.600000X1.600000*%
%TD*%
%TA.AperFunction,ComponentPad*%
%ADD15RoundRect,0.250000X-0.620000X-0.845000X0.620000X-0.845000X0.620000X0.845000X-0.620000X0.845000X0*%
%TD*%
%TA.AperFunction,ComponentPad*%
%ADD16O,1.740000X2.190000*%
%TD*%
%TA.AperFunction,ComponentPad*%
%ADD17C,4.000000*%
%TD*%
%TA.AperFunction,ComponentPad*%
%ADD18RoundRect,0.250000X0.620000X0.845000X-0.620000X0.845000X-0.620000X-0.845000X0.620000X-0.845000X0*%
%TD*%
%TA.AperFunction,ComponentPad*%
%ADD19C,2.100000*%
%TD*%
%TA.AperFunction,ComponentPad*%
%ADD20O,2.006600X1.320800*%
%TD*%
%TA.AperFunction,ComponentPad*%
%ADD21O,1.320800X2.006600*%
%TD*%
%TA.AperFunction,ComponentPad*%
%ADD22C,1.701800*%
%TD*%
%TA.AperFunction,ComponentPad*%
%ADD23R,1.700000X1.700000*%
%TD*%
%TA.AperFunction,ComponentPad*%
%ADD24O,1.700000X1.700000*%
%TD*%
%TA.AperFunction,ComponentPad*%
%ADD25R,1.422400X1.422400*%
%TD*%
%TA.AperFunction,ComponentPad*%
%ADD26C,1.422400*%
%TD*%
%TA.AperFunction,ComponentPad*%
%ADD27R,1.800000X1.800000*%
%TD*%
%TA.AperFunction,ComponentPad*%
%ADD28C,1.800000*%
%TD*%
%TA.AperFunction,ComponentPad*%
%ADD29C,2.200000*%
%TD*%
%TA.AperFunction,ComponentPad*%
%ADD30C,1.700000*%
%TD*%
%TA.AperFunction,ComponentPad*%
%ADD31O,3.000000X1.800000*%
%TD*%
%TA.AperFunction,ComponentPad*%
%ADD32R,2.500000X1.500000*%
%TD*%
%TA.AperFunction,ComponentPad*%
%ADD33O,2.500000X1.500000*%
%TD*%
%TA.AperFunction,ComponentPad*%
%ADD34O,1.500000X2.000000*%
%TD*%
%TA.AperFunction,ComponentPad*%
%ADD35C,4.875000*%
%TD*%
%TA.AperFunction,ComponentPad*%
%ADD36C,2.775000*%
%TD*%
%TA.AperFunction,ComponentPad*%
%ADD37R,1.500000X1.500000*%
%TD*%
%TA.AperFunction,ViaPad*%
%ADD38C,1.270000*%
%TD*%
%TA.AperFunction,ViaPad*%
%ADD39C,0.762000*%
%TD*%
%TA.AperFunction,Conductor*%
%ADD40C,0.457200*%
%TD*%
G04 APERTURE END LIST*
D10*
%TO.N,+5VP*%
%TO.C,R30*%
X144348200Y-54850600D03*
D11*
%TO.N,+5P*%
X144348200Y-47230600D03*
%TD*%
D10*
%TO.N,Net-(L1-Pad1)*%
%TO.C,R29*%
X132105400Y-158203200D03*
D11*
%TO.N,+5VA*%
X139725400Y-158203200D03*
%TD*%
D10*
%TO.N,+5P*%
%TO.C,C36*%
X115087400Y-82119400D03*
%TO.N,GNDD*%
X115087400Y-87119400D03*
%TD*%
D12*
%TO.N,Net-(U6-XTAL1)*%
%TO.C,Y1*%
X136144000Y-73799000D03*
%TO.N,Net-(U6-XTAL2)*%
X136144000Y-78679000D03*
%TD*%
D10*
%TO.N,Net-(C4-Pad2)*%
%TO.C,R6*%
X137972800Y-151091200D03*
D11*
%TO.N,Net-(U11-OUT)*%
X137972800Y-143471200D03*
%TD*%
D10*
%TO.N,GNDD*%
%TO.C,C4*%
X142290800Y-154839600D03*
%TO.N,Net-(C4-Pad2)*%
X142290800Y-159839600D03*
%TD*%
D13*
%TO.N,unconnected-(H6-Pad1)*%
%TO.C,H6*%
X153441400Y-49364200D03*
%TD*%
D14*
%TO.N,/video/nRAS*%
%TO.C,U6*%
X131622800Y-64451800D03*
D11*
%TO.N,/video/nCAS*%
X129082800Y-64451800D03*
%TO.N,/video/AD7*%
X126542800Y-64451800D03*
%TO.N,/video/AD6*%
X124002800Y-64451800D03*
%TO.N,/video/AD5*%
X121462800Y-64451800D03*
%TO.N,/video/AD4*%
X118922800Y-64451800D03*
%TO.N,/video/AD3*%
X116382800Y-64451800D03*
%TO.N,/video/AD2*%
X113842800Y-64451800D03*
%TO.N,/video/AD1*%
X111302800Y-64451800D03*
%TO.N,/video/AD0*%
X108762800Y-64451800D03*
%TO.N,/video/RnW*%
X106222800Y-64451800D03*
%TO.N,GNDD*%
X103682800Y-64451800D03*
%TO.N,/GLUE/A0*%
X101142800Y-64451800D03*
%TO.N,/GLUE/~{CSW}*%
X98602800Y-64451800D03*
%TO.N,/GLUE/~{CSR}*%
X96062800Y-64451800D03*
%TO.N,/cpu/~{NMI}*%
X93522800Y-64451800D03*
%TO.N,/GLUE/D0*%
X90982800Y-64451800D03*
%TO.N,/GLUE/D1*%
X88442800Y-64451800D03*
%TO.N,/GLUE/D2*%
X85902800Y-64451800D03*
%TO.N,/GLUE/D3*%
X83362800Y-64451800D03*
%TO.N,/GLUE/D4*%
X83362800Y-79691800D03*
%TO.N,/GLUE/D5*%
X85902800Y-79691800D03*
%TO.N,/GLUE/D6*%
X88442800Y-79691800D03*
%TO.N,/GLUE/D7*%
X90982800Y-79691800D03*
%TO.N,/video/R7*%
X93522800Y-79691800D03*
%TO.N,/video/R6*%
X96062800Y-79691800D03*
%TO.N,/video/R5*%
X98602800Y-79691800D03*
%TO.N,/video/R4*%
X101142800Y-79691800D03*
%TO.N,/video/R3*%
X103682800Y-79691800D03*
%TO.N,/video/R2*%
X106222800Y-79691800D03*
%TO.N,/video/R1*%
X108762800Y-79691800D03*
%TO.N,/video/R0*%
X111302800Y-79691800D03*
%TO.N,+5P*%
X113842800Y-79691800D03*
%TO.N,/GLUE/~{RESET}*%
X116382800Y-79691800D03*
%TO.N,unconnected-(U6-EXTVID-Pad35)*%
X118922800Y-79691800D03*
%TO.N,/video/Y*%
X121462800Y-79691800D03*
%TO.N,unconnected-(U6-NC-Pad37)*%
X124002800Y-79691800D03*
%TO.N,/GLUE/CLK*%
X126542800Y-79691800D03*
%TO.N,Net-(U6-XTAL2)*%
X129082800Y-79691800D03*
%TO.N,Net-(U6-XTAL1)*%
X131622800Y-79691800D03*
%TD*%
D15*
%TO.N,Net-(J3-In)*%
%TO.C,J3*%
X138379200Y-53656800D03*
D16*
%TO.N,GNDD*%
X140919200Y-53656800D03*
%TD*%
D17*
%TO.N,N/C*%
%TO.C,J5*%
X77901800Y-60311600D03*
X77901800Y-85311600D03*
D14*
%TO.N,/GLUE/C1P1*%
X79321800Y-67271600D03*
D10*
%TO.N,/GLUE/C1P2*%
X79321800Y-70041600D03*
%TO.N,/GLUE/C1P3*%
X79321800Y-72811600D03*
%TO.N,/GLUE/C1P4*%
X79321800Y-75581600D03*
%TO.N,/controller/ex_ARM*%
X79321800Y-78351600D03*
%TO.N,/GLUE/C1P6*%
X76481800Y-68656600D03*
%TO.N,/GLUE/C1P7*%
X76481800Y-71426600D03*
%TO.N,/controller/ex_FIRE*%
X76481800Y-74196600D03*
%TO.N,Net-(J5-Pad9)*%
X76481800Y-76966600D03*
%TD*%
%TO.N,Net-(J5-Pad9)*%
%TO.C,R19*%
X70078600Y-89928000D03*
D11*
%TO.N,/GLUE/C1P9*%
X70078600Y-100088000D03*
%TD*%
D14*
%TO.N,+5V*%
%TO.C,C3*%
X118459000Y-162459088D03*
D10*
%TO.N,GNDD*%
X118459000Y-164959088D03*
%TD*%
D14*
%TO.N,Net-(U1-BYPASS)*%
%TO.C,C28*%
X129736600Y-164619313D03*
D10*
%TO.N,GNDD*%
X129736600Y-162619313D03*
%TD*%
%TO.N,/GLUE/TDI*%
%TO.C,R14*%
X85852000Y-129399600D03*
D11*
%TO.N,+5V*%
X85852000Y-119239600D03*
%TD*%
D10*
%TO.N,+5V*%
%TO.C,R22*%
X85140800Y-147255800D03*
D11*
%TO.N,Net-(D1-A)*%
X74980800Y-147255800D03*
%TD*%
D14*
%TO.N,+5V*%
%TO.C,RN1*%
X71170800Y-112508600D03*
D11*
%TO.N,/GLUE/C1P1*%
X73710800Y-112508600D03*
%TO.N,/GLUE/C1P2*%
X76250800Y-112508600D03*
%TO.N,/GLUE/C1P3*%
X78790800Y-112508600D03*
%TO.N,/GLUE/C1P4*%
X81330800Y-112508600D03*
%TO.N,/GLUE/C1P6*%
X83870800Y-112508600D03*
%TO.N,/GLUE/C1P7*%
X86410800Y-112508600D03*
%TD*%
D10*
%TO.N,+5P*%
%TO.C,L3*%
X117830600Y-83349400D03*
D11*
%TO.N,+5V*%
X127990600Y-83349400D03*
%TD*%
D14*
%TO.N,+5VA*%
%TO.C,C24*%
X132322688Y-179971000D03*
D10*
%TO.N,GNDD*%
X134822688Y-179971000D03*
%TD*%
D13*
%TO.N,unconnected-(H2-Pad1)*%
%TO.C,H2*%
X73710800Y-166051800D03*
%TD*%
D10*
%TO.N,Net-(C26-Pad1)*%
%TO.C,R23*%
X139700000Y-155129800D03*
D11*
%TO.N,Net-(U1-IN)*%
X132080000Y-155129800D03*
%TD*%
D14*
%TO.N,/storage/A14e*%
%TO.C,U4*%
X89799000Y-186046600D03*
D11*
%TO.N,/storage/A12e*%
X92339000Y-186046600D03*
%TO.N,/GLUE/A7*%
X94879000Y-186046600D03*
%TO.N,/GLUE/A6*%
X97419000Y-186046600D03*
%TO.N,/GLUE/A5*%
X99959000Y-186046600D03*
%TO.N,/GLUE/A4*%
X102499000Y-186046600D03*
%TO.N,/GLUE/A3*%
X105039000Y-186046600D03*
%TO.N,/GLUE/A2*%
X107579000Y-186046600D03*
%TO.N,/GLUE/A1*%
X110119000Y-186046600D03*
%TO.N,/GLUE/A0*%
X112659000Y-186046600D03*
%TO.N,/GLUE/D0*%
X115199000Y-186046600D03*
%TO.N,/GLUE/D1*%
X117739000Y-186046600D03*
%TO.N,/GLUE/D2*%
X120279000Y-186046600D03*
%TO.N,GNDD*%
X122819000Y-186046600D03*
%TO.N,/GLUE/D3*%
X122819000Y-170806600D03*
%TO.N,/GLUE/D4*%
X120279000Y-170806600D03*
%TO.N,/GLUE/D5*%
X117739000Y-170806600D03*
%TO.N,/GLUE/D6*%
X115199000Y-170806600D03*
%TO.N,/GLUE/D7*%
X112659000Y-170806600D03*
%TO.N,/GLUE/~{RAM_CS}*%
X110119000Y-170806600D03*
%TO.N,/storage/A10e*%
X107579000Y-170806600D03*
%TO.N,/GLUE/~{RAM_OE}*%
X105039000Y-170806600D03*
%TO.N,/storage/A11e*%
X102499000Y-170806600D03*
%TO.N,/GLUE/A9*%
X99959000Y-170806600D03*
%TO.N,/GLUE/A8*%
X97419000Y-170806600D03*
%TO.N,/storage/A13e*%
X94879000Y-170806600D03*
%TO.N,/GLUE/~{WR}*%
X92339000Y-170806600D03*
%TO.N,+5V*%
X89799000Y-170806600D03*
%TD*%
D10*
%TO.N,Net-(L1-Pad1)*%
%TO.C,L1*%
X129870200Y-157873000D03*
D11*
%TO.N,+5V*%
X119710200Y-157873000D03*
%TD*%
D14*
%TO.N,GNDD*%
%TO.C,U7*%
X111074200Y-58736800D03*
D11*
%TO.N,/video/R0*%
X113614200Y-58736800D03*
%TO.N,/video/R1*%
X116154200Y-58736800D03*
%TO.N,/video/RnW*%
X118694200Y-58736800D03*
%TO.N,/video/nRAS*%
X121234200Y-58736800D03*
%TO.N,/video/AD1*%
X123774200Y-58736800D03*
%TO.N,/video/AD2*%
X126314200Y-58736800D03*
%TO.N,/video/AD3*%
X128854200Y-58736800D03*
%TO.N,+5P*%
X131394200Y-58736800D03*
%TO.N,/video/AD0*%
X131394200Y-51116800D03*
%TO.N,/video/AD4*%
X128854200Y-51116800D03*
%TO.N,/video/AD5*%
X126314200Y-51116800D03*
%TO.N,/video/AD6*%
X123774200Y-51116800D03*
%TO.N,/video/AD7*%
X121234200Y-51116800D03*
%TO.N,/video/R2*%
X118694200Y-51116800D03*
%TO.N,/video/nCAS*%
X116154200Y-51116800D03*
%TO.N,/video/R3*%
X113614200Y-51116800D03*
%TO.N,GNDD*%
X111074200Y-51116800D03*
%TD*%
D18*
%TO.N,+5V*%
%TO.C,J11*%
X81203800Y-141992600D03*
D16*
%TO.N,GNDD*%
X78663800Y-141992600D03*
%TD*%
D10*
%TO.N,+5V*%
%TO.C,C10*%
X86995000Y-171233400D03*
%TO.N,GNDD*%
X81995000Y-171233400D03*
%TD*%
%TO.N,/GLUE/C1P9*%
%TO.C,C20*%
X70129400Y-102581000D03*
%TO.N,GNDD*%
X70129400Y-107581000D03*
%TD*%
D12*
%TO.N,GNDD*%
%TO.C,RV1*%
X145698800Y-150514800D03*
%TO.N,Net-(C26-Pad2)*%
X145698800Y-154514800D03*
%TO.N,Net-(C4-Pad2)*%
X145698800Y-158514800D03*
D19*
%TO.N,N/C*%
X155698800Y-149514800D03*
X155698800Y-159514800D03*
%TD*%
D20*
%TO.N,GNDD*%
%TO.C,J9*%
X143640800Y-184049599D03*
D21*
%TO.N,/sound/HP+*%
X148640800Y-179049602D03*
X138640800Y-179049602D03*
%TO.N,/sound/HP_BTL*%
X146140800Y-179049602D03*
%TO.N,unconnected-(J9-Pad5)*%
X141140800Y-179049602D03*
D22*
%TO.N,N/C*%
X148640800Y-186549600D03*
X138640800Y-186549600D03*
X148640800Y-184049599D03*
X138640800Y-184049599D03*
X143640800Y-179049602D03*
%TD*%
D10*
%TO.N,/GLUE/C2P9*%
%TO.C,R28*%
X144576800Y-116445600D03*
D11*
%TO.N,+5V*%
X154736800Y-116445600D03*
%TD*%
D10*
%TO.N,GNDD*%
%TO.C,R10*%
X147599400Y-47256000D03*
D11*
%TO.N,Net-(J3-In)*%
X147599400Y-54876000D03*
%TD*%
D10*
%TO.N,/GLUE/TDO*%
%TO.C,R16*%
X79756000Y-129374200D03*
D11*
%TO.N,+5V*%
X79756000Y-119214200D03*
%TD*%
D23*
%TO.N,/GLUE/TCK*%
%TO.C,J6*%
X73334800Y-129572400D03*
D24*
%TO.N,GNDD*%
X70794800Y-129572400D03*
%TO.N,/GLUE/TDO*%
X73334800Y-127032400D03*
%TO.N,+5V*%
X70794800Y-127032400D03*
%TO.N,/GLUE/TMS*%
X73334800Y-124492400D03*
%TO.N,unconnected-(J6-Pin_6-Pad6)*%
X70794800Y-124492400D03*
%TO.N,unconnected-(J6-Pin_7-Pad7)*%
X73334800Y-121952400D03*
%TO.N,unconnected-(J6-Pin_8-Pad8)*%
X70794800Y-121952400D03*
%TO.N,/GLUE/TDI*%
X73334800Y-119412400D03*
%TO.N,GNDD*%
X70794800Y-119412400D03*
%TD*%
D10*
%TO.N,Net-(Q1-B)*%
%TO.C,R12*%
X142494000Y-68414200D03*
D11*
%TO.N,/video/Y*%
X134874000Y-68414200D03*
%TD*%
D10*
%TO.N,+5VD*%
%TO.C,C8*%
X153934800Y-130999800D03*
%TO.N,GNDD*%
X148934800Y-130999800D03*
%TD*%
%TO.N,/GLUE/C1P9*%
%TO.C,R3*%
X80695800Y-115937600D03*
D11*
%TO.N,+5V*%
X70535800Y-115937600D03*
%TD*%
D10*
%TO.N,+5VA*%
%TO.C,C7*%
X130723000Y-175653000D03*
%TO.N,GNDD*%
X135723000Y-175653000D03*
%TD*%
D14*
%TO.N,Net-(U1-SE{slash}~{BTL})*%
%TO.C,C27*%
X135375400Y-164619313D03*
D10*
%TO.N,GNDD*%
X135375400Y-162619313D03*
%TD*%
%TO.N,/GLUE/TCK*%
%TO.C,R17*%
X76708000Y-129374200D03*
D11*
%TO.N,GNDD*%
X76708000Y-119214200D03*
%TD*%
D17*
%TO.N,N/C*%
%TO.C,J7*%
X147652600Y-85170800D03*
X147652600Y-60170800D03*
D14*
%TO.N,/GLUE/C2P1*%
X146232600Y-78210800D03*
D10*
%TO.N,/GLUE/C2P2*%
X146232600Y-75440800D03*
%TO.N,/GLUE/C2P3*%
X146232600Y-72670800D03*
%TO.N,/GLUE/C2P4*%
X146232600Y-69900800D03*
%TO.N,/controller/ex_ARM*%
X146232600Y-67130800D03*
%TO.N,/GLUE/C2P6*%
X149072600Y-76825800D03*
%TO.N,/GLUE/C2P7*%
X149072600Y-74055800D03*
%TO.N,/controller/ex_FIRE*%
X149072600Y-71285800D03*
%TO.N,Net-(J7-Pad9)*%
X149072600Y-68515800D03*
%TD*%
D25*
%TO.N,/GLUE/~{RESET_SW}*%
%TO.C,U9*%
X113487200Y-114300900D03*
D26*
%TO.N,/GLUE/C1P1*%
X113487200Y-116840900D03*
%TO.N,+5V*%
X110947200Y-114300900D03*
%TO.N,/GLUE/C1P2*%
X110947200Y-116840900D03*
%TO.N,/GLUE/C1P3*%
X108407200Y-114300900D03*
%TO.N,/GLUE/C1P4*%
X108407200Y-116840900D03*
%TO.N,GNDD*%
X105867200Y-114300900D03*
%TO.N,/GLUE/C1P6*%
X105867200Y-116840900D03*
%TO.N,/GLUE/C1P7*%
X103327200Y-114300900D03*
%TO.N,/GLUE/AS*%
X103327200Y-116840900D03*
%TO.N,/GLUE/C5_ARM*%
X100787200Y-114300900D03*
%TO.N,/GLUE/C8_FIRE*%
X98247200Y-116840900D03*
%TO.N,+5V*%
X100787200Y-116840900D03*
%TO.N,/GLUE/TDI*%
X98247200Y-119380900D03*
%TO.N,/GLUE/A15*%
X100787200Y-119380900D03*
%TO.N,/GLUE/A14*%
X98247200Y-121920900D03*
%TO.N,/GLUE/A13*%
X100787200Y-121920900D03*
%TO.N,/GLUE/A12*%
X98247200Y-124460900D03*
%TO.N,GNDD*%
X100787200Y-124460900D03*
%TO.N,/GLUE/A11*%
X98247200Y-127000900D03*
%TO.N,/GLUE/A10*%
X100787200Y-127000900D03*
%TO.N,/GLUE/A9*%
X98247200Y-129540900D03*
%TO.N,/GLUE/TMS*%
X100787200Y-129540900D03*
%TO.N,/GLUE/A8*%
X98247200Y-132080900D03*
%TO.N,/GLUE/A7*%
X100787200Y-132080900D03*
%TO.N,+5V*%
X98247200Y-134620900D03*
%TO.N,/GLUE/A6*%
X100787200Y-134620900D03*
%TO.N,/GLUE/A5*%
X98247200Y-137160900D03*
%TO.N,/GLUE/A4*%
X100787200Y-137160900D03*
%TO.N,/GLUE/A3*%
X98247200Y-139700900D03*
%TO.N,/GLUE/A2*%
X100787200Y-139700900D03*
%TO.N,GNDD*%
X98247200Y-142240900D03*
%TO.N,/GLUE/A1*%
X100787200Y-144780900D03*
%TO.N,/GLUE/A0*%
X100787200Y-142240900D03*
%TO.N,/GLUE/~{M1}*%
X103327200Y-144780900D03*
%TO.N,/GLUE/~{RFSH}*%
X103327200Y-142240900D03*
%TO.N,/storage/ram_mirror*%
X105867200Y-144780900D03*
%TO.N,+5V*%
X105867200Y-142240900D03*
%TO.N,/GLUE/~{WAIT}*%
X108407200Y-144780900D03*
%TO.N,/GLUE/~{RD}*%
X108407200Y-142240900D03*
%TO.N,/GLUE/~{RAM_OE}*%
X110947200Y-144780900D03*
%TO.N,GNDD*%
X110947200Y-142240900D03*
%TO.N,+5V*%
X113487200Y-144780900D03*
%TO.N,/GLUE/~{IORQ}*%
X113487200Y-142240900D03*
%TO.N,/GLUE/~{MREQ}*%
X116027200Y-144780900D03*
%TO.N,/GLUE/D0*%
X116027200Y-142240900D03*
%TO.N,GNDD*%
X118567200Y-144780900D03*
%TO.N,/GLUE/D1*%
X118567200Y-142240900D03*
%TO.N,/GLUE/D7*%
X121107200Y-144780900D03*
%TO.N,/GLUE/D2*%
X121107200Y-142240900D03*
%TO.N,/GLUE/D6*%
X123647200Y-144780900D03*
%TO.N,/GLUE/D5*%
X123647200Y-142240900D03*
%TO.N,+5V*%
X126187200Y-144780900D03*
%TO.N,/GLUE/D4*%
X128727200Y-142240900D03*
%TO.N,/GLUE/D3*%
X126187200Y-142240900D03*
%TO.N,/GLUE/~{ROM_ENABLE}*%
X128727200Y-139700900D03*
%TO.N,/GLUE/~{RAM_CS}*%
X126187200Y-139700900D03*
%TO.N,/GLUE/~{SND_ENABLE}*%
X128727200Y-137160900D03*
%TO.N,GNDD*%
X126187200Y-137160900D03*
%TO.N,/GLUE/~{RESET}*%
X128727200Y-134620900D03*
%TO.N,/GLUE/~{INT}*%
X126187200Y-134620900D03*
%TO.N,/GLUE/TCK*%
X128727200Y-132080900D03*
%TO.N,/GLUE/~{CS_hC000}*%
X126187200Y-132080900D03*
%TO.N,/GLUE/~{CS_hA000}*%
X128727200Y-129540900D03*
%TO.N,/GLUE/~{CS_h8000}*%
X126187200Y-129540900D03*
%TO.N,+5V*%
X128727200Y-127000900D03*
%TO.N,/GLUE/~{CS_hE000}*%
X126187200Y-127000900D03*
%TO.N,/GLUE/~{CSR}*%
X128727200Y-124460900D03*
%TO.N,/GLUE/~{CSW}*%
X126187200Y-124460900D03*
%TO.N,/GLUE/C2P1*%
X128727200Y-121920900D03*
%TO.N,/GLUE/TDO*%
X126187200Y-121920900D03*
%TO.N,GNDD*%
X128727200Y-119380900D03*
%TO.N,/GLUE/C2P2*%
X126187200Y-119380900D03*
%TO.N,/GLUE/C2P3*%
X128727200Y-116840900D03*
%TO.N,/GLUE/C2P4*%
X126187200Y-114300900D03*
%TO.N,/GLUE/C2P6*%
X126187200Y-116840900D03*
%TO.N,/GLUE/C2P7*%
X123647200Y-114300900D03*
%TO.N,+5V*%
X123647200Y-116840900D03*
%TO.N,/GLUE/~{AY_SND_ENABLE}*%
X121107200Y-114300900D03*
%TO.N,/GLUE/C1P9*%
X121107200Y-116840900D03*
%TO.N,/GLUE/C2P9*%
X118567200Y-114300900D03*
%TO.N,GNDD*%
X118567200Y-116840900D03*
%TO.N,/GLUE/CLK*%
X116027200Y-114300900D03*
%TO.N,/GLUE/~{WR}*%
X116027200Y-116840900D03*
%TD*%
D14*
%TO.N,/GLUE/~{AY_SND_ENABLE}*%
%TO.C,U11*%
X153873200Y-133616000D03*
D11*
X151333200Y-133616000D03*
%TO.N,/GLUE/AS*%
X148793200Y-133616000D03*
%TO.N,+5VD*%
X146253200Y-133616000D03*
%TO.N,Net-(U11-OUT)*%
X143713200Y-133616000D03*
%TO.N,GNDD*%
X141173200Y-133616000D03*
%TO.N,/GLUE/CLK*%
X138633200Y-133616000D03*
%TO.N,/GLUE/~{RESET}*%
X136093200Y-133616000D03*
%TO.N,/GLUE/D7*%
X136093200Y-141236000D03*
%TO.N,/GLUE/D6*%
X138633200Y-141236000D03*
%TO.N,/GLUE/D5*%
X141173200Y-141236000D03*
%TO.N,/GLUE/D4*%
X143713200Y-141236000D03*
%TO.N,/GLUE/D3*%
X146253200Y-141236000D03*
%TO.N,/GLUE/D2*%
X148793200Y-141236000D03*
%TO.N,/GLUE/D1*%
X151333200Y-141236000D03*
%TO.N,/GLUE/D0*%
X153873200Y-141236000D03*
%TD*%
D10*
%TO.N,Net-(U6-XTAL2)*%
%TO.C,C16*%
X140081000Y-78746600D03*
%TO.N,GNDD*%
X140081000Y-81246600D03*
%TD*%
%TO.N,+5V*%
%TO.C,C18*%
X92964000Y-134632000D03*
%TO.N,GNDD*%
X92964000Y-139632000D03*
%TD*%
D27*
%TO.N,GNDD*%
%TO.C,D1*%
X71297800Y-148403800D03*
D28*
%TO.N,Net-(D1-A)*%
X71297800Y-145863800D03*
%TD*%
D10*
%TO.N,GNDD*%
%TO.C,C15*%
X140131800Y-71253600D03*
%TO.N,Net-(U6-XTAL1)*%
X140131800Y-73753600D03*
%TD*%
%TO.N,GNDD*%
%TO.C,R24*%
X147294600Y-164527800D03*
D11*
%TO.N,/sound/HP+*%
X154914600Y-164527800D03*
%TD*%
D14*
%TO.N,+5V*%
%TO.C,RN2*%
X154787600Y-112508600D03*
D11*
%TO.N,/GLUE/C2P1*%
X152247600Y-112508600D03*
%TO.N,/GLUE/C2P2*%
X149707600Y-112508600D03*
%TO.N,/GLUE/C2P3*%
X147167600Y-112508600D03*
%TO.N,/GLUE/C2P4*%
X144627600Y-112508600D03*
%TO.N,/GLUE/C2P6*%
X142087600Y-112508600D03*
%TO.N,/GLUE/C2P7*%
X139547600Y-112508600D03*
%TD*%
D10*
%TO.N,+5P*%
%TO.C,C14*%
X134772400Y-57299800D03*
%TO.N,GNDD*%
X134772400Y-52299800D03*
%TD*%
D29*
%TO.N,*%
%TO.C,SW1*%
X73747000Y-158386400D03*
X73747000Y-151386400D03*
D30*
%TO.N,Net-(C1-Pad1)*%
X71247000Y-157136400D03*
%TO.N,GNDD*%
X71247000Y-152636400D03*
%TD*%
D10*
%TO.N,/sound/HP_BTL*%
%TO.C,R27*%
X145043450Y-175108800D03*
D11*
%TO.N,+5VA*%
X145043450Y-167488800D03*
%TD*%
D10*
%TO.N,GNDD*%
%TO.C,C25*%
X126589800Y-168185400D03*
%TO.N,+5V*%
X121589800Y-168185400D03*
%TD*%
D18*
%TO.N,/sound/SP+*%
%TO.C,J2*%
X128905000Y-180967000D03*
D16*
%TO.N,/sound/SP-*%
X126365000Y-180967000D03*
%TD*%
D13*
%TO.N,unconnected-(H7-Pad1)*%
%TO.C,H7*%
X110375700Y-84352700D03*
%TD*%
D10*
%TO.N,+5VD*%
%TO.C,L2*%
X129870200Y-154012200D03*
D11*
%TO.N,+5V*%
X119710200Y-154012200D03*
%TD*%
D10*
%TO.N,Net-(C4-Pad2)*%
%TO.C,R5*%
X133731000Y-151091200D03*
D11*
%TO.N,Net-(U2-OUT)*%
X133731000Y-143471200D03*
%TD*%
D14*
%TO.N,+5V*%
%TO.C,U5*%
X81061400Y-166082200D03*
D11*
%TO.N,/GLUE/A12*%
X83601400Y-166082200D03*
%TO.N,/GLUE/A7*%
X86141400Y-166082200D03*
%TO.N,/GLUE/A6*%
X88681400Y-166082200D03*
%TO.N,/GLUE/A5*%
X91221400Y-166082200D03*
%TO.N,/GLUE/A4*%
X93761400Y-166082200D03*
%TO.N,/GLUE/A3*%
X96301400Y-166082200D03*
%TO.N,/GLUE/A2*%
X98841400Y-166082200D03*
%TO.N,/GLUE/A1*%
X101381400Y-166082200D03*
%TO.N,/GLUE/A0*%
X103921400Y-166082200D03*
%TO.N,/GLUE/D0*%
X106461400Y-166082200D03*
%TO.N,/GLUE/D1*%
X109001400Y-166082200D03*
%TO.N,/GLUE/D2*%
X111541400Y-166082200D03*
%TO.N,GNDD*%
X114081400Y-166082200D03*
%TO.N,/GLUE/D3*%
X114081400Y-150842200D03*
%TO.N,/GLUE/D4*%
X111541400Y-150842200D03*
%TO.N,/GLUE/D5*%
X109001400Y-150842200D03*
%TO.N,/GLUE/D6*%
X106461400Y-150842200D03*
%TO.N,/GLUE/D7*%
X103921400Y-150842200D03*
%TO.N,/GLUE/~{ROM_ENABLE}*%
X101381400Y-150842200D03*
%TO.N,/GLUE/A10*%
X98841400Y-150842200D03*
%TO.N,/GLUE/~{ROM_ENABLE}*%
X96301400Y-150842200D03*
%TO.N,/GLUE/A11*%
X93761400Y-150842200D03*
%TO.N,/GLUE/A9*%
X91221400Y-150842200D03*
%TO.N,/GLUE/A8*%
X88681400Y-150842200D03*
%TO.N,+5V*%
X86141400Y-150842200D03*
X83601400Y-150842200D03*
X81061400Y-150842200D03*
%TD*%
D10*
%TO.N,+5V*%
%TO.C,C19*%
X93649800Y-116267800D03*
%TO.N,GNDD*%
X88649800Y-116267800D03*
%TD*%
D13*
%TO.N,unconnected-(H4-Pad1)*%
%TO.C,H4*%
X72110600Y-49415000D03*
%TD*%
D10*
%TO.N,Net-(J7-Pad9)*%
%TO.C,R18*%
X155270200Y-89801000D03*
D11*
%TO.N,/GLUE/C2P9*%
X155270200Y-99961000D03*
%TD*%
D10*
%TO.N,+5V*%
%TO.C,R1*%
X76250800Y-136892600D03*
D11*
%TO.N,Net-(C1-Pad1)*%
X86410800Y-136892600D03*
%TD*%
D13*
%TO.N,unconnected-(H1-Pad1)*%
%TO.C,H1*%
X153466800Y-184009600D03*
%TD*%
D10*
%TO.N,GNDD*%
%TO.C,R26*%
X142290800Y-145096800D03*
D11*
%TO.N,Net-(C26-Pad2)*%
X142290800Y-152716800D03*
%TD*%
D10*
%TO.N,/sound/SP+*%
%TO.C,C6*%
X135541550Y-172757400D03*
%TO.N,Net-(U1-IN)*%
X135541550Y-167757400D03*
%TD*%
%TO.N,Net-(C1-Pad1)*%
%TO.C,R2*%
X76250800Y-133717600D03*
D11*
%TO.N,/GLUE/~{RESET_SW}*%
X86410800Y-133717600D03*
%TD*%
D31*
%TO.N,*%
%TO.C,SW3*%
X71011800Y-134113400D03*
X71011800Y-142313400D03*
D32*
%TO.N,/controller/ex_disable*%
X71011800Y-136213400D03*
D33*
%TO.N,GNDD*%
X71011800Y-138213400D03*
%TO.N,/controller/in_disable*%
X71011800Y-140213400D03*
%TD*%
D10*
%TO.N,+5P*%
%TO.C,C12*%
X106908600Y-57249000D03*
%TO.N,GNDD*%
X106908600Y-52249000D03*
%TD*%
%TO.N,/GLUE/TMS*%
%TO.C,R15*%
X82778600Y-129399600D03*
D11*
%TO.N,+5V*%
X82778600Y-119239600D03*
%TD*%
D10*
%TO.N,+5V*%
%TO.C,C11*%
X77901800Y-150978800D03*
%TO.N,GNDD*%
X77901800Y-155978800D03*
%TD*%
D14*
%TO.N,+5V*%
%TO.C,C30*%
X130697087Y-85533800D03*
D10*
%TO.N,GNDD*%
X133197087Y-85533800D03*
%TD*%
D18*
%TO.N,Net-(J10-Pin_1)*%
%TO.C,J10*%
X87426800Y-141972600D03*
D16*
%TO.N,GNDD*%
X84886800Y-141972600D03*
%TD*%
D10*
%TO.N,Net-(U1-IN)*%
%TO.C,R25*%
X138760200Y-167474200D03*
D11*
%TO.N,/sound/SP+*%
X138760200Y-175094200D03*
%TD*%
D10*
%TO.N,/GLUE/C2P9*%
%TO.C,C21*%
X155244800Y-102490200D03*
%TO.N,GNDD*%
X155244800Y-107490200D03*
%TD*%
D34*
%TO.N,/GLUE/D2*%
%TO.C,J4*%
X130073400Y-103567800D03*
%TO.N,/GLUE/~{CS_hC000}*%
X130073400Y-98741800D03*
%TO.N,/GLUE/D1*%
X127533400Y-103567800D03*
%TO.N,/GLUE/D3*%
X127533400Y-98741800D03*
%TO.N,/GLUE/D0*%
X124993400Y-103567800D03*
%TO.N,/GLUE/D4*%
X124993400Y-98741800D03*
%TO.N,/GLUE/A0*%
X122453400Y-103567800D03*
%TO.N,/GLUE/D5*%
X122453400Y-98741800D03*
%TO.N,/GLUE/A1*%
X119913400Y-103567800D03*
%TO.N,/GLUE/D6*%
X119913400Y-98741800D03*
%TO.N,/GLUE/A2*%
X117373400Y-103567800D03*
%TO.N,/GLUE/D7*%
X117373400Y-98741800D03*
%TO.N,GND*%
X114833400Y-103567800D03*
%TO.N,/GLUE/A11*%
X114833400Y-98741800D03*
%TO.N,/GLUE/A3*%
X112293400Y-103567800D03*
%TO.N,/GLUE/A10*%
X112293400Y-98741800D03*
%TO.N,/GLUE/A4*%
X109753400Y-103567800D03*
%TO.N,/GLUE/~{CS_h8000}*%
X109753400Y-98741800D03*
%TO.N,/GLUE/A13*%
X107213400Y-103567800D03*
%TO.N,/GLUE/A14*%
X107213400Y-98741800D03*
%TO.N,/GLUE/A5*%
X104673400Y-103567800D03*
%TO.N,/GLUE/~{CS_hA000}*%
X104673400Y-98741800D03*
%TO.N,/GLUE/A6*%
X102133400Y-103567800D03*
%TO.N,/GLUE/A12*%
X102133400Y-98741800D03*
%TO.N,/GLUE/A7*%
X99593400Y-103567800D03*
%TO.N,/GLUE/A9*%
X99593400Y-98741800D03*
%TO.N,/GLUE/~{CS_hE000}*%
X97053400Y-103567800D03*
%TO.N,/GLUE/A8*%
X97053400Y-98741800D03*
%TO.N,GNDD*%
X94513400Y-103567800D03*
%TO.N,+5V*%
X94513400Y-98741800D03*
D35*
%TO.N,N/C*%
X138643400Y-101166800D03*
X85943400Y-101166800D03*
%TD*%
D10*
%TO.N,+5VD*%
%TO.C,C23*%
X146314800Y-130999800D03*
%TO.N,GNDD*%
X141314800Y-130999800D03*
%TD*%
%TO.N,+5V*%
%TO.C,C29*%
X127290200Y-86854600D03*
%TO.N,GNDD*%
X122290200Y-86854600D03*
%TD*%
D36*
%TO.N,unconnected-(SW2-A-Pad1)*%
%TO.C,SW2*%
X72515500Y-176189600D03*
%TO.N,Net-(J10-Pin_1)*%
X77215500Y-176189600D03*
%TO.N,+5V*%
X81915500Y-176189600D03*
%TO.N,N/C*%
X70610500Y-185719600D03*
X83820500Y-185719600D03*
%TD*%
D14*
%TO.N,GNDD*%
%TO.C,U8*%
X83362800Y-58736800D03*
D11*
%TO.N,/video/R7*%
X85902800Y-58736800D03*
%TO.N,/video/R6*%
X88442800Y-58736800D03*
%TO.N,/video/RnW*%
X90982800Y-58736800D03*
%TO.N,/video/nRAS*%
X93522800Y-58736800D03*
%TO.N,/video/AD1*%
X96062800Y-58736800D03*
%TO.N,/video/AD2*%
X98602800Y-58736800D03*
%TO.N,/video/AD3*%
X101142800Y-58736800D03*
%TO.N,+5P*%
X103682800Y-58736800D03*
%TO.N,/video/AD0*%
X103682800Y-51116800D03*
%TO.N,/video/AD4*%
X101142800Y-51116800D03*
%TO.N,/video/AD5*%
X98602800Y-51116800D03*
%TO.N,/video/AD6*%
X96062800Y-51116800D03*
%TO.N,/video/AD7*%
X93522800Y-51116800D03*
%TO.N,/video/R5*%
X90982800Y-51116800D03*
%TO.N,/video/nCAS*%
X88442800Y-51116800D03*
%TO.N,/video/R4*%
X85902800Y-51116800D03*
%TO.N,GNDD*%
X83362800Y-51116800D03*
%TD*%
D14*
%TO.N,+5VD*%
%TO.C,C5*%
X124148600Y-162459088D03*
D10*
%TO.N,GNDD*%
X124148600Y-164959088D03*
%TD*%
%TO.N,Net-(C1-Pad1)*%
%TO.C,C1*%
X89204800Y-130284800D03*
%TO.N,GNDD*%
X89204800Y-125284800D03*
%TD*%
D37*
%TO.N,Net-(J3-In)*%
%TO.C,Q1*%
X142671800Y-59490800D03*
D12*
%TO.N,Net-(Q1-B)*%
X140131800Y-62030800D03*
%TO.N,+5VP*%
X137591800Y-59490800D03*
%TD*%
D14*
%TO.N,Net-(C26-Pad1)*%
%TO.C,C26*%
X139979400Y-163664200D03*
D10*
%TO.N,Net-(C26-Pad2)*%
X141979400Y-163664200D03*
%TD*%
%TO.N,Net-(Q1-B)*%
%TO.C,R11*%
X134874000Y-64858200D03*
D11*
%TO.N,GNDD*%
X142494000Y-64858200D03*
%TD*%
D10*
%TO.N,/sound/HP_BTL*%
%TO.C,R4*%
X141876150Y-175108800D03*
D11*
%TO.N,Net-(U1-SE{slash}~{BTL})*%
X141876150Y-167488800D03*
%TD*%
D23*
%TO.N,/GLUE/C1P1*%
%TO.C,J1*%
X83789600Y-86981600D03*
D24*
%TO.N,/GLUE/C1P2*%
X86329600Y-86981600D03*
%TO.N,/GLUE/C1P3*%
X88869600Y-86981600D03*
%TO.N,/GLUE/C1P4*%
X91409600Y-86981600D03*
%TO.N,/controller/in_ARM*%
X93949600Y-86981600D03*
%TO.N,/GLUE/C1P6*%
X96489600Y-86981600D03*
%TO.N,/controller/in_FIRE*%
X99029600Y-86981600D03*
%TD*%
D14*
%TO.N,/GLUE/D5*%
%TO.C,U2*%
X153924000Y-120595800D03*
D11*
%TO.N,/GLUE/D6*%
X151384000Y-120595800D03*
%TO.N,/GLUE/D7*%
X148844000Y-120595800D03*
%TO.N,/GLUE/~{WAIT}*%
X146304000Y-120595800D03*
%TO.N,/GLUE/~{SND_ENABLE}*%
X143764000Y-120595800D03*
X141224000Y-120595800D03*
%TO.N,Net-(U2-OUT)*%
X138684000Y-120595800D03*
%TO.N,GNDD*%
X136144000Y-120595800D03*
%TO.N,unconnected-(U2-N.C.-Pad9)*%
X136144000Y-128215800D03*
%TO.N,/GLUE/D0*%
X138684000Y-128215800D03*
%TO.N,/GLUE/D1*%
X141224000Y-128215800D03*
%TO.N,/GLUE/D2*%
X143764000Y-128215800D03*
%TO.N,/GLUE/D3*%
X146304000Y-128215800D03*
%TO.N,/GLUE/CLK*%
X148844000Y-128215800D03*
%TO.N,/GLUE/D4*%
X151384000Y-128215800D03*
%TO.N,+5VD*%
X153924000Y-128215800D03*
%TD*%
D10*
%TO.N,+5VP*%
%TO.C,C13*%
X150433400Y-54545800D03*
%TO.N,GNDD*%
X155433400Y-54545800D03*
%TD*%
D14*
%TO.N,/sound/SP+*%
%TO.C,C2*%
X152273000Y-170100749D03*
D10*
%TO.N,/sound/HP+*%
X152273000Y-175100749D03*
%TD*%
D38*
%TO.N,GNDD*%
X84505800Y-179183600D03*
X88737400Y-179056600D03*
X99888540Y-180077600D03*
X127939800Y-171589000D03*
X98418197Y-175060943D03*
X105217540Y-179945600D03*
X122250200Y-124954600D03*
X79933800Y-89521600D03*
X110551540Y-179818600D03*
X81711800Y-100443600D03*
X94398172Y-179070228D03*
X109236904Y-175306327D03*
X103566540Y-175246600D03*
X111785400Y-129933000D03*
%TO.N,+5V*%
X77582340Y-91949260D03*
X117271800Y-141007400D03*
D39*
%TO.N,/GLUE/C5_ARM*%
X89662000Y-112889600D03*
X82575400Y-92798200D03*
X86222634Y-105762566D03*
%TO.N,/GLUE/C1P7*%
X74650101Y-82542320D03*
%TO.N,/GLUE/C1P6*%
X73685400Y-82511200D03*
%TO.N,/GLUE/C8_FIRE*%
X99364800Y-109297100D03*
%TO.N,/GLUE/C1P9*%
X113774543Y-111887900D03*
%TO.N,/GLUE/TCK*%
X96538313Y-121756618D03*
%TO.N,/GLUE/TDO*%
X105079800Y-118555900D03*
X118160800Y-118604600D03*
%TO.N,/GLUE/TMS*%
X92710574Y-131197630D03*
%TO.N,/GLUE/~{INT}*%
X117906800Y-133666800D03*
%TO.N,/GLUE/CLK*%
X140497766Y-122170966D03*
X130722085Y-110398093D03*
%TO.N,/GLUE/~{RESET}*%
X110032800Y-133539800D03*
%TO.N,/GLUE/~{RAM_CS}*%
X116611400Y-148144800D03*
%TO.N,/GLUE/~{ROM_ENABLE}*%
X98044000Y-153097800D03*
%TO.N,/cpu/~{NMI}*%
X89725600Y-78472600D03*
X124355162Y-127289418D03*
X118033800Y-129856800D03*
%TO.N,/GLUE/D4*%
X129286000Y-101027800D03*
X129184400Y-150049800D03*
%TO.N,/GLUE/D3*%
X123875800Y-131380800D03*
X125450600Y-130745800D03*
X128473396Y-150735600D03*
%TO.N,/GLUE/D5*%
X127228600Y-149872000D03*
%TO.N,/GLUE/D6*%
X123571000Y-149237000D03*
X115620800Y-133452500D03*
%TO.N,/GLUE/D2*%
X118033794Y-146235693D03*
%TO.N,/GLUE/D7*%
X121970800Y-148551200D03*
X127838200Y-106260200D03*
%TO.N,/GLUE/D0*%
X115925600Y-152437400D03*
X121894600Y-152843800D03*
X115747800Y-146239800D03*
%TO.N,/GLUE/D1*%
X117068600Y-146239800D03*
X120878600Y-152107200D03*
X117170200Y-151726200D03*
%TO.N,/GLUE/A0*%
X101828600Y-95389000D03*
%TO.N,/GLUE/A10*%
X113472540Y-178294600D03*
X103013860Y-122530500D03*
%TO.N,/GLUE/A11*%
X108265540Y-178294600D03*
X103555300Y-121692800D03*
%TO.N,/GLUE/A12*%
X94180400Y-155442100D03*
%TO.N,/GLUE/A13*%
X84646488Y-163474688D03*
X102804540Y-178548600D03*
%TO.N,/GLUE/C2P4*%
X134012493Y-113145373D03*
%TO.N,/GLUE/C2P1*%
X134899400Y-115759800D03*
%TO.N,/GLUE/C2P2*%
X134899400Y-114794597D03*
%TO.N,/GLUE/C2P3*%
X134793194Y-113835255D03*
%TO.N,/GLUE/C2P7*%
X132665203Y-111798083D03*
%TO.N,/GLUE/C2P6*%
X133503606Y-112325221D03*
%TO.N,/GLUE/C2P9*%
X138303000Y-109968600D03*
X132690966Y-110760495D03*
%TO.N,/controller/ex_ARM*%
X112318800Y-90664600D03*
X85242400Y-90740800D03*
X138480800Y-90664600D03*
X108889800Y-90664600D03*
X78409800Y-96709800D03*
%TO.N,/controller/ex_FIRE*%
X109397800Y-91553600D03*
X113715800Y-91553600D03*
X139496800Y-91553600D03*
X84150200Y-90766200D03*
%TO.N,/controller/in_disable*%
X79273400Y-94625149D03*
%TO.N,/controller/ex_disable*%
X77654281Y-93217223D03*
%TO.N,/storage/ram_mirror*%
X83489800Y-164197600D03*
X89712800Y-177659597D03*
X99502540Y-181291800D03*
X94259400Y-154113800D03*
%TD*%
D40*
%TO.N,Net-(L1-Pad1)*%
X129870200Y-157873000D02*
X131775200Y-157873000D01*
X131775200Y-157873000D02*
X132105400Y-158203200D01*
%TO.N,+5VA*%
X145043450Y-167412600D02*
X145043450Y-164652620D01*
X145043450Y-164652620D02*
X139725400Y-159334570D01*
X139725400Y-159334570D02*
X139725400Y-158203200D01*
%TO.N,+5VD*%
X124148600Y-162306688D02*
X124129800Y-162287888D01*
X124129800Y-162287888D02*
X124129800Y-155790200D01*
X124129800Y-155790200D02*
X125907800Y-154012200D01*
X125907800Y-154012200D02*
X129870200Y-154012200D01*
%TO.N,+5V*%
X118459000Y-162306688D02*
X118459000Y-162565400D01*
X118459000Y-162565400D02*
X121589800Y-165696200D01*
X121589800Y-165696200D02*
X121589800Y-168185400D01*
X119710200Y-157873000D02*
X119710200Y-161055488D01*
X119710200Y-161055488D02*
X118459000Y-162306688D01*
%TO.N,+5VD*%
X146253200Y-133616000D02*
X144970600Y-134898600D01*
X144970600Y-134898600D02*
X137604600Y-134898600D01*
X137604600Y-134898600D02*
X131953000Y-140550200D01*
X131953000Y-140550200D02*
X131953000Y-151929400D01*
X131953000Y-151929400D02*
X129870200Y-154012200D01*
%TO.N,+5P*%
X144348200Y-47230600D02*
X141655471Y-47230600D01*
X141655471Y-47230600D02*
X134772400Y-54113671D01*
X134772400Y-54113671D02*
X134772400Y-57299800D01*
%TO.N,+5VP*%
X144348200Y-54850600D02*
X142232000Y-54850600D01*
X142232000Y-54850600D02*
X137591800Y-59490800D01*
X150433400Y-54545800D02*
X149481000Y-53593400D01*
X149481000Y-53593400D02*
X145605400Y-53593400D01*
X145605400Y-53593400D02*
X144348200Y-54850600D01*
%TO.N,+5V*%
X127533400Y-125807100D02*
X125744300Y-125807100D01*
X70535800Y-113143600D02*
X71170800Y-112508600D01*
X114681000Y-141898811D02*
X115572411Y-141007400D01*
X71531419Y-132193600D02*
X69462200Y-130124381D01*
X131089400Y-124638700D02*
X128727200Y-127000900D01*
X86141400Y-148256400D02*
X85140800Y-147255800D01*
X154787600Y-116394800D02*
X153085800Y-118096600D01*
X103301800Y-111949800D02*
X101981000Y-113270600D01*
X92964000Y-134632000D02*
X88671400Y-138924600D01*
X103606600Y-89648600D02*
X124993400Y-89648600D01*
X87109401Y-117982199D02*
X85826600Y-119265000D01*
X121437400Y-146595400D02*
X124372700Y-146595400D01*
X74345800Y-134606600D02*
X74345800Y-133463600D01*
X91935401Y-117982199D02*
X87109401Y-117982199D01*
X81203800Y-141464600D02*
X74345800Y-134606600D01*
X87706200Y-91934600D02*
X94513400Y-98741800D01*
X128611000Y-85533800D02*
X130697087Y-85533800D01*
X79756000Y-119214200D02*
X76479400Y-115937600D01*
X107213400Y-143587100D02*
X107213400Y-145275389D01*
X77901800Y-150978800D02*
X80924800Y-150978800D01*
X98247200Y-134620900D02*
X99441000Y-135814700D01*
X101309500Y-135814700D02*
X105867200Y-140372400D01*
X86995000Y-171233400D02*
X89372200Y-171233400D01*
X101981000Y-115647100D02*
X100787200Y-116840900D01*
X126187200Y-144780900D02*
X129347900Y-144780900D01*
X127290200Y-87351800D02*
X127290200Y-86854600D01*
X124993400Y-89648600D02*
X127290200Y-87351800D01*
X79806800Y-119265000D02*
X79756000Y-119214200D01*
X81203800Y-141992600D02*
X81203800Y-141464600D01*
X130784600Y-129058300D02*
X128727200Y-127000900D01*
X86212600Y-171233400D02*
X81061400Y-166082200D01*
X94513400Y-98741800D02*
X94513400Y-99351400D01*
X94513400Y-98741800D02*
X103606600Y-89648600D01*
X86995000Y-171233400D02*
X86212600Y-171233400D01*
X105867200Y-140372400D02*
X105867200Y-142240900D01*
X93649800Y-116267800D02*
X91935401Y-117982199D01*
X119710200Y-154012200D02*
X119710200Y-148322600D01*
X81061400Y-150842200D02*
X86141400Y-150842200D01*
X99441000Y-135814700D02*
X101309500Y-135814700D01*
X112282300Y-145985800D02*
X113487200Y-144780900D01*
X92176600Y-114794600D02*
X93649800Y-116267800D01*
X123647200Y-123710000D02*
X123647200Y-116840900D01*
X129347900Y-144780900D02*
X130784600Y-143344200D01*
X74345800Y-133463600D02*
X73075800Y-132193600D01*
X69462200Y-117011200D02*
X70535800Y-115937600D01*
X80924800Y-150978800D02*
X81061400Y-150842200D01*
X94513400Y-99351400D02*
X92176600Y-101688200D01*
X92964000Y-134632000D02*
X98236100Y-134632000D01*
X86141400Y-150842200D02*
X86141400Y-148256400D01*
X127290200Y-86854600D02*
X128611000Y-85533800D01*
X124841000Y-143434700D02*
X126187200Y-144780900D01*
X98236100Y-134632000D02*
X98247200Y-134620900D01*
X127990600Y-86154200D02*
X127990600Y-83349400D01*
X81061400Y-166082200D02*
X81061400Y-150842200D01*
X119710200Y-148322600D02*
X121437400Y-146595400D01*
X130784600Y-143344200D02*
X130784600Y-129058300D01*
X81915500Y-176189600D02*
X86871700Y-171233400D01*
X69462200Y-130124381D02*
X69462200Y-128365000D01*
X69462200Y-128365000D02*
X70794800Y-127032400D01*
X153085800Y-118096600D02*
X134493000Y-118096600D01*
X70535800Y-115937600D02*
X70535800Y-113143600D01*
X100787200Y-116840900D02*
X99593400Y-115647100D01*
X114681000Y-143587100D02*
X114681000Y-141898811D01*
X76479400Y-115937600D02*
X70535800Y-115937600D01*
X88671400Y-138924600D02*
X84271800Y-138924600D01*
X134493000Y-118096600D02*
X131089400Y-121500200D01*
X107213400Y-145275389D02*
X107923811Y-145985800D01*
X84271800Y-138924600D02*
X81203800Y-141992600D01*
X92176600Y-101688200D02*
X92176600Y-114794600D01*
X124101989Y-141007400D02*
X124841000Y-141746411D01*
X113487200Y-144780900D02*
X114681000Y-143587100D01*
X89372200Y-171233400D02*
X89799000Y-170806600D01*
X154787600Y-112508600D02*
X154787600Y-116394800D01*
X85826600Y-119265000D02*
X79806800Y-119265000D01*
X124372700Y-146595400D02*
X126187200Y-144780900D01*
X105867200Y-142240900D02*
X107213400Y-143587100D01*
X85521800Y-147255800D02*
X90551000Y-142226600D01*
X90551000Y-142226600D02*
X90551000Y-137045000D01*
X90551000Y-137045000D02*
X92964000Y-134632000D01*
X86871700Y-171233400D02*
X86995000Y-171233400D01*
X70794800Y-127032400D02*
X69462200Y-125699800D01*
X107923811Y-145985800D02*
X112282300Y-145985800D01*
X131089400Y-121500200D02*
X131089400Y-124638700D01*
X85140800Y-147255800D02*
X85521800Y-147255800D01*
X73075800Y-132193600D02*
X71531419Y-132193600D01*
X94270500Y-115647100D02*
X93649800Y-116267800D01*
X119710200Y-157873000D02*
X119710200Y-154012200D01*
X110947200Y-114300900D02*
X108596100Y-111949800D01*
X108596100Y-111949800D02*
X103301800Y-111949800D01*
X77597000Y-91934600D02*
X87706200Y-91934600D01*
X124841000Y-141746411D02*
X124841000Y-143434700D01*
X99593400Y-115647100D02*
X94270500Y-115647100D01*
X101981000Y-113270600D02*
X101981000Y-115647100D01*
X69462200Y-125699800D02*
X69462200Y-117011200D01*
X127290200Y-86854600D02*
X127990600Y-86154200D01*
X115572411Y-141007400D02*
X124101989Y-141007400D01*
X128727200Y-127000900D02*
X127533400Y-125807100D01*
X77582340Y-91949260D02*
X77597000Y-91934600D01*
X125744300Y-125807100D02*
X123647200Y-123710000D01*
%TO.N,Net-(J10-Pin_1)*%
X87426800Y-142861600D02*
X84759800Y-145528600D01*
X76377800Y-161479800D02*
X78003400Y-163105400D01*
X79933800Y-145528600D02*
X76377800Y-149084600D01*
X78003400Y-175401700D02*
X77215500Y-176189600D01*
X78003400Y-163105400D02*
X78003400Y-175401700D01*
X84759800Y-145528600D02*
X79933800Y-145528600D01*
X76377800Y-149084600D02*
X76377800Y-161479800D01*
%TO.N,+5VA*%
X130723000Y-178371312D02*
X132322688Y-179971000D01*
X130723000Y-175653000D02*
X130723000Y-178371312D01*
%TO.N,+5VD*%
X153934800Y-130999800D02*
X153934800Y-128226600D01*
X153934800Y-128226600D02*
X153924000Y-128215800D01*
X146314800Y-130999800D02*
X147597400Y-129717200D01*
X147597400Y-129717200D02*
X152652200Y-129717200D01*
X146253200Y-131061400D02*
X146314800Y-130999800D01*
X146253200Y-133616000D02*
X146253200Y-131061400D01*
X152652200Y-129717200D02*
X153934800Y-130999800D01*
%TO.N,+5P*%
X117830600Y-83349400D02*
X116328200Y-83349400D01*
X106908600Y-57249000D02*
X105170600Y-57249000D01*
X134772400Y-57299800D02*
X132831200Y-57299800D01*
X133172200Y-60514800D02*
X131394200Y-58736800D01*
X133172200Y-66991800D02*
X133172200Y-60514800D01*
X131394200Y-58736800D02*
X128625600Y-61505400D01*
X116328200Y-83349400D02*
X115087400Y-82108600D01*
X132831200Y-57299800D02*
X131394200Y-58736800D01*
X105170600Y-57249000D02*
X103682800Y-58736800D01*
X115087400Y-80936400D02*
X113842800Y-79691800D01*
X131800600Y-68363400D02*
X133172200Y-66991800D01*
X128625600Y-61505400D02*
X111165000Y-61505400D01*
X125171200Y-68363400D02*
X131800600Y-68363400D01*
X113842800Y-79691800D02*
X125171200Y-68363400D01*
X111165000Y-61505400D02*
X106908600Y-57249000D01*
X115087400Y-82108600D02*
X115087400Y-80936400D01*
%TD*%
M02*
