M48
; DRILL file {KiCad 7.0.11-7.0.11~ubuntu22.04.1} date Sat 05 Oct 2024 06:33:05 PM EDT
; FORMAT={-:-/ absolute / metric / decimal}
; #@! TF.CreationDate,2024-10-05T18:33:05-04:00
; #@! TF.GenerationSoftware,Kicad,Pcbnew,7.0.11-7.0.11~ubuntu22.04.1
; #@! TF.FileFunction,MixedPlating,1,4
FMAT,2
METRIC
; #@! TA.AperFunction,Plated,PTH,ViaDrill
T1C0.356
; #@! TA.AperFunction,Plated,PTH,ViaDrill
T2C0.559
; #@! TA.AperFunction,Plated,PTH,ComponentDrill
T3C0.750
; #@! TA.AperFunction,Plated,PTH,ComponentDrill
T4C0.800
; #@! TA.AperFunction,Plated,PTH,ComponentDrill
T5C0.900
; #@! TA.AperFunction,Plated,PTH,ComponentDrill
T6C1.000
; #@! TA.AperFunction,Plated,PTH,ComponentDrill
T7C1.100
; #@! TA.AperFunction,Plated,PTH,ComponentDrill
T8C1.190
; #@! TA.AperFunction,Plated,PTH,ComponentDrill
T9C1.194
; #@! TA.AperFunction,Plated,PTH,ComponentDrill
T10C1.250
; #@! TA.AperFunction,Plated,PTH,ComponentDrill
T11C1.300
; #@! TA.AperFunction,Plated,PTH,ComponentDrill
T12C1.400
; #@! TA.AperFunction,Plated,PTH,ComponentDrill
T13C1.850
; #@! TA.AperFunction,Plated,PTH,ComponentDrill
T14C3.200
; #@! TA.AperFunction,Plated,PTH,ComponentDrill
T15C3.250
%
G90
G05
T1
X73.685Y-82.511
X74.65Y-82.542
X77.654Y-93.217
X78.41Y-96.71
X79.273Y-94.625
X82.575Y-92.798
X84.15Y-90.766
X84.646Y-163.475
X85.242Y-90.741
X86.223Y-105.763
X89.662Y-112.89
X89.726Y-78.473
X92.711Y-131.198
X94.18Y-155.442
X96.538Y-121.757
X98.984Y-152.717
X99.365Y-109.297
X101.829Y-95.389
X103.014Y-122.53
X103.555Y-121.693
X108.89Y-90.665
X109.398Y-91.554
X112.319Y-90.665
X113.716Y-91.554
X113.775Y-111.888
X115.621Y-133.452
X115.748Y-146.24
X115.926Y-152.437
X116.611Y-148.145
X117.069Y-146.24
X117.17Y-151.726
X117.907Y-133.667
X118.034Y-146.236
X118.034Y-129.857
X120.879Y-152.107
X121.895Y-152.844
X121.971Y-148.551
X123.571Y-149.237
X123.876Y-131.381
X124.355Y-127.289
X125.451Y-130.746
X127.229Y-149.872
X127.838Y-106.26
X128.473Y-150.736
X129.184Y-150.05
X129.286Y-101.028
X130.722Y-110.398
X132.665Y-111.798
X132.691Y-110.76
X133.504Y-112.325
X134.012Y-113.145
X134.793Y-113.835
X134.899Y-114.795
X134.899Y-115.76
X138.481Y-90.665
X139.497Y-91.554
X140.498Y-122.171
T2
X77.582Y-91.949
X79.934Y-89.522
X81.712Y-100.444
X111.785Y-129.933
X117.272Y-141.007
X122.25Y-124.955
X127.94Y-171.589
T4
X70.079Y-89.928
X70.079Y-100.088
X70.129Y-102.581
X70.129Y-107.581
X71.171Y-112.509
X73.711Y-112.509
X74.981Y-147.256
X76.251Y-112.509
X76.271Y-130.03
X76.708Y-117.131
X76.708Y-127.291
X77.902Y-150.979
X77.902Y-155.979
X78.41Y-133.159
X78.791Y-112.509
X79.756Y-117.131
X79.756Y-127.291
X81.061Y-150.842
X81.061Y-166.082
X81.331Y-112.509
X81.995Y-171.233
X82.779Y-117.157
X82.779Y-127.317
X83.363Y-51.117
X83.363Y-58.737
X83.363Y-64.452
X83.363Y-79.692
X83.601Y-150.842
X83.601Y-166.082
X83.871Y-112.509
X85.141Y-147.256
X85.852Y-117.182
X85.852Y-127.342
X85.903Y-51.117
X85.903Y-58.737
X85.903Y-64.452
X85.903Y-79.692
X86.141Y-150.842
X86.141Y-166.082
X86.411Y-112.509
X86.431Y-130.03
X86.995Y-171.233
X88.443Y-51.117
X88.443Y-58.737
X88.443Y-64.452
X88.443Y-79.692
X88.57Y-133.159
X88.65Y-116.268
X88.681Y-150.842
X88.681Y-166.082
X89.205Y-125.285
X89.205Y-130.285
X89.799Y-170.807
X89.799Y-186.047
X90.983Y-51.117
X90.983Y-58.737
X90.983Y-64.452
X90.983Y-79.692
X91.221Y-150.842
X91.221Y-166.082
X92.339Y-170.807
X92.339Y-186.047
X92.964Y-134.632
X92.964Y-139.632
X93.523Y-51.117
X93.523Y-58.737
X93.523Y-64.452
X93.523Y-79.692
X93.65Y-116.268
X93.761Y-150.842
X93.761Y-166.082
X94.879Y-170.807
X94.879Y-186.047
X96.063Y-51.117
X96.063Y-58.737
X96.063Y-64.452
X96.063Y-79.692
X96.301Y-150.842
X96.301Y-166.082
X97.419Y-170.807
X97.419Y-186.047
X98.247Y-116.841
X98.247Y-119.381
X98.247Y-121.921
X98.247Y-124.461
X98.247Y-127.001
X98.247Y-129.541
X98.247Y-132.081
X98.247Y-134.621
X98.247Y-137.161
X98.247Y-139.701
X98.247Y-142.241
X98.603Y-51.117
X98.603Y-58.737
X98.603Y-64.452
X98.603Y-79.692
X98.841Y-150.842
X98.841Y-166.082
X99.959Y-170.807
X99.959Y-186.047
X100.787Y-114.301
X100.787Y-116.841
X100.787Y-119.381
X100.787Y-121.921
X100.787Y-124.461
X100.787Y-127.001
X100.787Y-129.541
X100.787Y-132.081
X100.787Y-134.621
X100.787Y-137.161
X100.787Y-139.701
X100.787Y-142.241
X100.787Y-144.781
X101.143Y-51.117
X101.143Y-58.737
X101.143Y-64.452
X101.143Y-79.692
X101.381Y-150.842
X101.381Y-166.082
X102.499Y-170.807
X102.499Y-186.047
X103.327Y-114.301
X103.327Y-116.841
X103.327Y-142.241
X103.327Y-144.781
X103.683Y-51.117
X103.683Y-58.737
X103.683Y-64.452
X103.683Y-79.692
X103.921Y-150.842
X103.921Y-166.082
X105.039Y-170.807
X105.039Y-186.047
X105.867Y-114.301
X105.867Y-116.841
X105.867Y-142.241
X105.867Y-144.781
X106.223Y-64.452
X106.223Y-79.692
X106.461Y-150.842
X106.461Y-166.082
X106.909Y-52.249
X106.909Y-57.249
X107.579Y-170.807
X107.579Y-186.047
X108.407Y-114.301
X108.407Y-116.841
X108.407Y-142.241
X108.407Y-144.781
X108.763Y-64.452
X108.763Y-79.692
X109.001Y-150.842
X109.001Y-166.082
X110.119Y-170.807
X110.119Y-186.047
X110.947Y-114.301
X110.947Y-116.841
X110.947Y-142.241
X110.947Y-144.781
X111.074Y-51.117
X111.074Y-58.737
X111.303Y-64.452
X111.303Y-79.692
X111.541Y-150.842
X111.541Y-166.082
X112.659Y-170.807
X112.659Y-186.047
X113.487Y-114.301
X113.487Y-116.841
X113.487Y-142.241
X113.487Y-144.781
X113.614Y-51.117
X113.614Y-58.737
X113.843Y-64.452
X113.843Y-79.692
X114.081Y-150.842
X114.081Y-166.082
X115.087Y-82.109
X115.087Y-87.109
X115.199Y-170.807
X115.199Y-186.047
X116.027Y-114.301
X116.027Y-116.841
X116.027Y-142.241
X116.027Y-144.781
X116.154Y-51.117
X116.154Y-58.737
X116.383Y-64.452
X116.383Y-79.692
X117.739Y-170.807
X117.739Y-186.047
X117.831Y-83.349
X118.44Y-161.545
X118.44Y-164.045
X118.567Y-114.301
X118.567Y-116.841
X118.567Y-142.241
X118.567Y-144.781
X118.694Y-51.117
X118.694Y-58.737
X118.923Y-64.452
X118.923Y-79.692
X119.71Y-154.012
X119.71Y-157.873
X120.279Y-170.807
X120.279Y-186.047
X121.107Y-114.301
X121.107Y-116.841
X121.107Y-142.241
X121.107Y-144.781
X121.234Y-51.117
X121.234Y-58.737
X121.463Y-64.452
X121.463Y-79.692
X121.59Y-168.185
X122.29Y-86.855
X122.819Y-170.807
X122.819Y-186.047
X123.647Y-114.301
X123.647Y-116.841
X123.647Y-142.241
X123.647Y-144.781
X123.774Y-51.117
X123.774Y-58.737
X124.003Y-64.452
X124.003Y-79.692
X124.13Y-161.545
X124.13Y-164.045
X126.187Y-114.301
X126.187Y-116.841
X126.187Y-119.381
X126.187Y-121.921
X126.187Y-124.461
X126.187Y-127.001
X126.187Y-129.541
X126.187Y-132.081
X126.187Y-134.621
X126.187Y-137.161
X126.187Y-139.701
X126.187Y-142.241
X126.187Y-144.781
X126.314Y-51.117
X126.314Y-58.737
X126.543Y-64.452
X126.543Y-79.692
X126.59Y-168.185
X127.29Y-86.855
X127.991Y-83.349
X128.346Y-47.281
X128.727Y-116.841
X128.727Y-119.381
X128.727Y-121.921
X128.727Y-124.461
X128.727Y-127.001
X128.727Y-129.541
X128.727Y-132.081
X128.727Y-134.621
X128.727Y-137.161
X128.727Y-139.701
X128.727Y-142.241
X128.854Y-51.117
X128.854Y-58.737
X129.083Y-64.452
X129.083Y-79.692
X129.718Y-161.705
X129.718Y-163.705
X129.87Y-154.012
X129.87Y-157.873
X130.697Y-85.534
X130.723Y-175.653
X131.394Y-51.117
X131.394Y-58.737
X131.623Y-64.452
X131.623Y-79.692
X132.055Y-154.622
X132.055Y-157.975
X132.323Y-179.971
X133.197Y-85.534
X133.655Y-144.208
X133.655Y-151.828
X134.772Y-52.3
X134.772Y-57.3
X134.823Y-179.971
X134.874Y-64.858
X134.874Y-68.414
X135.357Y-161.705
X135.357Y-163.705
X135.542Y-167.757
X135.542Y-172.757
X135.723Y-175.653
X135.966Y-47.281
X136.093Y-133.616
X136.093Y-141.236
X136.144Y-73.799
X136.144Y-78.679
X136.144Y-120.596
X136.144Y-128.216
X137.055Y-154.622
X137.338Y-144.208
X137.338Y-151.828
X137.592Y-59.491
X138.633Y-133.616
X138.633Y-141.236
X138.684Y-120.596
X138.684Y-128.216
X138.709Y-166.447
X138.709Y-174.067
X139.548Y-112.509
X139.675Y-157.975
X139.961Y-162.75
X140.081Y-78.747
X140.081Y-81.247
X140.132Y-62.031
X140.132Y-71.254
X140.132Y-73.754
X141.173Y-133.616
X141.173Y-141.236
X141.224Y-120.596
X141.224Y-128.216
X141.315Y-131.0
X141.876Y-167.413
X141.876Y-175.033
X141.961Y-162.75
X142.088Y-112.509
X142.316Y-150.101
X142.316Y-157.721
X142.494Y-64.858
X142.494Y-68.414
X142.672Y-59.491
X143.713Y-133.616
X143.713Y-141.236
X143.764Y-120.596
X143.764Y-128.216
X144.628Y-112.509
X145.043Y-167.413
X145.043Y-175.033
X146.253Y-133.616
X146.253Y-141.236
X146.304Y-120.596
X146.304Y-128.216
X146.315Y-131.0
X147.168Y-112.509
X147.295Y-164.528
X148.793Y-133.616
X148.793Y-141.236
X148.844Y-120.596
X148.844Y-128.216
X148.935Y-131.0
X149.708Y-112.509
X151.333Y-133.616
X151.333Y-141.236
X151.384Y-120.596
X151.384Y-128.216
X152.248Y-112.509
X152.324Y-168.221
X152.324Y-173.221
X153.873Y-133.616
X153.873Y-141.236
X153.924Y-120.596
X153.924Y-128.216
X153.935Y-131.0
X154.788Y-112.509
X154.915Y-164.528
X155.245Y-102.49
X155.245Y-107.49
X155.27Y-89.801
X155.27Y-99.961
T5
X71.012Y-136.213
X71.012Y-138.213
X71.012Y-140.213
X71.298Y-145.864
X71.298Y-148.404
T6
X70.795Y-117.33
X70.795Y-119.87
X70.795Y-122.41
X70.795Y-124.95
X70.795Y-127.49
X71.247Y-152.636
X71.247Y-157.136
X73.335Y-117.33
X73.335Y-119.87
X73.335Y-122.41
X73.335Y-124.95
X73.335Y-127.49
X76.482Y-68.657
X76.482Y-71.427
X76.482Y-74.197
X76.482Y-76.967
X79.322Y-67.272
X79.322Y-70.042
X79.322Y-72.812
X79.322Y-75.582
X79.322Y-78.352
X83.79Y-86.982
X86.33Y-86.982
X88.87Y-86.982
X91.41Y-86.982
X93.95Y-86.982
X96.49Y-86.982
X99.03Y-86.982
X145.699Y-150.515
X145.699Y-154.515
X145.699Y-158.515
X146.233Y-67.131
X146.233Y-69.901
X146.233Y-72.671
X146.233Y-75.441
X146.233Y-78.211
X149.073Y-68.516
X149.073Y-71.286
X149.073Y-74.056
X149.073Y-76.826
T7
X94.513Y-98.742
X94.513Y-103.568
X97.053Y-98.742
X97.053Y-103.568
X99.593Y-98.742
X99.593Y-103.568
X102.133Y-98.742
X102.133Y-103.568
X104.673Y-98.742
X104.673Y-103.568
X107.213Y-98.742
X107.213Y-103.568
X109.753Y-98.742
X109.753Y-103.568
X112.293Y-98.742
X112.293Y-103.568
X114.833Y-98.742
X114.833Y-103.568
X117.373Y-98.742
X117.373Y-103.568
X119.913Y-98.742
X119.913Y-103.568
X122.453Y-98.742
X122.453Y-103.568
X124.993Y-98.742
X124.993Y-103.568
X127.533Y-98.742
X127.533Y-103.568
X130.073Y-98.742
X130.073Y-103.568
T8
X77.292Y-53.276
X78.664Y-138.493
X79.832Y-53.276
X81.204Y-138.493
X84.887Y-138.473
X87.427Y-138.473
X126.365Y-180.967
X128.905Y-180.967
T9
X138.586Y-45.34
X138.586Y-47.84
X138.641Y-184.05
X138.641Y-186.55
X143.586Y-52.84
X143.641Y-179.05
X148.586Y-45.34
X148.586Y-47.84
X148.641Y-184.05
X148.641Y-186.55
T10
X71.012Y-134.113
X71.012Y-142.313
T11
X73.747Y-151.386
X73.747Y-158.386
T12
X155.699Y-149.515
X155.699Y-159.515
T13
X70.611Y-185.72
X72.516Y-176.19
X77.215Y-176.19
X81.915Y-176.19
X83.82Y-185.72
T14
X72.111Y-49.415
X73.711Y-166.052
X77.902Y-60.312
X77.902Y-85.312
X110.376Y-84.353
X147.653Y-60.171
X147.653Y-85.171
X153.441Y-49.364
X153.467Y-184.01
T15
X85.943Y-101.167
X138.643Y-101.167
T3
G00X138.586Y-53.092
M15
G01X138.586Y-52.588
M16
G05
G00X138.641Y-178.798
M15
G01X138.641Y-179.302
M16
G05
G00X141.086Y-53.092
M15
G01X141.086Y-52.588
M16
G05
G00X141.141Y-178.798
M15
G01X141.141Y-179.302
M16
G05
G00X143.334Y-47.84
M15
G01X143.838Y-47.84
M16
G05
G00X143.893Y-184.05
M15
G01X143.389Y-184.05
M16
G05
G00X146.086Y-53.092
M15
G01X146.086Y-52.588
M16
G05
G00X146.141Y-178.798
M15
G01X146.141Y-179.302
M16
G05
G00X148.586Y-53.092
M15
G01X148.586Y-52.588
M16
G05
G00X148.641Y-178.798
M15
G01X148.641Y-179.302
M16
G05
M30
