%TF.GenerationSoftware,KiCad,Pcbnew,7.0.11-7.0.11~ubuntu22.04.1*%
%TF.CreationDate,2024-05-25T12:47:59-04:00*%
%TF.ProjectId,coleco_original,636f6c65-636f-45f6-9f72-6967696e616c,DEV*%
%TF.SameCoordinates,Original*%
%TF.FileFunction,Other,User*%
%FSLAX46Y46*%
G04 Gerber Fmt 4.6, Leading zero omitted, Abs format (unit mm)*
G04 Created by KiCad (PCBNEW 7.0.11-7.0.11~ubuntu22.04.1) date 2024-05-25 12:47:59*
%MOMM*%
%LPD*%
G01*
G04 APERTURE LIST*
%ADD10C,0.050000*%
%ADD11C,0.152400*%
%ADD12C,0.100000*%
G04 APERTURE END LIST*
D10*
%TO.C,Y1*%
X138944000Y-70199000D02*
X133344000Y-70199000D01*
X133344000Y-70199000D02*
X133344000Y-82299000D01*
X138944000Y-82299000D02*
X138944000Y-70199000D01*
X133344000Y-82299000D02*
X138944000Y-82299000D01*
%TO.C,R6*%
X135837800Y-152877800D02*
X138837800Y-152877800D01*
X138837800Y-152877800D02*
X138837800Y-143157800D01*
X135837800Y-143157800D02*
X135837800Y-152877800D01*
X138837800Y-143157800D02*
X135837800Y-143157800D01*
%TO.C,C4*%
X143262800Y-168419913D02*
G75*
G03*
X137762800Y-168419913I-2750000J0D01*
G01*
X137762800Y-168419913D02*
G75*
G03*
X143262800Y-168419913I2750000J0D01*
G01*
%TO.C,H6*%
X156516800Y-51955000D02*
G75*
G03*
X150416800Y-51955000I-3050000J0D01*
G01*
X150416800Y-51955000D02*
G75*
G03*
X156516800Y-51955000I3050000J0D01*
G01*
%TO.C,U6*%
X133172800Y-63401800D02*
X81822800Y-63401800D01*
X81822800Y-63401800D02*
X81822800Y-80751800D01*
X133172800Y-80751800D02*
X133172800Y-63401800D01*
X81822800Y-80751800D02*
X133172800Y-80751800D01*
%TO.C,J3*%
X81526000Y-52657200D02*
X81526000Y-45857200D01*
X81526000Y-45857200D02*
X75446000Y-45857200D01*
X75446000Y-52657200D02*
X81526000Y-52657200D01*
X75446000Y-45857200D02*
X75446000Y-52657200D01*
%TO.C,J5*%
X81671800Y-56871600D02*
X61871800Y-56871600D01*
X61871800Y-56871600D02*
X61871800Y-88771600D01*
X81671800Y-88771600D02*
X81671800Y-56871600D01*
X61871800Y-88771600D02*
X81671800Y-88771600D01*
%TO.C,R19*%
X71578600Y-88878000D02*
X68578600Y-88878000D01*
X68578600Y-88878000D02*
X68578600Y-101138000D01*
X71578600Y-101138000D02*
X71578600Y-88878000D01*
X68578600Y-101138000D02*
X71578600Y-101138000D01*
%TO.C,R14*%
X84352000Y-128392200D02*
X87352000Y-128392200D01*
X87352000Y-128392200D02*
X87352000Y-116132200D01*
X84352000Y-116132200D02*
X84352000Y-128392200D01*
X87352000Y-116132200D02*
X84352000Y-116132200D01*
%TO.C,R22*%
X86190800Y-148755800D02*
X86190800Y-145755800D01*
X86190800Y-145755800D02*
X73930800Y-145755800D01*
X73930800Y-148755800D02*
X86190800Y-148755800D01*
X73930800Y-145755800D02*
X73930800Y-148755800D01*
%TO.C,RN1*%
X69470800Y-110858600D02*
X69470800Y-114158600D01*
X69470800Y-114158600D02*
X88120800Y-114158600D01*
X88120800Y-110858600D02*
X69470800Y-110858600D01*
X88120800Y-114158600D02*
X88120800Y-110858600D01*
%TO.C,R21*%
X73861800Y-143860800D02*
X76861800Y-143860800D01*
X76861800Y-143860800D02*
X76861800Y-131600800D01*
X73861800Y-131600800D02*
X73861800Y-143860800D01*
X76861800Y-131600800D02*
X73861800Y-131600800D01*
%TO.C,U1*%
X137665800Y-178005800D02*
X137665800Y-167305800D01*
X137665800Y-167305800D02*
X127865800Y-167305800D01*
X127865800Y-178005800D02*
X137665800Y-178005800D01*
X127865800Y-167305800D02*
X127865800Y-178005800D01*
%TO.C,H2*%
X76760800Y-166051800D02*
G75*
G03*
X70660800Y-166051800I-3050000J0D01*
G01*
X70660800Y-166051800D02*
G75*
G03*
X76760800Y-166051800I3050000J0D01*
G01*
%TO.C,U4*%
X88249000Y-187096600D02*
X124349000Y-187096600D01*
X124349000Y-187096600D02*
X124349000Y-169746600D01*
X88249000Y-169746600D02*
X88249000Y-187096600D01*
X124349000Y-169746600D02*
X88249000Y-169746600D01*
%TO.C,U7*%
X109524200Y-59836800D02*
X132924200Y-59836800D01*
X132924200Y-59836800D02*
X132924200Y-50036800D01*
X109524200Y-50036800D02*
X109524200Y-59836800D01*
X132924200Y-50036800D02*
X109524200Y-50036800D01*
%TO.C,C5*%
X134925688Y-163892800D02*
G75*
G03*
X129425688Y-163892800I-2750000J0D01*
G01*
X129425688Y-163892800D02*
G75*
G03*
X134925688Y-163892800I2750000J0D01*
G01*
D11*
%TO.C,J8*%
X137392400Y-42023202D02*
X137392400Y-56526602D01*
X137392400Y-56526602D02*
X149889200Y-56526602D01*
X149889200Y-42023202D02*
X137392400Y-42023202D01*
X149889200Y-56526602D02*
X149889200Y-42023202D01*
D10*
%TO.C,J11*%
X82973800Y-141912800D02*
X82973800Y-135112800D01*
X82973800Y-135112800D02*
X76893800Y-135112800D01*
X76893800Y-141912800D02*
X82973800Y-141912800D01*
X76893800Y-135112800D02*
X76893800Y-141912800D01*
%TO.C,C10*%
X88245000Y-172733400D02*
X88245000Y-169733400D01*
X88245000Y-169733400D02*
X80745000Y-169733400D01*
X80745000Y-172733400D02*
X88245000Y-172733400D01*
X80745000Y-169733400D02*
X80745000Y-172733400D01*
%TO.C,C20*%
X71629400Y-101331000D02*
X68629400Y-101331000D01*
X68629400Y-101331000D02*
X68629400Y-108831000D01*
X71629400Y-108831000D02*
X71629400Y-101331000D01*
X68629400Y-108831000D02*
X71629400Y-108831000D01*
D12*
%TO.C,RV1*%
X160698800Y-146514800D02*
X160698800Y-162514800D01*
X143948800Y-146514800D02*
X160698800Y-146514800D01*
X160698800Y-162514800D02*
X143948800Y-162514800D01*
X143948800Y-162514800D02*
X143948800Y-146514800D01*
D11*
%TO.C,J9*%
X159592401Y-162617400D02*
X145089001Y-162617400D01*
X145089001Y-162617400D02*
X145089001Y-175114200D01*
X159592401Y-175114200D02*
X159592401Y-162617400D01*
X145089001Y-175114200D02*
X159592401Y-175114200D01*
D10*
%TO.C,R10*%
X127270800Y-44841600D02*
X127270800Y-47841600D01*
X127270800Y-47841600D02*
X136990800Y-47841600D01*
X136990800Y-44841600D02*
X127270800Y-44841600D01*
X136990800Y-47841600D02*
X136990800Y-44841600D01*
%TO.C,R16*%
X78256000Y-128341400D02*
X81256000Y-128341400D01*
X81256000Y-128341400D02*
X81256000Y-116081400D01*
X78256000Y-116081400D02*
X78256000Y-128341400D01*
X81256000Y-116081400D02*
X78256000Y-116081400D01*
%TO.C,J6*%
X75134800Y-129289600D02*
X75134800Y-115539600D01*
X75134800Y-115539600D02*
X68984800Y-115539600D01*
X68984800Y-129289600D02*
X75134800Y-129289600D01*
X68984800Y-115539600D02*
X68984800Y-129289600D01*
%TO.C,R12*%
X143544000Y-69914200D02*
X143544000Y-66914200D01*
X143544000Y-66914200D02*
X133824000Y-66914200D01*
X133824000Y-69914200D02*
X143544000Y-69914200D01*
X133824000Y-66914200D02*
X133824000Y-69914200D01*
%TO.C,C8*%
X155184800Y-132499800D02*
X155184800Y-129499800D01*
X155184800Y-129499800D02*
X147684800Y-129499800D01*
X147684800Y-132499800D02*
X155184800Y-132499800D01*
X147684800Y-129499800D02*
X147684800Y-132499800D01*
%TO.C,C7*%
X127661800Y-170175800D02*
X124661800Y-170175800D01*
X124661800Y-170175800D02*
X124661800Y-177675800D01*
X127661800Y-177675800D02*
X127661800Y-170175800D01*
X124661800Y-177675800D02*
X127661800Y-177675800D01*
%TO.C,R17*%
X75208000Y-128341400D02*
X78208000Y-128341400D01*
X78208000Y-128341400D02*
X78208000Y-116081400D01*
X75208000Y-116081400D02*
X75208000Y-128341400D01*
X78208000Y-116081400D02*
X75208000Y-116081400D01*
%TO.C,J7*%
X143882600Y-88610800D02*
X163682600Y-88610800D01*
X163682600Y-88610800D02*
X163682600Y-56710800D01*
X143882600Y-56710800D02*
X143882600Y-88610800D01*
X163682600Y-56710800D02*
X143882600Y-56710800D01*
%TO.C,U9*%
X94987200Y-111040900D02*
X94987200Y-148040900D01*
X94987200Y-148040900D02*
X131987200Y-148040900D01*
X131987200Y-111040900D02*
X94987200Y-111040900D01*
X131987200Y-148040900D02*
X131987200Y-111040900D01*
%TO.C,U11*%
X155423200Y-132516000D02*
X134573200Y-132516000D01*
X134573200Y-132516000D02*
X134573200Y-142316000D01*
X155423200Y-142316000D02*
X155423200Y-132516000D01*
X134573200Y-142316000D02*
X155423200Y-142316000D01*
%TO.C,C16*%
X141131000Y-77696600D02*
X139031000Y-77696600D01*
X139031000Y-77696600D02*
X139031000Y-82296600D01*
X141131000Y-82296600D02*
X141131000Y-77696600D01*
X139031000Y-82296600D02*
X141131000Y-82296600D01*
%TO.C,C18*%
X94464000Y-133382000D02*
X91464000Y-133382000D01*
X91464000Y-133382000D02*
X91464000Y-140882000D01*
X94464000Y-140882000D02*
X94464000Y-133382000D01*
X91464000Y-140882000D02*
X94464000Y-140882000D01*
%TO.C,D1*%
X69047800Y-149553800D02*
X73547800Y-149553800D01*
X73547800Y-149553800D02*
X73547800Y-144703800D01*
X69047800Y-144703800D02*
X69047800Y-149553800D01*
X73547800Y-144703800D02*
X69047800Y-144703800D01*
%TO.C,C15*%
X141181800Y-70203600D02*
X139081800Y-70203600D01*
X139081800Y-70203600D02*
X139081800Y-74803600D01*
X141181800Y-74803600D02*
X141181800Y-70203600D01*
X139081800Y-74803600D02*
X141181800Y-74803600D01*
%TO.C,RN2*%
X156487600Y-114158600D02*
X156487600Y-110858600D01*
X156487600Y-110858600D02*
X137837600Y-110858600D01*
X137837600Y-114158600D02*
X156487600Y-114158600D01*
X137837600Y-110858600D02*
X137837600Y-114158600D01*
%TO.C,C14*%
X133272400Y-58549800D02*
X136272400Y-58549800D01*
X136272400Y-58549800D02*
X136272400Y-51049800D01*
X133272400Y-51049800D02*
X133272400Y-58549800D01*
X136272400Y-51049800D02*
X133272400Y-51049800D01*
%TO.C,SW1*%
X72397000Y-159736400D02*
X72397000Y-158886400D01*
X75497000Y-159736400D02*
X72397000Y-159736400D01*
X72397000Y-158886400D02*
X68447000Y-158886400D01*
X72947000Y-157036400D02*
X72947000Y-152736400D01*
X75497000Y-157036400D02*
X75497000Y-159736400D01*
X75497000Y-157036400D02*
X72947000Y-157036400D01*
X65147000Y-156786400D02*
X68447000Y-156786400D01*
X68447000Y-156786400D02*
X68447000Y-158886400D01*
X65147000Y-152986400D02*
X65147000Y-156786400D01*
X68447000Y-152986400D02*
X65147000Y-152986400D01*
X72947000Y-152736400D02*
X75497000Y-152736400D01*
X75497000Y-152736400D02*
X75497000Y-150036400D01*
X68447000Y-150886400D02*
X68447000Y-152986400D01*
X72347000Y-150886400D02*
X68447000Y-150886400D01*
X72347000Y-150036400D02*
X72347000Y-150886400D01*
X75497000Y-150036400D02*
X72347000Y-150036400D01*
%TO.C,J2*%
X151172800Y-182171800D02*
X151172800Y-175371800D01*
X151172800Y-175371800D02*
X145092800Y-175371800D01*
X145092800Y-182171800D02*
X151172800Y-182171800D01*
X145092800Y-175371800D02*
X145092800Y-182171800D01*
%TO.C,H7*%
X113425700Y-84352700D02*
G75*
G03*
X107325700Y-84352700I-3050000J0D01*
G01*
X107325700Y-84352700D02*
G75*
G03*
X113425700Y-84352700I3050000J0D01*
G01*
%TO.C,R5*%
X132154800Y-152877800D02*
X135154800Y-152877800D01*
X135154800Y-152877800D02*
X135154800Y-143157800D01*
X132154800Y-143157800D02*
X132154800Y-152877800D01*
X135154800Y-143157800D02*
X132154800Y-143157800D01*
%TO.C,U5*%
X79511400Y-167132200D02*
X115611400Y-167132200D01*
X115611400Y-167132200D02*
X115611400Y-149782200D01*
X79511400Y-149782200D02*
X79511400Y-167132200D01*
X115611400Y-149782200D02*
X79511400Y-149782200D01*
%TO.C,R3*%
X127788800Y-152809800D02*
X124788800Y-152809800D01*
X124788800Y-152809800D02*
X124788800Y-162529800D01*
X127788800Y-162529800D02*
X127788800Y-152809800D01*
X124788800Y-162529800D02*
X127788800Y-162529800D01*
%TO.C,C19*%
X94899800Y-117767800D02*
X94899800Y-114767800D01*
X94899800Y-114767800D02*
X87399800Y-114767800D01*
X87399800Y-117767800D02*
X94899800Y-117767800D01*
X87399800Y-114767800D02*
X87399800Y-117767800D01*
%TO.C,H4*%
X75186000Y-52005800D02*
G75*
G03*
X69086000Y-52005800I-3050000J0D01*
G01*
X69086000Y-52005800D02*
G75*
G03*
X75186000Y-52005800I3050000J0D01*
G01*
%TO.C,R18*%
X156770200Y-88751000D02*
X153770200Y-88751000D01*
X153770200Y-88751000D02*
X153770200Y-101011000D01*
X156770200Y-101011000D02*
X156770200Y-88751000D01*
X153770200Y-101011000D02*
X156770200Y-101011000D01*
%TO.C,R1*%
X77359800Y-131658800D02*
X77359800Y-134658800D01*
X77359800Y-134658800D02*
X89619800Y-134658800D01*
X89619800Y-131658800D02*
X77359800Y-131658800D01*
X89619800Y-134658800D02*
X89619800Y-131658800D01*
%TO.C,H1*%
X142038800Y-183450800D02*
G75*
G03*
X135938800Y-183450800I-3050000J0D01*
G01*
X135938800Y-183450800D02*
G75*
G03*
X142038800Y-183450800I3050000J0D01*
G01*
%TO.C,C6*%
X139901800Y-178872800D02*
X142901800Y-178872800D01*
X142901800Y-178872800D02*
X142901800Y-171772800D01*
X139901800Y-171772800D02*
X139901800Y-178872800D01*
X142901800Y-171772800D02*
X139901800Y-171772800D01*
%TO.C,R2*%
X75221200Y-128529600D02*
X75221200Y-131529600D01*
X75221200Y-131529600D02*
X87481200Y-131529600D01*
X87481200Y-128529600D02*
X75221200Y-128529600D01*
X87481200Y-131529600D02*
X87481200Y-128529600D01*
%TO.C,SW3*%
X73711800Y-132513400D02*
X73711800Y-143913400D01*
X64311800Y-132513400D02*
X73711800Y-132513400D01*
X73711800Y-143913400D02*
X64311800Y-143913400D01*
X64311800Y-143913400D02*
X64311800Y-132513400D01*
%TO.C,C12*%
X108230800Y-55088400D02*
X105230800Y-55088400D01*
X105230800Y-55088400D02*
X105230800Y-62588400D01*
X108230800Y-62588400D02*
X108230800Y-55088400D01*
X105230800Y-62588400D02*
X108230800Y-62588400D01*
%TO.C,R15*%
X81278600Y-128366800D02*
X84278600Y-128366800D01*
X84278600Y-128366800D02*
X84278600Y-116106800D01*
X81278600Y-116106800D02*
X81278600Y-128366800D01*
X84278600Y-116106800D02*
X81278600Y-116106800D01*
%TO.C,C11*%
X79401800Y-149728800D02*
X76401800Y-149728800D01*
X76401800Y-149728800D02*
X76401800Y-157228800D01*
X79401800Y-157228800D02*
X79401800Y-149728800D01*
X76401800Y-157228800D02*
X79401800Y-157228800D01*
%TO.C,J10*%
X89196800Y-141892800D02*
X89196800Y-135092800D01*
X89196800Y-135092800D02*
X83116800Y-135092800D01*
X83116800Y-141892800D02*
X89196800Y-141892800D01*
X83116800Y-135092800D02*
X83116800Y-141892800D01*
%TO.C,C21*%
X156744800Y-101240200D02*
X153744800Y-101240200D01*
X153744800Y-101240200D02*
X153744800Y-108740200D01*
X156744800Y-108740200D02*
X156744800Y-101240200D01*
X153744800Y-108740200D02*
X156744800Y-108740200D01*
D12*
%TO.C,J4*%
X81638400Y-95491800D02*
X142948400Y-95491800D01*
X81638400Y-106841800D02*
X81638400Y-95491800D01*
X142948400Y-95491800D02*
X142948400Y-106841800D01*
X142948400Y-106841800D02*
X81638400Y-106841800D01*
D10*
%TO.C,C23*%
X147564800Y-132499800D02*
X147564800Y-129499800D01*
X147564800Y-129499800D02*
X140064800Y-129499800D01*
X140064800Y-132499800D02*
X147564800Y-132499800D01*
X140064800Y-129499800D02*
X140064800Y-132499800D01*
D12*
%TO.C,SW2*%
X68223500Y-173801600D02*
X86208500Y-173801600D01*
X68223500Y-192439600D02*
X68223500Y-173801600D01*
X86208500Y-173801600D02*
X86208500Y-192439600D01*
X86208500Y-192439600D02*
X68223500Y-192439600D01*
D10*
%TO.C,U8*%
X81812800Y-59836800D02*
X105212800Y-59836800D01*
X105212800Y-59836800D02*
X105212800Y-50036800D01*
X81812800Y-50036800D02*
X81812800Y-59836800D01*
X105212800Y-50036800D02*
X81812800Y-50036800D01*
%TO.C,C1*%
X87704800Y-131534800D02*
X90704800Y-131534800D01*
X90704800Y-131534800D02*
X90704800Y-124034800D01*
X87704800Y-124034800D02*
X87704800Y-131534800D01*
X90704800Y-124034800D02*
X87704800Y-124034800D01*
%TO.C,Q1*%
X143681800Y-63040800D02*
X143681800Y-57480800D01*
X143681800Y-63040800D02*
X136581800Y-63040800D01*
X136581800Y-57480800D02*
X143681800Y-57480800D01*
X136581800Y-57480800D02*
X136581800Y-63040800D01*
%TO.C,R11*%
X133824000Y-63358200D02*
X133824000Y-66358200D01*
X133824000Y-66358200D02*
X143544000Y-66358200D01*
X143544000Y-63358200D02*
X133824000Y-63358200D01*
X143544000Y-66358200D02*
X143544000Y-63358200D01*
%TO.C,R4*%
X142139800Y-143157800D02*
X139139800Y-143157800D01*
X139139800Y-143157800D02*
X139139800Y-152877800D01*
X142139800Y-152877800D02*
X142139800Y-143157800D01*
X139139800Y-152877800D02*
X142139800Y-152877800D01*
%TO.C,J1*%
X81989600Y-88781600D02*
X100839600Y-88781600D01*
X100839600Y-88781600D02*
X100839600Y-85181600D01*
X81989600Y-85181600D02*
X81989600Y-88781600D01*
X100839600Y-85181600D02*
X81989600Y-85181600D01*
%TO.C,C3*%
X127788800Y-162755800D02*
X124788800Y-162755800D01*
X124788800Y-162755800D02*
X124788800Y-169855800D01*
X127788800Y-169855800D02*
X127788800Y-162755800D01*
X124788800Y-169855800D02*
X127788800Y-169855800D01*
%TO.C,U2*%
X155474000Y-119495800D02*
X134624000Y-119495800D01*
X134624000Y-119495800D02*
X134624000Y-129295800D01*
X155474000Y-129295800D02*
X155474000Y-119495800D01*
X134624000Y-129295800D02*
X155474000Y-129295800D01*
%TO.C,C13*%
X113572600Y-81265200D02*
X113572600Y-84265200D01*
X113572600Y-84265200D02*
X121072600Y-84265200D01*
X121072600Y-81265200D02*
X113572600Y-81265200D01*
X121072600Y-84265200D02*
X121072600Y-81265200D01*
%TO.C,C2*%
X143463149Y-159701800D02*
G75*
G03*
X134963149Y-159701800I-4250000J0D01*
G01*
X134963149Y-159701800D02*
G75*
G03*
X143463149Y-159701800I4250000J0D01*
G01*
%TD*%
M02*
