%TF.GenerationSoftware,KiCad,Pcbnew,7.0.11-7.0.11~ubuntu22.04.1*%
%TF.CreationDate,2024-10-05T18:33:04-04:00*%
%TF.ProjectId,coleco_original,636f6c65-636f-45f6-9f72-6967696e616c,DEV*%
%TF.SameCoordinates,Original*%
%TF.FileFunction,Legend,Bot*%
%TF.FilePolarity,Positive*%
%FSLAX46Y46*%
G04 Gerber Fmt 4.6, Leading zero omitted, Abs format (unit mm)*
G04 Created by KiCad (PCBNEW 7.0.11-7.0.11~ubuntu22.04.1) date 2024-10-05 18:33:04*
%MOMM*%
%LPD*%
G01*
G04 APERTURE LIST*
%ADD10C,0.100000*%
%ADD11C,0.150000*%
%ADD12C,0.120000*%
%ADD13C,0.200000*%
G04 APERTURE END LIST*
D10*
G36*
X86078987Y-72063774D02*
G01*
X85686598Y-72063774D01*
X85683221Y-72111854D01*
X85676384Y-72156831D01*
X85666088Y-72198706D01*
X85652332Y-72237480D01*
X85635117Y-72273152D01*
X85614443Y-72305721D01*
X85590310Y-72335189D01*
X85562717Y-72361555D01*
X85531665Y-72384819D01*
X85497153Y-72404982D01*
X85459182Y-72422042D01*
X85417752Y-72436001D01*
X85372863Y-72446857D01*
X85324514Y-72454612D01*
X85272706Y-72459265D01*
X85217438Y-72460816D01*
X85172715Y-72459940D01*
X85130052Y-72457314D01*
X85089449Y-72452937D01*
X85050906Y-72446809D01*
X85014422Y-72438930D01*
X84979999Y-72429300D01*
X84947635Y-72417919D01*
X84917331Y-72404788D01*
X84889087Y-72389905D01*
X84862903Y-72373272D01*
X84827488Y-72345039D01*
X84796709Y-72312867D01*
X84770564Y-72276756D01*
X84749054Y-72236705D01*
X84737519Y-72203553D01*
X84729279Y-72169239D01*
X84724773Y-72138259D01*
X84722791Y-72106389D01*
X84722688Y-72097120D01*
X84725278Y-72059370D01*
X84733047Y-72023474D01*
X84745997Y-71989432D01*
X84764127Y-71957244D01*
X84787436Y-71926910D01*
X84815926Y-71898430D01*
X84849595Y-71871803D01*
X84888445Y-71847030D01*
X84917222Y-71831545D01*
X84948301Y-71816884D01*
X84981683Y-71803047D01*
X85017367Y-71790033D01*
X85049500Y-71781115D01*
X85083088Y-71772197D01*
X85113670Y-71764394D01*
X85145365Y-71756591D01*
X85154625Y-71754362D01*
X85512117Y-71666733D01*
X85544660Y-71658794D01*
X85576375Y-71650485D01*
X85607262Y-71641806D01*
X85637319Y-71632758D01*
X85694950Y-71613553D01*
X85749266Y-71592870D01*
X85800268Y-71570708D01*
X85847957Y-71547068D01*
X85892331Y-71521950D01*
X85933392Y-71495354D01*
X85971138Y-71467280D01*
X86005571Y-71437727D01*
X86036690Y-71406696D01*
X86064495Y-71374187D01*
X86088986Y-71340199D01*
X86110163Y-71304734D01*
X86128026Y-71267790D01*
X86142575Y-71229368D01*
X86152853Y-71193517D01*
X86159794Y-71162184D01*
X86165258Y-71129526D01*
X86169245Y-71095542D01*
X86171755Y-71060233D01*
X86172789Y-71023599D01*
X86172819Y-71016113D01*
X86171249Y-70963514D01*
X86166542Y-70912733D01*
X86158696Y-70863769D01*
X86147713Y-70816623D01*
X86133591Y-70771294D01*
X86116330Y-70727783D01*
X86095932Y-70686090D01*
X86072395Y-70646213D01*
X86045720Y-70608155D01*
X86015907Y-70571914D01*
X85982955Y-70537490D01*
X85946866Y-70504884D01*
X85907638Y-70474095D01*
X85865272Y-70445124D01*
X85819767Y-70417970D01*
X85771125Y-70392634D01*
X85741847Y-70378643D01*
X85711789Y-70365553D01*
X85680949Y-70353367D01*
X85649327Y-70342083D01*
X85616924Y-70331702D01*
X85583739Y-70322224D01*
X85549773Y-70313648D01*
X85515025Y-70305976D01*
X85479496Y-70299205D01*
X85443185Y-70293338D01*
X85406093Y-70288373D01*
X85368219Y-70284311D01*
X85329563Y-70281151D01*
X85290126Y-70278895D01*
X85249908Y-70277541D01*
X85208908Y-70277089D01*
X85155555Y-70277793D01*
X85103771Y-70279903D01*
X85053556Y-70283421D01*
X85004911Y-70288346D01*
X84957834Y-70294677D01*
X84912327Y-70302416D01*
X84868388Y-70311562D01*
X84826019Y-70322115D01*
X84785219Y-70334075D01*
X84745988Y-70347442D01*
X84708326Y-70362216D01*
X84672234Y-70378397D01*
X84637710Y-70395985D01*
X84604755Y-70414981D01*
X84573370Y-70435383D01*
X84543554Y-70457192D01*
X84515307Y-70480409D01*
X84488629Y-70505032D01*
X84463520Y-70531063D01*
X84439980Y-70558500D01*
X84418009Y-70587345D01*
X84397608Y-70617597D01*
X84378775Y-70649255D01*
X84361512Y-70682321D01*
X84345818Y-70716794D01*
X84331693Y-70752674D01*
X84319137Y-70789961D01*
X84308150Y-70828655D01*
X84298732Y-70868756D01*
X84290884Y-70910264D01*
X84284604Y-70953180D01*
X84279894Y-70997502D01*
X84276713Y-71028778D01*
X84275314Y-71061539D01*
X84275241Y-71071172D01*
X84667629Y-71071172D01*
X84673445Y-71033538D01*
X84680134Y-70997990D01*
X84687695Y-70964527D01*
X84696128Y-70933150D01*
X84708729Y-70894558D01*
X84722882Y-70859674D01*
X84738585Y-70828498D01*
X84755839Y-70801029D01*
X84774644Y-70777268D01*
X84803895Y-70749967D01*
X84836103Y-70725351D01*
X84871270Y-70703420D01*
X84909394Y-70684175D01*
X84950477Y-70667615D01*
X84994518Y-70653741D01*
X85025521Y-70645983D01*
X85057840Y-70639419D01*
X85091473Y-70634048D01*
X85126420Y-70629871D01*
X85162683Y-70626887D01*
X85200260Y-70625097D01*
X85239151Y-70624500D01*
X85285095Y-70625321D01*
X85329094Y-70627784D01*
X85371148Y-70631888D01*
X85411257Y-70637635D01*
X85449422Y-70645023D01*
X85485642Y-70654053D01*
X85519917Y-70664725D01*
X85552248Y-70677038D01*
X85582634Y-70690994D01*
X85611075Y-70706591D01*
X85637571Y-70723830D01*
X85673669Y-70752767D01*
X85705391Y-70785398D01*
X85732738Y-70821724D01*
X85740881Y-70834653D01*
X85755639Y-70862424D01*
X85768998Y-70895927D01*
X85778201Y-70930617D01*
X85782781Y-70961297D01*
X85784308Y-70992849D01*
X85782201Y-71030462D01*
X85775883Y-71065949D01*
X85765353Y-71099310D01*
X85750611Y-71130544D01*
X85731657Y-71159651D01*
X85708490Y-71186632D01*
X85681112Y-71211486D01*
X85649521Y-71234214D01*
X85613718Y-71254816D01*
X85573704Y-71273291D01*
X85544687Y-71284426D01*
X85422163Y-71319322D01*
X85075527Y-71405400D01*
X85042662Y-71413594D01*
X85010563Y-71421987D01*
X84979231Y-71430581D01*
X84948665Y-71439375D01*
X84918865Y-71448369D01*
X84861565Y-71466956D01*
X84807331Y-71486342D01*
X84756162Y-71506529D01*
X84708058Y-71527515D01*
X84663020Y-71549301D01*
X84621048Y-71571887D01*
X84582141Y-71595272D01*
X84546300Y-71619457D01*
X84513524Y-71644442D01*
X84483814Y-71670226D01*
X84457169Y-71696810D01*
X84433590Y-71724194D01*
X84413076Y-71752377D01*
X84403969Y-71766769D01*
X84387611Y-71799060D01*
X84373435Y-71833508D01*
X84361439Y-71870113D01*
X84351625Y-71908874D01*
X84345695Y-71939361D01*
X84340992Y-71971060D01*
X84337516Y-72003973D01*
X84335267Y-72038099D01*
X84334245Y-72073438D01*
X84334177Y-72085488D01*
X84335643Y-72137217D01*
X84340041Y-72187135D01*
X84347372Y-72235241D01*
X84357635Y-72281536D01*
X84370830Y-72326020D01*
X84386957Y-72368692D01*
X84406017Y-72409553D01*
X84428009Y-72448602D01*
X84452933Y-72485840D01*
X84480789Y-72521266D01*
X84511578Y-72554881D01*
X84545299Y-72586684D01*
X84581952Y-72616676D01*
X84621537Y-72644857D01*
X84664055Y-72671226D01*
X84709505Y-72695783D01*
X84751112Y-72715878D01*
X84779683Y-72728177D01*
X84808921Y-72739597D01*
X84838825Y-72750138D01*
X84869396Y-72759801D01*
X84900633Y-72768586D01*
X84932536Y-72776492D01*
X84965106Y-72783520D01*
X84998342Y-72789669D01*
X85032245Y-72794940D01*
X85066814Y-72799332D01*
X85102049Y-72802846D01*
X85137951Y-72805481D01*
X85174519Y-72807238D01*
X85211754Y-72808117D01*
X85230621Y-72808227D01*
X85270612Y-72807771D01*
X85309647Y-72806403D01*
X85347723Y-72804124D01*
X85384843Y-72800932D01*
X85421005Y-72796829D01*
X85456211Y-72791815D01*
X85490459Y-72785888D01*
X85523749Y-72779050D01*
X85556083Y-72771299D01*
X85587459Y-72762637D01*
X85617878Y-72753064D01*
X85647340Y-72742578D01*
X85703392Y-72718872D01*
X85755615Y-72691518D01*
X85804009Y-72660518D01*
X85848575Y-72625870D01*
X85889311Y-72587575D01*
X85926219Y-72545633D01*
X85959297Y-72500044D01*
X85988547Y-72450807D01*
X86013968Y-72397924D01*
X86035560Y-72341393D01*
X86045738Y-72309914D01*
X86054559Y-72277514D01*
X86062023Y-72244193D01*
X86068130Y-72209951D01*
X86072880Y-72174788D01*
X86076272Y-72138704D01*
X86078308Y-72101700D01*
X86078987Y-72063774D01*
G37*
G36*
X86960697Y-70626051D02*
G01*
X86996950Y-70583794D01*
X87034367Y-70544263D01*
X87072947Y-70507459D01*
X87112689Y-70473380D01*
X87153596Y-70442028D01*
X87195665Y-70413402D01*
X87238897Y-70387503D01*
X87283293Y-70364330D01*
X87328852Y-70343883D01*
X87375574Y-70326162D01*
X87423459Y-70311168D01*
X87472508Y-70298899D01*
X87522720Y-70289357D01*
X87574095Y-70282542D01*
X87626633Y-70278452D01*
X87680334Y-70277089D01*
X87705791Y-70277404D01*
X87737238Y-70278684D01*
X87768268Y-70280948D01*
X87804955Y-70284965D01*
X87841042Y-70290399D01*
X87876528Y-70297251D01*
X87905194Y-70303086D01*
X87947362Y-70313359D01*
X87988535Y-70325459D01*
X88028714Y-70339386D01*
X88067897Y-70355139D01*
X88106085Y-70372719D01*
X88143278Y-70392125D01*
X88179476Y-70413359D01*
X88214679Y-70436418D01*
X88248887Y-70461304D01*
X88282100Y-70488017D01*
X88306670Y-70509543D01*
X88330461Y-70531759D01*
X88353471Y-70554665D01*
X88375702Y-70578263D01*
X88397152Y-70602551D01*
X88417822Y-70627529D01*
X88437713Y-70653199D01*
X88456823Y-70679559D01*
X88475153Y-70706609D01*
X88492704Y-70734351D01*
X88509474Y-70762782D01*
X88525464Y-70791905D01*
X88540675Y-70821718D01*
X88555105Y-70852222D01*
X88568755Y-70883417D01*
X88581625Y-70915302D01*
X88593716Y-70947878D01*
X88605026Y-70981144D01*
X88615556Y-71015101D01*
X88625306Y-71049749D01*
X88634276Y-71085088D01*
X88642467Y-71121117D01*
X88649877Y-71157836D01*
X88656507Y-71195247D01*
X88662357Y-71233348D01*
X88667427Y-71272140D01*
X88671717Y-71311622D01*
X88675227Y-71351795D01*
X88677957Y-71392659D01*
X88679907Y-71434213D01*
X88681077Y-71476458D01*
X88681467Y-71519394D01*
X88680804Y-71577366D01*
X88678814Y-71634188D01*
X88675497Y-71689858D01*
X88670853Y-71744377D01*
X88664883Y-71797746D01*
X88657585Y-71849963D01*
X88648961Y-71901029D01*
X88639010Y-71950943D01*
X88627733Y-71999707D01*
X88615128Y-72047320D01*
X88601197Y-72093782D01*
X88585939Y-72139092D01*
X88569354Y-72183252D01*
X88551443Y-72226260D01*
X88532204Y-72268117D01*
X88511639Y-72308823D01*
X88494578Y-72339548D01*
X88476934Y-72369298D01*
X88458706Y-72398072D01*
X88439896Y-72425871D01*
X88420502Y-72452694D01*
X88400526Y-72478542D01*
X88379966Y-72503415D01*
X88358823Y-72527312D01*
X88337097Y-72550234D01*
X88314788Y-72572181D01*
X88291895Y-72593152D01*
X88244361Y-72632167D01*
X88194495Y-72667282D01*
X88142296Y-72698494D01*
X88087765Y-72725806D01*
X88030901Y-72749215D01*
X88001594Y-72759457D01*
X87971705Y-72768723D01*
X87941232Y-72777014D01*
X87910176Y-72784329D01*
X87878537Y-72790670D01*
X87846315Y-72796034D01*
X87813509Y-72800424D01*
X87780121Y-72803837D01*
X87746149Y-72806276D01*
X87711595Y-72807739D01*
X87676457Y-72808227D01*
X87617018Y-72806652D01*
X87559288Y-72801926D01*
X87503266Y-72794050D01*
X87448953Y-72783024D01*
X87396348Y-72768847D01*
X87345452Y-72751520D01*
X87296264Y-72731043D01*
X87248785Y-72707415D01*
X87203014Y-72680637D01*
X87158951Y-72650709D01*
X87116597Y-72617630D01*
X87075951Y-72581401D01*
X87037014Y-72542022D01*
X86999786Y-72499492D01*
X86964265Y-72453812D01*
X86930454Y-72404982D01*
X86930454Y-72758597D01*
X86585369Y-72758597D01*
X86585369Y-71541882D01*
X86960697Y-71541882D01*
X86961115Y-71580701D01*
X86962369Y-71618836D01*
X86964459Y-71656286D01*
X86967386Y-71693051D01*
X86971148Y-71729131D01*
X86975746Y-71764527D01*
X86981180Y-71799239D01*
X86987451Y-71833266D01*
X86994557Y-71866608D01*
X87002500Y-71899266D01*
X87011278Y-71931239D01*
X87020893Y-71962527D01*
X87031344Y-71993131D01*
X87042630Y-72023050D01*
X87054753Y-72052285D01*
X87067712Y-72080835D01*
X87090289Y-72126848D01*
X87114398Y-72169893D01*
X87140040Y-72209969D01*
X87167215Y-72247076D01*
X87195922Y-72281215D01*
X87226163Y-72312386D01*
X87257936Y-72340587D01*
X87291242Y-72365820D01*
X87326080Y-72388085D01*
X87362452Y-72407381D01*
X87400356Y-72423708D01*
X87439793Y-72437067D01*
X87480763Y-72447457D01*
X87523265Y-72454878D01*
X87567300Y-72459331D01*
X87612868Y-72460816D01*
X87638365Y-72460358D01*
X87675894Y-72457957D01*
X87712565Y-72453497D01*
X87748377Y-72446979D01*
X87783329Y-72438403D01*
X87817424Y-72427768D01*
X87850659Y-72415075D01*
X87883036Y-72400324D01*
X87914554Y-72383514D01*
X87945213Y-72364646D01*
X87975013Y-72343720D01*
X88013326Y-72312271D01*
X88049168Y-72278216D01*
X88082537Y-72241557D01*
X88113435Y-72202293D01*
X88141861Y-72160424D01*
X88167815Y-72115949D01*
X88191297Y-72068870D01*
X88212307Y-72019185D01*
X88230846Y-71966895D01*
X88246913Y-71912000D01*
X88260508Y-71854500D01*
X88271631Y-71794395D01*
X88276266Y-71763366D01*
X88280282Y-71731685D01*
X88283681Y-71699353D01*
X88286462Y-71666370D01*
X88288625Y-71632735D01*
X88290169Y-71598449D01*
X88291096Y-71563512D01*
X88291405Y-71527924D01*
X88290954Y-71489387D01*
X88289600Y-71451516D01*
X88287343Y-71414311D01*
X88284184Y-71377773D01*
X88280122Y-71341902D01*
X88275157Y-71306697D01*
X88269289Y-71272158D01*
X88262519Y-71238286D01*
X88254846Y-71205080D01*
X88246271Y-71172540D01*
X88236792Y-71140667D01*
X88226411Y-71109460D01*
X88215128Y-71078920D01*
X88202941Y-71049046D01*
X88189852Y-71019839D01*
X88175860Y-70991298D01*
X88151669Y-70946881D01*
X88126012Y-70905330D01*
X88098889Y-70866644D01*
X88070299Y-70830824D01*
X88040244Y-70797870D01*
X88008722Y-70767781D01*
X87975734Y-70740557D01*
X87941280Y-70716200D01*
X87905360Y-70694708D01*
X87867974Y-70676081D01*
X87829122Y-70660320D01*
X87788803Y-70647425D01*
X87747019Y-70637395D01*
X87703768Y-70630231D01*
X87659051Y-70625933D01*
X87612868Y-70624500D01*
X87588532Y-70624958D01*
X87552731Y-70627359D01*
X87517776Y-70631819D01*
X87483666Y-70638337D01*
X87450401Y-70646913D01*
X87417981Y-70657548D01*
X87386406Y-70670241D01*
X87355677Y-70684992D01*
X87325792Y-70701802D01*
X87296753Y-70720670D01*
X87268559Y-70741596D01*
X87249618Y-70756557D01*
X87213541Y-70788425D01*
X87179868Y-70822885D01*
X87148601Y-70859937D01*
X87119739Y-70899583D01*
X87093282Y-70941822D01*
X87069230Y-70986654D01*
X87047584Y-71034079D01*
X87028343Y-71084097D01*
X87011506Y-71136708D01*
X86997075Y-71191912D01*
X86985049Y-71249709D01*
X86975429Y-71310098D01*
X86971520Y-71341266D01*
X86968213Y-71373081D01*
X86965507Y-71405545D01*
X86963403Y-71438657D01*
X86961900Y-71472417D01*
X86960998Y-71506826D01*
X86960697Y-71541882D01*
X86585369Y-71541882D01*
X86585369Y-69383747D01*
X86960697Y-69383747D01*
X86960697Y-70626051D01*
G37*
G36*
X90962943Y-70277253D02*
G01*
X90996101Y-70279093D01*
X91032175Y-70282978D01*
X91063133Y-70287558D01*
X91095957Y-70293447D01*
X91130647Y-70300644D01*
X91167203Y-70309150D01*
X91205626Y-70318965D01*
X91205626Y-70600461D01*
X91190268Y-70597562D01*
X91157366Y-70593338D01*
X91124977Y-70591930D01*
X91100655Y-70592651D01*
X91067115Y-70596436D01*
X91027887Y-70606530D01*
X90994936Y-70622390D01*
X90968261Y-70644019D01*
X90947862Y-70671415D01*
X90933740Y-70704578D01*
X90925895Y-70743509D01*
X90924130Y-70776493D01*
X90924130Y-72163810D01*
X90923921Y-72183530D01*
X90922497Y-72218263D01*
X90919723Y-72252014D01*
X90915599Y-72284784D01*
X90909583Y-72316988D01*
X90902195Y-72348169D01*
X90893437Y-72378329D01*
X90871809Y-72435580D01*
X90844698Y-72488742D01*
X90812104Y-72537815D01*
X90774027Y-72582799D01*
X90730467Y-72623693D01*
X90681425Y-72660497D01*
X90654847Y-72677366D01*
X90626899Y-72693212D01*
X90597581Y-72708036D01*
X90566891Y-72721838D01*
X90534831Y-72734618D01*
X90501400Y-72746375D01*
X90466599Y-72757109D01*
X90430426Y-72766822D01*
X90392883Y-72775511D01*
X90353970Y-72783179D01*
X90313685Y-72789824D01*
X90272030Y-72795447D01*
X90229005Y-72800048D01*
X90184608Y-72803626D01*
X90138841Y-72806182D01*
X90091703Y-72807716D01*
X90043194Y-72808227D01*
X90010179Y-72807965D01*
X89977728Y-72807182D01*
X89945840Y-72805875D01*
X89914515Y-72804046D01*
X89853555Y-72798821D01*
X89794850Y-72791506D01*
X89738398Y-72782100D01*
X89684200Y-72770604D01*
X89632255Y-72757018D01*
X89582565Y-72741342D01*
X89535128Y-72723576D01*
X89489944Y-72703720D01*
X89447015Y-72681773D01*
X89406339Y-72657737D01*
X89367917Y-72631610D01*
X89331748Y-72603393D01*
X89297834Y-72573086D01*
X89266172Y-72540689D01*
X89248185Y-72519833D01*
X89223181Y-72486312D01*
X89200548Y-72450104D01*
X89180288Y-72411212D01*
X89162399Y-72369634D01*
X89151791Y-72340424D01*
X89142236Y-72310020D01*
X89133737Y-72278422D01*
X89126291Y-72245632D01*
X89119899Y-72211647D01*
X89114562Y-72176469D01*
X89110279Y-72140098D01*
X89107049Y-72102533D01*
X89104875Y-72063774D01*
X89480203Y-72063774D01*
X89482084Y-72078078D01*
X89487095Y-72109444D01*
X89493386Y-72141322D01*
X89504388Y-72180010D01*
X89518394Y-72216203D01*
X89535406Y-72249900D01*
X89555423Y-72281100D01*
X89578445Y-72309805D01*
X89604472Y-72336013D01*
X89633503Y-72359726D01*
X89665540Y-72380942D01*
X89700582Y-72399662D01*
X89738628Y-72415887D01*
X89779680Y-72429615D01*
X89823736Y-72440847D01*
X89870798Y-72449583D01*
X89920864Y-72455824D01*
X89973935Y-72459568D01*
X90030011Y-72460816D01*
X90056441Y-72460607D01*
X90087557Y-72459808D01*
X90123032Y-72458117D01*
X90157616Y-72455609D01*
X90191309Y-72452285D01*
X90235163Y-72444655D01*
X90276187Y-72435140D01*
X90314382Y-72423741D01*
X90349748Y-72410459D01*
X90382284Y-72395291D01*
X90411992Y-72378240D01*
X90438869Y-72359305D01*
X90462918Y-72338485D01*
X90493686Y-72303723D01*
X90518089Y-72264721D01*
X90530820Y-72236365D01*
X90540723Y-72206125D01*
X90547796Y-72174000D01*
X90552040Y-72139992D01*
X90553454Y-72104099D01*
X90553454Y-72004063D01*
X90552412Y-71975192D01*
X90548305Y-71943237D01*
X90540271Y-71912558D01*
X90532889Y-71896439D01*
X90511637Y-71866366D01*
X90481732Y-71839176D01*
X90453627Y-71820676D01*
X90420655Y-71803798D01*
X90382817Y-71788542D01*
X90340112Y-71774908D01*
X90308939Y-71766721D01*
X90275603Y-71759254D01*
X90240104Y-71752508D01*
X90202442Y-71746483D01*
X90162617Y-71741179D01*
X90126957Y-71735344D01*
X90093261Y-71730055D01*
X90061527Y-71725312D01*
X90026985Y-71720466D01*
X89995115Y-71716363D01*
X89969051Y-71713053D01*
X89918446Y-71706347D01*
X89869870Y-71699525D01*
X89823323Y-71692588D01*
X89778807Y-71685536D01*
X89736319Y-71678369D01*
X89695861Y-71671087D01*
X89657433Y-71663690D01*
X89621035Y-71656177D01*
X89586665Y-71648550D01*
X89554326Y-71640807D01*
X89524016Y-71632950D01*
X89482356Y-71620947D01*
X89445263Y-71608686D01*
X89412737Y-71596165D01*
X89363061Y-71573725D01*
X89316590Y-71549056D01*
X89273324Y-71522156D01*
X89233263Y-71493028D01*
X89196407Y-71461670D01*
X89162756Y-71428082D01*
X89132310Y-71392265D01*
X89105068Y-71354218D01*
X89081032Y-71313942D01*
X89060200Y-71271437D01*
X89042573Y-71226702D01*
X89028151Y-71179737D01*
X89016934Y-71130544D01*
X89008922Y-71079120D01*
X89004115Y-71025467D01*
X89002935Y-70984319D01*
X89391023Y-70984319D01*
X89391623Y-71009446D01*
X89394289Y-71041507D01*
X89399837Y-71075606D01*
X89408084Y-71107619D01*
X89418668Y-71137277D01*
X89432390Y-71165573D01*
X89449250Y-71192506D01*
X89469249Y-71218075D01*
X89492386Y-71242281D01*
X89518661Y-71265124D01*
X89548074Y-71286604D01*
X89580626Y-71306721D01*
X89616316Y-71325475D01*
X89655144Y-71342865D01*
X89697110Y-71358893D01*
X89742215Y-71373557D01*
X89790458Y-71386858D01*
X89841839Y-71398796D01*
X89896358Y-71409371D01*
X89954015Y-71418583D01*
X89981135Y-71423074D01*
X90012115Y-71427731D01*
X90043194Y-71431766D01*
X90065854Y-71434883D01*
X90109874Y-71441214D01*
X90152162Y-71447673D01*
X90192717Y-71454258D01*
X90231539Y-71460971D01*
X90268628Y-71467811D01*
X90303984Y-71474778D01*
X90337608Y-71481872D01*
X90369500Y-71489094D01*
X90414088Y-71500165D01*
X90454777Y-71511522D01*
X90491568Y-71523165D01*
X90524461Y-71535095D01*
X90553454Y-71547311D01*
X90553454Y-71125455D01*
X90552331Y-71103535D01*
X90548612Y-71071338D01*
X90542452Y-71039959D01*
X90533853Y-71009397D01*
X90522814Y-70979654D01*
X90509335Y-70950728D01*
X90493416Y-70922620D01*
X90475057Y-70895330D01*
X90454258Y-70868858D01*
X90431019Y-70843204D01*
X90405339Y-70818368D01*
X90376093Y-70792544D01*
X90346125Y-70768386D01*
X90315436Y-70745895D01*
X90284027Y-70725069D01*
X90251896Y-70705910D01*
X90219045Y-70688416D01*
X90185472Y-70672589D01*
X90151179Y-70658427D01*
X90116164Y-70645932D01*
X90080429Y-70635102D01*
X90043973Y-70625939D01*
X90006796Y-70618442D01*
X89968898Y-70612611D01*
X89930279Y-70608446D01*
X89890939Y-70605946D01*
X89850878Y-70605113D01*
X89823426Y-70605587D01*
X89791583Y-70607404D01*
X89755949Y-70611248D01*
X89721948Y-70616946D01*
X89689580Y-70624500D01*
X89671211Y-70628843D01*
X89636224Y-70638863D01*
X89603570Y-70650665D01*
X89573248Y-70664248D01*
X89545258Y-70679612D01*
X89507647Y-70705997D01*
X89475284Y-70736391D01*
X89448169Y-70770792D01*
X89426302Y-70809200D01*
X89409683Y-70851616D01*
X89401519Y-70882120D01*
X89395688Y-70914405D01*
X89392190Y-70948471D01*
X89391023Y-70984319D01*
X89002935Y-70984319D01*
X89002512Y-70969585D01*
X89002846Y-70944649D01*
X89004595Y-70907880D01*
X89007844Y-70871875D01*
X89012592Y-70836634D01*
X89018840Y-70802156D01*
X89026587Y-70768441D01*
X89035833Y-70735490D01*
X89046579Y-70703301D01*
X89058825Y-70671877D01*
X89072570Y-70641215D01*
X89087814Y-70611317D01*
X89112926Y-70570844D01*
X89140377Y-70532983D01*
X89170166Y-70497732D01*
X89202293Y-70465092D01*
X89236759Y-70435064D01*
X89273564Y-70407647D01*
X89312707Y-70382841D01*
X89354188Y-70360646D01*
X89398009Y-70341063D01*
X89444167Y-70324090D01*
X89492665Y-70309729D01*
X89543500Y-70297978D01*
X89596675Y-70288839D01*
X89652187Y-70282312D01*
X89710039Y-70278395D01*
X89770229Y-70277089D01*
X89795703Y-70277660D01*
X89846539Y-70280774D01*
X89897223Y-70286518D01*
X89947756Y-70294890D01*
X89998138Y-70305892D01*
X90048368Y-70319524D01*
X90098446Y-70335784D01*
X90148373Y-70354674D01*
X90198149Y-70376193D01*
X90247773Y-70400342D01*
X90297245Y-70427120D01*
X90346566Y-70456527D01*
X90395736Y-70488564D01*
X90444754Y-70523230D01*
X90493621Y-70560525D01*
X90517998Y-70580159D01*
X90542337Y-70600450D01*
X90566637Y-70621398D01*
X90570709Y-70589410D01*
X90575168Y-70558585D01*
X90579103Y-70541267D01*
X90588481Y-70508279D01*
X90599871Y-70477490D01*
X90613272Y-70448901D01*
X90637145Y-70410140D01*
X90665543Y-70376328D01*
X90698468Y-70347463D01*
X90735917Y-70323547D01*
X90777893Y-70304579D01*
X90808391Y-70294683D01*
X90840900Y-70286986D01*
X90875420Y-70281488D01*
X90911952Y-70278189D01*
X90950496Y-70277089D01*
X90962943Y-70277253D01*
G37*
G36*
X91591810Y-72708966D02*
G01*
X91936119Y-72708966D01*
X91936119Y-72285559D01*
X91968310Y-72336025D01*
X92000520Y-72383705D01*
X92032747Y-72428597D01*
X92064993Y-72470703D01*
X92097257Y-72510022D01*
X92129539Y-72546554D01*
X92161839Y-72580299D01*
X92194157Y-72611257D01*
X92226494Y-72639428D01*
X92258849Y-72664813D01*
X92291221Y-72687411D01*
X92323612Y-72707222D01*
X92356022Y-72724246D01*
X92388449Y-72738483D01*
X92420895Y-72749933D01*
X92453358Y-72758597D01*
X92486817Y-72764969D01*
X92520888Y-72769256D01*
X92555573Y-72771458D01*
X92575107Y-72771780D01*
X92609625Y-72770492D01*
X92643673Y-72767608D01*
X92678156Y-72763733D01*
X92711199Y-72759408D01*
X92717019Y-72758597D01*
X92717019Y-72361555D01*
X92677597Y-72360631D01*
X92639593Y-72359023D01*
X92603006Y-72356730D01*
X92567837Y-72353752D01*
X92534086Y-72350090D01*
X92501753Y-72345743D01*
X92470837Y-72340712D01*
X92427121Y-72331881D01*
X92386595Y-72321510D01*
X92349259Y-72309598D01*
X92315113Y-72296146D01*
X92284156Y-72281154D01*
X92256389Y-72264621D01*
X92230847Y-72245770D01*
X92230023Y-72245235D01*
X92198095Y-72220526D01*
X92168227Y-72193508D01*
X92140420Y-72164183D01*
X92114671Y-72132549D01*
X92090983Y-72098607D01*
X92069355Y-72062357D01*
X92049786Y-72023798D01*
X92032278Y-71982932D01*
X92016829Y-71939757D01*
X92003440Y-71894273D01*
X91992111Y-71846482D01*
X91982841Y-71796382D01*
X91975632Y-71743974D01*
X91970482Y-71689258D01*
X91967393Y-71632234D01*
X91966363Y-71572901D01*
X91966363Y-70376350D01*
X91591810Y-70376350D01*
X91591810Y-72708966D01*
G37*
G36*
X93494041Y-73651939D02*
G01*
X93494041Y-71716363D01*
X94486644Y-72708966D01*
X94964334Y-72708966D01*
X94150865Y-71902477D01*
X95105469Y-70376350D01*
X94645615Y-70376350D01*
X93856186Y-71645796D01*
X93494041Y-71288303D01*
X93494041Y-70376350D01*
X93123365Y-70376350D01*
X93123365Y-73651939D01*
X93494041Y-73651939D01*
G37*
G36*
X95765395Y-73651939D02*
G01*
X95765395Y-70376350D01*
X95390067Y-70376350D01*
X95390067Y-73651939D01*
X95765395Y-73651939D01*
G37*
G36*
X97295224Y-70277398D02*
G01*
X97339667Y-70279020D01*
X97383319Y-70282033D01*
X97426180Y-70286436D01*
X97468251Y-70292229D01*
X97509531Y-70299413D01*
X97550021Y-70307987D01*
X97589720Y-70317951D01*
X97628628Y-70329306D01*
X97666746Y-70342052D01*
X97704073Y-70356187D01*
X97760613Y-70380881D01*
X97814299Y-70408241D01*
X97865132Y-70438266D01*
X97913111Y-70470957D01*
X97958237Y-70506314D01*
X98000509Y-70544336D01*
X98039928Y-70585024D01*
X98076493Y-70628378D01*
X98110205Y-70674397D01*
X98141063Y-70723082D01*
X98169068Y-70774433D01*
X98194219Y-70828449D01*
X98216517Y-70885131D01*
X98226596Y-70914472D01*
X98235961Y-70944479D01*
X98244613Y-70975152D01*
X98252552Y-71006492D01*
X98259777Y-71038499D01*
X98266289Y-71071172D01*
X97891737Y-71071172D01*
X97870902Y-71017082D01*
X97847753Y-70966483D01*
X97822290Y-70919373D01*
X97794512Y-70875753D01*
X97764420Y-70835622D01*
X97732014Y-70798981D01*
X97697294Y-70765830D01*
X97660259Y-70736168D01*
X97620910Y-70709996D01*
X97579246Y-70687313D01*
X97535269Y-70668120D01*
X97488977Y-70652417D01*
X97440370Y-70640204D01*
X97389450Y-70631479D01*
X97336215Y-70626245D01*
X97280666Y-70624500D01*
X97235028Y-70625673D01*
X97190784Y-70629189D01*
X97147933Y-70635051D01*
X97106476Y-70643257D01*
X97066412Y-70653808D01*
X97027741Y-70666703D01*
X96990464Y-70681943D01*
X96954580Y-70699527D01*
X96920090Y-70719456D01*
X96886993Y-70741730D01*
X96855290Y-70766348D01*
X96824980Y-70793311D01*
X96796063Y-70822618D01*
X96768540Y-70854270D01*
X96742410Y-70888266D01*
X96717674Y-70924608D01*
X96702913Y-70947257D01*
X96682486Y-70983287D01*
X96664118Y-71021784D01*
X96647808Y-71062748D01*
X96633556Y-71106180D01*
X96625199Y-71136505D01*
X96617756Y-71167927D01*
X96611228Y-71200445D01*
X96605615Y-71234060D01*
X96600917Y-71268771D01*
X96597133Y-71304579D01*
X96594265Y-71341484D01*
X96592311Y-71379485D01*
X96591272Y-71418583D01*
X98316695Y-71418583D01*
X98316603Y-71450267D01*
X98316328Y-71481441D01*
X98315229Y-71542258D01*
X98313396Y-71601033D01*
X98310830Y-71657767D01*
X98307532Y-71712459D01*
X98303500Y-71765109D01*
X98298735Y-71815718D01*
X98293237Y-71864285D01*
X98287006Y-71910810D01*
X98280042Y-71955293D01*
X98272345Y-71997735D01*
X98263915Y-72038135D01*
X98254751Y-72076494D01*
X98244855Y-72112811D01*
X98234225Y-72147086D01*
X98222863Y-72179320D01*
X98208735Y-72214349D01*
X98193492Y-72248482D01*
X98177134Y-72281718D01*
X98159662Y-72314058D01*
X98141075Y-72345501D01*
X98121373Y-72376047D01*
X98100557Y-72405697D01*
X98078625Y-72434450D01*
X98041506Y-72479712D01*
X98002653Y-72522054D01*
X97962068Y-72561475D01*
X97919751Y-72597977D01*
X97875700Y-72631559D01*
X97829917Y-72662220D01*
X97782402Y-72689961D01*
X97733153Y-72714782D01*
X97682172Y-72736683D01*
X97629458Y-72755664D01*
X97575011Y-72771725D01*
X97518832Y-72784866D01*
X97460920Y-72795086D01*
X97401276Y-72802386D01*
X97339898Y-72806767D01*
X97308560Y-72807862D01*
X97276788Y-72808227D01*
X97228985Y-72807366D01*
X97182120Y-72804786D01*
X97136195Y-72800484D01*
X97091208Y-72794462D01*
X97047161Y-72786719D01*
X97004053Y-72777256D01*
X96961883Y-72766073D01*
X96920653Y-72753168D01*
X96880362Y-72738543D01*
X96841010Y-72722198D01*
X96802597Y-72704132D01*
X96765123Y-72684345D01*
X96728588Y-72662838D01*
X96692992Y-72639610D01*
X96658335Y-72614662D01*
X96624617Y-72587993D01*
X96598711Y-72565924D01*
X96573627Y-72543143D01*
X96549365Y-72519650D01*
X96525926Y-72495445D01*
X96503310Y-72470529D01*
X96481516Y-72444900D01*
X96460544Y-72418560D01*
X96440394Y-72391508D01*
X96421067Y-72363744D01*
X96402563Y-72335268D01*
X96384881Y-72306080D01*
X96368021Y-72276181D01*
X96351984Y-72245569D01*
X96336769Y-72214246D01*
X96322377Y-72182211D01*
X96308807Y-72149464D01*
X96296059Y-72116005D01*
X96284134Y-72081834D01*
X96273031Y-72046952D01*
X96262751Y-72011357D01*
X96253293Y-71975051D01*
X96244658Y-71938033D01*
X96236845Y-71900303D01*
X96229854Y-71861861D01*
X96223686Y-71822707D01*
X96218340Y-71782842D01*
X96213817Y-71742264D01*
X96211495Y-71716363D01*
X96600578Y-71716363D01*
X96602995Y-71744814D01*
X96607689Y-71786580D01*
X96613664Y-71827256D01*
X96620920Y-71866841D01*
X96629458Y-71905336D01*
X96639277Y-71942740D01*
X96650377Y-71979054D01*
X96662759Y-72014278D01*
X96676422Y-72048410D01*
X96691367Y-72081453D01*
X96707593Y-72113405D01*
X96731235Y-72155474D01*
X96756411Y-72194829D01*
X96783119Y-72231470D01*
X96811360Y-72265397D01*
X96841134Y-72296610D01*
X96872441Y-72325108D01*
X96905280Y-72350893D01*
X96939652Y-72373963D01*
X96975557Y-72394319D01*
X97012995Y-72411961D01*
X97051965Y-72426889D01*
X97092469Y-72439102D01*
X97134505Y-72448602D01*
X97178073Y-72455387D01*
X97223175Y-72459459D01*
X97269809Y-72460816D01*
X97296672Y-72460292D01*
X97336285Y-72457540D01*
X97375079Y-72452431D01*
X97413056Y-72444963D01*
X97450215Y-72435137D01*
X97486556Y-72422953D01*
X97522080Y-72408411D01*
X97556785Y-72391510D01*
X97590672Y-72372251D01*
X97623742Y-72350634D01*
X97655994Y-72326659D01*
X97687640Y-72299945D01*
X97717244Y-72271952D01*
X97744806Y-72242681D01*
X97770327Y-72212132D01*
X97793806Y-72180304D01*
X97815244Y-72147198D01*
X97834640Y-72112814D01*
X97851994Y-72077151D01*
X97867307Y-72040210D01*
X97880577Y-72001991D01*
X97891807Y-71962494D01*
X97900994Y-71921718D01*
X97908140Y-71879664D01*
X97913244Y-71836331D01*
X97916307Y-71791720D01*
X97917327Y-71745831D01*
X97913450Y-71716363D01*
X96600578Y-71716363D01*
X96211495Y-71716363D01*
X96210116Y-71700975D01*
X96207237Y-71658974D01*
X96205181Y-71616261D01*
X96203948Y-71572836D01*
X96203536Y-71528699D01*
X96204218Y-71472853D01*
X96206263Y-71418146D01*
X96209671Y-71364578D01*
X96214441Y-71312149D01*
X96220576Y-71260859D01*
X96228073Y-71210708D01*
X96236933Y-71161696D01*
X96247157Y-71113822D01*
X96258743Y-71067088D01*
X96271693Y-71021493D01*
X96286006Y-70977037D01*
X96301682Y-70933719D01*
X96318721Y-70891541D01*
X96337123Y-70850502D01*
X96356889Y-70810601D01*
X96378017Y-70771840D01*
X96395927Y-70741401D01*
X96414471Y-70711929D01*
X96433647Y-70683422D01*
X96453456Y-70655883D01*
X96473899Y-70629309D01*
X96494974Y-70603702D01*
X96516683Y-70579061D01*
X96539025Y-70555386D01*
X96561999Y-70532678D01*
X96585607Y-70510936D01*
X96609848Y-70490160D01*
X96634723Y-70470351D01*
X96660230Y-70451508D01*
X96686370Y-70433631D01*
X96713144Y-70416721D01*
X96740550Y-70400777D01*
X96768590Y-70385799D01*
X96797262Y-70371788D01*
X96826568Y-70358742D01*
X96856507Y-70346663D01*
X96887079Y-70335551D01*
X96918284Y-70325405D01*
X96950123Y-70316225D01*
X96982594Y-70308011D01*
X97015698Y-70300764D01*
X97049436Y-70294483D01*
X97083807Y-70289168D01*
X97118810Y-70284820D01*
X97154447Y-70281438D01*
X97190717Y-70279022D01*
X97227620Y-70277572D01*
X97265156Y-70277089D01*
X97295224Y-70277398D01*
G37*
G36*
X99630343Y-72708966D02*
G01*
X99630343Y-72411186D01*
X99244158Y-72411186D01*
X99244158Y-70815266D01*
X99245697Y-70775245D01*
X99250314Y-70739706D01*
X99258008Y-70708651D01*
X99271953Y-70676136D01*
X99290708Y-70650627D01*
X99319561Y-70629262D01*
X99342643Y-70620623D01*
X99374015Y-70611793D01*
X99407942Y-70606946D01*
X99442879Y-70605174D01*
X99451209Y-70605113D01*
X99485026Y-70605587D01*
X99516685Y-70607007D01*
X99551826Y-70609960D01*
X99583860Y-70614277D01*
X99617305Y-70621036D01*
X99630343Y-70624500D01*
X99630343Y-70310434D01*
X99598009Y-70304475D01*
X99566439Y-70299102D01*
X99535632Y-70294315D01*
X99495744Y-70288845D01*
X99457213Y-70284416D01*
X99420039Y-70281029D01*
X99384222Y-70278685D01*
X99349762Y-70277382D01*
X99324807Y-70277089D01*
X99276534Y-70278252D01*
X99230975Y-70281742D01*
X99188131Y-70287558D01*
X99148000Y-70295701D01*
X99110583Y-70306169D01*
X99075881Y-70318965D01*
X99043893Y-70334086D01*
X99014619Y-70351534D01*
X98988059Y-70371309D01*
X98964213Y-70393410D01*
X98943082Y-70417837D01*
X98924664Y-70444591D01*
X98908961Y-70473671D01*
X98895972Y-70505078D01*
X98885697Y-70538811D01*
X98878136Y-70574870D01*
X98874796Y-70606165D01*
X98873524Y-70639371D01*
X98873483Y-70646989D01*
X98873483Y-72411186D01*
X98557091Y-72411186D01*
X98557091Y-72708966D01*
X98873483Y-72708966D01*
X98873483Y-73354158D01*
X99244158Y-73354158D01*
X99244158Y-72708966D01*
X99630343Y-72708966D01*
G37*
G36*
X100038241Y-72708966D02*
G01*
X100382550Y-72708966D01*
X100382550Y-72285559D01*
X100414741Y-72336025D01*
X100446950Y-72383705D01*
X100479178Y-72428597D01*
X100511423Y-72470703D01*
X100543687Y-72510022D01*
X100575969Y-72546554D01*
X100608269Y-72580299D01*
X100640588Y-72611257D01*
X100672924Y-72639428D01*
X100705279Y-72664813D01*
X100737652Y-72687411D01*
X100770043Y-72707222D01*
X100802452Y-72724246D01*
X100834880Y-72738483D01*
X100867325Y-72749933D01*
X100899789Y-72758597D01*
X100933247Y-72764969D01*
X100967319Y-72769256D01*
X101002004Y-72771458D01*
X101021538Y-72771780D01*
X101056056Y-72770492D01*
X101090104Y-72767608D01*
X101124587Y-72763733D01*
X101157629Y-72759408D01*
X101163449Y-72758597D01*
X101163449Y-72361555D01*
X101124027Y-72360631D01*
X101086023Y-72359023D01*
X101049437Y-72356730D01*
X101014268Y-72353752D01*
X100980517Y-72350090D01*
X100948183Y-72345743D01*
X100917267Y-72340712D01*
X100873552Y-72331881D01*
X100833026Y-72321510D01*
X100795690Y-72309598D01*
X100761543Y-72296146D01*
X100730586Y-72281154D01*
X100702819Y-72264621D01*
X100677277Y-72245770D01*
X100676453Y-72245235D01*
X100644526Y-72220526D01*
X100614658Y-72193508D01*
X100586850Y-72164183D01*
X100561102Y-72132549D01*
X100537414Y-72098607D01*
X100515785Y-72062357D01*
X100496217Y-72023798D01*
X100478708Y-71982932D01*
X100463259Y-71939757D01*
X100449870Y-71894273D01*
X100438541Y-71846482D01*
X100429272Y-71796382D01*
X100422063Y-71743974D01*
X100416913Y-71689258D01*
X100413823Y-71632234D01*
X100412793Y-71572901D01*
X100412793Y-70376350D01*
X100038241Y-70376350D01*
X100038241Y-72708966D01*
G37*
G36*
X102572853Y-70277777D02*
G01*
X102615846Y-70279840D01*
X102658033Y-70283278D01*
X102699415Y-70288091D01*
X102739991Y-70294280D01*
X102779761Y-70301844D01*
X102818725Y-70310783D01*
X102856884Y-70321097D01*
X102894237Y-70332787D01*
X102930784Y-70345852D01*
X102966525Y-70360292D01*
X103001461Y-70376107D01*
X103035591Y-70393298D01*
X103068915Y-70411864D01*
X103101433Y-70431805D01*
X103133146Y-70453121D01*
X103161199Y-70473464D01*
X103188362Y-70494654D01*
X103214634Y-70516691D01*
X103240015Y-70539574D01*
X103264506Y-70563304D01*
X103288107Y-70587880D01*
X103310816Y-70613304D01*
X103332636Y-70639573D01*
X103353564Y-70666690D01*
X103373602Y-70694653D01*
X103392750Y-70723463D01*
X103411007Y-70753119D01*
X103428373Y-70783622D01*
X103444849Y-70814972D01*
X103460434Y-70847169D01*
X103475128Y-70880212D01*
X103488932Y-70914102D01*
X103501846Y-70948838D01*
X103513869Y-70984421D01*
X103525001Y-71020851D01*
X103535243Y-71058127D01*
X103544594Y-71096250D01*
X103553054Y-71135220D01*
X103560624Y-71175036D01*
X103567303Y-71215699D01*
X103573092Y-71257209D01*
X103577990Y-71299565D01*
X103581998Y-71342768D01*
X103585115Y-71386818D01*
X103587341Y-71431714D01*
X103588677Y-71477457D01*
X103589123Y-71524047D01*
X103588611Y-71574958D01*
X103587075Y-71624943D01*
X103584515Y-71674000D01*
X103580932Y-71722131D01*
X103576324Y-71769335D01*
X103570693Y-71815612D01*
X103564038Y-71860962D01*
X103556359Y-71905385D01*
X103547656Y-71948881D01*
X103537929Y-71991450D01*
X103527179Y-72033092D01*
X103515404Y-72073807D01*
X103502606Y-72113595D01*
X103488784Y-72152457D01*
X103473938Y-72190391D01*
X103458068Y-72227399D01*
X103441850Y-72263133D01*
X103424795Y-72297733D01*
X103406905Y-72331199D01*
X103388179Y-72363530D01*
X103368616Y-72394727D01*
X103348218Y-72424790D01*
X103326983Y-72453718D01*
X103304912Y-72481511D01*
X103282006Y-72508170D01*
X103258263Y-72533695D01*
X103233684Y-72558085D01*
X103208269Y-72581341D01*
X103182018Y-72603462D01*
X103154932Y-72624449D01*
X103127009Y-72644302D01*
X103098249Y-72663020D01*
X103068654Y-72680603D01*
X103038223Y-72697053D01*
X103006956Y-72712367D01*
X102974853Y-72726548D01*
X102941913Y-72739594D01*
X102908138Y-72751505D01*
X102873526Y-72762282D01*
X102838079Y-72771925D01*
X102801795Y-72780433D01*
X102764676Y-72787807D01*
X102726720Y-72794046D01*
X102687928Y-72799151D01*
X102648301Y-72803122D01*
X102607837Y-72805958D01*
X102566537Y-72807659D01*
X102524401Y-72808227D01*
X102482589Y-72807572D01*
X102441486Y-72805609D01*
X102401092Y-72802338D01*
X102361407Y-72797758D01*
X102322430Y-72791869D01*
X102284162Y-72784672D01*
X102246604Y-72776166D01*
X102209753Y-72766351D01*
X102173612Y-72755228D01*
X102138180Y-72742796D01*
X102103456Y-72729056D01*
X102069442Y-72714007D01*
X102036136Y-72697649D01*
X102003539Y-72679983D01*
X101971651Y-72661008D01*
X101940471Y-72640725D01*
X101911607Y-72620636D01*
X101883659Y-72599628D01*
X101856627Y-72577700D01*
X101830512Y-72554854D01*
X101805313Y-72531087D01*
X101781030Y-72506402D01*
X101757664Y-72480797D01*
X101735214Y-72454273D01*
X101713680Y-72426829D01*
X101693063Y-72398466D01*
X101673362Y-72369184D01*
X101654577Y-72338982D01*
X101636708Y-72307861D01*
X101619756Y-72275820D01*
X101603721Y-72242861D01*
X101588601Y-72208981D01*
X101574398Y-72174183D01*
X101561111Y-72138465D01*
X101548741Y-72101828D01*
X101537287Y-72064271D01*
X101526749Y-72025795D01*
X101517128Y-71986400D01*
X101508422Y-71946085D01*
X101500634Y-71904851D01*
X101493761Y-71862698D01*
X101487805Y-71819625D01*
X101482765Y-71775633D01*
X101478642Y-71730722D01*
X101475435Y-71684891D01*
X101473144Y-71638141D01*
X101471769Y-71590471D01*
X101471311Y-71541882D01*
X101859822Y-71541882D01*
X101860155Y-71577572D01*
X101861155Y-71612717D01*
X101862821Y-71647316D01*
X101865154Y-71681370D01*
X101868152Y-71714879D01*
X101871818Y-71747843D01*
X101876149Y-71780261D01*
X101881148Y-71812134D01*
X101886812Y-71843462D01*
X101893143Y-71874245D01*
X101903889Y-71919396D01*
X101916135Y-71963321D01*
X101929880Y-72006019D01*
X101945124Y-72047490D01*
X101967310Y-72097541D01*
X101991410Y-72144363D01*
X102017425Y-72187956D01*
X102045354Y-72228320D01*
X102075197Y-72265455D01*
X102106955Y-72299360D01*
X102140628Y-72330037D01*
X102176214Y-72357484D01*
X102213716Y-72381702D01*
X102253131Y-72402692D01*
X102294462Y-72420452D01*
X102337706Y-72434983D01*
X102382865Y-72446285D01*
X102429939Y-72454357D01*
X102478927Y-72459201D01*
X102529829Y-72460816D01*
X102540409Y-72460744D01*
X102571741Y-72459677D01*
X102612562Y-72456260D01*
X102652293Y-72450565D01*
X102690933Y-72442592D01*
X102728483Y-72432341D01*
X102764942Y-72419813D01*
X102800311Y-72405006D01*
X102834589Y-72387921D01*
X102857156Y-72374593D01*
X102900140Y-72345319D01*
X102940259Y-72312555D01*
X102977511Y-72276302D01*
X103011899Y-72236559D01*
X103043420Y-72193327D01*
X103072077Y-72146604D01*
X103097867Y-72096393D01*
X103120792Y-72042691D01*
X103140851Y-71985500D01*
X103149806Y-71955596D01*
X103158045Y-71924820D01*
X103165567Y-71893171D01*
X103172373Y-71860650D01*
X103178462Y-71827256D01*
X103183835Y-71792990D01*
X103188492Y-71757851D01*
X103192432Y-71721840D01*
X103195656Y-71684957D01*
X103198163Y-71647201D01*
X103199954Y-71608573D01*
X103201029Y-71569072D01*
X103201387Y-71528699D01*
X103201021Y-71491907D01*
X103199921Y-71455781D01*
X103198088Y-71420321D01*
X103195523Y-71385528D01*
X103192224Y-71351401D01*
X103188192Y-71317941D01*
X103183427Y-71285147D01*
X103177929Y-71253020D01*
X103171698Y-71221558D01*
X103164734Y-71190764D01*
X103152913Y-71145821D01*
X103139443Y-71102378D01*
X103124324Y-71060435D01*
X103107555Y-71019990D01*
X103084851Y-70972099D01*
X103060360Y-70927297D01*
X103034082Y-70885586D01*
X103006017Y-70846963D01*
X102976164Y-70811431D01*
X102944524Y-70778989D01*
X102911097Y-70749636D01*
X102875883Y-70723373D01*
X102838882Y-70700200D01*
X102800093Y-70680116D01*
X102759517Y-70663122D01*
X102717154Y-70649218D01*
X102673004Y-70638404D01*
X102627066Y-70630680D01*
X102579341Y-70626045D01*
X102529829Y-70624500D01*
X102518388Y-70624584D01*
X102484610Y-70625845D01*
X102451649Y-70628619D01*
X102419506Y-70632906D01*
X102388181Y-70638706D01*
X102357675Y-70646020D01*
X102318271Y-70658124D01*
X102280321Y-70672919D01*
X102243826Y-70690403D01*
X102208784Y-70710578D01*
X102187315Y-70724442D01*
X102146421Y-70754516D01*
X102108253Y-70787716D01*
X102072812Y-70824042D01*
X102040096Y-70863494D01*
X102010108Y-70906072D01*
X101982845Y-70951776D01*
X101958309Y-71000607D01*
X101936498Y-71052563D01*
X101917415Y-71107646D01*
X101901057Y-71165855D01*
X101893900Y-71196131D01*
X101887426Y-71227190D01*
X101881632Y-71259029D01*
X101876521Y-71291651D01*
X101872090Y-71325054D01*
X101868342Y-71359238D01*
X101865275Y-71394204D01*
X101862889Y-71429951D01*
X101861185Y-71466480D01*
X101860163Y-71503790D01*
X101859822Y-71541882D01*
X101471311Y-71541882D01*
X101471890Y-71488966D01*
X101473625Y-71437036D01*
X101476518Y-71386095D01*
X101480568Y-71336140D01*
X101485776Y-71287174D01*
X101492140Y-71239194D01*
X101499661Y-71192203D01*
X101508340Y-71146198D01*
X101518176Y-71101182D01*
X101529169Y-71057152D01*
X101541319Y-71014111D01*
X101554626Y-70972057D01*
X101569090Y-70930990D01*
X101584712Y-70890911D01*
X101601490Y-70851819D01*
X101619426Y-70813715D01*
X101636419Y-70780700D01*
X101654150Y-70748733D01*
X101672618Y-70717814D01*
X101691824Y-70687943D01*
X101711767Y-70659121D01*
X101732448Y-70631346D01*
X101753867Y-70604620D01*
X101776023Y-70578941D01*
X101798917Y-70554311D01*
X101822548Y-70530729D01*
X101846917Y-70508195D01*
X101872024Y-70486709D01*
X101897868Y-70466271D01*
X101924450Y-70446881D01*
X101951769Y-70428539D01*
X101979826Y-70411246D01*
X102008621Y-70395000D01*
X102038153Y-70379803D01*
X102068423Y-70365653D01*
X102099431Y-70352552D01*
X102131176Y-70340499D01*
X102163658Y-70329494D01*
X102196879Y-70319537D01*
X102230837Y-70310628D01*
X102265532Y-70302768D01*
X102300965Y-70295955D01*
X102337136Y-70290190D01*
X102374044Y-70285474D01*
X102411690Y-70281806D01*
X102450074Y-70279185D01*
X102489195Y-70277613D01*
X102529054Y-70277089D01*
X102572853Y-70277777D01*
G37*
G36*
X104003224Y-72758597D02*
G01*
X104348309Y-72758597D01*
X104348309Y-72366208D01*
X104378655Y-72412321D01*
X104409789Y-72455860D01*
X104441711Y-72496824D01*
X104474420Y-72535212D01*
X104507916Y-72571026D01*
X104542201Y-72604266D01*
X104577273Y-72634930D01*
X104613132Y-72663020D01*
X104649779Y-72688535D01*
X104687214Y-72711475D01*
X104725436Y-72731840D01*
X104764446Y-72749630D01*
X104804243Y-72764846D01*
X104844828Y-72777487D01*
X104886201Y-72787553D01*
X104928361Y-72795044D01*
X104962430Y-72799524D01*
X104997754Y-72803077D01*
X105034331Y-72805703D01*
X105065770Y-72807184D01*
X105098080Y-72808021D01*
X105124555Y-72808227D01*
X105182098Y-72806997D01*
X105237435Y-72803307D01*
X105290567Y-72797158D01*
X105341493Y-72788549D01*
X105390215Y-72777480D01*
X105436731Y-72763952D01*
X105481042Y-72747964D01*
X105523147Y-72729516D01*
X105563048Y-72708609D01*
X105600743Y-72685242D01*
X105636233Y-72659415D01*
X105669518Y-72631128D01*
X105700597Y-72600382D01*
X105729471Y-72567176D01*
X105756140Y-72531511D01*
X105780604Y-72493385D01*
X105795848Y-72465709D01*
X105809593Y-72437352D01*
X105821839Y-72408312D01*
X105832585Y-72378591D01*
X105841831Y-72348189D01*
X105849578Y-72317105D01*
X105855826Y-72285340D01*
X105860574Y-72252892D01*
X105863823Y-72219764D01*
X105865572Y-72185954D01*
X105865906Y-72163035D01*
X105865906Y-70376350D01*
X105495230Y-70376350D01*
X105495230Y-71999410D01*
X105494200Y-72037954D01*
X105491111Y-72074873D01*
X105485961Y-72110169D01*
X105478752Y-72143842D01*
X105469482Y-72175891D01*
X105458153Y-72206316D01*
X105444764Y-72235117D01*
X105429315Y-72262295D01*
X105402280Y-72300017D01*
X105370610Y-72334087D01*
X105346922Y-72354770D01*
X105321174Y-72373830D01*
X105293366Y-72391266D01*
X105263498Y-72407078D01*
X105231570Y-72421267D01*
X105201490Y-72432660D01*
X105169896Y-72442123D01*
X105136787Y-72449654D01*
X105102164Y-72455254D01*
X105066025Y-72458923D01*
X105028373Y-72460661D01*
X105012887Y-72460816D01*
X104966883Y-72459477D01*
X104922509Y-72455460D01*
X104879764Y-72448766D01*
X104838649Y-72439393D01*
X104799163Y-72427343D01*
X104761308Y-72412615D01*
X104725082Y-72395210D01*
X104690485Y-72375126D01*
X104657519Y-72352365D01*
X104626182Y-72326926D01*
X104596475Y-72298809D01*
X104568397Y-72268014D01*
X104541949Y-72234542D01*
X104517131Y-72198391D01*
X104493943Y-72159563D01*
X104472384Y-72118057D01*
X104455615Y-72082098D01*
X104440496Y-72044884D01*
X104427026Y-72006417D01*
X104415205Y-71966695D01*
X104405034Y-71925719D01*
X104396512Y-71883490D01*
X104389640Y-71840006D01*
X104384417Y-71795268D01*
X104380843Y-71749276D01*
X104379377Y-71717917D01*
X104378644Y-71686002D01*
X104378552Y-71669835D01*
X104378552Y-70376350D01*
X104003224Y-70376350D01*
X104003224Y-72758597D01*
G37*
G36*
X109472621Y-71914884D02*
G01*
X109098069Y-71914884D01*
X109089466Y-71971324D01*
X109078391Y-72024710D01*
X109064845Y-72075043D01*
X109048826Y-72122323D01*
X109030336Y-72166549D01*
X109009374Y-72207721D01*
X108985941Y-72245841D01*
X108960035Y-72280906D01*
X108931658Y-72312919D01*
X108900808Y-72341878D01*
X108867487Y-72367783D01*
X108831695Y-72390636D01*
X108793430Y-72410434D01*
X108752693Y-72427180D01*
X108709485Y-72440872D01*
X108663805Y-72451510D01*
X108543607Y-72460816D01*
X108492287Y-72459056D01*
X108443014Y-72453776D01*
X108395789Y-72444976D01*
X108350612Y-72432656D01*
X108307482Y-72416817D01*
X108266400Y-72397457D01*
X108227366Y-72374578D01*
X108190380Y-72348178D01*
X108155441Y-72318259D01*
X108122551Y-72284820D01*
X108091707Y-72247861D01*
X108062912Y-72207382D01*
X108036164Y-72163383D01*
X108011464Y-72115864D01*
X107988812Y-72064826D01*
X107968208Y-72010267D01*
X107955319Y-71970770D01*
X107943698Y-71929924D01*
X107933345Y-71887728D01*
X107924260Y-71844183D01*
X107916443Y-71799288D01*
X107909893Y-71753044D01*
X107906230Y-71721465D01*
X107903132Y-71689286D01*
X107900596Y-71656507D01*
X107898624Y-71623128D01*
X107897216Y-71589150D01*
X107896370Y-71554572D01*
X107896089Y-71519394D01*
X107896433Y-71481312D01*
X107897467Y-71444034D01*
X107899190Y-71407558D01*
X107901602Y-71371885D01*
X107904703Y-71337014D01*
X107908493Y-71302947D01*
X107912973Y-71269682D01*
X107918141Y-71237219D01*
X107923999Y-71205560D01*
X107930546Y-71174703D01*
X107945707Y-71115398D01*
X107963624Y-71059303D01*
X107984299Y-71006420D01*
X108007729Y-70956747D01*
X108033917Y-70910286D01*
X108062860Y-70867035D01*
X108094561Y-70826995D01*
X108129018Y-70790166D01*
X108166231Y-70756548D01*
X108206201Y-70726141D01*
X108248928Y-70698945D01*
X108281825Y-70681497D01*
X108316152Y-70666376D01*
X108351908Y-70653580D01*
X108389094Y-70643112D01*
X108427711Y-70634969D01*
X108467756Y-70629153D01*
X108498729Y-70626318D01*
X108530506Y-70624791D01*
X108552137Y-70624500D01*
X108610349Y-70626633D01*
X108665562Y-70633030D01*
X108717776Y-70643693D01*
X108766991Y-70658621D01*
X108813207Y-70677814D01*
X108856425Y-70701272D01*
X108896643Y-70728995D01*
X108933863Y-70760983D01*
X108968084Y-70797236D01*
X108999305Y-70837755D01*
X109027528Y-70882538D01*
X109052752Y-70931587D01*
X109074977Y-70984900D01*
X109094204Y-71042479D01*
X109102692Y-71072868D01*
X109110431Y-71104323D01*
X109117420Y-71136844D01*
X109123659Y-71170432D01*
X109498987Y-71170432D01*
X109495576Y-71133117D01*
X109491351Y-71096586D01*
X109486313Y-71060841D01*
X109480461Y-71025879D01*
X109473796Y-70991702D01*
X109466318Y-70958310D01*
X109458026Y-70925703D01*
X109448921Y-70893879D01*
X109439003Y-70862841D01*
X109428271Y-70832587D01*
X109416726Y-70803118D01*
X109404368Y-70774433D01*
X109377211Y-70719417D01*
X109346801Y-70667539D01*
X109313138Y-70618799D01*
X109276221Y-70573198D01*
X109236051Y-70530735D01*
X109192628Y-70491410D01*
X109145951Y-70455223D01*
X109096021Y-70422175D01*
X109042838Y-70392265D01*
X109015026Y-70378487D01*
X108986401Y-70365493D01*
X108949830Y-70349694D01*
X108912238Y-70335449D01*
X108873622Y-70322759D01*
X108833985Y-70311622D01*
X108793325Y-70302039D01*
X108751642Y-70294010D01*
X108708938Y-70287535D01*
X108665211Y-70282614D01*
X108620461Y-70279248D01*
X108574690Y-70277435D01*
X108543607Y-70277089D01*
X108507888Y-70277551D01*
X108472754Y-70278937D01*
X108438205Y-70281247D01*
X108404240Y-70284480D01*
X108370860Y-70288638D01*
X108338065Y-70293719D01*
X108305854Y-70299725D01*
X108274228Y-70306654D01*
X108243186Y-70314507D01*
X108212729Y-70323284D01*
X108182857Y-70332985D01*
X108153569Y-70343610D01*
X108096748Y-70367632D01*
X108042265Y-70395349D01*
X107990121Y-70426761D01*
X107940315Y-70461869D01*
X107892848Y-70500673D01*
X107847719Y-70543173D01*
X107826031Y-70565808D01*
X107804928Y-70589368D01*
X107784410Y-70613851D01*
X107764477Y-70639258D01*
X107745128Y-70665590D01*
X107726364Y-70692845D01*
X107708184Y-70721024D01*
X107690589Y-70750127D01*
X107668427Y-70789936D01*
X107647696Y-70830848D01*
X107628394Y-70872863D01*
X107610522Y-70915980D01*
X107594079Y-70960200D01*
X107579066Y-71005523D01*
X107565484Y-71051948D01*
X107553331Y-71099476D01*
X107542607Y-71148107D01*
X107533314Y-71197840D01*
X107525450Y-71248676D01*
X107519016Y-71300614D01*
X107514012Y-71353655D01*
X107510437Y-71407799D01*
X107508293Y-71463045D01*
X107507578Y-71519394D01*
X107507978Y-71564103D01*
X107509180Y-71608082D01*
X107511183Y-71651331D01*
X107513988Y-71693851D01*
X107517593Y-71735640D01*
X107522000Y-71776699D01*
X107527208Y-71817028D01*
X107533217Y-71856627D01*
X107540027Y-71895496D01*
X107547639Y-71933635D01*
X107556052Y-71971044D01*
X107565266Y-72007722D01*
X107575281Y-72043671D01*
X107586097Y-72078890D01*
X107597715Y-72113379D01*
X107610134Y-72147138D01*
X107623354Y-72180166D01*
X107637375Y-72212465D01*
X107652198Y-72244034D01*
X107667822Y-72274872D01*
X107684247Y-72304981D01*
X107701473Y-72334359D01*
X107719500Y-72363008D01*
X107738329Y-72390926D01*
X107757959Y-72418115D01*
X107778390Y-72444573D01*
X107799622Y-72470302D01*
X107821656Y-72495300D01*
X107844490Y-72519568D01*
X107868126Y-72543106D01*
X107892564Y-72565915D01*
X107917802Y-72587993D01*
X107951162Y-72614662D01*
X107985329Y-72639610D01*
X108020300Y-72662838D01*
X108056078Y-72684345D01*
X108092662Y-72704132D01*
X108130051Y-72722198D01*
X108168246Y-72738543D01*
X108207247Y-72753168D01*
X108247053Y-72766073D01*
X108287665Y-72777256D01*
X108329083Y-72786719D01*
X108371307Y-72794462D01*
X108414337Y-72800484D01*
X108458172Y-72804786D01*
X108502813Y-72807366D01*
X108548260Y-72808227D01*
X108606557Y-72806985D01*
X108663187Y-72803259D01*
X108718152Y-72797049D01*
X108771450Y-72788355D01*
X108823083Y-72777178D01*
X108873049Y-72763516D01*
X108921349Y-72747370D01*
X108967984Y-72728741D01*
X109012952Y-72707627D01*
X109056254Y-72684030D01*
X109097890Y-72657949D01*
X109137860Y-72629384D01*
X109176164Y-72598335D01*
X109212802Y-72564801D01*
X109247774Y-72528784D01*
X109281080Y-72490284D01*
X109299207Y-72464574D01*
X109315201Y-72442980D01*
X109338853Y-72404078D01*
X109360666Y-72362982D01*
X109374185Y-72334365D01*
X109386886Y-72304773D01*
X109398770Y-72274206D01*
X109409835Y-72242663D01*
X109420083Y-72210145D01*
X109429513Y-72176651D01*
X109438125Y-72142182D01*
X109445919Y-72106737D01*
X109452895Y-72070318D01*
X109459054Y-72032922D01*
X109464394Y-71994552D01*
X109468917Y-71955206D01*
X109472621Y-71914884D01*
G37*
G36*
X110851781Y-70277777D02*
G01*
X110894775Y-70279840D01*
X110936962Y-70283278D01*
X110978344Y-70288091D01*
X111018920Y-70294280D01*
X111058690Y-70301844D01*
X111097654Y-70310783D01*
X111135813Y-70321097D01*
X111173166Y-70332787D01*
X111209713Y-70345852D01*
X111245454Y-70360292D01*
X111280390Y-70376107D01*
X111314520Y-70393298D01*
X111347844Y-70411864D01*
X111380362Y-70431805D01*
X111412074Y-70453121D01*
X111440128Y-70473464D01*
X111467290Y-70494654D01*
X111493563Y-70516691D01*
X111518944Y-70539574D01*
X111543435Y-70563304D01*
X111567035Y-70587880D01*
X111589745Y-70613304D01*
X111611564Y-70639573D01*
X111632493Y-70666690D01*
X111652531Y-70694653D01*
X111671679Y-70723463D01*
X111689935Y-70753119D01*
X111707302Y-70783622D01*
X111723777Y-70814972D01*
X111739363Y-70847169D01*
X111754057Y-70880212D01*
X111767861Y-70914102D01*
X111780775Y-70948838D01*
X111792797Y-70984421D01*
X111803930Y-71020851D01*
X111814171Y-71058127D01*
X111823522Y-71096250D01*
X111831983Y-71135220D01*
X111839553Y-71175036D01*
X111846232Y-71215699D01*
X111852021Y-71257209D01*
X111856919Y-71299565D01*
X111860927Y-71342768D01*
X111864044Y-71386818D01*
X111866270Y-71431714D01*
X111867606Y-71477457D01*
X111868051Y-71524047D01*
X111867539Y-71574958D01*
X111866004Y-71624943D01*
X111863444Y-71674000D01*
X111859861Y-71722131D01*
X111855253Y-71769335D01*
X111849622Y-71815612D01*
X111842967Y-71860962D01*
X111835288Y-71905385D01*
X111826585Y-71948881D01*
X111816858Y-71991450D01*
X111806108Y-72033092D01*
X111794333Y-72073807D01*
X111781535Y-72113595D01*
X111767713Y-72152457D01*
X111752867Y-72190391D01*
X111736997Y-72227399D01*
X111720779Y-72263133D01*
X111703724Y-72297733D01*
X111685834Y-72331199D01*
X111667107Y-72363530D01*
X111647545Y-72394727D01*
X111627146Y-72424790D01*
X111605912Y-72453718D01*
X111583841Y-72481511D01*
X111560935Y-72508170D01*
X111537192Y-72533695D01*
X111512613Y-72558085D01*
X111487198Y-72581341D01*
X111460947Y-72603462D01*
X111433860Y-72624449D01*
X111405937Y-72644302D01*
X111377178Y-72663020D01*
X111347583Y-72680603D01*
X111317152Y-72697053D01*
X111285885Y-72712367D01*
X111253781Y-72726548D01*
X111220842Y-72739594D01*
X111187067Y-72751505D01*
X111152455Y-72762282D01*
X111117008Y-72771925D01*
X111080724Y-72780433D01*
X111043605Y-72787807D01*
X111005649Y-72794046D01*
X110966857Y-72799151D01*
X110927229Y-72803122D01*
X110886766Y-72805958D01*
X110845466Y-72807659D01*
X110803330Y-72808227D01*
X110761518Y-72807572D01*
X110720415Y-72805609D01*
X110680021Y-72802338D01*
X110640335Y-72797758D01*
X110601359Y-72791869D01*
X110563091Y-72784672D01*
X110525532Y-72776166D01*
X110488682Y-72766351D01*
X110452541Y-72755228D01*
X110417109Y-72742796D01*
X110382385Y-72729056D01*
X110348371Y-72714007D01*
X110315065Y-72697649D01*
X110282468Y-72679983D01*
X110250579Y-72661008D01*
X110219400Y-72640725D01*
X110190536Y-72620636D01*
X110162588Y-72599628D01*
X110135556Y-72577700D01*
X110109441Y-72554854D01*
X110084242Y-72531087D01*
X110059959Y-72506402D01*
X110036593Y-72480797D01*
X110014142Y-72454273D01*
X109992609Y-72426829D01*
X109971991Y-72398466D01*
X109952290Y-72369184D01*
X109933506Y-72338982D01*
X109915637Y-72307861D01*
X109898685Y-72275820D01*
X109882649Y-72242861D01*
X109867530Y-72208981D01*
X109853327Y-72174183D01*
X109840040Y-72138465D01*
X109827670Y-72101828D01*
X109816216Y-72064271D01*
X109805678Y-72025795D01*
X109796056Y-71986400D01*
X109787351Y-71946085D01*
X109779563Y-71904851D01*
X109772690Y-71862698D01*
X109766734Y-71819625D01*
X109761694Y-71775633D01*
X109757571Y-71730722D01*
X109754363Y-71684891D01*
X109752073Y-71638141D01*
X109750698Y-71590471D01*
X109750240Y-71541882D01*
X110138751Y-71541882D01*
X110139084Y-71577572D01*
X110140084Y-71612717D01*
X110141750Y-71647316D01*
X110144082Y-71681370D01*
X110147081Y-71714879D01*
X110150747Y-71747843D01*
X110155078Y-71780261D01*
X110160076Y-71812134D01*
X110165741Y-71843462D01*
X110172072Y-71874245D01*
X110182818Y-71919396D01*
X110195064Y-71963321D01*
X110208808Y-72006019D01*
X110224053Y-72047490D01*
X110246239Y-72097541D01*
X110270339Y-72144363D01*
X110296353Y-72187956D01*
X110324282Y-72228320D01*
X110354126Y-72265455D01*
X110385884Y-72299360D01*
X110419556Y-72330037D01*
X110455143Y-72357484D01*
X110492644Y-72381702D01*
X110532060Y-72402692D01*
X110573390Y-72420452D01*
X110616635Y-72434983D01*
X110661794Y-72446285D01*
X110708868Y-72454357D01*
X110757856Y-72459201D01*
X110808758Y-72460816D01*
X110819338Y-72460744D01*
X110850670Y-72459677D01*
X110891491Y-72456260D01*
X110931222Y-72450565D01*
X110969862Y-72442592D01*
X111007412Y-72432341D01*
X111043871Y-72419813D01*
X111079240Y-72405006D01*
X111113518Y-72387921D01*
X111136085Y-72374593D01*
X111179069Y-72345319D01*
X111219187Y-72312555D01*
X111256440Y-72276302D01*
X111290828Y-72236559D01*
X111322349Y-72193327D01*
X111351005Y-72146604D01*
X111376796Y-72096393D01*
X111399721Y-72042691D01*
X111419780Y-71985500D01*
X111428735Y-71955596D01*
X111436974Y-71924820D01*
X111444496Y-71893171D01*
X111451302Y-71860650D01*
X111457391Y-71827256D01*
X111462764Y-71792990D01*
X111467421Y-71757851D01*
X111471361Y-71721840D01*
X111474585Y-71684957D01*
X111477092Y-71647201D01*
X111478883Y-71608573D01*
X111479958Y-71569072D01*
X111480316Y-71528699D01*
X111479949Y-71491907D01*
X111478850Y-71455781D01*
X111477017Y-71420321D01*
X111474451Y-71385528D01*
X111471153Y-71351401D01*
X111467121Y-71317941D01*
X111462356Y-71285147D01*
X111456858Y-71253020D01*
X111450627Y-71221558D01*
X111443663Y-71190764D01*
X111431842Y-71145821D01*
X111418372Y-71102378D01*
X111403253Y-71060435D01*
X111386484Y-71019990D01*
X111363780Y-70972099D01*
X111339289Y-70927297D01*
X111313011Y-70885586D01*
X111284946Y-70846963D01*
X111255093Y-70811431D01*
X111223453Y-70778989D01*
X111190026Y-70749636D01*
X111154812Y-70723373D01*
X111117810Y-70700200D01*
X111079022Y-70680116D01*
X111038446Y-70663122D01*
X110996083Y-70649218D01*
X110951932Y-70638404D01*
X110905995Y-70630680D01*
X110858270Y-70626045D01*
X110808758Y-70624500D01*
X110797317Y-70624584D01*
X110763538Y-70625845D01*
X110730578Y-70628619D01*
X110698435Y-70632906D01*
X110667110Y-70638706D01*
X110636603Y-70646020D01*
X110597200Y-70658124D01*
X110559250Y-70672919D01*
X110522755Y-70690403D01*
X110487713Y-70710578D01*
X110466244Y-70724442D01*
X110425350Y-70754516D01*
X110387182Y-70787716D01*
X110351740Y-70824042D01*
X110319025Y-70863494D01*
X110289036Y-70906072D01*
X110261774Y-70951776D01*
X110237237Y-71000607D01*
X110215427Y-71052563D01*
X110196343Y-71107646D01*
X110179986Y-71165855D01*
X110172829Y-71196131D01*
X110166354Y-71227190D01*
X110160561Y-71259029D01*
X110155449Y-71291651D01*
X110151019Y-71325054D01*
X110147271Y-71359238D01*
X110144204Y-71394204D01*
X110141818Y-71429951D01*
X110140114Y-71466480D01*
X110139092Y-71503790D01*
X110138751Y-71541882D01*
X109750240Y-71541882D01*
X109750819Y-71488966D01*
X109752554Y-71437036D01*
X109755447Y-71386095D01*
X109759497Y-71336140D01*
X109764704Y-71287174D01*
X109771069Y-71239194D01*
X109778590Y-71192203D01*
X109787269Y-71146198D01*
X109797105Y-71101182D01*
X109808097Y-71057152D01*
X109820247Y-71014111D01*
X109833555Y-70972057D01*
X109848019Y-70930990D01*
X109863641Y-70890911D01*
X109880419Y-70851819D01*
X109898355Y-70813715D01*
X109915348Y-70780700D01*
X109933079Y-70748733D01*
X109951547Y-70717814D01*
X109970752Y-70687943D01*
X109990696Y-70659121D01*
X110011377Y-70631346D01*
X110032795Y-70604620D01*
X110054952Y-70578941D01*
X110077845Y-70554311D01*
X110101477Y-70530729D01*
X110125846Y-70508195D01*
X110150953Y-70486709D01*
X110176797Y-70466271D01*
X110203379Y-70446881D01*
X110230698Y-70428539D01*
X110258755Y-70411246D01*
X110287550Y-70395000D01*
X110317082Y-70379803D01*
X110347352Y-70365653D01*
X110378359Y-70352552D01*
X110410105Y-70340499D01*
X110442587Y-70329494D01*
X110475808Y-70319537D01*
X110509765Y-70310628D01*
X110544461Y-70302768D01*
X110579894Y-70295955D01*
X110616065Y-70290190D01*
X110652973Y-70285474D01*
X110690619Y-70281806D01*
X110729003Y-70279185D01*
X110768124Y-70277613D01*
X110807983Y-70277089D01*
X110851781Y-70277777D01*
G37*
G36*
X112648951Y-73651939D02*
G01*
X112648951Y-70376350D01*
X112273623Y-70376350D01*
X112273623Y-73651939D01*
X112648951Y-73651939D01*
G37*
G36*
X114178779Y-70277398D02*
G01*
X114223222Y-70279020D01*
X114266874Y-70282033D01*
X114309736Y-70286436D01*
X114351806Y-70292229D01*
X114393087Y-70299413D01*
X114433576Y-70307987D01*
X114473275Y-70317951D01*
X114512184Y-70329306D01*
X114550301Y-70342052D01*
X114587628Y-70356187D01*
X114644168Y-70380881D01*
X114697854Y-70408241D01*
X114748687Y-70438266D01*
X114796666Y-70470957D01*
X114841792Y-70506314D01*
X114884064Y-70544336D01*
X114923483Y-70585024D01*
X114960048Y-70628378D01*
X114993760Y-70674397D01*
X115024618Y-70723082D01*
X115052623Y-70774433D01*
X115077775Y-70828449D01*
X115100072Y-70885131D01*
X115110151Y-70914472D01*
X115119517Y-70944479D01*
X115128169Y-70975152D01*
X115136108Y-71006492D01*
X115143333Y-71038499D01*
X115149845Y-71071172D01*
X114775292Y-71071172D01*
X114754458Y-71017082D01*
X114731309Y-70966483D01*
X114705845Y-70919373D01*
X114678068Y-70875753D01*
X114647976Y-70835622D01*
X114615570Y-70798981D01*
X114580849Y-70765830D01*
X114543814Y-70736168D01*
X114504465Y-70709996D01*
X114462802Y-70687313D01*
X114418824Y-70668120D01*
X114372532Y-70652417D01*
X114323926Y-70640204D01*
X114273005Y-70631479D01*
X114219770Y-70626245D01*
X114164221Y-70624500D01*
X114118583Y-70625673D01*
X114074339Y-70629189D01*
X114031488Y-70635051D01*
X113990031Y-70643257D01*
X113949967Y-70653808D01*
X113911296Y-70666703D01*
X113874019Y-70681943D01*
X113838136Y-70699527D01*
X113803645Y-70719456D01*
X113770548Y-70741730D01*
X113738845Y-70766348D01*
X113708535Y-70793311D01*
X113679618Y-70822618D01*
X113652095Y-70854270D01*
X113625966Y-70888266D01*
X113601229Y-70924608D01*
X113586468Y-70947257D01*
X113566041Y-70983287D01*
X113547673Y-71021784D01*
X113531363Y-71062748D01*
X113517112Y-71106180D01*
X113508754Y-71136505D01*
X113501312Y-71167927D01*
X113494784Y-71200445D01*
X113489171Y-71234060D01*
X113484472Y-71268771D01*
X113480689Y-71304579D01*
X113477820Y-71341484D01*
X113475866Y-71379485D01*
X113474827Y-71418583D01*
X115200250Y-71418583D01*
X115200159Y-71450267D01*
X115199884Y-71481441D01*
X115198784Y-71542258D01*
X115196952Y-71601033D01*
X115194386Y-71657767D01*
X115191087Y-71712459D01*
X115187055Y-71765109D01*
X115182290Y-71815718D01*
X115176792Y-71864285D01*
X115170561Y-71910810D01*
X115163597Y-71955293D01*
X115155900Y-71997735D01*
X115147470Y-72038135D01*
X115138307Y-72076494D01*
X115128410Y-72112811D01*
X115117781Y-72147086D01*
X115106418Y-72179320D01*
X115092290Y-72214349D01*
X115077048Y-72248482D01*
X115060690Y-72281718D01*
X115043218Y-72314058D01*
X115024631Y-72345501D01*
X115004929Y-72376047D01*
X114984112Y-72405697D01*
X114962181Y-72434450D01*
X114925061Y-72479712D01*
X114886209Y-72522054D01*
X114845624Y-72561475D01*
X114803306Y-72597977D01*
X114759256Y-72631559D01*
X114713473Y-72662220D01*
X114665957Y-72689961D01*
X114616709Y-72714782D01*
X114565727Y-72736683D01*
X114513014Y-72755664D01*
X114458567Y-72771725D01*
X114402388Y-72784866D01*
X114344476Y-72795086D01*
X114284831Y-72802386D01*
X114223454Y-72806767D01*
X114192115Y-72807862D01*
X114160344Y-72808227D01*
X114112540Y-72807366D01*
X114065676Y-72804786D01*
X114019750Y-72800484D01*
X113974764Y-72794462D01*
X113930717Y-72786719D01*
X113887608Y-72777256D01*
X113845439Y-72766073D01*
X113804209Y-72753168D01*
X113763918Y-72738543D01*
X113724565Y-72722198D01*
X113686152Y-72704132D01*
X113648678Y-72684345D01*
X113612143Y-72662838D01*
X113576547Y-72639610D01*
X113541891Y-72614662D01*
X113508173Y-72587993D01*
X113482266Y-72565924D01*
X113457182Y-72543143D01*
X113432921Y-72519650D01*
X113409482Y-72495445D01*
X113386865Y-72470529D01*
X113365071Y-72444900D01*
X113344099Y-72418560D01*
X113323950Y-72391508D01*
X113304623Y-72363744D01*
X113286118Y-72335268D01*
X113268436Y-72306080D01*
X113251577Y-72276181D01*
X113235539Y-72245569D01*
X113220324Y-72214246D01*
X113205932Y-72182211D01*
X113192362Y-72149464D01*
X113179615Y-72116005D01*
X113167689Y-72081834D01*
X113156587Y-72046952D01*
X113146306Y-72011357D01*
X113136849Y-71975051D01*
X113128213Y-71938033D01*
X113120400Y-71900303D01*
X113113409Y-71861861D01*
X113107241Y-71822707D01*
X113101896Y-71782842D01*
X113097372Y-71742264D01*
X113095050Y-71716363D01*
X113484133Y-71716363D01*
X113486550Y-71744814D01*
X113491244Y-71786580D01*
X113497219Y-71827256D01*
X113504476Y-71866841D01*
X113513013Y-71905336D01*
X113522832Y-71942740D01*
X113533933Y-71979054D01*
X113546315Y-72014278D01*
X113559978Y-72048410D01*
X113574922Y-72081453D01*
X113591148Y-72113405D01*
X113614791Y-72155474D01*
X113639966Y-72194829D01*
X113666675Y-72231470D01*
X113694916Y-72265397D01*
X113724690Y-72296610D01*
X113755996Y-72325108D01*
X113788836Y-72350893D01*
X113823208Y-72373963D01*
X113859113Y-72394319D01*
X113896550Y-72411961D01*
X113935521Y-72426889D01*
X113976024Y-72439102D01*
X114018060Y-72448602D01*
X114061629Y-72455387D01*
X114106730Y-72459459D01*
X114153365Y-72460816D01*
X114180227Y-72460292D01*
X114219840Y-72457540D01*
X114258635Y-72452431D01*
X114296612Y-72444963D01*
X114333771Y-72435137D01*
X114370112Y-72422953D01*
X114405635Y-72408411D01*
X114440340Y-72391510D01*
X114474228Y-72372251D01*
X114507297Y-72350634D01*
X114539549Y-72326659D01*
X114571195Y-72299945D01*
X114600799Y-72271952D01*
X114628362Y-72242681D01*
X114653883Y-72212132D01*
X114677362Y-72180304D01*
X114698799Y-72147198D01*
X114718195Y-72112814D01*
X114735549Y-72077151D01*
X114750862Y-72040210D01*
X114764133Y-72001991D01*
X114775362Y-71962494D01*
X114784550Y-71921718D01*
X114791695Y-71879664D01*
X114796800Y-71836331D01*
X114799862Y-71791720D01*
X114800883Y-71745831D01*
X114797006Y-71716363D01*
X113484133Y-71716363D01*
X113095050Y-71716363D01*
X113093671Y-71700975D01*
X113090793Y-71658974D01*
X113088737Y-71616261D01*
X113087503Y-71572836D01*
X113087092Y-71528699D01*
X113087773Y-71472853D01*
X113089818Y-71418146D01*
X113093226Y-71364578D01*
X113097997Y-71312149D01*
X113104131Y-71260859D01*
X113111628Y-71210708D01*
X113120489Y-71161696D01*
X113130712Y-71113822D01*
X113142299Y-71067088D01*
X113155249Y-71021493D01*
X113169561Y-70977037D01*
X113185237Y-70933719D01*
X113202277Y-70891541D01*
X113220679Y-70850502D01*
X113240444Y-70810601D01*
X113261573Y-70771840D01*
X113279483Y-70741401D01*
X113298026Y-70711929D01*
X113317202Y-70683422D01*
X113337012Y-70655883D01*
X113357454Y-70629309D01*
X113378530Y-70603702D01*
X113400238Y-70579061D01*
X113422580Y-70555386D01*
X113445555Y-70532678D01*
X113469163Y-70510936D01*
X113493404Y-70490160D01*
X113518278Y-70470351D01*
X113543785Y-70451508D01*
X113569926Y-70433631D01*
X113596699Y-70416721D01*
X113624106Y-70400777D01*
X113652145Y-70385799D01*
X113680818Y-70371788D01*
X113710124Y-70358742D01*
X113740063Y-70346663D01*
X113770635Y-70335551D01*
X113801840Y-70325405D01*
X113833678Y-70316225D01*
X113866149Y-70308011D01*
X113899254Y-70300764D01*
X113932991Y-70294483D01*
X113967362Y-70289168D01*
X114002366Y-70284820D01*
X114038003Y-70281438D01*
X114074273Y-70279022D01*
X114111176Y-70277572D01*
X114148712Y-70277089D01*
X114178779Y-70277398D01*
G37*
G36*
X117481686Y-71914884D02*
G01*
X117107134Y-71914884D01*
X117098531Y-71971324D01*
X117087456Y-72024710D01*
X117073910Y-72075043D01*
X117057891Y-72122323D01*
X117039401Y-72166549D01*
X117018439Y-72207721D01*
X116995005Y-72245841D01*
X116969100Y-72280906D01*
X116940723Y-72312919D01*
X116909873Y-72341878D01*
X116876552Y-72367783D01*
X116840759Y-72390636D01*
X116802495Y-72410434D01*
X116761758Y-72427180D01*
X116718550Y-72440872D01*
X116672870Y-72451510D01*
X116552672Y-72460816D01*
X116501352Y-72459056D01*
X116452079Y-72453776D01*
X116404854Y-72444976D01*
X116359677Y-72432656D01*
X116316547Y-72416817D01*
X116275465Y-72397457D01*
X116236431Y-72374578D01*
X116199445Y-72348178D01*
X116164506Y-72318259D01*
X116131615Y-72284820D01*
X116100772Y-72247861D01*
X116071977Y-72207382D01*
X116045229Y-72163383D01*
X116020529Y-72115864D01*
X115997877Y-72064826D01*
X115977272Y-72010267D01*
X115964384Y-71970770D01*
X115952763Y-71929924D01*
X115942410Y-71887728D01*
X115933325Y-71844183D01*
X115925507Y-71799288D01*
X115918958Y-71753044D01*
X115915295Y-71721465D01*
X115912197Y-71689286D01*
X115909661Y-71656507D01*
X115907689Y-71623128D01*
X115906281Y-71589150D01*
X115905435Y-71554572D01*
X115905154Y-71519394D01*
X115905498Y-71481312D01*
X115906532Y-71444034D01*
X115908255Y-71407558D01*
X115910667Y-71371885D01*
X115913768Y-71337014D01*
X115917558Y-71302947D01*
X115922038Y-71269682D01*
X115927206Y-71237219D01*
X115933064Y-71205560D01*
X115939611Y-71174703D01*
X115954772Y-71115398D01*
X115972689Y-71059303D01*
X115993363Y-71006420D01*
X116016794Y-70956747D01*
X116042982Y-70910286D01*
X116071925Y-70867035D01*
X116103626Y-70826995D01*
X116138083Y-70790166D01*
X116175296Y-70756548D01*
X116215266Y-70726141D01*
X116257993Y-70698945D01*
X116290890Y-70681497D01*
X116325217Y-70666376D01*
X116360973Y-70653580D01*
X116398159Y-70643112D01*
X116436775Y-70634969D01*
X116476821Y-70629153D01*
X116507794Y-70626318D01*
X116539571Y-70624791D01*
X116561202Y-70624500D01*
X116619414Y-70626633D01*
X116674627Y-70633030D01*
X116726841Y-70643693D01*
X116776056Y-70658621D01*
X116822272Y-70677814D01*
X116865490Y-70701272D01*
X116905708Y-70728995D01*
X116942928Y-70760983D01*
X116977148Y-70797236D01*
X117008370Y-70837755D01*
X117036593Y-70882538D01*
X117061817Y-70931587D01*
X117084042Y-70984900D01*
X117103269Y-71042479D01*
X117111757Y-71072868D01*
X117119496Y-71104323D01*
X117126485Y-71136844D01*
X117132724Y-71170432D01*
X117508052Y-71170432D01*
X117504641Y-71133117D01*
X117500416Y-71096586D01*
X117495377Y-71060841D01*
X117489526Y-71025879D01*
X117482861Y-70991702D01*
X117475383Y-70958310D01*
X117467091Y-70925703D01*
X117457986Y-70893879D01*
X117448068Y-70862841D01*
X117437336Y-70832587D01*
X117425791Y-70803118D01*
X117413433Y-70774433D01*
X117386276Y-70719417D01*
X117355866Y-70667539D01*
X117322203Y-70618799D01*
X117285286Y-70573198D01*
X117245116Y-70530735D01*
X117201693Y-70491410D01*
X117155016Y-70455223D01*
X117105086Y-70422175D01*
X117051903Y-70392265D01*
X117024091Y-70378487D01*
X116995466Y-70365493D01*
X116958895Y-70349694D01*
X116921302Y-70335449D01*
X116882687Y-70322759D01*
X116843050Y-70311622D01*
X116802390Y-70302039D01*
X116760707Y-70294010D01*
X116718003Y-70287535D01*
X116674276Y-70282614D01*
X116629526Y-70279248D01*
X116583754Y-70277435D01*
X116552672Y-70277089D01*
X116516953Y-70277551D01*
X116481819Y-70278937D01*
X116447270Y-70281247D01*
X116413305Y-70284480D01*
X116379925Y-70288638D01*
X116347130Y-70293719D01*
X116314919Y-70299725D01*
X116283293Y-70306654D01*
X116252251Y-70314507D01*
X116221794Y-70323284D01*
X116191922Y-70332985D01*
X116162634Y-70343610D01*
X116105813Y-70367632D01*
X116051330Y-70395349D01*
X115999186Y-70426761D01*
X115949380Y-70461869D01*
X115901912Y-70500673D01*
X115856784Y-70543173D01*
X115835096Y-70565808D01*
X115813993Y-70589368D01*
X115793475Y-70613851D01*
X115773542Y-70639258D01*
X115754193Y-70665590D01*
X115735428Y-70692845D01*
X115717249Y-70721024D01*
X115699654Y-70750127D01*
X115677492Y-70789936D01*
X115656761Y-70830848D01*
X115637459Y-70872863D01*
X115619586Y-70915980D01*
X115603144Y-70960200D01*
X115588131Y-71005523D01*
X115574549Y-71051948D01*
X115562395Y-71099476D01*
X115551672Y-71148107D01*
X115542379Y-71197840D01*
X115534515Y-71248676D01*
X115528081Y-71300614D01*
X115523077Y-71353655D01*
X115519502Y-71407799D01*
X115517358Y-71463045D01*
X115516643Y-71519394D01*
X115517043Y-71564103D01*
X115518245Y-71608082D01*
X115520248Y-71651331D01*
X115523052Y-71693851D01*
X115526658Y-71735640D01*
X115531065Y-71776699D01*
X115536273Y-71817028D01*
X115542282Y-71856627D01*
X115549092Y-71895496D01*
X115556704Y-71933635D01*
X115565116Y-71971044D01*
X115574330Y-72007722D01*
X115584346Y-72043671D01*
X115595162Y-72078890D01*
X115606780Y-72113379D01*
X115619199Y-72147138D01*
X115632419Y-72180166D01*
X115646440Y-72212465D01*
X115661263Y-72244034D01*
X115676886Y-72274872D01*
X115693311Y-72304981D01*
X115710538Y-72334359D01*
X115728565Y-72363008D01*
X115747394Y-72390926D01*
X115767024Y-72418115D01*
X115787455Y-72444573D01*
X115808687Y-72470302D01*
X115830721Y-72495300D01*
X115853555Y-72519568D01*
X115877191Y-72543106D01*
X115901628Y-72565915D01*
X115926867Y-72587993D01*
X115960227Y-72614662D01*
X115994393Y-72639610D01*
X116029365Y-72662838D01*
X116065143Y-72684345D01*
X116101726Y-72704132D01*
X116139116Y-72722198D01*
X116177311Y-72738543D01*
X116216311Y-72753168D01*
X116256118Y-72766073D01*
X116296730Y-72777256D01*
X116338148Y-72786719D01*
X116380372Y-72794462D01*
X116423402Y-72800484D01*
X116467237Y-72804786D01*
X116511878Y-72807366D01*
X116557325Y-72808227D01*
X116615621Y-72806985D01*
X116672252Y-72803259D01*
X116727217Y-72797049D01*
X116780515Y-72788355D01*
X116832147Y-72777178D01*
X116882114Y-72763516D01*
X116930414Y-72747370D01*
X116977048Y-72728741D01*
X117022017Y-72707627D01*
X117065319Y-72684030D01*
X117106955Y-72657949D01*
X117146925Y-72629384D01*
X117185229Y-72598335D01*
X117221867Y-72564801D01*
X117256839Y-72528784D01*
X117290145Y-72490284D01*
X117308272Y-72464574D01*
X117324266Y-72442980D01*
X117347918Y-72404078D01*
X117369731Y-72362982D01*
X117383250Y-72334365D01*
X117395951Y-72304773D01*
X117407835Y-72274206D01*
X117418900Y-72242663D01*
X117429148Y-72210145D01*
X117438578Y-72176651D01*
X117447190Y-72142182D01*
X117454984Y-72106737D01*
X117461960Y-72070318D01*
X117468119Y-72032922D01*
X117473459Y-71994552D01*
X117477982Y-71955206D01*
X117481686Y-71914884D01*
G37*
G36*
X118860846Y-70277777D02*
G01*
X118903840Y-70279840D01*
X118946027Y-70283278D01*
X118987409Y-70288091D01*
X119027985Y-70294280D01*
X119067755Y-70301844D01*
X119106719Y-70310783D01*
X119144878Y-70321097D01*
X119182231Y-70332787D01*
X119218778Y-70345852D01*
X119254519Y-70360292D01*
X119289455Y-70376107D01*
X119323584Y-70393298D01*
X119356909Y-70411864D01*
X119389427Y-70431805D01*
X119421139Y-70453121D01*
X119449193Y-70473464D01*
X119476355Y-70494654D01*
X119502627Y-70516691D01*
X119528009Y-70539574D01*
X119552500Y-70563304D01*
X119576100Y-70587880D01*
X119598810Y-70613304D01*
X119620629Y-70639573D01*
X119641558Y-70666690D01*
X119661596Y-70694653D01*
X119680743Y-70723463D01*
X119699000Y-70753119D01*
X119716367Y-70783622D01*
X119732842Y-70814972D01*
X119748428Y-70847169D01*
X119763122Y-70880212D01*
X119776926Y-70914102D01*
X119789839Y-70948838D01*
X119801862Y-70984421D01*
X119812995Y-71020851D01*
X119823236Y-71058127D01*
X119832587Y-71096250D01*
X119841048Y-71135220D01*
X119848618Y-71175036D01*
X119855297Y-71215699D01*
X119861086Y-71257209D01*
X119865984Y-71299565D01*
X119869992Y-71342768D01*
X119873109Y-71386818D01*
X119875335Y-71431714D01*
X119876671Y-71477457D01*
X119877116Y-71524047D01*
X119876604Y-71574958D01*
X119875069Y-71624943D01*
X119872509Y-71674000D01*
X119868925Y-71722131D01*
X119864318Y-71769335D01*
X119858687Y-71815612D01*
X119852032Y-71860962D01*
X119844353Y-71905385D01*
X119835650Y-71948881D01*
X119825923Y-71991450D01*
X119815173Y-72033092D01*
X119803398Y-72073807D01*
X119790600Y-72113595D01*
X119776778Y-72152457D01*
X119761932Y-72190391D01*
X119746062Y-72227399D01*
X119729843Y-72263133D01*
X119712789Y-72297733D01*
X119694899Y-72331199D01*
X119676172Y-72363530D01*
X119656610Y-72394727D01*
X119636211Y-72424790D01*
X119614977Y-72453718D01*
X119592906Y-72481511D01*
X119569999Y-72508170D01*
X119546257Y-72533695D01*
X119521678Y-72558085D01*
X119496263Y-72581341D01*
X119470012Y-72603462D01*
X119442925Y-72624449D01*
X119415002Y-72644302D01*
X119386243Y-72663020D01*
X119356648Y-72680603D01*
X119326217Y-72697053D01*
X119294950Y-72712367D01*
X119262846Y-72726548D01*
X119229907Y-72739594D01*
X119196132Y-72751505D01*
X119161520Y-72762282D01*
X119126073Y-72771925D01*
X119089789Y-72780433D01*
X119052669Y-72787807D01*
X119014714Y-72794046D01*
X118975922Y-72799151D01*
X118936294Y-72803122D01*
X118895830Y-72805958D01*
X118854531Y-72807659D01*
X118812395Y-72808227D01*
X118770583Y-72807572D01*
X118729480Y-72805609D01*
X118689086Y-72802338D01*
X118649400Y-72797758D01*
X118610424Y-72791869D01*
X118572156Y-72784672D01*
X118534597Y-72776166D01*
X118497747Y-72766351D01*
X118461606Y-72755228D01*
X118426174Y-72742796D01*
X118391450Y-72729056D01*
X118357435Y-72714007D01*
X118324130Y-72697649D01*
X118291532Y-72679983D01*
X118259644Y-72661008D01*
X118228465Y-72640725D01*
X118199601Y-72620636D01*
X118171653Y-72599628D01*
X118144621Y-72577700D01*
X118118506Y-72554854D01*
X118093306Y-72531087D01*
X118069024Y-72506402D01*
X118045657Y-72480797D01*
X118023207Y-72454273D01*
X118001674Y-72426829D01*
X117981056Y-72398466D01*
X117961355Y-72369184D01*
X117942571Y-72338982D01*
X117924702Y-72307861D01*
X117907750Y-72275820D01*
X117891714Y-72242861D01*
X117876595Y-72208981D01*
X117862392Y-72174183D01*
X117849105Y-72138465D01*
X117836735Y-72101828D01*
X117825281Y-72064271D01*
X117814743Y-72025795D01*
X117805121Y-71986400D01*
X117796416Y-71946085D01*
X117788627Y-71904851D01*
X117781755Y-71862698D01*
X117775799Y-71819625D01*
X117770759Y-71775633D01*
X117766636Y-71730722D01*
X117763428Y-71684891D01*
X117761138Y-71638141D01*
X117759763Y-71590471D01*
X117759305Y-71541882D01*
X118147816Y-71541882D01*
X118148149Y-71577572D01*
X118149149Y-71612717D01*
X118150815Y-71647316D01*
X118153147Y-71681370D01*
X118156146Y-71714879D01*
X118159811Y-71747843D01*
X118164143Y-71780261D01*
X118169141Y-71812134D01*
X118174806Y-71843462D01*
X118181137Y-71874245D01*
X118191883Y-71919396D01*
X118204128Y-71963321D01*
X118217873Y-72006019D01*
X118233118Y-72047490D01*
X118255303Y-72097541D01*
X118279404Y-72144363D01*
X118305418Y-72187956D01*
X118333347Y-72228320D01*
X118363191Y-72265455D01*
X118394949Y-72299360D01*
X118428621Y-72330037D01*
X118464208Y-72357484D01*
X118501709Y-72381702D01*
X118541125Y-72402692D01*
X118582455Y-72420452D01*
X118625700Y-72434983D01*
X118670859Y-72446285D01*
X118717933Y-72454357D01*
X118766920Y-72459201D01*
X118817823Y-72460816D01*
X118828403Y-72460744D01*
X118859735Y-72459677D01*
X118900556Y-72456260D01*
X118940287Y-72450565D01*
X118978927Y-72442592D01*
X119016477Y-72432341D01*
X119052936Y-72419813D01*
X119088305Y-72405006D01*
X119122583Y-72387921D01*
X119145150Y-72374593D01*
X119188134Y-72345319D01*
X119228252Y-72312555D01*
X119265505Y-72276302D01*
X119299892Y-72236559D01*
X119331414Y-72193327D01*
X119360070Y-72146604D01*
X119385861Y-72096393D01*
X119408786Y-72042691D01*
X119428845Y-71985500D01*
X119437800Y-71955596D01*
X119446038Y-71924820D01*
X119453561Y-71893171D01*
X119460367Y-71860650D01*
X119466456Y-71827256D01*
X119471829Y-71792990D01*
X119476486Y-71757851D01*
X119480426Y-71721840D01*
X119483650Y-71684957D01*
X119486157Y-71647201D01*
X119487948Y-71608573D01*
X119489023Y-71569072D01*
X119489381Y-71528699D01*
X119489014Y-71491907D01*
X119487915Y-71455781D01*
X119486082Y-71420321D01*
X119483516Y-71385528D01*
X119480218Y-71351401D01*
X119476186Y-71317941D01*
X119471421Y-71285147D01*
X119465923Y-71253020D01*
X119459692Y-71221558D01*
X119452728Y-71190764D01*
X119440907Y-71145821D01*
X119427437Y-71102378D01*
X119412318Y-71060435D01*
X119395549Y-71019990D01*
X119372845Y-70972099D01*
X119348354Y-70927297D01*
X119322076Y-70885586D01*
X119294011Y-70846963D01*
X119264158Y-70811431D01*
X119232518Y-70778989D01*
X119199091Y-70749636D01*
X119163877Y-70723373D01*
X119126875Y-70700200D01*
X119088087Y-70680116D01*
X119047511Y-70663122D01*
X119005148Y-70649218D01*
X118960997Y-70638404D01*
X118915060Y-70630680D01*
X118867335Y-70626045D01*
X118817823Y-70624500D01*
X118806382Y-70624584D01*
X118772603Y-70625845D01*
X118739643Y-70628619D01*
X118707500Y-70632906D01*
X118676175Y-70638706D01*
X118645668Y-70646020D01*
X118606265Y-70658124D01*
X118568315Y-70672919D01*
X118531819Y-70690403D01*
X118496778Y-70710578D01*
X118475309Y-70724442D01*
X118434415Y-70754516D01*
X118396247Y-70787716D01*
X118360805Y-70824042D01*
X118328090Y-70863494D01*
X118298101Y-70906072D01*
X118270839Y-70951776D01*
X118246302Y-71000607D01*
X118224492Y-71052563D01*
X118205408Y-71107646D01*
X118189051Y-71165855D01*
X118181894Y-71196131D01*
X118175419Y-71227190D01*
X118169626Y-71259029D01*
X118164514Y-71291651D01*
X118160084Y-71325054D01*
X118156335Y-71359238D01*
X118153268Y-71394204D01*
X118150883Y-71429951D01*
X118149179Y-71466480D01*
X118148157Y-71503790D01*
X118147816Y-71541882D01*
X117759305Y-71541882D01*
X117759883Y-71488966D01*
X117761619Y-71437036D01*
X117764512Y-71386095D01*
X117768562Y-71336140D01*
X117773769Y-71287174D01*
X117780134Y-71239194D01*
X117787655Y-71192203D01*
X117796334Y-71146198D01*
X117806169Y-71101182D01*
X117817162Y-71057152D01*
X117829312Y-71014111D01*
X117842620Y-70972057D01*
X117857084Y-70930990D01*
X117872705Y-70890911D01*
X117889484Y-70851819D01*
X117907420Y-70813715D01*
X117924413Y-70780700D01*
X117942143Y-70748733D01*
X117960612Y-70717814D01*
X117979817Y-70687943D01*
X117999761Y-70659121D01*
X118020442Y-70631346D01*
X118041860Y-70604620D01*
X118064017Y-70578941D01*
X118086910Y-70554311D01*
X118110542Y-70530729D01*
X118134911Y-70508195D01*
X118160017Y-70486709D01*
X118185862Y-70466271D01*
X118212444Y-70446881D01*
X118239763Y-70428539D01*
X118267820Y-70411246D01*
X118296615Y-70395000D01*
X118326147Y-70379803D01*
X118356417Y-70365653D01*
X118387424Y-70352552D01*
X118419169Y-70340499D01*
X118451652Y-70329494D01*
X118484872Y-70319537D01*
X118518830Y-70310628D01*
X118553526Y-70302768D01*
X118588959Y-70295955D01*
X118625130Y-70290190D01*
X118662038Y-70285474D01*
X118699684Y-70281806D01*
X118738067Y-70279185D01*
X118777189Y-70277613D01*
X118817047Y-70277089D01*
X118860846Y-70277777D01*
G37*
G36*
X121251251Y-70376350D02*
G01*
X120845680Y-70376350D01*
X120022905Y-72708966D01*
X120443986Y-72708966D01*
X121068240Y-70823021D01*
X121728941Y-72708966D01*
X122149246Y-72708966D01*
X121251251Y-70376350D01*
G37*
G36*
X122869659Y-72708966D02*
G01*
X122869659Y-70376350D01*
X122498984Y-70376350D01*
X122498984Y-72708966D01*
X122869659Y-72708966D01*
G37*
G36*
X122869659Y-73602309D02*
G01*
X122869659Y-73155638D01*
X122495107Y-73155638D01*
X122495107Y-73602309D01*
X122869659Y-73602309D01*
G37*
G36*
X125078976Y-72063774D02*
G01*
X124686588Y-72063774D01*
X124683210Y-72111854D01*
X124676373Y-72156831D01*
X124666077Y-72198706D01*
X124652322Y-72237480D01*
X124635107Y-72273152D01*
X124614433Y-72305721D01*
X124590299Y-72335189D01*
X124562706Y-72361555D01*
X124531654Y-72384819D01*
X124497143Y-72404982D01*
X124459172Y-72422042D01*
X124417742Y-72436001D01*
X124372852Y-72446857D01*
X124324503Y-72454612D01*
X124272695Y-72459265D01*
X124217428Y-72460816D01*
X124172705Y-72459940D01*
X124130042Y-72457314D01*
X124089439Y-72452937D01*
X124050895Y-72446809D01*
X124014412Y-72438930D01*
X123979988Y-72429300D01*
X123947624Y-72417919D01*
X123917320Y-72404788D01*
X123889076Y-72389905D01*
X123862892Y-72373272D01*
X123827478Y-72345039D01*
X123796698Y-72312867D01*
X123770553Y-72276756D01*
X123749043Y-72236705D01*
X123737508Y-72203553D01*
X123729269Y-72169239D01*
X123724763Y-72138259D01*
X123722780Y-72106389D01*
X123722677Y-72097120D01*
X123725267Y-72059370D01*
X123733037Y-72023474D01*
X123745987Y-71989432D01*
X123764116Y-71957244D01*
X123787426Y-71926910D01*
X123815915Y-71898430D01*
X123849585Y-71871803D01*
X123888434Y-71847030D01*
X123917211Y-71831545D01*
X123948291Y-71816884D01*
X123981672Y-71803047D01*
X124017356Y-71790033D01*
X124049490Y-71781115D01*
X124083077Y-71772197D01*
X124113659Y-71764394D01*
X124145354Y-71756591D01*
X124154615Y-71754362D01*
X124512107Y-71666733D01*
X124544650Y-71658794D01*
X124576365Y-71650485D01*
X124607251Y-71641806D01*
X124637309Y-71632758D01*
X124694939Y-71613553D01*
X124749255Y-71592870D01*
X124800258Y-71570708D01*
X124847946Y-71547068D01*
X124892321Y-71521950D01*
X124933381Y-71495354D01*
X124971128Y-71467280D01*
X125005561Y-71437727D01*
X125036680Y-71406696D01*
X125064484Y-71374187D01*
X125088975Y-71340199D01*
X125110152Y-71304734D01*
X125128016Y-71267790D01*
X125142565Y-71229368D01*
X125152843Y-71193517D01*
X125159783Y-71162184D01*
X125165247Y-71129526D01*
X125169234Y-71095542D01*
X125171745Y-71060233D01*
X125172779Y-71023599D01*
X125172808Y-71016113D01*
X125171239Y-70963514D01*
X125166532Y-70912733D01*
X125158686Y-70863769D01*
X125147702Y-70816623D01*
X125133580Y-70771294D01*
X125116320Y-70727783D01*
X125095921Y-70686090D01*
X125072385Y-70646213D01*
X125045710Y-70608155D01*
X125015896Y-70571914D01*
X124982945Y-70537490D01*
X124946855Y-70504884D01*
X124907627Y-70474095D01*
X124865261Y-70445124D01*
X124819757Y-70417970D01*
X124771114Y-70392634D01*
X124741837Y-70378643D01*
X124711778Y-70365553D01*
X124680938Y-70353367D01*
X124649317Y-70342083D01*
X124616913Y-70331702D01*
X124583729Y-70322224D01*
X124549763Y-70313648D01*
X124515015Y-70305976D01*
X124479485Y-70299205D01*
X124443175Y-70293338D01*
X124406082Y-70288373D01*
X124368208Y-70284311D01*
X124329553Y-70281151D01*
X124290116Y-70278895D01*
X124249898Y-70277541D01*
X124208898Y-70277089D01*
X124155545Y-70277793D01*
X124103761Y-70279903D01*
X124053546Y-70283421D01*
X124004900Y-70288346D01*
X123957824Y-70294677D01*
X123912316Y-70302416D01*
X123868378Y-70311562D01*
X123826009Y-70322115D01*
X123785209Y-70334075D01*
X123745978Y-70347442D01*
X123708316Y-70362216D01*
X123672223Y-70378397D01*
X123637700Y-70395985D01*
X123604745Y-70414981D01*
X123573360Y-70435383D01*
X123543543Y-70457192D01*
X123515296Y-70480409D01*
X123488618Y-70505032D01*
X123463509Y-70531063D01*
X123439970Y-70558500D01*
X123417999Y-70587345D01*
X123397597Y-70617597D01*
X123378765Y-70649255D01*
X123361502Y-70682321D01*
X123345807Y-70716794D01*
X123331682Y-70752674D01*
X123319126Y-70789961D01*
X123308139Y-70828655D01*
X123298722Y-70868756D01*
X123290873Y-70910264D01*
X123284594Y-70953180D01*
X123279883Y-70997502D01*
X123276703Y-71028778D01*
X123275303Y-71061539D01*
X123275230Y-71071172D01*
X123667619Y-71071172D01*
X123673435Y-71033538D01*
X123680123Y-70997990D01*
X123687684Y-70964527D01*
X123696117Y-70933150D01*
X123708719Y-70894558D01*
X123722871Y-70859674D01*
X123738574Y-70828498D01*
X123755829Y-70801029D01*
X123774634Y-70777268D01*
X123803884Y-70749967D01*
X123836093Y-70725351D01*
X123871259Y-70703420D01*
X123909384Y-70684175D01*
X123950467Y-70667615D01*
X123994507Y-70653741D01*
X124025511Y-70645983D01*
X124057829Y-70639419D01*
X124091462Y-70634048D01*
X124126410Y-70629871D01*
X124162672Y-70626887D01*
X124200249Y-70625097D01*
X124239141Y-70624500D01*
X124285085Y-70625321D01*
X124329083Y-70627784D01*
X124371138Y-70631888D01*
X124411247Y-70637635D01*
X124449412Y-70645023D01*
X124485632Y-70654053D01*
X124519907Y-70664725D01*
X124552237Y-70677038D01*
X124582623Y-70690994D01*
X124611064Y-70706591D01*
X124637560Y-70723830D01*
X124673658Y-70752767D01*
X124705381Y-70785398D01*
X124732727Y-70821724D01*
X124740871Y-70834653D01*
X124755629Y-70862424D01*
X124768988Y-70895927D01*
X124778190Y-70930617D01*
X124782770Y-70961297D01*
X124784297Y-70992849D01*
X124782191Y-71030462D01*
X124775873Y-71065949D01*
X124765343Y-71099310D01*
X124750600Y-71130544D01*
X124731646Y-71159651D01*
X124708480Y-71186632D01*
X124681101Y-71211486D01*
X124649510Y-71234214D01*
X124613708Y-71254816D01*
X124573693Y-71273291D01*
X124544677Y-71284426D01*
X124422152Y-71319322D01*
X124075517Y-71405400D01*
X124042651Y-71413594D01*
X124010553Y-71421987D01*
X123979220Y-71430581D01*
X123948654Y-71439375D01*
X123918855Y-71448369D01*
X123861555Y-71466956D01*
X123807320Y-71486342D01*
X123756151Y-71506529D01*
X123708048Y-71527515D01*
X123663010Y-71549301D01*
X123621037Y-71571887D01*
X123582131Y-71595272D01*
X123546289Y-71619457D01*
X123513514Y-71644442D01*
X123483803Y-71670226D01*
X123457159Y-71696810D01*
X123433579Y-71724194D01*
X123413066Y-71752377D01*
X123403959Y-71766769D01*
X123387601Y-71799060D01*
X123373424Y-71833508D01*
X123361429Y-71870113D01*
X123351614Y-71908874D01*
X123345685Y-71939361D01*
X123340982Y-71971060D01*
X123337506Y-72003973D01*
X123335257Y-72038099D01*
X123334234Y-72073438D01*
X123334166Y-72085488D01*
X123335632Y-72137217D01*
X123340031Y-72187135D01*
X123347361Y-72235241D01*
X123357624Y-72281536D01*
X123370819Y-72326020D01*
X123386947Y-72368692D01*
X123406006Y-72409553D01*
X123427998Y-72448602D01*
X123452922Y-72485840D01*
X123480779Y-72521266D01*
X123511567Y-72554881D01*
X123545288Y-72586684D01*
X123581941Y-72616676D01*
X123621527Y-72644857D01*
X123664044Y-72671226D01*
X123709494Y-72695783D01*
X123751102Y-72715878D01*
X123779673Y-72728177D01*
X123808910Y-72739597D01*
X123838815Y-72750138D01*
X123869385Y-72759801D01*
X123900622Y-72768586D01*
X123932525Y-72776492D01*
X123965095Y-72783520D01*
X123998331Y-72789669D01*
X124032234Y-72794940D01*
X124066803Y-72799332D01*
X124102039Y-72802846D01*
X124137940Y-72805481D01*
X124174509Y-72807238D01*
X124211743Y-72808117D01*
X124230611Y-72808227D01*
X124270602Y-72807771D01*
X124309636Y-72806403D01*
X124347713Y-72804124D01*
X124384833Y-72800932D01*
X124420995Y-72796829D01*
X124456200Y-72791815D01*
X124490448Y-72785888D01*
X124523739Y-72779050D01*
X124556072Y-72771299D01*
X124587449Y-72762637D01*
X124617868Y-72753064D01*
X124647329Y-72742578D01*
X124703382Y-72718872D01*
X124755605Y-72691518D01*
X124803999Y-72660518D01*
X124848564Y-72625870D01*
X124889301Y-72587575D01*
X124926208Y-72545633D01*
X124959287Y-72500044D01*
X124988537Y-72450807D01*
X125013958Y-72397924D01*
X125035550Y-72341393D01*
X125045728Y-72309914D01*
X125054549Y-72277514D01*
X125062013Y-72244193D01*
X125068119Y-72209951D01*
X125072869Y-72174788D01*
X125076262Y-72138704D01*
X125078298Y-72101700D01*
X125078976Y-72063774D01*
G37*
G36*
X126014970Y-72708966D02*
G01*
X126014970Y-70376350D01*
X125644294Y-70376350D01*
X125644294Y-72708966D01*
X126014970Y-72708966D01*
G37*
G36*
X126014970Y-73602309D02*
G01*
X126014970Y-73155638D01*
X125640417Y-73155638D01*
X125640417Y-73602309D01*
X126014970Y-73602309D01*
G37*
G36*
X127530613Y-70277777D02*
G01*
X127573606Y-70279840D01*
X127615793Y-70283278D01*
X127657175Y-70288091D01*
X127697751Y-70294280D01*
X127737521Y-70301844D01*
X127776485Y-70310783D01*
X127814644Y-70321097D01*
X127851997Y-70332787D01*
X127888544Y-70345852D01*
X127924285Y-70360292D01*
X127959221Y-70376107D01*
X127993351Y-70393298D01*
X128026675Y-70411864D01*
X128059193Y-70431805D01*
X128090906Y-70453121D01*
X128118959Y-70473464D01*
X128146122Y-70494654D01*
X128172394Y-70516691D01*
X128197775Y-70539574D01*
X128222266Y-70563304D01*
X128245866Y-70587880D01*
X128268576Y-70613304D01*
X128290395Y-70639573D01*
X128311324Y-70666690D01*
X128331362Y-70694653D01*
X128350510Y-70723463D01*
X128368767Y-70753119D01*
X128386133Y-70783622D01*
X128402609Y-70814972D01*
X128418194Y-70847169D01*
X128432888Y-70880212D01*
X128446692Y-70914102D01*
X128459606Y-70948838D01*
X128471629Y-70984421D01*
X128482761Y-71020851D01*
X128493002Y-71058127D01*
X128502354Y-71096250D01*
X128510814Y-71135220D01*
X128518384Y-71175036D01*
X128525063Y-71215699D01*
X128530852Y-71257209D01*
X128535750Y-71299565D01*
X128539758Y-71342768D01*
X128542875Y-71386818D01*
X128545101Y-71431714D01*
X128546437Y-71477457D01*
X128546883Y-71524047D01*
X128546371Y-71574958D01*
X128544835Y-71624943D01*
X128542275Y-71674000D01*
X128538692Y-71722131D01*
X128534084Y-71769335D01*
X128528453Y-71815612D01*
X128521798Y-71860962D01*
X128514119Y-71905385D01*
X128505416Y-71948881D01*
X128495689Y-71991450D01*
X128484939Y-72033092D01*
X128473164Y-72073807D01*
X128460366Y-72113595D01*
X128446544Y-72152457D01*
X128431698Y-72190391D01*
X128415828Y-72227399D01*
X128399610Y-72263133D01*
X128382555Y-72297733D01*
X128364665Y-72331199D01*
X128345939Y-72363530D01*
X128326376Y-72394727D01*
X128305978Y-72424790D01*
X128284743Y-72453718D01*
X128262672Y-72481511D01*
X128239766Y-72508170D01*
X128216023Y-72533695D01*
X128191444Y-72558085D01*
X128166029Y-72581341D01*
X128139778Y-72603462D01*
X128112691Y-72624449D01*
X128084768Y-72644302D01*
X128056009Y-72663020D01*
X128026414Y-72680603D01*
X127995983Y-72697053D01*
X127964716Y-72712367D01*
X127932613Y-72726548D01*
X127899673Y-72739594D01*
X127865898Y-72751505D01*
X127831286Y-72762282D01*
X127795839Y-72771925D01*
X127759555Y-72780433D01*
X127722436Y-72787807D01*
X127684480Y-72794046D01*
X127645688Y-72799151D01*
X127606060Y-72803122D01*
X127565597Y-72805958D01*
X127524297Y-72807659D01*
X127482161Y-72808227D01*
X127440349Y-72807572D01*
X127399246Y-72805609D01*
X127358852Y-72802338D01*
X127319166Y-72797758D01*
X127280190Y-72791869D01*
X127241922Y-72784672D01*
X127204363Y-72776166D01*
X127167513Y-72766351D01*
X127131372Y-72755228D01*
X127095940Y-72742796D01*
X127061216Y-72729056D01*
X127027202Y-72714007D01*
X126993896Y-72697649D01*
X126961299Y-72679983D01*
X126929411Y-72661008D01*
X126898231Y-72640725D01*
X126869367Y-72620636D01*
X126841419Y-72599628D01*
X126814387Y-72577700D01*
X126788272Y-72554854D01*
X126763073Y-72531087D01*
X126738790Y-72506402D01*
X126715424Y-72480797D01*
X126692974Y-72454273D01*
X126671440Y-72426829D01*
X126650823Y-72398466D01*
X126631121Y-72369184D01*
X126612337Y-72338982D01*
X126594468Y-72307861D01*
X126577516Y-72275820D01*
X126561481Y-72242861D01*
X126546361Y-72208981D01*
X126532158Y-72174183D01*
X126518871Y-72138465D01*
X126506501Y-72101828D01*
X126495047Y-72064271D01*
X126484509Y-72025795D01*
X126474888Y-71986400D01*
X126466182Y-71946085D01*
X126458394Y-71904851D01*
X126451521Y-71862698D01*
X126445565Y-71819625D01*
X126440525Y-71775633D01*
X126436402Y-71730722D01*
X126433195Y-71684891D01*
X126430904Y-71638141D01*
X126429529Y-71590471D01*
X126429071Y-71541882D01*
X126817582Y-71541882D01*
X126817915Y-71577572D01*
X126818915Y-71612717D01*
X126820581Y-71647316D01*
X126822913Y-71681370D01*
X126825912Y-71714879D01*
X126829578Y-71747843D01*
X126833909Y-71780261D01*
X126838908Y-71812134D01*
X126844572Y-71843462D01*
X126850903Y-71874245D01*
X126861649Y-71919396D01*
X126873895Y-71963321D01*
X126887640Y-72006019D01*
X126902884Y-72047490D01*
X126925070Y-72097541D01*
X126949170Y-72144363D01*
X126975184Y-72187956D01*
X127003114Y-72228320D01*
X127032957Y-72265455D01*
X127064715Y-72299360D01*
X127098387Y-72330037D01*
X127133974Y-72357484D01*
X127171476Y-72381702D01*
X127210891Y-72402692D01*
X127252222Y-72420452D01*
X127295466Y-72434983D01*
X127340625Y-72446285D01*
X127387699Y-72454357D01*
X127436687Y-72459201D01*
X127487589Y-72460816D01*
X127498169Y-72460744D01*
X127529501Y-72459677D01*
X127570322Y-72456260D01*
X127610053Y-72450565D01*
X127648693Y-72442592D01*
X127686243Y-72432341D01*
X127722702Y-72419813D01*
X127758071Y-72405006D01*
X127792349Y-72387921D01*
X127814916Y-72374593D01*
X127857900Y-72345319D01*
X127898019Y-72312555D01*
X127935271Y-72276302D01*
X127969659Y-72236559D01*
X128001180Y-72193327D01*
X128029836Y-72146604D01*
X128055627Y-72096393D01*
X128078552Y-72042691D01*
X128098611Y-71985500D01*
X128107566Y-71955596D01*
X128115805Y-71924820D01*
X128123327Y-71893171D01*
X128130133Y-71860650D01*
X128136222Y-71827256D01*
X128141595Y-71792990D01*
X128146252Y-71757851D01*
X128150192Y-71721840D01*
X128153416Y-71684957D01*
X128155923Y-71647201D01*
X128157714Y-71608573D01*
X128158789Y-71569072D01*
X128159147Y-71528699D01*
X128158780Y-71491907D01*
X128157681Y-71455781D01*
X128155848Y-71420321D01*
X128153283Y-71385528D01*
X128149984Y-71351401D01*
X128145952Y-71317941D01*
X128141187Y-71285147D01*
X128135689Y-71253020D01*
X128129458Y-71221558D01*
X128122494Y-71190764D01*
X128110673Y-71145821D01*
X128097203Y-71102378D01*
X128082084Y-71060435D01*
X128065315Y-71019990D01*
X128042611Y-70972099D01*
X128018120Y-70927297D01*
X127991842Y-70885586D01*
X127963777Y-70846963D01*
X127933924Y-70811431D01*
X127902284Y-70778989D01*
X127868857Y-70749636D01*
X127833643Y-70723373D01*
X127796642Y-70700200D01*
X127757853Y-70680116D01*
X127717277Y-70663122D01*
X127674914Y-70649218D01*
X127630763Y-70638404D01*
X127584826Y-70630680D01*
X127537101Y-70626045D01*
X127487589Y-70624500D01*
X127476148Y-70624584D01*
X127442369Y-70625845D01*
X127409409Y-70628619D01*
X127377266Y-70632906D01*
X127345941Y-70638706D01*
X127315435Y-70646020D01*
X127276031Y-70658124D01*
X127238081Y-70672919D01*
X127201586Y-70690403D01*
X127166544Y-70710578D01*
X127145075Y-70724442D01*
X127104181Y-70754516D01*
X127066013Y-70787716D01*
X127030572Y-70824042D01*
X126997856Y-70863494D01*
X126967868Y-70906072D01*
X126940605Y-70951776D01*
X126916068Y-71000607D01*
X126894258Y-71052563D01*
X126875174Y-71107646D01*
X126858817Y-71165855D01*
X126851660Y-71196131D01*
X126845186Y-71227190D01*
X126839392Y-71259029D01*
X126834280Y-71291651D01*
X126829850Y-71325054D01*
X126826102Y-71359238D01*
X126823035Y-71394204D01*
X126820649Y-71429951D01*
X126818945Y-71466480D01*
X126817923Y-71503790D01*
X126817582Y-71541882D01*
X126429071Y-71541882D01*
X126429650Y-71488966D01*
X126431385Y-71437036D01*
X126434278Y-71386095D01*
X126438328Y-71336140D01*
X126443535Y-71287174D01*
X126449900Y-71239194D01*
X126457421Y-71192203D01*
X126466100Y-71146198D01*
X126475936Y-71101182D01*
X126486929Y-71057152D01*
X126499079Y-71014111D01*
X126512386Y-70972057D01*
X126526850Y-70930990D01*
X126542472Y-70890911D01*
X126559250Y-70851819D01*
X126577186Y-70813715D01*
X126594179Y-70780700D01*
X126611910Y-70748733D01*
X126630378Y-70717814D01*
X126649584Y-70687943D01*
X126669527Y-70659121D01*
X126690208Y-70631346D01*
X126711627Y-70604620D01*
X126733783Y-70578941D01*
X126756677Y-70554311D01*
X126780308Y-70530729D01*
X126804677Y-70508195D01*
X126829784Y-70486709D01*
X126855628Y-70466271D01*
X126882210Y-70446881D01*
X126909529Y-70428539D01*
X126937586Y-70411246D01*
X126966381Y-70395000D01*
X126995913Y-70379803D01*
X127026183Y-70365653D01*
X127057191Y-70352552D01*
X127088936Y-70340499D01*
X127121418Y-70329494D01*
X127154639Y-70319537D01*
X127188597Y-70310628D01*
X127223292Y-70302768D01*
X127258725Y-70295955D01*
X127294896Y-70290190D01*
X127331804Y-70285474D01*
X127369450Y-70281806D01*
X127407834Y-70279185D01*
X127446955Y-70277613D01*
X127486814Y-70277089D01*
X127530613Y-70277777D01*
G37*
G36*
X128960984Y-72758597D02*
G01*
X129306069Y-72758597D01*
X129306069Y-72366208D01*
X129336415Y-72412321D01*
X129367549Y-72455860D01*
X129399471Y-72496824D01*
X129432180Y-72535212D01*
X129465676Y-72571026D01*
X129499961Y-72604266D01*
X129535033Y-72634930D01*
X129570892Y-72663020D01*
X129607539Y-72688535D01*
X129644974Y-72711475D01*
X129683196Y-72731840D01*
X129722206Y-72749630D01*
X129762003Y-72764846D01*
X129802588Y-72777487D01*
X129843961Y-72787553D01*
X129886121Y-72795044D01*
X129920190Y-72799524D01*
X129955514Y-72803077D01*
X129992091Y-72805703D01*
X130023530Y-72807184D01*
X130055840Y-72808021D01*
X130082315Y-72808227D01*
X130139858Y-72806997D01*
X130195195Y-72803307D01*
X130248327Y-72797158D01*
X130299253Y-72788549D01*
X130347975Y-72777480D01*
X130394491Y-72763952D01*
X130438802Y-72747964D01*
X130480907Y-72729516D01*
X130520808Y-72708609D01*
X130558503Y-72685242D01*
X130593993Y-72659415D01*
X130627277Y-72631128D01*
X130658357Y-72600382D01*
X130687231Y-72567176D01*
X130713900Y-72531511D01*
X130738364Y-72493385D01*
X130753608Y-72465709D01*
X130767353Y-72437352D01*
X130779598Y-72408312D01*
X130790344Y-72378591D01*
X130799591Y-72348189D01*
X130807338Y-72317105D01*
X130813586Y-72285340D01*
X130818334Y-72252892D01*
X130821583Y-72219764D01*
X130823332Y-72185954D01*
X130823666Y-72163035D01*
X130823666Y-70376350D01*
X130452990Y-70376350D01*
X130452990Y-71999410D01*
X130451960Y-72037954D01*
X130448871Y-72074873D01*
X130443721Y-72110169D01*
X130436512Y-72143842D01*
X130427242Y-72175891D01*
X130415913Y-72206316D01*
X130402524Y-72235117D01*
X130387075Y-72262295D01*
X130360040Y-72300017D01*
X130328370Y-72334087D01*
X130304682Y-72354770D01*
X130278933Y-72373830D01*
X130251126Y-72391266D01*
X130221258Y-72407078D01*
X130189330Y-72421267D01*
X130159250Y-72432660D01*
X130127656Y-72442123D01*
X130094547Y-72449654D01*
X130059923Y-72455254D01*
X130023785Y-72458923D01*
X129986133Y-72460661D01*
X129970647Y-72460816D01*
X129924643Y-72459477D01*
X129880269Y-72455460D01*
X129837524Y-72448766D01*
X129796409Y-72439393D01*
X129756923Y-72427343D01*
X129719068Y-72412615D01*
X129682842Y-72395210D01*
X129648245Y-72375126D01*
X129615279Y-72352365D01*
X129583942Y-72326926D01*
X129554235Y-72298809D01*
X129526157Y-72268014D01*
X129499709Y-72234542D01*
X129474891Y-72198391D01*
X129451703Y-72159563D01*
X129430144Y-72118057D01*
X129413375Y-72082098D01*
X129398256Y-72044884D01*
X129384786Y-72006417D01*
X129372965Y-71966695D01*
X129362794Y-71925719D01*
X129354272Y-71883490D01*
X129347400Y-71840006D01*
X129342177Y-71795268D01*
X129338603Y-71749276D01*
X129337137Y-71717917D01*
X129336404Y-71686002D01*
X129336312Y-71669835D01*
X129336312Y-70376350D01*
X128960984Y-70376350D01*
X128960984Y-72758597D01*
G37*
D11*
X73718657Y-94726219D02*
X74051990Y-94250028D01*
X74290085Y-94726219D02*
X74290085Y-93726219D01*
X74290085Y-93726219D02*
X73909133Y-93726219D01*
X73909133Y-93726219D02*
X73813895Y-93773838D01*
X73813895Y-93773838D02*
X73766276Y-93821457D01*
X73766276Y-93821457D02*
X73718657Y-93916695D01*
X73718657Y-93916695D02*
X73718657Y-94059552D01*
X73718657Y-94059552D02*
X73766276Y-94154790D01*
X73766276Y-94154790D02*
X73813895Y-94202409D01*
X73813895Y-94202409D02*
X73909133Y-94250028D01*
X73909133Y-94250028D02*
X74290085Y-94250028D01*
X73337704Y-93821457D02*
X73290085Y-93773838D01*
X73290085Y-93773838D02*
X73194847Y-93726219D01*
X73194847Y-93726219D02*
X72956752Y-93726219D01*
X72956752Y-93726219D02*
X72861514Y-93773838D01*
X72861514Y-93773838D02*
X72813895Y-93821457D01*
X72813895Y-93821457D02*
X72766276Y-93916695D01*
X72766276Y-93916695D02*
X72766276Y-94011933D01*
X72766276Y-94011933D02*
X72813895Y-94154790D01*
X72813895Y-94154790D02*
X73385323Y-94726219D01*
X73385323Y-94726219D02*
X72766276Y-94726219D01*
X72147228Y-93726219D02*
X72051990Y-93726219D01*
X72051990Y-93726219D02*
X71956752Y-93773838D01*
X71956752Y-93773838D02*
X71909133Y-93821457D01*
X71909133Y-93821457D02*
X71861514Y-93916695D01*
X71861514Y-93916695D02*
X71813895Y-94107171D01*
X71813895Y-94107171D02*
X71813895Y-94345266D01*
X71813895Y-94345266D02*
X71861514Y-94535742D01*
X71861514Y-94535742D02*
X71909133Y-94630980D01*
X71909133Y-94630980D02*
X71956752Y-94678600D01*
X71956752Y-94678600D02*
X72051990Y-94726219D01*
X72051990Y-94726219D02*
X72147228Y-94726219D01*
X72147228Y-94726219D02*
X72242466Y-94678600D01*
X72242466Y-94678600D02*
X72290085Y-94630980D01*
X72290085Y-94630980D02*
X72337704Y-94535742D01*
X72337704Y-94535742D02*
X72385323Y-94345266D01*
X72385323Y-94345266D02*
X72385323Y-94107171D01*
X72385323Y-94107171D02*
X72337704Y-93916695D01*
X72337704Y-93916695D02*
X72290085Y-93821457D01*
X72290085Y-93821457D02*
X72242466Y-93773838D01*
X72242466Y-93773838D02*
X72147228Y-93726219D01*
X81238857Y-89754180D02*
X81286476Y-89801800D01*
X81286476Y-89801800D02*
X81429333Y-89849419D01*
X81429333Y-89849419D02*
X81524571Y-89849419D01*
X81524571Y-89849419D02*
X81667428Y-89801800D01*
X81667428Y-89801800D02*
X81762666Y-89706561D01*
X81762666Y-89706561D02*
X81810285Y-89611323D01*
X81810285Y-89611323D02*
X81857904Y-89420847D01*
X81857904Y-89420847D02*
X81857904Y-89277990D01*
X81857904Y-89277990D02*
X81810285Y-89087514D01*
X81810285Y-89087514D02*
X81762666Y-88992276D01*
X81762666Y-88992276D02*
X81667428Y-88897038D01*
X81667428Y-88897038D02*
X81524571Y-88849419D01*
X81524571Y-88849419D02*
X81429333Y-88849419D01*
X81429333Y-88849419D02*
X81286476Y-88897038D01*
X81286476Y-88897038D02*
X81238857Y-88944657D01*
X80857904Y-88944657D02*
X80810285Y-88897038D01*
X80810285Y-88897038D02*
X80715047Y-88849419D01*
X80715047Y-88849419D02*
X80476952Y-88849419D01*
X80476952Y-88849419D02*
X80381714Y-88897038D01*
X80381714Y-88897038D02*
X80334095Y-88944657D01*
X80334095Y-88944657D02*
X80286476Y-89039895D01*
X80286476Y-89039895D02*
X80286476Y-89135133D01*
X80286476Y-89135133D02*
X80334095Y-89277990D01*
X80334095Y-89277990D02*
X80905523Y-89849419D01*
X80905523Y-89849419D02*
X80286476Y-89849419D01*
X79905523Y-88944657D02*
X79857904Y-88897038D01*
X79857904Y-88897038D02*
X79762666Y-88849419D01*
X79762666Y-88849419D02*
X79524571Y-88849419D01*
X79524571Y-88849419D02*
X79429333Y-88897038D01*
X79429333Y-88897038D02*
X79381714Y-88944657D01*
X79381714Y-88944657D02*
X79334095Y-89039895D01*
X79334095Y-89039895D02*
X79334095Y-89135133D01*
X79334095Y-89135133D02*
X79381714Y-89277990D01*
X79381714Y-89277990D02*
X79953142Y-89849419D01*
X79953142Y-89849419D02*
X79334095Y-89849419D01*
X127822154Y-169712219D02*
X127822154Y-170521742D01*
X127822154Y-170521742D02*
X127774535Y-170616980D01*
X127774535Y-170616980D02*
X127726916Y-170664600D01*
X127726916Y-170664600D02*
X127631678Y-170712219D01*
X127631678Y-170712219D02*
X127441202Y-170712219D01*
X127441202Y-170712219D02*
X127345964Y-170664600D01*
X127345964Y-170664600D02*
X127298345Y-170616980D01*
X127298345Y-170616980D02*
X127250726Y-170521742D01*
X127250726Y-170521742D02*
X127250726Y-169712219D01*
X126250726Y-170712219D02*
X126822154Y-170712219D01*
X126536440Y-170712219D02*
X126536440Y-169712219D01*
X126536440Y-169712219D02*
X126631678Y-169855076D01*
X126631678Y-169855076D02*
X126726916Y-169950314D01*
X126726916Y-169950314D02*
X126822154Y-169997933D01*
X86164657Y-96859819D02*
X86497990Y-96383628D01*
X86736085Y-96859819D02*
X86736085Y-95859819D01*
X86736085Y-95859819D02*
X86355133Y-95859819D01*
X86355133Y-95859819D02*
X86259895Y-95907438D01*
X86259895Y-95907438D02*
X86212276Y-95955057D01*
X86212276Y-95955057D02*
X86164657Y-96050295D01*
X86164657Y-96050295D02*
X86164657Y-96193152D01*
X86164657Y-96193152D02*
X86212276Y-96288390D01*
X86212276Y-96288390D02*
X86259895Y-96336009D01*
X86259895Y-96336009D02*
X86355133Y-96383628D01*
X86355133Y-96383628D02*
X86736085Y-96383628D01*
X85783704Y-95955057D02*
X85736085Y-95907438D01*
X85736085Y-95907438D02*
X85640847Y-95859819D01*
X85640847Y-95859819D02*
X85402752Y-95859819D01*
X85402752Y-95859819D02*
X85307514Y-95907438D01*
X85307514Y-95907438D02*
X85259895Y-95955057D01*
X85259895Y-95955057D02*
X85212276Y-96050295D01*
X85212276Y-96050295D02*
X85212276Y-96145533D01*
X85212276Y-96145533D02*
X85259895Y-96288390D01*
X85259895Y-96288390D02*
X85831323Y-96859819D01*
X85831323Y-96859819D02*
X85212276Y-96859819D01*
X84259895Y-96859819D02*
X84831323Y-96859819D01*
X84545609Y-96859819D02*
X84545609Y-95859819D01*
X84545609Y-95859819D02*
X84640847Y-96002676D01*
X84640847Y-96002676D02*
X84736085Y-96097914D01*
X84736085Y-96097914D02*
X84831323Y-96145533D01*
X92667057Y-98288580D02*
X92714676Y-98336200D01*
X92714676Y-98336200D02*
X92857533Y-98383819D01*
X92857533Y-98383819D02*
X92952771Y-98383819D01*
X92952771Y-98383819D02*
X93095628Y-98336200D01*
X93095628Y-98336200D02*
X93190866Y-98240961D01*
X93190866Y-98240961D02*
X93238485Y-98145723D01*
X93238485Y-98145723D02*
X93286104Y-97955247D01*
X93286104Y-97955247D02*
X93286104Y-97812390D01*
X93286104Y-97812390D02*
X93238485Y-97621914D01*
X93238485Y-97621914D02*
X93190866Y-97526676D01*
X93190866Y-97526676D02*
X93095628Y-97431438D01*
X93095628Y-97431438D02*
X92952771Y-97383819D01*
X92952771Y-97383819D02*
X92857533Y-97383819D01*
X92857533Y-97383819D02*
X92714676Y-97431438D01*
X92714676Y-97431438D02*
X92667057Y-97479057D01*
X91714676Y-98383819D02*
X92286104Y-98383819D01*
X92000390Y-98383819D02*
X92000390Y-97383819D01*
X92000390Y-97383819D02*
X92095628Y-97526676D01*
X92095628Y-97526676D02*
X92190866Y-97621914D01*
X92190866Y-97621914D02*
X92286104Y-97669533D01*
X91381342Y-97383819D02*
X90714676Y-97383819D01*
X90714676Y-97383819D02*
X91143247Y-98383819D01*
X84423094Y-90678219D02*
X84423094Y-91487742D01*
X84423094Y-91487742D02*
X84375475Y-91582980D01*
X84375475Y-91582980D02*
X84327856Y-91630600D01*
X84327856Y-91630600D02*
X84232618Y-91678219D01*
X84232618Y-91678219D02*
X84042142Y-91678219D01*
X84042142Y-91678219D02*
X83946904Y-91630600D01*
X83946904Y-91630600D02*
X83899285Y-91582980D01*
X83899285Y-91582980D02*
X83851666Y-91487742D01*
X83851666Y-91487742D02*
X83851666Y-90678219D01*
X82851666Y-91678219D02*
X83423094Y-91678219D01*
X83137380Y-91678219D02*
X83137380Y-90678219D01*
X83137380Y-90678219D02*
X83232618Y-90821076D01*
X83232618Y-90821076D02*
X83327856Y-90916314D01*
X83327856Y-90916314D02*
X83423094Y-90963933D01*
X82232618Y-90678219D02*
X82137380Y-90678219D01*
X82137380Y-90678219D02*
X82042142Y-90725838D01*
X82042142Y-90725838D02*
X81994523Y-90773457D01*
X81994523Y-90773457D02*
X81946904Y-90868695D01*
X81946904Y-90868695D02*
X81899285Y-91059171D01*
X81899285Y-91059171D02*
X81899285Y-91297266D01*
X81899285Y-91297266D02*
X81946904Y-91487742D01*
X81946904Y-91487742D02*
X81994523Y-91582980D01*
X81994523Y-91582980D02*
X82042142Y-91630600D01*
X82042142Y-91630600D02*
X82137380Y-91678219D01*
X82137380Y-91678219D02*
X82232618Y-91678219D01*
X82232618Y-91678219D02*
X82327856Y-91630600D01*
X82327856Y-91630600D02*
X82375475Y-91582980D01*
X82375475Y-91582980D02*
X82423094Y-91487742D01*
X82423094Y-91487742D02*
X82470713Y-91297266D01*
X82470713Y-91297266D02*
X82470713Y-91059171D01*
X82470713Y-91059171D02*
X82423094Y-90868695D01*
X82423094Y-90868695D02*
X82375475Y-90773457D01*
X82375475Y-90773457D02*
X82327856Y-90725838D01*
X82327856Y-90725838D02*
X82232618Y-90678219D01*
X109913657Y-149107619D02*
X110246990Y-148631428D01*
X110485085Y-149107619D02*
X110485085Y-148107619D01*
X110485085Y-148107619D02*
X110104133Y-148107619D01*
X110104133Y-148107619D02*
X110008895Y-148155238D01*
X110008895Y-148155238D02*
X109961276Y-148202857D01*
X109961276Y-148202857D02*
X109913657Y-148298095D01*
X109913657Y-148298095D02*
X109913657Y-148440952D01*
X109913657Y-148440952D02*
X109961276Y-148536190D01*
X109961276Y-148536190D02*
X110008895Y-148583809D01*
X110008895Y-148583809D02*
X110104133Y-148631428D01*
X110104133Y-148631428D02*
X110485085Y-148631428D01*
X108961276Y-149107619D02*
X109532704Y-149107619D01*
X109246990Y-149107619D02*
X109246990Y-148107619D01*
X109246990Y-148107619D02*
X109342228Y-148250476D01*
X109342228Y-148250476D02*
X109437466Y-148345714D01*
X109437466Y-148345714D02*
X109532704Y-148393333D01*
X108627942Y-148107619D02*
X108008895Y-148107619D01*
X108008895Y-148107619D02*
X108342228Y-148488571D01*
X108342228Y-148488571D02*
X108199371Y-148488571D01*
X108199371Y-148488571D02*
X108104133Y-148536190D01*
X108104133Y-148536190D02*
X108056514Y-148583809D01*
X108056514Y-148583809D02*
X108008895Y-148679047D01*
X108008895Y-148679047D02*
X108008895Y-148917142D01*
X108008895Y-148917142D02*
X108056514Y-149012380D01*
X108056514Y-149012380D02*
X108104133Y-149060000D01*
X108104133Y-149060000D02*
X108199371Y-149107619D01*
X108199371Y-149107619D02*
X108485085Y-149107619D01*
X108485085Y-149107619D02*
X108580323Y-149060000D01*
X108580323Y-149060000D02*
X108627942Y-149012380D01*
X120954704Y-123774419D02*
X120954704Y-124583942D01*
X120954704Y-124583942D02*
X120907085Y-124679180D01*
X120907085Y-124679180D02*
X120859466Y-124726800D01*
X120859466Y-124726800D02*
X120764228Y-124774419D01*
X120764228Y-124774419D02*
X120573752Y-124774419D01*
X120573752Y-124774419D02*
X120478514Y-124726800D01*
X120478514Y-124726800D02*
X120430895Y-124679180D01*
X120430895Y-124679180D02*
X120383276Y-124583942D01*
X120383276Y-124583942D02*
X120383276Y-123774419D01*
X120002323Y-123774419D02*
X119383276Y-123774419D01*
X119383276Y-123774419D02*
X119716609Y-124155371D01*
X119716609Y-124155371D02*
X119573752Y-124155371D01*
X119573752Y-124155371D02*
X119478514Y-124202990D01*
X119478514Y-124202990D02*
X119430895Y-124250609D01*
X119430895Y-124250609D02*
X119383276Y-124345847D01*
X119383276Y-124345847D02*
X119383276Y-124583942D01*
X119383276Y-124583942D02*
X119430895Y-124679180D01*
X119430895Y-124679180D02*
X119478514Y-124726800D01*
X119478514Y-124726800D02*
X119573752Y-124774419D01*
X119573752Y-124774419D02*
X119859466Y-124774419D01*
X119859466Y-124774419D02*
X119954704Y-124726800D01*
X119954704Y-124726800D02*
X120002323Y-124679180D01*
X121502466Y-138707919D02*
X121835799Y-138231728D01*
X122073894Y-138707919D02*
X122073894Y-137707919D01*
X122073894Y-137707919D02*
X121692942Y-137707919D01*
X121692942Y-137707919D02*
X121597704Y-137755538D01*
X121597704Y-137755538D02*
X121550085Y-137803157D01*
X121550085Y-137803157D02*
X121502466Y-137898395D01*
X121502466Y-137898395D02*
X121502466Y-138041252D01*
X121502466Y-138041252D02*
X121550085Y-138136490D01*
X121550085Y-138136490D02*
X121597704Y-138184109D01*
X121597704Y-138184109D02*
X121692942Y-138231728D01*
X121692942Y-138231728D02*
X122073894Y-138231728D01*
X121026275Y-138707919D02*
X120835799Y-138707919D01*
X120835799Y-138707919D02*
X120740561Y-138660300D01*
X120740561Y-138660300D02*
X120692942Y-138612680D01*
X120692942Y-138612680D02*
X120597704Y-138469823D01*
X120597704Y-138469823D02*
X120550085Y-138279347D01*
X120550085Y-138279347D02*
X120550085Y-137898395D01*
X120550085Y-137898395D02*
X120597704Y-137803157D01*
X120597704Y-137803157D02*
X120645323Y-137755538D01*
X120645323Y-137755538D02*
X120740561Y-137707919D01*
X120740561Y-137707919D02*
X120931037Y-137707919D01*
X120931037Y-137707919D02*
X121026275Y-137755538D01*
X121026275Y-137755538D02*
X121073894Y-137803157D01*
X121073894Y-137803157D02*
X121121513Y-137898395D01*
X121121513Y-137898395D02*
X121121513Y-138136490D01*
X121121513Y-138136490D02*
X121073894Y-138231728D01*
X121073894Y-138231728D02*
X121026275Y-138279347D01*
X121026275Y-138279347D02*
X120931037Y-138326966D01*
X120931037Y-138326966D02*
X120740561Y-138326966D01*
X120740561Y-138326966D02*
X120645323Y-138279347D01*
X120645323Y-138279347D02*
X120597704Y-138231728D01*
X120597704Y-138231728D02*
X120550085Y-138136490D01*
X115482666Y-138682519D02*
X115815999Y-138206328D01*
X116054094Y-138682519D02*
X116054094Y-137682519D01*
X116054094Y-137682519D02*
X115673142Y-137682519D01*
X115673142Y-137682519D02*
X115577904Y-137730138D01*
X115577904Y-137730138D02*
X115530285Y-137777757D01*
X115530285Y-137777757D02*
X115482666Y-137872995D01*
X115482666Y-137872995D02*
X115482666Y-138015852D01*
X115482666Y-138015852D02*
X115530285Y-138111090D01*
X115530285Y-138111090D02*
X115577904Y-138158709D01*
X115577904Y-138158709D02*
X115673142Y-138206328D01*
X115673142Y-138206328D02*
X116054094Y-138206328D01*
X115149332Y-137682519D02*
X114482666Y-137682519D01*
X114482666Y-137682519D02*
X114911237Y-138682519D01*
X124550466Y-128376480D02*
X124598085Y-128424100D01*
X124598085Y-128424100D02*
X124740942Y-128471719D01*
X124740942Y-128471719D02*
X124836180Y-128471719D01*
X124836180Y-128471719D02*
X124979037Y-128424100D01*
X124979037Y-128424100D02*
X125074275Y-128328861D01*
X125074275Y-128328861D02*
X125121894Y-128233623D01*
X125121894Y-128233623D02*
X125169513Y-128043147D01*
X125169513Y-128043147D02*
X125169513Y-127900290D01*
X125169513Y-127900290D02*
X125121894Y-127709814D01*
X125121894Y-127709814D02*
X125074275Y-127614576D01*
X125074275Y-127614576D02*
X124979037Y-127519338D01*
X124979037Y-127519338D02*
X124836180Y-127471719D01*
X124836180Y-127471719D02*
X124740942Y-127471719D01*
X124740942Y-127471719D02*
X124598085Y-127519338D01*
X124598085Y-127519338D02*
X124550466Y-127566957D01*
X124074275Y-128471719D02*
X123883799Y-128471719D01*
X123883799Y-128471719D02*
X123788561Y-128424100D01*
X123788561Y-128424100D02*
X123740942Y-128376480D01*
X123740942Y-128376480D02*
X123645704Y-128233623D01*
X123645704Y-128233623D02*
X123598085Y-128043147D01*
X123598085Y-128043147D02*
X123598085Y-127662195D01*
X123598085Y-127662195D02*
X123645704Y-127566957D01*
X123645704Y-127566957D02*
X123693323Y-127519338D01*
X123693323Y-127519338D02*
X123788561Y-127471719D01*
X123788561Y-127471719D02*
X123979037Y-127471719D01*
X123979037Y-127471719D02*
X124074275Y-127519338D01*
X124074275Y-127519338D02*
X124121894Y-127566957D01*
X124121894Y-127566957D02*
X124169513Y-127662195D01*
X124169513Y-127662195D02*
X124169513Y-127900290D01*
X124169513Y-127900290D02*
X124121894Y-127995528D01*
X124121894Y-127995528D02*
X124074275Y-128043147D01*
X124074275Y-128043147D02*
X123979037Y-128090766D01*
X123979037Y-128090766D02*
X123788561Y-128090766D01*
X123788561Y-128090766D02*
X123693323Y-128043147D01*
X123693323Y-128043147D02*
X123645704Y-127995528D01*
X123645704Y-127995528D02*
X123598085Y-127900290D01*
X106567266Y-138606319D02*
X106900599Y-138130128D01*
X107138694Y-138606319D02*
X107138694Y-137606319D01*
X107138694Y-137606319D02*
X106757742Y-137606319D01*
X106757742Y-137606319D02*
X106662504Y-137653938D01*
X106662504Y-137653938D02*
X106614885Y-137701557D01*
X106614885Y-137701557D02*
X106567266Y-137796795D01*
X106567266Y-137796795D02*
X106567266Y-137939652D01*
X106567266Y-137939652D02*
X106614885Y-138034890D01*
X106614885Y-138034890D02*
X106662504Y-138082509D01*
X106662504Y-138082509D02*
X106757742Y-138130128D01*
X106757742Y-138130128D02*
X107138694Y-138130128D01*
X105995837Y-138034890D02*
X106091075Y-137987271D01*
X106091075Y-137987271D02*
X106138694Y-137939652D01*
X106138694Y-137939652D02*
X106186313Y-137844414D01*
X106186313Y-137844414D02*
X106186313Y-137796795D01*
X106186313Y-137796795D02*
X106138694Y-137701557D01*
X106138694Y-137701557D02*
X106091075Y-137653938D01*
X106091075Y-137653938D02*
X105995837Y-137606319D01*
X105995837Y-137606319D02*
X105805361Y-137606319D01*
X105805361Y-137606319D02*
X105710123Y-137653938D01*
X105710123Y-137653938D02*
X105662504Y-137701557D01*
X105662504Y-137701557D02*
X105614885Y-137796795D01*
X105614885Y-137796795D02*
X105614885Y-137844414D01*
X105614885Y-137844414D02*
X105662504Y-137939652D01*
X105662504Y-137939652D02*
X105710123Y-137987271D01*
X105710123Y-137987271D02*
X105805361Y-138034890D01*
X105805361Y-138034890D02*
X105995837Y-138034890D01*
X105995837Y-138034890D02*
X106091075Y-138082509D01*
X106091075Y-138082509D02*
X106138694Y-138130128D01*
X106138694Y-138130128D02*
X106186313Y-138225366D01*
X106186313Y-138225366D02*
X106186313Y-138415842D01*
X106186313Y-138415842D02*
X106138694Y-138511080D01*
X106138694Y-138511080D02*
X106091075Y-138558700D01*
X106091075Y-138558700D02*
X105995837Y-138606319D01*
X105995837Y-138606319D02*
X105805361Y-138606319D01*
X105805361Y-138606319D02*
X105710123Y-138558700D01*
X105710123Y-138558700D02*
X105662504Y-138511080D01*
X105662504Y-138511080D02*
X105614885Y-138415842D01*
X105614885Y-138415842D02*
X105614885Y-138225366D01*
X105614885Y-138225366D02*
X105662504Y-138130128D01*
X105662504Y-138130128D02*
X105710123Y-138082509D01*
X105710123Y-138082509D02*
X105805361Y-138034890D01*
D12*
%TO.C,R20*%
X74064800Y-91604036D02*
X74064800Y-92058164D01*
X72594800Y-91604036D02*
X72594800Y-92058164D01*
%TO.C,C22*%
X76125548Y-88484600D02*
X77548052Y-88484600D01*
X76125548Y-90304600D02*
X77548052Y-90304600D01*
D13*
%TO.C,U1*%
X128544250Y-166782400D02*
X128544250Y-168307400D01*
X133574250Y-168657400D02*
X128674250Y-168657400D01*
X128674250Y-168657400D02*
X128674250Y-171857400D01*
X133574250Y-171857400D02*
X133574250Y-168657400D01*
X128674250Y-171857400D02*
X133574250Y-171857400D01*
D12*
%TO.C,R21*%
X83843800Y-97295536D02*
X83843800Y-97749664D01*
X82373800Y-97295536D02*
X82373800Y-97749664D01*
%TO.C,C17*%
X93035800Y-100289348D02*
X93035800Y-101711852D01*
X91215800Y-100289348D02*
X91215800Y-101711852D01*
%TO.C,U10*%
X78155800Y-99671600D02*
X80105800Y-99671600D01*
X78155800Y-99671600D02*
X76205800Y-99671600D01*
X78155800Y-90801600D02*
X80105800Y-90801600D01*
X78155800Y-90801600D02*
X76205800Y-90801600D01*
X80855800Y-90866600D02*
X80615800Y-90536600D01*
X81095800Y-90536600D01*
X80855800Y-90866600D01*
G36*
X80855800Y-90866600D02*
G01*
X80615800Y-90536600D01*
X81095800Y-90536600D01*
X80855800Y-90866600D01*
G37*
%TO.C,R13*%
X109170736Y-146139800D02*
X109624864Y-146139800D01*
X109170736Y-147609800D02*
X109624864Y-147609800D01*
%TO.C,U3*%
X119001900Y-134714500D02*
X119001900Y-134139500D01*
X119001900Y-125069500D02*
X120291900Y-125069500D01*
X119001900Y-124494500D02*
X119001900Y-125069500D01*
X118426900Y-134714500D02*
X119001900Y-134714500D01*
X118426900Y-124494500D02*
X119001900Y-124494500D01*
X109356900Y-134714500D02*
X108781900Y-134714500D01*
X109356900Y-124494500D02*
X108781900Y-124494500D01*
X108781900Y-134714500D02*
X108781900Y-134139500D01*
X108781900Y-124494500D02*
X108781900Y-125069500D01*
%TO.C,R9*%
X120089600Y-137822836D02*
X120089600Y-138276964D01*
X118619600Y-137822836D02*
X118619600Y-138276964D01*
%TO.C,R7*%
X117956000Y-137848236D02*
X117956000Y-138302364D01*
X116486000Y-137848236D02*
X116486000Y-138302364D01*
%TO.C,C9*%
X121314800Y-128804352D02*
X121314800Y-127381848D01*
X123134800Y-128804352D02*
X123134800Y-127381848D01*
%TO.C,R8*%
X107596000Y-138276964D02*
X107596000Y-137822836D01*
X109066000Y-138276964D02*
X109066000Y-137822836D01*
%TD*%
M02*
