%TF.GenerationSoftware,KiCad,Pcbnew,7.0.11-7.0.11~ubuntu22.04.1*%
%TF.CreationDate,2024-11-07T21:46:57-05:00*%
%TF.ProjectId,coleco_original,636f6c65-636f-45f6-9f72-6967696e616c,DEV*%
%TF.SameCoordinates,Original*%
%TF.FileFunction,AssemblyDrawing,Top*%
%FSLAX46Y46*%
G04 Gerber Fmt 4.6, Leading zero omitted, Abs format (unit mm)*
G04 Created by KiCad (PCBNEW 7.0.11-7.0.11~ubuntu22.04.1) date 2024-11-07 21:46:57*
%MOMM*%
%LPD*%
G01*
G04 APERTURE LIST*
%ADD10C,0.150000*%
%ADD11C,0.141000*%
%ADD12C,0.254000*%
%ADD13C,0.090000*%
%ADD14C,0.100000*%
%ADD15C,0.200000*%
%ADD16C,0.025400*%
G04 APERTURE END LIST*
D10*
X136275028Y-76638990D02*
X136751219Y-76638990D01*
X135751219Y-76972323D02*
X136275028Y-76638990D01*
X136275028Y-76638990D02*
X135751219Y-76305657D01*
X136751219Y-75448514D02*
X136751219Y-76019942D01*
X136751219Y-75734228D02*
X135751219Y-75734228D01*
X135751219Y-75734228D02*
X135894076Y-75829466D01*
X135894076Y-75829466D02*
X135989314Y-75924704D01*
X135989314Y-75924704D02*
X136036933Y-76019942D01*
X137792619Y-148184466D02*
X137316428Y-148517799D01*
X137792619Y-148755894D02*
X136792619Y-148755894D01*
X136792619Y-148755894D02*
X136792619Y-148374942D01*
X136792619Y-148374942D02*
X136840238Y-148279704D01*
X136840238Y-148279704D02*
X136887857Y-148232085D01*
X136887857Y-148232085D02*
X136983095Y-148184466D01*
X136983095Y-148184466D02*
X137125952Y-148184466D01*
X137125952Y-148184466D02*
X137221190Y-148232085D01*
X137221190Y-148232085D02*
X137268809Y-148279704D01*
X137268809Y-148279704D02*
X137316428Y-148374942D01*
X137316428Y-148374942D02*
X137316428Y-148755894D01*
X136792619Y-147327323D02*
X136792619Y-147517799D01*
X136792619Y-147517799D02*
X136840238Y-147613037D01*
X136840238Y-147613037D02*
X136887857Y-147660656D01*
X136887857Y-147660656D02*
X137030714Y-147755894D01*
X137030714Y-147755894D02*
X137221190Y-147803513D01*
X137221190Y-147803513D02*
X137602142Y-147803513D01*
X137602142Y-147803513D02*
X137697380Y-147755894D01*
X137697380Y-147755894D02*
X137745000Y-147708275D01*
X137745000Y-147708275D02*
X137792619Y-147613037D01*
X137792619Y-147613037D02*
X137792619Y-147422561D01*
X137792619Y-147422561D02*
X137745000Y-147327323D01*
X137745000Y-147327323D02*
X137697380Y-147279704D01*
X137697380Y-147279704D02*
X137602142Y-147232085D01*
X137602142Y-147232085D02*
X137364047Y-147232085D01*
X137364047Y-147232085D02*
X137268809Y-147279704D01*
X137268809Y-147279704D02*
X137221190Y-147327323D01*
X137221190Y-147327323D02*
X137173571Y-147422561D01*
X137173571Y-147422561D02*
X137173571Y-147613037D01*
X137173571Y-147613037D02*
X137221190Y-147708275D01*
X137221190Y-147708275D02*
X137268809Y-147755894D01*
X137268809Y-147755894D02*
X137364047Y-147803513D01*
D11*
X134397933Y-154959806D02*
X134353171Y-155004568D01*
X134353171Y-155004568D02*
X134218885Y-155049329D01*
X134218885Y-155049329D02*
X134129361Y-155049329D01*
X134129361Y-155049329D02*
X133995076Y-155004568D01*
X133995076Y-155004568D02*
X133905552Y-154915044D01*
X133905552Y-154915044D02*
X133860790Y-154825520D01*
X133860790Y-154825520D02*
X133816028Y-154646472D01*
X133816028Y-154646472D02*
X133816028Y-154512187D01*
X133816028Y-154512187D02*
X133860790Y-154333139D01*
X133860790Y-154333139D02*
X133905552Y-154243615D01*
X133905552Y-154243615D02*
X133995076Y-154154091D01*
X133995076Y-154154091D02*
X134129361Y-154109329D01*
X134129361Y-154109329D02*
X134218885Y-154109329D01*
X134218885Y-154109329D02*
X134353171Y-154154091D01*
X134353171Y-154154091D02*
X134397933Y-154198853D01*
X135203647Y-154422663D02*
X135203647Y-155049329D01*
X134979838Y-154064568D02*
X134756028Y-154735996D01*
X134756028Y-154735996D02*
X135337933Y-154735996D01*
D10*
X152679495Y-49819019D02*
X152679495Y-48819019D01*
X152679495Y-49295209D02*
X153250923Y-49295209D01*
X153250923Y-49819019D02*
X153250923Y-48819019D01*
X154155685Y-48819019D02*
X153965209Y-48819019D01*
X153965209Y-48819019D02*
X153869971Y-48866638D01*
X153869971Y-48866638D02*
X153822352Y-48914257D01*
X153822352Y-48914257D02*
X153727114Y-49057114D01*
X153727114Y-49057114D02*
X153679495Y-49247590D01*
X153679495Y-49247590D02*
X153679495Y-49628542D01*
X153679495Y-49628542D02*
X153727114Y-49723780D01*
X153727114Y-49723780D02*
X153774733Y-49771400D01*
X153774733Y-49771400D02*
X153869971Y-49819019D01*
X153869971Y-49819019D02*
X154060447Y-49819019D01*
X154060447Y-49819019D02*
X154155685Y-49771400D01*
X154155685Y-49771400D02*
X154203304Y-49723780D01*
X154203304Y-49723780D02*
X154250923Y-49628542D01*
X154250923Y-49628542D02*
X154250923Y-49390447D01*
X154250923Y-49390447D02*
X154203304Y-49295209D01*
X154203304Y-49295209D02*
X154155685Y-49247590D01*
X154155685Y-49247590D02*
X154060447Y-49199971D01*
X154060447Y-49199971D02*
X153869971Y-49199971D01*
X153869971Y-49199971D02*
X153774733Y-49247590D01*
X153774733Y-49247590D02*
X153727114Y-49295209D01*
X153727114Y-49295209D02*
X153679495Y-49390447D01*
X106947619Y-72833704D02*
X107757142Y-72833704D01*
X107757142Y-72833704D02*
X107852380Y-72786085D01*
X107852380Y-72786085D02*
X107900000Y-72738466D01*
X107900000Y-72738466D02*
X107947619Y-72643228D01*
X107947619Y-72643228D02*
X107947619Y-72452752D01*
X107947619Y-72452752D02*
X107900000Y-72357514D01*
X107900000Y-72357514D02*
X107852380Y-72309895D01*
X107852380Y-72309895D02*
X107757142Y-72262276D01*
X107757142Y-72262276D02*
X106947619Y-72262276D01*
X106947619Y-71357514D02*
X106947619Y-71547990D01*
X106947619Y-71547990D02*
X106995238Y-71643228D01*
X106995238Y-71643228D02*
X107042857Y-71690847D01*
X107042857Y-71690847D02*
X107185714Y-71786085D01*
X107185714Y-71786085D02*
X107376190Y-71833704D01*
X107376190Y-71833704D02*
X107757142Y-71833704D01*
X107757142Y-71833704D02*
X107852380Y-71786085D01*
X107852380Y-71786085D02*
X107900000Y-71738466D01*
X107900000Y-71738466D02*
X107947619Y-71643228D01*
X107947619Y-71643228D02*
X107947619Y-71452752D01*
X107947619Y-71452752D02*
X107900000Y-71357514D01*
X107900000Y-71357514D02*
X107852380Y-71309895D01*
X107852380Y-71309895D02*
X107757142Y-71262276D01*
X107757142Y-71262276D02*
X107519047Y-71262276D01*
X107519047Y-71262276D02*
X107423809Y-71309895D01*
X107423809Y-71309895D02*
X107376190Y-71357514D01*
X107376190Y-71357514D02*
X107328571Y-71452752D01*
X107328571Y-71452752D02*
X107328571Y-71643228D01*
X107328571Y-71643228D02*
X107376190Y-71738466D01*
X107376190Y-71738466D02*
X107423809Y-71786085D01*
X107423809Y-71786085D02*
X107519047Y-71833704D01*
X139315866Y-50891619D02*
X139315866Y-51605904D01*
X139315866Y-51605904D02*
X139268247Y-51748761D01*
X139268247Y-51748761D02*
X139173009Y-51844000D01*
X139173009Y-51844000D02*
X139030152Y-51891619D01*
X139030152Y-51891619D02*
X138934914Y-51891619D01*
X139696819Y-50891619D02*
X140315866Y-50891619D01*
X140315866Y-50891619D02*
X139982533Y-51272571D01*
X139982533Y-51272571D02*
X140125390Y-51272571D01*
X140125390Y-51272571D02*
X140220628Y-51320190D01*
X140220628Y-51320190D02*
X140268247Y-51367809D01*
X140268247Y-51367809D02*
X140315866Y-51463047D01*
X140315866Y-51463047D02*
X140315866Y-51701142D01*
X140315866Y-51701142D02*
X140268247Y-51796380D01*
X140268247Y-51796380D02*
X140220628Y-51844000D01*
X140220628Y-51844000D02*
X140125390Y-51891619D01*
X140125390Y-51891619D02*
X139839676Y-51891619D01*
X139839676Y-51891619D02*
X139744438Y-51844000D01*
X139744438Y-51844000D02*
X139696819Y-51796380D01*
X64836619Y-73144933D02*
X65550904Y-73144933D01*
X65550904Y-73144933D02*
X65693761Y-73192552D01*
X65693761Y-73192552D02*
X65789000Y-73287790D01*
X65789000Y-73287790D02*
X65836619Y-73430647D01*
X65836619Y-73430647D02*
X65836619Y-73525885D01*
X64836619Y-72192552D02*
X64836619Y-72668742D01*
X64836619Y-72668742D02*
X65312809Y-72716361D01*
X65312809Y-72716361D02*
X65265190Y-72668742D01*
X65265190Y-72668742D02*
X65217571Y-72573504D01*
X65217571Y-72573504D02*
X65217571Y-72335409D01*
X65217571Y-72335409D02*
X65265190Y-72240171D01*
X65265190Y-72240171D02*
X65312809Y-72192552D01*
X65312809Y-72192552D02*
X65408047Y-72144933D01*
X65408047Y-72144933D02*
X65646142Y-72144933D01*
X65646142Y-72144933D02*
X65741380Y-72192552D01*
X65741380Y-72192552D02*
X65789000Y-72240171D01*
X65789000Y-72240171D02*
X65836619Y-72335409D01*
X65836619Y-72335409D02*
X65836619Y-72573504D01*
X65836619Y-72573504D02*
X65789000Y-72668742D01*
X65789000Y-72668742D02*
X65741380Y-72716361D01*
X70533419Y-95650857D02*
X70057228Y-95984190D01*
X70533419Y-96222285D02*
X69533419Y-96222285D01*
X69533419Y-96222285D02*
X69533419Y-95841333D01*
X69533419Y-95841333D02*
X69581038Y-95746095D01*
X69581038Y-95746095D02*
X69628657Y-95698476D01*
X69628657Y-95698476D02*
X69723895Y-95650857D01*
X69723895Y-95650857D02*
X69866752Y-95650857D01*
X69866752Y-95650857D02*
X69961990Y-95698476D01*
X69961990Y-95698476D02*
X70009609Y-95746095D01*
X70009609Y-95746095D02*
X70057228Y-95841333D01*
X70057228Y-95841333D02*
X70057228Y-96222285D01*
X70533419Y-94698476D02*
X70533419Y-95269904D01*
X70533419Y-94984190D02*
X69533419Y-94984190D01*
X69533419Y-94984190D02*
X69676276Y-95079428D01*
X69676276Y-95079428D02*
X69771514Y-95174666D01*
X69771514Y-95174666D02*
X69819133Y-95269904D01*
X70533419Y-94222285D02*
X70533419Y-94031809D01*
X70533419Y-94031809D02*
X70485800Y-93936571D01*
X70485800Y-93936571D02*
X70438180Y-93888952D01*
X70438180Y-93888952D02*
X70295323Y-93793714D01*
X70295323Y-93793714D02*
X70104847Y-93746095D01*
X70104847Y-93746095D02*
X69723895Y-93746095D01*
X69723895Y-93746095D02*
X69628657Y-93793714D01*
X69628657Y-93793714D02*
X69581038Y-93841333D01*
X69581038Y-93841333D02*
X69533419Y-93936571D01*
X69533419Y-93936571D02*
X69533419Y-94127047D01*
X69533419Y-94127047D02*
X69581038Y-94222285D01*
X69581038Y-94222285D02*
X69628657Y-94269904D01*
X69628657Y-94269904D02*
X69723895Y-94317523D01*
X69723895Y-94317523D02*
X69961990Y-94317523D01*
X69961990Y-94317523D02*
X70057228Y-94269904D01*
X70057228Y-94269904D02*
X70104847Y-94222285D01*
X70104847Y-94222285D02*
X70152466Y-94127047D01*
X70152466Y-94127047D02*
X70152466Y-93936571D01*
X70152466Y-93936571D02*
X70104847Y-93841333D01*
X70104847Y-93841333D02*
X70057228Y-93793714D01*
X70057228Y-93793714D02*
X69961990Y-93746095D01*
X118799780Y-162961354D02*
X118847400Y-163008973D01*
X118847400Y-163008973D02*
X118895019Y-163151830D01*
X118895019Y-163151830D02*
X118895019Y-163247068D01*
X118895019Y-163247068D02*
X118847400Y-163389925D01*
X118847400Y-163389925D02*
X118752161Y-163485163D01*
X118752161Y-163485163D02*
X118656923Y-163532782D01*
X118656923Y-163532782D02*
X118466447Y-163580401D01*
X118466447Y-163580401D02*
X118323590Y-163580401D01*
X118323590Y-163580401D02*
X118133114Y-163532782D01*
X118133114Y-163532782D02*
X118037876Y-163485163D01*
X118037876Y-163485163D02*
X117942638Y-163389925D01*
X117942638Y-163389925D02*
X117895019Y-163247068D01*
X117895019Y-163247068D02*
X117895019Y-163151830D01*
X117895019Y-163151830D02*
X117942638Y-163008973D01*
X117942638Y-163008973D02*
X117990257Y-162961354D01*
X117895019Y-162628020D02*
X117895019Y-162008973D01*
X117895019Y-162008973D02*
X118275971Y-162342306D01*
X118275971Y-162342306D02*
X118275971Y-162199449D01*
X118275971Y-162199449D02*
X118323590Y-162104211D01*
X118323590Y-162104211D02*
X118371209Y-162056592D01*
X118371209Y-162056592D02*
X118466447Y-162008973D01*
X118466447Y-162008973D02*
X118704542Y-162008973D01*
X118704542Y-162008973D02*
X118799780Y-162056592D01*
X118799780Y-162056592D02*
X118847400Y-162104211D01*
X118847400Y-162104211D02*
X118895019Y-162199449D01*
X118895019Y-162199449D02*
X118895019Y-162485163D01*
X118895019Y-162485163D02*
X118847400Y-162580401D01*
X118847400Y-162580401D02*
X118799780Y-162628020D01*
X130077380Y-163347770D02*
X130125000Y-163395389D01*
X130125000Y-163395389D02*
X130172619Y-163538246D01*
X130172619Y-163538246D02*
X130172619Y-163633484D01*
X130172619Y-163633484D02*
X130125000Y-163776341D01*
X130125000Y-163776341D02*
X130029761Y-163871579D01*
X130029761Y-163871579D02*
X129934523Y-163919198D01*
X129934523Y-163919198D02*
X129744047Y-163966817D01*
X129744047Y-163966817D02*
X129601190Y-163966817D01*
X129601190Y-163966817D02*
X129410714Y-163919198D01*
X129410714Y-163919198D02*
X129315476Y-163871579D01*
X129315476Y-163871579D02*
X129220238Y-163776341D01*
X129220238Y-163776341D02*
X129172619Y-163633484D01*
X129172619Y-163633484D02*
X129172619Y-163538246D01*
X129172619Y-163538246D02*
X129220238Y-163395389D01*
X129220238Y-163395389D02*
X129267857Y-163347770D01*
X129267857Y-162966817D02*
X129220238Y-162919198D01*
X129220238Y-162919198D02*
X129172619Y-162823960D01*
X129172619Y-162823960D02*
X129172619Y-162585865D01*
X129172619Y-162585865D02*
X129220238Y-162490627D01*
X129220238Y-162490627D02*
X129267857Y-162443008D01*
X129267857Y-162443008D02*
X129363095Y-162395389D01*
X129363095Y-162395389D02*
X129458333Y-162395389D01*
X129458333Y-162395389D02*
X129601190Y-162443008D01*
X129601190Y-162443008D02*
X130172619Y-163014436D01*
X130172619Y-163014436D02*
X130172619Y-162395389D01*
X129601190Y-161823960D02*
X129553571Y-161919198D01*
X129553571Y-161919198D02*
X129505952Y-161966817D01*
X129505952Y-161966817D02*
X129410714Y-162014436D01*
X129410714Y-162014436D02*
X129363095Y-162014436D01*
X129363095Y-162014436D02*
X129267857Y-161966817D01*
X129267857Y-161966817D02*
X129220238Y-161919198D01*
X129220238Y-161919198D02*
X129172619Y-161823960D01*
X129172619Y-161823960D02*
X129172619Y-161633484D01*
X129172619Y-161633484D02*
X129220238Y-161538246D01*
X129220238Y-161538246D02*
X129267857Y-161490627D01*
X129267857Y-161490627D02*
X129363095Y-161443008D01*
X129363095Y-161443008D02*
X129410714Y-161443008D01*
X129410714Y-161443008D02*
X129505952Y-161490627D01*
X129505952Y-161490627D02*
X129553571Y-161538246D01*
X129553571Y-161538246D02*
X129601190Y-161633484D01*
X129601190Y-161633484D02*
X129601190Y-161823960D01*
X129601190Y-161823960D02*
X129648809Y-161919198D01*
X129648809Y-161919198D02*
X129696428Y-161966817D01*
X129696428Y-161966817D02*
X129791666Y-162014436D01*
X129791666Y-162014436D02*
X129982142Y-162014436D01*
X129982142Y-162014436D02*
X130077380Y-161966817D01*
X130077380Y-161966817D02*
X130125000Y-161919198D01*
X130125000Y-161919198D02*
X130172619Y-161823960D01*
X130172619Y-161823960D02*
X130172619Y-161633484D01*
X130172619Y-161633484D02*
X130125000Y-161538246D01*
X130125000Y-161538246D02*
X130077380Y-161490627D01*
X130077380Y-161490627D02*
X129982142Y-161443008D01*
X129982142Y-161443008D02*
X129791666Y-161443008D01*
X129791666Y-161443008D02*
X129696428Y-161490627D01*
X129696428Y-161490627D02*
X129648809Y-161538246D01*
X129648809Y-161538246D02*
X129601190Y-161633484D01*
X86306819Y-127045257D02*
X85830628Y-127378590D01*
X86306819Y-127616685D02*
X85306819Y-127616685D01*
X85306819Y-127616685D02*
X85306819Y-127235733D01*
X85306819Y-127235733D02*
X85354438Y-127140495D01*
X85354438Y-127140495D02*
X85402057Y-127092876D01*
X85402057Y-127092876D02*
X85497295Y-127045257D01*
X85497295Y-127045257D02*
X85640152Y-127045257D01*
X85640152Y-127045257D02*
X85735390Y-127092876D01*
X85735390Y-127092876D02*
X85783009Y-127140495D01*
X85783009Y-127140495D02*
X85830628Y-127235733D01*
X85830628Y-127235733D02*
X85830628Y-127616685D01*
X86306819Y-126092876D02*
X86306819Y-126664304D01*
X86306819Y-126378590D02*
X85306819Y-126378590D01*
X85306819Y-126378590D02*
X85449676Y-126473828D01*
X85449676Y-126473828D02*
X85544914Y-126569066D01*
X85544914Y-126569066D02*
X85592533Y-126664304D01*
X85640152Y-125235733D02*
X86306819Y-125235733D01*
X85259200Y-125473828D02*
X85973485Y-125711923D01*
X85973485Y-125711923D02*
X85973485Y-125092876D01*
X79417942Y-147710619D02*
X79084609Y-147234428D01*
X78846514Y-147710619D02*
X78846514Y-146710619D01*
X78846514Y-146710619D02*
X79227466Y-146710619D01*
X79227466Y-146710619D02*
X79322704Y-146758238D01*
X79322704Y-146758238D02*
X79370323Y-146805857D01*
X79370323Y-146805857D02*
X79417942Y-146901095D01*
X79417942Y-146901095D02*
X79417942Y-147043952D01*
X79417942Y-147043952D02*
X79370323Y-147139190D01*
X79370323Y-147139190D02*
X79322704Y-147186809D01*
X79322704Y-147186809D02*
X79227466Y-147234428D01*
X79227466Y-147234428D02*
X78846514Y-147234428D01*
X79798895Y-146805857D02*
X79846514Y-146758238D01*
X79846514Y-146758238D02*
X79941752Y-146710619D01*
X79941752Y-146710619D02*
X80179847Y-146710619D01*
X80179847Y-146710619D02*
X80275085Y-146758238D01*
X80275085Y-146758238D02*
X80322704Y-146805857D01*
X80322704Y-146805857D02*
X80370323Y-146901095D01*
X80370323Y-146901095D02*
X80370323Y-146996333D01*
X80370323Y-146996333D02*
X80322704Y-147139190D01*
X80322704Y-147139190D02*
X79751276Y-147710619D01*
X79751276Y-147710619D02*
X80370323Y-147710619D01*
X80751276Y-146805857D02*
X80798895Y-146758238D01*
X80798895Y-146758238D02*
X80894133Y-146710619D01*
X80894133Y-146710619D02*
X81132228Y-146710619D01*
X81132228Y-146710619D02*
X81227466Y-146758238D01*
X81227466Y-146758238D02*
X81275085Y-146805857D01*
X81275085Y-146805857D02*
X81322704Y-146901095D01*
X81322704Y-146901095D02*
X81322704Y-146996333D01*
X81322704Y-146996333D02*
X81275085Y-147139190D01*
X81275085Y-147139190D02*
X80703657Y-147710619D01*
X80703657Y-147710619D02*
X81322704Y-147710619D01*
X78100323Y-112963419D02*
X77766990Y-112487228D01*
X77528895Y-112963419D02*
X77528895Y-111963419D01*
X77528895Y-111963419D02*
X77909847Y-111963419D01*
X77909847Y-111963419D02*
X78005085Y-112011038D01*
X78005085Y-112011038D02*
X78052704Y-112058657D01*
X78052704Y-112058657D02*
X78100323Y-112153895D01*
X78100323Y-112153895D02*
X78100323Y-112296752D01*
X78100323Y-112296752D02*
X78052704Y-112391990D01*
X78052704Y-112391990D02*
X78005085Y-112439609D01*
X78005085Y-112439609D02*
X77909847Y-112487228D01*
X77909847Y-112487228D02*
X77528895Y-112487228D01*
X78528895Y-112963419D02*
X78528895Y-111963419D01*
X78528895Y-111963419D02*
X79100323Y-112963419D01*
X79100323Y-112963419D02*
X79100323Y-111963419D01*
X80100323Y-112963419D02*
X79528895Y-112963419D01*
X79814609Y-112963419D02*
X79814609Y-111963419D01*
X79814609Y-111963419D02*
X79719371Y-112106276D01*
X79719371Y-112106276D02*
X79624133Y-112201514D01*
X79624133Y-112201514D02*
X79528895Y-112249133D01*
X122743933Y-83804219D02*
X122267743Y-83804219D01*
X122267743Y-83804219D02*
X122267743Y-82804219D01*
X122982029Y-82804219D02*
X123601076Y-82804219D01*
X123601076Y-82804219D02*
X123267743Y-83185171D01*
X123267743Y-83185171D02*
X123410600Y-83185171D01*
X123410600Y-83185171D02*
X123505838Y-83232790D01*
X123505838Y-83232790D02*
X123553457Y-83280409D01*
X123553457Y-83280409D02*
X123601076Y-83375647D01*
X123601076Y-83375647D02*
X123601076Y-83613742D01*
X123601076Y-83613742D02*
X123553457Y-83708980D01*
X123553457Y-83708980D02*
X123505838Y-83756600D01*
X123505838Y-83756600D02*
X123410600Y-83804219D01*
X123410600Y-83804219D02*
X123124886Y-83804219D01*
X123124886Y-83804219D02*
X123029648Y-83756600D01*
X123029648Y-83756600D02*
X122982029Y-83708980D01*
X132929830Y-180330580D02*
X132882211Y-180378200D01*
X132882211Y-180378200D02*
X132739354Y-180425819D01*
X132739354Y-180425819D02*
X132644116Y-180425819D01*
X132644116Y-180425819D02*
X132501259Y-180378200D01*
X132501259Y-180378200D02*
X132406021Y-180282961D01*
X132406021Y-180282961D02*
X132358402Y-180187723D01*
X132358402Y-180187723D02*
X132310783Y-179997247D01*
X132310783Y-179997247D02*
X132310783Y-179854390D01*
X132310783Y-179854390D02*
X132358402Y-179663914D01*
X132358402Y-179663914D02*
X132406021Y-179568676D01*
X132406021Y-179568676D02*
X132501259Y-179473438D01*
X132501259Y-179473438D02*
X132644116Y-179425819D01*
X132644116Y-179425819D02*
X132739354Y-179425819D01*
X132739354Y-179425819D02*
X132882211Y-179473438D01*
X132882211Y-179473438D02*
X132929830Y-179521057D01*
X133310783Y-179521057D02*
X133358402Y-179473438D01*
X133358402Y-179473438D02*
X133453640Y-179425819D01*
X133453640Y-179425819D02*
X133691735Y-179425819D01*
X133691735Y-179425819D02*
X133786973Y-179473438D01*
X133786973Y-179473438D02*
X133834592Y-179521057D01*
X133834592Y-179521057D02*
X133882211Y-179616295D01*
X133882211Y-179616295D02*
X133882211Y-179711533D01*
X133882211Y-179711533D02*
X133834592Y-179854390D01*
X133834592Y-179854390D02*
X133263164Y-180425819D01*
X133263164Y-180425819D02*
X133882211Y-180425819D01*
X134739354Y-179759152D02*
X134739354Y-180425819D01*
X134501259Y-179378200D02*
X134263164Y-180092485D01*
X134263164Y-180092485D02*
X134882211Y-180092485D01*
X72948895Y-166506619D02*
X72948895Y-165506619D01*
X72948895Y-165982809D02*
X73520323Y-165982809D01*
X73520323Y-166506619D02*
X73520323Y-165506619D01*
X73948895Y-165601857D02*
X73996514Y-165554238D01*
X73996514Y-165554238D02*
X74091752Y-165506619D01*
X74091752Y-165506619D02*
X74329847Y-165506619D01*
X74329847Y-165506619D02*
X74425085Y-165554238D01*
X74425085Y-165554238D02*
X74472704Y-165601857D01*
X74472704Y-165601857D02*
X74520323Y-165697095D01*
X74520323Y-165697095D02*
X74520323Y-165792333D01*
X74520323Y-165792333D02*
X74472704Y-165935190D01*
X74472704Y-165935190D02*
X73901276Y-166506619D01*
X73901276Y-166506619D02*
X74520323Y-166506619D01*
X135221742Y-158429419D02*
X134888409Y-157953228D01*
X134650314Y-158429419D02*
X134650314Y-157429419D01*
X134650314Y-157429419D02*
X135031266Y-157429419D01*
X135031266Y-157429419D02*
X135126504Y-157477038D01*
X135126504Y-157477038D02*
X135174123Y-157524657D01*
X135174123Y-157524657D02*
X135221742Y-157619895D01*
X135221742Y-157619895D02*
X135221742Y-157762752D01*
X135221742Y-157762752D02*
X135174123Y-157857990D01*
X135174123Y-157857990D02*
X135126504Y-157905609D01*
X135126504Y-157905609D02*
X135031266Y-157953228D01*
X135031266Y-157953228D02*
X134650314Y-157953228D01*
X135602695Y-157524657D02*
X135650314Y-157477038D01*
X135650314Y-157477038D02*
X135745552Y-157429419D01*
X135745552Y-157429419D02*
X135983647Y-157429419D01*
X135983647Y-157429419D02*
X136078885Y-157477038D01*
X136078885Y-157477038D02*
X136126504Y-157524657D01*
X136126504Y-157524657D02*
X136174123Y-157619895D01*
X136174123Y-157619895D02*
X136174123Y-157715133D01*
X136174123Y-157715133D02*
X136126504Y-157857990D01*
X136126504Y-157857990D02*
X135555076Y-158429419D01*
X135555076Y-158429419D02*
X136174123Y-158429419D01*
X136507457Y-157429419D02*
X137126504Y-157429419D01*
X137126504Y-157429419D02*
X136793171Y-157810371D01*
X136793171Y-157810371D02*
X136936028Y-157810371D01*
X136936028Y-157810371D02*
X137031266Y-157857990D01*
X137031266Y-157857990D02*
X137078885Y-157905609D01*
X137078885Y-157905609D02*
X137126504Y-158000847D01*
X137126504Y-158000847D02*
X137126504Y-158238942D01*
X137126504Y-158238942D02*
X137078885Y-158334180D01*
X137078885Y-158334180D02*
X137031266Y-158381800D01*
X137031266Y-158381800D02*
X136936028Y-158429419D01*
X136936028Y-158429419D02*
X136650314Y-158429419D01*
X136650314Y-158429419D02*
X136555076Y-158381800D01*
X136555076Y-158381800D02*
X136507457Y-158334180D01*
X107287819Y-181499904D02*
X108097342Y-181499904D01*
X108097342Y-181499904D02*
X108192580Y-181452285D01*
X108192580Y-181452285D02*
X108240200Y-181404666D01*
X108240200Y-181404666D02*
X108287819Y-181309428D01*
X108287819Y-181309428D02*
X108287819Y-181118952D01*
X108287819Y-181118952D02*
X108240200Y-181023714D01*
X108240200Y-181023714D02*
X108192580Y-180976095D01*
X108192580Y-180976095D02*
X108097342Y-180928476D01*
X108097342Y-180928476D02*
X107287819Y-180928476D01*
X107621152Y-180023714D02*
X108287819Y-180023714D01*
X107240200Y-180261809D02*
X107954485Y-180499904D01*
X107954485Y-180499904D02*
X107954485Y-179880857D01*
X124623533Y-158327819D02*
X124147343Y-158327819D01*
X124147343Y-158327819D02*
X124147343Y-157327819D01*
X125480676Y-158327819D02*
X124909248Y-158327819D01*
X125194962Y-158327819D02*
X125194962Y-157327819D01*
X125194962Y-157327819D02*
X125099724Y-157470676D01*
X125099724Y-157470676D02*
X125004486Y-157565914D01*
X125004486Y-157565914D02*
X124909248Y-157613533D01*
X120689019Y-55688704D02*
X121498542Y-55688704D01*
X121498542Y-55688704D02*
X121593780Y-55641085D01*
X121593780Y-55641085D02*
X121641400Y-55593466D01*
X121641400Y-55593466D02*
X121689019Y-55498228D01*
X121689019Y-55498228D02*
X121689019Y-55307752D01*
X121689019Y-55307752D02*
X121641400Y-55212514D01*
X121641400Y-55212514D02*
X121593780Y-55164895D01*
X121593780Y-55164895D02*
X121498542Y-55117276D01*
X121498542Y-55117276D02*
X120689019Y-55117276D01*
X120689019Y-54736323D02*
X120689019Y-54069657D01*
X120689019Y-54069657D02*
X121689019Y-54498228D01*
X79124276Y-143667419D02*
X79124276Y-144381704D01*
X79124276Y-144381704D02*
X79076657Y-144524561D01*
X79076657Y-144524561D02*
X78981419Y-144619800D01*
X78981419Y-144619800D02*
X78838562Y-144667419D01*
X78838562Y-144667419D02*
X78743324Y-144667419D01*
X80124276Y-144667419D02*
X79552848Y-144667419D01*
X79838562Y-144667419D02*
X79838562Y-143667419D01*
X79838562Y-143667419D02*
X79743324Y-143810276D01*
X79743324Y-143810276D02*
X79648086Y-143905514D01*
X79648086Y-143905514D02*
X79552848Y-143953133D01*
X81076657Y-144667419D02*
X80505229Y-144667419D01*
X80790943Y-144667419D02*
X80790943Y-143667419D01*
X80790943Y-143667419D02*
X80695705Y-143810276D01*
X80695705Y-143810276D02*
X80600467Y-143905514D01*
X80600467Y-143905514D02*
X80505229Y-143953133D01*
X83852142Y-171592980D02*
X83804523Y-171640600D01*
X83804523Y-171640600D02*
X83661666Y-171688219D01*
X83661666Y-171688219D02*
X83566428Y-171688219D01*
X83566428Y-171688219D02*
X83423571Y-171640600D01*
X83423571Y-171640600D02*
X83328333Y-171545361D01*
X83328333Y-171545361D02*
X83280714Y-171450123D01*
X83280714Y-171450123D02*
X83233095Y-171259647D01*
X83233095Y-171259647D02*
X83233095Y-171116790D01*
X83233095Y-171116790D02*
X83280714Y-170926314D01*
X83280714Y-170926314D02*
X83328333Y-170831076D01*
X83328333Y-170831076D02*
X83423571Y-170735838D01*
X83423571Y-170735838D02*
X83566428Y-170688219D01*
X83566428Y-170688219D02*
X83661666Y-170688219D01*
X83661666Y-170688219D02*
X83804523Y-170735838D01*
X83804523Y-170735838D02*
X83852142Y-170783457D01*
X84804523Y-171688219D02*
X84233095Y-171688219D01*
X84518809Y-171688219D02*
X84518809Y-170688219D01*
X84518809Y-170688219D02*
X84423571Y-170831076D01*
X84423571Y-170831076D02*
X84328333Y-170926314D01*
X84328333Y-170926314D02*
X84233095Y-170973933D01*
X85423571Y-170688219D02*
X85518809Y-170688219D01*
X85518809Y-170688219D02*
X85614047Y-170735838D01*
X85614047Y-170735838D02*
X85661666Y-170783457D01*
X85661666Y-170783457D02*
X85709285Y-170878695D01*
X85709285Y-170878695D02*
X85756904Y-171069171D01*
X85756904Y-171069171D02*
X85756904Y-171307266D01*
X85756904Y-171307266D02*
X85709285Y-171497742D01*
X85709285Y-171497742D02*
X85661666Y-171592980D01*
X85661666Y-171592980D02*
X85614047Y-171640600D01*
X85614047Y-171640600D02*
X85518809Y-171688219D01*
X85518809Y-171688219D02*
X85423571Y-171688219D01*
X85423571Y-171688219D02*
X85328333Y-171640600D01*
X85328333Y-171640600D02*
X85280714Y-171592980D01*
X85280714Y-171592980D02*
X85233095Y-171497742D01*
X85233095Y-171497742D02*
X85185476Y-171307266D01*
X85185476Y-171307266D02*
X85185476Y-171069171D01*
X85185476Y-171069171D02*
X85233095Y-170878695D01*
X85233095Y-170878695D02*
X85280714Y-170783457D01*
X85280714Y-170783457D02*
X85328333Y-170735838D01*
X85328333Y-170735838D02*
X85423571Y-170688219D01*
X70488980Y-105723857D02*
X70536600Y-105771476D01*
X70536600Y-105771476D02*
X70584219Y-105914333D01*
X70584219Y-105914333D02*
X70584219Y-106009571D01*
X70584219Y-106009571D02*
X70536600Y-106152428D01*
X70536600Y-106152428D02*
X70441361Y-106247666D01*
X70441361Y-106247666D02*
X70346123Y-106295285D01*
X70346123Y-106295285D02*
X70155647Y-106342904D01*
X70155647Y-106342904D02*
X70012790Y-106342904D01*
X70012790Y-106342904D02*
X69822314Y-106295285D01*
X69822314Y-106295285D02*
X69727076Y-106247666D01*
X69727076Y-106247666D02*
X69631838Y-106152428D01*
X69631838Y-106152428D02*
X69584219Y-106009571D01*
X69584219Y-106009571D02*
X69584219Y-105914333D01*
X69584219Y-105914333D02*
X69631838Y-105771476D01*
X69631838Y-105771476D02*
X69679457Y-105723857D01*
X69679457Y-105342904D02*
X69631838Y-105295285D01*
X69631838Y-105295285D02*
X69584219Y-105200047D01*
X69584219Y-105200047D02*
X69584219Y-104961952D01*
X69584219Y-104961952D02*
X69631838Y-104866714D01*
X69631838Y-104866714D02*
X69679457Y-104819095D01*
X69679457Y-104819095D02*
X69774695Y-104771476D01*
X69774695Y-104771476D02*
X69869933Y-104771476D01*
X69869933Y-104771476D02*
X70012790Y-104819095D01*
X70012790Y-104819095D02*
X70584219Y-105390523D01*
X70584219Y-105390523D02*
X70584219Y-104771476D01*
X69584219Y-104152428D02*
X69584219Y-104057190D01*
X69584219Y-104057190D02*
X69631838Y-103961952D01*
X69631838Y-103961952D02*
X69679457Y-103914333D01*
X69679457Y-103914333D02*
X69774695Y-103866714D01*
X69774695Y-103866714D02*
X69965171Y-103819095D01*
X69965171Y-103819095D02*
X70203266Y-103819095D01*
X70203266Y-103819095D02*
X70393742Y-103866714D01*
X70393742Y-103866714D02*
X70488980Y-103914333D01*
X70488980Y-103914333D02*
X70536600Y-103961952D01*
X70536600Y-103961952D02*
X70584219Y-104057190D01*
X70584219Y-104057190D02*
X70584219Y-104152428D01*
X70584219Y-104152428D02*
X70536600Y-104247666D01*
X70536600Y-104247666D02*
X70488980Y-104295285D01*
X70488980Y-104295285D02*
X70393742Y-104342904D01*
X70393742Y-104342904D02*
X70203266Y-104390523D01*
X70203266Y-104390523D02*
X69965171Y-104390523D01*
X69965171Y-104390523D02*
X69774695Y-104342904D01*
X69774695Y-104342904D02*
X69679457Y-104295285D01*
X69679457Y-104295285D02*
X69631838Y-104247666D01*
X69631838Y-104247666D02*
X69584219Y-104152428D01*
D12*
X152898118Y-155270751D02*
X152293356Y-155694085D01*
X152898118Y-155996466D02*
X151628118Y-155996466D01*
X151628118Y-155996466D02*
X151628118Y-155512656D01*
X151628118Y-155512656D02*
X151688594Y-155391704D01*
X151688594Y-155391704D02*
X151749070Y-155331227D01*
X151749070Y-155331227D02*
X151870022Y-155270751D01*
X151870022Y-155270751D02*
X152051451Y-155270751D01*
X152051451Y-155270751D02*
X152172403Y-155331227D01*
X152172403Y-155331227D02*
X152232880Y-155391704D01*
X152232880Y-155391704D02*
X152293356Y-155512656D01*
X152293356Y-155512656D02*
X152293356Y-155996466D01*
X151628118Y-154907894D02*
X152898118Y-154484561D01*
X152898118Y-154484561D02*
X151628118Y-154061227D01*
X152898118Y-152972656D02*
X152898118Y-153698371D01*
X152898118Y-153335514D02*
X151628118Y-153335514D01*
X151628118Y-153335514D02*
X151809546Y-153456466D01*
X151809546Y-153456466D02*
X151930499Y-153577418D01*
X151930499Y-153577418D02*
X151990975Y-153698371D01*
D10*
X143974133Y-184594779D02*
X143974133Y-183880494D01*
X143974133Y-183880494D02*
X144021752Y-183737637D01*
X144021752Y-183737637D02*
X144116990Y-183642399D01*
X144116990Y-183642399D02*
X144259847Y-183594779D01*
X144259847Y-183594779D02*
X144355085Y-183594779D01*
X143450323Y-183594779D02*
X143259847Y-183594779D01*
X143259847Y-183594779D02*
X143164609Y-183642399D01*
X143164609Y-183642399D02*
X143116990Y-183690018D01*
X143116990Y-183690018D02*
X143021752Y-183832875D01*
X143021752Y-183832875D02*
X142974133Y-184023351D01*
X142974133Y-184023351D02*
X142974133Y-184404303D01*
X142974133Y-184404303D02*
X143021752Y-184499541D01*
X143021752Y-184499541D02*
X143069371Y-184547160D01*
X143069371Y-184547160D02*
X143164609Y-184594779D01*
X143164609Y-184594779D02*
X143355085Y-184594779D01*
X143355085Y-184594779D02*
X143450323Y-184547160D01*
X143450323Y-184547160D02*
X143497942Y-184499541D01*
X143497942Y-184499541D02*
X143545561Y-184404303D01*
X143545561Y-184404303D02*
X143545561Y-184166208D01*
X143545561Y-184166208D02*
X143497942Y-184070970D01*
X143497942Y-184070970D02*
X143450323Y-184023351D01*
X143450323Y-184023351D02*
X143355085Y-183975732D01*
X143355085Y-183975732D02*
X143164609Y-183975732D01*
X143164609Y-183975732D02*
X143069371Y-184023351D01*
X143069371Y-184023351D02*
X143021752Y-184070970D01*
X143021752Y-184070970D02*
X142974133Y-184166208D01*
X146180800Y-183504418D02*
X146180800Y-183742513D01*
X145942705Y-183647275D02*
X146180800Y-183742513D01*
X146180800Y-183742513D02*
X146418895Y-183647275D01*
X146037943Y-183932989D02*
X146180800Y-183742513D01*
X146180800Y-183742513D02*
X146323657Y-183932989D01*
X149013942Y-116900419D02*
X148680609Y-116424228D01*
X148442514Y-116900419D02*
X148442514Y-115900419D01*
X148442514Y-115900419D02*
X148823466Y-115900419D01*
X148823466Y-115900419D02*
X148918704Y-115948038D01*
X148918704Y-115948038D02*
X148966323Y-115995657D01*
X148966323Y-115995657D02*
X149013942Y-116090895D01*
X149013942Y-116090895D02*
X149013942Y-116233752D01*
X149013942Y-116233752D02*
X148966323Y-116328990D01*
X148966323Y-116328990D02*
X148918704Y-116376609D01*
X148918704Y-116376609D02*
X148823466Y-116424228D01*
X148823466Y-116424228D02*
X148442514Y-116424228D01*
X149394895Y-115995657D02*
X149442514Y-115948038D01*
X149442514Y-115948038D02*
X149537752Y-115900419D01*
X149537752Y-115900419D02*
X149775847Y-115900419D01*
X149775847Y-115900419D02*
X149871085Y-115948038D01*
X149871085Y-115948038D02*
X149918704Y-115995657D01*
X149918704Y-115995657D02*
X149966323Y-116090895D01*
X149966323Y-116090895D02*
X149966323Y-116186133D01*
X149966323Y-116186133D02*
X149918704Y-116328990D01*
X149918704Y-116328990D02*
X149347276Y-116900419D01*
X149347276Y-116900419D02*
X149966323Y-116900419D01*
X150537752Y-116328990D02*
X150442514Y-116281371D01*
X150442514Y-116281371D02*
X150394895Y-116233752D01*
X150394895Y-116233752D02*
X150347276Y-116138514D01*
X150347276Y-116138514D02*
X150347276Y-116090895D01*
X150347276Y-116090895D02*
X150394895Y-115995657D01*
X150394895Y-115995657D02*
X150442514Y-115948038D01*
X150442514Y-115948038D02*
X150537752Y-115900419D01*
X150537752Y-115900419D02*
X150728228Y-115900419D01*
X150728228Y-115900419D02*
X150823466Y-115948038D01*
X150823466Y-115948038D02*
X150871085Y-115995657D01*
X150871085Y-115995657D02*
X150918704Y-116090895D01*
X150918704Y-116090895D02*
X150918704Y-116138514D01*
X150918704Y-116138514D02*
X150871085Y-116233752D01*
X150871085Y-116233752D02*
X150823466Y-116281371D01*
X150823466Y-116281371D02*
X150728228Y-116328990D01*
X150728228Y-116328990D02*
X150537752Y-116328990D01*
X150537752Y-116328990D02*
X150442514Y-116376609D01*
X150442514Y-116376609D02*
X150394895Y-116424228D01*
X150394895Y-116424228D02*
X150347276Y-116519466D01*
X150347276Y-116519466D02*
X150347276Y-116709942D01*
X150347276Y-116709942D02*
X150394895Y-116805180D01*
X150394895Y-116805180D02*
X150442514Y-116852800D01*
X150442514Y-116852800D02*
X150537752Y-116900419D01*
X150537752Y-116900419D02*
X150728228Y-116900419D01*
X150728228Y-116900419D02*
X150823466Y-116852800D01*
X150823466Y-116852800D02*
X150871085Y-116805180D01*
X150871085Y-116805180D02*
X150918704Y-116709942D01*
X150918704Y-116709942D02*
X150918704Y-116519466D01*
X150918704Y-116519466D02*
X150871085Y-116424228D01*
X150871085Y-116424228D02*
X150823466Y-116376609D01*
X150823466Y-116376609D02*
X150728228Y-116328990D01*
X147108942Y-54873619D02*
X146775609Y-54397428D01*
X146537514Y-54873619D02*
X146537514Y-53873619D01*
X146537514Y-53873619D02*
X146918466Y-53873619D01*
X146918466Y-53873619D02*
X147013704Y-53921238D01*
X147013704Y-53921238D02*
X147061323Y-53968857D01*
X147061323Y-53968857D02*
X147108942Y-54064095D01*
X147108942Y-54064095D02*
X147108942Y-54206952D01*
X147108942Y-54206952D02*
X147061323Y-54302190D01*
X147061323Y-54302190D02*
X147013704Y-54349809D01*
X147013704Y-54349809D02*
X146918466Y-54397428D01*
X146918466Y-54397428D02*
X146537514Y-54397428D01*
X148061323Y-54873619D02*
X147489895Y-54873619D01*
X147775609Y-54873619D02*
X147775609Y-53873619D01*
X147775609Y-53873619D02*
X147680371Y-54016476D01*
X147680371Y-54016476D02*
X147585133Y-54111714D01*
X147585133Y-54111714D02*
X147489895Y-54159333D01*
X148680371Y-53873619D02*
X148775609Y-53873619D01*
X148775609Y-53873619D02*
X148870847Y-53921238D01*
X148870847Y-53921238D02*
X148918466Y-53968857D01*
X148918466Y-53968857D02*
X148966085Y-54064095D01*
X148966085Y-54064095D02*
X149013704Y-54254571D01*
X149013704Y-54254571D02*
X149013704Y-54492666D01*
X149013704Y-54492666D02*
X148966085Y-54683142D01*
X148966085Y-54683142D02*
X148918466Y-54778380D01*
X148918466Y-54778380D02*
X148870847Y-54826000D01*
X148870847Y-54826000D02*
X148775609Y-54873619D01*
X148775609Y-54873619D02*
X148680371Y-54873619D01*
X148680371Y-54873619D02*
X148585133Y-54826000D01*
X148585133Y-54826000D02*
X148537514Y-54778380D01*
X148537514Y-54778380D02*
X148489895Y-54683142D01*
X148489895Y-54683142D02*
X148442276Y-54492666D01*
X148442276Y-54492666D02*
X148442276Y-54254571D01*
X148442276Y-54254571D02*
X148489895Y-54064095D01*
X148489895Y-54064095D02*
X148537514Y-53968857D01*
X148537514Y-53968857D02*
X148585133Y-53921238D01*
X148585133Y-53921238D02*
X148680371Y-53873619D01*
X80210819Y-124937057D02*
X79734628Y-125270390D01*
X80210819Y-125508485D02*
X79210819Y-125508485D01*
X79210819Y-125508485D02*
X79210819Y-125127533D01*
X79210819Y-125127533D02*
X79258438Y-125032295D01*
X79258438Y-125032295D02*
X79306057Y-124984676D01*
X79306057Y-124984676D02*
X79401295Y-124937057D01*
X79401295Y-124937057D02*
X79544152Y-124937057D01*
X79544152Y-124937057D02*
X79639390Y-124984676D01*
X79639390Y-124984676D02*
X79687009Y-125032295D01*
X79687009Y-125032295D02*
X79734628Y-125127533D01*
X79734628Y-125127533D02*
X79734628Y-125508485D01*
X80210819Y-123984676D02*
X80210819Y-124556104D01*
X80210819Y-124270390D02*
X79210819Y-124270390D01*
X79210819Y-124270390D02*
X79353676Y-124365628D01*
X79353676Y-124365628D02*
X79448914Y-124460866D01*
X79448914Y-124460866D02*
X79496533Y-124556104D01*
X79210819Y-123127533D02*
X79210819Y-123318009D01*
X79210819Y-123318009D02*
X79258438Y-123413247D01*
X79258438Y-123413247D02*
X79306057Y-123460866D01*
X79306057Y-123460866D02*
X79448914Y-123556104D01*
X79448914Y-123556104D02*
X79639390Y-123603723D01*
X79639390Y-123603723D02*
X80020342Y-123603723D01*
X80020342Y-123603723D02*
X80115580Y-123556104D01*
X80115580Y-123556104D02*
X80163200Y-123508485D01*
X80163200Y-123508485D02*
X80210819Y-123413247D01*
X80210819Y-123413247D02*
X80210819Y-123222771D01*
X80210819Y-123222771D02*
X80163200Y-123127533D01*
X80163200Y-123127533D02*
X80115580Y-123079914D01*
X80115580Y-123079914D02*
X80020342Y-123032295D01*
X80020342Y-123032295D02*
X79782247Y-123032295D01*
X79782247Y-123032295D02*
X79687009Y-123079914D01*
X79687009Y-123079914D02*
X79639390Y-123127533D01*
X79639390Y-123127533D02*
X79591771Y-123222771D01*
X79591771Y-123222771D02*
X79591771Y-123413247D01*
X79591771Y-123413247D02*
X79639390Y-123508485D01*
X79639390Y-123508485D02*
X79687009Y-123556104D01*
X79687009Y-123556104D02*
X79782247Y-123603723D01*
X71519619Y-124825733D02*
X72233904Y-124825733D01*
X72233904Y-124825733D02*
X72376761Y-124873352D01*
X72376761Y-124873352D02*
X72472000Y-124968590D01*
X72472000Y-124968590D02*
X72519619Y-125111447D01*
X72519619Y-125111447D02*
X72519619Y-125206685D01*
X71519619Y-123920971D02*
X71519619Y-124111447D01*
X71519619Y-124111447D02*
X71567238Y-124206685D01*
X71567238Y-124206685D02*
X71614857Y-124254304D01*
X71614857Y-124254304D02*
X71757714Y-124349542D01*
X71757714Y-124349542D02*
X71948190Y-124397161D01*
X71948190Y-124397161D02*
X72329142Y-124397161D01*
X72329142Y-124397161D02*
X72424380Y-124349542D01*
X72424380Y-124349542D02*
X72472000Y-124301923D01*
X72472000Y-124301923D02*
X72519619Y-124206685D01*
X72519619Y-124206685D02*
X72519619Y-124016209D01*
X72519619Y-124016209D02*
X72472000Y-123920971D01*
X72472000Y-123920971D02*
X72424380Y-123873352D01*
X72424380Y-123873352D02*
X72329142Y-123825733D01*
X72329142Y-123825733D02*
X72091047Y-123825733D01*
X72091047Y-123825733D02*
X71995809Y-123873352D01*
X71995809Y-123873352D02*
X71948190Y-123920971D01*
X71948190Y-123920971D02*
X71900571Y-124016209D01*
X71900571Y-124016209D02*
X71900571Y-124206685D01*
X71900571Y-124206685D02*
X71948190Y-124301923D01*
X71948190Y-124301923D02*
X71995809Y-124349542D01*
X71995809Y-124349542D02*
X72091047Y-124397161D01*
X138041142Y-68869019D02*
X137707809Y-68392828D01*
X137469714Y-68869019D02*
X137469714Y-67869019D01*
X137469714Y-67869019D02*
X137850666Y-67869019D01*
X137850666Y-67869019D02*
X137945904Y-67916638D01*
X137945904Y-67916638D02*
X137993523Y-67964257D01*
X137993523Y-67964257D02*
X138041142Y-68059495D01*
X138041142Y-68059495D02*
X138041142Y-68202352D01*
X138041142Y-68202352D02*
X137993523Y-68297590D01*
X137993523Y-68297590D02*
X137945904Y-68345209D01*
X137945904Y-68345209D02*
X137850666Y-68392828D01*
X137850666Y-68392828D02*
X137469714Y-68392828D01*
X138993523Y-68869019D02*
X138422095Y-68869019D01*
X138707809Y-68869019D02*
X138707809Y-67869019D01*
X138707809Y-67869019D02*
X138612571Y-68011876D01*
X138612571Y-68011876D02*
X138517333Y-68107114D01*
X138517333Y-68107114D02*
X138422095Y-68154733D01*
X139374476Y-67964257D02*
X139422095Y-67916638D01*
X139422095Y-67916638D02*
X139517333Y-67869019D01*
X139517333Y-67869019D02*
X139755428Y-67869019D01*
X139755428Y-67869019D02*
X139850666Y-67916638D01*
X139850666Y-67916638D02*
X139898285Y-67964257D01*
X139898285Y-67964257D02*
X139945904Y-68059495D01*
X139945904Y-68059495D02*
X139945904Y-68154733D01*
X139945904Y-68154733D02*
X139898285Y-68297590D01*
X139898285Y-68297590D02*
X139326857Y-68869019D01*
X139326857Y-68869019D02*
X139945904Y-68869019D01*
X151268133Y-131359380D02*
X151220514Y-131407000D01*
X151220514Y-131407000D02*
X151077657Y-131454619D01*
X151077657Y-131454619D02*
X150982419Y-131454619D01*
X150982419Y-131454619D02*
X150839562Y-131407000D01*
X150839562Y-131407000D02*
X150744324Y-131311761D01*
X150744324Y-131311761D02*
X150696705Y-131216523D01*
X150696705Y-131216523D02*
X150649086Y-131026047D01*
X150649086Y-131026047D02*
X150649086Y-130883190D01*
X150649086Y-130883190D02*
X150696705Y-130692714D01*
X150696705Y-130692714D02*
X150744324Y-130597476D01*
X150744324Y-130597476D02*
X150839562Y-130502238D01*
X150839562Y-130502238D02*
X150982419Y-130454619D01*
X150982419Y-130454619D02*
X151077657Y-130454619D01*
X151077657Y-130454619D02*
X151220514Y-130502238D01*
X151220514Y-130502238D02*
X151268133Y-130549857D01*
X151839562Y-130883190D02*
X151744324Y-130835571D01*
X151744324Y-130835571D02*
X151696705Y-130787952D01*
X151696705Y-130787952D02*
X151649086Y-130692714D01*
X151649086Y-130692714D02*
X151649086Y-130645095D01*
X151649086Y-130645095D02*
X151696705Y-130549857D01*
X151696705Y-130549857D02*
X151744324Y-130502238D01*
X151744324Y-130502238D02*
X151839562Y-130454619D01*
X151839562Y-130454619D02*
X152030038Y-130454619D01*
X152030038Y-130454619D02*
X152125276Y-130502238D01*
X152125276Y-130502238D02*
X152172895Y-130549857D01*
X152172895Y-130549857D02*
X152220514Y-130645095D01*
X152220514Y-130645095D02*
X152220514Y-130692714D01*
X152220514Y-130692714D02*
X152172895Y-130787952D01*
X152172895Y-130787952D02*
X152125276Y-130835571D01*
X152125276Y-130835571D02*
X152030038Y-130883190D01*
X152030038Y-130883190D02*
X151839562Y-130883190D01*
X151839562Y-130883190D02*
X151744324Y-130930809D01*
X151744324Y-130930809D02*
X151696705Y-130978428D01*
X151696705Y-130978428D02*
X151649086Y-131073666D01*
X151649086Y-131073666D02*
X151649086Y-131264142D01*
X151649086Y-131264142D02*
X151696705Y-131359380D01*
X151696705Y-131359380D02*
X151744324Y-131407000D01*
X151744324Y-131407000D02*
X151839562Y-131454619D01*
X151839562Y-131454619D02*
X152030038Y-131454619D01*
X152030038Y-131454619D02*
X152125276Y-131407000D01*
X152125276Y-131407000D02*
X152172895Y-131359380D01*
X152172895Y-131359380D02*
X152220514Y-131264142D01*
X152220514Y-131264142D02*
X152220514Y-131073666D01*
X152220514Y-131073666D02*
X152172895Y-130978428D01*
X152172895Y-130978428D02*
X152125276Y-130930809D01*
X152125276Y-130930809D02*
X152030038Y-130883190D01*
X75449133Y-116392419D02*
X75115800Y-115916228D01*
X74877705Y-116392419D02*
X74877705Y-115392419D01*
X74877705Y-115392419D02*
X75258657Y-115392419D01*
X75258657Y-115392419D02*
X75353895Y-115440038D01*
X75353895Y-115440038D02*
X75401514Y-115487657D01*
X75401514Y-115487657D02*
X75449133Y-115582895D01*
X75449133Y-115582895D02*
X75449133Y-115725752D01*
X75449133Y-115725752D02*
X75401514Y-115820990D01*
X75401514Y-115820990D02*
X75353895Y-115868609D01*
X75353895Y-115868609D02*
X75258657Y-115916228D01*
X75258657Y-115916228D02*
X74877705Y-115916228D01*
X75782467Y-115392419D02*
X76401514Y-115392419D01*
X76401514Y-115392419D02*
X76068181Y-115773371D01*
X76068181Y-115773371D02*
X76211038Y-115773371D01*
X76211038Y-115773371D02*
X76306276Y-115820990D01*
X76306276Y-115820990D02*
X76353895Y-115868609D01*
X76353895Y-115868609D02*
X76401514Y-115963847D01*
X76401514Y-115963847D02*
X76401514Y-116201942D01*
X76401514Y-116201942D02*
X76353895Y-116297180D01*
X76353895Y-116297180D02*
X76306276Y-116344800D01*
X76306276Y-116344800D02*
X76211038Y-116392419D01*
X76211038Y-116392419D02*
X75925324Y-116392419D01*
X75925324Y-116392419D02*
X75830086Y-116344800D01*
X75830086Y-116344800D02*
X75782467Y-116297180D01*
X133037482Y-175961780D02*
X132989863Y-176009400D01*
X132989863Y-176009400D02*
X132847006Y-176057019D01*
X132847006Y-176057019D02*
X132751768Y-176057019D01*
X132751768Y-176057019D02*
X132608911Y-176009400D01*
X132608911Y-176009400D02*
X132513673Y-175914161D01*
X132513673Y-175914161D02*
X132466054Y-175818923D01*
X132466054Y-175818923D02*
X132418435Y-175628447D01*
X132418435Y-175628447D02*
X132418435Y-175485590D01*
X132418435Y-175485590D02*
X132466054Y-175295114D01*
X132466054Y-175295114D02*
X132513673Y-175199876D01*
X132513673Y-175199876D02*
X132608911Y-175104638D01*
X132608911Y-175104638D02*
X132751768Y-175057019D01*
X132751768Y-175057019D02*
X132847006Y-175057019D01*
X132847006Y-175057019D02*
X132989863Y-175104638D01*
X132989863Y-175104638D02*
X133037482Y-175152257D01*
X133370816Y-175057019D02*
X134037482Y-175057019D01*
X134037482Y-175057019D02*
X133608911Y-176057019D01*
X135716180Y-163347770D02*
X135763800Y-163395389D01*
X135763800Y-163395389D02*
X135811419Y-163538246D01*
X135811419Y-163538246D02*
X135811419Y-163633484D01*
X135811419Y-163633484D02*
X135763800Y-163776341D01*
X135763800Y-163776341D02*
X135668561Y-163871579D01*
X135668561Y-163871579D02*
X135573323Y-163919198D01*
X135573323Y-163919198D02*
X135382847Y-163966817D01*
X135382847Y-163966817D02*
X135239990Y-163966817D01*
X135239990Y-163966817D02*
X135049514Y-163919198D01*
X135049514Y-163919198D02*
X134954276Y-163871579D01*
X134954276Y-163871579D02*
X134859038Y-163776341D01*
X134859038Y-163776341D02*
X134811419Y-163633484D01*
X134811419Y-163633484D02*
X134811419Y-163538246D01*
X134811419Y-163538246D02*
X134859038Y-163395389D01*
X134859038Y-163395389D02*
X134906657Y-163347770D01*
X134906657Y-162966817D02*
X134859038Y-162919198D01*
X134859038Y-162919198D02*
X134811419Y-162823960D01*
X134811419Y-162823960D02*
X134811419Y-162585865D01*
X134811419Y-162585865D02*
X134859038Y-162490627D01*
X134859038Y-162490627D02*
X134906657Y-162443008D01*
X134906657Y-162443008D02*
X135001895Y-162395389D01*
X135001895Y-162395389D02*
X135097133Y-162395389D01*
X135097133Y-162395389D02*
X135239990Y-162443008D01*
X135239990Y-162443008D02*
X135811419Y-163014436D01*
X135811419Y-163014436D02*
X135811419Y-162395389D01*
X134811419Y-162062055D02*
X134811419Y-161395389D01*
X134811419Y-161395389D02*
X135811419Y-161823960D01*
X77162819Y-124937057D02*
X76686628Y-125270390D01*
X77162819Y-125508485D02*
X76162819Y-125508485D01*
X76162819Y-125508485D02*
X76162819Y-125127533D01*
X76162819Y-125127533D02*
X76210438Y-125032295D01*
X76210438Y-125032295D02*
X76258057Y-124984676D01*
X76258057Y-124984676D02*
X76353295Y-124937057D01*
X76353295Y-124937057D02*
X76496152Y-124937057D01*
X76496152Y-124937057D02*
X76591390Y-124984676D01*
X76591390Y-124984676D02*
X76639009Y-125032295D01*
X76639009Y-125032295D02*
X76686628Y-125127533D01*
X76686628Y-125127533D02*
X76686628Y-125508485D01*
X77162819Y-123984676D02*
X77162819Y-124556104D01*
X77162819Y-124270390D02*
X76162819Y-124270390D01*
X76162819Y-124270390D02*
X76305676Y-124365628D01*
X76305676Y-124365628D02*
X76400914Y-124460866D01*
X76400914Y-124460866D02*
X76448533Y-124556104D01*
X76162819Y-123651342D02*
X76162819Y-122984676D01*
X76162819Y-122984676D02*
X77162819Y-123413247D01*
X159627419Y-73004133D02*
X160341704Y-73004133D01*
X160341704Y-73004133D02*
X160484561Y-73051752D01*
X160484561Y-73051752D02*
X160579800Y-73146990D01*
X160579800Y-73146990D02*
X160627419Y-73289847D01*
X160627419Y-73289847D02*
X160627419Y-73385085D01*
X159627419Y-72623180D02*
X159627419Y-71956514D01*
X159627419Y-71956514D02*
X160627419Y-72385085D01*
X115087495Y-111977719D02*
X115087495Y-112787242D01*
X115087495Y-112787242D02*
X115135114Y-112882480D01*
X115135114Y-112882480D02*
X115182733Y-112930100D01*
X115182733Y-112930100D02*
X115277971Y-112977719D01*
X115277971Y-112977719D02*
X115468447Y-112977719D01*
X115468447Y-112977719D02*
X115563685Y-112930100D01*
X115563685Y-112930100D02*
X115611304Y-112882480D01*
X115611304Y-112882480D02*
X115658923Y-112787242D01*
X115658923Y-112787242D02*
X115658923Y-111977719D01*
X116182733Y-112977719D02*
X116373209Y-112977719D01*
X116373209Y-112977719D02*
X116468447Y-112930100D01*
X116468447Y-112930100D02*
X116516066Y-112882480D01*
X116516066Y-112882480D02*
X116611304Y-112739623D01*
X116611304Y-112739623D02*
X116658923Y-112549147D01*
X116658923Y-112549147D02*
X116658923Y-112168195D01*
X116658923Y-112168195D02*
X116611304Y-112072957D01*
X116611304Y-112072957D02*
X116563685Y-112025338D01*
X116563685Y-112025338D02*
X116468447Y-111977719D01*
X116468447Y-111977719D02*
X116277971Y-111977719D01*
X116277971Y-111977719D02*
X116182733Y-112025338D01*
X116182733Y-112025338D02*
X116135114Y-112072957D01*
X116135114Y-112072957D02*
X116087495Y-112168195D01*
X116087495Y-112168195D02*
X116087495Y-112406290D01*
X116087495Y-112406290D02*
X116135114Y-112501528D01*
X116135114Y-112501528D02*
X116182733Y-112549147D01*
X116182733Y-112549147D02*
X116277971Y-112596766D01*
X116277971Y-112596766D02*
X116468447Y-112596766D01*
X116468447Y-112596766D02*
X116563685Y-112549147D01*
X116563685Y-112549147D02*
X116611304Y-112501528D01*
X116611304Y-112501528D02*
X116658923Y-112406290D01*
X144438019Y-138664094D02*
X145247542Y-138664094D01*
X145247542Y-138664094D02*
X145342780Y-138616475D01*
X145342780Y-138616475D02*
X145390400Y-138568856D01*
X145390400Y-138568856D02*
X145438019Y-138473618D01*
X145438019Y-138473618D02*
X145438019Y-138283142D01*
X145438019Y-138283142D02*
X145390400Y-138187904D01*
X145390400Y-138187904D02*
X145342780Y-138140285D01*
X145342780Y-138140285D02*
X145247542Y-138092666D01*
X145247542Y-138092666D02*
X144438019Y-138092666D01*
X145438019Y-137092666D02*
X145438019Y-137664094D01*
X145438019Y-137378380D02*
X144438019Y-137378380D01*
X144438019Y-137378380D02*
X144580876Y-137473618D01*
X144580876Y-137473618D02*
X144676114Y-137568856D01*
X144676114Y-137568856D02*
X144723733Y-137664094D01*
X145438019Y-136140285D02*
X145438019Y-136711713D01*
X145438019Y-136425999D02*
X144438019Y-136425999D01*
X144438019Y-136425999D02*
X144580876Y-136521237D01*
X144580876Y-136521237D02*
X144676114Y-136616475D01*
X144676114Y-136616475D02*
X144723733Y-136711713D01*
D13*
X140296748Y-80382314D02*
X140325320Y-80410886D01*
X140325320Y-80410886D02*
X140353891Y-80496600D01*
X140353891Y-80496600D02*
X140353891Y-80553743D01*
X140353891Y-80553743D02*
X140325320Y-80639457D01*
X140325320Y-80639457D02*
X140268177Y-80696600D01*
X140268177Y-80696600D02*
X140211034Y-80725171D01*
X140211034Y-80725171D02*
X140096748Y-80753743D01*
X140096748Y-80753743D02*
X140011034Y-80753743D01*
X140011034Y-80753743D02*
X139896748Y-80725171D01*
X139896748Y-80725171D02*
X139839605Y-80696600D01*
X139839605Y-80696600D02*
X139782462Y-80639457D01*
X139782462Y-80639457D02*
X139753891Y-80553743D01*
X139753891Y-80553743D02*
X139753891Y-80496600D01*
X139753891Y-80496600D02*
X139782462Y-80410886D01*
X139782462Y-80410886D02*
X139811034Y-80382314D01*
X140353891Y-79810886D02*
X140353891Y-80153743D01*
X140353891Y-79982314D02*
X139753891Y-79982314D01*
X139753891Y-79982314D02*
X139839605Y-80039457D01*
X139839605Y-80039457D02*
X139896748Y-80096600D01*
X139896748Y-80096600D02*
X139925320Y-80153743D01*
X139753891Y-79296600D02*
X139753891Y-79410885D01*
X139753891Y-79410885D02*
X139782462Y-79468028D01*
X139782462Y-79468028D02*
X139811034Y-79496600D01*
X139811034Y-79496600D02*
X139896748Y-79553742D01*
X139896748Y-79553742D02*
X140011034Y-79582314D01*
X140011034Y-79582314D02*
X140239605Y-79582314D01*
X140239605Y-79582314D02*
X140296748Y-79553742D01*
X140296748Y-79553742D02*
X140325320Y-79525171D01*
X140325320Y-79525171D02*
X140353891Y-79468028D01*
X140353891Y-79468028D02*
X140353891Y-79353742D01*
X140353891Y-79353742D02*
X140325320Y-79296600D01*
X140325320Y-79296600D02*
X140296748Y-79268028D01*
X140296748Y-79268028D02*
X140239605Y-79239457D01*
X140239605Y-79239457D02*
X140096748Y-79239457D01*
X140096748Y-79239457D02*
X140039605Y-79268028D01*
X140039605Y-79268028D02*
X140011034Y-79296600D01*
X140011034Y-79296600D02*
X139982462Y-79353742D01*
X139982462Y-79353742D02*
X139982462Y-79468028D01*
X139982462Y-79468028D02*
X140011034Y-79525171D01*
X140011034Y-79525171D02*
X140039605Y-79553742D01*
X140039605Y-79553742D02*
X140096748Y-79582314D01*
D10*
X93323580Y-137774857D02*
X93371200Y-137822476D01*
X93371200Y-137822476D02*
X93418819Y-137965333D01*
X93418819Y-137965333D02*
X93418819Y-138060571D01*
X93418819Y-138060571D02*
X93371200Y-138203428D01*
X93371200Y-138203428D02*
X93275961Y-138298666D01*
X93275961Y-138298666D02*
X93180723Y-138346285D01*
X93180723Y-138346285D02*
X92990247Y-138393904D01*
X92990247Y-138393904D02*
X92847390Y-138393904D01*
X92847390Y-138393904D02*
X92656914Y-138346285D01*
X92656914Y-138346285D02*
X92561676Y-138298666D01*
X92561676Y-138298666D02*
X92466438Y-138203428D01*
X92466438Y-138203428D02*
X92418819Y-138060571D01*
X92418819Y-138060571D02*
X92418819Y-137965333D01*
X92418819Y-137965333D02*
X92466438Y-137822476D01*
X92466438Y-137822476D02*
X92514057Y-137774857D01*
X93418819Y-136822476D02*
X93418819Y-137393904D01*
X93418819Y-137108190D02*
X92418819Y-137108190D01*
X92418819Y-137108190D02*
X92561676Y-137203428D01*
X92561676Y-137203428D02*
X92656914Y-137298666D01*
X92656914Y-137298666D02*
X92704533Y-137393904D01*
X92847390Y-136251047D02*
X92799771Y-136346285D01*
X92799771Y-136346285D02*
X92752152Y-136393904D01*
X92752152Y-136393904D02*
X92656914Y-136441523D01*
X92656914Y-136441523D02*
X92609295Y-136441523D01*
X92609295Y-136441523D02*
X92514057Y-136393904D01*
X92514057Y-136393904D02*
X92466438Y-136346285D01*
X92466438Y-136346285D02*
X92418819Y-136251047D01*
X92418819Y-136251047D02*
X92418819Y-136060571D01*
X92418819Y-136060571D02*
X92466438Y-135965333D01*
X92466438Y-135965333D02*
X92514057Y-135917714D01*
X92514057Y-135917714D02*
X92609295Y-135870095D01*
X92609295Y-135870095D02*
X92656914Y-135870095D01*
X92656914Y-135870095D02*
X92752152Y-135917714D01*
X92752152Y-135917714D02*
X92799771Y-135965333D01*
X92799771Y-135965333D02*
X92847390Y-136060571D01*
X92847390Y-136060571D02*
X92847390Y-136251047D01*
X92847390Y-136251047D02*
X92895009Y-136346285D01*
X92895009Y-136346285D02*
X92942628Y-136393904D01*
X92942628Y-136393904D02*
X93037866Y-136441523D01*
X93037866Y-136441523D02*
X93228342Y-136441523D01*
X93228342Y-136441523D02*
X93323580Y-136393904D01*
X93323580Y-136393904D02*
X93371200Y-136346285D01*
X93371200Y-136346285D02*
X93418819Y-136251047D01*
X93418819Y-136251047D02*
X93418819Y-136060571D01*
X93418819Y-136060571D02*
X93371200Y-135965333D01*
X93371200Y-135965333D02*
X93323580Y-135917714D01*
X93323580Y-135917714D02*
X93228342Y-135870095D01*
X93228342Y-135870095D02*
X93037866Y-135870095D01*
X93037866Y-135870095D02*
X92942628Y-135917714D01*
X92942628Y-135917714D02*
X92895009Y-135965333D01*
X92895009Y-135965333D02*
X92847390Y-136060571D01*
D13*
X140347548Y-72889314D02*
X140376120Y-72917886D01*
X140376120Y-72917886D02*
X140404691Y-73003600D01*
X140404691Y-73003600D02*
X140404691Y-73060743D01*
X140404691Y-73060743D02*
X140376120Y-73146457D01*
X140376120Y-73146457D02*
X140318977Y-73203600D01*
X140318977Y-73203600D02*
X140261834Y-73232171D01*
X140261834Y-73232171D02*
X140147548Y-73260743D01*
X140147548Y-73260743D02*
X140061834Y-73260743D01*
X140061834Y-73260743D02*
X139947548Y-73232171D01*
X139947548Y-73232171D02*
X139890405Y-73203600D01*
X139890405Y-73203600D02*
X139833262Y-73146457D01*
X139833262Y-73146457D02*
X139804691Y-73060743D01*
X139804691Y-73060743D02*
X139804691Y-73003600D01*
X139804691Y-73003600D02*
X139833262Y-72917886D01*
X139833262Y-72917886D02*
X139861834Y-72889314D01*
X140404691Y-72317886D02*
X140404691Y-72660743D01*
X140404691Y-72489314D02*
X139804691Y-72489314D01*
X139804691Y-72489314D02*
X139890405Y-72546457D01*
X139890405Y-72546457D02*
X139947548Y-72603600D01*
X139947548Y-72603600D02*
X139976120Y-72660743D01*
X139804691Y-71775028D02*
X139804691Y-72060742D01*
X139804691Y-72060742D02*
X140090405Y-72089314D01*
X140090405Y-72089314D02*
X140061834Y-72060742D01*
X140061834Y-72060742D02*
X140033262Y-72003600D01*
X140033262Y-72003600D02*
X140033262Y-71860742D01*
X140033262Y-71860742D02*
X140061834Y-71803600D01*
X140061834Y-71803600D02*
X140090405Y-71775028D01*
X140090405Y-71775028D02*
X140147548Y-71746457D01*
X140147548Y-71746457D02*
X140290405Y-71746457D01*
X140290405Y-71746457D02*
X140347548Y-71775028D01*
X140347548Y-71775028D02*
X140376120Y-71803600D01*
X140376120Y-71803600D02*
X140404691Y-71860742D01*
X140404691Y-71860742D02*
X140404691Y-72003600D01*
X140404691Y-72003600D02*
X140376120Y-72060742D01*
X140376120Y-72060742D02*
X140347548Y-72089314D01*
D10*
X150461742Y-164982619D02*
X150128409Y-164506428D01*
X149890314Y-164982619D02*
X149890314Y-163982619D01*
X149890314Y-163982619D02*
X150271266Y-163982619D01*
X150271266Y-163982619D02*
X150366504Y-164030238D01*
X150366504Y-164030238D02*
X150414123Y-164077857D01*
X150414123Y-164077857D02*
X150461742Y-164173095D01*
X150461742Y-164173095D02*
X150461742Y-164315952D01*
X150461742Y-164315952D02*
X150414123Y-164411190D01*
X150414123Y-164411190D02*
X150366504Y-164458809D01*
X150366504Y-164458809D02*
X150271266Y-164506428D01*
X150271266Y-164506428D02*
X149890314Y-164506428D01*
X150842695Y-164077857D02*
X150890314Y-164030238D01*
X150890314Y-164030238D02*
X150985552Y-163982619D01*
X150985552Y-163982619D02*
X151223647Y-163982619D01*
X151223647Y-163982619D02*
X151318885Y-164030238D01*
X151318885Y-164030238D02*
X151366504Y-164077857D01*
X151366504Y-164077857D02*
X151414123Y-164173095D01*
X151414123Y-164173095D02*
X151414123Y-164268333D01*
X151414123Y-164268333D02*
X151366504Y-164411190D01*
X151366504Y-164411190D02*
X150795076Y-164982619D01*
X150795076Y-164982619D02*
X151414123Y-164982619D01*
X152271266Y-164315952D02*
X152271266Y-164982619D01*
X152033171Y-163935000D02*
X151795076Y-164649285D01*
X151795076Y-164649285D02*
X152414123Y-164649285D01*
X146477123Y-112963419D02*
X146143790Y-112487228D01*
X145905695Y-112963419D02*
X145905695Y-111963419D01*
X145905695Y-111963419D02*
X146286647Y-111963419D01*
X146286647Y-111963419D02*
X146381885Y-112011038D01*
X146381885Y-112011038D02*
X146429504Y-112058657D01*
X146429504Y-112058657D02*
X146477123Y-112153895D01*
X146477123Y-112153895D02*
X146477123Y-112296752D01*
X146477123Y-112296752D02*
X146429504Y-112391990D01*
X146429504Y-112391990D02*
X146381885Y-112439609D01*
X146381885Y-112439609D02*
X146286647Y-112487228D01*
X146286647Y-112487228D02*
X145905695Y-112487228D01*
X146905695Y-112963419D02*
X146905695Y-111963419D01*
X146905695Y-111963419D02*
X147477123Y-112963419D01*
X147477123Y-112963419D02*
X147477123Y-111963419D01*
X147905695Y-112058657D02*
X147953314Y-112011038D01*
X147953314Y-112011038D02*
X148048552Y-111963419D01*
X148048552Y-111963419D02*
X148286647Y-111963419D01*
X148286647Y-111963419D02*
X148381885Y-112011038D01*
X148381885Y-112011038D02*
X148429504Y-112058657D01*
X148429504Y-112058657D02*
X148477123Y-112153895D01*
X148477123Y-112153895D02*
X148477123Y-112249133D01*
X148477123Y-112249133D02*
X148429504Y-112391990D01*
X148429504Y-112391990D02*
X147858076Y-112963419D01*
X147858076Y-112963419D02*
X148477123Y-112963419D01*
X135131980Y-55442657D02*
X135179600Y-55490276D01*
X135179600Y-55490276D02*
X135227219Y-55633133D01*
X135227219Y-55633133D02*
X135227219Y-55728371D01*
X135227219Y-55728371D02*
X135179600Y-55871228D01*
X135179600Y-55871228D02*
X135084361Y-55966466D01*
X135084361Y-55966466D02*
X134989123Y-56014085D01*
X134989123Y-56014085D02*
X134798647Y-56061704D01*
X134798647Y-56061704D02*
X134655790Y-56061704D01*
X134655790Y-56061704D02*
X134465314Y-56014085D01*
X134465314Y-56014085D02*
X134370076Y-55966466D01*
X134370076Y-55966466D02*
X134274838Y-55871228D01*
X134274838Y-55871228D02*
X134227219Y-55728371D01*
X134227219Y-55728371D02*
X134227219Y-55633133D01*
X134227219Y-55633133D02*
X134274838Y-55490276D01*
X134274838Y-55490276D02*
X134322457Y-55442657D01*
X135227219Y-54490276D02*
X135227219Y-55061704D01*
X135227219Y-54775990D02*
X134227219Y-54775990D01*
X134227219Y-54775990D02*
X134370076Y-54871228D01*
X134370076Y-54871228D02*
X134465314Y-54966466D01*
X134465314Y-54966466D02*
X134512933Y-55061704D01*
X134560552Y-53633133D02*
X135227219Y-53633133D01*
X134179600Y-53871228D02*
X134893885Y-54109323D01*
X134893885Y-54109323D02*
X134893885Y-53490276D01*
X70154200Y-156219732D02*
X70201819Y-156076875D01*
X70201819Y-156076875D02*
X70201819Y-155838780D01*
X70201819Y-155838780D02*
X70154200Y-155743542D01*
X70154200Y-155743542D02*
X70106580Y-155695923D01*
X70106580Y-155695923D02*
X70011342Y-155648304D01*
X70011342Y-155648304D02*
X69916104Y-155648304D01*
X69916104Y-155648304D02*
X69820866Y-155695923D01*
X69820866Y-155695923D02*
X69773247Y-155743542D01*
X69773247Y-155743542D02*
X69725628Y-155838780D01*
X69725628Y-155838780D02*
X69678009Y-156029256D01*
X69678009Y-156029256D02*
X69630390Y-156124494D01*
X69630390Y-156124494D02*
X69582771Y-156172113D01*
X69582771Y-156172113D02*
X69487533Y-156219732D01*
X69487533Y-156219732D02*
X69392295Y-156219732D01*
X69392295Y-156219732D02*
X69297057Y-156172113D01*
X69297057Y-156172113D02*
X69249438Y-156124494D01*
X69249438Y-156124494D02*
X69201819Y-156029256D01*
X69201819Y-156029256D02*
X69201819Y-155791161D01*
X69201819Y-155791161D02*
X69249438Y-155648304D01*
X69201819Y-155314970D02*
X70201819Y-155076875D01*
X70201819Y-155076875D02*
X69487533Y-154886399D01*
X69487533Y-154886399D02*
X70201819Y-154695923D01*
X70201819Y-154695923D02*
X69201819Y-154457828D01*
X70201819Y-153553066D02*
X70201819Y-154124494D01*
X70201819Y-153838780D02*
X69201819Y-153838780D01*
X69201819Y-153838780D02*
X69344676Y-153934018D01*
X69344676Y-153934018D02*
X69439914Y-154029256D01*
X69439914Y-154029256D02*
X69487533Y-154124494D01*
X145498269Y-171865457D02*
X145022078Y-172198790D01*
X145498269Y-172436885D02*
X144498269Y-172436885D01*
X144498269Y-172436885D02*
X144498269Y-172055933D01*
X144498269Y-172055933D02*
X144545888Y-171960695D01*
X144545888Y-171960695D02*
X144593507Y-171913076D01*
X144593507Y-171913076D02*
X144688745Y-171865457D01*
X144688745Y-171865457D02*
X144831602Y-171865457D01*
X144831602Y-171865457D02*
X144926840Y-171913076D01*
X144926840Y-171913076D02*
X144974459Y-171960695D01*
X144974459Y-171960695D02*
X145022078Y-172055933D01*
X145022078Y-172055933D02*
X145022078Y-172436885D01*
X144593507Y-171484504D02*
X144545888Y-171436885D01*
X144545888Y-171436885D02*
X144498269Y-171341647D01*
X144498269Y-171341647D02*
X144498269Y-171103552D01*
X144498269Y-171103552D02*
X144545888Y-171008314D01*
X144545888Y-171008314D02*
X144593507Y-170960695D01*
X144593507Y-170960695D02*
X144688745Y-170913076D01*
X144688745Y-170913076D02*
X144783983Y-170913076D01*
X144783983Y-170913076D02*
X144926840Y-170960695D01*
X144926840Y-170960695D02*
X145498269Y-171532123D01*
X145498269Y-171532123D02*
X145498269Y-170913076D01*
X144498269Y-170579742D02*
X144498269Y-169913076D01*
X144498269Y-169913076D02*
X145498269Y-170341647D01*
X123446942Y-168544980D02*
X123399323Y-168592600D01*
X123399323Y-168592600D02*
X123256466Y-168640219D01*
X123256466Y-168640219D02*
X123161228Y-168640219D01*
X123161228Y-168640219D02*
X123018371Y-168592600D01*
X123018371Y-168592600D02*
X122923133Y-168497361D01*
X122923133Y-168497361D02*
X122875514Y-168402123D01*
X122875514Y-168402123D02*
X122827895Y-168211647D01*
X122827895Y-168211647D02*
X122827895Y-168068790D01*
X122827895Y-168068790D02*
X122875514Y-167878314D01*
X122875514Y-167878314D02*
X122923133Y-167783076D01*
X122923133Y-167783076D02*
X123018371Y-167687838D01*
X123018371Y-167687838D02*
X123161228Y-167640219D01*
X123161228Y-167640219D02*
X123256466Y-167640219D01*
X123256466Y-167640219D02*
X123399323Y-167687838D01*
X123399323Y-167687838D02*
X123446942Y-167735457D01*
X123827895Y-167735457D02*
X123875514Y-167687838D01*
X123875514Y-167687838D02*
X123970752Y-167640219D01*
X123970752Y-167640219D02*
X124208847Y-167640219D01*
X124208847Y-167640219D02*
X124304085Y-167687838D01*
X124304085Y-167687838D02*
X124351704Y-167735457D01*
X124351704Y-167735457D02*
X124399323Y-167830695D01*
X124399323Y-167830695D02*
X124399323Y-167925933D01*
X124399323Y-167925933D02*
X124351704Y-168068790D01*
X124351704Y-168068790D02*
X123780276Y-168640219D01*
X123780276Y-168640219D02*
X124399323Y-168640219D01*
X125304085Y-167640219D02*
X124827895Y-167640219D01*
X124827895Y-167640219D02*
X124780276Y-168116409D01*
X124780276Y-168116409D02*
X124827895Y-168068790D01*
X124827895Y-168068790D02*
X124923133Y-168021171D01*
X124923133Y-168021171D02*
X125161228Y-168021171D01*
X125161228Y-168021171D02*
X125256466Y-168068790D01*
X125256466Y-168068790D02*
X125304085Y-168116409D01*
X125304085Y-168116409D02*
X125351704Y-168211647D01*
X125351704Y-168211647D02*
X125351704Y-168449742D01*
X125351704Y-168449742D02*
X125304085Y-168544980D01*
X125304085Y-168544980D02*
X125256466Y-168592600D01*
X125256466Y-168592600D02*
X125161228Y-168640219D01*
X125161228Y-168640219D02*
X124923133Y-168640219D01*
X124923133Y-168640219D02*
X124827895Y-168592600D01*
X124827895Y-168592600D02*
X124780276Y-168544980D01*
X125015666Y-176276219D02*
X125015666Y-176990504D01*
X125015666Y-176990504D02*
X124968047Y-177133361D01*
X124968047Y-177133361D02*
X124872809Y-177228600D01*
X124872809Y-177228600D02*
X124729952Y-177276219D01*
X124729952Y-177276219D02*
X124634714Y-177276219D01*
X125444238Y-176371457D02*
X125491857Y-176323838D01*
X125491857Y-176323838D02*
X125587095Y-176276219D01*
X125587095Y-176276219D02*
X125825190Y-176276219D01*
X125825190Y-176276219D02*
X125920428Y-176323838D01*
X125920428Y-176323838D02*
X125968047Y-176371457D01*
X125968047Y-176371457D02*
X126015666Y-176466695D01*
X126015666Y-176466695D02*
X126015666Y-176561933D01*
X126015666Y-176561933D02*
X125968047Y-176704790D01*
X125968047Y-176704790D02*
X125396619Y-177276219D01*
X125396619Y-177276219D02*
X126015666Y-177276219D01*
X109613795Y-84807519D02*
X109613795Y-83807519D01*
X109613795Y-84283709D02*
X110185223Y-84283709D01*
X110185223Y-84807519D02*
X110185223Y-83807519D01*
X110566176Y-83807519D02*
X111232842Y-83807519D01*
X111232842Y-83807519D02*
X110804271Y-84807519D01*
X124623533Y-154467019D02*
X124147343Y-154467019D01*
X124147343Y-154467019D02*
X124147343Y-153467019D01*
X124909248Y-153562257D02*
X124956867Y-153514638D01*
X124956867Y-153514638D02*
X125052105Y-153467019D01*
X125052105Y-153467019D02*
X125290200Y-153467019D01*
X125290200Y-153467019D02*
X125385438Y-153514638D01*
X125385438Y-153514638D02*
X125433057Y-153562257D01*
X125433057Y-153562257D02*
X125480676Y-153657495D01*
X125480676Y-153657495D02*
X125480676Y-153752733D01*
X125480676Y-153752733D02*
X125433057Y-153895590D01*
X125433057Y-153895590D02*
X124861629Y-154467019D01*
X124861629Y-154467019D02*
X125480676Y-154467019D01*
X134109619Y-148184466D02*
X133633428Y-148517799D01*
X134109619Y-148755894D02*
X133109619Y-148755894D01*
X133109619Y-148755894D02*
X133109619Y-148374942D01*
X133109619Y-148374942D02*
X133157238Y-148279704D01*
X133157238Y-148279704D02*
X133204857Y-148232085D01*
X133204857Y-148232085D02*
X133300095Y-148184466D01*
X133300095Y-148184466D02*
X133442952Y-148184466D01*
X133442952Y-148184466D02*
X133538190Y-148232085D01*
X133538190Y-148232085D02*
X133585809Y-148279704D01*
X133585809Y-148279704D02*
X133633428Y-148374942D01*
X133633428Y-148374942D02*
X133633428Y-148755894D01*
X133109619Y-147279704D02*
X133109619Y-147755894D01*
X133109619Y-147755894D02*
X133585809Y-147803513D01*
X133585809Y-147803513D02*
X133538190Y-147755894D01*
X133538190Y-147755894D02*
X133490571Y-147660656D01*
X133490571Y-147660656D02*
X133490571Y-147422561D01*
X133490571Y-147422561D02*
X133538190Y-147327323D01*
X133538190Y-147327323D02*
X133585809Y-147279704D01*
X133585809Y-147279704D02*
X133681047Y-147232085D01*
X133681047Y-147232085D02*
X133919142Y-147232085D01*
X133919142Y-147232085D02*
X134014380Y-147279704D01*
X134014380Y-147279704D02*
X134062000Y-147327323D01*
X134062000Y-147327323D02*
X134109619Y-147422561D01*
X134109619Y-147422561D02*
X134109619Y-147660656D01*
X134109619Y-147660656D02*
X134062000Y-147755894D01*
X134062000Y-147755894D02*
X134014380Y-147803513D01*
X97026219Y-159224104D02*
X97835742Y-159224104D01*
X97835742Y-159224104D02*
X97930980Y-159176485D01*
X97930980Y-159176485D02*
X97978600Y-159128866D01*
X97978600Y-159128866D02*
X98026219Y-159033628D01*
X98026219Y-159033628D02*
X98026219Y-158843152D01*
X98026219Y-158843152D02*
X97978600Y-158747914D01*
X97978600Y-158747914D02*
X97930980Y-158700295D01*
X97930980Y-158700295D02*
X97835742Y-158652676D01*
X97835742Y-158652676D02*
X97026219Y-158652676D01*
X97026219Y-157700295D02*
X97026219Y-158176485D01*
X97026219Y-158176485D02*
X97502409Y-158224104D01*
X97502409Y-158224104D02*
X97454790Y-158176485D01*
X97454790Y-158176485D02*
X97407171Y-158081247D01*
X97407171Y-158081247D02*
X97407171Y-157843152D01*
X97407171Y-157843152D02*
X97454790Y-157747914D01*
X97454790Y-157747914D02*
X97502409Y-157700295D01*
X97502409Y-157700295D02*
X97597647Y-157652676D01*
X97597647Y-157652676D02*
X97835742Y-157652676D01*
X97835742Y-157652676D02*
X97930980Y-157700295D01*
X97930980Y-157700295D02*
X97978600Y-157747914D01*
X97978600Y-157747914D02*
X98026219Y-157843152D01*
X98026219Y-157843152D02*
X98026219Y-158081247D01*
X98026219Y-158081247D02*
X97978600Y-158176485D01*
X97978600Y-158176485D02*
X97930980Y-158224104D01*
X90506942Y-116627380D02*
X90459323Y-116675000D01*
X90459323Y-116675000D02*
X90316466Y-116722619D01*
X90316466Y-116722619D02*
X90221228Y-116722619D01*
X90221228Y-116722619D02*
X90078371Y-116675000D01*
X90078371Y-116675000D02*
X89983133Y-116579761D01*
X89983133Y-116579761D02*
X89935514Y-116484523D01*
X89935514Y-116484523D02*
X89887895Y-116294047D01*
X89887895Y-116294047D02*
X89887895Y-116151190D01*
X89887895Y-116151190D02*
X89935514Y-115960714D01*
X89935514Y-115960714D02*
X89983133Y-115865476D01*
X89983133Y-115865476D02*
X90078371Y-115770238D01*
X90078371Y-115770238D02*
X90221228Y-115722619D01*
X90221228Y-115722619D02*
X90316466Y-115722619D01*
X90316466Y-115722619D02*
X90459323Y-115770238D01*
X90459323Y-115770238D02*
X90506942Y-115817857D01*
X91459323Y-116722619D02*
X90887895Y-116722619D01*
X91173609Y-116722619D02*
X91173609Y-115722619D01*
X91173609Y-115722619D02*
X91078371Y-115865476D01*
X91078371Y-115865476D02*
X90983133Y-115960714D01*
X90983133Y-115960714D02*
X90887895Y-116008333D01*
X91935514Y-116722619D02*
X92125990Y-116722619D01*
X92125990Y-116722619D02*
X92221228Y-116675000D01*
X92221228Y-116675000D02*
X92268847Y-116627380D01*
X92268847Y-116627380D02*
X92364085Y-116484523D01*
X92364085Y-116484523D02*
X92411704Y-116294047D01*
X92411704Y-116294047D02*
X92411704Y-115913095D01*
X92411704Y-115913095D02*
X92364085Y-115817857D01*
X92364085Y-115817857D02*
X92316466Y-115770238D01*
X92316466Y-115770238D02*
X92221228Y-115722619D01*
X92221228Y-115722619D02*
X92030752Y-115722619D01*
X92030752Y-115722619D02*
X91935514Y-115770238D01*
X91935514Y-115770238D02*
X91887895Y-115817857D01*
X91887895Y-115817857D02*
X91840276Y-115913095D01*
X91840276Y-115913095D02*
X91840276Y-116151190D01*
X91840276Y-116151190D02*
X91887895Y-116246428D01*
X91887895Y-116246428D02*
X91935514Y-116294047D01*
X91935514Y-116294047D02*
X92030752Y-116341666D01*
X92030752Y-116341666D02*
X92221228Y-116341666D01*
X92221228Y-116341666D02*
X92316466Y-116294047D01*
X92316466Y-116294047D02*
X92364085Y-116246428D01*
X92364085Y-116246428D02*
X92411704Y-116151190D01*
X71348695Y-49869819D02*
X71348695Y-48869819D01*
X71348695Y-49346009D02*
X71920123Y-49346009D01*
X71920123Y-49869819D02*
X71920123Y-48869819D01*
X72824885Y-49203152D02*
X72824885Y-49869819D01*
X72586790Y-48822200D02*
X72348695Y-49536485D01*
X72348695Y-49536485D02*
X72967742Y-49536485D01*
X155725019Y-95523857D02*
X155248828Y-95857190D01*
X155725019Y-96095285D02*
X154725019Y-96095285D01*
X154725019Y-96095285D02*
X154725019Y-95714333D01*
X154725019Y-95714333D02*
X154772638Y-95619095D01*
X154772638Y-95619095D02*
X154820257Y-95571476D01*
X154820257Y-95571476D02*
X154915495Y-95523857D01*
X154915495Y-95523857D02*
X155058352Y-95523857D01*
X155058352Y-95523857D02*
X155153590Y-95571476D01*
X155153590Y-95571476D02*
X155201209Y-95619095D01*
X155201209Y-95619095D02*
X155248828Y-95714333D01*
X155248828Y-95714333D02*
X155248828Y-96095285D01*
X155725019Y-94571476D02*
X155725019Y-95142904D01*
X155725019Y-94857190D02*
X154725019Y-94857190D01*
X154725019Y-94857190D02*
X154867876Y-94952428D01*
X154867876Y-94952428D02*
X154963114Y-95047666D01*
X154963114Y-95047666D02*
X155010733Y-95142904D01*
X155153590Y-94000047D02*
X155105971Y-94095285D01*
X155105971Y-94095285D02*
X155058352Y-94142904D01*
X155058352Y-94142904D02*
X154963114Y-94190523D01*
X154963114Y-94190523D02*
X154915495Y-94190523D01*
X154915495Y-94190523D02*
X154820257Y-94142904D01*
X154820257Y-94142904D02*
X154772638Y-94095285D01*
X154772638Y-94095285D02*
X154725019Y-94000047D01*
X154725019Y-94000047D02*
X154725019Y-93809571D01*
X154725019Y-93809571D02*
X154772638Y-93714333D01*
X154772638Y-93714333D02*
X154820257Y-93666714D01*
X154820257Y-93666714D02*
X154915495Y-93619095D01*
X154915495Y-93619095D02*
X154963114Y-93619095D01*
X154963114Y-93619095D02*
X155058352Y-93666714D01*
X155058352Y-93666714D02*
X155105971Y-93714333D01*
X155105971Y-93714333D02*
X155153590Y-93809571D01*
X155153590Y-93809571D02*
X155153590Y-94000047D01*
X155153590Y-94000047D02*
X155201209Y-94095285D01*
X155201209Y-94095285D02*
X155248828Y-94142904D01*
X155248828Y-94142904D02*
X155344066Y-94190523D01*
X155344066Y-94190523D02*
X155534542Y-94190523D01*
X155534542Y-94190523D02*
X155629780Y-94142904D01*
X155629780Y-94142904D02*
X155677400Y-94095285D01*
X155677400Y-94095285D02*
X155725019Y-94000047D01*
X155725019Y-94000047D02*
X155725019Y-93809571D01*
X155725019Y-93809571D02*
X155677400Y-93714333D01*
X155677400Y-93714333D02*
X155629780Y-93666714D01*
X155629780Y-93666714D02*
X155534542Y-93619095D01*
X155534542Y-93619095D02*
X155344066Y-93619095D01*
X155344066Y-93619095D02*
X155248828Y-93666714D01*
X155248828Y-93666714D02*
X155201209Y-93714333D01*
X155201209Y-93714333D02*
X155153590Y-93809571D01*
X81164133Y-137347419D02*
X80830800Y-136871228D01*
X80592705Y-137347419D02*
X80592705Y-136347419D01*
X80592705Y-136347419D02*
X80973657Y-136347419D01*
X80973657Y-136347419D02*
X81068895Y-136395038D01*
X81068895Y-136395038D02*
X81116514Y-136442657D01*
X81116514Y-136442657D02*
X81164133Y-136537895D01*
X81164133Y-136537895D02*
X81164133Y-136680752D01*
X81164133Y-136680752D02*
X81116514Y-136775990D01*
X81116514Y-136775990D02*
X81068895Y-136823609D01*
X81068895Y-136823609D02*
X80973657Y-136871228D01*
X80973657Y-136871228D02*
X80592705Y-136871228D01*
X82116514Y-137347419D02*
X81545086Y-137347419D01*
X81830800Y-137347419D02*
X81830800Y-136347419D01*
X81830800Y-136347419D02*
X81735562Y-136490276D01*
X81735562Y-136490276D02*
X81640324Y-136585514D01*
X81640324Y-136585514D02*
X81545086Y-136633133D01*
X152704895Y-184464419D02*
X152704895Y-183464419D01*
X152704895Y-183940609D02*
X153276323Y-183940609D01*
X153276323Y-184464419D02*
X153276323Y-183464419D01*
X154276323Y-184464419D02*
X153704895Y-184464419D01*
X153990609Y-184464419D02*
X153990609Y-183464419D01*
X153990609Y-183464419D02*
X153895371Y-183607276D01*
X153895371Y-183607276D02*
X153800133Y-183702514D01*
X153800133Y-183702514D02*
X153704895Y-183750133D01*
X142771019Y-154553457D02*
X142294828Y-154886790D01*
X142771019Y-155124885D02*
X141771019Y-155124885D01*
X141771019Y-155124885D02*
X141771019Y-154743933D01*
X141771019Y-154743933D02*
X141818638Y-154648695D01*
X141818638Y-154648695D02*
X141866257Y-154601076D01*
X141866257Y-154601076D02*
X141961495Y-154553457D01*
X141961495Y-154553457D02*
X142104352Y-154553457D01*
X142104352Y-154553457D02*
X142199590Y-154601076D01*
X142199590Y-154601076D02*
X142247209Y-154648695D01*
X142247209Y-154648695D02*
X142294828Y-154743933D01*
X142294828Y-154743933D02*
X142294828Y-155124885D01*
X141866257Y-154172504D02*
X141818638Y-154124885D01*
X141818638Y-154124885D02*
X141771019Y-154029647D01*
X141771019Y-154029647D02*
X141771019Y-153791552D01*
X141771019Y-153791552D02*
X141818638Y-153696314D01*
X141818638Y-153696314D02*
X141866257Y-153648695D01*
X141866257Y-153648695D02*
X141961495Y-153601076D01*
X141961495Y-153601076D02*
X142056733Y-153601076D01*
X142056733Y-153601076D02*
X142199590Y-153648695D01*
X142199590Y-153648695D02*
X142771019Y-154220123D01*
X142771019Y-154220123D02*
X142771019Y-153601076D01*
X141771019Y-152743933D02*
X141771019Y-152934409D01*
X141771019Y-152934409D02*
X141818638Y-153029647D01*
X141818638Y-153029647D02*
X141866257Y-153077266D01*
X141866257Y-153077266D02*
X142009114Y-153172504D01*
X142009114Y-153172504D02*
X142199590Y-153220123D01*
X142199590Y-153220123D02*
X142580542Y-153220123D01*
X142580542Y-153220123D02*
X142675780Y-153172504D01*
X142675780Y-153172504D02*
X142723400Y-153124885D01*
X142723400Y-153124885D02*
X142771019Y-153029647D01*
X142771019Y-153029647D02*
X142771019Y-152839171D01*
X142771019Y-152839171D02*
X142723400Y-152743933D01*
X142723400Y-152743933D02*
X142675780Y-152696314D01*
X142675780Y-152696314D02*
X142580542Y-152648695D01*
X142580542Y-152648695D02*
X142342447Y-152648695D01*
X142342447Y-152648695D02*
X142247209Y-152696314D01*
X142247209Y-152696314D02*
X142199590Y-152743933D01*
X142199590Y-152743933D02*
X142151971Y-152839171D01*
X142151971Y-152839171D02*
X142151971Y-153029647D01*
X142151971Y-153029647D02*
X142199590Y-153124885D01*
X142199590Y-153124885D02*
X142247209Y-153172504D01*
X142247209Y-153172504D02*
X142342447Y-153220123D01*
D11*
X135879556Y-170414066D02*
X135924318Y-170458828D01*
X135924318Y-170458828D02*
X135969079Y-170593114D01*
X135969079Y-170593114D02*
X135969079Y-170682638D01*
X135969079Y-170682638D02*
X135924318Y-170816923D01*
X135924318Y-170816923D02*
X135834794Y-170906447D01*
X135834794Y-170906447D02*
X135745270Y-170951209D01*
X135745270Y-170951209D02*
X135566222Y-170995971D01*
X135566222Y-170995971D02*
X135431937Y-170995971D01*
X135431937Y-170995971D02*
X135252889Y-170951209D01*
X135252889Y-170951209D02*
X135163365Y-170906447D01*
X135163365Y-170906447D02*
X135073841Y-170816923D01*
X135073841Y-170816923D02*
X135029079Y-170682638D01*
X135029079Y-170682638D02*
X135029079Y-170593114D01*
X135029079Y-170593114D02*
X135073841Y-170458828D01*
X135073841Y-170458828D02*
X135118603Y-170414066D01*
X135029079Y-169608352D02*
X135029079Y-169787399D01*
X135029079Y-169787399D02*
X135073841Y-169876923D01*
X135073841Y-169876923D02*
X135118603Y-169921685D01*
X135118603Y-169921685D02*
X135252889Y-170011209D01*
X135252889Y-170011209D02*
X135431937Y-170055971D01*
X135431937Y-170055971D02*
X135790032Y-170055971D01*
X135790032Y-170055971D02*
X135879556Y-170011209D01*
X135879556Y-170011209D02*
X135924318Y-169966447D01*
X135924318Y-169966447D02*
X135969079Y-169876923D01*
X135969079Y-169876923D02*
X135969079Y-169697876D01*
X135969079Y-169697876D02*
X135924318Y-169608352D01*
X135924318Y-169608352D02*
X135879556Y-169563590D01*
X135879556Y-169563590D02*
X135790032Y-169518828D01*
X135790032Y-169518828D02*
X135566222Y-169518828D01*
X135566222Y-169518828D02*
X135476698Y-169563590D01*
X135476698Y-169563590D02*
X135431937Y-169608352D01*
X135431937Y-169608352D02*
X135387175Y-169697876D01*
X135387175Y-169697876D02*
X135387175Y-169876923D01*
X135387175Y-169876923D02*
X135431937Y-169966447D01*
X135431937Y-169966447D02*
X135476698Y-170011209D01*
X135476698Y-170011209D02*
X135566222Y-170055971D01*
D10*
X81164133Y-134172419D02*
X80830800Y-133696228D01*
X80592705Y-134172419D02*
X80592705Y-133172419D01*
X80592705Y-133172419D02*
X80973657Y-133172419D01*
X80973657Y-133172419D02*
X81068895Y-133220038D01*
X81068895Y-133220038D02*
X81116514Y-133267657D01*
X81116514Y-133267657D02*
X81164133Y-133362895D01*
X81164133Y-133362895D02*
X81164133Y-133505752D01*
X81164133Y-133505752D02*
X81116514Y-133600990D01*
X81116514Y-133600990D02*
X81068895Y-133648609D01*
X81068895Y-133648609D02*
X80973657Y-133696228D01*
X80973657Y-133696228D02*
X80592705Y-133696228D01*
X81545086Y-133267657D02*
X81592705Y-133220038D01*
X81592705Y-133220038D02*
X81687943Y-133172419D01*
X81687943Y-133172419D02*
X81926038Y-133172419D01*
X81926038Y-133172419D02*
X82021276Y-133220038D01*
X82021276Y-133220038D02*
X82068895Y-133267657D01*
X82068895Y-133267657D02*
X82116514Y-133362895D01*
X82116514Y-133362895D02*
X82116514Y-133458133D01*
X82116514Y-133458133D02*
X82068895Y-133600990D01*
X82068895Y-133600990D02*
X81497467Y-134172419D01*
X81497467Y-134172419D02*
X82116514Y-134172419D01*
D14*
X69514100Y-139180065D02*
X69537909Y-139108637D01*
X69537909Y-139108637D02*
X69537909Y-138989589D01*
X69537909Y-138989589D02*
X69514100Y-138941970D01*
X69514100Y-138941970D02*
X69490290Y-138918161D01*
X69490290Y-138918161D02*
X69442671Y-138894351D01*
X69442671Y-138894351D02*
X69395052Y-138894351D01*
X69395052Y-138894351D02*
X69347433Y-138918161D01*
X69347433Y-138918161D02*
X69323623Y-138941970D01*
X69323623Y-138941970D02*
X69299814Y-138989589D01*
X69299814Y-138989589D02*
X69276004Y-139084827D01*
X69276004Y-139084827D02*
X69252195Y-139132446D01*
X69252195Y-139132446D02*
X69228385Y-139156256D01*
X69228385Y-139156256D02*
X69180766Y-139180065D01*
X69180766Y-139180065D02*
X69133147Y-139180065D01*
X69133147Y-139180065D02*
X69085528Y-139156256D01*
X69085528Y-139156256D02*
X69061719Y-139132446D01*
X69061719Y-139132446D02*
X69037909Y-139084827D01*
X69037909Y-139084827D02*
X69037909Y-138965780D01*
X69037909Y-138965780D02*
X69061719Y-138894351D01*
X69037909Y-138727685D02*
X69537909Y-138608637D01*
X69537909Y-138608637D02*
X69180766Y-138513399D01*
X69180766Y-138513399D02*
X69537909Y-138418161D01*
X69537909Y-138418161D02*
X69037909Y-138299114D01*
X69037909Y-138156256D02*
X69037909Y-137846732D01*
X69037909Y-137846732D02*
X69228385Y-138013399D01*
X69228385Y-138013399D02*
X69228385Y-137941970D01*
X69228385Y-137941970D02*
X69252195Y-137894351D01*
X69252195Y-137894351D02*
X69276004Y-137870542D01*
X69276004Y-137870542D02*
X69323623Y-137846732D01*
X69323623Y-137846732D02*
X69442671Y-137846732D01*
X69442671Y-137846732D02*
X69490290Y-137870542D01*
X69490290Y-137870542D02*
X69514100Y-137894351D01*
X69514100Y-137894351D02*
X69537909Y-137941970D01*
X69537909Y-137941970D02*
X69537909Y-138084827D01*
X69537909Y-138084827D02*
X69514100Y-138132446D01*
X69514100Y-138132446D02*
X69490290Y-138156256D01*
D10*
X105032980Y-55595057D02*
X105080600Y-55642676D01*
X105080600Y-55642676D02*
X105128219Y-55785533D01*
X105128219Y-55785533D02*
X105128219Y-55880771D01*
X105128219Y-55880771D02*
X105080600Y-56023628D01*
X105080600Y-56023628D02*
X104985361Y-56118866D01*
X104985361Y-56118866D02*
X104890123Y-56166485D01*
X104890123Y-56166485D02*
X104699647Y-56214104D01*
X104699647Y-56214104D02*
X104556790Y-56214104D01*
X104556790Y-56214104D02*
X104366314Y-56166485D01*
X104366314Y-56166485D02*
X104271076Y-56118866D01*
X104271076Y-56118866D02*
X104175838Y-56023628D01*
X104175838Y-56023628D02*
X104128219Y-55880771D01*
X104128219Y-55880771D02*
X104128219Y-55785533D01*
X104128219Y-55785533D02*
X104175838Y-55642676D01*
X104175838Y-55642676D02*
X104223457Y-55595057D01*
X105128219Y-54642676D02*
X105128219Y-55214104D01*
X105128219Y-54928390D02*
X104128219Y-54928390D01*
X104128219Y-54928390D02*
X104271076Y-55023628D01*
X104271076Y-55023628D02*
X104366314Y-55118866D01*
X104366314Y-55118866D02*
X104413933Y-55214104D01*
X104223457Y-54261723D02*
X104175838Y-54214104D01*
X104175838Y-54214104D02*
X104128219Y-54118866D01*
X104128219Y-54118866D02*
X104128219Y-53880771D01*
X104128219Y-53880771D02*
X104175838Y-53785533D01*
X104175838Y-53785533D02*
X104223457Y-53737914D01*
X104223457Y-53737914D02*
X104318695Y-53690295D01*
X104318695Y-53690295D02*
X104413933Y-53690295D01*
X104413933Y-53690295D02*
X104556790Y-53737914D01*
X104556790Y-53737914D02*
X105128219Y-54309342D01*
X105128219Y-54309342D02*
X105128219Y-53690295D01*
X83233419Y-124962457D02*
X82757228Y-125295790D01*
X83233419Y-125533885D02*
X82233419Y-125533885D01*
X82233419Y-125533885D02*
X82233419Y-125152933D01*
X82233419Y-125152933D02*
X82281038Y-125057695D01*
X82281038Y-125057695D02*
X82328657Y-125010076D01*
X82328657Y-125010076D02*
X82423895Y-124962457D01*
X82423895Y-124962457D02*
X82566752Y-124962457D01*
X82566752Y-124962457D02*
X82661990Y-125010076D01*
X82661990Y-125010076D02*
X82709609Y-125057695D01*
X82709609Y-125057695D02*
X82757228Y-125152933D01*
X82757228Y-125152933D02*
X82757228Y-125533885D01*
X83233419Y-124010076D02*
X83233419Y-124581504D01*
X83233419Y-124295790D02*
X82233419Y-124295790D01*
X82233419Y-124295790D02*
X82376276Y-124391028D01*
X82376276Y-124391028D02*
X82471514Y-124486266D01*
X82471514Y-124486266D02*
X82519133Y-124581504D01*
X82233419Y-123105314D02*
X82233419Y-123581504D01*
X82233419Y-123581504D02*
X82709609Y-123629123D01*
X82709609Y-123629123D02*
X82661990Y-123581504D01*
X82661990Y-123581504D02*
X82614371Y-123486266D01*
X82614371Y-123486266D02*
X82614371Y-123248171D01*
X82614371Y-123248171D02*
X82661990Y-123152933D01*
X82661990Y-123152933D02*
X82709609Y-123105314D01*
X82709609Y-123105314D02*
X82804847Y-123057695D01*
X82804847Y-123057695D02*
X83042942Y-123057695D01*
X83042942Y-123057695D02*
X83138180Y-123105314D01*
X83138180Y-123105314D02*
X83185800Y-123152933D01*
X83185800Y-123152933D02*
X83233419Y-123248171D01*
X83233419Y-123248171D02*
X83233419Y-123486266D01*
X83233419Y-123486266D02*
X83185800Y-123581504D01*
X83185800Y-123581504D02*
X83138180Y-123629123D01*
X78159780Y-154110857D02*
X78207400Y-154158476D01*
X78207400Y-154158476D02*
X78255019Y-154301333D01*
X78255019Y-154301333D02*
X78255019Y-154396571D01*
X78255019Y-154396571D02*
X78207400Y-154539428D01*
X78207400Y-154539428D02*
X78112161Y-154634666D01*
X78112161Y-154634666D02*
X78016923Y-154682285D01*
X78016923Y-154682285D02*
X77826447Y-154729904D01*
X77826447Y-154729904D02*
X77683590Y-154729904D01*
X77683590Y-154729904D02*
X77493114Y-154682285D01*
X77493114Y-154682285D02*
X77397876Y-154634666D01*
X77397876Y-154634666D02*
X77302638Y-154539428D01*
X77302638Y-154539428D02*
X77255019Y-154396571D01*
X77255019Y-154396571D02*
X77255019Y-154301333D01*
X77255019Y-154301333D02*
X77302638Y-154158476D01*
X77302638Y-154158476D02*
X77350257Y-154110857D01*
X78255019Y-153158476D02*
X78255019Y-153729904D01*
X78255019Y-153444190D02*
X77255019Y-153444190D01*
X77255019Y-153444190D02*
X77397876Y-153539428D01*
X77397876Y-153539428D02*
X77493114Y-153634666D01*
X77493114Y-153634666D02*
X77540733Y-153729904D01*
X78255019Y-152206095D02*
X78255019Y-152777523D01*
X78255019Y-152491809D02*
X77255019Y-152491809D01*
X77255019Y-152491809D02*
X77397876Y-152587047D01*
X77397876Y-152587047D02*
X77493114Y-152682285D01*
X77493114Y-152682285D02*
X77540733Y-152777523D01*
X131304229Y-85893380D02*
X131256610Y-85941000D01*
X131256610Y-85941000D02*
X131113753Y-85988619D01*
X131113753Y-85988619D02*
X131018515Y-85988619D01*
X131018515Y-85988619D02*
X130875658Y-85941000D01*
X130875658Y-85941000D02*
X130780420Y-85845761D01*
X130780420Y-85845761D02*
X130732801Y-85750523D01*
X130732801Y-85750523D02*
X130685182Y-85560047D01*
X130685182Y-85560047D02*
X130685182Y-85417190D01*
X130685182Y-85417190D02*
X130732801Y-85226714D01*
X130732801Y-85226714D02*
X130780420Y-85131476D01*
X130780420Y-85131476D02*
X130875658Y-85036238D01*
X130875658Y-85036238D02*
X131018515Y-84988619D01*
X131018515Y-84988619D02*
X131113753Y-84988619D01*
X131113753Y-84988619D02*
X131256610Y-85036238D01*
X131256610Y-85036238D02*
X131304229Y-85083857D01*
X131637563Y-84988619D02*
X132256610Y-84988619D01*
X132256610Y-84988619D02*
X131923277Y-85369571D01*
X131923277Y-85369571D02*
X132066134Y-85369571D01*
X132066134Y-85369571D02*
X132161372Y-85417190D01*
X132161372Y-85417190D02*
X132208991Y-85464809D01*
X132208991Y-85464809D02*
X132256610Y-85560047D01*
X132256610Y-85560047D02*
X132256610Y-85798142D01*
X132256610Y-85798142D02*
X132208991Y-85893380D01*
X132208991Y-85893380D02*
X132161372Y-85941000D01*
X132161372Y-85941000D02*
X132066134Y-85988619D01*
X132066134Y-85988619D02*
X131780420Y-85988619D01*
X131780420Y-85988619D02*
X131685182Y-85941000D01*
X131685182Y-85941000D02*
X131637563Y-85893380D01*
X132875658Y-84988619D02*
X132970896Y-84988619D01*
X132970896Y-84988619D02*
X133066134Y-85036238D01*
X133066134Y-85036238D02*
X133113753Y-85083857D01*
X133113753Y-85083857D02*
X133161372Y-85179095D01*
X133161372Y-85179095D02*
X133208991Y-85369571D01*
X133208991Y-85369571D02*
X133208991Y-85607666D01*
X133208991Y-85607666D02*
X133161372Y-85798142D01*
X133161372Y-85798142D02*
X133113753Y-85893380D01*
X133113753Y-85893380D02*
X133066134Y-85941000D01*
X133066134Y-85941000D02*
X132970896Y-85988619D01*
X132970896Y-85988619D02*
X132875658Y-85988619D01*
X132875658Y-85988619D02*
X132780420Y-85941000D01*
X132780420Y-85941000D02*
X132732801Y-85893380D01*
X132732801Y-85893380D02*
X132685182Y-85798142D01*
X132685182Y-85798142D02*
X132637563Y-85607666D01*
X132637563Y-85607666D02*
X132637563Y-85369571D01*
X132637563Y-85369571D02*
X132685182Y-85179095D01*
X132685182Y-85179095D02*
X132732801Y-85083857D01*
X132732801Y-85083857D02*
X132780420Y-85036238D01*
X132780420Y-85036238D02*
X132875658Y-84988619D01*
X85347276Y-143647419D02*
X85347276Y-144361704D01*
X85347276Y-144361704D02*
X85299657Y-144504561D01*
X85299657Y-144504561D02*
X85204419Y-144599800D01*
X85204419Y-144599800D02*
X85061562Y-144647419D01*
X85061562Y-144647419D02*
X84966324Y-144647419D01*
X86347276Y-144647419D02*
X85775848Y-144647419D01*
X86061562Y-144647419D02*
X86061562Y-143647419D01*
X86061562Y-143647419D02*
X85966324Y-143790276D01*
X85966324Y-143790276D02*
X85871086Y-143885514D01*
X85871086Y-143885514D02*
X85775848Y-143933133D01*
X86966324Y-143647419D02*
X87061562Y-143647419D01*
X87061562Y-143647419D02*
X87156800Y-143695038D01*
X87156800Y-143695038D02*
X87204419Y-143742657D01*
X87204419Y-143742657D02*
X87252038Y-143837895D01*
X87252038Y-143837895D02*
X87299657Y-144028371D01*
X87299657Y-144028371D02*
X87299657Y-144266466D01*
X87299657Y-144266466D02*
X87252038Y-144456942D01*
X87252038Y-144456942D02*
X87204419Y-144552180D01*
X87204419Y-144552180D02*
X87156800Y-144599800D01*
X87156800Y-144599800D02*
X87061562Y-144647419D01*
X87061562Y-144647419D02*
X86966324Y-144647419D01*
X86966324Y-144647419D02*
X86871086Y-144599800D01*
X86871086Y-144599800D02*
X86823467Y-144552180D01*
X86823467Y-144552180D02*
X86775848Y-144456942D01*
X86775848Y-144456942D02*
X86728229Y-144266466D01*
X86728229Y-144266466D02*
X86728229Y-144028371D01*
X86728229Y-144028371D02*
X86775848Y-143837895D01*
X86775848Y-143837895D02*
X86823467Y-143742657D01*
X86823467Y-143742657D02*
X86871086Y-143695038D01*
X86871086Y-143695038D02*
X86966324Y-143647419D01*
X139163669Y-170900257D02*
X138687478Y-171233590D01*
X139163669Y-171471685D02*
X138163669Y-171471685D01*
X138163669Y-171471685D02*
X138163669Y-171090733D01*
X138163669Y-171090733D02*
X138211288Y-170995495D01*
X138211288Y-170995495D02*
X138258907Y-170947876D01*
X138258907Y-170947876D02*
X138354145Y-170900257D01*
X138354145Y-170900257D02*
X138497002Y-170900257D01*
X138497002Y-170900257D02*
X138592240Y-170947876D01*
X138592240Y-170947876D02*
X138639859Y-170995495D01*
X138639859Y-170995495D02*
X138687478Y-171090733D01*
X138687478Y-171090733D02*
X138687478Y-171471685D01*
X138258907Y-170519304D02*
X138211288Y-170471685D01*
X138211288Y-170471685D02*
X138163669Y-170376447D01*
X138163669Y-170376447D02*
X138163669Y-170138352D01*
X138163669Y-170138352D02*
X138211288Y-170043114D01*
X138211288Y-170043114D02*
X138258907Y-169995495D01*
X138258907Y-169995495D02*
X138354145Y-169947876D01*
X138354145Y-169947876D02*
X138449383Y-169947876D01*
X138449383Y-169947876D02*
X138592240Y-169995495D01*
X138592240Y-169995495D02*
X139163669Y-170566923D01*
X139163669Y-170566923D02*
X139163669Y-169947876D01*
X138163669Y-169043114D02*
X138163669Y-169519304D01*
X138163669Y-169519304D02*
X138639859Y-169566923D01*
X138639859Y-169566923D02*
X138592240Y-169519304D01*
X138592240Y-169519304D02*
X138544621Y-169424066D01*
X138544621Y-169424066D02*
X138544621Y-169185971D01*
X138544621Y-169185971D02*
X138592240Y-169090733D01*
X138592240Y-169090733D02*
X138639859Y-169043114D01*
X138639859Y-169043114D02*
X138735097Y-168995495D01*
X138735097Y-168995495D02*
X138973192Y-168995495D01*
X138973192Y-168995495D02*
X139068430Y-169043114D01*
X139068430Y-169043114D02*
X139116050Y-169090733D01*
X139116050Y-169090733D02*
X139163669Y-169185971D01*
X139163669Y-169185971D02*
X139163669Y-169424066D01*
X139163669Y-169424066D02*
X139116050Y-169519304D01*
X139116050Y-169519304D02*
X139068430Y-169566923D01*
X155604380Y-105633057D02*
X155652000Y-105680676D01*
X155652000Y-105680676D02*
X155699619Y-105823533D01*
X155699619Y-105823533D02*
X155699619Y-105918771D01*
X155699619Y-105918771D02*
X155652000Y-106061628D01*
X155652000Y-106061628D02*
X155556761Y-106156866D01*
X155556761Y-106156866D02*
X155461523Y-106204485D01*
X155461523Y-106204485D02*
X155271047Y-106252104D01*
X155271047Y-106252104D02*
X155128190Y-106252104D01*
X155128190Y-106252104D02*
X154937714Y-106204485D01*
X154937714Y-106204485D02*
X154842476Y-106156866D01*
X154842476Y-106156866D02*
X154747238Y-106061628D01*
X154747238Y-106061628D02*
X154699619Y-105918771D01*
X154699619Y-105918771D02*
X154699619Y-105823533D01*
X154699619Y-105823533D02*
X154747238Y-105680676D01*
X154747238Y-105680676D02*
X154794857Y-105633057D01*
X154794857Y-105252104D02*
X154747238Y-105204485D01*
X154747238Y-105204485D02*
X154699619Y-105109247D01*
X154699619Y-105109247D02*
X154699619Y-104871152D01*
X154699619Y-104871152D02*
X154747238Y-104775914D01*
X154747238Y-104775914D02*
X154794857Y-104728295D01*
X154794857Y-104728295D02*
X154890095Y-104680676D01*
X154890095Y-104680676D02*
X154985333Y-104680676D01*
X154985333Y-104680676D02*
X155128190Y-104728295D01*
X155128190Y-104728295D02*
X155699619Y-105299723D01*
X155699619Y-105299723D02*
X155699619Y-104680676D01*
X155699619Y-103728295D02*
X155699619Y-104299723D01*
X155699619Y-104014009D02*
X154699619Y-104014009D01*
X154699619Y-104014009D02*
X154842476Y-104109247D01*
X154842476Y-104109247D02*
X154937714Y-104204485D01*
X154937714Y-104204485D02*
X154985333Y-104299723D01*
D12*
X111870067Y-100471118D02*
X111870067Y-101378261D01*
X111870067Y-101378261D02*
X111809590Y-101559689D01*
X111809590Y-101559689D02*
X111688638Y-101680642D01*
X111688638Y-101680642D02*
X111507209Y-101741118D01*
X111507209Y-101741118D02*
X111386257Y-101741118D01*
X113019114Y-100894451D02*
X113019114Y-101741118D01*
X112716733Y-100410642D02*
X112414352Y-101317784D01*
X112414352Y-101317784D02*
X113200543Y-101317784D01*
D10*
X143171942Y-131359380D02*
X143124323Y-131407000D01*
X143124323Y-131407000D02*
X142981466Y-131454619D01*
X142981466Y-131454619D02*
X142886228Y-131454619D01*
X142886228Y-131454619D02*
X142743371Y-131407000D01*
X142743371Y-131407000D02*
X142648133Y-131311761D01*
X142648133Y-131311761D02*
X142600514Y-131216523D01*
X142600514Y-131216523D02*
X142552895Y-131026047D01*
X142552895Y-131026047D02*
X142552895Y-130883190D01*
X142552895Y-130883190D02*
X142600514Y-130692714D01*
X142600514Y-130692714D02*
X142648133Y-130597476D01*
X142648133Y-130597476D02*
X142743371Y-130502238D01*
X142743371Y-130502238D02*
X142886228Y-130454619D01*
X142886228Y-130454619D02*
X142981466Y-130454619D01*
X142981466Y-130454619D02*
X143124323Y-130502238D01*
X143124323Y-130502238D02*
X143171942Y-130549857D01*
X143552895Y-130549857D02*
X143600514Y-130502238D01*
X143600514Y-130502238D02*
X143695752Y-130454619D01*
X143695752Y-130454619D02*
X143933847Y-130454619D01*
X143933847Y-130454619D02*
X144029085Y-130502238D01*
X144029085Y-130502238D02*
X144076704Y-130549857D01*
X144076704Y-130549857D02*
X144124323Y-130645095D01*
X144124323Y-130645095D02*
X144124323Y-130740333D01*
X144124323Y-130740333D02*
X144076704Y-130883190D01*
X144076704Y-130883190D02*
X143505276Y-131454619D01*
X143505276Y-131454619D02*
X144124323Y-131454619D01*
X144457657Y-130454619D02*
X145076704Y-130454619D01*
X145076704Y-130454619D02*
X144743371Y-130835571D01*
X144743371Y-130835571D02*
X144886228Y-130835571D01*
X144886228Y-130835571D02*
X144981466Y-130883190D01*
X144981466Y-130883190D02*
X145029085Y-130930809D01*
X145029085Y-130930809D02*
X145076704Y-131026047D01*
X145076704Y-131026047D02*
X145076704Y-131264142D01*
X145076704Y-131264142D02*
X145029085Y-131359380D01*
X145029085Y-131359380D02*
X144981466Y-131407000D01*
X144981466Y-131407000D02*
X144886228Y-131454619D01*
X144886228Y-131454619D02*
X144600514Y-131454619D01*
X144600514Y-131454619D02*
X144505276Y-131407000D01*
X144505276Y-131407000D02*
X144457657Y-131359380D01*
X124147342Y-87214180D02*
X124099723Y-87261800D01*
X124099723Y-87261800D02*
X123956866Y-87309419D01*
X123956866Y-87309419D02*
X123861628Y-87309419D01*
X123861628Y-87309419D02*
X123718771Y-87261800D01*
X123718771Y-87261800D02*
X123623533Y-87166561D01*
X123623533Y-87166561D02*
X123575914Y-87071323D01*
X123575914Y-87071323D02*
X123528295Y-86880847D01*
X123528295Y-86880847D02*
X123528295Y-86737990D01*
X123528295Y-86737990D02*
X123575914Y-86547514D01*
X123575914Y-86547514D02*
X123623533Y-86452276D01*
X123623533Y-86452276D02*
X123718771Y-86357038D01*
X123718771Y-86357038D02*
X123861628Y-86309419D01*
X123861628Y-86309419D02*
X123956866Y-86309419D01*
X123956866Y-86309419D02*
X124099723Y-86357038D01*
X124099723Y-86357038D02*
X124147342Y-86404657D01*
X124528295Y-86404657D02*
X124575914Y-86357038D01*
X124575914Y-86357038D02*
X124671152Y-86309419D01*
X124671152Y-86309419D02*
X124909247Y-86309419D01*
X124909247Y-86309419D02*
X125004485Y-86357038D01*
X125004485Y-86357038D02*
X125052104Y-86404657D01*
X125052104Y-86404657D02*
X125099723Y-86499895D01*
X125099723Y-86499895D02*
X125099723Y-86595133D01*
X125099723Y-86595133D02*
X125052104Y-86737990D01*
X125052104Y-86737990D02*
X124480676Y-87309419D01*
X124480676Y-87309419D02*
X125099723Y-87309419D01*
X125575914Y-87309419D02*
X125766390Y-87309419D01*
X125766390Y-87309419D02*
X125861628Y-87261800D01*
X125861628Y-87261800D02*
X125909247Y-87214180D01*
X125909247Y-87214180D02*
X126004485Y-87071323D01*
X126004485Y-87071323D02*
X126052104Y-86880847D01*
X126052104Y-86880847D02*
X126052104Y-86499895D01*
X126052104Y-86499895D02*
X126004485Y-86404657D01*
X126004485Y-86404657D02*
X125956866Y-86357038D01*
X125956866Y-86357038D02*
X125861628Y-86309419D01*
X125861628Y-86309419D02*
X125671152Y-86309419D01*
X125671152Y-86309419D02*
X125575914Y-86357038D01*
X125575914Y-86357038D02*
X125528295Y-86404657D01*
X125528295Y-86404657D02*
X125480676Y-86499895D01*
X125480676Y-86499895D02*
X125480676Y-86737990D01*
X125480676Y-86737990D02*
X125528295Y-86833228D01*
X125528295Y-86833228D02*
X125575914Y-86880847D01*
X125575914Y-86880847D02*
X125671152Y-86928466D01*
X125671152Y-86928466D02*
X125861628Y-86928466D01*
X125861628Y-86928466D02*
X125956866Y-86880847D01*
X125956866Y-86880847D02*
X126004485Y-86833228D01*
X126004485Y-86833228D02*
X126052104Y-86737990D01*
D12*
X75522166Y-183634442D02*
X75703595Y-183694918D01*
X75703595Y-183694918D02*
X76005976Y-183694918D01*
X76005976Y-183694918D02*
X76126928Y-183634442D01*
X76126928Y-183634442D02*
X76187404Y-183573965D01*
X76187404Y-183573965D02*
X76247881Y-183453013D01*
X76247881Y-183453013D02*
X76247881Y-183332061D01*
X76247881Y-183332061D02*
X76187404Y-183211108D01*
X76187404Y-183211108D02*
X76126928Y-183150632D01*
X76126928Y-183150632D02*
X76005976Y-183090156D01*
X76005976Y-183090156D02*
X75764071Y-183029680D01*
X75764071Y-183029680D02*
X75643119Y-182969203D01*
X75643119Y-182969203D02*
X75582642Y-182908727D01*
X75582642Y-182908727D02*
X75522166Y-182787775D01*
X75522166Y-182787775D02*
X75522166Y-182666822D01*
X75522166Y-182666822D02*
X75582642Y-182545870D01*
X75582642Y-182545870D02*
X75643119Y-182485394D01*
X75643119Y-182485394D02*
X75764071Y-182424918D01*
X75764071Y-182424918D02*
X76066452Y-182424918D01*
X76066452Y-182424918D02*
X76247881Y-182485394D01*
X76671214Y-182424918D02*
X76973595Y-183694918D01*
X76973595Y-183694918D02*
X77215500Y-182787775D01*
X77215500Y-182787775D02*
X77457405Y-183694918D01*
X77457405Y-183694918D02*
X77759786Y-182424918D01*
X78183119Y-182545870D02*
X78243595Y-182485394D01*
X78243595Y-182485394D02*
X78364548Y-182424918D01*
X78364548Y-182424918D02*
X78666929Y-182424918D01*
X78666929Y-182424918D02*
X78787881Y-182485394D01*
X78787881Y-182485394D02*
X78848357Y-182545870D01*
X78848357Y-182545870D02*
X78908834Y-182666822D01*
X78908834Y-182666822D02*
X78908834Y-182787775D01*
X78908834Y-182787775D02*
X78848357Y-182969203D01*
X78848357Y-182969203D02*
X78122643Y-183694918D01*
X78122643Y-183694918D02*
X78908834Y-183694918D01*
D10*
X92977619Y-55688704D02*
X93787142Y-55688704D01*
X93787142Y-55688704D02*
X93882380Y-55641085D01*
X93882380Y-55641085D02*
X93930000Y-55593466D01*
X93930000Y-55593466D02*
X93977619Y-55498228D01*
X93977619Y-55498228D02*
X93977619Y-55307752D01*
X93977619Y-55307752D02*
X93930000Y-55212514D01*
X93930000Y-55212514D02*
X93882380Y-55164895D01*
X93882380Y-55164895D02*
X93787142Y-55117276D01*
X93787142Y-55117276D02*
X92977619Y-55117276D01*
X93406190Y-54498228D02*
X93358571Y-54593466D01*
X93358571Y-54593466D02*
X93310952Y-54641085D01*
X93310952Y-54641085D02*
X93215714Y-54688704D01*
X93215714Y-54688704D02*
X93168095Y-54688704D01*
X93168095Y-54688704D02*
X93072857Y-54641085D01*
X93072857Y-54641085D02*
X93025238Y-54593466D01*
X93025238Y-54593466D02*
X92977619Y-54498228D01*
X92977619Y-54498228D02*
X92977619Y-54307752D01*
X92977619Y-54307752D02*
X93025238Y-54212514D01*
X93025238Y-54212514D02*
X93072857Y-54164895D01*
X93072857Y-54164895D02*
X93168095Y-54117276D01*
X93168095Y-54117276D02*
X93215714Y-54117276D01*
X93215714Y-54117276D02*
X93310952Y-54164895D01*
X93310952Y-54164895D02*
X93358571Y-54212514D01*
X93358571Y-54212514D02*
X93406190Y-54307752D01*
X93406190Y-54307752D02*
X93406190Y-54498228D01*
X93406190Y-54498228D02*
X93453809Y-54593466D01*
X93453809Y-54593466D02*
X93501428Y-54641085D01*
X93501428Y-54641085D02*
X93596666Y-54688704D01*
X93596666Y-54688704D02*
X93787142Y-54688704D01*
X93787142Y-54688704D02*
X93882380Y-54641085D01*
X93882380Y-54641085D02*
X93930000Y-54593466D01*
X93930000Y-54593466D02*
X93977619Y-54498228D01*
X93977619Y-54498228D02*
X93977619Y-54307752D01*
X93977619Y-54307752D02*
X93930000Y-54212514D01*
X93930000Y-54212514D02*
X93882380Y-54164895D01*
X93882380Y-54164895D02*
X93787142Y-54117276D01*
X93787142Y-54117276D02*
X93596666Y-54117276D01*
X93596666Y-54117276D02*
X93501428Y-54164895D01*
X93501428Y-54164895D02*
X93453809Y-54212514D01*
X93453809Y-54212514D02*
X93406190Y-54307752D01*
X124489380Y-162961354D02*
X124537000Y-163008973D01*
X124537000Y-163008973D02*
X124584619Y-163151830D01*
X124584619Y-163151830D02*
X124584619Y-163247068D01*
X124584619Y-163247068D02*
X124537000Y-163389925D01*
X124537000Y-163389925D02*
X124441761Y-163485163D01*
X124441761Y-163485163D02*
X124346523Y-163532782D01*
X124346523Y-163532782D02*
X124156047Y-163580401D01*
X124156047Y-163580401D02*
X124013190Y-163580401D01*
X124013190Y-163580401D02*
X123822714Y-163532782D01*
X123822714Y-163532782D02*
X123727476Y-163485163D01*
X123727476Y-163485163D02*
X123632238Y-163389925D01*
X123632238Y-163389925D02*
X123584619Y-163247068D01*
X123584619Y-163247068D02*
X123584619Y-163151830D01*
X123584619Y-163151830D02*
X123632238Y-163008973D01*
X123632238Y-163008973D02*
X123679857Y-162961354D01*
X123584619Y-162056592D02*
X123584619Y-162532782D01*
X123584619Y-162532782D02*
X124060809Y-162580401D01*
X124060809Y-162580401D02*
X124013190Y-162532782D01*
X124013190Y-162532782D02*
X123965571Y-162437544D01*
X123965571Y-162437544D02*
X123965571Y-162199449D01*
X123965571Y-162199449D02*
X124013190Y-162104211D01*
X124013190Y-162104211D02*
X124060809Y-162056592D01*
X124060809Y-162056592D02*
X124156047Y-162008973D01*
X124156047Y-162008973D02*
X124394142Y-162008973D01*
X124394142Y-162008973D02*
X124489380Y-162056592D01*
X124489380Y-162056592D02*
X124537000Y-162104211D01*
X124537000Y-162104211D02*
X124584619Y-162199449D01*
X124584619Y-162199449D02*
X124584619Y-162437544D01*
X124584619Y-162437544D02*
X124537000Y-162532782D01*
X124537000Y-162532782D02*
X124489380Y-162580401D01*
X89564380Y-127951466D02*
X89612000Y-127999085D01*
X89612000Y-127999085D02*
X89659619Y-128141942D01*
X89659619Y-128141942D02*
X89659619Y-128237180D01*
X89659619Y-128237180D02*
X89612000Y-128380037D01*
X89612000Y-128380037D02*
X89516761Y-128475275D01*
X89516761Y-128475275D02*
X89421523Y-128522894D01*
X89421523Y-128522894D02*
X89231047Y-128570513D01*
X89231047Y-128570513D02*
X89088190Y-128570513D01*
X89088190Y-128570513D02*
X88897714Y-128522894D01*
X88897714Y-128522894D02*
X88802476Y-128475275D01*
X88802476Y-128475275D02*
X88707238Y-128380037D01*
X88707238Y-128380037D02*
X88659619Y-128237180D01*
X88659619Y-128237180D02*
X88659619Y-128141942D01*
X88659619Y-128141942D02*
X88707238Y-127999085D01*
X88707238Y-127999085D02*
X88754857Y-127951466D01*
X89659619Y-126999085D02*
X89659619Y-127570513D01*
X89659619Y-127284799D02*
X88659619Y-127284799D01*
X88659619Y-127284799D02*
X88802476Y-127380037D01*
X88802476Y-127380037D02*
X88897714Y-127475275D01*
X88897714Y-127475275D02*
X88945333Y-127570513D01*
X140036561Y-60040857D02*
X139941323Y-59993238D01*
X139941323Y-59993238D02*
X139846085Y-59898000D01*
X139846085Y-59898000D02*
X139703228Y-59755142D01*
X139703228Y-59755142D02*
X139607990Y-59707523D01*
X139607990Y-59707523D02*
X139512752Y-59707523D01*
X139560371Y-59945619D02*
X139465133Y-59898000D01*
X139465133Y-59898000D02*
X139369895Y-59802761D01*
X139369895Y-59802761D02*
X139322276Y-59612285D01*
X139322276Y-59612285D02*
X139322276Y-59278952D01*
X139322276Y-59278952D02*
X139369895Y-59088476D01*
X139369895Y-59088476D02*
X139465133Y-58993238D01*
X139465133Y-58993238D02*
X139560371Y-58945619D01*
X139560371Y-58945619D02*
X139750847Y-58945619D01*
X139750847Y-58945619D02*
X139846085Y-58993238D01*
X139846085Y-58993238D02*
X139941323Y-59088476D01*
X139941323Y-59088476D02*
X139988942Y-59278952D01*
X139988942Y-59278952D02*
X139988942Y-59612285D01*
X139988942Y-59612285D02*
X139941323Y-59802761D01*
X139941323Y-59802761D02*
X139846085Y-59898000D01*
X139846085Y-59898000D02*
X139750847Y-59945619D01*
X139750847Y-59945619D02*
X139560371Y-59945619D01*
X140941323Y-59945619D02*
X140369895Y-59945619D01*
X140655609Y-59945619D02*
X140655609Y-58945619D01*
X140655609Y-58945619D02*
X140560371Y-59088476D01*
X140560371Y-59088476D02*
X140465133Y-59183714D01*
X140465133Y-59183714D02*
X140369895Y-59231333D01*
X140317742Y-163109380D02*
X140270123Y-163157000D01*
X140270123Y-163157000D02*
X140127266Y-163204619D01*
X140127266Y-163204619D02*
X140032028Y-163204619D01*
X140032028Y-163204619D02*
X139889171Y-163157000D01*
X139889171Y-163157000D02*
X139793933Y-163061761D01*
X139793933Y-163061761D02*
X139746314Y-162966523D01*
X139746314Y-162966523D02*
X139698695Y-162776047D01*
X139698695Y-162776047D02*
X139698695Y-162633190D01*
X139698695Y-162633190D02*
X139746314Y-162442714D01*
X139746314Y-162442714D02*
X139793933Y-162347476D01*
X139793933Y-162347476D02*
X139889171Y-162252238D01*
X139889171Y-162252238D02*
X140032028Y-162204619D01*
X140032028Y-162204619D02*
X140127266Y-162204619D01*
X140127266Y-162204619D02*
X140270123Y-162252238D01*
X140270123Y-162252238D02*
X140317742Y-162299857D01*
X140698695Y-162299857D02*
X140746314Y-162252238D01*
X140746314Y-162252238D02*
X140841552Y-162204619D01*
X140841552Y-162204619D02*
X141079647Y-162204619D01*
X141079647Y-162204619D02*
X141174885Y-162252238D01*
X141174885Y-162252238D02*
X141222504Y-162299857D01*
X141222504Y-162299857D02*
X141270123Y-162395095D01*
X141270123Y-162395095D02*
X141270123Y-162490333D01*
X141270123Y-162490333D02*
X141222504Y-162633190D01*
X141222504Y-162633190D02*
X140651076Y-163204619D01*
X140651076Y-163204619D02*
X141270123Y-163204619D01*
X142127266Y-162204619D02*
X141936790Y-162204619D01*
X141936790Y-162204619D02*
X141841552Y-162252238D01*
X141841552Y-162252238D02*
X141793933Y-162299857D01*
X141793933Y-162299857D02*
X141698695Y-162442714D01*
X141698695Y-162442714D02*
X141651076Y-162633190D01*
X141651076Y-162633190D02*
X141651076Y-163014142D01*
X141651076Y-163014142D02*
X141698695Y-163109380D01*
X141698695Y-163109380D02*
X141746314Y-163157000D01*
X141746314Y-163157000D02*
X141841552Y-163204619D01*
X141841552Y-163204619D02*
X142032028Y-163204619D01*
X142032028Y-163204619D02*
X142127266Y-163157000D01*
X142127266Y-163157000D02*
X142174885Y-163109380D01*
X142174885Y-163109380D02*
X142222504Y-163014142D01*
X142222504Y-163014142D02*
X142222504Y-162776047D01*
X142222504Y-162776047D02*
X142174885Y-162680809D01*
X142174885Y-162680809D02*
X142127266Y-162633190D01*
X142127266Y-162633190D02*
X142032028Y-162585571D01*
X142032028Y-162585571D02*
X141841552Y-162585571D01*
X141841552Y-162585571D02*
X141746314Y-162633190D01*
X141746314Y-162633190D02*
X141698695Y-162680809D01*
X141698695Y-162680809D02*
X141651076Y-162776047D01*
X138041142Y-65313019D02*
X137707809Y-64836828D01*
X137469714Y-65313019D02*
X137469714Y-64313019D01*
X137469714Y-64313019D02*
X137850666Y-64313019D01*
X137850666Y-64313019D02*
X137945904Y-64360638D01*
X137945904Y-64360638D02*
X137993523Y-64408257D01*
X137993523Y-64408257D02*
X138041142Y-64503495D01*
X138041142Y-64503495D02*
X138041142Y-64646352D01*
X138041142Y-64646352D02*
X137993523Y-64741590D01*
X137993523Y-64741590D02*
X137945904Y-64789209D01*
X137945904Y-64789209D02*
X137850666Y-64836828D01*
X137850666Y-64836828D02*
X137469714Y-64836828D01*
X138993523Y-65313019D02*
X138422095Y-65313019D01*
X138707809Y-65313019D02*
X138707809Y-64313019D01*
X138707809Y-64313019D02*
X138612571Y-64455876D01*
X138612571Y-64455876D02*
X138517333Y-64551114D01*
X138517333Y-64551114D02*
X138422095Y-64598733D01*
X139945904Y-65313019D02*
X139374476Y-65313019D01*
X139660190Y-65313019D02*
X139660190Y-64313019D01*
X139660190Y-64313019D02*
X139564952Y-64455876D01*
X139564952Y-64455876D02*
X139469714Y-64551114D01*
X139469714Y-64551114D02*
X139374476Y-64598733D01*
X142330969Y-171389266D02*
X141854778Y-171722599D01*
X142330969Y-171960694D02*
X141330969Y-171960694D01*
X141330969Y-171960694D02*
X141330969Y-171579742D01*
X141330969Y-171579742D02*
X141378588Y-171484504D01*
X141378588Y-171484504D02*
X141426207Y-171436885D01*
X141426207Y-171436885D02*
X141521445Y-171389266D01*
X141521445Y-171389266D02*
X141664302Y-171389266D01*
X141664302Y-171389266D02*
X141759540Y-171436885D01*
X141759540Y-171436885D02*
X141807159Y-171484504D01*
X141807159Y-171484504D02*
X141854778Y-171579742D01*
X141854778Y-171579742D02*
X141854778Y-171960694D01*
X141664302Y-170532123D02*
X142330969Y-170532123D01*
X141283350Y-170770218D02*
X141997635Y-171008313D01*
X141997635Y-171008313D02*
X141997635Y-170389266D01*
X91076266Y-86436419D02*
X91076266Y-87150704D01*
X91076266Y-87150704D02*
X91028647Y-87293561D01*
X91028647Y-87293561D02*
X90933409Y-87388800D01*
X90933409Y-87388800D02*
X90790552Y-87436419D01*
X90790552Y-87436419D02*
X90695314Y-87436419D01*
X92076266Y-87436419D02*
X91504838Y-87436419D01*
X91790552Y-87436419D02*
X91790552Y-86436419D01*
X91790552Y-86436419D02*
X91695314Y-86579276D01*
X91695314Y-86579276D02*
X91600076Y-86674514D01*
X91600076Y-86674514D02*
X91504838Y-86722133D01*
X144488819Y-125167704D02*
X145298342Y-125167704D01*
X145298342Y-125167704D02*
X145393580Y-125120085D01*
X145393580Y-125120085D02*
X145441200Y-125072466D01*
X145441200Y-125072466D02*
X145488819Y-124977228D01*
X145488819Y-124977228D02*
X145488819Y-124786752D01*
X145488819Y-124786752D02*
X145441200Y-124691514D01*
X145441200Y-124691514D02*
X145393580Y-124643895D01*
X145393580Y-124643895D02*
X145298342Y-124596276D01*
X145298342Y-124596276D02*
X144488819Y-124596276D01*
X144584057Y-124167704D02*
X144536438Y-124120085D01*
X144536438Y-124120085D02*
X144488819Y-124024847D01*
X144488819Y-124024847D02*
X144488819Y-123786752D01*
X144488819Y-123786752D02*
X144536438Y-123691514D01*
X144536438Y-123691514D02*
X144584057Y-123643895D01*
X144584057Y-123643895D02*
X144679295Y-123596276D01*
X144679295Y-123596276D02*
X144774533Y-123596276D01*
X144774533Y-123596276D02*
X144917390Y-123643895D01*
X144917390Y-123643895D02*
X145488819Y-124215323D01*
X145488819Y-124215323D02*
X145488819Y-123596276D01*
X115446980Y-85251457D02*
X115494600Y-85299076D01*
X115494600Y-85299076D02*
X115542219Y-85441933D01*
X115542219Y-85441933D02*
X115542219Y-85537171D01*
X115542219Y-85537171D02*
X115494600Y-85680028D01*
X115494600Y-85680028D02*
X115399361Y-85775266D01*
X115399361Y-85775266D02*
X115304123Y-85822885D01*
X115304123Y-85822885D02*
X115113647Y-85870504D01*
X115113647Y-85870504D02*
X114970790Y-85870504D01*
X114970790Y-85870504D02*
X114780314Y-85822885D01*
X114780314Y-85822885D02*
X114685076Y-85775266D01*
X114685076Y-85775266D02*
X114589838Y-85680028D01*
X114589838Y-85680028D02*
X114542219Y-85537171D01*
X114542219Y-85537171D02*
X114542219Y-85441933D01*
X114542219Y-85441933D02*
X114589838Y-85299076D01*
X114589838Y-85299076D02*
X114637457Y-85251457D01*
X115542219Y-84299076D02*
X115542219Y-84870504D01*
X115542219Y-84584790D02*
X114542219Y-84584790D01*
X114542219Y-84584790D02*
X114685076Y-84680028D01*
X114685076Y-84680028D02*
X114780314Y-84775266D01*
X114780314Y-84775266D02*
X114827933Y-84870504D01*
X114542219Y-83965742D02*
X114542219Y-83346695D01*
X114542219Y-83346695D02*
X114923171Y-83680028D01*
X114923171Y-83680028D02*
X114923171Y-83537171D01*
X114923171Y-83537171D02*
X114970790Y-83441933D01*
X114970790Y-83441933D02*
X115018409Y-83394314D01*
X115018409Y-83394314D02*
X115113647Y-83346695D01*
X115113647Y-83346695D02*
X115351742Y-83346695D01*
X115351742Y-83346695D02*
X115446980Y-83394314D01*
X115446980Y-83394314D02*
X115494600Y-83441933D01*
X115494600Y-83441933D02*
X115542219Y-83537171D01*
X115542219Y-83537171D02*
X115542219Y-83822885D01*
X115542219Y-83822885D02*
X115494600Y-83918123D01*
X115494600Y-83918123D02*
X115446980Y-83965742D01*
X152683380Y-170887815D02*
X152731000Y-170935434D01*
X152731000Y-170935434D02*
X152778619Y-171078291D01*
X152778619Y-171078291D02*
X152778619Y-171173529D01*
X152778619Y-171173529D02*
X152731000Y-171316386D01*
X152731000Y-171316386D02*
X152635761Y-171411624D01*
X152635761Y-171411624D02*
X152540523Y-171459243D01*
X152540523Y-171459243D02*
X152350047Y-171506862D01*
X152350047Y-171506862D02*
X152207190Y-171506862D01*
X152207190Y-171506862D02*
X152016714Y-171459243D01*
X152016714Y-171459243D02*
X151921476Y-171411624D01*
X151921476Y-171411624D02*
X151826238Y-171316386D01*
X151826238Y-171316386D02*
X151778619Y-171173529D01*
X151778619Y-171173529D02*
X151778619Y-171078291D01*
X151778619Y-171078291D02*
X151826238Y-170935434D01*
X151826238Y-170935434D02*
X151873857Y-170887815D01*
X151873857Y-170506862D02*
X151826238Y-170459243D01*
X151826238Y-170459243D02*
X151778619Y-170364005D01*
X151778619Y-170364005D02*
X151778619Y-170125910D01*
X151778619Y-170125910D02*
X151826238Y-170030672D01*
X151826238Y-170030672D02*
X151873857Y-169983053D01*
X151873857Y-169983053D02*
X151969095Y-169935434D01*
X151969095Y-169935434D02*
X152064333Y-169935434D01*
X152064333Y-169935434D02*
X152207190Y-169983053D01*
X152207190Y-169983053D02*
X152778619Y-170554481D01*
X152778619Y-170554481D02*
X152778619Y-169935434D01*
D14*
%TO.C,Y1*%
X138469000Y-73039000D02*
X138469000Y-79439000D01*
X133819000Y-73039000D02*
X133819000Y-79439000D01*
X138144000Y-73239000D02*
X138144000Y-79239000D01*
X134144000Y-73239000D02*
X134144000Y-79239000D01*
X138469000Y-73039000D02*
G75*
G03*
X133819000Y-73039000I-2325000J0D01*
G01*
X138144000Y-73239000D02*
G75*
G03*
X134144000Y-73239000I-2000000J0D01*
G01*
X134144000Y-79239000D02*
G75*
G03*
X138144000Y-79239000I2000000J0D01*
G01*
X133819000Y-79439000D02*
G75*
G03*
X138469000Y-79439000I2325000J0D01*
G01*
%TO.C,R6*%
X137337800Y-151827800D02*
X137337800Y-151167800D01*
X136087800Y-151167800D02*
X138587800Y-151167800D01*
X138587800Y-151167800D02*
X138587800Y-144867800D01*
X136087800Y-144867800D02*
X136087800Y-151167800D01*
X138587800Y-144867800D02*
X136087800Y-144867800D01*
X137337800Y-144207800D02*
X137337800Y-144867800D01*
%TO.C,C4*%
X132204600Y-153371800D02*
X132204600Y-155871800D01*
X132204600Y-155871800D02*
X136904600Y-155871800D01*
X136904600Y-153371800D02*
X132204600Y-153371800D01*
X136904600Y-155871800D02*
X136904600Y-153371800D01*
%TO.C,U6*%
X131892800Y-64706800D02*
X132892800Y-65706800D01*
X82092800Y-64706800D02*
X131892800Y-64706800D01*
X132892800Y-65706800D02*
X132892800Y-79436800D01*
X132892800Y-79436800D02*
X82092800Y-79436800D01*
X82092800Y-79436800D02*
X82092800Y-64706800D01*
%TO.C,J3*%
X137109200Y-50736800D02*
X137109200Y-56536800D01*
X137109200Y-53156800D02*
X137816307Y-53656800D01*
X137109200Y-56536800D02*
X142189200Y-56536800D01*
X137816307Y-53656800D02*
X137109200Y-54156800D01*
X142189200Y-50736800D02*
X137109200Y-50736800D01*
X142189200Y-56536800D02*
X142189200Y-50736800D01*
%TO.C,J5*%
X81121800Y-57386600D02*
X68781800Y-57386600D01*
X68781800Y-57386600D02*
X68381800Y-57386600D01*
X68781800Y-57386600D02*
X68781800Y-88236600D01*
X68381800Y-57386600D02*
X68381800Y-88236600D01*
X68381800Y-57811600D02*
X63381800Y-57811600D01*
X63381800Y-57811600D02*
X63381800Y-62811600D01*
X68781800Y-58711600D02*
X77901800Y-58711600D01*
X68781800Y-61911600D02*
X77901800Y-61911600D01*
X68381800Y-62811600D02*
X68381800Y-57811600D01*
X63381800Y-62811600D02*
X68381800Y-62811600D01*
X68381800Y-64661600D02*
X62381800Y-64661600D01*
X62381800Y-64661600D02*
X62381800Y-80961600D01*
X68381800Y-80961600D02*
X68381800Y-64661600D01*
X62381800Y-80961600D02*
X68381800Y-80961600D01*
X68381800Y-82811600D02*
X63381800Y-82811600D01*
X63381800Y-82811600D02*
X63381800Y-87811600D01*
X68781800Y-83711600D02*
X77901800Y-83711600D01*
X68781800Y-86911600D02*
X77901800Y-86911600D01*
X68381800Y-87811600D02*
X68381800Y-82811600D01*
X63381800Y-87811600D02*
X68381800Y-87811600D01*
X81121800Y-88236600D02*
X81121800Y-57386600D01*
X68781800Y-88236600D02*
X68781800Y-57386600D01*
X68781800Y-88236600D02*
X81121800Y-88236600D01*
X68381800Y-88236600D02*
X68781800Y-88236600D01*
X77901800Y-61911600D02*
G75*
G03*
X77901800Y-58711600I0J1600000D01*
G01*
X77901800Y-86911600D02*
G75*
G03*
X77901800Y-83711600I0J1600000D01*
G01*
%TO.C,R19*%
X70078600Y-89928000D02*
X70078600Y-91858000D01*
X71328600Y-91858000D02*
X68828600Y-91858000D01*
X68828600Y-91858000D02*
X68828600Y-98158000D01*
X71328600Y-98158000D02*
X71328600Y-91858000D01*
X68828600Y-98158000D02*
X71328600Y-98158000D01*
X70078600Y-100088000D02*
X70078600Y-98158000D01*
%TO.C,C3*%
X119527700Y-160661083D02*
X119527700Y-161161083D01*
X119777700Y-160911083D02*
X119277700Y-160911083D01*
X120940200Y-162794688D02*
G75*
G03*
X115940200Y-162794688I-2500000J0D01*
G01*
X115940200Y-162794688D02*
G75*
G03*
X120940200Y-162794688I2500000J0D01*
G01*
%TO.C,C28*%
X128630300Y-164838518D02*
X128630300Y-164338518D01*
X128380300Y-164588518D02*
X128880300Y-164588518D01*
X132217800Y-162704913D02*
G75*
G03*
X127217800Y-162704913I-2500000J0D01*
G01*
X127217800Y-162704913D02*
G75*
G03*
X132217800Y-162704913I2500000J0D01*
G01*
%TO.C,R14*%
X85852000Y-129399600D02*
X85852000Y-127469600D01*
X84602000Y-127469600D02*
X87102000Y-127469600D01*
X87102000Y-127469600D02*
X87102000Y-121169600D01*
X84602000Y-121169600D02*
X84602000Y-127469600D01*
X87102000Y-121169600D02*
X84602000Y-121169600D01*
X85852000Y-119239600D02*
X85852000Y-121169600D01*
%TO.C,R22*%
X85140800Y-147255800D02*
X83210800Y-147255800D01*
X83210800Y-148505800D02*
X83210800Y-146005800D01*
X83210800Y-146005800D02*
X76910800Y-146005800D01*
X76910800Y-148505800D02*
X83210800Y-148505800D01*
X76910800Y-146005800D02*
X76910800Y-148505800D01*
X74980800Y-147255800D02*
X76910800Y-147255800D01*
%TO.C,RN1*%
X69880800Y-111258600D02*
X69880800Y-113758600D01*
X69880800Y-113758600D02*
X87700800Y-113758600D01*
X72440800Y-111258600D02*
X72440800Y-113758600D01*
X87700800Y-111258600D02*
X69880800Y-111258600D01*
X87700800Y-113758600D02*
X87700800Y-111258600D01*
%TO.C,L3*%
X117830600Y-83349400D02*
X119410600Y-83349400D01*
X119410600Y-81699400D02*
X119410600Y-84999400D01*
X119410600Y-84999400D02*
X126410600Y-84999400D01*
X126410600Y-81699400D02*
X119410600Y-81699400D01*
X126410600Y-84999400D02*
X126410600Y-81699400D01*
X127990600Y-83349400D02*
X126410600Y-83349400D01*
%TO.C,C24*%
X131439083Y-178883500D02*
X131939083Y-178883500D01*
X131689083Y-178633500D02*
X131689083Y-179133500D01*
X136072688Y-179971000D02*
G75*
G03*
X131072688Y-179971000I-2500000J0D01*
G01*
X131072688Y-179971000D02*
G75*
G03*
X136072688Y-179971000I2500000J0D01*
G01*
%TO.C,R23*%
X139674600Y-157974600D02*
X139014600Y-157974600D01*
X139014600Y-159224600D02*
X139014600Y-156724600D01*
X139014600Y-156724600D02*
X132714600Y-156724600D01*
X132714600Y-159224600D02*
X139014600Y-159224600D01*
X132714600Y-156724600D02*
X132714600Y-159224600D01*
X132054600Y-157974600D02*
X132714600Y-157974600D01*
%TO.C,U4*%
X89529000Y-185791600D02*
X88529000Y-184791600D01*
X124089000Y-185791600D02*
X89529000Y-185791600D01*
X88529000Y-184791600D02*
X88529000Y-171061600D01*
X88529000Y-171061600D02*
X124089000Y-171061600D01*
X124089000Y-171061600D02*
X124089000Y-185791600D01*
%TO.C,L1*%
X129870200Y-157873000D02*
X128290200Y-157873000D01*
X128290200Y-159523000D02*
X128290200Y-156223000D01*
X128290200Y-156223000D02*
X121290200Y-156223000D01*
X121290200Y-159523000D02*
X128290200Y-159523000D01*
X121290200Y-156223000D02*
X121290200Y-159523000D01*
X119710200Y-157873000D02*
X121290200Y-157873000D01*
%TO.C,U7*%
X110804200Y-58101800D02*
X109804200Y-57101800D01*
X132664200Y-58101800D02*
X110804200Y-58101800D01*
X109804200Y-57101800D02*
X109804200Y-51751800D01*
X109804200Y-51751800D02*
X132664200Y-51751800D01*
X132664200Y-51751800D02*
X132664200Y-58101800D01*
%TO.C,J11*%
X82473800Y-144912600D02*
X82473800Y-139112600D01*
X82473800Y-142492600D02*
X81766693Y-141992600D01*
X82473800Y-139112600D02*
X77393800Y-139112600D01*
X81766693Y-141992600D02*
X82473800Y-141492600D01*
X77393800Y-144912600D02*
X82473800Y-144912600D01*
X77393800Y-139112600D02*
X77393800Y-144912600D01*
%TO.C,C10*%
X87995000Y-172483400D02*
X87995000Y-169983400D01*
X87995000Y-169983400D02*
X80995000Y-169983400D01*
X80995000Y-172483400D02*
X87995000Y-172483400D01*
X80995000Y-169983400D02*
X80995000Y-172483400D01*
%TO.C,C20*%
X71379400Y-101581000D02*
X68879400Y-101581000D01*
X68879400Y-101581000D02*
X68879400Y-108581000D01*
X71379400Y-108581000D02*
X71379400Y-101581000D01*
X68879400Y-108581000D02*
X71379400Y-108581000D01*
D15*
%TO.C,RV1*%
X159698800Y-154514800D02*
X159698800Y-154514800D01*
X145698800Y-154514800D02*
X145698800Y-154514800D01*
X145698800Y-154514800D02*
G75*
G03*
X159698800Y-154514800I7000000J0D01*
G01*
X159698800Y-154514800D02*
G75*
G03*
X145698800Y-154514800I-7000000J0D01*
G01*
D16*
%TO.C,J9*%
X149635200Y-188549600D02*
X149635200Y-176560800D01*
X149635200Y-176560800D02*
X137646400Y-176560800D01*
X146638000Y-190556200D02*
X146638000Y-188549600D01*
X146638000Y-188549600D02*
X140643600Y-188549600D01*
X140643600Y-190556200D02*
X146638000Y-190556200D01*
X140643600Y-188549600D02*
X140643600Y-190556200D01*
X137646400Y-188549600D02*
X149635200Y-188549600D01*
X137646400Y-176560800D02*
X137646400Y-188549600D01*
D14*
%TO.C,R28*%
X144576800Y-116445600D02*
X146506800Y-116445600D01*
X146506800Y-115195600D02*
X146506800Y-117695600D01*
X146506800Y-117695600D02*
X152806800Y-117695600D01*
X152806800Y-115195600D02*
X146506800Y-115195600D01*
X152806800Y-117695600D02*
X152806800Y-115195600D01*
X154736800Y-116445600D02*
X152806800Y-116445600D01*
%TO.C,R10*%
X151561800Y-54418800D02*
X150901800Y-54418800D01*
X150901800Y-55668800D02*
X150901800Y-53168800D01*
X150901800Y-53168800D02*
X144601800Y-53168800D01*
X144601800Y-55668800D02*
X150901800Y-55668800D01*
X144601800Y-53168800D02*
X144601800Y-55668800D01*
X143941800Y-54418800D02*
X144601800Y-54418800D01*
%TO.C,R16*%
X79756000Y-129374200D02*
X79756000Y-127444200D01*
X78506000Y-127444200D02*
X81006000Y-127444200D01*
X81006000Y-127444200D02*
X81006000Y-121144200D01*
X78506000Y-121144200D02*
X78506000Y-127444200D01*
X81006000Y-121144200D02*
X78506000Y-121144200D01*
X79756000Y-119214200D02*
X79756000Y-121144200D01*
%TO.C,J6*%
X74604800Y-129572400D02*
X73334800Y-130842400D01*
X74604800Y-118142400D02*
X74604800Y-129572400D01*
X73334800Y-130842400D02*
X69524800Y-130842400D01*
X69524800Y-130842400D02*
X69524800Y-118142400D01*
X69524800Y-118142400D02*
X74604800Y-118142400D01*
%TO.C,R12*%
X142494000Y-68414200D02*
X141834000Y-68414200D01*
X141834000Y-69664200D02*
X141834000Y-67164200D01*
X141834000Y-67164200D02*
X135534000Y-67164200D01*
X135534000Y-69664200D02*
X141834000Y-69664200D01*
X135534000Y-67164200D02*
X135534000Y-69664200D01*
X134874000Y-68414200D02*
X135534000Y-68414200D01*
%TO.C,C8*%
X154934800Y-132249800D02*
X154934800Y-129749800D01*
X154934800Y-129749800D02*
X147934800Y-129749800D01*
X147934800Y-132249800D02*
X154934800Y-132249800D01*
X147934800Y-129749800D02*
X147934800Y-132249800D01*
%TO.C,R3*%
X80695800Y-115937600D02*
X78765800Y-115937600D01*
X78765800Y-117187600D02*
X78765800Y-114687600D01*
X78765800Y-114687600D02*
X72465800Y-114687600D01*
X72465800Y-117187600D02*
X78765800Y-117187600D01*
X72465800Y-114687600D02*
X72465800Y-117187600D01*
X70535800Y-115937600D02*
X72465800Y-115937600D01*
%TO.C,C7*%
X129723000Y-174403000D02*
X129723000Y-176903000D01*
X129723000Y-176903000D02*
X136723000Y-176903000D01*
X136723000Y-174403000D02*
X129723000Y-174403000D01*
X136723000Y-176903000D02*
X136723000Y-174403000D01*
%TO.C,C27*%
X134269100Y-164838518D02*
X134269100Y-164338518D01*
X134019100Y-164588518D02*
X134519100Y-164588518D01*
X137856600Y-162704913D02*
G75*
G03*
X132856600Y-162704913I-2500000J0D01*
G01*
X132856600Y-162704913D02*
G75*
G03*
X137856600Y-162704913I2500000J0D01*
G01*
%TO.C,R17*%
X76708000Y-129374200D02*
X76708000Y-127444200D01*
X75458000Y-127444200D02*
X77958000Y-127444200D01*
X77958000Y-127444200D02*
X77958000Y-121144200D01*
X75458000Y-121144200D02*
X75458000Y-127444200D01*
X77958000Y-121144200D02*
X75458000Y-121144200D01*
X76708000Y-119214200D02*
X76708000Y-121144200D01*
%TO.C,J7*%
X144432600Y-88095800D02*
X156772600Y-88095800D01*
X156772600Y-88095800D02*
X157172600Y-88095800D01*
X156772600Y-88095800D02*
X156772600Y-57245800D01*
X157172600Y-88095800D02*
X157172600Y-57245800D01*
X157172600Y-87670800D02*
X162172600Y-87670800D01*
X162172600Y-87670800D02*
X162172600Y-82670800D01*
X156772600Y-86770800D02*
X147652600Y-86770800D01*
X156772600Y-83570800D02*
X147652600Y-83570800D01*
X157172600Y-82670800D02*
X157172600Y-87670800D01*
X162172600Y-82670800D02*
X157172600Y-82670800D01*
X157172600Y-80820800D02*
X163172600Y-80820800D01*
X163172600Y-80820800D02*
X163172600Y-64520800D01*
X157172600Y-64520800D02*
X157172600Y-80820800D01*
X163172600Y-64520800D02*
X157172600Y-64520800D01*
X157172600Y-62670800D02*
X162172600Y-62670800D01*
X162172600Y-62670800D02*
X162172600Y-57670800D01*
X156772600Y-61770800D02*
X147652600Y-61770800D01*
X156772600Y-58570800D02*
X147652600Y-58570800D01*
X157172600Y-57670800D02*
X157172600Y-62670800D01*
X162172600Y-57670800D02*
X157172600Y-57670800D01*
X144432600Y-57245800D02*
X144432600Y-88095800D01*
X156772600Y-57245800D02*
X156772600Y-88095800D01*
X156772600Y-57245800D02*
X144432600Y-57245800D01*
X157172600Y-57245800D02*
X156772600Y-57245800D01*
X147652600Y-83570800D02*
G75*
G03*
X147652600Y-86770800I0J-1600000D01*
G01*
X147652600Y-58570800D02*
G75*
G03*
X147652600Y-61770800I0J-1600000D01*
G01*
%TO.C,U9*%
X95462200Y-112530900D02*
X95462200Y-147550900D01*
X95462200Y-147550900D02*
X131512200Y-147550900D01*
X96462200Y-111530900D02*
X95462200Y-112530900D01*
X98002200Y-114070900D02*
X98002200Y-145010900D01*
X98002200Y-145010900D02*
X128972200Y-145010900D01*
X112987200Y-111530900D02*
X113487200Y-112530900D01*
X113487200Y-112530900D02*
X113987200Y-111530900D01*
X128972200Y-114070900D02*
X98002200Y-114070900D01*
X128972200Y-145010900D02*
X128972200Y-114070900D01*
X131512200Y-111530900D02*
X96462200Y-111530900D01*
X131512200Y-147550900D02*
X131512200Y-111530900D01*
%TO.C,U11*%
X154143200Y-134251000D02*
X155143200Y-135251000D01*
X134823200Y-134251000D02*
X154143200Y-134251000D01*
X155143200Y-135251000D02*
X155143200Y-140601000D01*
X155143200Y-140601000D02*
X134823200Y-140601000D01*
X134823200Y-140601000D02*
X134823200Y-134251000D01*
%TO.C,C16*%
X140881000Y-78496600D02*
X139281000Y-78496600D01*
X139281000Y-78496600D02*
X139281000Y-81496600D01*
X140881000Y-81496600D02*
X140881000Y-78496600D01*
X139281000Y-81496600D02*
X140881000Y-81496600D01*
%TO.C,C18*%
X94214000Y-133632000D02*
X91714000Y-133632000D01*
X91714000Y-133632000D02*
X91714000Y-140632000D01*
X94214000Y-140632000D02*
X94214000Y-133632000D01*
X91714000Y-140632000D02*
X94214000Y-140632000D01*
%TO.C,D1*%
X70131610Y-148633800D02*
X72463990Y-148633800D01*
X72463275Y-148634354D02*
G75*
G03*
X70131610Y-148633799I-1165475J1500554D01*
G01*
X72797800Y-147133800D02*
G75*
G03*
X69797800Y-147133800I-1500000J0D01*
G01*
X69797800Y-147133800D02*
G75*
G03*
X72797800Y-147133800I1500000J0D01*
G01*
%TO.C,C15*%
X140931800Y-71003600D02*
X139331800Y-71003600D01*
X139331800Y-71003600D02*
X139331800Y-74003600D01*
X140931800Y-74003600D02*
X140931800Y-71003600D01*
X139331800Y-74003600D02*
X140931800Y-74003600D01*
%TO.C,R24*%
X147294600Y-164527800D02*
X147954600Y-164527800D01*
X147954600Y-163277800D02*
X147954600Y-165777800D01*
X147954600Y-165777800D02*
X154254600Y-165777800D01*
X154254600Y-163277800D02*
X147954600Y-163277800D01*
X154254600Y-165777800D02*
X154254600Y-163277800D01*
X154914600Y-164527800D02*
X154254600Y-164527800D01*
%TO.C,RN2*%
X156077600Y-113758600D02*
X156077600Y-111258600D01*
X156077600Y-111258600D02*
X138257600Y-111258600D01*
X153517600Y-113758600D02*
X153517600Y-111258600D01*
X138257600Y-113758600D02*
X156077600Y-113758600D01*
X138257600Y-111258600D02*
X138257600Y-113758600D01*
%TO.C,C14*%
X133522400Y-58299800D02*
X136022400Y-58299800D01*
X136022400Y-58299800D02*
X136022400Y-51299800D01*
X133522400Y-51299800D02*
X133522400Y-58299800D01*
X136022400Y-51299800D02*
X133522400Y-51299800D01*
%TO.C,SW1*%
X75247000Y-158636400D02*
X68697000Y-158636400D01*
X72697000Y-157986400D02*
X75247000Y-157986400D01*
X75247000Y-157986400D02*
X75247000Y-158636400D01*
X65397000Y-156536400D02*
X65397000Y-153236400D01*
X68697000Y-156536400D02*
X65397000Y-156536400D01*
X68697000Y-153236400D02*
X65397000Y-153236400D01*
X72697000Y-151786400D02*
X72697000Y-157986400D01*
X72697000Y-151786400D02*
X75247000Y-151786400D01*
X68697000Y-151136400D02*
X68697000Y-158636400D01*
X68697000Y-151136400D02*
X75247000Y-151136400D01*
X75247000Y-151136400D02*
X75247000Y-151786400D01*
%TO.C,R27*%
X145043450Y-175032600D02*
X145043450Y-174372600D01*
X143793450Y-174372600D02*
X146293450Y-174372600D01*
X146293450Y-174372600D02*
X146293450Y-168072600D01*
X143793450Y-168072600D02*
X143793450Y-174372600D01*
X146293450Y-168072600D02*
X143793450Y-168072600D01*
X145043450Y-167412600D02*
X145043450Y-168072600D01*
%TO.C,C25*%
X127589800Y-169435400D02*
X127589800Y-166935400D01*
X127589800Y-166935400D02*
X120589800Y-166935400D01*
X120589800Y-169435400D02*
X127589800Y-169435400D01*
X120589800Y-166935400D02*
X120589800Y-169435400D01*
%TO.C,J2*%
X130175000Y-183887000D02*
X130175000Y-178087000D01*
X130175000Y-181467000D02*
X129467893Y-180967000D01*
X130175000Y-178087000D02*
X125095000Y-178087000D01*
X129467893Y-180967000D02*
X130175000Y-180467000D01*
X125095000Y-183887000D02*
X130175000Y-183887000D01*
X125095000Y-178087000D02*
X125095000Y-183887000D01*
%TO.C,L2*%
X129870200Y-154012200D02*
X128290200Y-154012200D01*
X128290200Y-155662200D02*
X128290200Y-152362200D01*
X128290200Y-152362200D02*
X121290200Y-152362200D01*
X121290200Y-155662200D02*
X128290200Y-155662200D01*
X121290200Y-152362200D02*
X121290200Y-155662200D01*
X119710200Y-154012200D02*
X121290200Y-154012200D01*
%TO.C,R5*%
X133654800Y-151827800D02*
X133654800Y-151167800D01*
X132404800Y-151167800D02*
X134904800Y-151167800D01*
X134904800Y-151167800D02*
X134904800Y-144867800D01*
X132404800Y-144867800D02*
X132404800Y-151167800D01*
X134904800Y-144867800D02*
X132404800Y-144867800D01*
X133654800Y-144207800D02*
X133654800Y-144867800D01*
%TO.C,U5*%
X80791400Y-165827200D02*
X79791400Y-164827200D01*
X115351400Y-165827200D02*
X80791400Y-165827200D01*
X79791400Y-164827200D02*
X79791400Y-151097200D01*
X79791400Y-151097200D02*
X115351400Y-151097200D01*
X115351400Y-151097200D02*
X115351400Y-165827200D01*
%TO.C,C19*%
X94649800Y-117517800D02*
X94649800Y-115017800D01*
X94649800Y-115017800D02*
X87649800Y-115017800D01*
X87649800Y-117517800D02*
X94649800Y-117517800D01*
X87649800Y-115017800D02*
X87649800Y-117517800D01*
%TO.C,R18*%
X155270200Y-89801000D02*
X155270200Y-91731000D01*
X156520200Y-91731000D02*
X154020200Y-91731000D01*
X154020200Y-91731000D02*
X154020200Y-98031000D01*
X156520200Y-98031000D02*
X156520200Y-91731000D01*
X154020200Y-98031000D02*
X156520200Y-98031000D01*
X155270200Y-99961000D02*
X155270200Y-98031000D01*
%TO.C,R1*%
X76250800Y-136892600D02*
X78180800Y-136892600D01*
X78180800Y-135642600D02*
X78180800Y-138142600D01*
X78180800Y-138142600D02*
X84480800Y-138142600D01*
X84480800Y-135642600D02*
X78180800Y-135642600D01*
X84480800Y-138142600D02*
X84480800Y-135642600D01*
X86410800Y-136892600D02*
X84480800Y-136892600D01*
%TO.C,R26*%
X142316200Y-150100600D02*
X142316200Y-150760600D01*
X143566200Y-150760600D02*
X141066200Y-150760600D01*
X141066200Y-150760600D02*
X141066200Y-157060600D01*
X143566200Y-157060600D02*
X143566200Y-150760600D01*
X141066200Y-157060600D02*
X143566200Y-157060600D01*
X142316200Y-157720600D02*
X142316200Y-157060600D01*
%TO.C,C6*%
X134291550Y-172607400D02*
X136791550Y-172607400D01*
X136791550Y-172607400D02*
X136791550Y-167907400D01*
X134291550Y-167907400D02*
X134291550Y-172607400D01*
X136791550Y-167907400D02*
X134291550Y-167907400D01*
%TO.C,R2*%
X76250800Y-133717600D02*
X78180800Y-133717600D01*
X78180800Y-132467600D02*
X78180800Y-134967600D01*
X78180800Y-134967600D02*
X84480800Y-134967600D01*
X84480800Y-132467600D02*
X78180800Y-132467600D01*
X84480800Y-134967600D02*
X84480800Y-132467600D01*
X86410800Y-133717600D02*
X84480800Y-133717600D01*
%TO.C,SW3*%
X73211800Y-133913400D02*
X68811800Y-133913400D01*
X73211800Y-133913400D02*
X73211800Y-142513400D01*
X68811800Y-133913400D02*
X68811800Y-142513400D01*
X64811800Y-136213400D02*
X68811800Y-136213400D01*
X68811800Y-138213400D02*
X64811800Y-138213400D01*
X64811800Y-138213400D02*
X64811800Y-136213400D01*
X68811800Y-142513400D02*
X73211800Y-142513400D01*
%TO.C,C12*%
X105658600Y-58249000D02*
X108158600Y-58249000D01*
X108158600Y-58249000D02*
X108158600Y-51249000D01*
X105658600Y-51249000D02*
X105658600Y-58249000D01*
X108158600Y-51249000D02*
X105658600Y-51249000D01*
%TO.C,R15*%
X82778600Y-129399600D02*
X82778600Y-127469600D01*
X81528600Y-127469600D02*
X84028600Y-127469600D01*
X84028600Y-127469600D02*
X84028600Y-121169600D01*
X81528600Y-121169600D02*
X81528600Y-127469600D01*
X84028600Y-121169600D02*
X81528600Y-121169600D01*
X82778600Y-119239600D02*
X82778600Y-121169600D01*
%TO.C,C11*%
X79151800Y-149978800D02*
X76651800Y-149978800D01*
X76651800Y-149978800D02*
X76651800Y-156978800D01*
X79151800Y-156978800D02*
X79151800Y-149978800D01*
X76651800Y-156978800D02*
X79151800Y-156978800D01*
%TO.C,C30*%
X129813482Y-84446300D02*
X130313482Y-84446300D01*
X130063482Y-84196300D02*
X130063482Y-84696300D01*
X134447087Y-85533800D02*
G75*
G03*
X129447087Y-85533800I-2500000J0D01*
G01*
X129447087Y-85533800D02*
G75*
G03*
X134447087Y-85533800I2500000J0D01*
G01*
%TO.C,J10*%
X88696800Y-144892600D02*
X88696800Y-139092600D01*
X88696800Y-142472600D02*
X87989693Y-141972600D01*
X88696800Y-139092600D02*
X83616800Y-139092600D01*
X87989693Y-141972600D02*
X88696800Y-141472600D01*
X83616800Y-144892600D02*
X88696800Y-144892600D01*
X83616800Y-139092600D02*
X83616800Y-144892600D01*
%TO.C,R25*%
X138708850Y-166447400D02*
X138708850Y-167107400D01*
X139958850Y-167107400D02*
X137458850Y-167107400D01*
X137458850Y-167107400D02*
X137458850Y-173407400D01*
X139958850Y-173407400D02*
X139958850Y-167107400D01*
X137458850Y-173407400D02*
X139958850Y-173407400D01*
X138708850Y-174067400D02*
X138708850Y-173407400D01*
%TO.C,C21*%
X156494800Y-101490200D02*
X153994800Y-101490200D01*
X153994800Y-101490200D02*
X153994800Y-108490200D01*
X156494800Y-108490200D02*
X156494800Y-101490200D01*
X153994800Y-108490200D02*
X156494800Y-108490200D01*
D15*
%TO.C,J4*%
X82638400Y-96491800D02*
X82638400Y-105841800D01*
X82638400Y-105841800D02*
X141948400Y-105841800D01*
X141948400Y-96491800D02*
X82638400Y-96491800D01*
X141948400Y-105841800D02*
X141948400Y-96491800D01*
D14*
%TO.C,C23*%
X147314800Y-132249800D02*
X147314800Y-129749800D01*
X147314800Y-129749800D02*
X140314800Y-129749800D01*
X140314800Y-132249800D02*
X147314800Y-132249800D01*
X140314800Y-129749800D02*
X140314800Y-132249800D01*
%TO.C,C29*%
X128290200Y-88104600D02*
X128290200Y-85604600D01*
X128290200Y-85604600D02*
X121290200Y-85604600D01*
X121290200Y-88104600D02*
X128290200Y-88104600D01*
X121290200Y-85604600D02*
X121290200Y-88104600D01*
D15*
%TO.C,SW2*%
X70865500Y-180369600D02*
X83565500Y-180369600D01*
X70865500Y-186719600D02*
X70865500Y-180369600D01*
X76715500Y-186719600D02*
X76715500Y-191439600D01*
X76715500Y-191439600D02*
X80575500Y-191439600D01*
X80575500Y-191439600D02*
X80575500Y-186719600D01*
X83565500Y-180369600D02*
X83565500Y-186719600D01*
X83565500Y-186719600D02*
X70865500Y-186719600D01*
D14*
%TO.C,U8*%
X83092800Y-58101800D02*
X82092800Y-57101800D01*
X104952800Y-58101800D02*
X83092800Y-58101800D01*
X82092800Y-57101800D02*
X82092800Y-51751800D01*
X82092800Y-51751800D02*
X104952800Y-51751800D01*
X104952800Y-51751800D02*
X104952800Y-58101800D01*
%TO.C,C5*%
X125217300Y-160661083D02*
X125217300Y-161161083D01*
X125467300Y-160911083D02*
X124967300Y-160911083D01*
X126629800Y-162794688D02*
G75*
G03*
X121629800Y-162794688I-2500000J0D01*
G01*
X121629800Y-162794688D02*
G75*
G03*
X126629800Y-162794688I2500000J0D01*
G01*
%TO.C,C1*%
X87954800Y-131284800D02*
X90454800Y-131284800D01*
X90454800Y-131284800D02*
X90454800Y-124284800D01*
X87954800Y-124284800D02*
X87954800Y-131284800D01*
X90454800Y-124284800D02*
X87954800Y-124284800D01*
%TO.C,Q1*%
X141871800Y-57740800D02*
X138371800Y-57740800D01*
X140131800Y-61970800D02*
G75*
G03*
X141885425Y-57737175I0J2480000D01*
G01*
X138378175Y-57737175D02*
G75*
G03*
X140131800Y-61970800I1753625J-1753625D01*
G01*
%TO.C,C26*%
X138826995Y-161662300D02*
X139326995Y-161662300D01*
X139076995Y-161412300D02*
X139076995Y-161912300D01*
X143460600Y-162749800D02*
G75*
G03*
X138460600Y-162749800I-2500000J0D01*
G01*
X138460600Y-162749800D02*
G75*
G03*
X143460600Y-162749800I2500000J0D01*
G01*
%TO.C,R11*%
X134874000Y-64858200D02*
X135534000Y-64858200D01*
X135534000Y-63608200D02*
X135534000Y-66108200D01*
X135534000Y-66108200D02*
X141834000Y-66108200D01*
X141834000Y-63608200D02*
X135534000Y-63608200D01*
X141834000Y-66108200D02*
X141834000Y-63608200D01*
X142494000Y-64858200D02*
X141834000Y-64858200D01*
%TO.C,R4*%
X141876150Y-175032600D02*
X141876150Y-174372600D01*
X140626150Y-174372600D02*
X143126150Y-174372600D01*
X143126150Y-174372600D02*
X143126150Y-168072600D01*
X140626150Y-168072600D02*
X140626150Y-174372600D01*
X143126150Y-168072600D02*
X140626150Y-168072600D01*
X141876150Y-167412600D02*
X141876150Y-168072600D01*
%TO.C,J1*%
X83154600Y-88251600D02*
X82519600Y-87616600D01*
X100299600Y-88251600D02*
X83154600Y-88251600D01*
X82519600Y-87616600D02*
X82519600Y-85711600D01*
X82519600Y-85711600D02*
X100299600Y-85711600D01*
X100299600Y-85711600D02*
X100299600Y-88251600D01*
%TO.C,U2*%
X154194000Y-121230800D02*
X155194000Y-122230800D01*
X134874000Y-121230800D02*
X154194000Y-121230800D01*
X155194000Y-122230800D02*
X155194000Y-127580800D01*
X155194000Y-127580800D02*
X134874000Y-127580800D01*
X134874000Y-127580800D02*
X134874000Y-121230800D01*
%TO.C,C13*%
X116337400Y-81108600D02*
X113837400Y-81108600D01*
X113837400Y-81108600D02*
X113837400Y-88108600D01*
X116337400Y-88108600D02*
X116337400Y-81108600D01*
X113837400Y-88108600D02*
X116337400Y-88108600D01*
%TO.C,C2*%
X154071300Y-167294390D02*
X154071300Y-168094390D01*
X154471300Y-167694390D02*
X153671300Y-167694390D01*
X156323800Y-170721149D02*
G75*
G03*
X148323800Y-170721149I-4000000J0D01*
G01*
X148323800Y-170721149D02*
G75*
G03*
X156323800Y-170721149I4000000J0D01*
G01*
%TD*%
M02*
