%TF.GenerationSoftware,KiCad,Pcbnew,7.0.9-7.0.9~ubuntu22.04.1*%
%TF.CreationDate,2024-01-06T12:21:39-05:00*%
%TF.ProjectId,coleco_original,636f6c65-636f-45f6-9f72-6967696e616c,DEV*%
%TF.SameCoordinates,Original*%
%TF.FileFunction,Paste,Bot*%
%TF.FilePolarity,Positive*%
%FSLAX46Y46*%
G04 Gerber Fmt 4.6, Leading zero omitted, Abs format (unit mm)*
G04 Created by KiCad (PCBNEW 7.0.9-7.0.9~ubuntu22.04.1) date 2024-01-06 12:21:39*
%MOMM*%
%LPD*%
G01*
G04 APERTURE LIST*
G04 Aperture macros list*
%AMRoundRect*
0 Rectangle with rounded corners*
0 $1 Rounding radius*
0 $2 $3 $4 $5 $6 $7 $8 $9 X,Y pos of 4 corners*
0 Add a 4 corners polygon primitive as box body*
4,1,4,$2,$3,$4,$5,$6,$7,$8,$9,$2,$3,0*
0 Add four circle primitives for the rounded corners*
1,1,$1+$1,$2,$3*
1,1,$1+$1,$4,$5*
1,1,$1+$1,$6,$7*
1,1,$1+$1,$8,$9*
0 Add four rect primitives between the rounded corners*
20,1,$1+$1,$2,$3,$4,$5,0*
20,1,$1+$1,$4,$5,$6,$7,0*
20,1,$1+$1,$6,$7,$8,$9,0*
20,1,$1+$1,$8,$9,$2,$3,0*%
G04 Aperture macros list end*
%ADD10RoundRect,0.250000X-0.450000X0.262500X-0.450000X-0.262500X0.450000X-0.262500X0.450000X0.262500X0*%
%ADD11RoundRect,0.137500X0.600000X0.137500X-0.600000X0.137500X-0.600000X-0.137500X0.600000X-0.137500X0*%
%ADD12RoundRect,0.137500X0.137500X0.600000X-0.137500X0.600000X-0.137500X-0.600000X0.137500X-0.600000X0*%
%ADD13RoundRect,0.250000X-0.650000X0.325000X-0.650000X-0.325000X0.650000X-0.325000X0.650000X0.325000X0*%
%ADD14RoundRect,0.250000X0.450000X-0.262500X0.450000X0.262500X-0.450000X0.262500X-0.450000X-0.262500X0*%
%TA.AperFunction,Profile*%
%ADD15C,0.100000*%
%TD*%
G04 APERTURE END LIST*
D10*
%TO.C,R13*%
X121945400Y-147537100D03*
X121945400Y-149362100D03*
%TD*%
D11*
%TO.C,U3*%
X133905400Y-126580400D03*
X133905400Y-127380400D03*
X133905400Y-128180400D03*
X133905400Y-128980400D03*
X133905400Y-129780400D03*
X133905400Y-130580400D03*
X133905400Y-131380400D03*
X133905400Y-132180400D03*
X133905400Y-132980400D03*
X133905400Y-133780400D03*
X133905400Y-134580400D03*
D12*
X132242900Y-136242900D03*
X131442900Y-136242900D03*
X130642900Y-136242900D03*
X129842900Y-136242900D03*
X129042900Y-136242900D03*
X128242900Y-136242900D03*
X127442900Y-136242900D03*
X126642900Y-136242900D03*
X125842900Y-136242900D03*
X125042900Y-136242900D03*
X124242900Y-136242900D03*
D11*
X122580400Y-134580400D03*
X122580400Y-133780400D03*
X122580400Y-132980400D03*
X122580400Y-132180400D03*
X122580400Y-131380400D03*
X122580400Y-130580400D03*
X122580400Y-129780400D03*
X122580400Y-128980400D03*
X122580400Y-128180400D03*
X122580400Y-127380400D03*
X122580400Y-126580400D03*
D12*
X124242900Y-124917900D03*
X125042900Y-124917900D03*
X125842900Y-124917900D03*
X126642900Y-124917900D03*
X127442900Y-124917900D03*
X128242900Y-124917900D03*
X129042900Y-124917900D03*
X129842900Y-124917900D03*
X130642900Y-124917900D03*
X131442900Y-124917900D03*
X132242900Y-124917900D03*
%TD*%
D10*
%TO.C,R9*%
X132816600Y-138113700D03*
X132816600Y-139938700D03*
%TD*%
%TO.C,R7*%
X130683000Y-138139100D03*
X130683000Y-139964100D03*
%TD*%
D13*
%TO.C,C9*%
X135458200Y-120838000D03*
X135458200Y-123788000D03*
%TD*%
D14*
%TO.C,R8*%
X122453400Y-138490900D03*
X122453400Y-136665900D03*
%TD*%
D15*
X81915000Y-55434800D02*
X170611800Y-55434800D01*
X170611800Y-173494000D01*
X81915000Y-173494000D01*
X81915000Y-55434800D01*
M02*
