%TF.GenerationSoftware,KiCad,Pcbnew,7.0.11-7.0.11~ubuntu22.04.1*%
%TF.CreationDate,2024-11-07T21:46:57-05:00*%
%TF.ProjectId,coleco_original,636f6c65-636f-45f6-9f72-6967696e616c,DEV*%
%TF.SameCoordinates,Original*%
%TF.FileFunction,Soldermask,Bot*%
%TF.FilePolarity,Negative*%
%FSLAX46Y46*%
G04 Gerber Fmt 4.6, Leading zero omitted, Abs format (unit mm)*
G04 Created by KiCad (PCBNEW 7.0.11-7.0.11~ubuntu22.04.1) date 2024-11-07 21:46:57*
%MOMM*%
%LPD*%
G01*
G04 APERTURE LIST*
G04 Aperture macros list*
%AMRoundRect*
0 Rectangle with rounded corners*
0 $1 Rounding radius*
0 $2 $3 $4 $5 $6 $7 $8 $9 X,Y pos of 4 corners*
0 Add a 4 corners polygon primitive as box body*
4,1,4,$2,$3,$4,$5,$6,$7,$8,$9,$2,$3,0*
0 Add four circle primitives for the rounded corners*
1,1,$1+$1,$2,$3*
1,1,$1+$1,$4,$5*
1,1,$1+$1,$6,$7*
1,1,$1+$1,$8,$9*
0 Add four rect primitives between the rounded corners*
20,1,$1+$1,$2,$3,$4,$5,0*
20,1,$1+$1,$4,$5,$6,$7,0*
20,1,$1+$1,$6,$7,$8,$9,0*
20,1,$1+$1,$8,$9,$2,$3,0*%
G04 Aperture macros list end*
%ADD10C,1.500000*%
%ADD11C,1.600000*%
%ADD12O,1.600000X1.600000*%
%ADD13C,5.600000*%
%ADD14R,1.600000X1.600000*%
%ADD15RoundRect,0.250000X-0.620000X-0.845000X0.620000X-0.845000X0.620000X0.845000X-0.620000X0.845000X0*%
%ADD16O,1.740000X2.190000*%
%ADD17C,4.000000*%
%ADD18RoundRect,0.250000X0.620000X0.845000X-0.620000X0.845000X-0.620000X-0.845000X0.620000X-0.845000X0*%
%ADD19C,2.100000*%
%ADD20O,2.006600X1.320800*%
%ADD21O,1.320800X2.006600*%
%ADD22C,1.701800*%
%ADD23R,1.700000X1.700000*%
%ADD24O,1.700000X1.700000*%
%ADD25R,1.422400X1.422400*%
%ADD26C,1.422400*%
%ADD27R,1.800000X1.800000*%
%ADD28C,1.800000*%
%ADD29C,2.200000*%
%ADD30C,1.700000*%
%ADD31O,3.000000X1.800000*%
%ADD32R,2.500000X1.500000*%
%ADD33O,2.500000X1.500000*%
%ADD34O,1.500000X2.000000*%
%ADD35C,4.875000*%
%ADD36C,2.775000*%
%ADD37R,1.500000X1.500000*%
%ADD38RoundRect,0.162500X-0.162500X0.617500X-0.162500X-0.617500X0.162500X-0.617500X0.162500X0.617500X0*%
%ADD39RoundRect,0.250000X-0.450000X0.262500X-0.450000X-0.262500X0.450000X-0.262500X0.450000X0.262500X0*%
%ADD40RoundRect,0.250000X-0.325000X-0.650000X0.325000X-0.650000X0.325000X0.650000X-0.325000X0.650000X0*%
%ADD41RoundRect,0.250000X0.325000X0.650000X-0.325000X0.650000X-0.325000X-0.650000X0.325000X-0.650000X0*%
%ADD42R,0.650000X1.525000*%
%ADD43RoundRect,0.250000X0.650000X-0.325000X0.650000X0.325000X-0.650000X0.325000X-0.650000X-0.325000X0*%
%ADD44RoundRect,0.162500X0.162500X-0.617500X0.162500X0.617500X-0.162500X0.617500X-0.162500X-0.617500X0*%
%ADD45RoundRect,0.250000X-0.650000X0.325000X-0.650000X-0.325000X0.650000X-0.325000X0.650000X0.325000X0*%
%ADD46RoundRect,0.150000X0.825000X0.150000X-0.825000X0.150000X-0.825000X-0.150000X0.825000X-0.150000X0*%
%ADD47RoundRect,0.250000X-0.262500X-0.450000X0.262500X-0.450000X0.262500X0.450000X-0.262500X0.450000X0*%
%ADD48RoundRect,0.137500X0.600000X0.137500X-0.600000X0.137500X-0.600000X-0.137500X0.600000X-0.137500X0*%
%ADD49RoundRect,0.137500X0.137500X0.600000X-0.137500X0.600000X-0.137500X-0.600000X0.137500X-0.600000X0*%
%ADD50RoundRect,0.250000X0.450000X-0.262500X0.450000X0.262500X-0.450000X0.262500X-0.450000X-0.262500X0*%
G04 APERTURE END LIST*
D10*
%TO.C,Y1*%
X136144000Y-73799000D03*
X136144000Y-78679000D03*
%TD*%
D11*
%TO.C,R6*%
X137337800Y-151827800D03*
D12*
X137337800Y-144207800D03*
%TD*%
D11*
%TO.C,C4*%
X132054600Y-154621800D03*
X137054600Y-154621800D03*
%TD*%
D13*
%TO.C,H6*%
X153441400Y-49364200D03*
%TD*%
D14*
%TO.C,U6*%
X131622800Y-64451800D03*
D12*
X129082800Y-64451800D03*
X126542800Y-64451800D03*
X124002800Y-64451800D03*
X121462800Y-64451800D03*
X118922800Y-64451800D03*
X116382800Y-64451800D03*
X113842800Y-64451800D03*
X111302800Y-64451800D03*
X108762800Y-64451800D03*
X106222800Y-64451800D03*
X103682800Y-64451800D03*
X101142800Y-64451800D03*
X98602800Y-64451800D03*
X96062800Y-64451800D03*
X93522800Y-64451800D03*
X90982800Y-64451800D03*
X88442800Y-64451800D03*
X85902800Y-64451800D03*
X83362800Y-64451800D03*
X83362800Y-79691800D03*
X85902800Y-79691800D03*
X88442800Y-79691800D03*
X90982800Y-79691800D03*
X93522800Y-79691800D03*
X96062800Y-79691800D03*
X98602800Y-79691800D03*
X101142800Y-79691800D03*
X103682800Y-79691800D03*
X106222800Y-79691800D03*
X108762800Y-79691800D03*
X111302800Y-79691800D03*
X113842800Y-79691800D03*
X116382800Y-79691800D03*
X118922800Y-79691800D03*
X121462800Y-79691800D03*
X124002800Y-79691800D03*
X126542800Y-79691800D03*
X129082800Y-79691800D03*
X131622800Y-79691800D03*
%TD*%
D15*
%TO.C,J3*%
X138379200Y-53656800D03*
D16*
X140919200Y-53656800D03*
%TD*%
D17*
%TO.C,J5*%
X77901800Y-60311600D03*
X77901800Y-85311600D03*
D14*
X79321800Y-67271600D03*
D11*
X79321800Y-70041600D03*
X79321800Y-72811600D03*
X79321800Y-75581600D03*
X79321800Y-78351600D03*
X76481800Y-68656600D03*
X76481800Y-71426600D03*
X76481800Y-74196600D03*
X76481800Y-76966600D03*
%TD*%
%TO.C,R19*%
X70078600Y-89928000D03*
D12*
X70078600Y-100088000D03*
%TD*%
D14*
%TO.C,C3*%
X118440200Y-161544688D03*
D11*
X118440200Y-164044688D03*
%TD*%
D14*
%TO.C,C28*%
X129717800Y-163704913D03*
D11*
X129717800Y-161704913D03*
%TD*%
%TO.C,R14*%
X85852000Y-129399600D03*
D12*
X85852000Y-119239600D03*
%TD*%
D11*
%TO.C,R22*%
X85140800Y-147255800D03*
D12*
X74980800Y-147255800D03*
%TD*%
D14*
%TO.C,RN1*%
X71170800Y-112508600D03*
D12*
X73710800Y-112508600D03*
X76250800Y-112508600D03*
X78790800Y-112508600D03*
X81330800Y-112508600D03*
X83870800Y-112508600D03*
X86410800Y-112508600D03*
%TD*%
D11*
%TO.C,L3*%
X117830600Y-83349400D03*
D12*
X127990600Y-83349400D03*
%TD*%
D14*
%TO.C,C24*%
X132322688Y-179971000D03*
D11*
X134822688Y-179971000D03*
%TD*%
D13*
%TO.C,H2*%
X73710800Y-166051800D03*
%TD*%
D11*
%TO.C,R23*%
X139674600Y-157974600D03*
D12*
X132054600Y-157974600D03*
%TD*%
D14*
%TO.C,U4*%
X89799000Y-186046600D03*
D12*
X92339000Y-186046600D03*
X94879000Y-186046600D03*
X97419000Y-186046600D03*
X99959000Y-186046600D03*
X102499000Y-186046600D03*
X105039000Y-186046600D03*
X107579000Y-186046600D03*
X110119000Y-186046600D03*
X112659000Y-186046600D03*
X115199000Y-186046600D03*
X117739000Y-186046600D03*
X120279000Y-186046600D03*
X122819000Y-186046600D03*
X122819000Y-170806600D03*
X120279000Y-170806600D03*
X117739000Y-170806600D03*
X115199000Y-170806600D03*
X112659000Y-170806600D03*
X110119000Y-170806600D03*
X107579000Y-170806600D03*
X105039000Y-170806600D03*
X102499000Y-170806600D03*
X99959000Y-170806600D03*
X97419000Y-170806600D03*
X94879000Y-170806600D03*
X92339000Y-170806600D03*
X89799000Y-170806600D03*
%TD*%
D11*
%TO.C,L1*%
X129870200Y-157873000D03*
D12*
X119710200Y-157873000D03*
%TD*%
D14*
%TO.C,U7*%
X111074200Y-58736800D03*
D12*
X113614200Y-58736800D03*
X116154200Y-58736800D03*
X118694200Y-58736800D03*
X121234200Y-58736800D03*
X123774200Y-58736800D03*
X126314200Y-58736800D03*
X128854200Y-58736800D03*
X131394200Y-58736800D03*
X131394200Y-51116800D03*
X128854200Y-51116800D03*
X126314200Y-51116800D03*
X123774200Y-51116800D03*
X121234200Y-51116800D03*
X118694200Y-51116800D03*
X116154200Y-51116800D03*
X113614200Y-51116800D03*
X111074200Y-51116800D03*
%TD*%
D18*
%TO.C,J11*%
X81203800Y-141992600D03*
D16*
X78663800Y-141992600D03*
%TD*%
D11*
%TO.C,C10*%
X86995000Y-171233400D03*
X81995000Y-171233400D03*
%TD*%
%TO.C,C20*%
X70129400Y-102581000D03*
X70129400Y-107581000D03*
%TD*%
D10*
%TO.C,RV1*%
X145698800Y-150514800D03*
X145698800Y-154514800D03*
X145698800Y-158514800D03*
D19*
X155698800Y-149514800D03*
X155698800Y-159514800D03*
%TD*%
D20*
%TO.C,J9*%
X143640800Y-184049599D03*
D21*
X148640800Y-179049602D03*
X138640800Y-179049602D03*
X146140800Y-179049602D03*
X141140800Y-179049602D03*
D22*
X148640800Y-186549600D03*
X138640800Y-186549600D03*
X148640800Y-184049599D03*
X138640800Y-184049599D03*
X143640800Y-179049602D03*
%TD*%
D11*
%TO.C,R28*%
X144576800Y-116445600D03*
D12*
X154736800Y-116445600D03*
%TD*%
D11*
%TO.C,R10*%
X151561800Y-54418800D03*
D12*
X143941800Y-54418800D03*
%TD*%
D11*
%TO.C,R16*%
X79756000Y-129374200D03*
D12*
X79756000Y-119214200D03*
%TD*%
D23*
%TO.C,J6*%
X73334800Y-129572400D03*
D24*
X70794800Y-129572400D03*
X73334800Y-127032400D03*
X70794800Y-127032400D03*
X73334800Y-124492400D03*
X70794800Y-124492400D03*
X73334800Y-121952400D03*
X70794800Y-121952400D03*
X73334800Y-119412400D03*
X70794800Y-119412400D03*
%TD*%
D11*
%TO.C,R12*%
X142494000Y-68414200D03*
D12*
X134874000Y-68414200D03*
%TD*%
D11*
%TO.C,C8*%
X153934800Y-130999800D03*
X148934800Y-130999800D03*
%TD*%
%TO.C,R3*%
X80695800Y-115937600D03*
D12*
X70535800Y-115937600D03*
%TD*%
D11*
%TO.C,C7*%
X130723000Y-175653000D03*
X135723000Y-175653000D03*
%TD*%
D14*
%TO.C,C27*%
X135356600Y-163704913D03*
D11*
X135356600Y-161704913D03*
%TD*%
%TO.C,R17*%
X76708000Y-129374200D03*
D12*
X76708000Y-119214200D03*
%TD*%
D17*
%TO.C,J7*%
X147652600Y-85170800D03*
X147652600Y-60170800D03*
D14*
X146232600Y-78210800D03*
D11*
X146232600Y-75440800D03*
X146232600Y-72670800D03*
X146232600Y-69900800D03*
X146232600Y-67130800D03*
X149072600Y-76825800D03*
X149072600Y-74055800D03*
X149072600Y-71285800D03*
X149072600Y-68515800D03*
%TD*%
D25*
%TO.C,U9*%
X113487200Y-114300900D03*
D26*
X113487200Y-116840900D03*
X110947200Y-114300900D03*
X110947200Y-116840900D03*
X108407200Y-114300900D03*
X108407200Y-116840900D03*
X105867200Y-114300900D03*
X105867200Y-116840900D03*
X103327200Y-114300900D03*
X103327200Y-116840900D03*
X100787200Y-114300900D03*
X98247200Y-116840900D03*
X100787200Y-116840900D03*
X98247200Y-119380900D03*
X100787200Y-119380900D03*
X98247200Y-121920900D03*
X100787200Y-121920900D03*
X98247200Y-124460900D03*
X100787200Y-124460900D03*
X98247200Y-127000900D03*
X100787200Y-127000900D03*
X98247200Y-129540900D03*
X100787200Y-129540900D03*
X98247200Y-132080900D03*
X100787200Y-132080900D03*
X98247200Y-134620900D03*
X100787200Y-134620900D03*
X98247200Y-137160900D03*
X100787200Y-137160900D03*
X98247200Y-139700900D03*
X100787200Y-139700900D03*
X98247200Y-142240900D03*
X100787200Y-144780900D03*
X100787200Y-142240900D03*
X103327200Y-144780900D03*
X103327200Y-142240900D03*
X105867200Y-144780900D03*
X105867200Y-142240900D03*
X108407200Y-144780900D03*
X108407200Y-142240900D03*
X110947200Y-144780900D03*
X110947200Y-142240900D03*
X113487200Y-144780900D03*
X113487200Y-142240900D03*
X116027200Y-144780900D03*
X116027200Y-142240900D03*
X118567200Y-144780900D03*
X118567200Y-142240900D03*
X121107200Y-144780900D03*
X121107200Y-142240900D03*
X123647200Y-144780900D03*
X123647200Y-142240900D03*
X126187200Y-144780900D03*
X128727200Y-142240900D03*
X126187200Y-142240900D03*
X128727200Y-139700900D03*
X126187200Y-139700900D03*
X128727200Y-137160900D03*
X126187200Y-137160900D03*
X128727200Y-134620900D03*
X126187200Y-134620900D03*
X128727200Y-132080900D03*
X126187200Y-132080900D03*
X128727200Y-129540900D03*
X126187200Y-129540900D03*
X128727200Y-127000900D03*
X126187200Y-127000900D03*
X128727200Y-124460900D03*
X126187200Y-124460900D03*
X128727200Y-121920900D03*
X126187200Y-121920900D03*
X128727200Y-119380900D03*
X126187200Y-119380900D03*
X128727200Y-116840900D03*
X126187200Y-114300900D03*
X126187200Y-116840900D03*
X123647200Y-114300900D03*
X123647200Y-116840900D03*
X121107200Y-114300900D03*
X121107200Y-116840900D03*
X118567200Y-114300900D03*
X118567200Y-116840900D03*
X116027200Y-114300900D03*
X116027200Y-116840900D03*
%TD*%
D14*
%TO.C,U11*%
X153873200Y-133616000D03*
D12*
X151333200Y-133616000D03*
X148793200Y-133616000D03*
X146253200Y-133616000D03*
X143713200Y-133616000D03*
X141173200Y-133616000D03*
X138633200Y-133616000D03*
X136093200Y-133616000D03*
X136093200Y-141236000D03*
X138633200Y-141236000D03*
X141173200Y-141236000D03*
X143713200Y-141236000D03*
X146253200Y-141236000D03*
X148793200Y-141236000D03*
X151333200Y-141236000D03*
X153873200Y-141236000D03*
%TD*%
D11*
%TO.C,C16*%
X140081000Y-78746600D03*
X140081000Y-81246600D03*
%TD*%
%TO.C,C18*%
X92964000Y-134632000D03*
X92964000Y-139632000D03*
%TD*%
D27*
%TO.C,D1*%
X71297800Y-148403800D03*
D28*
X71297800Y-145863800D03*
%TD*%
D11*
%TO.C,C15*%
X140131800Y-71253600D03*
X140131800Y-73753600D03*
%TD*%
%TO.C,R24*%
X147294600Y-164527800D03*
D12*
X154914600Y-164527800D03*
%TD*%
D14*
%TO.C,RN2*%
X154787600Y-112508600D03*
D12*
X152247600Y-112508600D03*
X149707600Y-112508600D03*
X147167600Y-112508600D03*
X144627600Y-112508600D03*
X142087600Y-112508600D03*
X139547600Y-112508600D03*
%TD*%
D11*
%TO.C,C14*%
X134772400Y-57299800D03*
X134772400Y-52299800D03*
%TD*%
D29*
%TO.C,SW1*%
X73747000Y-158386400D03*
X73747000Y-151386400D03*
D30*
X71247000Y-157136400D03*
X71247000Y-152636400D03*
%TD*%
D11*
%TO.C,R27*%
X145043450Y-175032600D03*
D12*
X145043450Y-167412600D03*
%TD*%
D11*
%TO.C,C25*%
X126589800Y-168185400D03*
X121589800Y-168185400D03*
%TD*%
D18*
%TO.C,J2*%
X128905000Y-180967000D03*
D16*
X126365000Y-180967000D03*
%TD*%
D13*
%TO.C,H7*%
X110375700Y-84352700D03*
%TD*%
D11*
%TO.C,L2*%
X129870200Y-154012200D03*
D12*
X119710200Y-154012200D03*
%TD*%
D11*
%TO.C,R5*%
X133654800Y-151827800D03*
D12*
X133654800Y-144207800D03*
%TD*%
D14*
%TO.C,U5*%
X81061400Y-166082200D03*
D12*
X83601400Y-166082200D03*
X86141400Y-166082200D03*
X88681400Y-166082200D03*
X91221400Y-166082200D03*
X93761400Y-166082200D03*
X96301400Y-166082200D03*
X98841400Y-166082200D03*
X101381400Y-166082200D03*
X103921400Y-166082200D03*
X106461400Y-166082200D03*
X109001400Y-166082200D03*
X111541400Y-166082200D03*
X114081400Y-166082200D03*
X114081400Y-150842200D03*
X111541400Y-150842200D03*
X109001400Y-150842200D03*
X106461400Y-150842200D03*
X103921400Y-150842200D03*
X101381400Y-150842200D03*
X98841400Y-150842200D03*
X96301400Y-150842200D03*
X93761400Y-150842200D03*
X91221400Y-150842200D03*
X88681400Y-150842200D03*
X86141400Y-150842200D03*
X83601400Y-150842200D03*
X81061400Y-150842200D03*
%TD*%
D11*
%TO.C,C19*%
X93649800Y-116267800D03*
X88649800Y-116267800D03*
%TD*%
D13*
%TO.C,H4*%
X72110600Y-49415000D03*
%TD*%
D11*
%TO.C,R18*%
X155270200Y-89801000D03*
D12*
X155270200Y-99961000D03*
%TD*%
D11*
%TO.C,R1*%
X76250800Y-136892600D03*
D12*
X86410800Y-136892600D03*
%TD*%
D13*
%TO.C,H1*%
X153466800Y-184009600D03*
%TD*%
D11*
%TO.C,R26*%
X142316200Y-150100600D03*
D12*
X142316200Y-157720600D03*
%TD*%
D11*
%TO.C,C6*%
X135541550Y-172757400D03*
X135541550Y-167757400D03*
%TD*%
%TO.C,R2*%
X76250800Y-133717600D03*
D12*
X86410800Y-133717600D03*
%TD*%
D31*
%TO.C,SW3*%
X71011800Y-134113400D03*
X71011800Y-142313400D03*
D32*
X71011800Y-136213400D03*
D33*
X71011800Y-138213400D03*
X71011800Y-140213400D03*
%TD*%
D11*
%TO.C,C12*%
X106908600Y-57249000D03*
X106908600Y-52249000D03*
%TD*%
%TO.C,R15*%
X82778600Y-129399600D03*
D12*
X82778600Y-119239600D03*
%TD*%
D11*
%TO.C,C11*%
X77901800Y-150978800D03*
X77901800Y-155978800D03*
%TD*%
D14*
%TO.C,C30*%
X130697087Y-85533800D03*
D11*
X133197087Y-85533800D03*
%TD*%
D18*
%TO.C,J10*%
X87426800Y-141972600D03*
D16*
X84886800Y-141972600D03*
%TD*%
D11*
%TO.C,R25*%
X138708850Y-166447400D03*
D12*
X138708850Y-174067400D03*
%TD*%
D11*
%TO.C,C21*%
X155244800Y-102490200D03*
X155244800Y-107490200D03*
%TD*%
D34*
%TO.C,J4*%
X130073400Y-103567800D03*
X130073400Y-98741800D03*
X127533400Y-103567800D03*
X127533400Y-98741800D03*
X124993400Y-103567800D03*
X124993400Y-98741800D03*
X122453400Y-103567800D03*
X122453400Y-98741800D03*
X119913400Y-103567800D03*
X119913400Y-98741800D03*
X117373400Y-103567800D03*
X117373400Y-98741800D03*
X114833400Y-103567800D03*
X114833400Y-98741800D03*
X112293400Y-103567800D03*
X112293400Y-98741800D03*
X109753400Y-103567800D03*
X109753400Y-98741800D03*
X107213400Y-103567800D03*
X107213400Y-98741800D03*
X104673400Y-103567800D03*
X104673400Y-98741800D03*
X102133400Y-103567800D03*
X102133400Y-98741800D03*
X99593400Y-103567800D03*
X99593400Y-98741800D03*
X97053400Y-103567800D03*
X97053400Y-98741800D03*
X94513400Y-103567800D03*
X94513400Y-98741800D03*
D35*
X138643400Y-101166800D03*
X85943400Y-101166800D03*
%TD*%
D11*
%TO.C,C23*%
X146314800Y-130999800D03*
X141314800Y-130999800D03*
%TD*%
%TO.C,C29*%
X127290200Y-86854600D03*
X122290200Y-86854600D03*
%TD*%
D36*
%TO.C,SW2*%
X72515500Y-176189600D03*
X77215500Y-176189600D03*
X81915500Y-176189600D03*
X70610500Y-185719600D03*
X83820500Y-185719600D03*
%TD*%
D14*
%TO.C,U8*%
X83362800Y-58736800D03*
D12*
X85902800Y-58736800D03*
X88442800Y-58736800D03*
X90982800Y-58736800D03*
X93522800Y-58736800D03*
X96062800Y-58736800D03*
X98602800Y-58736800D03*
X101142800Y-58736800D03*
X103682800Y-58736800D03*
X103682800Y-51116800D03*
X101142800Y-51116800D03*
X98602800Y-51116800D03*
X96062800Y-51116800D03*
X93522800Y-51116800D03*
X90982800Y-51116800D03*
X88442800Y-51116800D03*
X85902800Y-51116800D03*
X83362800Y-51116800D03*
%TD*%
D14*
%TO.C,C5*%
X124129800Y-161544688D03*
D11*
X124129800Y-164044688D03*
%TD*%
%TO.C,C1*%
X89204800Y-130284800D03*
X89204800Y-125284800D03*
%TD*%
D37*
%TO.C,Q1*%
X142671800Y-59490800D03*
D10*
X140131800Y-62030800D03*
X137591800Y-59490800D03*
%TD*%
D14*
%TO.C,C26*%
X139960600Y-162749800D03*
D11*
X141960600Y-162749800D03*
%TD*%
%TO.C,R11*%
X134874000Y-64858200D03*
D12*
X142494000Y-64858200D03*
%TD*%
D11*
%TO.C,R4*%
X141876150Y-175032600D03*
D12*
X141876150Y-167412600D03*
%TD*%
D23*
%TO.C,J1*%
X83789600Y-86981600D03*
D24*
X86329600Y-86981600D03*
X88869600Y-86981600D03*
X91409600Y-86981600D03*
X93949600Y-86981600D03*
X96489600Y-86981600D03*
X99029600Y-86981600D03*
%TD*%
D14*
%TO.C,U2*%
X153924000Y-120595800D03*
D12*
X151384000Y-120595800D03*
X148844000Y-120595800D03*
X146304000Y-120595800D03*
X143764000Y-120595800D03*
X141224000Y-120595800D03*
X138684000Y-120595800D03*
X136144000Y-120595800D03*
X136144000Y-128215800D03*
X138684000Y-128215800D03*
X141224000Y-128215800D03*
X143764000Y-128215800D03*
X146304000Y-128215800D03*
X148844000Y-128215800D03*
X151384000Y-128215800D03*
X153924000Y-128215800D03*
%TD*%
D11*
%TO.C,C13*%
X115087400Y-82108600D03*
X115087400Y-87108600D03*
%TD*%
D14*
%TO.C,C2*%
X152323800Y-168221149D03*
D11*
X152323800Y-173221149D03*
%TD*%
D38*
%TO.C,U16*%
X86796800Y-180961600D03*
X87746800Y-180961600D03*
X88696800Y-180961600D03*
X88696800Y-183661600D03*
X86796800Y-183661600D03*
%TD*%
D39*
%TO.C,R20*%
X73329800Y-90918600D03*
X73329800Y-92743600D03*
%TD*%
D38*
%TO.C,U14*%
X92826800Y-180928600D03*
X93776800Y-180928600D03*
X94726800Y-180928600D03*
X94726800Y-183628600D03*
X92826800Y-183628600D03*
%TD*%
D40*
%TO.C,C22*%
X75361800Y-89394600D03*
X78311800Y-89394600D03*
%TD*%
D41*
%TO.C,C31*%
X102120540Y-173214600D03*
X99170540Y-173214600D03*
%TD*%
D42*
%TO.C,U1*%
X129219250Y-167545400D03*
X130489250Y-167545400D03*
X131759250Y-167545400D03*
X133029250Y-167545400D03*
X133029250Y-172969400D03*
X131759250Y-172969400D03*
X130489250Y-172969400D03*
X129219250Y-172969400D03*
%TD*%
D41*
%TO.C,C32*%
X107659540Y-173214600D03*
X104709540Y-173214600D03*
%TD*%
D43*
%TO.C,C34*%
X84759800Y-183452600D03*
X84759800Y-180502600D03*
%TD*%
D39*
%TO.C,R21*%
X83108800Y-96610100D03*
X83108800Y-98435100D03*
%TD*%
D43*
%TO.C,C35*%
X90728800Y-183452600D03*
X90728800Y-180502600D03*
%TD*%
D44*
%TO.C,U12*%
X112451540Y-178247600D03*
X111501540Y-178247600D03*
X110551540Y-178247600D03*
X110551540Y-175547600D03*
X112451540Y-175547600D03*
%TD*%
D45*
%TO.C,C17*%
X92125800Y-99525600D03*
X92125800Y-102475600D03*
%TD*%
D46*
%TO.C,U10*%
X80630800Y-91426600D03*
X80630800Y-92696600D03*
X80630800Y-93966600D03*
X80630800Y-95236600D03*
X80630800Y-96506600D03*
X80630800Y-97776600D03*
X80630800Y-99046600D03*
X75680800Y-99046600D03*
X75680800Y-97776600D03*
X75680800Y-96506600D03*
X75680800Y-95236600D03*
X75680800Y-93966600D03*
X75680800Y-92696600D03*
X75680800Y-91426600D03*
%TD*%
D47*
%TO.C,R13*%
X108485300Y-146874800D03*
X110310300Y-146874800D03*
%TD*%
D48*
%TO.C,U3*%
X119554400Y-125604500D03*
X119554400Y-126404500D03*
X119554400Y-127204500D03*
X119554400Y-128004500D03*
X119554400Y-128804500D03*
X119554400Y-129604500D03*
X119554400Y-130404500D03*
X119554400Y-131204500D03*
X119554400Y-132004500D03*
X119554400Y-132804500D03*
X119554400Y-133604500D03*
D49*
X117891900Y-135267000D03*
X117091900Y-135267000D03*
X116291900Y-135267000D03*
X115491900Y-135267000D03*
X114691900Y-135267000D03*
X113891900Y-135267000D03*
X113091900Y-135267000D03*
X112291900Y-135267000D03*
X111491900Y-135267000D03*
X110691900Y-135267000D03*
X109891900Y-135267000D03*
D48*
X108229400Y-133604500D03*
X108229400Y-132804500D03*
X108229400Y-132004500D03*
X108229400Y-131204500D03*
X108229400Y-130404500D03*
X108229400Y-129604500D03*
X108229400Y-128804500D03*
X108229400Y-128004500D03*
X108229400Y-127204500D03*
X108229400Y-126404500D03*
X108229400Y-125604500D03*
D49*
X109891900Y-123942000D03*
X110691900Y-123942000D03*
X111491900Y-123942000D03*
X112291900Y-123942000D03*
X113091900Y-123942000D03*
X113891900Y-123942000D03*
X114691900Y-123942000D03*
X115491900Y-123942000D03*
X116291900Y-123942000D03*
X117091900Y-123942000D03*
X117891900Y-123942000D03*
%TD*%
D39*
%TO.C,R9*%
X119354600Y-137137400D03*
X119354600Y-138962400D03*
%TD*%
D44*
%TO.C,U13*%
X107122540Y-178327600D03*
X106172540Y-178327600D03*
X105222540Y-178327600D03*
X105222540Y-175627600D03*
X107122540Y-175627600D03*
%TD*%
D39*
%TO.C,R7*%
X117221000Y-137162800D03*
X117221000Y-138987800D03*
%TD*%
D44*
%TO.C,U15*%
X101788540Y-178454600D03*
X100838540Y-178454600D03*
X99888540Y-178454600D03*
X99888540Y-175754600D03*
X101788540Y-175754600D03*
%TD*%
D43*
%TO.C,C9*%
X122224800Y-129568100D03*
X122224800Y-126618100D03*
%TD*%
D41*
%TO.C,C33*%
X113120540Y-173214600D03*
X110170540Y-173214600D03*
%TD*%
D50*
%TO.C,R8*%
X108331000Y-138962400D03*
X108331000Y-137137400D03*
%TD*%
M02*
