%TF.GenerationSoftware,KiCad,Pcbnew,7.0.11-7.0.11~ubuntu22.04.1*%
%TF.CreationDate,2024-11-07T21:46:57-05:00*%
%TF.ProjectId,coleco_original,636f6c65-636f-45f6-9f72-6967696e616c,DEV*%
%TF.SameCoordinates,Original*%
%TF.FileFunction,AssemblyDrawing,Bot*%
%FSLAX46Y46*%
G04 Gerber Fmt 4.6, Leading zero omitted, Abs format (unit mm)*
G04 Created by KiCad (PCBNEW 7.0.11-7.0.11~ubuntu22.04.1) date 2024-11-07 21:46:57*
%MOMM*%
%LPD*%
G01*
G04 APERTURE LIST*
%ADD10C,0.075000*%
%ADD11C,0.080000*%
%ADD12C,0.120000*%
%ADD13C,0.254000*%
%ADD14C,0.150000*%
%ADD15C,0.100000*%
G04 APERTURE END LIST*
D10*
X88365847Y-182039009D02*
X88365847Y-182443771D01*
X88365847Y-182443771D02*
X88342037Y-182491390D01*
X88342037Y-182491390D02*
X88318228Y-182515200D01*
X88318228Y-182515200D02*
X88270609Y-182539009D01*
X88270609Y-182539009D02*
X88175371Y-182539009D01*
X88175371Y-182539009D02*
X88127752Y-182515200D01*
X88127752Y-182515200D02*
X88103942Y-182491390D01*
X88103942Y-182491390D02*
X88080133Y-182443771D01*
X88080133Y-182443771D02*
X88080133Y-182039009D01*
X87580132Y-182539009D02*
X87865846Y-182539009D01*
X87722989Y-182539009D02*
X87722989Y-182039009D01*
X87722989Y-182039009D02*
X87770608Y-182110438D01*
X87770608Y-182110438D02*
X87818227Y-182158057D01*
X87818227Y-182158057D02*
X87865846Y-182181866D01*
X87151561Y-182039009D02*
X87246799Y-182039009D01*
X87246799Y-182039009D02*
X87294418Y-182062819D01*
X87294418Y-182062819D02*
X87318228Y-182086628D01*
X87318228Y-182086628D02*
X87365847Y-182158057D01*
X87365847Y-182158057D02*
X87389656Y-182253295D01*
X87389656Y-182253295D02*
X87389656Y-182443771D01*
X87389656Y-182443771D02*
X87365847Y-182491390D01*
X87365847Y-182491390D02*
X87342037Y-182515200D01*
X87342037Y-182515200D02*
X87294418Y-182539009D01*
X87294418Y-182539009D02*
X87199180Y-182539009D01*
X87199180Y-182539009D02*
X87151561Y-182515200D01*
X87151561Y-182515200D02*
X87127752Y-182491390D01*
X87127752Y-182491390D02*
X87103942Y-182443771D01*
X87103942Y-182443771D02*
X87103942Y-182324723D01*
X87103942Y-182324723D02*
X87127752Y-182277104D01*
X87127752Y-182277104D02*
X87151561Y-182253295D01*
X87151561Y-182253295D02*
X87199180Y-182229485D01*
X87199180Y-182229485D02*
X87294418Y-182229485D01*
X87294418Y-182229485D02*
X87342037Y-182253295D01*
X87342037Y-182253295D02*
X87365847Y-182277104D01*
X87365847Y-182277104D02*
X87389656Y-182324723D01*
D11*
X73556949Y-91509671D02*
X73318854Y-91343005D01*
X73556949Y-91223957D02*
X73056949Y-91223957D01*
X73056949Y-91223957D02*
X73056949Y-91414433D01*
X73056949Y-91414433D02*
X73080759Y-91462052D01*
X73080759Y-91462052D02*
X73104568Y-91485862D01*
X73104568Y-91485862D02*
X73152187Y-91509671D01*
X73152187Y-91509671D02*
X73223616Y-91509671D01*
X73223616Y-91509671D02*
X73271235Y-91485862D01*
X73271235Y-91485862D02*
X73295044Y-91462052D01*
X73295044Y-91462052D02*
X73318854Y-91414433D01*
X73318854Y-91414433D02*
X73318854Y-91223957D01*
X73104568Y-91700148D02*
X73080759Y-91723957D01*
X73080759Y-91723957D02*
X73056949Y-91771576D01*
X73056949Y-91771576D02*
X73056949Y-91890624D01*
X73056949Y-91890624D02*
X73080759Y-91938243D01*
X73080759Y-91938243D02*
X73104568Y-91962052D01*
X73104568Y-91962052D02*
X73152187Y-91985862D01*
X73152187Y-91985862D02*
X73199806Y-91985862D01*
X73199806Y-91985862D02*
X73271235Y-91962052D01*
X73271235Y-91962052D02*
X73556949Y-91676338D01*
X73556949Y-91676338D02*
X73556949Y-91985862D01*
X73056949Y-92295385D02*
X73056949Y-92343004D01*
X73056949Y-92343004D02*
X73080759Y-92390623D01*
X73080759Y-92390623D02*
X73104568Y-92414433D01*
X73104568Y-92414433D02*
X73152187Y-92438242D01*
X73152187Y-92438242D02*
X73247425Y-92462052D01*
X73247425Y-92462052D02*
X73366473Y-92462052D01*
X73366473Y-92462052D02*
X73461711Y-92438242D01*
X73461711Y-92438242D02*
X73509330Y-92414433D01*
X73509330Y-92414433D02*
X73533140Y-92390623D01*
X73533140Y-92390623D02*
X73556949Y-92343004D01*
X73556949Y-92343004D02*
X73556949Y-92295385D01*
X73556949Y-92295385D02*
X73533140Y-92247766D01*
X73533140Y-92247766D02*
X73509330Y-92223957D01*
X73509330Y-92223957D02*
X73461711Y-92200147D01*
X73461711Y-92200147D02*
X73366473Y-92176338D01*
X73366473Y-92176338D02*
X73247425Y-92176338D01*
X73247425Y-92176338D02*
X73152187Y-92200147D01*
X73152187Y-92200147D02*
X73104568Y-92223957D01*
X73104568Y-92223957D02*
X73080759Y-92247766D01*
X73080759Y-92247766D02*
X73056949Y-92295385D01*
D10*
X94395847Y-182006009D02*
X94395847Y-182410771D01*
X94395847Y-182410771D02*
X94372037Y-182458390D01*
X94372037Y-182458390D02*
X94348228Y-182482200D01*
X94348228Y-182482200D02*
X94300609Y-182506009D01*
X94300609Y-182506009D02*
X94205371Y-182506009D01*
X94205371Y-182506009D02*
X94157752Y-182482200D01*
X94157752Y-182482200D02*
X94133942Y-182458390D01*
X94133942Y-182458390D02*
X94110133Y-182410771D01*
X94110133Y-182410771D02*
X94110133Y-182006009D01*
X93610132Y-182506009D02*
X93895846Y-182506009D01*
X93752989Y-182506009D02*
X93752989Y-182006009D01*
X93752989Y-182006009D02*
X93800608Y-182077438D01*
X93800608Y-182077438D02*
X93848227Y-182125057D01*
X93848227Y-182125057D02*
X93895846Y-182148866D01*
X93181561Y-182172676D02*
X93181561Y-182506009D01*
X93300609Y-181982200D02*
X93419656Y-182339342D01*
X93419656Y-182339342D02*
X93110133Y-182339342D01*
D12*
X77351085Y-89682264D02*
X77389181Y-89720360D01*
X77389181Y-89720360D02*
X77503466Y-89758455D01*
X77503466Y-89758455D02*
X77579657Y-89758455D01*
X77579657Y-89758455D02*
X77693943Y-89720360D01*
X77693943Y-89720360D02*
X77770133Y-89644169D01*
X77770133Y-89644169D02*
X77808228Y-89567979D01*
X77808228Y-89567979D02*
X77846324Y-89415598D01*
X77846324Y-89415598D02*
X77846324Y-89301312D01*
X77846324Y-89301312D02*
X77808228Y-89148931D01*
X77808228Y-89148931D02*
X77770133Y-89072740D01*
X77770133Y-89072740D02*
X77693943Y-88996550D01*
X77693943Y-88996550D02*
X77579657Y-88958455D01*
X77579657Y-88958455D02*
X77503466Y-88958455D01*
X77503466Y-88958455D02*
X77389181Y-88996550D01*
X77389181Y-88996550D02*
X77351085Y-89034645D01*
X77046324Y-89034645D02*
X77008228Y-88996550D01*
X77008228Y-88996550D02*
X76932038Y-88958455D01*
X76932038Y-88958455D02*
X76741562Y-88958455D01*
X76741562Y-88958455D02*
X76665371Y-88996550D01*
X76665371Y-88996550D02*
X76627276Y-89034645D01*
X76627276Y-89034645D02*
X76589181Y-89110836D01*
X76589181Y-89110836D02*
X76589181Y-89187026D01*
X76589181Y-89187026D02*
X76627276Y-89301312D01*
X76627276Y-89301312D02*
X77084419Y-89758455D01*
X77084419Y-89758455D02*
X76589181Y-89758455D01*
X76284419Y-89034645D02*
X76246323Y-88996550D01*
X76246323Y-88996550D02*
X76170133Y-88958455D01*
X76170133Y-88958455D02*
X75979657Y-88958455D01*
X75979657Y-88958455D02*
X75903466Y-88996550D01*
X75903466Y-88996550D02*
X75865371Y-89034645D01*
X75865371Y-89034645D02*
X75827276Y-89110836D01*
X75827276Y-89110836D02*
X75827276Y-89187026D01*
X75827276Y-89187026D02*
X75865371Y-89301312D01*
X75865371Y-89301312D02*
X76322514Y-89758455D01*
X76322514Y-89758455D02*
X75827276Y-89758455D01*
X101159825Y-173502264D02*
X101197921Y-173540360D01*
X101197921Y-173540360D02*
X101312206Y-173578455D01*
X101312206Y-173578455D02*
X101388397Y-173578455D01*
X101388397Y-173578455D02*
X101502683Y-173540360D01*
X101502683Y-173540360D02*
X101578873Y-173464169D01*
X101578873Y-173464169D02*
X101616968Y-173387979D01*
X101616968Y-173387979D02*
X101655064Y-173235598D01*
X101655064Y-173235598D02*
X101655064Y-173121312D01*
X101655064Y-173121312D02*
X101616968Y-172968931D01*
X101616968Y-172968931D02*
X101578873Y-172892740D01*
X101578873Y-172892740D02*
X101502683Y-172816550D01*
X101502683Y-172816550D02*
X101388397Y-172778455D01*
X101388397Y-172778455D02*
X101312206Y-172778455D01*
X101312206Y-172778455D02*
X101197921Y-172816550D01*
X101197921Y-172816550D02*
X101159825Y-172854645D01*
X100893159Y-172778455D02*
X100397921Y-172778455D01*
X100397921Y-172778455D02*
X100664587Y-173083217D01*
X100664587Y-173083217D02*
X100550302Y-173083217D01*
X100550302Y-173083217D02*
X100474111Y-173121312D01*
X100474111Y-173121312D02*
X100436016Y-173159407D01*
X100436016Y-173159407D02*
X100397921Y-173235598D01*
X100397921Y-173235598D02*
X100397921Y-173426074D01*
X100397921Y-173426074D02*
X100436016Y-173502264D01*
X100436016Y-173502264D02*
X100474111Y-173540360D01*
X100474111Y-173540360D02*
X100550302Y-173578455D01*
X100550302Y-173578455D02*
X100778873Y-173578455D01*
X100778873Y-173578455D02*
X100855064Y-173540360D01*
X100855064Y-173540360D02*
X100893159Y-173502264D01*
X99636016Y-173578455D02*
X100093159Y-173578455D01*
X99864587Y-173578455D02*
X99864587Y-172778455D01*
X99864587Y-172778455D02*
X99940778Y-172892740D01*
X99940778Y-172892740D02*
X100016968Y-172968931D01*
X100016968Y-172968931D02*
X100093159Y-173007026D01*
D13*
X130428568Y-169289780D02*
X131456663Y-169289780D01*
X131456663Y-169289780D02*
X131577615Y-169350257D01*
X131577615Y-169350257D02*
X131638092Y-169410733D01*
X131638092Y-169410733D02*
X131698568Y-169531685D01*
X131698568Y-169531685D02*
X131698568Y-169773590D01*
X131698568Y-169773590D02*
X131638092Y-169894542D01*
X131638092Y-169894542D02*
X131577615Y-169955019D01*
X131577615Y-169955019D02*
X131456663Y-170015495D01*
X131456663Y-170015495D02*
X130428568Y-170015495D01*
X131698568Y-171285495D02*
X131698568Y-170559780D01*
X131698568Y-170922637D02*
X130428568Y-170922637D01*
X130428568Y-170922637D02*
X130609996Y-170801685D01*
X130609996Y-170801685D02*
X130730949Y-170680733D01*
X130730949Y-170680733D02*
X130791425Y-170559780D01*
D12*
X106698825Y-173502264D02*
X106736921Y-173540360D01*
X106736921Y-173540360D02*
X106851206Y-173578455D01*
X106851206Y-173578455D02*
X106927397Y-173578455D01*
X106927397Y-173578455D02*
X107041683Y-173540360D01*
X107041683Y-173540360D02*
X107117873Y-173464169D01*
X107117873Y-173464169D02*
X107155968Y-173387979D01*
X107155968Y-173387979D02*
X107194064Y-173235598D01*
X107194064Y-173235598D02*
X107194064Y-173121312D01*
X107194064Y-173121312D02*
X107155968Y-172968931D01*
X107155968Y-172968931D02*
X107117873Y-172892740D01*
X107117873Y-172892740D02*
X107041683Y-172816550D01*
X107041683Y-172816550D02*
X106927397Y-172778455D01*
X106927397Y-172778455D02*
X106851206Y-172778455D01*
X106851206Y-172778455D02*
X106736921Y-172816550D01*
X106736921Y-172816550D02*
X106698825Y-172854645D01*
X106432159Y-172778455D02*
X105936921Y-172778455D01*
X105936921Y-172778455D02*
X106203587Y-173083217D01*
X106203587Y-173083217D02*
X106089302Y-173083217D01*
X106089302Y-173083217D02*
X106013111Y-173121312D01*
X106013111Y-173121312D02*
X105975016Y-173159407D01*
X105975016Y-173159407D02*
X105936921Y-173235598D01*
X105936921Y-173235598D02*
X105936921Y-173426074D01*
X105936921Y-173426074D02*
X105975016Y-173502264D01*
X105975016Y-173502264D02*
X106013111Y-173540360D01*
X106013111Y-173540360D02*
X106089302Y-173578455D01*
X106089302Y-173578455D02*
X106317873Y-173578455D01*
X106317873Y-173578455D02*
X106394064Y-173540360D01*
X106394064Y-173540360D02*
X106432159Y-173502264D01*
X105632159Y-172854645D02*
X105594063Y-172816550D01*
X105594063Y-172816550D02*
X105517873Y-172778455D01*
X105517873Y-172778455D02*
X105327397Y-172778455D01*
X105327397Y-172778455D02*
X105251206Y-172816550D01*
X105251206Y-172816550D02*
X105213111Y-172854645D01*
X105213111Y-172854645D02*
X105175016Y-172930836D01*
X105175016Y-172930836D02*
X105175016Y-173007026D01*
X105175016Y-173007026D02*
X105213111Y-173121312D01*
X105213111Y-173121312D02*
X105670254Y-173578455D01*
X105670254Y-173578455D02*
X105175016Y-173578455D01*
X85047464Y-181463314D02*
X85085560Y-181425218D01*
X85085560Y-181425218D02*
X85123655Y-181310933D01*
X85123655Y-181310933D02*
X85123655Y-181234742D01*
X85123655Y-181234742D02*
X85085560Y-181120456D01*
X85085560Y-181120456D02*
X85009369Y-181044266D01*
X85009369Y-181044266D02*
X84933179Y-181006171D01*
X84933179Y-181006171D02*
X84780798Y-180968075D01*
X84780798Y-180968075D02*
X84666512Y-180968075D01*
X84666512Y-180968075D02*
X84514131Y-181006171D01*
X84514131Y-181006171D02*
X84437940Y-181044266D01*
X84437940Y-181044266D02*
X84361750Y-181120456D01*
X84361750Y-181120456D02*
X84323655Y-181234742D01*
X84323655Y-181234742D02*
X84323655Y-181310933D01*
X84323655Y-181310933D02*
X84361750Y-181425218D01*
X84361750Y-181425218D02*
X84399845Y-181463314D01*
X84323655Y-181729980D02*
X84323655Y-182225218D01*
X84323655Y-182225218D02*
X84628417Y-181958552D01*
X84628417Y-181958552D02*
X84628417Y-182072837D01*
X84628417Y-182072837D02*
X84666512Y-182149028D01*
X84666512Y-182149028D02*
X84704607Y-182187123D01*
X84704607Y-182187123D02*
X84780798Y-182225218D01*
X84780798Y-182225218D02*
X84971274Y-182225218D01*
X84971274Y-182225218D02*
X85047464Y-182187123D01*
X85047464Y-182187123D02*
X85085560Y-182149028D01*
X85085560Y-182149028D02*
X85123655Y-182072837D01*
X85123655Y-182072837D02*
X85123655Y-181844266D01*
X85123655Y-181844266D02*
X85085560Y-181768075D01*
X85085560Y-181768075D02*
X85047464Y-181729980D01*
X84590321Y-182910933D02*
X85123655Y-182910933D01*
X84285560Y-182720457D02*
X84856988Y-182529980D01*
X84856988Y-182529980D02*
X84856988Y-183025219D01*
D11*
X83577249Y-99220471D02*
X83339154Y-99053805D01*
X83577249Y-98934757D02*
X83077249Y-98934757D01*
X83077249Y-98934757D02*
X83077249Y-99125233D01*
X83077249Y-99125233D02*
X83101059Y-99172852D01*
X83101059Y-99172852D02*
X83124868Y-99196662D01*
X83124868Y-99196662D02*
X83172487Y-99220471D01*
X83172487Y-99220471D02*
X83243916Y-99220471D01*
X83243916Y-99220471D02*
X83291535Y-99196662D01*
X83291535Y-99196662D02*
X83315344Y-99172852D01*
X83315344Y-99172852D02*
X83339154Y-99125233D01*
X83339154Y-99125233D02*
X83339154Y-98934757D01*
X83124868Y-99410948D02*
X83101059Y-99434757D01*
X83101059Y-99434757D02*
X83077249Y-99482376D01*
X83077249Y-99482376D02*
X83077249Y-99601424D01*
X83077249Y-99601424D02*
X83101059Y-99649043D01*
X83101059Y-99649043D02*
X83124868Y-99672852D01*
X83124868Y-99672852D02*
X83172487Y-99696662D01*
X83172487Y-99696662D02*
X83220106Y-99696662D01*
X83220106Y-99696662D02*
X83291535Y-99672852D01*
X83291535Y-99672852D02*
X83577249Y-99387138D01*
X83577249Y-99387138D02*
X83577249Y-99696662D01*
X83577249Y-100172852D02*
X83577249Y-99887138D01*
X83577249Y-100029995D02*
X83077249Y-100029995D01*
X83077249Y-100029995D02*
X83148678Y-99982376D01*
X83148678Y-99982376D02*
X83196297Y-99934757D01*
X83196297Y-99934757D02*
X83220106Y-99887138D01*
D12*
X91016464Y-181463314D02*
X91054560Y-181425218D01*
X91054560Y-181425218D02*
X91092655Y-181310933D01*
X91092655Y-181310933D02*
X91092655Y-181234742D01*
X91092655Y-181234742D02*
X91054560Y-181120456D01*
X91054560Y-181120456D02*
X90978369Y-181044266D01*
X90978369Y-181044266D02*
X90902179Y-181006171D01*
X90902179Y-181006171D02*
X90749798Y-180968075D01*
X90749798Y-180968075D02*
X90635512Y-180968075D01*
X90635512Y-180968075D02*
X90483131Y-181006171D01*
X90483131Y-181006171D02*
X90406940Y-181044266D01*
X90406940Y-181044266D02*
X90330750Y-181120456D01*
X90330750Y-181120456D02*
X90292655Y-181234742D01*
X90292655Y-181234742D02*
X90292655Y-181310933D01*
X90292655Y-181310933D02*
X90330750Y-181425218D01*
X90330750Y-181425218D02*
X90368845Y-181463314D01*
X90292655Y-181729980D02*
X90292655Y-182225218D01*
X90292655Y-182225218D02*
X90597417Y-181958552D01*
X90597417Y-181958552D02*
X90597417Y-182072837D01*
X90597417Y-182072837D02*
X90635512Y-182149028D01*
X90635512Y-182149028D02*
X90673607Y-182187123D01*
X90673607Y-182187123D02*
X90749798Y-182225218D01*
X90749798Y-182225218D02*
X90940274Y-182225218D01*
X90940274Y-182225218D02*
X91016464Y-182187123D01*
X91016464Y-182187123D02*
X91054560Y-182149028D01*
X91054560Y-182149028D02*
X91092655Y-182072837D01*
X91092655Y-182072837D02*
X91092655Y-181844266D01*
X91092655Y-181844266D02*
X91054560Y-181768075D01*
X91054560Y-181768075D02*
X91016464Y-181729980D01*
X90292655Y-182949028D02*
X90292655Y-182568076D01*
X90292655Y-182568076D02*
X90673607Y-182529980D01*
X90673607Y-182529980D02*
X90635512Y-182568076D01*
X90635512Y-182568076D02*
X90597417Y-182644266D01*
X90597417Y-182644266D02*
X90597417Y-182834742D01*
X90597417Y-182834742D02*
X90635512Y-182910933D01*
X90635512Y-182910933D02*
X90673607Y-182949028D01*
X90673607Y-182949028D02*
X90749798Y-182987123D01*
X90749798Y-182987123D02*
X90940274Y-182987123D01*
X90940274Y-182987123D02*
X91016464Y-182949028D01*
X91016464Y-182949028D02*
X91054560Y-182910933D01*
X91054560Y-182910933D02*
X91092655Y-182834742D01*
X91092655Y-182834742D02*
X91092655Y-182644266D01*
X91092655Y-182644266D02*
X91054560Y-182568076D01*
X91054560Y-182568076D02*
X91016464Y-182529980D01*
D10*
X112120587Y-176625009D02*
X112120587Y-177029771D01*
X112120587Y-177029771D02*
X112096777Y-177077390D01*
X112096777Y-177077390D02*
X112072968Y-177101200D01*
X112072968Y-177101200D02*
X112025349Y-177125009D01*
X112025349Y-177125009D02*
X111930111Y-177125009D01*
X111930111Y-177125009D02*
X111882492Y-177101200D01*
X111882492Y-177101200D02*
X111858682Y-177077390D01*
X111858682Y-177077390D02*
X111834873Y-177029771D01*
X111834873Y-177029771D02*
X111834873Y-176625009D01*
X111334872Y-177125009D02*
X111620586Y-177125009D01*
X111477729Y-177125009D02*
X111477729Y-176625009D01*
X111477729Y-176625009D02*
X111525348Y-176696438D01*
X111525348Y-176696438D02*
X111572967Y-176744057D01*
X111572967Y-176744057D02*
X111620586Y-176767866D01*
X111144396Y-176672628D02*
X111120587Y-176648819D01*
X111120587Y-176648819D02*
X111072968Y-176625009D01*
X111072968Y-176625009D02*
X110953920Y-176625009D01*
X110953920Y-176625009D02*
X110906301Y-176648819D01*
X110906301Y-176648819D02*
X110882492Y-176672628D01*
X110882492Y-176672628D02*
X110858682Y-176720247D01*
X110858682Y-176720247D02*
X110858682Y-176767866D01*
X110858682Y-176767866D02*
X110882492Y-176839295D01*
X110882492Y-176839295D02*
X111168206Y-177125009D01*
X111168206Y-177125009D02*
X110858682Y-177125009D01*
D12*
X92413464Y-100486314D02*
X92451560Y-100448218D01*
X92451560Y-100448218D02*
X92489655Y-100333933D01*
X92489655Y-100333933D02*
X92489655Y-100257742D01*
X92489655Y-100257742D02*
X92451560Y-100143456D01*
X92451560Y-100143456D02*
X92375369Y-100067266D01*
X92375369Y-100067266D02*
X92299179Y-100029171D01*
X92299179Y-100029171D02*
X92146798Y-99991075D01*
X92146798Y-99991075D02*
X92032512Y-99991075D01*
X92032512Y-99991075D02*
X91880131Y-100029171D01*
X91880131Y-100029171D02*
X91803940Y-100067266D01*
X91803940Y-100067266D02*
X91727750Y-100143456D01*
X91727750Y-100143456D02*
X91689655Y-100257742D01*
X91689655Y-100257742D02*
X91689655Y-100333933D01*
X91689655Y-100333933D02*
X91727750Y-100448218D01*
X91727750Y-100448218D02*
X91765845Y-100486314D01*
X92489655Y-101248218D02*
X92489655Y-100791075D01*
X92489655Y-101019647D02*
X91689655Y-101019647D01*
X91689655Y-101019647D02*
X91803940Y-100943456D01*
X91803940Y-100943456D02*
X91880131Y-100867266D01*
X91880131Y-100867266D02*
X91918226Y-100791075D01*
X91689655Y-101514885D02*
X91689655Y-102048219D01*
X91689655Y-102048219D02*
X92489655Y-101705361D01*
D14*
X79369132Y-94702166D02*
X79369132Y-95495500D01*
X79369132Y-95495500D02*
X79322466Y-95588833D01*
X79322466Y-95588833D02*
X79275799Y-95635500D01*
X79275799Y-95635500D02*
X79182466Y-95682166D01*
X79182466Y-95682166D02*
X78995799Y-95682166D01*
X78995799Y-95682166D02*
X78902466Y-95635500D01*
X78902466Y-95635500D02*
X78855799Y-95588833D01*
X78855799Y-95588833D02*
X78809132Y-95495500D01*
X78809132Y-95495500D02*
X78809132Y-94702166D01*
X77829132Y-95682166D02*
X78389132Y-95682166D01*
X78109132Y-95682166D02*
X78109132Y-94702166D01*
X78109132Y-94702166D02*
X78202465Y-94842166D01*
X78202465Y-94842166D02*
X78295799Y-94935500D01*
X78295799Y-94935500D02*
X78389132Y-94982166D01*
X77222466Y-94702166D02*
X77129132Y-94702166D01*
X77129132Y-94702166D02*
X77035799Y-94748833D01*
X77035799Y-94748833D02*
X76989132Y-94795500D01*
X76989132Y-94795500D02*
X76942466Y-94888833D01*
X76942466Y-94888833D02*
X76895799Y-95075500D01*
X76895799Y-95075500D02*
X76895799Y-95308833D01*
X76895799Y-95308833D02*
X76942466Y-95495500D01*
X76942466Y-95495500D02*
X76989132Y-95588833D01*
X76989132Y-95588833D02*
X77035799Y-95635500D01*
X77035799Y-95635500D02*
X77129132Y-95682166D01*
X77129132Y-95682166D02*
X77222466Y-95682166D01*
X77222466Y-95682166D02*
X77315799Y-95635500D01*
X77315799Y-95635500D02*
X77362466Y-95588833D01*
X77362466Y-95588833D02*
X77409132Y-95495500D01*
X77409132Y-95495500D02*
X77455799Y-95308833D01*
X77455799Y-95308833D02*
X77455799Y-95075500D01*
X77455799Y-95075500D02*
X77409132Y-94888833D01*
X77409132Y-94888833D02*
X77362466Y-94795500D01*
X77362466Y-94795500D02*
X77315799Y-94748833D01*
X77315799Y-94748833D02*
X77222466Y-94702166D01*
D11*
X109719228Y-147101949D02*
X109885894Y-146863854D01*
X110004942Y-147101949D02*
X110004942Y-146601949D01*
X110004942Y-146601949D02*
X109814466Y-146601949D01*
X109814466Y-146601949D02*
X109766847Y-146625759D01*
X109766847Y-146625759D02*
X109743037Y-146649568D01*
X109743037Y-146649568D02*
X109719228Y-146697187D01*
X109719228Y-146697187D02*
X109719228Y-146768616D01*
X109719228Y-146768616D02*
X109743037Y-146816235D01*
X109743037Y-146816235D02*
X109766847Y-146840044D01*
X109766847Y-146840044D02*
X109814466Y-146863854D01*
X109814466Y-146863854D02*
X110004942Y-146863854D01*
X109243037Y-147101949D02*
X109528751Y-147101949D01*
X109385894Y-147101949D02*
X109385894Y-146601949D01*
X109385894Y-146601949D02*
X109433513Y-146673378D01*
X109433513Y-146673378D02*
X109481132Y-146720997D01*
X109481132Y-146720997D02*
X109528751Y-146744806D01*
X109076371Y-146601949D02*
X108766847Y-146601949D01*
X108766847Y-146601949D02*
X108933514Y-146792425D01*
X108933514Y-146792425D02*
X108862085Y-146792425D01*
X108862085Y-146792425D02*
X108814466Y-146816235D01*
X108814466Y-146816235D02*
X108790657Y-146840044D01*
X108790657Y-146840044D02*
X108766847Y-146887663D01*
X108766847Y-146887663D02*
X108766847Y-147006711D01*
X108766847Y-147006711D02*
X108790657Y-147054330D01*
X108790657Y-147054330D02*
X108814466Y-147078140D01*
X108814466Y-147078140D02*
X108862085Y-147101949D01*
X108862085Y-147101949D02*
X109004942Y-147101949D01*
X109004942Y-147101949D02*
X109052561Y-147078140D01*
X109052561Y-147078140D02*
X109076371Y-147054330D01*
D14*
X121615104Y-123839919D02*
X121615104Y-124649442D01*
X121615104Y-124649442D02*
X121567485Y-124744680D01*
X121567485Y-124744680D02*
X121519866Y-124792300D01*
X121519866Y-124792300D02*
X121424628Y-124839919D01*
X121424628Y-124839919D02*
X121234152Y-124839919D01*
X121234152Y-124839919D02*
X121138914Y-124792300D01*
X121138914Y-124792300D02*
X121091295Y-124744680D01*
X121091295Y-124744680D02*
X121043676Y-124649442D01*
X121043676Y-124649442D02*
X121043676Y-123839919D01*
X120662723Y-123839919D02*
X120043676Y-123839919D01*
X120043676Y-123839919D02*
X120377009Y-124220871D01*
X120377009Y-124220871D02*
X120234152Y-124220871D01*
X120234152Y-124220871D02*
X120138914Y-124268490D01*
X120138914Y-124268490D02*
X120091295Y-124316109D01*
X120091295Y-124316109D02*
X120043676Y-124411347D01*
X120043676Y-124411347D02*
X120043676Y-124649442D01*
X120043676Y-124649442D02*
X120091295Y-124744680D01*
X120091295Y-124744680D02*
X120138914Y-124792300D01*
X120138914Y-124792300D02*
X120234152Y-124839919D01*
X120234152Y-124839919D02*
X120519866Y-124839919D01*
X120519866Y-124839919D02*
X120615104Y-124792300D01*
X120615104Y-124792300D02*
X120662723Y-124744680D01*
D11*
X119581749Y-137966566D02*
X119343654Y-137799900D01*
X119581749Y-137680852D02*
X119081749Y-137680852D01*
X119081749Y-137680852D02*
X119081749Y-137871328D01*
X119081749Y-137871328D02*
X119105559Y-137918947D01*
X119105559Y-137918947D02*
X119129368Y-137942757D01*
X119129368Y-137942757D02*
X119176987Y-137966566D01*
X119176987Y-137966566D02*
X119248416Y-137966566D01*
X119248416Y-137966566D02*
X119296035Y-137942757D01*
X119296035Y-137942757D02*
X119319844Y-137918947D01*
X119319844Y-137918947D02*
X119343654Y-137871328D01*
X119343654Y-137871328D02*
X119343654Y-137680852D01*
X119581749Y-138204662D02*
X119581749Y-138299900D01*
X119581749Y-138299900D02*
X119557940Y-138347519D01*
X119557940Y-138347519D02*
X119534130Y-138371328D01*
X119534130Y-138371328D02*
X119462701Y-138418947D01*
X119462701Y-138418947D02*
X119367463Y-138442757D01*
X119367463Y-138442757D02*
X119176987Y-138442757D01*
X119176987Y-138442757D02*
X119129368Y-138418947D01*
X119129368Y-138418947D02*
X119105559Y-138395138D01*
X119105559Y-138395138D02*
X119081749Y-138347519D01*
X119081749Y-138347519D02*
X119081749Y-138252281D01*
X119081749Y-138252281D02*
X119105559Y-138204662D01*
X119105559Y-138204662D02*
X119129368Y-138180852D01*
X119129368Y-138180852D02*
X119176987Y-138157043D01*
X119176987Y-138157043D02*
X119296035Y-138157043D01*
X119296035Y-138157043D02*
X119343654Y-138180852D01*
X119343654Y-138180852D02*
X119367463Y-138204662D01*
X119367463Y-138204662D02*
X119391273Y-138252281D01*
X119391273Y-138252281D02*
X119391273Y-138347519D01*
X119391273Y-138347519D02*
X119367463Y-138395138D01*
X119367463Y-138395138D02*
X119343654Y-138418947D01*
X119343654Y-138418947D02*
X119296035Y-138442757D01*
D10*
X106791587Y-176705009D02*
X106791587Y-177109771D01*
X106791587Y-177109771D02*
X106767777Y-177157390D01*
X106767777Y-177157390D02*
X106743968Y-177181200D01*
X106743968Y-177181200D02*
X106696349Y-177205009D01*
X106696349Y-177205009D02*
X106601111Y-177205009D01*
X106601111Y-177205009D02*
X106553492Y-177181200D01*
X106553492Y-177181200D02*
X106529682Y-177157390D01*
X106529682Y-177157390D02*
X106505873Y-177109771D01*
X106505873Y-177109771D02*
X106505873Y-176705009D01*
X106005872Y-177205009D02*
X106291586Y-177205009D01*
X106148729Y-177205009D02*
X106148729Y-176705009D01*
X106148729Y-176705009D02*
X106196348Y-176776438D01*
X106196348Y-176776438D02*
X106243967Y-176824057D01*
X106243967Y-176824057D02*
X106291586Y-176847866D01*
X105839206Y-176705009D02*
X105529682Y-176705009D01*
X105529682Y-176705009D02*
X105696349Y-176895485D01*
X105696349Y-176895485D02*
X105624920Y-176895485D01*
X105624920Y-176895485D02*
X105577301Y-176919295D01*
X105577301Y-176919295D02*
X105553492Y-176943104D01*
X105553492Y-176943104D02*
X105529682Y-176990723D01*
X105529682Y-176990723D02*
X105529682Y-177109771D01*
X105529682Y-177109771D02*
X105553492Y-177157390D01*
X105553492Y-177157390D02*
X105577301Y-177181200D01*
X105577301Y-177181200D02*
X105624920Y-177205009D01*
X105624920Y-177205009D02*
X105767777Y-177205009D01*
X105767777Y-177205009D02*
X105815396Y-177181200D01*
X105815396Y-177181200D02*
X105839206Y-177157390D01*
D11*
X117448149Y-137991966D02*
X117210054Y-137825300D01*
X117448149Y-137706252D02*
X116948149Y-137706252D01*
X116948149Y-137706252D02*
X116948149Y-137896728D01*
X116948149Y-137896728D02*
X116971959Y-137944347D01*
X116971959Y-137944347D02*
X116995768Y-137968157D01*
X116995768Y-137968157D02*
X117043387Y-137991966D01*
X117043387Y-137991966D02*
X117114816Y-137991966D01*
X117114816Y-137991966D02*
X117162435Y-137968157D01*
X117162435Y-137968157D02*
X117186244Y-137944347D01*
X117186244Y-137944347D02*
X117210054Y-137896728D01*
X117210054Y-137896728D02*
X117210054Y-137706252D01*
X116948149Y-138158633D02*
X116948149Y-138491966D01*
X116948149Y-138491966D02*
X117448149Y-138277681D01*
D10*
X101457587Y-176832009D02*
X101457587Y-177236771D01*
X101457587Y-177236771D02*
X101433777Y-177284390D01*
X101433777Y-177284390D02*
X101409968Y-177308200D01*
X101409968Y-177308200D02*
X101362349Y-177332009D01*
X101362349Y-177332009D02*
X101267111Y-177332009D01*
X101267111Y-177332009D02*
X101219492Y-177308200D01*
X101219492Y-177308200D02*
X101195682Y-177284390D01*
X101195682Y-177284390D02*
X101171873Y-177236771D01*
X101171873Y-177236771D02*
X101171873Y-176832009D01*
X100671872Y-177332009D02*
X100957586Y-177332009D01*
X100814729Y-177332009D02*
X100814729Y-176832009D01*
X100814729Y-176832009D02*
X100862348Y-176903438D01*
X100862348Y-176903438D02*
X100909967Y-176951057D01*
X100909967Y-176951057D02*
X100957586Y-176974866D01*
X100219492Y-176832009D02*
X100457587Y-176832009D01*
X100457587Y-176832009D02*
X100481396Y-177070104D01*
X100481396Y-177070104D02*
X100457587Y-177046295D01*
X100457587Y-177046295D02*
X100409968Y-177022485D01*
X100409968Y-177022485D02*
X100290920Y-177022485D01*
X100290920Y-177022485D02*
X100243301Y-177046295D01*
X100243301Y-177046295D02*
X100219492Y-177070104D01*
X100219492Y-177070104D02*
X100195682Y-177117723D01*
X100195682Y-177117723D02*
X100195682Y-177236771D01*
X100195682Y-177236771D02*
X100219492Y-177284390D01*
X100219492Y-177284390D02*
X100243301Y-177308200D01*
X100243301Y-177308200D02*
X100290920Y-177332009D01*
X100290920Y-177332009D02*
X100409968Y-177332009D01*
X100409968Y-177332009D02*
X100457587Y-177308200D01*
X100457587Y-177308200D02*
X100481396Y-177284390D01*
D12*
X122512464Y-127959767D02*
X122550560Y-127921671D01*
X122550560Y-127921671D02*
X122588655Y-127807386D01*
X122588655Y-127807386D02*
X122588655Y-127731195D01*
X122588655Y-127731195D02*
X122550560Y-127616909D01*
X122550560Y-127616909D02*
X122474369Y-127540719D01*
X122474369Y-127540719D02*
X122398179Y-127502624D01*
X122398179Y-127502624D02*
X122245798Y-127464528D01*
X122245798Y-127464528D02*
X122131512Y-127464528D01*
X122131512Y-127464528D02*
X121979131Y-127502624D01*
X121979131Y-127502624D02*
X121902940Y-127540719D01*
X121902940Y-127540719D02*
X121826750Y-127616909D01*
X121826750Y-127616909D02*
X121788655Y-127731195D01*
X121788655Y-127731195D02*
X121788655Y-127807386D01*
X121788655Y-127807386D02*
X121826750Y-127921671D01*
X121826750Y-127921671D02*
X121864845Y-127959767D01*
X122588655Y-128340719D02*
X122588655Y-128493100D01*
X122588655Y-128493100D02*
X122550560Y-128569290D01*
X122550560Y-128569290D02*
X122512464Y-128607386D01*
X122512464Y-128607386D02*
X122398179Y-128683576D01*
X122398179Y-128683576D02*
X122245798Y-128721671D01*
X122245798Y-128721671D02*
X121941036Y-128721671D01*
X121941036Y-128721671D02*
X121864845Y-128683576D01*
X121864845Y-128683576D02*
X121826750Y-128645481D01*
X121826750Y-128645481D02*
X121788655Y-128569290D01*
X121788655Y-128569290D02*
X121788655Y-128416909D01*
X121788655Y-128416909D02*
X121826750Y-128340719D01*
X121826750Y-128340719D02*
X121864845Y-128302624D01*
X121864845Y-128302624D02*
X121941036Y-128264528D01*
X121941036Y-128264528D02*
X122131512Y-128264528D01*
X122131512Y-128264528D02*
X122207702Y-128302624D01*
X122207702Y-128302624D02*
X122245798Y-128340719D01*
X122245798Y-128340719D02*
X122283893Y-128416909D01*
X122283893Y-128416909D02*
X122283893Y-128569290D01*
X122283893Y-128569290D02*
X122245798Y-128645481D01*
X122245798Y-128645481D02*
X122207702Y-128683576D01*
X122207702Y-128683576D02*
X122131512Y-128721671D01*
X112159825Y-173502264D02*
X112197921Y-173540360D01*
X112197921Y-173540360D02*
X112312206Y-173578455D01*
X112312206Y-173578455D02*
X112388397Y-173578455D01*
X112388397Y-173578455D02*
X112502683Y-173540360D01*
X112502683Y-173540360D02*
X112578873Y-173464169D01*
X112578873Y-173464169D02*
X112616968Y-173387979D01*
X112616968Y-173387979D02*
X112655064Y-173235598D01*
X112655064Y-173235598D02*
X112655064Y-173121312D01*
X112655064Y-173121312D02*
X112616968Y-172968931D01*
X112616968Y-172968931D02*
X112578873Y-172892740D01*
X112578873Y-172892740D02*
X112502683Y-172816550D01*
X112502683Y-172816550D02*
X112388397Y-172778455D01*
X112388397Y-172778455D02*
X112312206Y-172778455D01*
X112312206Y-172778455D02*
X112197921Y-172816550D01*
X112197921Y-172816550D02*
X112159825Y-172854645D01*
X111893159Y-172778455D02*
X111397921Y-172778455D01*
X111397921Y-172778455D02*
X111664587Y-173083217D01*
X111664587Y-173083217D02*
X111550302Y-173083217D01*
X111550302Y-173083217D02*
X111474111Y-173121312D01*
X111474111Y-173121312D02*
X111436016Y-173159407D01*
X111436016Y-173159407D02*
X111397921Y-173235598D01*
X111397921Y-173235598D02*
X111397921Y-173426074D01*
X111397921Y-173426074D02*
X111436016Y-173502264D01*
X111436016Y-173502264D02*
X111474111Y-173540360D01*
X111474111Y-173540360D02*
X111550302Y-173578455D01*
X111550302Y-173578455D02*
X111778873Y-173578455D01*
X111778873Y-173578455D02*
X111855064Y-173540360D01*
X111855064Y-173540360D02*
X111893159Y-173502264D01*
X111131254Y-172778455D02*
X110636016Y-172778455D01*
X110636016Y-172778455D02*
X110902682Y-173083217D01*
X110902682Y-173083217D02*
X110788397Y-173083217D01*
X110788397Y-173083217D02*
X110712206Y-173121312D01*
X110712206Y-173121312D02*
X110674111Y-173159407D01*
X110674111Y-173159407D02*
X110636016Y-173235598D01*
X110636016Y-173235598D02*
X110636016Y-173426074D01*
X110636016Y-173426074D02*
X110674111Y-173502264D01*
X110674111Y-173502264D02*
X110712206Y-173540360D01*
X110712206Y-173540360D02*
X110788397Y-173578455D01*
X110788397Y-173578455D02*
X111016968Y-173578455D01*
X111016968Y-173578455D02*
X111093159Y-173540360D01*
X111093159Y-173540360D02*
X111131254Y-173502264D01*
D11*
X108558149Y-137966566D02*
X108320054Y-137799900D01*
X108558149Y-137680852D02*
X108058149Y-137680852D01*
X108058149Y-137680852D02*
X108058149Y-137871328D01*
X108058149Y-137871328D02*
X108081959Y-137918947D01*
X108081959Y-137918947D02*
X108105768Y-137942757D01*
X108105768Y-137942757D02*
X108153387Y-137966566D01*
X108153387Y-137966566D02*
X108224816Y-137966566D01*
X108224816Y-137966566D02*
X108272435Y-137942757D01*
X108272435Y-137942757D02*
X108296244Y-137918947D01*
X108296244Y-137918947D02*
X108320054Y-137871328D01*
X108320054Y-137871328D02*
X108320054Y-137680852D01*
X108272435Y-138252281D02*
X108248625Y-138204662D01*
X108248625Y-138204662D02*
X108224816Y-138180852D01*
X108224816Y-138180852D02*
X108177197Y-138157043D01*
X108177197Y-138157043D02*
X108153387Y-138157043D01*
X108153387Y-138157043D02*
X108105768Y-138180852D01*
X108105768Y-138180852D02*
X108081959Y-138204662D01*
X108081959Y-138204662D02*
X108058149Y-138252281D01*
X108058149Y-138252281D02*
X108058149Y-138347519D01*
X108058149Y-138347519D02*
X108081959Y-138395138D01*
X108081959Y-138395138D02*
X108105768Y-138418947D01*
X108105768Y-138418947D02*
X108153387Y-138442757D01*
X108153387Y-138442757D02*
X108177197Y-138442757D01*
X108177197Y-138442757D02*
X108224816Y-138418947D01*
X108224816Y-138418947D02*
X108248625Y-138395138D01*
X108248625Y-138395138D02*
X108272435Y-138347519D01*
X108272435Y-138347519D02*
X108272435Y-138252281D01*
X108272435Y-138252281D02*
X108296244Y-138204662D01*
X108296244Y-138204662D02*
X108320054Y-138180852D01*
X108320054Y-138180852D02*
X108367673Y-138157043D01*
X108367673Y-138157043D02*
X108462911Y-138157043D01*
X108462911Y-138157043D02*
X108510530Y-138180852D01*
X108510530Y-138180852D02*
X108534340Y-138204662D01*
X108534340Y-138204662D02*
X108558149Y-138252281D01*
X108558149Y-138252281D02*
X108558149Y-138347519D01*
X108558149Y-138347519D02*
X108534340Y-138395138D01*
X108534340Y-138395138D02*
X108510530Y-138418947D01*
X108510530Y-138418947D02*
X108462911Y-138442757D01*
X108462911Y-138442757D02*
X108367673Y-138442757D01*
X108367673Y-138442757D02*
X108320054Y-138418947D01*
X108320054Y-138418947D02*
X108296244Y-138395138D01*
X108296244Y-138395138D02*
X108272435Y-138347519D01*
D15*
%TO.C,U16*%
X86846800Y-181411600D02*
X89296800Y-181411600D01*
X86846800Y-181411600D02*
X86196800Y-182061600D01*
X89296800Y-183211600D02*
X89296800Y-181411600D01*
X86196800Y-183211600D02*
X86196800Y-182061600D01*
X86196800Y-183211600D02*
X89296800Y-183211600D01*
%TO.C,R20*%
X73954800Y-90831100D02*
X72704800Y-90831100D01*
X72704800Y-90831100D02*
X72704800Y-92831100D01*
X73954800Y-92831100D02*
X73954800Y-90831100D01*
X72704800Y-92831100D02*
X73954800Y-92831100D01*
%TO.C,U14*%
X92876800Y-181378600D02*
X95326800Y-181378600D01*
X92876800Y-181378600D02*
X92226800Y-182028600D01*
X95326800Y-183178600D02*
X95326800Y-181378600D01*
X92226800Y-183178600D02*
X92226800Y-182028600D01*
X92226800Y-183178600D02*
X95326800Y-183178600D01*
%TO.C,C22*%
X75236800Y-88594600D02*
X75236800Y-90194600D01*
X75236800Y-90194600D02*
X78436800Y-90194600D01*
X78436800Y-88594600D02*
X75236800Y-88594600D01*
X78436800Y-90194600D02*
X78436800Y-88594600D01*
%TO.C,C31*%
X102245540Y-174014600D02*
X102245540Y-172414600D01*
X102245540Y-172414600D02*
X99045540Y-172414600D01*
X99045540Y-174014600D02*
X102245540Y-174014600D01*
X99045540Y-172414600D02*
X99045540Y-174014600D01*
%TO.C,U1*%
X133574250Y-168307400D02*
X128674250Y-168307400D01*
X129944250Y-168307400D02*
X128674250Y-169577400D01*
X128674250Y-168307400D02*
X128674250Y-172207400D01*
X133574250Y-172207400D02*
X133574250Y-168307400D01*
X128674250Y-172207400D02*
X133574250Y-172207400D01*
%TO.C,C32*%
X107784540Y-174014600D02*
X107784540Y-172414600D01*
X107784540Y-172414600D02*
X104584540Y-172414600D01*
X104584540Y-174014600D02*
X107784540Y-174014600D01*
X104584540Y-172414600D02*
X104584540Y-174014600D01*
%TO.C,C34*%
X83959800Y-183577600D02*
X85559800Y-183577600D01*
X85559800Y-183577600D02*
X85559800Y-180377600D01*
X83959800Y-180377600D02*
X83959800Y-183577600D01*
X85559800Y-180377600D02*
X83959800Y-180377600D01*
%TO.C,R21*%
X83733800Y-96522600D02*
X82483800Y-96522600D01*
X82483800Y-96522600D02*
X82483800Y-98522600D01*
X83733800Y-98522600D02*
X83733800Y-96522600D01*
X82483800Y-98522600D02*
X83733800Y-98522600D01*
%TO.C,C35*%
X89928800Y-183577600D02*
X91528800Y-183577600D01*
X91528800Y-183577600D02*
X91528800Y-180377600D01*
X89928800Y-180377600D02*
X89928800Y-183577600D01*
X91528800Y-180377600D02*
X89928800Y-180377600D01*
%TO.C,U12*%
X112401540Y-177797600D02*
X109951540Y-177797600D01*
X112401540Y-177797600D02*
X113051540Y-177147600D01*
X109951540Y-175997600D02*
X109951540Y-177797600D01*
X113051540Y-175997600D02*
X113051540Y-177147600D01*
X113051540Y-175997600D02*
X109951540Y-175997600D01*
%TO.C,C17*%
X92925800Y-99400600D02*
X91325800Y-99400600D01*
X91325800Y-99400600D02*
X91325800Y-102600600D01*
X92925800Y-102600600D02*
X92925800Y-99400600D01*
X91325800Y-102600600D02*
X92925800Y-102600600D01*
%TO.C,U10*%
X80105800Y-99561600D02*
X80105800Y-91886600D01*
X80105800Y-91886600D02*
X79130800Y-90911600D01*
X79130800Y-90911600D02*
X76205800Y-90911600D01*
X76205800Y-99561600D02*
X80105800Y-99561600D01*
X76205800Y-90911600D02*
X76205800Y-99561600D01*
%TO.C,R13*%
X108397800Y-146249800D02*
X108397800Y-147499800D01*
X108397800Y-147499800D02*
X110397800Y-147499800D01*
X110397800Y-146249800D02*
X108397800Y-146249800D01*
X110397800Y-147499800D02*
X110397800Y-146249800D01*
%TO.C,U3*%
X118891900Y-134604500D02*
X118891900Y-125604500D01*
X118891900Y-125604500D02*
X117891900Y-124604500D01*
X117891900Y-124604500D02*
X108891900Y-124604500D01*
X108891900Y-134604500D02*
X118891900Y-134604500D01*
X108891900Y-124604500D02*
X108891900Y-134604500D01*
%TO.C,R9*%
X119979600Y-137049900D02*
X118729600Y-137049900D01*
X118729600Y-137049900D02*
X118729600Y-139049900D01*
X119979600Y-139049900D02*
X119979600Y-137049900D01*
X118729600Y-139049900D02*
X119979600Y-139049900D01*
%TO.C,U13*%
X107072540Y-177877600D02*
X104622540Y-177877600D01*
X107072540Y-177877600D02*
X107722540Y-177227600D01*
X104622540Y-176077600D02*
X104622540Y-177877600D01*
X107722540Y-176077600D02*
X107722540Y-177227600D01*
X107722540Y-176077600D02*
X104622540Y-176077600D01*
%TO.C,R7*%
X117846000Y-137075300D02*
X116596000Y-137075300D01*
X116596000Y-137075300D02*
X116596000Y-139075300D01*
X117846000Y-139075300D02*
X117846000Y-137075300D01*
X116596000Y-139075300D02*
X117846000Y-139075300D01*
%TO.C,U15*%
X101738540Y-178004600D02*
X99288540Y-178004600D01*
X101738540Y-178004600D02*
X102388540Y-177354600D01*
X99288540Y-176204600D02*
X99288540Y-178004600D01*
X102388540Y-176204600D02*
X102388540Y-177354600D01*
X102388540Y-176204600D02*
X99288540Y-176204600D01*
%TO.C,C9*%
X121424800Y-129693100D02*
X123024800Y-129693100D01*
X123024800Y-129693100D02*
X123024800Y-126493100D01*
X121424800Y-126493100D02*
X121424800Y-129693100D01*
X123024800Y-126493100D02*
X121424800Y-126493100D01*
%TO.C,C33*%
X113245540Y-174014600D02*
X113245540Y-172414600D01*
X113245540Y-172414600D02*
X110045540Y-172414600D01*
X110045540Y-174014600D02*
X113245540Y-174014600D01*
X110045540Y-172414600D02*
X110045540Y-174014600D01*
%TO.C,R8*%
X107706000Y-139049900D02*
X108956000Y-139049900D01*
X108956000Y-139049900D02*
X108956000Y-137049900D01*
X107706000Y-137049900D02*
X107706000Y-139049900D01*
X108956000Y-137049900D02*
X107706000Y-137049900D01*
%TD*%
M02*
